<svg xmlns="http://www.w3.org/2000/svg" xmlns:xlink="http://www.w3.org/1999/xlink" width="400" height="436.929" viewBox="0 0 400 436.929">
  <defs>
    <clipPath id="clip-path">
      <path id="Trazado_182442" data-name="Trazado 182442" d="M164.43,71.18,134.75,273.01h230.5L335.57,71.18" transform="translate(-134.75 -71.18)" fill="#90b0bf" stroke="#263238" stroke-linecap="round" stroke-linejoin="round" stroke-width="1"/>
    </clipPath>
    <clipPath id="clip-path-2">
      <path id="Trazado_182448" data-name="Trazado 182448" d="M316.88,91.41l-1.1,5.46-11.3,56.19a3.7,3.7,0,0,1-3.63,3H199.15a3.7,3.7,0,0,1-3.63-3L184,95.54l-.83-4.13A1.9,1.9,0,0,1,185,89.14H315a1.9,1.9,0,0,1,1.88,2.27Z" transform="translate(-183.134 -89.14)" fill="#fff" stroke="#263238" stroke-linecap="round" stroke-linejoin="round" stroke-width="1"/>
    </clipPath>
    <clipPath id="clip-path-3">
      <path id="Trazado_182453" data-name="Trazado 182453" d="M318.48,106.15l-1.1,5.34-11.59,56.13a3.77,3.77,0,0,1-3.72,3H197.93a3.77,3.77,0,0,1-3.72-3L182.58,111.3l-1.06-5.15a1.91,1.91,0,0,1,1.9-2.27H316.58a1.91,1.91,0,0,1,1.9,2.27Z" transform="translate(-181.486 -103.88)" fill="#fff" stroke="#263238" stroke-linecap="round" stroke-linejoin="round" stroke-width="1"/>
    </clipPath>
    <clipPath id="clip-path-4">
      <path id="Trazado_182462" data-name="Trazado 182462" d="M321.25,142.12H178.75a1.94,1.94,0,0,0-2,2.24l3.34,15,10.24,45.93a4,4,0,0,0,4,2.94h111.4a4,4,0,0,0,4-2.94l5-22.53,8.56-38.39a1.94,1.94,0,0,0-2.04-2.25Z" transform="translate(-176.726 -142.116)" fill="#fff" stroke="#263238" stroke-linecap="round" stroke-linejoin="round" stroke-width="1"/>
    </clipPath>
    <clipPath id="clip-path-5">
      <path id="Trazado_182467" data-name="Trazado 182467" d="M328.4,211.67l-1.4,7.18-10.57,53.63a4.29,4.29,0,0,1-4.19,3.1l-121.07,5.56a4.29,4.29,0,0,1-4.46-2.7L170,221.74l-.81-2.75c-.33-1.13.69-2.25,2.11-2.31l154.81-7.12C327.52,209.5,328.63,210.52,328.4,211.67Z" transform="translate(-169.128 -209.557)" fill="#fff" stroke="#263238" stroke-linecap="round" stroke-linejoin="round" stroke-width="1"/>
    </clipPath>
    <clipPath id="clip-path-6">
      <path id="Trazado_182472" data-name="Trazado 182472" d="M332.56,236.32l-3,9.88-15.14,49.26a4.36,4.36,0,0,1-4.56,2.66l-123.47-6.45a4.38,4.38,0,0,1-4.26-3.12l-10.45-53.27-1.46-7.45c-.23-1.15.92-2.16,2.37-2.08L330.42,234C331.87,234.08,332.91,235.2,332.56,236.32Z" transform="translate(-170.191 -225.746)" fill="#fff" stroke="#263238" stroke-linecap="round" stroke-linejoin="round" stroke-width="1"/>
    </clipPath>
    <clipPath id="clip-path-7">
      <path id="Trazado_182480" data-name="Trazado 182480" d="M340.37,392.97H159.63L120.07,280.78H379.93Z" transform="translate(-120.07 -280.78)" fill="#90b0bf" stroke="#263238" stroke-linecap="round" stroke-linejoin="round" stroke-width="1"/>
    </clipPath>
    <clipPath id="clip-path-8">
      <path id="Trazado_182497" data-name="Trazado 182497" d="M255.63,123.53l-.82-2.35a3.93,3.93,0,0,0-3.26-2.46l-22.24-2.87a2.13,2.13,0,0,0-2.49,1.68l-.29,2.25-17.72-2.28a2,2,0,0,0-2.41,2l6.31,65.14,120,15.47,22.62-61.41a2,2,0,0,0-1.82-2.54Z" transform="translate(-206.4 -115.812)" fill="#fff" stroke="#263238" stroke-linecap="round" stroke-linejoin="round" stroke-width="1"/>
    </clipPath>
    <clipPath id="clip-path-9">
      <path id="Trazado_182501" data-name="Trazado 182501" d="M356.48,142.39,336,198l-1.58,4.28a4.15,4.15,0,0,1-4.51,2.44L214.26,189.8a4.15,4.15,0,0,1-3.74-3.51l-6.15-63.5a2,2,0,0,1,2.41-2l98.42,12.69,49.46,6.37a2,2,0,0,1,1.82,2.54Z" transform="translate(-204.37 -120.747)" fill="#fff" stroke="#263238" stroke-linecap="round" stroke-linejoin="round" stroke-width="1"/>
    </clipPath>
  </defs>
  <g id="Grupo_129542" data-name="Grupo 129542" transform="translate(-1020 -1812)">
    <g id="Personal_files-bro" data-name="Personal files-bro" transform="translate(972.042 1772.068)">
      <g id="freepik--background-simple--inject-2" transform="translate(47.958 39.931)">
        <path id="Trazado_182419" data-name="Trazado 182419" d="M196.19,44.14s44.082-9.47,84.192,0c24.532,5.79,76.191,19.52,88.391,50.64s-46.517,57.67-17.673,89.24c12.445,13.62,72.162,31.58,68.8,119.92S329.05,446.13,207.456,443.73,15.662,324.14,62.689,266.43s67.274-57.88,45.96-104.88S116.923,57.59,196.19,44.14Z" transform="translate(-47.958 -39.931)" fill="#90b0bf"/>
        <path id="Trazado_182420" data-name="Trazado 182420" d="M196.19,44.14s44.082-9.47,84.192,0c24.532,5.79,76.191,19.52,88.391,50.64s-46.517,57.67-17.673,89.24c12.445,13.62,72.162,31.58,68.8,119.92S329.05,446.13,207.456,443.73,15.662,324.14,62.689,266.43s67.274-57.88,45.96-104.88S116.923,57.59,196.19,44.14Z" transform="translate(-47.958 -39.931)" fill="#88e0ef" opacity="0.7"/>
      </g>
      <g id="freepik--Graphics--inject-2" transform="translate(72.6 56.65)">
        <path id="Trazado_182421" data-name="Trazado 182421" d="M115.94,188.19l8.7,25.44L82.92,227.9,72.6,197.71l41.72-14.27Z" transform="translate(-72.6 -56.65)" fill="none" stroke="#263238" stroke-linecap="round" stroke-linejoin="round" stroke-width="1"/>
        <path id="Trazado_182422" data-name="Trazado 182422" d="M120.28,200.86l4.36,12.77L82.92,227.9l-2.14-6.26,8.41-12.74,13.69,5.33,9.77-16.48Z" transform="translate(-72.6 -56.65)" fill="none" stroke="#263238" stroke-linecap="round" stroke-linejoin="round" stroke-width="1"/>
        <path id="Trazado_182423" data-name="Trazado 182423" d="M94.22,199.25a4.53,4.53,0,1,1-2.3-2.6,4.54,4.54,0,0,1,2.3,2.6Z" transform="translate(-72.6 -56.65)" fill="none" stroke="#263238" stroke-linecap="round" stroke-linejoin="round" stroke-width="1"/>
        <path id="Trazado_182424" data-name="Trazado 182424" d="M364.56,397l-5.75,26.27-43.07-9.44,6.82-31.16,43.08,9.43Z" transform="translate(-89.88 -56.65)" fill="none" stroke="#263238" stroke-linecap="round" stroke-linejoin="round" stroke-width="1"/>
        <line id="Línea_321" data-name="Línea 321" x2="29.59" y2="6.48" transform="translate(234.882 350.46)" fill="none" stroke="#263238" stroke-linecap="round" stroke-linejoin="round" stroke-width="1"/>
        <path id="Trazado_182425" data-name="Trazado 182425" d="M326.7,393.3s-3,13.75,12.36,17.12S357.43,400,357.43,400" transform="translate(-89.614 -56.65)" fill="none" stroke="#263238" stroke-linecap="round" stroke-linejoin="round" stroke-width="1"/>
        <path id="Trazado_182426" data-name="Trazado 182426" d="M328,393.59a1.33,1.33,0,1,1-.527-1.384A1.34,1.34,0,0,1,328,393.59Z" transform="translate(-88.211 -56.65)" fill="#fff" stroke="#263238" stroke-linecap="round" stroke-linejoin="round" stroke-width="1"/>
        <path id="Trazado_182427" data-name="Trazado 182427" d="M358.73,400.32a1.33,1.33,0,1,1-1.031-1.483,1.33,1.33,0,0,1,1.031,1.483Z" transform="translate(-90.107 -56.65)" fill="#fff" stroke="#263238" stroke-linecap="round" stroke-linejoin="round" stroke-width="1"/>
        <rect id="Rectángulo_39707" data-name="Rectángulo 39707" width="2.33" height="2.33" transform="matrix(0.977, 0.214, -0.214, 0.977, 234.798, 349.01)" fill="#fff" stroke="#263238" stroke-linecap="round" stroke-linejoin="round" stroke-width="1"/>
        <rect id="Rectángulo_39708" data-name="Rectángulo 39708" width="2.33" height="2.33" transform="matrix(0.977, 0.214, -0.214, 0.977, 249.205, 352.368)" fill="#fff" stroke="#263238" stroke-linecap="round" stroke-linejoin="round" stroke-width="1"/>
        <rect id="Rectángulo_39709" data-name="Rectángulo 39709" width="2.33" height="2.33" transform="matrix(0.977, 0.214, -0.214, 0.977, 263.629, 355.737)" fill="#fff" stroke="#263238" stroke-linecap="round" stroke-linejoin="round" stroke-width="1"/>
        <path id="Trazado_182428" data-name="Trazado 182428" d="M165.25,111.27l-10.88,24.59L114.04,118l12.92-29.17,40.32,17.85Z" transform="translate(-72.6 -56.65)" fill="none" stroke="#263238" stroke-linecap="round" stroke-linejoin="round" stroke-width="1"/>
        <path id="Trazado_182429" data-name="Trazado 182429" d="M144.08,121.41c-.77,1.74-3.56,2.2-6.22,1s-4.19-3.55-3.42-5.3,3.56-2.2,6.22-1S144.85,119.66,144.08,121.41Z" transform="translate(-72.6 -56.65)" fill="#263238"/>
        <path id="Trazado_182430" data-name="Trazado 182430" d="M146.12,102.2l-10.76,15.35-.92-.41,7.87-11.22,2-2.92a6.14,6.14,0,0,0,1.76-.79Z" transform="translate(-76.517 -56.65)" fill="#263238"/>
        <path id="Trazado_182431" data-name="Trazado 182431" d="M146.11,102.21l-2.61,3.7a5.65,5.65,0,0,1-1.19,0,8.56,8.56,0,0,1-3.37-1,4.26,4.26,0,0,0-4.53.31c.13-.16,2.67-3.33,6.17-2.22a6.26,6.26,0,0,0,3.77,0,6.14,6.14,0,0,0,1.76-.79Z" transform="translate(-76.515 -56.65)" fill="#263238"/>
        <path id="Trazado_182432" data-name="Trazado 182432" d="M434.03,310.61l-9.39,25.2-41.32-15.39,11.14-29.91,41.32,15.4Z" transform="translate(-94.865 -56.65)" fill="none" stroke="#263238" stroke-linecap="round" stroke-linejoin="round" stroke-width="1"/>
        <path id="Trazado_182433" data-name="Trazado 182433" d="M406.22,305.07l-10.36,4.74,4.74,10.37" transform="translate(-94.865 -56.65)" fill="none" stroke="#263238" stroke-linecap="round" stroke-linejoin="round" stroke-width="1"/>
        <path id="Trazado_182434" data-name="Trazado 182434" d="M411.73,324.32l10.37-4.73-4.74-10.37" transform="translate(-94.865 -56.65)" fill="none" stroke="#263238" stroke-linecap="round" stroke-linejoin="round" stroke-width="1"/>
        <line id="Línea_322" data-name="Línea 322" x1="9.25" y2="13.79" transform="translate(309.485 251.15)" fill="none" stroke="#263238" stroke-linecap="round" stroke-linejoin="round" stroke-width="1"/>
        <path id="Trazado_182435" data-name="Trazado 182435" d="M392.8,76.47l-9.21,25.27L342.16,86.63l10.93-29.98,41.43,15.11Z" transform="translate(-94.865 -56.65)" fill="none" stroke="#263238" stroke-linecap="round" stroke-linejoin="round" stroke-width="1"/>
        <path id="Trazado_182436" data-name="Trazado 182436" d="M363.45,78.37s-.5-2.83-4.68-2.21c-3.86.58-5,4.92-1.7,6.11,3.83,1.4,6.83-1.84,10.56-5,3.89-3.33,7.42-6.92,7.87-7.34,0,0-8.77,15.69-9.91,17.76s2.29,1.31,2.91.39" transform="translate(-90.95 -56.65)" fill="none" stroke="#263238" stroke-linecap="round" stroke-linejoin="round" stroke-width="1"/>
        <path id="Trazado_182437" data-name="Trazado 182437" d="M378.26,83a5.18,5.18,0,0,0-7,1.18c-1.22,1.47-.58,3,.47,3.41,2.7,1,4.37-.2,7.21-4.33,0,0-3.93,5.52-3.09,5.83a2.17,2.17,0,0,0,2.19-.49" transform="translate(-94.865 -56.65)" fill="none" stroke="#263238" stroke-linecap="round" stroke-linejoin="round" stroke-width="1"/>
        <line id="Línea_323" data-name="Línea 323" x2="6.94" y2="2.53" transform="translate(271.575 22.08)" fill="none" stroke="#263238" stroke-linecap="round" stroke-linejoin="round" stroke-width="1"/>
        <path id="Trazado_182438" data-name="Trazado 182438" d="M119.36,368.44l-43.08-9.42,5.88-26.88,43.22,9.46Z" transform="translate(-72.6 -56.65)" fill="none" stroke="#263238" stroke-linecap="round" stroke-linejoin="round" stroke-width="1"/>
        <line id="Línea_324" data-name="Línea 324" x2="25.18" y2="5.51" transform="translate(19.32 282.22)" fill="none" stroke="#263238" stroke-linecap="round" stroke-linejoin="round" stroke-width="1"/>
        <line id="Línea_325" data-name="Línea 325" x2="28.72" y2="6.29" transform="translate(15.25 283.86)" fill="none" stroke="#263238" stroke-linecap="round" stroke-linejoin="round" stroke-width="1"/>
        <line id="Línea_326" data-name="Línea 326" x2="28.72" y2="6.28" transform="translate(14.72 286.28)" fill="none" stroke="#263238" stroke-linecap="round" stroke-linejoin="round" stroke-width="1"/>
        <line id="Línea_327" data-name="Línea 327" x2="28.72" y2="6.28" transform="translate(14.19 288.7)" fill="none" stroke="#263238" stroke-linecap="round" stroke-linejoin="round" stroke-width="1"/>
        <line id="Línea_328" data-name="Línea 328" x2="28.72" y2="6.28" transform="translate(13.66 291.11)" fill="none" stroke="#263238" stroke-linecap="round" stroke-linejoin="round" stroke-width="1"/>
        <line id="Línea_329" data-name="Línea 329" x2="28.72" y2="6.28" transform="translate(13.14 293.53)" fill="none" stroke="#263238" stroke-linecap="round" stroke-linejoin="round" stroke-width="1"/>
        <line id="Línea_330" data-name="Línea 330" x2="28.72" y2="6.28" transform="translate(12.61 295.94)" fill="none" stroke="#263238" stroke-linecap="round" stroke-linejoin="round" stroke-width="1"/>
        <line id="Línea_331" data-name="Línea 331" x2="25.18" y2="5.51" transform="translate(12.08 298.36)" fill="none" stroke="#263238" stroke-linecap="round" stroke-linejoin="round" stroke-width="1"/>
      </g>
      <g id="freepik--Drawer--inject-2" transform="translate(110.184 67.93)">
        <path id="Trazado_182439" data-name="Trazado 182439" d="M330.58,167.97H169.42L149.31,67.93H350.69Z" transform="translate(-120.07 -67.93)" fill="#263238"/>
        <path id="Trazado_182440" data-name="Trazado 182440" d="M164.43,71.18,134.75,273.01h230.5L335.57,71.18" transform="translate(-120.07 -67.93)" fill="#90b0bf"/>
        <g id="Grupo_129508" data-name="Grupo 129508" transform="translate(14.68 3.25)" clip-path="url(#clip-path)">
          <path id="Trazado_182441" data-name="Trazado 182441" d="M365.25,273.01H134.75l12.41-84.4H352.84Z" transform="translate(-134.75 -71.18)" fill="rgba(0,0,0,0.7)" opacity="0.3"/>
        </g>
        <path id="Trazado_182443" data-name="Trazado 182443" d="M164.43,71.18,134.75,273.01h230.5L335.57,71.18" transform="translate(-120.07 -67.93)" fill="none" stroke="#263238" stroke-linecap="round" stroke-linejoin="round" stroke-width="1"/>
        <path id="Trazado_182444" data-name="Trazado 182444" d="M329.3,71.18H170.7L143.2,273.01H356.8Z" transform="translate(-120.07 -67.93)" fill="#263238"/>
        <path id="Trazado_182445" data-name="Trazado 182445" d="M313.63,86.56H227.54l-1-2.2a3.39,3.39,0,0,0-3.1-2H203.92a2,2,0,0,0-2,2V86.6H186.37a1.9,1.9,0,0,0-1.86,2.27l12.72,63.25H302.77l12.72-63.25a1.9,1.9,0,0,0-1.86-2.31Z" transform="translate(-120.07 -67.93)" fill="#ff9b6a" stroke="#263238" stroke-linecap="round" stroke-linejoin="round" stroke-width="1"/>
        <path id="Trazado_182446" data-name="Trazado 182446" d="M316.88,91.41l-1.1,5.46-11.3,56.19a3.7,3.7,0,0,1-3.63,3H199.15a3.7,3.7,0,0,1-3.63-3L184,95.54l-.83-4.13A1.9,1.9,0,0,1,185,89.14H315a1.9,1.9,0,0,1,1.88,2.27Z" transform="translate(-120.07 -67.93)" fill="#fff"/>
        <g id="Grupo_129509" data-name="Grupo 129509" transform="translate(63.064 21.21)" clip-path="url(#clip-path-2)">
          <path id="Trazado_182447" data-name="Trazado 182447" d="M315.78,96.87l-11.3,56.19a3.7,3.7,0,0,1-3.63,3H199.15a3.7,3.7,0,0,1-3.63-3L184,95.54Z" transform="translate(-183.134 -89.14)" fill="#ff9b6a" opacity="0.4"/>
        </g>
        <path id="Trazado_182449" data-name="Trazado 182449" d="M316.88,91.41l-1.1,5.46-11.3,56.19a3.7,3.7,0,0,1-3.63,3H199.15a3.7,3.7,0,0,1-3.63-3L184,95.54l-.83-4.13A1.9,1.9,0,0,1,185,89.14H315a1.9,1.9,0,0,1,1.88,2.27Z" transform="translate(-120.07 -67.93)" fill="none" stroke="#263238" stroke-linecap="round" stroke-linejoin="round" stroke-width="1"/>
        <path id="Trazado_182450" data-name="Trazado 182450" d="M315.16,101.13H227l-1-2.19a3.48,3.48,0,0,0-3.17-2h-20a2,2,0,0,0-2,2v2.24h-16a1.91,1.91,0,0,0-1.9,2.27l13,63.06H304l13-63.06a1.91,1.91,0,0,0-1.84-2.32Z" transform="translate(-120.07 -67.93)" fill="#ff9b6a" stroke="#263238" stroke-linecap="round" stroke-linejoin="round" stroke-width="1"/>
        <path id="Trazado_182451" data-name="Trazado 182451" d="M318.48,106.15l-1.1,5.34-11.59,56.13a3.77,3.77,0,0,1-3.72,3H197.93a3.77,3.77,0,0,1-3.72-3L182.58,111.3l-1.06-5.15a1.91,1.91,0,0,1,1.9-2.27H316.58a1.91,1.91,0,0,1,1.9,2.27Z" transform="translate(-120.07 -67.93)" fill="#fff"/>
        <g id="Grupo_129510" data-name="Grupo 129510" transform="translate(61.416 35.95)" clip-path="url(#clip-path-3)">
          <path id="Trazado_182452" data-name="Trazado 182452" d="M317.38,111.49l-11.59,56.13a3.77,3.77,0,0,1-3.72,3H197.93a3.77,3.77,0,0,1-3.72-3L182.58,111.3Z" transform="translate(-181.486 -103.88)" fill="#ff9b6a" opacity="0.4"/>
        </g>
        <path id="Trazado_182454" data-name="Trazado 182454" d="M318.48,106.15l-1.1,5.34-11.59,56.13a3.77,3.77,0,0,1-3.72,3H197.93a3.77,3.77,0,0,1-3.72-3L182.58,111.3l-1.06-5.15a1.91,1.91,0,0,1,1.9-2.27H316.58a1.91,1.91,0,0,1,1.9,2.27Z" transform="translate(-120.07 -67.93)" fill="none" stroke="#263238" stroke-linecap="round" stroke-linejoin="round" stroke-width="1"/>
        <path id="Trazado_182455" data-name="Trazado 182455" d="M316.68,115.7H226.47l-1-2.19a3.55,3.55,0,0,0-3.24-2H201.71a2,2,0,0,0-2.06,2v2.23H183.32a1.92,1.92,0,0,0-1.95,2.26l13.33,62.87H305.3L318.63,118a1.92,1.92,0,0,0-1.95-2.3Z" transform="translate(-120.07 -67.93)" fill="#ff9b6a" stroke="#263238" stroke-linecap="round" stroke-linejoin="round" stroke-width="1"/>
        <path id="Trazado_182456" data-name="Trazado 182456" d="M318.14,118.63H181.86a1.91,1.91,0,0,0-1.94,2.25l13,61.29a3.83,3.83,0,0,0,3.8,3H303.29a3.83,3.83,0,0,0,3.8-3l13-61.29a1.91,1.91,0,0,0-1.95-2.25Z" transform="translate(-120.07 -67.93)" fill="#fff" stroke="#263238" stroke-linecap="round" stroke-linejoin="round" stroke-width="1"/>
        <path id="Trazado_182457" data-name="Trazado 182457" d="M318.21,127.27H225.93l-1.05-2.18a3.65,3.65,0,0,0-3.31-2h-21a2,2,0,0,0-2.11,2v2.23H181.79a1.93,1.93,0,0,0-2,2.25l13.63,62.69H306.57l13.63-62.69a1.93,1.93,0,0,0-1.99-2.3Z" transform="translate(-120.07 -67.93)" fill="#ff9b6a" stroke="#263238" stroke-linecap="round" stroke-linejoin="round" stroke-width="1"/>
        <path id="Trazado_182458" data-name="Trazado 182458" d="M319.7,130.37H180.3a1.93,1.93,0,0,0-2,2.25l13.29,61.11a3.9,3.9,0,0,0,3.89,2.94h109a3.9,3.9,0,0,0,3.89-2.94l13.29-61.11a1.93,1.93,0,0,0-1.96-2.25Z" transform="translate(-120.07 -67.93)" fill="#fff" stroke="#263238" stroke-linecap="round" stroke-linejoin="round" stroke-width="1"/>
        <path id="Trazado_182459" data-name="Trazado 182459" d="M319.73,138.84H225.39l-1.07-2.18a3.75,3.75,0,0,0-3.39-2H199.5a2.05,2.05,0,0,0-2.15,1.94v2.22H180.27a2,2,0,0,0-2,2.24l13.94,62.5H307.83l13.94-62.5a2,2,0,0,0-2.04-2.22Z" transform="translate(-120.07 -67.93)" fill="#ff9b6a" stroke="#263238" stroke-linecap="round" stroke-linejoin="round" stroke-width="1"/>
        <path id="Trazado_182460" data-name="Trazado 182460" d="M321.25,142.12H178.75a1.94,1.94,0,0,0-2,2.24l3.34,15,10.24,45.93a4,4,0,0,0,4,2.94h111.4a4,4,0,0,0,4-2.94l5-22.53,8.56-38.39a1.94,1.94,0,0,0-2.04-2.25Z" transform="translate(-120.07 -67.93)" fill="#fff"/>
        <g id="Grupo_129511" data-name="Grupo 129511" transform="translate(56.656 74.186)" clip-path="url(#clip-path-4)">
          <path id="Trazado_182461" data-name="Trazado 182461" d="M180.05,159.35l10.24,45.93a4,4,0,0,0,4,2.94H305.73a4,4,0,0,0,4-2.94l5-22.53Z" transform="translate(-176.726 -142.116)" fill="#ff9b6a" opacity="0.4"/>
        </g>
        <path id="Trazado_182463" data-name="Trazado 182463" d="M321.25,142.12H178.75a1.94,1.94,0,0,0-2,2.24l3.34,15,10.24,45.93a4,4,0,0,0,4,2.94h111.4a4,4,0,0,0,4-2.94l5-22.53,8.56-38.39a1.94,1.94,0,0,0-2.04-2.25Z" transform="translate(-120.07 -67.93)" fill="none" stroke="#263238" stroke-linecap="round" stroke-linejoin="round" stroke-width="1"/>
        <path id="Trazado_182464" data-name="Trazado 182464" d="M221.77,210.39l-1.26-2.1a4.15,4.15,0,0,0-3.77-1.8l-23.28,1.07a2.17,2.17,0,0,0-2.25,2l.1,2.2-18.56.85c-1.42.06-2.44,1.18-2.1,2.31l18,61,125.64-5.78,12.31-62.37c.22-1.16-.89-2.18-2.32-2.11Z" transform="translate(-120.07 -67.93)" fill="#ff9b6a" stroke="#263238" stroke-linecap="round" stroke-linejoin="round" stroke-width="1"/>
        <path id="Trazado_182465" data-name="Trazado 182465" d="M328.4,211.67l-1.4,7.18-10.57,53.63a4.29,4.29,0,0,1-4.19,3.1l-121.07,5.56a4.29,4.29,0,0,1-4.46-2.7L170,221.74l-.81-2.75c-.33-1.13.69-2.25,2.11-2.31l154.81-7.12C327.52,209.5,328.63,210.52,328.4,211.67Z" transform="translate(-120.07 -67.93)" fill="#fff"/>
        <g id="Grupo_129512" data-name="Grupo 129512" transform="translate(49.058 141.628)" clip-path="url(#clip-path-5)">
          <path id="Trazado_182466" data-name="Trazado 182466" d="M327,218.85l-10.57,53.63a4.29,4.29,0,0,1-4.19,3.1l-121.07,5.56a4.29,4.29,0,0,1-4.46-2.7L170,221.74Z" transform="translate(-169.128 -209.557)" fill="#ff9b6a" opacity="0.4"/>
        </g>
        <path id="Trazado_182468" data-name="Trazado 182468" d="M328.4,211.67l-1.4,7.18-10.57,53.63a4.29,4.29,0,0,1-4.19,3.1l-121.07,5.56a4.29,4.29,0,0,1-4.46-2.7L170,221.74l-.81-2.75c-.33-1.13.69-2.25,2.11-2.31l154.81-7.12C327.52,209.5,328.63,210.52,328.4,211.67Z" transform="translate(-120.07 -67.93)" fill="none" stroke="#263238" stroke-linecap="round" stroke-linejoin="round" stroke-width="1"/>
        <path id="Trazado_182469" data-name="Trazado 182469" d="M224.44,224.31l-1.07-2.2a4.27,4.27,0,0,0-3.66-2.16L196,218.71a2.2,2.2,0,0,0-2.5,1.79l-.11,2.19-18.92-1c-1.45-.08-2.59.93-2.37,2.08l12.23,62.29,128.13,6.7,18.65-60.67c.34-1.13-.69-2.25-2.14-2.32Z" transform="translate(-120.07 -67.93)" fill="#ff9b6a" stroke="#263238" stroke-linecap="round" stroke-linejoin="round" stroke-width="1"/>
        <path id="Trazado_182470" data-name="Trazado 182470" d="M332.56,236.32l-3,9.88-15.14,49.26a4.36,4.36,0,0,1-4.56,2.66l-123.47-6.45a4.38,4.38,0,0,1-4.26-3.12l-10.45-53.27-1.46-7.45c-.23-1.15.92-2.16,2.37-2.08L330.42,234C331.87,234.08,332.91,235.2,332.56,236.32Z" transform="translate(-120.07 -67.93)" fill="#fff"/>
        <g id="Grupo_129513" data-name="Grupo 129513" transform="translate(50.121 157.816)" clip-path="url(#clip-path-6)">
          <path id="Trazado_182471" data-name="Trazado 182471" d="M329.52,246.2l-15.14,49.26a4.36,4.36,0,0,1-4.56,2.66l-123.47-6.45a4.38,4.38,0,0,1-4.26-3.12l-10.45-53.27Z" transform="translate(-170.191 -225.746)" fill="#ff9b6a" opacity="0.4"/>
        </g>
        <path id="Trazado_182473" data-name="Trazado 182473" d="M332.56,236.32l-3,9.88-15.14,49.26a4.36,4.36,0,0,1-4.56,2.66l-123.47-6.45a4.38,4.38,0,0,1-4.26-3.12l-10.45-53.27-1.46-7.45c-.23-1.15.92-2.16,2.37-2.08L330.42,234C331.87,234.08,332.91,235.2,332.56,236.32Z" transform="translate(-120.07 -67.93)" fill="none" stroke="#263238" stroke-linecap="round" stroke-linejoin="round" stroke-width="1"/>
        <path id="Trazado_182474" data-name="Trazado 182474" d="M222.16,240.26,221,238.12a4.37,4.37,0,0,0-3.83-2H192.88a2.22,2.22,0,0,0-2.44,1.91v2.18H171.12c-1.48,0-2.59,1.06-2.3,2.2l15.76,61.37H315.42l15.76-61.37c.29-1.14-.82-2.2-2.3-2.2Z" transform="translate(-120.07 -67.93)" fill="#ff9b6a" stroke="#263238" stroke-linecap="round" stroke-linejoin="round" stroke-width="1"/>
        <path id="Trazado_182475" data-name="Trazado 182475" d="M313,309.49H187c-2.18,0-4.07-1.21-4.5-2.88l-15.4-59.83c-.3-1.14.81-2.2,2.3-2.2H330.6c1.49,0,2.6,1.06,2.3,2.2l-15.36,59.83C317.11,308.28,315.22,309.49,313,309.49Z" transform="translate(-120.07 -67.93)" fill="#fff" stroke="#263238" stroke-linecap="round" stroke-linejoin="round" stroke-width="1"/>
        <path id="Trazado_182476" data-name="Trazado 182476" d="M221.62,254.83l-1.23-2.13a4.49,4.49,0,0,0-3.91-1.95h-24.7a2.25,2.25,0,0,0-2.49,1.91v2.17H169.6c-1.52,0-2.65,1.06-2.35,2.2l16.07,61.18H316.68L332.75,257c.3-1.14-.83-2.2-2.35-2.2Z" transform="translate(-120.07 -67.93)" fill="#ff9b6a" stroke="#263238" stroke-linecap="round" stroke-linejoin="round" stroke-width="1"/>
        <path id="Trazado_182477" data-name="Trazado 182477" d="M314.26,324H185.74c-2.22,0-4.14-1.21-4.58-2.88l-15.67-59.64c-.29-1.14.84-2.2,2.35-2.2H332.16c1.51,0,2.64,1.06,2.35,2.2l-15.67,59.64C318.4,322.83,316.48,324,314.26,324Z" transform="translate(-120.07 -67.93)" fill="#fff" stroke="#263238" stroke-linecap="round" stroke-linejoin="round" stroke-width="1"/>
        <path id="Trazado_182478" data-name="Trazado 182478" d="M340.37,392.97H159.63L120.07,280.78H379.93Z" transform="translate(-120.07 -67.93)" fill="#90b0bf"/>
        <g id="Grupo_129514" data-name="Grupo 129514" transform="translate(0 212.85)" clip-path="url(#clip-path-7)">
          <path id="Trazado_182479" data-name="Trazado 182479" d="M340.37,392.97H159.63L120.07,280.78H379.93Z" transform="translate(-120.07 -280.78)" fill="rgba(0,0,0,0.7)" opacity="0.3"/>
        </g>
        <path id="Trazado_182481" data-name="Trazado 182481" d="M340.37,392.97H159.63L120.07,280.78H379.93Z" transform="translate(-120.07 -67.93)" fill="none" stroke="#263238" stroke-linecap="round" stroke-linejoin="round" stroke-width="1"/>
        <path id="Trazado_182482" data-name="Trazado 182482" d="M376.49,266.01H123.51l-3.44,14.77H379.93Z" transform="translate(-120.07 -67.93)" fill="#90b0bf" stroke="#263238" stroke-linecap="round" stroke-linejoin="round" stroke-width="1"/>
        <path id="Trazado_182483" data-name="Trazado 182483" d="M187.27,332.18l-2.53,23.95H315.26l-2.53-23.95h-5.76l1.64,17.09H191.39l1.64-17.09Z" transform="translate(-120.07 -67.93)" fill="#bfbfbf" stroke="#263238" stroke-linecap="round" stroke-linejoin="round" stroke-width="1"/>
        <path id="Trazado_182484" data-name="Trazado 182484" d="M314.28,361.63H185.72l-.98-5.5H315.26Z" transform="translate(-120.07 -67.93)" fill="#757575" stroke="#263238" stroke-linecap="round" stroke-linejoin="round" stroke-width="1"/>
        <path id="Trazado_182485" data-name="Trazado 182485" d="M306.97,332.18l-.8,6.35.8,10.74h1.64Z" transform="translate(-120.07 -67.93)" fill="#757575" stroke="#263238" stroke-linecap="round" stroke-linejoin="round" stroke-width="1"/>
        <path id="Trazado_182486" data-name="Trazado 182486" d="M193.03,332.18l.81,6.35-.81,10.74h-1.64Z" transform="translate(-120.07 -67.93)" fill="#757575" stroke="#263238" stroke-linecap="round" stroke-linejoin="round" stroke-width="1"/>
        <path id="Trazado_182487" data-name="Trazado 182487" d="M292.06,320.16H207.94l-4.01-20.32h92.14Z" transform="translate(-120.07 -67.93)" fill="#fff" stroke="#263238" stroke-linecap="round" stroke-linejoin="round" stroke-width="1"/>
        <path id="Trazado_182488" data-name="Trazado 182488" d="M232.42,312.94h0l.56-8.61h2.56l.75,11.95h-1.65l-.59-8.44h0l-.57,8.44h-1.66l-2-8.32h0l.75,8.32H229l-1.16-11.95h2.56Z" transform="translate(-120.07 -67.93)" fill="#263238"/>
        <path id="Trazado_182489" data-name="Trazado 182489" d="M239,312.46l-2.73-8.13h1.93l1.64,5.6h0l1.13-5.6h1.76l-2,8.13.16,3.82h-1.75Z" transform="translate(-120.07 -67.93)" fill="#263238"/>
        <path id="Trazado_182490" data-name="Trazado 182490" d="M248,309.8h2.33v1.7h-2.3v4.78h-1.75l-.2-11.95H251v1.79h-3Z" transform="translate(-120.07 -67.93)" fill="#263238"/>
        <path id="Trazado_182491" data-name="Trazado 182491" d="M251.92,304.33h1.84l-.19,11.95h-1.75Z" transform="translate(-120.07 -67.93)" fill="#263238"/>
        <path id="Trazado_182492" data-name="Trazado 182492" d="M255.11,304.33H257l-.31,10.32h2.89l-.07,1.63h-4.62Z" transform="translate(-120.07 -67.93)" fill="#263238"/>
        <path id="Trazado_182493" data-name="Trazado 182493" d="M262.35,309.52h2.47l-.11,1.71h-2.46l-.19,3.42h3l-.11,1.63h-4.76l.56-11.95h5l-.13,1.79h-3.16Z" transform="translate(-120.07 -67.93)" fill="#263238"/>
        <path id="Trazado_182494" data-name="Trazado 182494" d="M269.45,304.19c1.8,0,2.61,1.14,2.42,3.13v.38h-1.72l.05-.51c.08-.88-.23-1.22-.81-1.22s-.94.34-1,1.22.23,1.55,1.32,2.64c1.37,1.38,1.75,2.36,1.62,3.69-.18,1.85-1.17,2.89-2.88,2.89s-2.53-1-2.4-2.89l.06-.71h1.68l-.07.83c-.07.83.26,1.12.82,1.12s.94-.29,1-1.12-.22-1.48-1.3-2.55c-1.39-1.38-1.8-2.38-1.69-3.77C266.65,305.33,267.66,304.19,269.45,304.19Z" transform="translate(-120.07 -67.93)" fill="#263238"/>
      </g>
      <g id="freepik--right-hand--inject-2" transform="translate(182.105 107.982)">
        <path id="Trazado_182495" data-name="Trazado 182495" d="M255.63,123.53l-.82-2.35a3.93,3.93,0,0,0-3.26-2.46l-22.24-2.87a2.13,2.13,0,0,0-2.49,1.68l-.29,2.25-17.72-2.28a2,2,0,0,0-2.41,2l6.31,65.14,120,15.47,22.62-61.41a2,2,0,0,0-1.82-2.54Z" transform="translate(-204.37 -107.982)" fill="#fff"/>
        <g id="Grupo_129515" data-name="Grupo 129515" transform="translate(2.03 7.83)" clip-path="url(#clip-path-8)">
          <path id="Trazado_182496" data-name="Trazado 182496" d="M255.63,123.53l-.82-2.35a3.93,3.93,0,0,0-3.26-2.46l-22.24-2.87a2.13,2.13,0,0,0-2.49,1.68l-.29,2.25-17.72-2.28a2,2,0,0,0-2.41,2l6.31,65.14,120,15.47,22.62-61.41a2,2,0,0,0-1.82-2.54Z" transform="translate(-206.4 -115.812)" fill="#ff9b6a" opacity="0.4"/>
        </g>
        <path id="Trazado_182498" data-name="Trazado 182498" d="M255.63,123.53l-.82-2.35a3.93,3.93,0,0,0-3.26-2.46l-22.24-2.87a2.13,2.13,0,0,0-2.49,1.68l-.29,2.25-17.72-2.28a2,2,0,0,0-2.41,2l6.31,65.14,120,15.47,22.62-61.41a2,2,0,0,0-1.82-2.54Z" transform="translate(-204.37 -107.982)" fill="none" stroke="#263238" stroke-linecap="round" stroke-linejoin="round" stroke-width="1"/>
        <path id="Trazado_182499" data-name="Trazado 182499" d="M356.48,142.39,336,198l-1.58,4.28a4.15,4.15,0,0,1-4.51,2.44L214.26,189.8a4.15,4.15,0,0,1-3.74-3.51l-6.15-63.5a2,2,0,0,1,2.41-2l98.42,12.69,49.46,6.37a2,2,0,0,1,1.82,2.54Z" transform="translate(-204.37 -107.982)" fill="#fff"/>
        <g id="Grupo_129516" data-name="Grupo 129516" transform="translate(0 12.766)" clip-path="url(#clip-path-9)">
          <path id="Trazado_182500" data-name="Trazado 182500" d="M356.48,142.39,336,198c-14.51-3.43-15.06-12.47-17.49-17.15-2.68-5.16-19.67-7.9-24.42-8.73s-7.64-5.64-7.64-5.64c-4.28-12,18.06-22.5,18.06-22.5-.44-1.65.21-7.06.68-10.48l49.46,6.37a2,2,0,0,1,1.83,2.52Z" transform="translate(-204.37 -120.747)" fill="rgba(0,0,0,0.7)" opacity="0.3"/>
        </g>
        <path id="Trazado_182502" data-name="Trazado 182502" d="M356.48,142.39,336,198l-1.58,4.28a4.15,4.15,0,0,1-4.51,2.44L214.26,189.8a4.15,4.15,0,0,1-3.74-3.51l-6.15-63.5a2,2,0,0,1,2.41-2l98.42,12.69,49.46,6.37a2,2,0,0,1,1.82,2.54Z" transform="translate(-204.37 -107.982)" fill="none" stroke="#263238" stroke-linecap="round" stroke-linejoin="round" stroke-width="1"/>
        <path id="Trazado_182503" data-name="Trazado 182503" d="M226.12,139.9l1.58,39.3,14.24,1.84,1.68-39.16Z" transform="translate(-204.37 -107.982)" fill="#ff9b6a" stroke="#263238" stroke-linecap="round" stroke-linejoin="round" stroke-width="1"/>
        <path id="Trazado_182504" data-name="Trazado 182504" d="M234.81,176.31a5.1,5.1,0,0,0-.69-4.11,15.249,15.249,0,0,0-2.89-3.17,14.2,14.2,0,0,0,5.37,1.78c0-2.05-2-3.47-3.71-4.55a2.82,2.82,0,0,1,2.42.18,2,2,0,0,0-.71-1.69c.22.19.56-.11.55-.39a1.79,1.79,0,0,0-.35-.77,3.83,3.83,0,0,1-.31-1.93c0-2.35.07-4.71.1-7.06a1.12,1.12,0,0,0,.82.91c0-.93-.11-1.86-.2-2.79-.22-2.35-.44-4.71-.67-7.06" transform="translate(-204.37 -107.982)" fill="none" stroke="#263238" stroke-linecap="round" stroke-linejoin="round" stroke-width="1"/>
        <path id="Trazado_182505" data-name="Trazado 182505" d="M461,267.68s-80.7-72.2-85.84-76.75-8.9-4.35-11.67-7.12-4.16-4.74-15.43-4.55-26.31-5.93-29.67-8.11-8.11-.59-11.28-1.82-11.27-.15-16.22,0-5.34-4.9-3.36-10.64,17-9.29,19-8.11,9.89-2.17,9.89-2.17c-1.19-4.16-.79-14.25-.79-14.25s-8.31-3.56-11.47-4.74a20.2,20.2,0,0,0-7.52-.79s1-4.54,2.57-6.23,9.1-3.27,16.42-8.41,11.87-6.33,13-5.94,9.3,2.77,11.48,2.77,5.34-2,8.5-1.38,8.9,5.54,11.47,6.13,3.36,1.13,6.73,1.13c1.48,0,7.52,4.41,7.52,4.41a31,31,0,0,1,7.32,2.37c3.75,1.78,7.71,10.29,9.49,13.06s2,9.49,2,9.49,4.75,2.57,6.53,6.13S467,190.93,467,190.93,477.33,231.42,461,267.68Z" transform="translate(-204.37 -107.982)" fill="#fff"/>
        <path id="Trazado_182506" data-name="Trazado 182506" d="M403.54,216.25c-14.46-12.94-26.46-23.66-28.34-25.32-5.15-4.55-8.9-4.35-11.67-7.12s-4.16-4.74-15.43-4.55-26.31-5.93-29.67-8.11-8.11-.59-11.28-1.82-11.27-.15-16.22,0-5.34-4.9-3.36-10.64,17-9.29,19-8.11,9.89-2.17,9.89-2.17c-1.19-4.16-.79-14.25-.79-14.25s-8.31-3.56-11.47-4.74a20.2,20.2,0,0,0-7.52-.79s1-4.54,2.57-6.23,9.1-3.27,16.42-8.41,11.87-6.33,13-5.94,9.3,2.77,11.48,2.77c1.65,0,3.88-1.14,6.25-1.43-1.92,1.07-3.25,3.11-2.89,4.2.57,1.72,2.18,6.1,2.27,6.38-.43-.42-10.8-10.66-17.5-10.13-5.79.45-11.67,10.2-10.68,17.36s-1.41,7.16-.11,12.5,2.48,12.86.5,15.83-5.93-2.31-5.93-2.31a9.64,9.64,0,0,0-5,8.24c0,5.74,6,6.13,9.54,6.73s16.6,7.75,25.52,8.13l8.92.37s-5.15-7-3-7.36,8.7.28,13,7,7.6,8.21,15.57,11.51C381.32,189.73,393.74,203.14,403.54,216.25Z" transform="translate(-204.37 -107.982)" fill="#90b0bf" opacity="0.4"/>
        <path id="Trazado_182507" data-name="Trazado 182507" d="M443.06,177.9c-1.21-.57-40-18.85-41.95-21.58s-4.35-3.4-6.53-6.15-9.49-4.53-10.48-8.29-2.18-15.17-4-16.58a33.13,33.13,0,0,0-4.74-2.9l2.94,7.33s-6.7-9.49-8.29-9.75,1.72,6.9,1.43,6.68-7.55-7-13.63-12.14a9.4,9.4,0,0,0,2.31,1c2.58.59,3.36,1.13,6.73,1.13,1.48,0,7.52,4.41,7.52,4.41a31,31,0,0,1,7.32,2.37c3.75,1.78,7.71,10.29,9.49,13.06s2,9.49,2,9.49,4.75,2.57,6.53,6.13C400.78,154.27,424.17,167.48,443.06,177.9Z" transform="translate(-204.37 -107.982)" fill="#90b0bf" opacity="0.4"/>
        <path id="Trazado_182508" data-name="Trazado 182508" d="M443.09,177.91Z" transform="translate(-204.37 -107.982)" fill="#90b0bf" opacity="0.4"/>
        <path id="Trazado_182509" data-name="Trazado 182509" d="M461,267.68s-80.7-72.2-85.84-76.75-8.9-4.35-11.67-7.12-4.16-4.74-15.43-4.55-26.31-5.93-29.67-8.11-8.11-.59-11.28-1.82-11.27-.15-16.22,0-5.34-4.9-3.36-10.64,17-9.29,19-8.11,9.89-2.17,9.89-2.17c-1.19-4.16-.79-14.25-.79-14.25s-8.31-3.56-11.47-4.74a20.2,20.2,0,0,0-7.52-.79s1-4.54,2.57-6.23,9.1-3.27,16.42-8.41,11.87-6.33,13-5.94,9.3,2.77,11.48,2.77,5.34-2,8.5-1.38,8.9,5.54,11.47,6.13,3.36,1.13,6.73,1.13c1.48,0,7.52,4.41,7.52,4.41a31,31,0,0,1,7.32,2.37c3.75,1.78,7.71,10.29,9.49,13.06s2,9.49,2,9.49,4.75,2.57,6.53,6.13S467,190.93,467,190.93" transform="translate(-204.37 -107.982)" fill="none" stroke="#263238" stroke-linecap="round" stroke-linejoin="round" stroke-width="1"/>
        <path id="Trazado_182510" data-name="Trazado 182510" d="M315.66,134.16s.92-7.78,0-8.86" transform="translate(-204.37 -107.982)" fill="none" stroke="#263238" stroke-linecap="round" stroke-linejoin="round" stroke-width="1"/>
        <path id="Trazado_182511" data-name="Trazado 182511" d="M340.05,115.11s13.46,11.39,14.51,12.09" transform="translate(-204.37 -107.982)" fill="none" stroke="#263238" stroke-linecap="round" stroke-linejoin="round" stroke-width="1"/>
        <path id="Trazado_182512" data-name="Trazado 182512" d="M352.69,111.28c1.85,1.15,16.77,14.38,21.65,17.41" transform="translate(-204.37 -107.982)" fill="none" stroke="#263238" stroke-linecap="round" stroke-linejoin="round" stroke-width="1"/>
        <path id="Trazado_182513" data-name="Trazado 182513" d="M393.2,146c-1.45-.85-5.28-2.7-5.67-4.15" transform="translate(-204.37 -107.982)" fill="none" stroke="#263238" stroke-linecap="round" stroke-linejoin="round" stroke-width="1"/>
        <path id="Trazado_182514" data-name="Trazado 182514" d="M316.45,148.41s.79,3.23,0,4.81" transform="translate(-204.37 -107.982)" fill="none" stroke="#263238" stroke-linecap="round" stroke-linejoin="round" stroke-width="1"/>
        <path id="Trazado_182515" data-name="Trazado 182515" d="M304.58,158.63s-1.84,5.14,2.51,8.57" transform="translate(-204.37 -107.982)" fill="none" stroke="#263238" stroke-linecap="round" stroke-linejoin="round" stroke-width="1"/>
        <path id="Trazado_182516" data-name="Trazado 182516" d="M322.52,109.84a10.05,10.05,0,0,0-2.64,5.27" transform="translate(-204.37 -107.982)" fill="none" stroke="#263238" stroke-linecap="round" stroke-linejoin="round" stroke-width="1"/>
        <path id="Trazado_182517" data-name="Trazado 182517" d="M302,125.3a9,9,0,0,0,5.14,5.27" transform="translate(-204.37 -107.982)" fill="none" stroke="#263238" stroke-linecap="round" stroke-linejoin="round" stroke-width="1"/>
        <path id="Trazado_182518" data-name="Trazado 182518" d="M361.15,181.61A97.809,97.809,0,0,0,352.69,171" transform="translate(-204.37 -107.982)" fill="none" stroke="#263238" stroke-linecap="round" stroke-linejoin="round" stroke-width="1"/>
      </g>
      <g id="freepik--left-hand--inject-2" transform="translate(84.49 331.676)">
        <path id="Trazado_182519" data-name="Trazado 182519" d="M84.49,445.31s64.6-42.46,68.55-47.94a42.62,42.62,0,0,1,7.12-8s1.85-15.83,6.6-24,6.59-14.25,8.7-18.47,12.13-7.38,15-9,7.92-4.75,10.82-4.75a16.22,16.22,0,0,1,6.33,1.85s9.76-5,14.24-1.85c0,0,11.08.53,13.71.26s6.6,1.59,6.6,1.59,6.59-4.74,11.07-2.9,6.62,2.63,6.74,5.27-1.11,11.6-1.11,11.6h-2.2s-7.38,9.61-8.17,11.53-5,12.47-5,12.47,5.53-4.22,9-7.38,9.5-9.23,15.83-10.81,10.81,1.95,10.81,5.72c0,0-7.38,5.88-9,7.73s-4.44,6.59-7.62,10S252,396,245.62,402.85s-34,21.62-40.36,23.73c0,0-38.5,26.9-55.38,49.58C149.88,476.16,104,476.43,84.49,445.31Z" transform="translate(-84.49 -331.676)" fill="#fff"/>
        <path id="Trazado_182520" data-name="Trazado 182520" d="M209.75,420.78c.55.56,2.8.9,6,1a96.836,96.836,0,0,1-10.46,4.84s-25.18,17.59-43.74,36.32c6.39-10.17,18.66-22.86,23.22-25.5,6.35-3.7,18.55-15.64,18.55-15.64S207.92,418.93,209.75,420.78Z" transform="translate(-84.49 -331.676)" fill="#90b0bf" opacity="0.4"/>
        <path id="Trazado_182521" data-name="Trazado 182521" d="M252.47,365.66a76.269,76.269,0,0,1,8.66-7.33,44.291,44.291,0,0,0-7.84,12.08c-1.22,6.63-12.66,20.3-12.66,20.3,3.69-11.86.52-14.24,1.56-17.67s1.71-11.84,1.71-11.84,2-3.45,4.11-4.24,7.65-14.77,8.68-16.66-6.83-5-8.94-5.23-2.9,3.42-7.12,5.23-9.52,5.13-11.47,7.07-5.34,10.52-5.56,11.05c.15-.6,2.54-10.23,3.16-12.15.52-1.6,5.59-4.55,7.47-5.6-3.12,1.45-4.87-1.3-7.47-3.8-2.79-2.68-6.95-3.53-11.5-2.14s-7.6,4.82-7.62,4.56-6.8-1.45-9-.8-7.28,2.95-7.28,2.95-4.62-2.66-12.21,4.83c-3.17,3.13-13.72,27-12.14,24.14s8.47-11.4,8.9-11.93C175.45,359.6,161.46,391,158.6,393s-3.69,9.08-14,14.89c-9.78,5.51-47.5,29.22-51.24,31.57C111.25,427.57,150,401.58,153,397.37a42.62,42.62,0,0,1,7.12-8s1.85-15.83,6.6-24,6.59-14.25,8.7-18.47,12.13-7.38,15-9,7.92-4.75,10.82-4.75a16.22,16.22,0,0,1,6.33,1.85s9.76-5,14.24-1.85c0,0,11.08.53,13.71.26s6.6,1.59,6.6,1.59,6.59-4.74,11.07-2.9,6.62,2.63,6.74,5.27-1.11,11.6-1.11,11.6h-2.2s-7.38,9.61-8.17,11.53-5,12.47-5,12.47S249,368.82,252.47,365.66Z" transform="translate(-84.49 -331.676)" fill="#90b0bf" opacity="0.4"/>
        <path id="Trazado_182522" data-name="Trazado 182522" d="M279.11,360.57s-7.38,5.88-9,7.73c-.95,1.11-2.36,3.27-4,5.56a43.883,43.883,0,0,0,1.69-8.2,13.59,13.59,0,0,1,6.33-5,12,12,0,0,1,5-.38A1.51,1.51,0,0,1,279.11,360.57Z" transform="translate(-84.49 -331.676)" fill="#90b0bf" opacity="0.4"/>
        <path id="Trazado_182523" data-name="Trazado 182523" d="M84.49,445.31s64.6-42.46,68.55-47.94a42.62,42.62,0,0,1,7.12-8s1.85-15.83,6.6-24,6.59-14.25,8.7-18.47,12.13-7.38,15-9,7.92-4.75,10.82-4.75a16.22,16.22,0,0,1,6.33,1.85s9.76-5,14.24-1.85c0,0,11.08.53,13.71.26s6.6,1.59,6.6,1.59,6.59-4.74,11.07-2.9,6.62,2.63,6.74,5.27-1.11,11.6-1.11,11.6h-2.2s-7.38,9.61-8.17,11.53-5,12.47-5,12.47,5.53-4.22,9-7.38,9.5-9.23,15.83-10.81,10.81,1.95,10.81,5.72c0,0-7.38,5.88-9,7.73s-4.44,6.59-7.62,10S252,396,245.62,402.85s-34,21.62-40.36,23.73c0,0-38.5,26.9-55.38,49.58" transform="translate(-84.49 -331.676)" fill="none" stroke="#263238" stroke-linecap="round" stroke-linejoin="round" stroke-width="1"/>
        <path id="Trazado_182524" data-name="Trazado 182524" d="M243.51,373s1.58,7.92-1.59,15" transform="translate(-84.49 -331.676)" fill="none" stroke="#263238" stroke-linecap="round" stroke-linejoin="round" stroke-width="1"/>
        <path id="Trazado_182525" data-name="Trazado 182525" d="M233.22,341.13a32.932,32.932,0,0,0,9-6.06" transform="translate(-84.49 -331.676)" fill="none" stroke="#263238" stroke-linecap="round" stroke-linejoin="round" stroke-width="1"/>
        <path id="Trazado_182526" data-name="Trazado 182526" d="M256.69,349a19.08,19.08,0,0,0,1.72-5.53" transform="translate(-84.49 -331.676)" fill="none" stroke="#263238" stroke-linecap="round" stroke-linejoin="round" stroke-width="1"/>
        <path id="Trazado_182527" data-name="Trazado 182527" d="M221.88,333.22a13.64,13.64,0,0,0-8.84,3" transform="translate(-84.49 -331.676)" fill="none" stroke="#263238" stroke-linecap="round" stroke-linejoin="round" stroke-width="1"/>
        <path id="Trazado_182528" data-name="Trazado 182528" d="M207.64,335.07s-7.91,3.69-10.68,3.69-7.26,3.69-7.26,4.75" transform="translate(-84.49 -331.676)" fill="none" stroke="#263238" stroke-linecap="round" stroke-linejoin="round" stroke-width="1"/>
        <path id="Trazado_182529" data-name="Trazado 182529" d="M160.16,389.4a54.719,54.719,0,0,0,5.68-11.48" transform="translate(-84.49 -331.676)" fill="none" stroke="#263238" stroke-linecap="round" stroke-linejoin="round" stroke-width="1"/>
        <path id="Trazado_182530" data-name="Trazado 182530" d="M234.93,343.51s-5,1.31-6.72,5.53-9.63,18.86-9.63,18.86" transform="translate(-84.49 -331.676)" fill="none" stroke="#263238" stroke-linecap="round" stroke-linejoin="round" stroke-width="1"/>
        <path id="Trazado_182531" data-name="Trazado 182531" d="M209.75,341.13c-1.06,2.51-12.93,24.53-12.93,24.53" transform="translate(-84.49 -331.676)" fill="none" stroke="#263238" stroke-linecap="round" stroke-linejoin="round" stroke-width="1"/>
      </g>
    </g>
  </g>
</svg>
