<svg xmlns="http://www.w3.org/2000/svg" xmlns:xlink="http://www.w3.org/1999/xlink" width="822" height="681" viewBox="0 0 822 681">
  <defs>
    <linearGradient id="linear-gradient" y1="0.5" x2="1" y2="0.5" gradientUnits="objectBoundingBox">
      <stop offset="0.07" stop-color="#9d349b"/>
      <stop offset="0.85" stop-color="#642862"/>
    </linearGradient>
    <linearGradient id="linear-gradient-2" x1="0.5" y1="0.104" x2="0.5" y2="0.879" gradientUnits="objectBoundingBox">
      <stop offset="0.07" stop-color="#006b9d"/>
      <stop offset="0.85" stop-color="#004464"/>
    </linearGradient>
    <linearGradient id="linear-gradient-3" x1="0.859" y1="0.5" x2="0.132" y2="0.5" gradientUnits="objectBoundingBox">
      <stop offset="0.07" stop-color="#009d92"/>
      <stop offset="0.85" stop-color="#00645d"/>
    </linearGradient>
    <linearGradient id="linear-gradient-4" x1="6.229" y1="-33.906" x2="6.229" y2="-33.468" gradientUnits="objectBoundingBox">
      <stop offset="0.01" stop-opacity="0.302"/>
      <stop offset="1" stop-opacity="0"/>
    </linearGradient>
  </defs>
  <g id="Grupo_129542" data-name="Grupo 129542" transform="translate(-389 -5350)">
    <path id="Trazado_182553" data-name="Trazado 182553" d="M20,0H802a20,20,0,0,1,20,20V661a20,20,0,0,1-20,20H20A20,20,0,0,1,0,661V20A20,20,0,0,1,20,0Z" transform="translate(389 5350)" fill="#88e0ef" opacity="0.1"/>
    <g id="info-01" transform="translate(487.796 5370.31)">
      <g id="objects" transform="translate(6.204 5.69)">
        <path id="Trazado_181602" data-name="Trazado 181602" d="M37.444,443.014a1.723,1.723,0,0,1-.6,0,2.3,2.3,0,0,1-1.495-1.242A305.823,305.823,0,0,1,305.879,5.71h0a2.3,2.3,0,0,1,2.3,2.3V49.146a2.3,2.3,0,0,0,2.3,2.3h1.2a37.412,37.412,0,0,1,0,74.731H310.5a2.3,2.3,0,0,0-2.3,2.3v48.656a2.3,2.3,0,0,1-2.3,2.3A132.171,132.171,0,0,0,183,339.793a2.3,2.3,0,0,1-.92,2.3l-35.963,25.294a2.293,2.293,0,0,1-3.058-.391A42.033,42.033,0,0,0,74.58,414.984,2.3,2.3,0,0,1,73.89,418L38.755,442.6A2.3,2.3,0,0,1,37.444,443.014Z" transform="translate(-6.204 -5.664)" fill="url(#linear-gradient)"/>
        <path id="Trazado_181603" data-name="Trazado 181603" d="M36.117,438.415A303.524,303.524,0,0,1,304.6,5.71V46.847a4.6,4.6,0,0,0,4.6,4.6h1.1a35.112,35.112,0,0,1,0,70.132h-1.1a4.6,4.6,0,0,0-4.6,4.6v48.656A134.424,134.424,0,0,0,179.44,338.091l-35.963,25.133a44.333,44.333,0,0,0-72.248,50.587Z" transform="translate(-4.877 -5.664)" fill="#ff5151"/>
        <path id="Trazado_181604" data-name="Trazado 181604" d="M412.049,444.742a2.438,2.438,0,0,1-1.311-.391l-37.48-25.915a2.3,2.3,0,0,0-1.288-.391,1.5,1.5,0,0,0-.46,0,2.3,2.3,0,0,0-1.495,1.035,37.435,37.435,0,1,1-61.51-42.47,2.3,2.3,0,0,0-.506-3.288l-40.516-27.984a2.3,2.3,0,0,1-.92-2.437,131.852,131.852,0,0,0,3.794-30.237s0-.943,0-1.2A131.6,131.6,0,0,0,142.349,179.342a2.3,2.3,0,0,1-2.3-2.3V132.71a2.3,2.3,0,0,1,1.977-2.3,42.01,42.01,0,0,0,0-83.1,2.3,2.3,0,0,1-1.977-2.3V7.989a2.316,2.316,0,0,1,2.3-2.3h0A305.823,305.823,0,0,1,414.118,443.454a2.3,2.3,0,0,1-1.472,1.219Z" transform="translate(167.719 -5.69)" fill="url(#linear-gradient-2)"/>
        <path id="Trazado_181605" data-name="Trazado 181605" d="M373.19,414.251a4.6,4.6,0,0,0-2.6-.8,4.374,4.374,0,0,0-.943,0,4.6,4.6,0,0,0-2.966,2.069,35.112,35.112,0,1,1-57.715-39.895,4.6,4.6,0,0,0-1.035-6.576l-40.516-27.892a133.917,133.917,0,0,0,3.863-30.766v-1.219A134.654,134.654,0,0,0,141.04,174.743V130.411a44.31,44.31,0,0,0,0-87.654V5.69c165.443,2.3,299.27,137.574,299.27,303.524a300.236,300.236,0,0,1-29.663,131.067Z" transform="translate(169.005 -5.69)" fill="#ff9b6a"/>
        <path id="Trazado_181606" data-name="Trazado 181606" d="M292.775,422.526a305.823,305.823,0,0,1-271.631-165.6,2.3,2.3,0,0,1,.736-2.943l40.286-27.846a2.3,2.3,0,0,0,.506-3.311,18.515,18.515,0,0,1-1.127-1.518,37.383,37.383,0,1,1,61.211-42.93c.46.644.874,1.311,1.288,1.978a2.3,2.3,0,0,0,1.495,1.058H126a2.3,2.3,0,0,0,1.334-.414L163.708,156a2.437,2.437,0,0,1,1.311-.391,2.044,2.044,0,0,1,.736,0,2.3,2.3,0,0,1,1.449,1.472,131.711,131.711,0,0,0,125.847,91.7c2.3,0,4.6,0,6.783-.161l1.472-.115h1.679c1.2,0,2.3-.161,3.541-.276l2.046-.253,2.093-.253,2.46-.322,2.3-.414,2-.345c.736-.138,1.472-.253,2.184-.414s1.633-.345,2.437-.552l1.978-.46c.69-.138,1.334-.276,1.955-.46l2.713-.736,1.794-.529,1.748-.483.575-.207,2.989-.989.989-.345,1.564-.529,3.127-1.219,2.851-1.127c1.2-.506,2.3-1.058,3.564-1.61l2.3-1.012c1.334-.644,2.644-1.334,3.978-2.023l1.725-.9c1.38-.759,2.782-1.564,4.185-2.3l1.288-.736,1.61-1.035,1.012-.644,1.679-1.058,1.058-.667h0c1.472-.989,2.92-2.023,4.346-3.081l.828-.575c1.449-1.081,2.9-2.3,4.323-3.38l.575-.437.644-.552c1.265-1.058,2.483-2.092,3.656-3.173l.506-.437c1.472-1.311,2.9-2.667,4.3-4.047l.3-.3,2.161-2.184h0c.69-.69,1.357-1.4,2.023-2.138,1.173-1.288,2.3-2.506,3.265-3.725l.851-.989c.943-1.127,1.863-2.3,2.782-3.472l1.012-1.288.138-.184c.851-1.127,1.633-2.3,2.3-3.288,0,0,.782-1.1.989-1.426.552-.782,1.081-1.61,1.633-2.437l.989-1.518.851-1.311c.713-1.15,1.4-2.3,2.092-3.518.3-.483.575-.989.874-1.495q1.058-1.908,2.069-3.863l.8-1.541c.644-1.311,1.288-2.644,1.909-3.978l.644-1.426c.621-1.357,1.2-2.736,1.771-4.116l.759-1.932c.529-1.334,1.012-2.644,1.495-3.978,0,0,.874-2.575,1.1-3.311a2.3,2.3,0,0,1,1.449-1.449,2.092,2.092,0,0,1,.736-.138,2.46,2.46,0,0,1,1.311.414l34.146,23.592a2.3,2.3,0,0,1,.644,3.081,42.01,42.01,0,0,0,68.983,47.69,2.308,2.308,0,0,1,3.127-.46L563.923,254.3a2.3,2.3,0,0,1,.736,2.966l-.345.644c-1.932,3.679-3.978,7.427-6.116,11.152s-4.392,7.5-6.622,11.014l-1.7,2.644-2.138,3.265-2.3,3.5L543.78,291.9c-.8,1.15-1.61,2.3-2.437,3.426-.46.667-1.679,2.3-1.679,2.3-2.828,3.84-5.611,7.473-8.531,11.083l-.184.253-2.667,3.265c-3.035,3.633-6.162,7.243-9.336,10.715l-.138.161c-1.679,1.84-3.242,3.518-4.852,5.174l-.207.207c-1.61,1.7-3.288,3.4-4.99,5.1l-.138.023c-1.7,1.679-3.357,3.311-5.059,4.9s-3.541,3.357-5.358,4.99l-.368.322c-1.748,1.587-3.518,3.15-5.289,4.6l-.3.253c-1.725,1.495-3.472,2.966-5.22,4.415l-.644.529c-5.473,4.461-11.083,8.738-16.717,12.716l-.46.345c-1.932,1.357-3.748,2.6-5.565,3.84l-.644.414c-1.84,1.242-3.656,2.437-5.473,3.61h0q-3.1,1.955-6.208,3.863l-.943.575c-2,1.2-3.978,2.3-5.955,3.472l-1.035.6-4.852,2.69-.713.391c-1.932,1.035-3.863,2.047-5.84,3.058l-2.621,1.311-4,1.977-2.3,1.1-4.369,2.024-2.552,1.127-4.254,1.84h0l-.529.23-4.369,1.771-2.3.9-2.483.943-4.3,1.61h0l-2.736.943c-4.415,1.564-8.83,3.035-13.13,4.346l-1.311.368c-1.817.552-3.587,1.081-5.358,1.564l-1.863.506c-1.977.552-3.84,1.035-5.726,1.518l-3.725.9-3.61.851-5.886,1.38-2.138.414-2.46.46-2.874.552-2.162.368-5.358.874-2.506.345-2.115.3-3.035.437-2.805.322-4.829.552-3.2.276s-4,.368-4.6.391l-3.4.23H311.7l-5.978.3-4.875.184h-7.864Z" transform="translate(12.878 189.074)" fill="url(#linear-gradient-3)"/>
        <path id="Trazado_181607" data-name="Trazado 181607" d="M291.356,417.96A303.523,303.523,0,0,1,21.91,253.6L62.2,225.751a4.6,4.6,0,0,0,1.012-6.6c-.368-.483-.736-.943-1.081-1.426a35.135,35.135,0,1,1,57.486-40.309c.414.621.8,1.242,1.2,1.863a4.67,4.67,0,0,0,6.53,1.311l36.239-25.041a134.654,134.654,0,0,0,128.032,93.287c2.3,0,4.6,0,6.9-.161l1.564-.115h1.656a33.265,33.265,0,0,0,3.587-.3l2.138-.253,2.046-.253a15.567,15.567,0,0,0,2.529-.345c.828-.138,1.587-.253,2.3-.414l1.977-.345c.736-.138,1.495-.253,2.3-.414s1.679-.368,2.506-.552l1.977-.46,2-.483c.943-.23,1.863-.506,2.759-.759l1.817-.529,1.794-.506.621-.207,2.989-1.012.989-.322,1.633-.552L341,239.571l2.3-.92.46-.161,3.679-1.656,1.1-.506,1.2-.529c1.357-.667,2.713-1.357,4.047-2.069l1.725-.874c1.449-.8,2.874-1.633,4.3-2.46l1.311-.759h0l1.656-1.058,1.012-.644,1.7-1.081,1.081-.69c1.495-1.012,2.966-2.069,4.415-3.127l.8-.575c1.495-1.1,2.989-2.3,4.438-3.449l.46-.368h0l.782-.621,3.7-3.219.483-.414c1.518-1.38,2.966-2.759,4.392-4.162l.3-.276,2.3-2.3h0c.69-.713,1.38-1.449,2.046-2.184,1.219-1.311,2.3-2.552,3.334-3.794l.851-.989c.966-1.15,1.909-2.3,2.851-3.541l1.012-1.288.184-.276q1.242-1.61,2.414-3.311s.8-1.1,1.012-1.426c.621-.874,1.2-1.771,1.794-2.667l.874-1.334s.851-1.357.874-1.357c.713-1.173,1.426-2.3,2.115-3.564l.9-1.541c.713-1.288,1.426-2.6,2.115-3.932l.8-1.541c.667-1.357,1.334-2.713,1.955-4.07l.667-1.449c.6-1.38,1.219-2.782,1.794-4.185,0,0,.759-1.955.782-1.977.506-1.334,1.012-2.69,1.495-4.047l1.127-3.357,34.146,23.592a43.8,43.8,0,0,0-6.415,22.994,44.333,44.333,0,0,0,79.192,27.409l34.813,24.052-.345.644c-1.932,3.725-3.955,7.45-6.047,11.083s-4.392,7.45-6.6,10.922l-1.679,2.621c-.713,1.1-1.4,2.184-2.138,3.265,0,0-1.541,2.3-2.3,3.449l-1.656,2.414-2.414,3.4-1.656,2.3c-2.828,3.817-5.634,7.473-8.462,10.991l-.207.253-2.621,3.127c-3.035,3.633-6.139,7.22-9.2,10.623l-.138.161c-1.656,1.84-3.219,3.5-4.806,5.151l-.161.184c-1.656,1.7-3.311,3.4-5.013,5.082l-.161.161c-1.633,1.633-3.288,3.242-4.944,4.829s-3.541,3.311-5.335,4.944l-.368.322c-1.725,1.564-3.472,3.1-5.243,4.6l-.276.23c-1.748,1.495-3.472,2.943-5.22,4.392l-.667.552c-5.312,4.323-10.922,8.6-16.533,12.6l-.46.322c-1.932,1.357-3.725,2.6-5.542,3.817l-.621.414c-1.84,1.219-3.633,2.414-5.45,3.564h0c-2.046,1.288-4.093,2.575-6.162,3.84l-.92.552c-2,1.173-3.955,2.3-5.933,3.472l-1.012.552-4.829,2.69-.69.368c-1.932,1.035-3.863,2.069-5.795,3.058l-1.771.874-.207.115-4.6,2.3-2.3,1.081-4.323,2.023-2.3.989-4.484,1.955-.46.184-4.415,1.794-2.3.9c-.782.322-1.61.621-2.414.92l-4.277,1.633-2.69.943q-6.691,2.3-13.061,4.3l-1.265.391-5.335,1.541-1.84.506-5.68,1.495-3.7.9-3.587.851L352.82,411.8l-2.093.391-2.483.483-2.851.552-2.115.345-5.381.874-2.3.345-2.138.3c-.989.161-2,.3-2.989.414l-2.782.322-4.829.552-3.127.276-4.6.414-3.633.23h-1.081c-2.115.115-4.047.23-5.956.3l-4.852.184h-7.8Z" transform="translate(14.205 189.041)" fill="#592fe6"/>
        <path id="Trazado_181608" data-name="Trazado 181608" d="M245.21,133.867h4.827a2.6,2.6,0,0,1,2.871,2.539c-.062,1.54-1.061,2.33-2.892,2.351H218.639c-1.914,0-2.955-.916-2.934-2.476s1.061-2.393,3.017-2.414h4.37c.1,0,.208-.1.479-.25v-6.055c0-1.248-.936-.957-1.644-.957h-26.3c-4.266,0-6.242-1.914-6.242-6.242V69.925a5.556,5.556,0,0,1,6.034-6.242h77.654a5.639,5.639,0,0,1,6.138,6.242v50.417c0,4.161-1.956,6.242-6.242,6.242H245.21Zm-50.833-12.485H274.2V68.76H194.378Z" transform="translate(270.435 155.868)" fill="#fff"/>
        <path id="Trazado_181609" data-name="Trazado 181609" d="M164.8,275.382a16.59,16.59,0,0,1-1.61-.943,51.01,51.01,0,0,1-4.139-3.334,2.943,2.943,0,0,0-3.219-.46c-2.3.6-2.6,2-2.759,3.932-.575,6.622-.621,6.6-7.174,6.6h-4.6a2.07,2.07,0,0,1-2.437-2.024c-.276-2.115-.621-4.231-1.012-6.346a4.093,4.093,0,0,0-5.059-2.092c-1.679,1.219-3.334,2.483-4.967,3.748a1.977,1.977,0,0,1-2.9,0c-2.3-2.3-4.415-4.6-6.6-6.76a2.3,2.3,0,0,1,0-3.38c.713-.782,1.242-1.771,2-2.506a4.162,4.162,0,0,0,.874-5.933c-.552-.874-.943-1.4-2.023-1.541-2.046-.253-4.093-.69-6.139-.989a1.886,1.886,0,0,1-1.84-2.161V242.34a2.046,2.046,0,0,1,2.115-2.3c1.541-.184,3.058-.483,4.6-.713,2.759-.437,3.748-1.311,4.277-4.024a2.07,2.07,0,0,0-.437-1.4c-1.2-1.61-2.437-3.173-3.725-4.737a2.023,2.023,0,0,1,0-3.035c2.3-2.3,4.415-4.484,6.668-6.668a2.3,2.3,0,0,1,3.4,0c1.081.92,2.3,1.656,3.311,2.644a3.61,3.61,0,0,0,4.783.69,2.644,2.644,0,0,0,1.794-2.46c.138-1.932.575-3.84.874-5.749a2.092,2.092,0,0,1,2.3-2.046h9.06a2.046,2.046,0,0,1,2.3,2.115c.23,1.909.552,3.84.851,5.749a3.771,3.771,0,0,0,5.565,2.3,48.46,48.46,0,0,1,4.6-3.449,3.012,3.012,0,0,1,2.805,0c2.3,2.092,4.438,4.438,6.622,6.714a2.116,2.116,0,0,1,0,3.2c-1.2,1.426-2.3,2.943-3.449,4.438a4.6,4.6,0,0,0,2.3,5.588c2.046.345,4.093.667,6.139.943a2.3,2.3,0,0,1,2.161,2.3V251.1A2.161,2.161,0,0,1,178,253.515c-1.931.253-3.84.667-5.772.851a2.805,2.805,0,0,0-2.3,1.748,3.656,3.656,0,0,0,.759,5.1,9.491,9.491,0,0,1,.736.943c3.334,4.093,3.679,3.38-.391,7.749-1.357,1.472-2.874,2.828-4.369,4.162A9.039,9.039,0,0,1,164.8,275.382Zm-5.519-28.513a13.8,13.8,0,1,0-13.567,13.8,13.59,13.59,0,0,0,13.567-13.8Z" transform="translate(198.864 266.959)" fill="#fff"/>
        <path id="Trazado_181610" data-name="Trazado 181610" d="M149.087,233.456a4.139,4.139,0,0,0-2.851-3.15c-8.37-1.334-6.369,0-6.691-7.818a1.725,1.725,0,0,1,1.679-2.024c1.38-.23,2.759-.483,4.162-.644,3.2-.391,4.208-2.115,2.966-5.036-2.3-5.45-2.3-5.335,2.805-8.439,1.909-1.2,3.081-.989,4.277.759.6.9,1.334,1.679,2,2.529a3.173,3.173,0,0,0,5.7,0c3.633-4.76,3.587-4.6,8.853-1.771,1.863,1.012,2.3,2.069,1.4,3.932-.529,1.012-.851,2.115-1.288,3.15-1.15,2.69,0,4.6,2.805,4.852,5.979.736,5.887.736,6.047,6.714,0,2.092-.6,3.081-2.667,3.242a23.01,23.01,0,0,0-3.38.483c-3.012.437-3.932,2.161-2.736,4.99a33.7,33.7,0,0,1,1.587,4.323,2.3,2.3,0,0,1-.759,1.863,31.132,31.132,0,0,1-4.875,2.805,2.162,2.162,0,0,1-1.978-.3,42.926,42.926,0,0,1-3.357-4,3.2,3.2,0,0,0-5.036,0c-1.035,1.311-2.115,2.6-3.15,3.909a1.495,1.495,0,0,1-2.3.414,51.417,51.417,0,0,0-4.6-2.6,1.679,1.679,0,0,1-.9-2.46c.575-1.495,1.173-2.989,1.771-4.6Zm11.5-15.245a6.76,6.76,0,0,0-6.9,6.507,6.811,6.811,0,1,0,6.806-6.507Z" transform="translate(235.687 257.953)" fill="#fff"/>
        <path id="Trazado_181611" data-name="Trazado 181611" d="M165.554,230.77c2.3,1.288,4.277,2.3,6.231,3.656a2.046,2.046,0,0,1,.529,1.794,32.2,32.2,0,0,1-1.609,4.3c-1.15,2.782-.138,4.6,2.828,4.921,5.932.713,5.932.713,5.932,6.622,0,2.966,0,2.966-3.012,3.426-1.081.184-2.138.322-3.2.437a3.1,3.1,0,0,0-2.621,4.6c2.483,5.726,2.437,5.657-2.874,8.853-1.748,1.058-2.828.92-3.955-.713a32.849,32.849,0,0,0-2.3-2.851,3.1,3.1,0,0,0-5.45,0c-3.771,4.9-3.725,4.829-9.2,1.863-1.725-.966-2.161-1.954-1.334-3.679.506-1.081.9-2.3,1.357-3.334a3.127,3.127,0,0,0-2.828-4.852c-6.025-.6-6.025-.6-6.025-6.507,0-2.943,0-2.943,2.874-3.472,1.058-.184,2.115-.345,3.173-.46,2.874-.368,3.932-2.184,2.805-4.806-2.3-5.565-2.3-5.473,2.759-8.6,1.909-1.173,3.081-1.012,4.254.8a29.9,29.9,0,0,0,2,2.506c1.863,2.3,3.863,2.3,5.749,0C162.91,233.782,164.2,232.334,165.554,230.77Zm-6.668,26.742a7.59,7.59,0,1,0-6.829-6.76,6.714,6.714,0,0,0,6.783,6.76Z" transform="translate(233.752 290.669)" fill="#fff"/>
        <path id="Trazado_181612" data-name="Trazado 181612" d="M64.391,66.89,63.08,68.178V91.586l11.888,11.888L87.983,90.459Z" transform="translate(67.702 73.835)" fill="url(#linear-gradient-4)"/>
        <path id="Trazado_181614" data-name="Trazado 181614" d="M128.375,101.963a42.056,42.056,0,1,1-12.351-29.748A41.987,41.987,0,0,1,128.375,101.963Zm-74.984-.736A32.974,32.974,0,1,0,63.761,77.97,33,33,0,0,0,53.391,101.228Z" transform="translate(14.859 159.596)" fill="#fff"/>
        <path id="Trazado_181615" data-name="Trazado 181615" d="M67.923,92.355H86.042c2.552,0,4.093,1.311,4.139,3.426s-1.449,3.541-4,3.541H65.049a3.61,3.61,0,0,1-4.024-4.139v-24.9a3.656,3.656,0,0,1,2-3.656,3.288,3.288,0,0,1,3.564.322,3.886,3.886,0,0,1,1.334,3.472V92.355Z" transform="translate(36.405 167.801)" fill="#fff"/>
      </g>
    </g>
    <path id="Trazado_182555" data-name="Trazado 182555" d="M16.715,15.758H10.246v4.078h7.641V23H6.133V5.938H17.91V9.113H10.246v3.6h6.469Zm9.3,3.68a.912.912,0,0,0-.527-.809,8.021,8.021,0,0,0-2-.633,9.138,9.138,0,0,1-2.437-.861,4.083,4.083,0,0,1-1.465-1.295,3.092,3.092,0,0,1-.5-1.746,3.5,3.5,0,0,1,1.441-2.877A5.938,5.938,0,0,1,24.3,10.086a6.579,6.579,0,0,1,4.031,1.137,3.555,3.555,0,0,1,1.523,2.988H25.891q0-1.523-1.605-1.523a1.591,1.591,0,0,0-1.043.346,1.07,1.07,0,0,0-.422.861.982.982,0,0,0,.516.855,4.872,4.872,0,0,0,1.646.539,14.228,14.228,0,0,1,1.986.5q2.859.984,2.859,3.527a3.321,3.321,0,0,1-1.541,2.824,6.758,6.758,0,0,1-3.99,1.09,6.9,6.9,0,0,1-2.906-.586A4.86,4.86,0,0,1,19.4,21.055a3.609,3.609,0,0,1-.715-2.121h3.691a1.526,1.526,0,0,0,.586,1.283,2.41,2.41,0,0,0,1.441.4,1.9,1.9,0,0,0,1.213-.328A1.05,1.05,0,0,0,26.02,19.438ZM36.273,7.168V10.32h2.086v2.742H36.273v5.8a1.481,1.481,0,0,0,.258,1,1.383,1.383,0,0,0,1.02.281,5.793,5.793,0,0,0,.984-.07v2.824a7.288,7.288,0,0,1-2.227.34,4.137,4.137,0,0,1-3.012-.961,3.939,3.939,0,0,1-.973-2.918V13.063H30.707V10.32h1.617V7.168Zm11.309,6.727-1.3-.094a2.336,2.336,0,0,0-2.391,1.172V23H39.941V10.32h3.7l.129,1.629a3.058,3.058,0,0,1,2.777-1.863,3.851,3.851,0,0,1,1.1.141Zm8.977,7.734a4.072,4.072,0,0,1-3.387,1.605,3.993,3.993,0,0,1-3.158-1.213,5.1,5.1,0,0,1-1.072-3.486V10.32h3.949v8.238a1.419,1.419,0,0,0,1.582,1.629,2.064,2.064,0,0,0,1.934-.973V10.32h3.973V23h-3.7ZM67.9,20.188a1.756,1.756,0,0,0,1.289-.451,1.654,1.654,0,0,0,.445-1.26h3.7A4.384,4.384,0,0,1,71.846,21.9,5.558,5.558,0,0,1,68,23.234,5.627,5.627,0,0,1,63.637,21.5a6.834,6.834,0,0,1-1.594-4.8v-.164a7.723,7.723,0,0,1,.709-3.393A5.162,5.162,0,0,1,64.8,10.877a6.1,6.1,0,0,1,3.164-.791,5.488,5.488,0,0,1,3.926,1.371,4.863,4.863,0,0,1,1.453,3.715h-3.7a2.168,2.168,0,0,0-.48-1.512,1.658,1.658,0,0,0-1.289-.527q-1.535,0-1.793,1.957a13.809,13.809,0,0,0-.082,1.711,5.424,5.424,0,0,0,.457,2.648A1.582,1.582,0,0,0,67.9,20.188ZM79.609,7.168V10.32H81.7v2.742H79.609v5.8a1.481,1.481,0,0,0,.258,1,1.383,1.383,0,0,0,1.02.281,5.793,5.793,0,0,0,.984-.07v2.824a7.288,7.288,0,0,1-2.227.34,4.137,4.137,0,0,1-3.012-.961,3.939,3.939,0,0,1-.973-2.918V13.063H74.043V10.32H75.66V7.168ZM90.8,21.629a4.072,4.072,0,0,1-3.387,1.605,3.993,3.993,0,0,1-3.158-1.213,5.1,5.1,0,0,1-1.072-3.486V10.32h3.949v8.238a1.419,1.419,0,0,0,1.582,1.629,2.064,2.064,0,0,0,1.934-.973V10.32h3.973V23h-3.7Zm13.652-7.734-1.3-.094a2.336,2.336,0,0,0-2.391,1.172V23H96.813V10.32h3.7l.129,1.629a3.058,3.058,0,0,1,2.777-1.863,3.851,3.851,0,0,1,1.1.141ZM112.668,23a4.459,4.459,0,0,1-.375-1.137,3.672,3.672,0,0,1-3.047,1.371A4.5,4.5,0,0,1,106.2,22.15a3.45,3.45,0,0,1-1.254-2.725,3.546,3.546,0,0,1,1.523-3.117,7.761,7.761,0,0,1,4.43-1.055h1.219v-.671q0-1.755-1.512-1.755a1.236,1.236,0,0,0-1.406,1.39H105.25a3.54,3.54,0,0,1,1.564-2.985,6.575,6.575,0,0,1,3.99-1.147,5.764,5.764,0,0,1,3.832,1.184,4.115,4.115,0,0,1,1.441,3.246v5.613a5.748,5.748,0,0,0,.539,2.672V23ZM110.2,20.422a2.2,2.2,0,0,0,1.225-.316,1.983,1.983,0,0,0,.7-.715V17.363h-1.148q-2.062,0-2.062,1.852a1.131,1.131,0,0,0,.363.873A1.315,1.315,0,0,0,110.2,20.422ZM33.432,53H29.471V35h3.961Zm1.934-6.457a7.484,7.484,0,0,1,.738-3.381,5.28,5.28,0,0,1,2.121-2.279,6.388,6.388,0,0,1,3.246-.8,5.83,5.83,0,0,1,4.488,1.764,6.768,6.768,0,0,1,1.641,4.8v.141a6.566,6.566,0,0,1-1.646,4.705,5.846,5.846,0,0,1-4.459,1.74,5.912,5.912,0,0,1-4.348-1.623,6.348,6.348,0,0,1-1.77-4.4Zm3.949.246a4.718,4.718,0,0,0,.551,2.578,1.835,1.835,0,0,0,1.629.82q2.109,0,2.156-3.246v-.4q0-3.41-2.18-3.41-1.98,0-2.145,2.941ZM42.01,35h4.172l-3.258,3.68L39.7,38.674Zm6.867,11.566a8.561,8.561,0,0,1,.633-3.4,5.094,5.094,0,0,1,1.816-2.279,4.788,4.788,0,0,1,2.754-.8,3.807,3.807,0,0,1,3.094,1.336l.141-1.1H60.9v12.2a5.346,5.346,0,0,1-.779,2.912,5,5,0,0,1-2.256,1.9,8.292,8.292,0,0,1-3.422.662,7.153,7.153,0,0,1-2.7-.527,4.876,4.876,0,0,1-2-1.371l1.652-2.32a3.621,3.621,0,0,0,2.906,1.3q2.625,0,2.625-2.7v-.4a3.708,3.708,0,0,1-2.871,1.254,4.583,4.583,0,0,1-3.75-1.775,7.356,7.356,0,0,1-1.43-4.752Zm3.961.246a4.511,4.511,0,0,0,.586,2.467,1.849,1.849,0,0,0,1.641.908,2.1,2.1,0,0,0,1.863-.855V44a2.045,2.045,0,0,0-1.84-.867,1.861,1.861,0,0,0-1.652.943A5.144,5.144,0,0,0,52.838,46.813ZM67.311,53H63.35V40.32h3.961Zm-4.2-15.961a1.778,1.778,0,0,1,.609-1.391,2.579,2.579,0,0,1,3.164,0,1.893,1.893,0,0,1,0,2.782,2.579,2.579,0,0,1-3.164,0A1.778,1.778,0,0,1,63.115,37.039ZM75.1,50.188a1.756,1.756,0,0,0,1.289-.451,1.654,1.654,0,0,0,.445-1.26h3.7A4.384,4.384,0,0,1,79.047,51.9a5.558,5.558,0,0,1-3.85,1.336A5.627,5.627,0,0,1,70.838,51.5a6.834,6.834,0,0,1-1.594-4.8v-.164a7.723,7.723,0,0,1,.709-3.393A5.162,5.162,0,0,1,72,40.877a6.1,6.1,0,0,1,3.164-.791,5.488,5.488,0,0,1,3.926,1.371,4.863,4.863,0,0,1,1.453,3.715h-3.7a2.168,2.168,0,0,0-.48-1.512,1.658,1.658,0,0,0-1.289-.527q-1.535,0-1.793,1.957a13.809,13.809,0,0,0-.082,1.711,5.424,5.424,0,0,0,.457,2.648A1.582,1.582,0,0,0,75.1,50.188ZM89.354,53a4.459,4.459,0,0,1-.375-1.137,3.672,3.672,0,0,1-3.047,1.371,4.5,4.5,0,0,1-3.047-1.084,3.45,3.45,0,0,1-1.254-2.725,3.546,3.546,0,0,1,1.523-3.117,7.761,7.761,0,0,1,4.43-1.055H88.8v-.671q0-1.755-1.512-1.755a1.236,1.236,0,0,0-1.406,1.39H81.936A3.54,3.54,0,0,1,83.5,41.233a6.575,6.575,0,0,1,3.99-1.147,5.764,5.764,0,0,1,3.832,1.184,4.115,4.115,0,0,1,1.441,3.246v5.613A5.748,5.748,0,0,0,93.3,52.8V53Zm-2.473-2.578a2.2,2.2,0,0,0,1.225-.316,1.983,1.983,0,0,0,.7-.715V47.363H87.654q-2.062,0-2.062,1.852a1.131,1.131,0,0,0,.363.873A1.315,1.315,0,0,0,86.881,50.422Z" transform="translate(739 5652)" fill="#12263f"/>
    <path id="Trazado_182556" data-name="Trazado 182556" d="M21.123,19.813H15.486L14.5,23H10.107L16.365,5.938h3.867L26.537,23H22.119Zm-4.652-3.176h3.668L18.3,10.719Zm18.551,4.992a4.072,4.072,0,0,1-3.387,1.605,3.993,3.993,0,0,1-3.158-1.213A5.1,5.1,0,0,1,27.4,18.535V10.32h3.949v8.238a1.419,1.419,0,0,0,1.582,1.629,2.064,2.064,0,0,0,1.934-.973V10.32h3.973V23h-3.7ZM45.6,7.168V10.32h2.086v2.742H45.6v5.8a1.481,1.481,0,0,0,.258,1,1.383,1.383,0,0,0,1.02.281,5.793,5.793,0,0,0,.984-.07v2.824a7.288,7.288,0,0,1-2.227.34,4.137,4.137,0,0,1-3.012-.961,3.939,3.939,0,0,1-.973-2.918V13.063H40.037V10.32h1.617V7.168Zm9.773,16.066a6.518,6.518,0,0,1-4.723-1.74,6.009,6.009,0,0,1-1.8-4.529v-.328A7.787,7.787,0,0,1,49.57,13.2a5.274,5.274,0,0,1,2.1-2.3,6.35,6.35,0,0,1,3.281-.814,5.489,5.489,0,0,1,4.219,1.658,6.516,6.516,0,0,1,1.547,4.623V17.9H52.869a2.846,2.846,0,0,0,.926,1.676,2.755,2.755,0,0,0,1.852.609,3.549,3.549,0,0,0,2.93-1.312l1.8,2.133a5.045,5.045,0,0,1-2.092,1.623A7.069,7.069,0,0,1,55.377,23.234Zm-.445-10.1q-1.734,0-2.062,2.3h3.984v-.3a1.956,1.956,0,0,0-.48-1.471A1.912,1.912,0,0,0,54.932,13.133Zm11-2.812.129,1.488a4.3,4.3,0,0,1,3.621-1.723,3.618,3.618,0,0,1,2.959,1.184,5.635,5.635,0,0,1,1.014,3.563V23H69.7V15a2.14,2.14,0,0,0-.387-1.412,1.789,1.789,0,0,0-1.406-.451,1.883,1.883,0,0,0-1.723.914V23H62.232V10.32ZM80.443,7.168V10.32h2.086v2.742H80.443v5.8a1.481,1.481,0,0,0,.258,1,1.383,1.383,0,0,0,1.02.281,5.793,5.793,0,0,0,.984-.07v2.824a7.288,7.288,0,0,1-2.227.34,4.137,4.137,0,0,1-3.012-.961,3.939,3.939,0,0,1-.973-2.918V13.063H74.877V10.32h1.617V7.168ZM88.248,23H84.287V10.32h3.961Zm-4.2-15.961a1.778,1.778,0,0,1,.609-1.391,2.579,2.579,0,0,1,3.164,0,1.778,1.778,0,0,1,.609,1.391,1.778,1.778,0,0,1-.609,1.391,2.579,2.579,0,0,1-3.164,0A1.778,1.778,0,0,1,84.053,7.039ZM96.041,20.188a1.756,1.756,0,0,0,1.289-.451,1.654,1.654,0,0,0,.445-1.26h3.7A4.384,4.384,0,0,1,99.984,21.9a5.558,5.558,0,0,1-3.85,1.336A5.627,5.627,0,0,1,91.775,21.5a6.834,6.834,0,0,1-1.594-4.8v-.164a7.723,7.723,0,0,1,.709-3.393,5.162,5.162,0,0,1,2.045-2.262,6.1,6.1,0,0,1,3.164-.791,5.488,5.488,0,0,1,3.926,1.371,4.863,4.863,0,0,1,1.453,3.715h-3.7a2.168,2.168,0,0,0-.48-1.512,1.658,1.658,0,0,0-1.289-.527q-1.535,0-1.793,1.957a13.809,13.809,0,0,0-.082,1.711,5.424,5.424,0,0,0,.457,2.648A1.582,1.582,0,0,0,96.041,20.188ZM110.291,23a4.459,4.459,0,0,1-.375-1.137,3.672,3.672,0,0,1-3.047,1.371,4.5,4.5,0,0,1-3.047-1.084,3.45,3.45,0,0,1-1.254-2.725,3.546,3.546,0,0,1,1.523-3.117,7.761,7.761,0,0,1,4.43-1.055h1.219v-.671q0-1.755-1.512-1.755a1.236,1.236,0,0,0-1.406,1.39h-3.949a3.54,3.54,0,0,1,1.564-2.985,6.575,6.575,0,0,1,3.99-1.147,5.764,5.764,0,0,1,3.832,1.184,4.115,4.115,0,0,1,1.441,3.246v5.613a5.748,5.748,0,0,0,.539,2.672V23Zm-2.473-2.578a2.2,2.2,0,0,0,1.225-.316,1.983,1.983,0,0,0,.7-.715V17.363h-1.148q-2.062,0-2.062,1.852a1.131,1.131,0,0,0,.363.873A1.315,1.315,0,0,0,107.818,20.422Zm13.43-.234a1.756,1.756,0,0,0,1.289-.451,1.654,1.654,0,0,0,.445-1.26h3.7a4.384,4.384,0,0,1-1.494,3.422,5.558,5.558,0,0,1-3.85,1.336,5.627,5.627,0,0,1-4.359-1.734,6.834,6.834,0,0,1-1.594-4.8v-.164a7.723,7.723,0,0,1,.709-3.393,5.162,5.162,0,0,1,2.045-2.262,6.1,6.1,0,0,1,3.164-.791,5.488,5.488,0,0,1,3.926,1.371,4.863,4.863,0,0,1,1.453,3.715h-3.7a2.168,2.168,0,0,0-.48-1.512,1.658,1.658,0,0,0-1.289-.527q-1.535,0-1.793,1.957a13.809,13.809,0,0,0-.082,1.711,5.424,5.424,0,0,0,.457,2.648A1.582,1.582,0,0,0,121.248,20.188ZM132.521,23h-3.961V10.32h3.961Zm-4.2-15.961a1.778,1.778,0,0,1,.609-1.391,2.579,2.579,0,0,1,3.164,0,1.778,1.778,0,0,1,.609,1.391A1.778,1.778,0,0,1,132.1,8.43a2.579,2.579,0,0,1-3.164,0A1.778,1.778,0,0,1,128.326,7.039Zm6.129,9.5a7.484,7.484,0,0,1,.738-3.381,5.28,5.28,0,0,1,2.121-2.279,6.388,6.388,0,0,1,3.246-.8,5.83,5.83,0,0,1,4.488,1.764,6.768,6.768,0,0,1,1.641,4.8v.141a6.566,6.566,0,0,1-1.646,4.705,5.846,5.846,0,0,1-4.459,1.74,5.912,5.912,0,0,1-4.348-1.623,6.348,6.348,0,0,1-1.77-4.4Zm3.949.246a4.718,4.718,0,0,0,.551,2.578,1.835,1.835,0,0,0,1.629.82q2.109,0,2.156-3.246v-.4q0-3.41-2.18-3.41-1.98,0-2.145,2.941ZM141.1,5h4.172l-3.258,3.68-3.223-.006Zm10.957,5.32.129,1.488a4.3,4.3,0,0,1,3.621-1.723,3.618,3.618,0,0,1,2.959,1.184,5.635,5.635,0,0,1,1.014,3.563V23h-3.961V15a2.14,2.14,0,0,0-.387-1.412,1.789,1.789,0,0,0-1.406-.451,1.883,1.883,0,0,0-1.723.914V23h-3.949V10.32Z" transform="translate(886 5535)" fill="#12263f"/>
    <path id="Trazado_182554" data-name="Trazado 182554" d="M45.006,17.223a6.231,6.231,0,0,1-.961,3.146,5.8,5.8,0,0,1-2.467,2.115,8.4,8.4,0,0,1-3.627.75,6.7,6.7,0,0,1-5.3-2.191,9.048,9.048,0,0,1-1.934-6.187v-.844a10.328,10.328,0,0,1,.873-4.389,6.615,6.615,0,0,1,2.514-2.906,7.013,7.013,0,0,1,3.8-1.025A7.354,7.354,0,0,1,42.9,7.326a6.459,6.459,0,0,1,2.145,4.506h-4.1a3.056,3.056,0,0,0-.785-2.238,3.229,3.229,0,0,0-2.25-.68,2.457,2.457,0,0,0-2.25,1.148,7.381,7.381,0,0,0-.75,3.668v1.207a8.167,8.167,0,0,0,.686,3.9,2.509,2.509,0,0,0,2.361,1.172,3.159,3.159,0,0,0,2.168-.668,2.835,2.835,0,0,0,.8-2.121Zm1.266-.68a7.484,7.484,0,0,1,.738-3.381,5.28,5.28,0,0,1,2.121-2.279,6.388,6.388,0,0,1,3.246-.8,5.83,5.83,0,0,1,4.488,1.764,6.768,6.768,0,0,1,1.641,4.8v.141a6.566,6.566,0,0,1-1.646,4.705,5.846,5.846,0,0,1-4.459,1.74,5.912,5.912,0,0,1-4.348-1.623,6.348,6.348,0,0,1-1.77-4.4Zm3.949.246a4.718,4.718,0,0,0,.551,2.578,1.835,1.835,0,0,0,1.629.82q2.109,0,2.156-3.246v-.4q0-3.41-2.18-3.41-1.98,0-2.145,2.941ZM63.873,10.32,64,11.809a4.3,4.3,0,0,1,3.621-1.723,3.618,3.618,0,0,1,2.959,1.184A5.635,5.635,0,0,1,71.6,14.832V23H67.635V15a2.14,2.14,0,0,0-.387-1.412,1.789,1.789,0,0,0-1.406-.451,1.883,1.883,0,0,0-1.723.914V23H60.17V10.32ZM78.381,7.168V10.32h2.086v2.742H78.381v5.8a1.481,1.481,0,0,0,.258,1,1.383,1.383,0,0,0,1.02.281,5.793,5.793,0,0,0,.984-.07v2.824a7.288,7.288,0,0,1-2.227.34,4.137,4.137,0,0,1-3.012-.961,3.939,3.939,0,0,1-.973-2.918V13.063H72.814V10.32h1.617V7.168Zm9.773,16.066a6.518,6.518,0,0,1-4.723-1.74,6.009,6.009,0,0,1-1.8-4.529v-.328a7.787,7.787,0,0,1,.721-3.434,5.274,5.274,0,0,1,2.1-2.3,6.35,6.35,0,0,1,3.281-.814,5.489,5.489,0,0,1,4.219,1.658A6.516,6.516,0,0,1,93.5,16.367V17.9H85.646a2.846,2.846,0,0,0,.926,1.676,2.755,2.755,0,0,0,1.852.609,3.549,3.549,0,0,0,2.93-1.312l1.8,2.133a5.045,5.045,0,0,1-2.092,1.623A7.069,7.069,0,0,1,88.154,23.234Zm-.445-10.1q-1.734,0-2.062,2.3h3.984v-.3a1.956,1.956,0,0,0-.48-1.471A1.912,1.912,0,0,0,87.709,13.133Zm11-2.812.129,1.488a4.3,4.3,0,0,1,3.621-1.723,3.618,3.618,0,0,1,2.959,1.184,5.635,5.635,0,0,1,1.014,3.563V23h-3.961V15a2.14,2.14,0,0,0-.387-1.412,1.789,1.789,0,0,0-1.406-.451,1.883,1.883,0,0,0-1.723.914V23H95.01V10.32ZM112.787,23h-3.961V10.32h3.961Zm-4.2-15.961a1.778,1.778,0,0,1,.609-1.391,2.579,2.579,0,0,1,3.164,0,1.778,1.778,0,0,1,.609,1.391,1.778,1.778,0,0,1-.609,1.391,2.579,2.579,0,0,1-3.164,0A1.778,1.778,0,0,1,108.592,7.039Zm6.129,9.527a7.746,7.746,0,0,1,1.3-4.746,4.282,4.282,0,0,1,3.633-1.734,3.641,3.641,0,0,1,2.859,1.336V5h3.961V23h-3.551l-.2-1.359a3.739,3.739,0,0,1-3.094,1.594,4.274,4.274,0,0,1-3.586-1.734A7.991,7.991,0,0,1,114.721,16.566Zm3.949.246q0,3.375,1.969,3.375a1.944,1.944,0,0,0,1.875-1.1V14.258a1.892,1.892,0,0,0-1.852-1.125q-1.828,0-1.98,2.953Zm9.551-.27a7.484,7.484,0,0,1,.738-3.381,5.28,5.28,0,0,1,2.121-2.279,6.388,6.388,0,0,1,3.246-.8,5.83,5.83,0,0,1,4.488,1.764,6.768,6.768,0,0,1,1.641,4.8v.141a6.566,6.566,0,0,1-1.646,4.705,5.846,5.846,0,0,1-4.459,1.74A5.912,5.912,0,0,1,130,21.611a6.348,6.348,0,0,1-1.77-4.4Zm3.949.246a4.718,4.718,0,0,0,.551,2.578,1.835,1.835,0,0,0,1.629.82q2.109,0,2.156-3.246v-.4q0-3.41-2.18-3.41-1.98,0-2.145,2.941Z" transform="translate(544 5535)" fill="#12263f"/>
    <path id="Trazado_182557" data-name="Trazado 182557" d="M34.705,5.938l3.809,11.871,3.8-11.871h5.414V23H43.6V19.016l.4-8.156L39.873,23H37.154L33.018,10.848l.4,8.168V23H29.3V5.938Zm21.586,17.3a6.518,6.518,0,0,1-4.723-1.74,6.009,6.009,0,0,1-1.8-4.529v-.328a7.787,7.787,0,0,1,.721-3.434,5.274,5.274,0,0,1,2.1-2.3,6.35,6.35,0,0,1,3.281-.814,5.489,5.489,0,0,1,4.219,1.658,6.516,6.516,0,0,1,1.547,4.623V17.9H53.783a2.846,2.846,0,0,0,.926,1.676,2.755,2.755,0,0,0,1.852.609,3.549,3.549,0,0,0,2.93-1.312l1.8,2.133A5.045,5.045,0,0,1,59.2,22.631,7.069,7.069,0,0,1,56.291,23.234Zm-.445-10.1q-1.734,0-2.062,2.3h3.984v-.3a1.956,1.956,0,0,0-.48-1.471A1.912,1.912,0,0,0,55.846,13.133ZM67.822,7.168V10.32h2.086v2.742H67.822v5.8a1.481,1.481,0,0,0,.258,1,1.383,1.383,0,0,0,1.02.281,5.793,5.793,0,0,0,.984-.07v2.824a7.288,7.288,0,0,1-2.227.34,4.137,4.137,0,0,1-3.012-.961,3.939,3.939,0,0,1-.973-2.918V13.063H62.256V10.32h1.617V7.168ZM78.6,23a4.459,4.459,0,0,1-.375-1.137,3.672,3.672,0,0,1-3.047,1.371,4.5,4.5,0,0,1-3.047-1.084,3.45,3.45,0,0,1-1.254-2.725A3.546,3.546,0,0,1,72.4,16.309a7.761,7.761,0,0,1,4.43-1.055h1.219v-.671q0-1.755-1.512-1.755a1.236,1.236,0,0,0-1.406,1.39H71.186a3.54,3.54,0,0,1,1.564-2.985,6.575,6.575,0,0,1,3.99-1.147,5.764,5.764,0,0,1,3.832,1.184,4.115,4.115,0,0,1,1.441,3.246v5.613a5.748,5.748,0,0,0,.539,2.672V23Zm-2.473-2.578a2.2,2.2,0,0,0,1.225-.316,1.983,1.983,0,0,0,.7-.715V17.363H76.9q-2.062,0-2.062,1.852a1.131,1.131,0,0,0,.363.873A1.315,1.315,0,0,0,76.131,20.422Zm7.57-3.855A7.746,7.746,0,0,1,85,11.82a4.282,4.282,0,0,1,3.633-1.734,3.641,3.641,0,0,1,2.859,1.336V5h3.961V23H91.9l-.2-1.359a3.739,3.739,0,0,1-3.094,1.594A4.274,4.274,0,0,1,85.025,21.5,7.991,7.991,0,0,1,83.7,16.566Zm3.949.246q0,3.375,1.969,3.375a1.944,1.944,0,0,0,1.875-1.1V14.258a1.892,1.892,0,0,0-1.852-1.125q-1.828,0-1.98,2.953ZM104.842,23a4.459,4.459,0,0,1-.375-1.137,3.672,3.672,0,0,1-3.047,1.371,4.5,4.5,0,0,1-3.047-1.084,3.45,3.45,0,0,1-1.254-2.725,3.546,3.546,0,0,1,1.523-3.117,7.761,7.761,0,0,1,4.43-1.055h1.219v-.671q0-1.755-1.512-1.755a1.236,1.236,0,0,0-1.406,1.39H97.424a3.54,3.54,0,0,1,1.564-2.985,6.575,6.575,0,0,1,3.99-1.147,5.764,5.764,0,0,1,3.832,1.184,4.115,4.115,0,0,1,1.441,3.246v5.613a5.748,5.748,0,0,0,.539,2.672V23Zm-2.473-2.578a2.2,2.2,0,0,0,1.225-.316,1.983,1.983,0,0,0,.7-.715V17.363h-1.148q-2.062,0-2.062,1.852a1.131,1.131,0,0,0,.363.873A1.315,1.315,0,0,0,102.369,20.422ZM115.037,7.168V10.32h2.086v2.742h-2.086v5.8a1.481,1.481,0,0,0,.258,1,1.383,1.383,0,0,0,1.02.281,5.793,5.793,0,0,0,.984-.07v2.824a7.288,7.288,0,0,1-2.227.34,4.137,4.137,0,0,1-3.012-.961,3.939,3.939,0,0,1-.973-2.918V13.063h-1.617V10.32h1.617V7.168Zm2.789,9.375a7.484,7.484,0,0,1,.738-3.381,5.28,5.28,0,0,1,2.121-2.279,6.388,6.388,0,0,1,3.246-.8,5.83,5.83,0,0,1,4.488,1.764,6.768,6.768,0,0,1,1.641,4.8v.141a6.566,6.566,0,0,1-1.646,4.705,5.846,5.846,0,0,1-4.459,1.74,5.912,5.912,0,0,1-4.348-1.623,6.348,6.348,0,0,1-1.77-4.4Zm3.949.246a4.718,4.718,0,0,0,.551,2.578,1.835,1.835,0,0,0,1.629.82q2.109,0,2.156-3.246v-.4q0-3.41-2.18-3.41-1.98,0-2.145,2.941Zm16.664,2.648a.912.912,0,0,0-.527-.809,8.021,8.021,0,0,0-2-.633,9.138,9.138,0,0,1-2.437-.861,4.083,4.083,0,0,1-1.465-1.295,3.092,3.092,0,0,1-.5-1.746,3.5,3.5,0,0,1,1.441-2.877,5.938,5.938,0,0,1,3.773-1.131,6.579,6.579,0,0,1,4.031,1.137,3.555,3.555,0,0,1,1.523,2.988h-3.961q0-1.523-1.605-1.523a1.591,1.591,0,0,0-1.043.346,1.07,1.07,0,0,0-.422.861.982.982,0,0,0,.516.855,4.872,4.872,0,0,0,1.646.539,14.228,14.228,0,0,1,1.986.5q2.859.984,2.859,3.527a3.321,3.321,0,0,1-1.541,2.824,6.758,6.758,0,0,1-3.99,1.09,6.9,6.9,0,0,1-2.906-.586,4.86,4.86,0,0,1-1.992-1.594,3.609,3.609,0,0,1-.715-2.121h3.691a1.526,1.526,0,0,0,.586,1.283,2.41,2.41,0,0,0,1.441.4,1.9,1.9,0,0,0,1.213-.328A1.05,1.05,0,0,0,138.439,19.438Z" transform="translate(621 5851)" fill="#fff"/>
  </g>
</svg>
