<svg xmlns="http://www.w3.org/2000/svg" width="821" height="519.032" viewBox="0 0 821 519.032">
  <g id="Grupo_129545" data-name="Grupo 129545" transform="translate(-285 -915.968)">
    <g id="Grupo_129544" data-name="Grupo 129544" transform="translate(-105 12.968)">
      <g id="Trazado_182568" data-name="Trazado 182568" transform="translate(390 903)" fill="#88e0ef" stroke-linecap="round" opacity="0.15">
        <path d="M 819 490 L 2 490 L 2 10 C 2 5.588777542114258 5.588777542114258 2 10 2 L 811 2 C 815.4111938476562 2 819 5.588777542114258 819 10 L 819 490 Z" stroke="none"/>
        <path d="M 10 4 C 6.6915283203125 4 4 6.691558837890625 4 10 L 4 488 L 817 488 L 817 10 C 817 6.691558837890625 814.3084716796875 4 811 4 L 10 4 M 10 0 L 811 0 C 816.5227661132812 0 821 4.47711181640625 821 10 L 821 492 L 0 492 L 0 10 C 0 4.47711181640625 4.47711181640625 0 10 0 Z" stroke="none" fill="#64b5f6"/>
      </g>
      <g id="Checklist" transform="translate(464 966.887)">
        <g id="Background_Complete" data-name="Background Complete">
          <path id="Trazado_180874" data-name="Trazado 180874" d="M561.81,331.4v31.2h95.93V331.4Z" fill="#f5f5f5"/>
          <path id="Trazado_180875" data-name="Trazado 180875" d="M557.78,322.68v8.72H661.09v-8.72H557.78Z" fill="#e0e0e0"/>
          <path id="Trazado_180876" data-name="Trazado 180876" d="M609.44,362.6h48.3V331.4h3.35v-8.72H607.42v7.91Z" fill="#e0e0e0"/>
          <rect id="Rectángulo_39527" data-name="Rectángulo 39527" width="19.45" height="4.7" transform="translate(575.22 336.43)" fill="#e0e0e0"/>
          <rect id="Rectángulo_39528" data-name="Rectángulo 39528" width="24.98" height="9.92" transform="translate(572.72 347)" fill="#fff"/>
          <path id="Trazado_180877" data-name="Trazado 180877" d="M714.12,460.13l-2-427.24h-8.27V117H682.46l-.4-84.14h-8.27V117h-73.5l-.4-84.14h-8.27V117H570.31l-.39-84.14h-8.27V460.13h10.28l-.27-57.33h20v57.33h10.29l-.27-57.33h72.15v57.33h10.29l-.27-57.33h20v57.33Zm-133-113.95-7.39-31.67H588.9Zm10.52-29.73v74.81l-9-38.37Zm0-108.73-9-38.37,9-36.44Zm-1.6,6.87H571.55L581,176Zm-8.92-52-8.47-36.27H590Zm-1.64,6.69-8.73,35.51-.35-74.4Zm-8.2,148.44,8.2,35.1-7.88,32.06ZM581,359.59l7.91,33.87H572.7Zm-9.49-54.41-.07-.29-.26.06-.38-81h20.8v81.26Zm29.26-81.26h73v81.26H601.18ZM692.65,176l9,38.55H683.18Zm-9.78,26.74-.33-70.09,8.55,36.64Zm21,7.41-9.53-40.84,9.53-38.79Zm0,4.26v.14h-.58Zm0,104.22v70.25l-8.41-36Zm-10,27.51-7.4-31.67h15.18ZM692.74,162.6l-8.47-36.27h17.38Zm11.1,61.28v81.26H684.29l-.07-.29-.87.2L683,223.92Zm-11.62,129-8.47,34.48-.34-72.24Zm1.57,6.72,7.9,33.87H685.45Zm-20-233.22V214.6h-73l-.42-88.22ZM602.91,393.46h-1.32l-.37-78.95h72.57v78.95Z" transform="translate(-41.97 -30.48)" fill="#e0e0e0"/>
          <rect id="Rectángulo_39529" data-name="Rectángulo 39529" width="13.66" height="63.68" transform="translate(611.75 120.79)" fill="#e0e0e0"/>
          <path id="Trazado_180878" data-name="Trazado 180878" d="M663.54,199.68a2.7,2.7,0,1,1-.791-1.919A2.71,2.71,0,0,1,663.54,199.68Z" transform="translate(-41.97 -30.48)" fill="#fafafa"/>
          <rect id="Rectángulo_39530" data-name="Rectángulo 39530" width="4.18" height="26.03" transform="translate(616.66 137.66)" fill="#fafafa"/>
          <rect id="Rectángulo_39531" data-name="Rectángulo 39531" width="13.66" height="63.68" transform="translate(597.87 120.79)" fill="#ebebeb"/>
          <path id="Trazado_180879" data-name="Trazado 180879" d="M649.66,199.68A2.71,2.71,0,1,1,647,197,2.71,2.71,0,0,1,649.66,199.68Z" transform="translate(-41.97 -30.48)" fill="#fafafa"/>
          <rect id="Rectángulo_39532" data-name="Rectángulo 39532" width="4.18" height="26.03" transform="translate(602.77 137.66)" fill="#fafafa"/>
          <rect id="Rectángulo_39533" data-name="Rectángulo 39533" width="13.66" height="63.68" transform="translate(584.66 120.79)" fill="#f5f5f5"/>
          <path id="Trazado_180880" data-name="Trazado 180880" d="M636.44,199.68a2.7,2.7,0,1,1-.791-1.919,2.71,2.71,0,0,1,.791,1.919Z" transform="translate(-41.97 -30.48)" fill="#e0e0e0"/>
          <rect id="Rectángulo_39534" data-name="Rectángulo 39534" width="4.18" height="26.03" transform="translate(589.56 137.66)" fill="#e0e0e0"/>
          <path id="Trazado_180881" data-name="Trazado 180881" d="M567.76,183.5l16.42-56.02L578.52,125l-16.84,56.47Z" fill="#f5f5f5"/>
          <path id="Trazado_180882" data-name="Trazado 180882" d="M543.43,274.7v-9.64h68.11l.21,9.64Z" fill="#f5f5f5"/>
          <path id="Trazado_180883" data-name="Trazado 180883" d="M653.54,297.11s-60.4.44-64.31,1.37c-.84.19-1.7,3.9,0,4.24s64.31.85,64.31.85Z" transform="translate(-41.97 -30.48)" fill="#fff"/>
          <path id="Trazado_180884" data-name="Trazado 180884" d="M551.35,264.68v-9.65H605.3l.17,9.65Z" fill="#ebebeb"/>
          <path id="Trazado_180885" data-name="Trazado 180885" d="M647.29,287.09s-47.85.44-50.94,1.36c-.67.2-1.35,3.91,0,4.25s50.94.85,50.94.85Z" transform="translate(-41.97 -30.48)" fill="#fafafa"/>
          <path id="Trazado_180886" data-name="Trazado 180886" d="M551.11,255.15v-9.64h53.94l.18,9.64Z" fill="#e0e0e0"/>
          <path id="Trazado_180887" data-name="Trazado 180887" d="M647.05,277.56s-47.85.44-50.94,1.37c-.67.19-1.35,3.9,0,4.24s50.94.85,50.94.85Z" transform="translate(-41.97 -30.48)" fill="#fafafa"/>
          <rect id="Rectángulo_39535" data-name="Rectángulo 39535" width="13.67" height="63.68" transform="translate(617.89 24.1)" fill="#f5f5f5"/>
          <path id="Trazado_180888" data-name="Trazado 180888" d="M669.67,103a2.7,2.7,0,1,1-.791-1.919A2.71,2.71,0,0,1,669.67,103Z" transform="translate(-41.97 -30.48)" fill="#e0e0e0"/>
          <rect id="Rectángulo_39536" data-name="Rectángulo 39536" width="4.18" height="26.03" transform="translate(622.79 40.97)" fill="#e0e0e0"/>
          <rect id="Rectángulo_39537" data-name="Rectángulo 39537" width="13.66" height="63.68" transform="translate(604.01 24.1)" fill="#ebebeb"/>
          <path id="Trazado_180889" data-name="Trazado 180889" d="M655.79,103a2.7,2.7,0,1,1-.791-1.919A2.71,2.71,0,0,1,655.79,103Z" transform="translate(-41.97 -30.48)" fill="#fafafa"/>
          <rect id="Rectángulo_39538" data-name="Rectángulo 39538" width="4.18" height="26.03" transform="translate(608.91 40.97)" fill="#fafafa"/>
          <rect id="Rectángulo_39539" data-name="Rectángulo 39539" width="13.66" height="63.68" transform="translate(590.79 24.1)" fill="#e0e0e0"/>
          <path id="Trazado_180890" data-name="Trazado 180890" d="M642.57,103a2.7,2.7,0,1,1-.791-1.919A2.71,2.71,0,0,1,642.57,103Z" transform="translate(-41.97 -30.48)" fill="#fafafa"/>
          <rect id="Rectángulo_39540" data-name="Rectángulo 39540" width="4.18" height="26.03" transform="translate(595.69 40.97)" fill="#fafafa"/>
          <path id="Trazado_180891" data-name="Trazado 180891" d="M445.68,418.2v23.47h-3.92v2.54h3.92v15.71h73.23V445.63h-5.42v-3.12h5.42v-4.66h2.41v-2.13h-2.86V418.2Z" transform="translate(-41.97 -30.48)" fill="#f5f5f5"/>
          <path id="Trazado_180892" data-name="Trazado 180892" d="M457.5,387.79v41.39h19.44V414.89h-5.42v-2.85l5.42.09v-4.67h2.46l-.04-2.41-2.87-.07V387.72Z" fill="#e0e0e0"/>
          <path id="Trazado_180893" data-name="Trazado 180893" d="M500.85,443.88c0,.14-13.25.26-29.6.26s-29.59-.12-29.59-.26,13.24-.26,29.59-.26S500.85,443.73,500.85,443.88Z" transform="translate(-41.97 -30.48)" fill="#e0e0e0"/>
          <path id="Trazado_180894" data-name="Trazado 180894" d="M500.85,441.49c0,.15-13.25.26-29.6.26s-29.59-.11-29.59-.26,13.24-.26,29.59-.26S500.85,441.35,500.85,441.49Z" transform="translate(-41.97 -30.48)" fill="#e0e0e0"/>
          <path id="Trazado_180895" data-name="Trazado 180895" d="M504.65,435.08c0,.14-13.25.26-29.59.26s-29.6-.12-29.6-.26,13.25-.26,29.6-.26S504.65,434.93,504.65,435.08Z" transform="translate(-41.97 -30.48)" fill="#e0e0e0"/>
          <path id="Trazado_180896" data-name="Trazado 180896" d="M505,452.56c0,.14-13.25.26-29.6.26s-29.6-.12-29.6-.26,13.25-.26,29.6-.26S505,452.42,505,452.56Z" transform="translate(-41.97 -30.48)" fill="#e0e0e0"/>
          <path id="Trazado_180897" data-name="Trazado 180897" d="M245.56,451c-1.54-1.32-5-5.5-2.33-10.37,1-1.79,3-2.67,4.9-3.45a19.929,19.929,0,0,0,5.38-2.79c2.91-2.48,3.72-6.59,5.65-9.9,2.22-3.8,6.36-6.64,10.74-6.44,5,.23,9.2,4.32,11.09,9s2,9.85,2,14.89c0,2.79-.1,5.94-2.15,7.82-1.88,1.73-4.72,1.76-7.28,1.68l-27.4-.84" transform="translate(-41.97 -30.48)" fill="#f5f5f5"/>
          <path id="Trazado_180898" data-name="Trazado 180898" d="M298,375.65H226l13,77.39a8.64,8.64,0,0,0,6.15,6.89l.25.07c.22.06.42.13.64.17a10.163,10.163,0,0,0,1.47.17v.07l.35-.06h32.12a9.291,9.291,0,0,0,1.76-.17,8.67,8.67,0,0,0,7.29-7.57l6.26-53.32.28-2.12h0l2.48-21.12ZM284.37,425H277l.74-22.46h8.57ZM287,402.55h7.08L291.45,425h-6.36Zm-21.13,47.37-.45-19.52h10.65l-.65,19.52Zm-11.5-19.52h10.35l.45,19.52h-9.28Zm.8,19.52h-8.68c-.82-5.27-1.89-12.12-3.05-19.52h10.21ZM254,425l-1.74-22.46h11.87l.51,22.46Zm11.36,0-.52-22.46H277L276.26,425Zm-.64-27.84-.48-20.81h13.69l-.69,20.81Zm-.72,0H251.79l-1.62-20.81h13.3Zm-12.88,0H238.2l-1.28-8c-1.34-8.41-1.85-11.58-2.13-12.77h14.66Zm.42,5.38L253.23,425H242.59c-.36-2.27-.72-4.58-1.08-6.89-.84-5.3-1.67-10.6-2.46-15.57ZM241.87,425h-7l-3.76-22.46h7.18C239.43,409.49,240.64,417.22,241.87,425Zm.84,5.39c1.06,6.75,2.11,13.41,3.06,19.52h-6.68l-3.27-19.52Zm33.44,19.52.65-19.52h7.11l-1.67,19.52Zm1.75-52.75.69-20.81h9.94l-1.78,20.81Zm-43.79-20.81c.29,1.51,1.6,9.69,3.36,20.81h-7.23l-3.49-20.81Zm54.42,73.56H283l1.67-19.52h6.19Zm6.19-52.75h-7.25l1.78-20.81h7.91Z" transform="translate(-41.97 -30.48)" fill="#e0e0e0"/>
          <path id="Trazado_180899" data-name="Trazado 180899" d="M197.25,40.2" transform="translate(-41.97 -30.48)" fill="#ebebeb"/>
          <rect id="Rectángulo_39541" data-name="Rectángulo 39541" width="35.62" height="70.6" transform="translate(0 74.96)" fill="#ebebeb"/>
          <rect id="Rectángulo_39542" data-name="Rectángulo 39542" width="38.48" height="70.6" transform="translate(36.99 74.96)" fill="#ebebeb"/>
          <rect id="Rectángulo_39543" data-name="Rectángulo 39543" width="38.48" height="68.21" transform="translate(36.99 150.49)" fill="#ebebeb"/>
          <path id="Trazado_180900" data-name="Trazado 180900" d="M80.4,73.74h40.53V11.11h1.37V73.74h32.98V9.72H80.4Z" fill="#ebebeb"/>
          <rect id="Rectángulo_39544" data-name="Rectángulo 39544" width="32.98" height="70.6" transform="translate(122.3 74.96)" fill="#ebebeb"/>
          <rect id="Rectángulo_39545" data-name="Rectángulo 39545" width="32.98" height="68.21" transform="translate(122.3 150.49)" fill="#ebebeb"/>
          <rect id="Rectángulo_39546" data-name="Rectángulo 39546" width="35.62" height="68.21" transform="translate(0 150.49)" fill="#ebebeb"/>
          <rect id="Rectángulo_39547" data-name="Rectángulo 39547" width="40.53" height="68.21" transform="translate(80.4 150.49)" fill="#ebebeb"/>
          <rect id="Rectángulo_39548" data-name="Rectángulo 39548" width="35.62" height="61.47" transform="translate(0 219.93)" fill="#ebebeb"/>
          <rect id="Rectángulo_39549" data-name="Rectángulo 39549" width="32.98" height="61.47" transform="translate(122.3 219.93)" fill="#ebebeb"/>
          <path id="Trazado_180901" data-name="Trazado 180901" d="M35.62,73.74V11.11h1.37V73.74H75.47V9.72H0V73.74Z" fill="#ebebeb"/>
          <rect id="Rectángulo_39550" data-name="Rectángulo 39550" width="40.53" height="61.47" transform="translate(80.4 219.93)" fill="#ebebeb"/>
          <rect id="Rectángulo_39551" data-name="Rectángulo 39551" width="38.48" height="61.47" transform="translate(36.99 219.93)" fill="#ebebeb"/>
          <rect id="Rectángulo_39552" data-name="Rectángulo 39552" width="40.53" height="70.6" transform="translate(80.4 74.96)" fill="#ebebeb"/>
          <path id="Trazado_180902" data-name="Trazado 180902" d="M99.42,388.67a20.33,20.33,0,0,1,12.65-1.54c2.29.38,4.68,1.07,6.25,2.79s1.85,4.75.06,6.23a5.91,5.91,0,0,1-3.94,1c-3.34,0-7-.62-9.72,1.39-1.52,1.14-2.54,3-4.36,3.62a4.32,4.32,0,0,1-4.74-2.11,7.38,7.38,0,0,1-.53-5.43,8.29,8.29,0,0,1,4.33-5.95Z" transform="translate(-41.97 -30.48)" fill="#ebebeb"/>
          <path id="Trazado_180903" data-name="Trazado 180903" d="M90.61,371.66c2.36,3.36,6.93,2.24,9,.19s3-5,3.83-7.85c1.86-6.48,3.74-13.27,2.35-19.86a11,11,0,0,0-2.53-5.4,5.8,5.8,0,0,0-5.47-1.82c-2.3.61-3.73,2.87-4.77,5a47.44,47.44,0,0,0-4.68,20.31c0,3.27.38,6.71,2.22,9.41" transform="translate(-41.97 -30.48)" fill="#ebebeb"/>
          <path id="Trazado_180904" data-name="Trazado 180904" d="M84.16,376.48c2.55-3,3-7.45,1.9-11.25a21.71,21.71,0,0,0-6.66-9.66,35.92,35.92,0,0,0-11.93-7,12.6,12.6,0,0,0-5.37-.91,5.61,5.61,0,0,0-4.5,2.72c-1.25,2.4-.05,5.3,1.25,7.67a90.505,90.505,0,0,0,7.84,11.93c2.34,3,5,6,8.61,7.38s7.3,1.21,9.2-1.27" transform="translate(-41.97 -30.48)" fill="#ebebeb"/>
          <path id="Trazado_180905" data-name="Trazado 180905" d="M90.45,422.32a6.57,6.57,0,0,0,.22-1.52c.11-1.11.24-2.51.4-4.17a61.131,61.131,0,0,1,.94-6.11,46.269,46.269,0,0,1,2.22-7.21,26.64,26.64,0,0,1,3.68-6.52,13.621,13.621,0,0,1,4.66-3.87,13,13,0,0,1,3.92-1.22,7.688,7.688,0,0,0,1.52-.22,6.9,6.9,0,0,0-1.55,0,11.931,11.931,0,0,0-4.09,1.07,13.82,13.82,0,0,0-4.91,3.9,25.83,25.83,0,0,0-3.81,6.66,42.841,42.841,0,0,0-2.21,7.33,52.2,52.2,0,0,0-.81,6.18c-.13,1.77-.18,3.2-.21,4.19a7.689,7.689,0,0,0,.03,1.51Z" transform="translate(-41.97 -30.48)" fill="#e0e0e0"/>
          <path id="Trazado_180906" data-name="Trazado 180906" d="M90.74,419.12a2.831,2.831,0,0,0,0-.71v-2c0-1.76,0-4.31.09-7.45.15-6.28.69-13,1.74-22.57,1-9,2.32-19.39,3.72-26.17.3-1.54.6-2.93.88-4.15s.51-2.26.73-3.11.35-1.45.47-2a2.75,2.75,0,0,0,.13-.7,2.679,2.679,0,0,0-.25.66c-.15.51-.35,1.16-.59,1.94s-.52,1.89-.83,3.1-.65,2.6-1,4.14A230.067,230.067,0,0,0,92,384.39c-1,9.55-1.52,18.25-1.56,24.55,0,3.14,0,5.69.11,7.45,0,.82.09,1.49.13,2A3,3,0,0,0,90.74,419.12Z" transform="translate(-41.97 -30.48)" fill="#e0e0e0"/>
          <path id="Trazado_180907" data-name="Trazado 180907" d="M90.78,402.35a12.33,12.33,0,0,0,0-2.12c-.08-1.36-.27-3.32-.65-5.73a76.81,76.81,0,0,0-1.86-8.35,69,69,0,0,0-3.5-9.88,52.61,52.61,0,0,0-10.25-16,26.378,26.378,0,0,0-2.41-2.24c-.37-.32-.7-.63-1-.87l-.94-.65a13.646,13.646,0,0,0-1.78-1.14,63.652,63.652,0,0,1,5.84,5.21,55.7,55.7,0,0,1,10,15.91,77.609,77.609,0,0,1,3.51,9.79c.91,3.07,1.52,5.89,2,8.27s.69,4.32.84,5.67a15,15,0,0,0,.2,2.13Z" transform="translate(-41.97 -30.48)" fill="#e0e0e0"/>
          <path id="Trazado_180908" data-name="Trazado 180908" d="M32.6,401.45l1.68,23.03H63.86l1.68-23.03Z" fill="#e0e0e0"/>
          <rect id="Rectángulo_39553" data-name="Rectángulo 39553" width="39.33" height="9.08" transform="translate(29.75 392.38)" fill="#e0e0e0"/>
          <path id="Trazado_180909" data-name="Trazado 180909" d="M29.75,423.6v2.51H68.42V423.6Z" fill="#ebebeb"/>
          <path id="Trazado_180910" data-name="Trazado 180910" d="M33.41,430.54l-1.82-4.43H67.02l-2.12,4.43Z" fill="#e0e0e0"/>
          <path id="Trazado_180911" data-name="Trazado 180911" d="M107,439.46a.929.929,0,0,1-.13.21l-.45.59-1.72,2.2-.08.1-.07-.1-4.23-5.86h.24l-4.17,5.9-.13.19-.14-.18-5-5.88h.29l-.27.34c-1.54,1.92-3,3.78-4.42,5.54l-.15.19-.14-.2-4.17-5.9h.24l-5.13,5.85-.09.1-.07-.12c-.68-1.13-1.22-2-1.61-2.7l-.4-.73a1.34,1.34,0,0,1-.13-.25,1.41,1.41,0,0,1,.17.23l.46.69,1.69,2.65h-.16c1.31-1.55,3-3.56,5-5.93l.13-.15.11.17,4.21,5.87H86.4l4.41-5.55.27-.34.14-.18.14.18,4.93,5.89h-.27c1.52-2.12,2.93-4.1,4.21-5.87l.12-.17.12.17,4.14,5.92h-.15l1.8-2.15.48-.55A1.15,1.15,0,0,1,107,439.46Z" transform="translate(-41.97 -30.48)" fill="#f5f5f5"/>
          <path id="Trazado_180912" data-name="Trazado 180912" d="M107.92,431.78c0,.1-7.41.19-16.55.19s-16.55-.09-16.55-.19,7.41-.18,16.55-.18S107.92,431.68,107.92,431.78Z" transform="translate(-41.97 -30.48)" fill="#f5f5f5"/>
          <path id="Trazado_180913" data-name="Trazado 180913" d="M109.42,456.84c0,.1-8.06.19-18,.19s-18-.09-18-.19,8-.18,18-.18S109.42,456.74,109.42,456.84Z" transform="translate(-41.97 -30.48)" fill="#f5f5f5"/>
        </g>
        <g id="Plant">
          <path id="Trazado_180914" data-name="Trazado 180914" d="M600,375.25c-.09.11-.83-.34-1.65-1s-1.42-1.29-1.33-1.4.83.33,1.65,1S600.12,375.14,600,375.25Z" transform="translate(-41.97 -30.48)" fill="#263238"/>
          <path id="Trazado_180915" data-name="Trazado 180915" d="M622.53,341.63c.13-3.14.22-6.36-.77-9.35s-3.29-5.72-6.37-6.36c-3.52-.73-7.12,1.49-9.08,4.49s-2.65,6.64-3.23,10.18a359.452,359.452,0,0,0-4.41,73.92l14.38,2C619.36,390.72,621.38,368.17,622.53,341.63Z" transform="translate(-41.97 -30.48)" fill="#455a64"/>
          <path id="Trazado_180916" data-name="Trazado 180916" d="M613.39,325.81a.7.7,0,0,1-.06.23c-.07.17-.14.39-.24.65-.23.61-.55,1.44-1,2.48-.2.54-.47,1.13-.68,1.8s-.45,1.4-.7,2.18-.52,1.61-.8,2.5-.49,1.85-.75,2.85a125.5,125.5,0,0,0-2.77,14.23c-.78,5.41-1.29,11.4-1.69,17.69-.74,12.6-.85,24-1.18,32.3-.15,4.14-.29,7.48-.45,9.79-.08,1.12-.14,2-.18,2.66a2.36,2.36,0,0,1-.06.69.923.923,0,0,1,0,.24,1,1,0,0,1,0-.24v-.7c0-.65,0-1.54.08-2.66.1-2.31.18-5.66.29-9.79.23-8.27.29-19.7,1-32.32.41-6.31.93-12.31,1.74-17.73a119.373,119.373,0,0,1,2.89-14.25c.28-1,.54-2,.78-2.86s.58-1.71.85-2.49.51-1.5.74-2.17.51-1.25.73-1.79c.44-1,.79-1.85,1-2.45l.29-.63C613.35,325.87,613.38,325.8,613.39,325.81Z" transform="translate(-41.97 -30.48)" fill="#263238"/>
          <path id="Trazado_180917" data-name="Trazado 180917" d="M614.72,325.82a10,10,0,0,1,1.76,3,22,22,0,0,1,1.31,9.3c-.38,8-1.09,18.9-2,31s-2,23-2.85,30.92c-.42,3.95-.79,7.15-1.06,9.35-.14,1.07-.25,1.91-.33,2.54a3.552,3.552,0,0,1-.1.66.628.628,0,0,1,0,.22.679.679,0,0,1,0-.23q0-.27,0-.66c.06-.63.13-1.48.23-2.55.22-2.26.52-5.45.9-9.36.75-7.91,1.75-18.84,2.7-30.93s1.72-23,2.19-30.95a22.7,22.7,0,0,0-1.13-9.22,18.342,18.342,0,0,0-1.62-3.09Z" transform="translate(-41.97 -30.48)" fill="#263238"/>
          <path id="Trazado_180918" data-name="Trazado 180918" d="M624.69,363a15.8,15.8,0,0,1-5.27-1.89A15.24,15.24,0,0,1,624.69,363Z" transform="translate(-41.97 -30.48)" fill="#263238"/>
          <path id="Trazado_180919" data-name="Trazado 180919" d="M626.43,348.38a9.34,9.34,0,0,1-2.6,1.44,8.84,8.84,0,0,1-2.8,1,17,17,0,0,1,5.4-2.41Z" transform="translate(-41.97 -30.48)" fill="#263238"/>
          <path id="Trazado_180920" data-name="Trazado 180920" d="M625.53,336.41a4.4,4.4,0,0,1-2.15.11,4.63,4.63,0,0,1-2.1-.4,9,9,0,0,1,4.25.29Z" transform="translate(-41.97 -30.48)" fill="#263238"/>
          <path id="Trazado_180921" data-name="Trazado 180921" d="M610.69,328.75c-.12.08-.75-.71-1.41-1.75a6.142,6.142,0,0,1-1-2,5.9,5.9,0,0,1,1.41,1.76,5.18,5.18,0,0,1,1,1.99Z" transform="translate(-41.97 -30.48)" fill="#263238"/>
          <path id="Trazado_180922" data-name="Trazado 180922" d="M605.79,336a4.35,4.35,0,0,1-2,.22,4.4,4.4,0,0,1-2-.3c0-.15.92-.24,2-.22a4.4,4.4,0,0,1,2,.3Z" transform="translate(-41.97 -30.48)" fill="#263238"/>
          <path id="Trazado_180923" data-name="Trazado 180923" d="M602.27,350.45c-.06.14-1-.13-2.15-.59a5.937,5.937,0,0,1-2-1.06,5,5,0,0,1,2.15.59C601.44,349.85,602.32,350.32,602.27,350.45Z" transform="translate(-41.97 -30.48)" fill="#263238"/>
          <path id="Trazado_180924" data-name="Trazado 180924" d="M601.89,362.62a3.982,3.982,0,0,1-1.83.65c-1.04.22-1.91.28-1.93.14s.79-.43,1.83-.64S601.86,362.48,601.89,362.62Z" transform="translate(-41.97 -30.48)" fill="#263238"/>
          <path id="Trazado_180925" data-name="Trazado 180925" d="M600.23,382.53a4.341,4.341,0,0,1-1.94.61c-1.1.2-2,.24-2,.1a4.342,4.342,0,0,1,1.94-.61C599.33,382.43,600.21,382.39,600.23,382.53Z" transform="translate(-41.97 -30.48)" fill="#263238"/>
          <path id="Trazado_180926" data-name="Trazado 180926" d="M599.13,393.52c.07.12-.66.64-1.62,1.15s-1.79.81-1.86.69.66-.64,1.62-1.15S599.07,393.39,599.13,393.52Z" transform="translate(-41.97 -30.48)" fill="#263238"/>
          <path id="Trazado_180927" data-name="Trazado 180927" d="M608.11,406c-.13.07-.76-.8-1.42-1.95a5.859,5.859,0,0,1-1-2.2c.12-.07.75.8,1.41,2a5.79,5.79,0,0,1,1.01,2.15Z" transform="translate(-41.97 -30.48)" fill="#263238"/>
          <path id="Trazado_180928" data-name="Trazado 180928" d="M610.7,385.26c.09.11-.61,1-1.58,1.9s-1.83,1.64-1.93,1.54.61-.95,1.57-1.9S610.6,385.16,610.7,385.26Z" transform="translate(-41.97 -30.48)" fill="#263238"/>
          <path id="Trazado_180929" data-name="Trazado 180929" d="M610.12,374.39c-.1.1-.75-.44-1.46-1.2s-1.18-1.45-1.08-1.54.76.44,1.46,1.19S610.23,374.29,610.12,374.39Z" transform="translate(-41.97 -30.48)" fill="#263238"/>
          <path id="Trazado_180930" data-name="Trazado 180930" d="M611.9,360.49c.11.1-.48.93-1.31,1.85s-1.59,1.6-1.69,1.51.48-.93,1.31-1.85S611.8,360.4,611.9,360.49Z" transform="translate(-41.97 -30.48)" fill="#263238"/>
          <path id="Trazado_180931" data-name="Trazado 180931" d="M612.9,350.41c-.1.1-.91-.54-1.82-1.44s-1.57-1.7-1.47-1.8.92.54,1.83,1.44S613,350.31,612.9,350.41Z" transform="translate(-41.97 -30.48)" fill="#263238"/>
          <path id="Trazado_180932" data-name="Trazado 180932" d="M614.87,336.78a5.11,5.11,0,0,1-.92,2c-.62,1.05-1.23,1.85-1.35,1.78a4.642,4.642,0,0,1,.91-2C614.14,337.56,614.75,336.71,614.87,336.78Z" transform="translate(-41.97 -30.48)" fill="#263238"/>
          <path id="Trazado_180933" data-name="Trazado 180933" d="M618.58,324.15a4.941,4.941,0,0,1-.82,2c-.57,1.06-1.14,1.86-1.26,1.8a5,5,0,0,1,.81-2.05C617.89,324.88,618.45,324.08,618.58,324.15Z" transform="translate(-41.97 -30.48)" fill="#263238"/>
          <path id="Trazado_180934" data-name="Trazado 180934" d="M622.78,329.88c.06.13-.52.53-1.29.9s-1.44.57-1.5.44.51-.53,1.28-.9S622.72,329.76,622.78,329.88Z" transform="translate(-41.97 -30.48)" fill="#263238"/>
          <path id="Trazado_180935" data-name="Trazado 180935" d="M622.88,375.25a5.92,5.92,0,0,1-2.81-.68,5.789,5.789,0,0,1-2.44-1.56,14.658,14.658,0,0,1,2.64,1.09,14.387,14.387,0,0,1,2.61,1.15Z" transform="translate(-41.97 -30.48)" fill="#263238"/>
          <path id="Trazado_180936" data-name="Trazado 180936" d="M621.16,384.86a4.353,4.353,0,0,1-1.93.63c-1.09.21-2,.27-2,.13a4.293,4.293,0,0,1,1.93-.63A4.191,4.191,0,0,1,621.16,384.86Z" transform="translate(-41.97 -30.48)" fill="#263238"/>
          <path id="Trazado_180937" data-name="Trazado 180937" d="M619.05,401.34a5.711,5.711,0,0,1-2.19-1.93,5.6,5.6,0,0,1-1.37-2.57,17.528,17.528,0,0,1,1.77,2.25,15.858,15.858,0,0,1,1.79,2.25Z" transform="translate(-41.97 -30.48)" fill="#263238"/>
          <path id="Trazado_180938" data-name="Trazado 180938" d="M595.94,408.87c-.09-.11.49-.76,1.3-1.45s1.55-1.17,1.64-1.07-.49.76-1.3,1.46S596,409,595.94,408.87Z" transform="translate(-41.97 -30.48)" fill="#263238"/>
          <path id="Trazado_180939" data-name="Trazado 180939" d="M589.29,372.91c-.93-2.92-2.69-6.33-5.76-6.37a5.1,5.1,0,0,0-4.31,2.88,10.68,10.68,0,0,0-1.17,5.29,137.759,137.759,0,0,0,6.6,38.3h11.22a133,133,0,0,0-6.58-40.1Z" transform="translate(-41.97 -30.48)" fill="#455a64"/>
          <path id="Trazado_180940" data-name="Trazado 180940" d="M569,354.52c-1.57-6.28-6.25-9.67-11.69-10-5,.87-6.88,5.76-7.47,10.76s1,10,2.49,14.79q7.39,23.1,14.78,46.22l14-1.53C576.65,394.13,574.11,375,569,354.52Z" transform="translate(-41.97 -30.48)" fill="#455a64"/>
          <path id="Trazado_180941" data-name="Trazado 180941" d="M583.53,366.54a11.809,11.809,0,0,0-.95,1.59,10.48,10.48,0,0,0-.52,5c.21,2.13.46,4.7.82,7.52s.87,5.91,1.5,9.13c1.27,6.45,2.7,12.24,3.61,16.46.46,2.11.81,3.82,1,5,.1.54.18,1,.24,1.37a2.147,2.147,0,0,1,0,.48,1.7,1.7,0,0,1-.15-.46l-.33-1.35-1.19-5c-1-4.19-2.48-10-3.75-16.44-.64-3.23-1.13-6.33-1.47-9.17-.18-1.42-.3-2.77-.42-4s-.24-2.43-.3-3.52a10.24,10.24,0,0,1,.71-5.07,4.541,4.541,0,0,1,1.2-1.54Z" transform="translate(-41.97 -30.48)" fill="#263238"/>
          <path id="Trazado_180942" data-name="Trazado 180942" d="M557.5,344.14a18.1,18.1,0,0,0-1.68,2.26,16,16,0,0,0-2.13,7.31A33.849,33.849,0,0,0,555.42,365c1.23,4.15,2.57,8.71,4,13.5l7.13,24.5c.88,3.12,1.6,5.65,2.11,7.47l.55,2a3.938,3.938,0,0,1,.16.72,3.125,3.125,0,0,1-.26-.69l-.64-2c-.55-1.8-1.32-4.32-2.27-7.41l-7.29-24.53c-1.4-4.8-2.73-9.36-3.95-13.52a33.49,33.49,0,0,1-1.63-11.4,15.591,15.591,0,0,1,2.32-7.39,8.641,8.641,0,0,1,1.85-2.11Z" transform="translate(-41.97 -30.48)" fill="#263238"/>
          <path id="Trazado_180943" data-name="Trazado 180943" d="M578,413.28a4.586,4.586,0,0,1-.31-.67c-.19-.45-.48-1.1-.8-2-.66-1.72-1.52-4.25-2.4-7.42s-1.76-7-2.6-11.27-1.7-9-2.63-13.89a136.937,136.937,0,0,0-3.31-13.72,77.007,77.007,0,0,0-4.07-10.76,57.291,57.291,0,0,0-3.77-6.79c-.48-.78-.91-1.34-1.17-1.75a5.225,5.225,0,0,1-.4-.63,3.252,3.252,0,0,1,.48.57c.29.39.75.93,1.26,1.7a50.775,50.775,0,0,1,3.92,6.74,72.6,72.6,0,0,1,4.2,10.78A136.077,136.077,0,0,1,569.78,378c.92,4.93,1.79,9.62,2.59,13.9s1.65,8.09,2.49,11.26,1.63,5.71,2.24,7.45c.29.87.55,1.53.7,2a3.646,3.646,0,0,1,.2.67Z" transform="translate(-41.97 -30.48)" fill="#263238"/>
          <path id="Trazado_180944" data-name="Trazado 180944" d="M552.57,367.77c0,.14-.72.44-1.69.67s-1.79.32-1.82.18.73-.44,1.7-.67S552.54,367.63,552.57,367.77Z" transform="translate(-41.97 -30.48)" fill="#263238"/>
          <path id="Trazado_180945" data-name="Trazado 180945" d="M551.09,358.24a17.48,17.48,0,0,1-4.72.18,4.83,4.83,0,0,1,2.35-.44A4.68,4.68,0,0,1,551.09,358.24Z" transform="translate(-41.97 -30.48)" fill="#263238"/>
          <path id="Trazado_180946" data-name="Trazado 180946" d="M552.67,349.53c-.09.11-.85-.38-1.7-1.1s-1.45-1.38-1.36-1.49.85.38,1.7,1.1S552.76,349.42,552.67,349.53Z" transform="translate(-41.97 -30.48)" fill="#263238"/>
          <path id="Trazado_180947" data-name="Trazado 180947" d="M556.93,341.47c.14,0,.1.71.08,1.53s0,1.5-.17,1.53-.37-.66-.34-1.54S556.79,341.44,556.93,341.47Z" transform="translate(-41.97 -30.48)" fill="#263238"/>
          <path id="Trazado_180948" data-name="Trazado 180948" d="M565.64,345.27c.11.08-.23.77-.77,1.54s-1.06,1.32-1.18,1.24.22-.77.76-1.54S565.52,345.19,565.64,345.27Z" transform="translate(-41.97 -30.48)" fill="#263238"/>
          <path id="Trazado_180949" data-name="Trazado 180949" d="M571.28,355.08c.06.14-.66.55-1.61.94s-1.76.59-1.81.46.67-.55,1.62-.94A4.22,4.22,0,0,1,571.28,355.08Z" transform="translate(-41.97 -30.48)" fill="#263238"/>
          <path id="Trazado_180950" data-name="Trazado 180950" d="M574.71,365.18a6.39,6.39,0,0,1-4.63,1.05q2.289-.636,4.63-1.05Z" transform="translate(-41.97 -30.48)" fill="#263238"/>
          <path id="Trazado_180951" data-name="Trazado 180951" d="M559,362.31c-.14,0,0-.74.21-1.55s.58-1.45.71-1.41,0,.74-.22,1.56S559.11,362.36,559,362.31Z" transform="translate(-41.97 -30.48)" fill="#263238"/>
          <path id="Trazado_180952" data-name="Trazado 180952" d="M561.17,375a4.85,4.85,0,0,1,.63-2.1,5.051,5.051,0,0,1,1.11-1.89,4.88,4.88,0,0,1-.64,2.1C561.79,374.2,561.3,375.05,561.17,375Z" transform="translate(-41.97 -30.48)" fill="#263238"/>
          <path id="Trazado_180953" data-name="Trazado 180953" d="M555.75,378.46c-.06.14-.94-.1-2-.44s-1.94-.64-1.91-.78a3.766,3.766,0,0,1,2.06.29C554.96,377.87,555.8,378.34,555.75,378.46Z" transform="translate(-41.97 -30.48)" fill="#263238"/>
          <path id="Trazado_180954" data-name="Trazado 180954" d="M558.87,388.8c.09.12-.51.69-1.33,1.27s-1.55,1-1.64.85.52-.68,1.34-1.27S558.79,388.69,558.87,388.8Z" transform="translate(-41.97 -30.48)" fill="#263238"/>
          <path id="Trazado_180955" data-name="Trazado 180955" d="M561.38,399.11c0,.14-.71.43-1.65.66s-1.74.31-1.78.17.71-.43,1.66-.66A3.6,3.6,0,0,1,561.38,399.11Z" transform="translate(-41.97 -30.48)" fill="#263238"/>
          <path id="Trazado_180956" data-name="Trazado 180956" d="M575,373.79c.07.12-.56.63-1.48,1s-1.73.39-1.76.25.7-.4,1.57-.73S574.92,373.67,575,373.79Z" transform="translate(-41.97 -30.48)" fill="#263238"/>
          <path id="Trazado_180957" data-name="Trazado 180957" d="M576.93,389.83c-.06.13-.81-.1-1.68-.51s-1.53-.85-1.47-1,.82.09,1.69.5S577,389.7,576.93,389.83Z" transform="translate(-41.97 -30.48)" fill="#263238"/>
          <path id="Trazado_180958" data-name="Trazado 180958" d="M580.37,401.3a5.32,5.32,0,0,1-2.23-.59c-1.18-.46-2.09-.95-2-1.08a5.429,5.429,0,0,1,2.22.6,5.37,5.37,0,0,1,2.01,1.07Z" transform="translate(-41.97 -30.48)" fill="#263238"/>
          <path id="Trazado_180959" data-name="Trazado 180959" d="M561.93,410.29c-.07-.13.85-.74,1.91-1.58a10.24,10.24,0,0,1,2-1.48c.11.09-.56,1-1.67,1.88a4.63,4.63,0,0,1-2.24,1.18Z" transform="translate(-41.97 -30.48)" fill="#263238"/>
          <path id="Trazado_180960" data-name="Trazado 180960" d="M571,404.46c-.14,0-.34-.76-.69-1.65s-.71-1.61-.6-1.69.71.53,1.08,1.5S571.14,404.45,571,404.46Z" transform="translate(-41.97 -30.48)" fill="#263238"/>
          <path id="Trazado_180961" data-name="Trazado 180961" d="M568.6,390.66c-.08.11-.67-.17-1.31-.63s-1.09-.92-1-1,.67.17,1.31.63S568.68,390.54,568.6,390.66Z" transform="translate(-41.97 -30.48)" fill="#263238"/>
          <path id="Trazado_180962" data-name="Trazado 180962" d="M589.75,369c.08.11-.49.68-1.28,1.26s-1.49,1-1.58.85.49-.68,1.28-1.26A3.714,3.714,0,0,1,589.75,369Z" transform="translate(-41.97 -30.48)" fill="#263238"/>
          <path id="Trazado_180963" data-name="Trazado 180963" d="M592.93,377.74c0,.14-.88.33-2,.21s-1.94-.49-1.9-.62a6.232,6.232,0,0,1,2,.11C592.13,377.55,592.92,377.6,592.93,377.74Z" transform="translate(-41.97 -30.48)" fill="#263238"/>
          <path id="Trazado_180964" data-name="Trazado 180964" d="M579.23,379.7a3.191,3.191,0,0,1-1.86.5c-1.07.07-1.93-.11-1.92-.25s.86-.19,1.88-.26S579.2,379.56,579.23,379.7Z" transform="translate(-41.97 -30.48)" fill="#263238"/>
          <path id="Trazado_180965" data-name="Trazado 180965" d="M580.41,371.46c0,.14-.85.16-1.76-.26s-1.45-1.07-1.35-1.17.73.32,1.56.7S580.43,371.31,580.41,371.46Z" transform="translate(-41.97 -30.48)" fill="#263238"/>
          <path id="Trazado_180966" data-name="Trazado 180966" d="M594.11,387.1c-.08.12-.93-.28-1.91-.9s-1.72-1.22-1.64-1.34.93.29,1.91.9S594.19,387,594.11,387.1Z" transform="translate(-41.97 -30.48)" fill="#263238"/>
          <rect id="Rectángulo_39554" data-name="Rectángulo 39554" width="73.09" height="12.96" transform="translate(512.48 381.07)" fill="#d23636"/>
          <path id="Trazado_180967" data-name="Trazado 180967" d="M517.94,391.45l8.88,38.72h43.57l9.72-38.72Z" fill="#ff5151"/>
          <path id="Trazado_180968" data-name="Trazado 180968" d="M627.5,424.52c0,.14-16.49.26-36.82.26s-36.83-.12-36.83-.26,16.49-.26,36.83-.26S627.5,424.38,627.5,424.52Z" transform="translate(-41.97 -30.48)" fill="#263238"/>
          <path id="Trazado_180969" data-name="Trazado 180969" d="M586.85,380c-.12.08-.62-.51-1.12-1.3s-.8-1.5-.68-1.57.62.5,1.12,1.3S587,379.91,586.85,380Z" transform="translate(-41.97 -30.48)" fill="#263238"/>
          <path id="Trazado_180970" data-name="Trazado 180970" d="M586.88,390.4c-.14,0,0-.92.38-2s.73-1.85.87-1.81a4.2,4.2,0,0,1-.38,2C587.4,389.64,587,390.45,586.88,390.4Z" transform="translate(-41.97 -30.48)" fill="#263238"/>
          <path id="Trazado_180971" data-name="Trazado 180971" d="M590.44,401.35a5.591,5.591,0,0,1-1.22-2,5.312,5.312,0,0,1-.75-2.17c.13-.06.67.81,1.22,1.95a5.33,5.33,0,0,1,.75,2.22Z" transform="translate(-41.97 -30.48)" fill="#263238"/>
          <path id="Trazado_180972" data-name="Trazado 180972" d="M582.72,410.15c-.1-.09.33-.77,1-1.51s1.25-1.27,1.36-1.18-.33.77-1,1.51S582.83,410.24,582.72,410.15Z" transform="translate(-41.97 -30.48)" fill="#263238"/>
          <path id="Trazado_180973" data-name="Trazado 180973" d="M581.1,394.17c0,.14-.72.13-1.57,0s-1.5-.38-1.48-.52.73-.13,1.57,0S581.13,394,581.1,394.17Z" transform="translate(-41.97 -30.48)" fill="#263238"/>
        </g>
        <g id="Device" transform="translate(-5)">
          <path id="Trazado_180974" data-name="Trazado 180974" d="M526.738,311h12.986S511.239,133.87,512.835,83.89L510.82,311Z" transform="translate(-16.657 -30.48)" fill="#e0e0e0"/>
          <path id="Trazado_180975" data-name="Trazado 180975" d="M485.076,30.6s48.535-2.6,47.233,44.82C528.55,212.72,546.834,316,546.834,316H365V35.51Z" transform="translate(-35.927 -30.48)" fill="#ebebeb"/>
          <path id="Trazado_180976" data-name="Trazado 180976" d="M364.223,389.81l126.155-.07c15.171-.006,27.466-10.87,27.466-24.27l-.068-279.36a22.922,22.922,0,0,0-8.069-17.186,29.424,29.424,0,0,0-19.477-7.084l-126.155.07a29.4,29.4,0,0,0-19.429,7.106A22.906,22.906,0,0,0,336.61,86.18l.057,279.36a22.933,22.933,0,0,0,8.076,17.186,29.437,29.437,0,0,0,19.48,7.084Z" transform="translate(-39.679 -30.48)" fill="#455a64"/>
          <path id="Trazado_180977" data-name="Trazado 180977" d="M363.246,71.79H489.153c10.63,0,19.247,7.611,19.247,17l.057,272.67c0,9.389-8.617,17-19.247,17l-125.906.07c-10.63,0-19.247-7.611-19.247-17L344,88.79C344,79.4,352.617,71.79,363.246,71.79Z" transform="translate(-38.702 -30.48)" fill="#ebebeb"/>
          <path id="Trazado_180978" data-name="Trazado 180978" d="M378.358,30.57l120.732,1c-17.707-.73-21.488,5.49-24.4,9.43-5.536,7.55-4.981,16.17,1.347,23.23a25.983,25.983,0,0,0,14.333,7.44H358.081c-7.7-6.67-9.306-13.78-8.163-20.18C352.092,39.36,364.354,30.57,378.358,30.57Z" transform="translate(-37.964 -30.48)" fill="#ebebeb"/>
          <path id="Trazado_180979" data-name="Trazado 180979" d="M498.379,36.17a4.272,4.272,0,0,1-.77-.41,21.129,21.129,0,0,0-2.185-1.14,32.827,32.827,0,0,0-8.921-2.46,35.351,35.351,0,0,0-13.71.65,21.549,21.549,0,0,0-12.646,9.31,18.742,18.742,0,0,0-2.638,14.41,15.765,15.765,0,0,0,3.034,5.88,22,22,0,0,0,4.449,4.14,31.021,31.021,0,0,0,8.05,4.16c2.06.7,3.272.93,3.249,1a5.586,5.586,0,0,1-.872-.16,25.179,25.179,0,0,1-2.5-.65,29.644,29.644,0,0,1-8.231-4.06,22.471,22.471,0,0,1-4.529-4.18,15.973,15.973,0,0,1-3.159-6,18.973,18.973,0,0,1,2.649-14.77,21.988,21.988,0,0,1,13-9.52,35.4,35.4,0,0,1,13.937-.55,30.969,30.969,0,0,1,8.978,2.62,17.665,17.665,0,0,1,2.162,1.24,5.885,5.885,0,0,1,.657.49Z" transform="translate(-23.836 -30.48)" fill="#263238"/>
          <path id="Trazado_180980" data-name="Trazado 180980" d="M498,38.68a15.772,15.772,0,0,1,2.672,1.64,35.672,35.672,0,0,1,6.329,6,34.714,34.714,0,0,1,3.566,5.06,24.9,24.9,0,0,1,2.729,6.67c.645,2.52.385,5.27.5,8.13s.193,5.92.294,9.11c.249,6.39.577,13.38.962,20.89,0,3.77,0,7.64-.068,11.65s0,8.12,0,12.35c0,16.89.408,35.47,1.234,55,1.6,39,4.857,74.19,7.721,99.62,1.472,12.72,2.774,23,3.714,30.09.475,3.54.849,6.29,1.132,8.17q.17,1.4.272,2.13a3.079,3.079,0,0,0,.068.73,3,3,0,0,0-.136-.72c-.136-.48-.181-1.2-.328-2.12-.272-1.89-.679-4.63-1.2-8.16-1.019-7.1-2.378-17.37-3.906-30.08-2.966-25.43-6.295-60.64-7.925-99.64-.826-19.49-1.132-38.07-1.132-55V107.85c0-4,.113-7.89.1-11.63-.374-7.51-.668-14.51-.894-20.9-.1-3.19-.193-6.23-.249-9.11s.17-5.61-.453-8.08a24.491,24.491,0,0,0-2.649-6.62,35.011,35.011,0,0,0-3.5-5.05,37.053,37.053,0,0,0-6.227-6.07,12.015,12.015,0,0,0-1.132-.78,9.7,9.7,0,0,0-.815-.53A7.727,7.727,0,0,1,498,38.68Z" transform="translate(-18.351 -30.48)" fill="#263238"/>
          <path id="Trazado_180981" data-name="Trazado 180981" d="M511.052,241.87S509.467,352,499.5,368.07l-175.664-2,3.578-13.23L511.109,153.38Z" transform="translate(-41.366 -30.48)" fill="#e0e0e0"/>
          <path id="Trazado_180982" data-name="Trazado 180982" d="M511.618,88.72S508.47,332.8,490.741,354.15H319.56S358.947,171,347.23,88.79Z" transform="translate(-41.932 -30.48)" fill="#f5f5f5"/>
          <path id="Trazado_180983" data-name="Trazado 180983" d="M513.1,88.72s-3.147,244.08-20.877,265.43H319.56s27.455-180.38,27.455-261.44" transform="translate(-41.932 -30.48)" fill="#fafafa"/>
          <path id="Trazado_180984" data-name="Trazado 180984" d="M347.053,92.71v5.1c0,1.67,0,3.76-.1,6.22s-.057,5.31-.238,8.52c-.487,12.85-1.642,31.53-3.691,54.88-4.223,46.69-12.012,112-23.1,186.76l-.283-.29H492.262l-.226.1a23.074,23.074,0,0,0,3.125-6.45c.725-2.27,1.37-4.55,1.891-6.85,1.132-4.59,1.913-9.19,2.649-13.75,1.449-9.13,2.5-18.14,3.4-27,1.8-17.67,3.023-34.62,4.042-50.68,1.981-32.13,3.113-60.69,3.94-84.49s1.279-42.81,1.585-55.89c.136-6.53.249-11.58.328-15,0-1.71.068-3,.079-3.88s0-1.32,0-1.32v5.2c-.057,3.42-.136,8.47-.226,15-.249,13.08-.657,32.11-1.415,55.9s-1.857,52.37-3.815,84.5c-1,16.07-2.208,33-4,50.7-.917,8.84-1.959,17.85-3.4,27-.736,4.57-1.551,9.18-2.638,13.78a68.767,68.767,0,0,1-1.913,6.89,23.123,23.123,0,0,1-3.2,6.61l-.079.11H319.27v-.29c11.106-74.72,18.975-140,23.288-186.72,2.106-23.34,3.317-42,3.872-54.85.192-3.21.226-6.06.283-8.52s.1-4.54.147-6.22.068-3,.091-3.81A9.607,9.607,0,0,1,347.053,92.71Z" transform="translate(-41.97 -30.48)" fill="#263238"/>
          <path id="Trazado_180985" data-name="Trazado 180985" d="M508.422,88.41s-.385-17-19.247-17H358.865S344,75.05,344,89.62l116.419,7.9Z" transform="translate(-38.702 -30.48)" fill="#fafafa"/>
          <path id="Trazado_180986" data-name="Trazado 180986" d="M378.419,30.57h-1.245a27.2,27.2,0,0,0-3.578.27,29.146,29.146,0,0,0-12.25,4.6,28.239,28.239,0,0,0-11.072,14.9,17.718,17.718,0,0,0,.509,10.82,20.617,20.617,0,0,0,2.83,5.32A24.428,24.428,0,0,0,358,71.22l-.181-.06h33.274l69.763.2L482,71.48l5.74.06H391.088l-33.274-.07H357.7l-.068-.06a25.778,25.778,0,0,1-4.529-4.85,21.97,21.97,0,0,1-2.864-5.44,18.133,18.133,0,0,1-.464-11.06,28.36,28.36,0,0,1,11.321-15,26.718,26.718,0,0,1,6.793-3.28,27.9,27.9,0,0,1,5.661-1.24,23.457,23.457,0,0,1,3.6-.19,9.025,9.025,0,0,1,1.268.22Z" transform="translate(-38.024 -30.48)" fill="#263238"/>
          <path id="Trazado_180987" data-name="Trazado 180987" d="M511.109,187v13.24c0,8.52-.091,20.86-.272,36.1s-.464,33.39-1.223,53.53c-.385,10.07-.928,20.65-2.083,31.57s-2.751,22.2-4.97,33.67c-.872,4.49-1.8,8.91-2.819,13.05l-.057.2H499.5c-49.226-.1-93.142-.81-124.751-1.29l-37.3-.66-10.1-.21-2.615-.07h2.627l10.087.12,37.361.5c31.61.38,75.526,1,124.74,1.12l-.283.2c1.019-4.11,1.947-8.54,2.819-13,2.208-11.45,3.8-22.72,4.97-33.63s1.721-21.47,2.117-31.54c.793-20.13,1.076-38.28,1.347-53.52s.351-27.55.464-36.09c0-4.25.079-7.56.1-9.81v-2.56C511.086,187.36,511.109,187,511.109,187Z" transform="translate(-41.366 -30.48)" fill="#263238"/>
          <path id="Trazado_180988" data-name="Trazado 180988" d="M481.006,99.44a125.576,125.576,0,0,1-16.156,0A125.576,125.576,0,0,1,481.006,99.44Z" transform="translate(-22.732 -30.48)" fill="#263238"/>
          <path id="Trazado_180989" data-name="Trazado 180989" d="M481.006,95.71a125.576,125.576,0,0,1-16.156,0,125.578,125.578,0,0,1,16.156,0Z" transform="translate(-22.732 -30.48)" fill="#263238"/>
          <path id="Trazado_180990" data-name="Trazado 180990" d="M481.006,92a125.576,125.576,0,0,1-16.156,0A125.576,125.576,0,0,1,481.006,92Z" transform="translate(-22.732 -30.48)" fill="#263238"/>
          <path id="Trazado_180991" data-name="Trazado 180991" d="M360.47,101.85h1.313l3.566-.08-.1.09v-3.6a1.311,1.311,0,0,1,1.2-1h1.7a1.29,1.29,0,0,1,1.132,1.22q0,1.605,0,3.33l-.17-.14h4.529l-.17.15V95.56a1.264,1.264,0,0,0-.634-.94l-1.97-1.71L369,91.23l-.928-.8a2.085,2.085,0,0,0-.928-.61,1.317,1.317,0,0,0-1.03.17c-.272.2-.566.49-.838.73l-1.619,1.44c-1.008.93-2.072,1.78-2.842,2.58a2.5,2.5,0,0,0-.226,1.49v5.62a2.44,2.44,0,0,1,0-.48V95.46a1.513,1.513,0,0,1,.249-.83c.838-.9,1.823-1.7,2.853-2.65l1.6-1.45c.294-.26.532-.5.872-.77a1.693,1.693,0,0,1,1.3-.22,2.445,2.445,0,0,1,1.132.68l.917.8,1.913,1.65,1.97,1.71a3.685,3.685,0,0,1,.5.48,1.215,1.215,0,0,1,.238.67c0,.42,0,.84,0,1.27v5.15H369V98.47a1.038,1.038,0,0,0-.917-1h-1.63a1.089,1.089,0,0,0-.962.78c0,.4,0,.86,0,1.27v2.37H360.81Z" transform="translate(-36.525 -30.48)" fill="#263238"/>
          <path id="Trazado_180992" data-name="Trazado 180992" d="M404.106,95.31h-2.2V93.89h6.419v1.42h-2.2v4.9h-2.027Z" transform="translate(-31.049 -30.48)" fill="#ff725e"/>
          <path id="Trazado_180993" data-name="Trazado 180993" d="M412.831,99H409.8l-.555,1.22H407.17l3.2-6.33h1.993l3.17,6.32h-2.106Zm-.6-1.32-.917-2-.917,2Z" transform="translate(-30.354 -30.48)" fill="#ff725e"/>
          <path id="Trazado_180994" data-name="Trazado 180994" d="M414.59,99.65l.668-1.32a4.971,4.971,0,0,0,2.355.62c.838,0,1.132-.21,1.132-.52,0-1-4.064-.27-4.064-2.61,0-1.13,1.042-2,3.17-2a5.8,5.8,0,0,1,2.593.55l-.623,1.32a4.7,4.7,0,0,0-1.981-.48c-.849,0-1.132.25-1.132.56,0,1,4.053.25,4.053,2.58,0,1.1-1.042,2-3.17,2A6.248,6.248,0,0,1,414.59,99.65Z" transform="translate(-29.374 -30.48)" fill="#ff725e"/>
          <path id="Trazado_180995" data-name="Trazado 180995" d="M423.642,97.92l-.759.71v1.58h-2V93.89h2v2.63l2.774-2.63h2.264l-2.932,2.8,3.079,3.52h-2.355Z" transform="translate(-28.542 -30.48)" fill="#ff725e"/>
          <path id="Trazado_180996" data-name="Trazado 180996" d="M427.09,99.65l.668-1.32a4.972,4.972,0,0,0,2.366.62c.838,0,1.132-.21,1.132-.52,0-1-4.076-.27-4.076-2.61,0-1.13,1.042-2,3.17-2a5.847,5.847,0,0,1,2.6.55l-.623,1.32a4.746,4.746,0,0,0-1.993-.48c-.849,0-1.132.25-1.132.56,0,1,4.064.25,4.064,2.58,0,1.1-1.042,2-3.17,2a6.324,6.324,0,0,1-3.011-.7Z" transform="translate(-27.722 -30.48)" fill="#ff725e"/>
          <path id="Trazado_180997" data-name="Trazado 180997" d="M506.232,115.91c0,.14-36.546.26-81.605.26s-81.617-.12-81.617-.26,36.534-.26,81.617-.26S506.232,115.77,506.232,115.91Z" transform="translate(-38.833 -30.48)" fill="#e0e0e0"/>
          <path id="Trazado_180998" data-name="Trazado 180998" d="M507.47,165.71c0,.14-36.534.26-81.605.26s-81.605-.12-81.605-.26,36.523-.26,81.605-.26S507.47,165.56,507.47,165.71Z" transform="translate(-38.668 -30.48)" fill="#e0e0e0"/>
          <path id="Trazado_180999" data-name="Trazado 180999" d="M506.67,213.48c0,.14-38.074.26-85.024.26s-85.036-.12-85.036-.26,38.063-.26,85.036-.26S506.67,213.33,506.67,213.48Z" transform="translate(-39.679 -30.48)" fill="#e0e0e0"/>
          <path id="Trazado_181000" data-name="Trazado 181000" d="M505.151,260.05c0,.15-39.059.26-87.175.26s-87.175-.11-87.175-.26,39.036-.26,87.175-.26S505.151,259.91,505.151,260.05Z" transform="translate(-40.446 -30.48)" fill="#e0e0e0"/>
          <path id="Trazado_181001" data-name="Trazado 181001" d="M500.438,312.44c0,.15-39.206.26-87.549.26s-87.549-.11-87.549-.26,39.195-.26,87.549-.26S500.438,312.3,500.438,312.44Z" transform="translate(-41.168 -30.48)" fill="#e0e0e0"/>
          <path id="Trazado_181002" data-name="Trazado 181002" d="M374.771,150.36a1.33,1.33,0,0,1,0-.33v-.91c0-.85,0-2-.068-3.41,0-3-.068-7.09-.125-12l.26.22H355.966l.294-.26h0V150.3l-.26-.22,13.586.11,3.861.06h1.415a10.692,10.692,0,0,1-1.313.06l-3.8.05-13.756.12h-.249V133.62h0l.294-.26h19.122v.23c0,5-.1,9.16-.125,12.15,0,1.4-.057,2.53-.068,3.36A3.225,3.225,0,0,1,374.771,150.36Z" transform="translate(-37.151 -30.48)" fill="#263238"/>
          <path id="Trazado_181004" data-name="Trazado 181004" d="M372.949,200.57a2.12,2.12,0,0,1,0-.33v-.91q0-1.28-.068-3.42c0-3-.079-7.08-.125-12l.249.22H354.144l.294-.26h0v16.65l-.249-.22,13.586.11,3.861.06h1.03a1.69,1.69,0,0,1,.374,0,12.133,12.133,0,0,1-1.3.05l-3.8.06-13.756.12h-.26V183.82h0c-.272.23.351-.32.294-.26h19.054v.23c-.057,5-.1,9.15-.136,12.15q0,2.1-.068,3.36A6.513,6.513,0,0,1,372.949,200.57Z" transform="translate(-37.4 -30.48)" fill="#263238"/>
          <path id="Trazado_181005" data-name="Trazado 181005" d="M370.36,247.29v-1.24c0-.85,0-2-.068-3.41,0-3-.068-7.09-.125-12l.249.22H351.555l.294-.26h0v16.63l-.249-.22,13.586.11,3.861.06h1.4a10.144,10.144,0,0,1-1.3.06l-3.8.05-13.756.12h-.249V230.55h0l.294-.26h19.122v.23c-.057,5-.1,9.15-.136,12.15,0,1.4,0,2.53-.057,3.36a7.058,7.058,0,0,1-.2,1.26Z" transform="translate(-37.732 -30.48)" fill="#263238"/>
          <path id="Trazado_181006" data-name="Trazado 181006" d="M366.34,296.74a1.33,1.33,0,0,1,0-.33v-.91c0-.85,0-2-.068-3.41,0-3-.079-7.09-.136-12l.26.22H347.535c-.068.06.555-.49.283-.26h0v16.63l-.26-.22,13.586.11,3.861.06h1.415a10.138,10.138,0,0,1-1.3.06l-3.8.05-13.767.12H347.3V280h0c-.26.23.362-.32.306-.26h19.122v.23c0,5-.091,9.16-.125,12.15,0,1.4,0,2.53-.068,3.36a8.429,8.429,0,0,1-.193,1.26Z" transform="translate(-38.275 -30.48)" fill="#263238"/>
          <path id="Trazado_181007" data-name="Trazado 181007" d="M363.931,343.65V342.4c0-.84,0-2-.068-3.41,0-3-.068-7.08-.125-12l.249.23H345.126l.294-.26h0v16.65l-.26-.23,13.586.12,3.861.06h1.4s-.43,0-1.3.05l-3.8.06-13.756.11H344.9V327h0l.294-.26h19.122V327c-.057,5-.1,9.16-.125,12.15q0,2.12-.068,3.36A7.45,7.45,0,0,1,363.931,343.65Z" transform="translate(-38.583 -30.48)" fill="#263238"/>
          <path id="Trazado_181008" data-name="Trazado 181008" d="M482.831,30.76c0,.14-24.092.26-53.8.26s-53.811-.12-53.811-.26,24.092-.26,53.811-.26S482.831,30.62,482.831,30.76Z" transform="translate(-34.576 -30.48)" fill="#263238"/>
          <path id="Trazado_181003" data-name="Trazado 181003" d="M383.606,124.891c1.266.217-1.137,8.975-6.512,19.276-.679,1.289-1.357,2.542-2.036,3.747l-1.027,1.771-.514.855-.147.217a2.591,2.591,0,0,1-.275.4,4.323,4.323,0,0,1-.807.687,6.378,6.378,0,0,1-4.641.639,4.759,4.759,0,0,1-1.834-.9l-.312-.3-.165-.193-.312-.361c-.771-.94-1.431-1.843-2-2.662-2.256-3.3-3.137-5.469-2.568-5.65s2.568,1.626,5.5,4.578l2.421,2.409.349.313.147.145h.147c.092,0,.22,0,.2-.084h0l.11-.2.44-.867c.293-.59.587-1.2.9-1.783l1.834-3.735C377.846,132.974,382.285,124.674,383.606,124.891Z" transform="translate(-41.584 -35.199)" fill="#ff9b6a"/>
          <path id="Trazado_181092" data-name="Trazado 181092" d="M383.606,124.891c1.266.217-1.137,8.975-6.512,19.276-.679,1.289-1.357,2.542-2.036,3.747l-1.027,1.771-.514.855-.147.217a2.591,2.591,0,0,1-.275.4,4.323,4.323,0,0,1-.807.687,6.378,6.378,0,0,1-4.641.639,4.759,4.759,0,0,1-1.834-.9l-.312-.3-.165-.193-.312-.361c-.771-.94-1.431-1.843-2-2.662-2.256-3.3-3.137-5.469-2.568-5.65s2.568,1.626,5.5,4.578l2.421,2.409.349.313.147.145h.147c.092,0,.22,0,.2-.084h0l.11-.2.44-.867c.293-.59.587-1.2.9-1.783l1.834-3.735C377.846,132.974,382.285,124.674,383.606,124.891Z" transform="translate(-43.04 14.601)" fill="#ff9b6a"/>
          <path id="Trazado_181093" data-name="Trazado 181093" d="M383.606,124.891c1.266.217-1.137,8.975-6.512,19.276-.679,1.289-1.357,2.542-2.036,3.747l-1.027,1.771-.514.855-.147.217a2.591,2.591,0,0,1-.275.4,4.323,4.323,0,0,1-.807.687,6.378,6.378,0,0,1-4.641.639,4.759,4.759,0,0,1-1.834-.9l-.312-.3-.165-.193-.312-.361c-.771-.94-1.431-1.843-2-2.662-2.256-3.3-3.137-5.469-2.568-5.65s2.568,1.626,5.5,4.578l2.421,2.409.349.313.147.145h.147c.092,0,.22,0,.2-.084h0l.11-.2.44-.867c.293-.59.587-1.2.9-1.783l1.834-3.735C377.846,132.974,382.285,124.674,383.606,124.891Z" transform="translate(-45.931 61.337)" fill="#ff9b6a"/>
          <path id="Trazado_181094" data-name="Trazado 181094" d="M383.606,124.891c1.266.217-1.137,8.975-6.512,19.276-.679,1.289-1.357,2.542-2.036,3.747l-1.027,1.771-.514.855-.147.217a2.591,2.591,0,0,1-.275.4,4.323,4.323,0,0,1-.807.687,6.378,6.378,0,0,1-4.641.639,4.759,4.759,0,0,1-1.834-.9l-.312-.3-.165-.193-.312-.361c-.771-.94-1.431-1.843-2-2.662-2.256-3.3-3.137-5.469-2.568-5.65s2.568,1.626,5.5,4.578l2.421,2.409.349.313.147.145h.147c.092,0,.22,0,.2-.084h0l.11-.2.44-.867c.293-.59.587-1.2.9-1.783l1.834-3.735C377.846,132.974,382.285,124.674,383.606,124.891Z" transform="translate(-51.33 110.485)" fill="#ff9b6a"/>
          <path id="Trazado_181095" data-name="Trazado 181095" d="M383.606,124.891c1.266.217-1.137,8.975-6.512,19.276-.679,1.289-1.357,2.542-2.036,3.747l-1.027,1.771-.514.855-.147.217a2.591,2.591,0,0,1-.275.4,4.323,4.323,0,0,1-.807.687,6.378,6.378,0,0,1-4.641.639,4.759,4.759,0,0,1-1.834-.9l-.312-.3-.165-.193-.312-.361c-.771-.94-1.431-1.843-2-2.662-2.256-3.3-3.137-5.469-2.568-5.65s2.568,1.626,5.5,4.578l2.421,2.409.349.313.147.145h.147c.092,0,.22,0,.2-.084h0l.11-.2.44-.867c.293-.59.587-1.2.9-1.783l1.834-3.735C377.846,132.974,382.285,124.674,383.606,124.891Z" transform="translate(-53.408 156.812)" fill="#ff9b6a"/>
        </g>
        <g id="Floor">
          <path id="Trazado_181009" data-name="Trazado 181009" d="M683.17,460.65c0,.14-138,.26-308.16.26s-308.18-.12-308.18-.26,138-.26,308.18-.26S683.17,460.51,683.17,460.65Z" transform="translate(-41.97 -30.48)" fill="#263238"/>
        </g>
        <g id="Character" transform="translate(-23)">
          <path id="Trazado_181010" data-name="Trazado 181010" d="M231.58,194.46s25.61,36,30.41,37.56c16.43,5.46,34.6-32.35,34.6-32.35l-9.77,2.15-17.93,11.31-19.57-26.76-17.74,10.21" transform="translate(-41.97 -30.48)" fill="#a57e6d"/>
          <path id="Trazado_181011" data-name="Trazado 181011" d="M265.12,224.06a4.129,4.129,0,0,1-.24-1.75,12,12,0,0,1,2.9-7.87,4.44,4.44,0,0,1,1.32-1.17,15.79,15.79,0,0,0-3.98,10.79Z" transform="translate(-41.97 -30.48)" fill="#755246"/>
          <path id="Trazado_181012" data-name="Trazado 181012" d="M226.73,404.77l3.66,17.21,12.05,1.08,5.08-5.71-4.65-20.55Z" fill="#a57e6d"/>
          <path id="Trazado_181013" data-name="Trazado 181013" d="M195.34,432.2c-.17.56,0,22,0,22l6.76,4,8.83-5.3,1.87-20.73Z" transform="translate(-41.97 -30.48)" fill="#a57e6d"/>
          <path id="Trazado_181014" data-name="Trazado 181014" d="M189.6,246.76s-8.67,16.4-12.39,29.81-7.27,21.07-3.44,33.11,8.94,57.67,11.46,69.71c2.07,9.92,6.66,48.76,10,61.07H214l1.91-137.9s33.37,77.44,37.2,86.74,15.05,49,15.05,49l19.43-3s-11.77-68.67-15.33-85.09-13.68-61-17.78-75-3.68-23.63-9.5-30.42Z" transform="translate(-41.97 -30.48)" fill="#263238"/>
          <path id="Trazado_181015" data-name="Trazado 181015" d="M218.44,249.46a.832.832,0,0,1,.37-.26,1.9,1.9,0,0,1,1.25,0,1.85,1.85,0,0,1,1.23,1.41,2,2,0,0,1-3.18,2,1.85,1.85,0,0,1-.73-1.72,1.81,1.81,0,0,1,.54-1.12c.21-.21.37-.25.39-.23a2.68,2.68,0,0,0-.56,1.37,1.49,1.49,0,0,0,.64,1.31,1.53,1.53,0,0,0,2.42-1.51,1.48,1.48,0,0,0-.89-1.15,2.52,2.52,0,0,0-1.48-.1Z" transform="translate(-41.97 -30.48)" fill="#455a64"/>
          <path id="Trazado_181016" data-name="Trazado 181016" d="M223.88,285.09a2.18,2.18,0,0,1-.45.13c-.31.07-.76.15-1.34.22a18.45,18.45,0,0,1-5-.08,13.852,13.852,0,0,1-1.65-.34,2.1,2.1,0,0,1-.83-.49,1.71,1.71,0,0,1-.45-.91c-.16-1.29-.15-2.57-.23-4-.12-2.78-.24-5.83-.38-9-.25-6.41-.45-12.21-.57-16.41,0-2-.09-3.72-.12-5v-1.35a1.43,1.43,0,0,1,0-.47,1.62,1.62,0,0,1,.07.47c0,.37.07.81.11,1.35.07,1.25.16,2.93.28,5,.21,4.2.47,10,.72,16.4.12,3.2.24,6.25.34,9,.07,1.37.05,2.75.17,3.91a1.35,1.35,0,0,0,1,1.1,12.836,12.836,0,0,0,1.58.36,20.6,20.6,0,0,0,4.92.24A12.94,12.94,0,0,1,223.88,285.09Z" transform="translate(-41.97 -30.48)" fill="#455a64"/>
          <path id="Trazado_181017" data-name="Trazado 181017" d="M250.38,262.4a3,3,0,0,1-.77.57,10,10,0,0,1-2.42,1,10.56,10.56,0,0,1-13.19-8.2,9.9,9.9,0,0,1-.17-2.62,3,3,0,0,1,.17-1,18.91,18.91,0,0,0,.36,3.49,10.52,10.52,0,0,0,12.79,7.93A18.55,18.55,0,0,0,250.38,262.4Z" transform="translate(-41.97 -30.48)" fill="#455a64"/>
          <path id="Trazado_181018" data-name="Trazado 181018" d="M226.16,255.08a34.669,34.669,0,0,1-.27-8.39,33.371,33.371,0,0,1,.27,8.39Z" transform="translate(-41.97 -30.48)" fill="#455a64"/>
          <path id="Trazado_181019" data-name="Trazado 181019" d="M229.41,254.48a23.68,23.68,0,0,1,0-4.14,21.58,21.58,0,0,1,.24-4.13,13.2,13.2,0,0,1,.28,4.15A13,13,0,0,1,229.41,254.48Z" transform="translate(-41.97 -30.48)" fill="#455a64"/>
          <path id="Trazado_181020" data-name="Trazado 181020" d="M247.52,252.3a2.784,2.784,0,0,1-.5.14l-1.45.3c-1.26.26-3.1.57-5.38.9a147.849,147.849,0,0,1-35.92.73c-2.29-.24-4.14-.48-5.41-.68l-1.46-.24a1.8,1.8,0,0,1-.51-.12,1.86,1.86,0,0,1,.52,0l1.48.14c1.27.14,3.13.32,5.42.51a177.6,177.6,0,0,0,17.93.58,175,175,0,0,0,17.9-1.31c2.28-.28,4.13-.53,5.4-.73l1.47-.2a2.768,2.768,0,0,1,.51-.02Z" transform="translate(-41.97 -30.48)" fill="#455a64"/>
          <path id="Trazado_181021" data-name="Trazado 181021" d="M198.53,255a7.08,7.08,0,0,1-1.44,2.26,13.92,13.92,0,0,1-11.62,5,7.15,7.15,0,0,1-2.63-.53c0-.09,1,.14,2.65.16A14.93,14.93,0,0,0,196.81,257C197.93,255.84,198.45,255,198.53,255Z" transform="translate(-41.97 -30.48)" fill="#455a64"/>
          <path id="Trazado_181022" data-name="Trazado 181022" d="M223.19,278.83c-.15,0-.32-4.89-.38-10.91s0-10.92.14-10.92.31,4.88.38,10.91S223.33,278.83,223.19,278.83Z" transform="translate(-41.97 -30.48)" fill="#455a64"/>
          <path id="Trazado_181023" data-name="Trazado 181023" d="M216.05,302a39.788,39.788,0,0,1-.14-6.42,40.912,40.912,0,0,1,.38-6.41,39.788,39.788,0,0,1,.14,6.42A39.51,39.51,0,0,1,216.05,302Z" transform="translate(-41.97 -30.48)" fill="#455a64"/>
          <path id="Trazado_181024" data-name="Trazado 181024" d="M247,289.25a21.6,21.6,0,0,1-3.13.57c-1.94.31-4.62.74-7.56,1.28s-5.6,1.11-7.52,1.53a22.283,22.283,0,0,1-3.13.59,16.44,16.44,0,0,1,3-1c1.91-.51,4.56-1.13,7.51-1.68s5.65-.92,7.61-1.13A16.61,16.61,0,0,1,247,289.25Z" transform="translate(-41.97 -30.48)" fill="#455a64"/>
          <path id="Trazado_181025" data-name="Trazado 181025" d="M249.9,293.85a30.854,30.854,0,0,1-3.66.12c-2.26,0-5.38.11-8.82.29s-6.55.42-8.81.61a30.214,30.214,0,0,1-3.65.25,3.06,3.06,0,0,1,1-.22c.62-.12,1.53-.25,2.65-.39,2.25-.29,5.37-.6,8.82-.78s6.59-.18,8.85-.12c1.14,0,2,.07,2.68.11a3.389,3.389,0,0,1,.94.13Z" transform="translate(-41.97 -30.48)" fill="#455a64"/>
          <path id="Trazado_181026" data-name="Trazado 181026" d="M208.7,290.85a19.631,19.631,0,0,1-2.58-1,62.44,62.44,0,0,0-6.27-2.21,61.534,61.534,0,0,0-6.47-1.48,19.177,19.177,0,0,1-2.72-.51,11,11,0,0,1,2.77.14,42.291,42.291,0,0,1,12.84,3.72A11.47,11.47,0,0,1,208.7,290.85Z" transform="translate(-41.97 -30.48)" fill="#455a64"/>
          <path id="Trazado_181027" data-name="Trazado 181027" d="M291.89,445.92v1.34s23.07,8.51,23.44,12.83l-45.29,1.07.26-15.09A26.111,26.111,0,0,0,291.89,445.92Z" transform="translate(-41.97 -30.48)" fill="#727997"/>
          <g id="Grupo_129444" data-name="Grupo 129444" opacity="0.6">
            <path id="Trazado_181028" data-name="Trazado 181028" d="M275,450.78a1.85,1.85,0,0,0-1.23,2.14,1.78,1.78,0,0,0,2.11,1.24,1.94,1.94,0,0,0,1.29-2.27,1.86,1.86,0,0,0-2.34-1.05" transform="translate(-41.97 -30.48)" fill="#fff"/>
          </g>
          <g id="Grupo_129445" data-name="Grupo 129445" opacity="0.6">
            <path id="Trazado_181029" data-name="Trazado 181029" d="M270.08,461.16l.06-3.63,43.38.3s2,.83,1.85,2.26Z" transform="translate(-41.97 -30.48)" fill="#fff"/>
          </g>
          <path id="Trazado_181030" data-name="Trazado 181030" d="M292.09,447.39c0,.22-1.1.34-2.17,1.08s-1.63,1.68-1.84,1.6.1-1.37,1.41-2.24S292.14,447.18,292.09,447.39Z" transform="translate(-41.97 -30.48)" fill="#263238"/>
          <path id="Trazado_181031" data-name="Trazado 181031" d="M296.89,449.24c.06.21-.89.61-1.62,1.56s-.93,1.95-1.15,1.95-.39-1.25.54-2.42S296.88,449,296.89,449.24Z" transform="translate(-41.97 -30.48)" fill="#263238"/>
          <path id="Trazado_181032" data-name="Trazado 181032" d="M299.72,454.86c-.2.05-.53-1.05,0-2.27s1.56-1.73,1.66-1.55-.53.85-1,1.86S299.94,454.83,299.72,454.86Z" transform="translate(-41.97 -30.48)" fill="#263238"/>
          <path id="Trazado_181033" data-name="Trazado 181033" d="M211.56,451.06s-12,8.53-17.85,1.14l-1.52,3.59-6.84,25.51a3.42,3.42,0,0,0,1.93,4.09,3.31,3.31,0,0,0,3.5-.67c4.94-4.7,23.06-22.11,22.88-24.47l-.07-6.26a3.18,3.18,0,0,0-2-2.93Z" transform="translate(-41.97 -30.48)" fill="#727997"/>
          <g id="Grupo_129446" data-name="Grupo 129446" opacity="0.6">
            <path id="Trazado_181034" data-name="Trazado 181034" d="M187.87,485.56l25.8-27.49v1.37c.13,1.49-.51,2.07-1.22,3-2.09,2.82-7.86,9.11-21.57,22.26a3.26,3.26,0,0,1-3,.84Z" transform="translate(-41.97 -30.48)" fill="#fff"/>
          </g>
          <g id="Grupo_129447" data-name="Grupo 129447" opacity="0.6">
            <path id="Trazado_181035" data-name="Trazado 181035" d="M209.89,454a2,2,0,0,0-.56,2.61,1.94,1.94,0,0,0,2.59.58,2.1,2.1,0,0,0,.57-2.77,2,2,0,0,0-2.75-.3" transform="translate(-41.97 -30.48)" fill="#fff"/>
          </g>
          <path id="Trazado_181036" data-name="Trazado 181036" d="M195.31,471.49c-.19.08-.91-1.61-2.83-2.53s-3.67-.52-3.71-.72.38-.33,1.14-.44a5.23,5.23,0,0,1,2.89.53,5,5,0,0,1,2.16,2C195.34,471,195.39,471.46,195.31,471.49Z" transform="translate(-41.97 -30.48)" fill="#263238"/>
          <path id="Trazado_181037" data-name="Trazado 181037" d="M193,475.8c-.16.14-1.19-.91-2.86-1.4s-3.1-.22-3.15-.42,1.47-.84,3.36-.26S193.16,475.71,193,475.8Z" transform="translate(-41.97 -30.48)" fill="#263238"/>
          <path id="Trazado_181038" data-name="Trazado 181038" d="M199.61,466c-.15.15-1.73-1.48-4.26-2.46s-4.78-.92-4.79-1.13,2.35-.62,5.05.47S199.77,465.87,199.61,466Z" transform="translate(-41.97 -30.48)" fill="#263238"/>
          <path id="Trazado_181039" data-name="Trazado 181039" d="M200.18,458.19c-.08.2-1.87-.55-4.19-.65s-4.16.46-4.23.26,1.77-1.1,4.27-1S200.29,458.05,200.18,458.19Z" transform="translate(-41.97 -30.48)" fill="#263238"/>
          <path id="Trazado_181040" data-name="Trazado 181040" d="M194.67,457.47a2.85,2.85,0,0,1,.18-1.21,8.54,8.54,0,0,1,1.55-3,3.72,3.72,0,0,1,1.91-1.47,1.32,1.32,0,0,1,1.42.57,2.15,2.15,0,0,1,.24,1.52,4.68,4.68,0,0,1-4.83,3.5,5.42,5.42,0,0,1-4.71-3.77,1.83,1.83,0,0,1,.2-1.55,1.3,1.3,0,0,1,1.47-.43,4.65,4.65,0,0,1,1.88,1.48,9.35,9.35,0,0,1,1.71,2.87,2.89,2.89,0,0,1,.28,1.19,15.18,15.18,0,0,0-2.36-3.73,4.31,4.31,0,0,0-1.68-1.25.71.71,0,0,0-.8.23,1.28,1.28,0,0,0-.07,1,4.83,4.83,0,0,0,4.12,3.22,4,4,0,0,0,4.14-2.91,1.58,1.58,0,0,0-.11-1.07.71.71,0,0,0-.78-.32,3.35,3.35,0,0,0-1.65,1.21,12.831,12.831,0,0,0-2.11,3.92Z" transform="translate(-41.97 -30.48)" fill="#263238"/>
          <path id="Trazado_181041" data-name="Trazado 181041" d="M235.33,162.06c-1.88-1.5-4.08-2.55-6-3.95s-3.76-5.09-4.21-7.46L209.69,152a60.559,60.559,0,0,0-2,18.71c.13,2.68.52,5.54,2.32,7.53,2,2.19,5.11,2.77,8,3.24l14.08,2.25c1.66.26,3.45.51,5-.22a6.59,6.59,0,0,0,3-3.75,15.92,15.92,0,0,0-4.76-17.7Z" transform="translate(-41.97 -30.48)" fill="#263238"/>
          <path id="Trazado_181042" data-name="Trazado 181042" d="M178.3,175.87c-.82-4.57.06-9.22.48-13.79.62-6.66.26-13.54,0-20.36s-.52-13.71.37-20.28,3-12.83,6.57-16.36,8.71-3.74,12.27.6L196.59,123a503.65,503.65,0,0,1,.76,73.87,39,39,0,0,1-14.26.14,3,3,0,0,1-2.6-1.93c-.58-1.68.22-3.51.53-5.27a16.28,16.28,0,0,0-.75-7.14,64.743,64.743,0,0,1-1.97-6.8Z" transform="translate(-41.97 -30.48)" fill="#263238"/>
          <path id="Trazado_181043" data-name="Trazado 181043" d="M191.4,107.14a12,12,0,0,1,5-3,4.08,4.08,0,0,1,2.34-.15,1.77,1.77,0,0,1,1.31,1.76l-4.62,6.54a3.18,3.18,0,0,1-3.51.16A3.27,3.27,0,0,1,190,110.4a3.78,3.78,0,0,1,1.4-3.26Z" transform="translate(-41.97 -30.48)" fill="#455a64"/>
          <path id="Trazado_181044" data-name="Trazado 181044" d="M217.16,170.09Z" transform="translate(-41.97 -30.48)" fill="#ffbe9d"/>
          <path id="Trazado_181045" data-name="Trazado 181045" d="M226,126.05a18.34,18.34,0,0,0-18.55-16.8A17.81,17.81,0,0,0,189.89,128l3.42,40a3.44,3.44,0,0,0,.92,2.07,16.34,16.34,0,0,0,11.27,5.08,17.08,17.08,0,0,0,10.13-3.69,3.39,3.39,0,0,0,1.29-3.15L215.67,158h0a23.669,23.669,0,0,0,2.65-.5c2.26-.92,7.75-2.64,8-11.7a181.642,181.642,0,0,0-.32-19.75Z" transform="translate(-41.97 -30.48)" fill="#a57e6d"/>
          <path id="Trazado_181046" data-name="Trazado 181046" d="M214.81,140.92a10.62,10.62,0,0,1,2.53-.65c.4-.07.78-.18.83-.45a2.06,2.06,0,0,0-.37-1.16c-.45-.93-.93-1.91-1.44-2.93-2-4.17-3.48-7.62-3.31-7.69s1.93,3.24,3.94,7.41c.48,1,.94,2,1.39,3a2.31,2.31,0,0,1,.33,1.54,1,1,0,0,1-.62.63,2.84,2.84,0,0,1-.67.15A10.77,10.77,0,0,1,214.81,140.92Z" transform="translate(-41.97 -30.48)" fill="#263238"/>
          <path id="Trazado_181047" data-name="Trazado 181047" d="M223,131.71a1.44,1.44,0,0,1-1.3,1.56,1.41,1.41,0,0,1-1.62-1.18,1.46,1.46,0,0,1,1.3-1.57,1.42,1.42,0,0,1,1.62,1.19Z" transform="translate(-41.97 -30.48)" fill="#263238"/>
          <path id="Trazado_181048" data-name="Trazado 181048" d="M223.63,128.84c-.14.25-1.41-.57-3-.33s-2.56,1.36-2.77,1.15,0-.53.44-1a3.46,3.46,0,0,1,2.16-1.21,3.52,3.52,0,0,1,2.43.55C223.47,128.33,223.7,128.72,223.63,128.84Z" transform="translate(-41.97 -30.48)" fill="#263238"/>
          <path id="Trazado_181049" data-name="Trazado 181049" d="M208.16,133.1a1.44,1.44,0,0,1-1.3,1.56,1.41,1.41,0,0,1-1.62-1.19,1.44,1.44,0,0,1,1.3-1.56,1.42,1.42,0,0,1,1.62,1.19Z" transform="translate(-41.97 -30.48)" fill="#263238"/>
          <path id="Trazado_181050" data-name="Trazado 181050" d="M208.37,130.37c-.19.24-1.43-.75-3.14-.72s-2.94,1-3.13.77.09-.53.62-1a3.97,3.97,0,0,1,5.01-.04C208.27,129.85,208.46,130.27,208.37,130.37Z" transform="translate(-41.97 -30.48)" fill="#263238"/>
          <path id="Trazado_181051" data-name="Trazado 181051" d="M215.67,158s-6.2,1-14.2-2.92c0,0,3.17,7.7,14.55,5.78Z" transform="translate(-41.97 -30.48)" fill="#755246"/>
          <path id="Trazado_181052" data-name="Trazado 181052" d="M214.45,144.71a2.94,2.94,0,0,0-2.64-.85,2.63,2.63,0,0,0-1.72,1.09,1.61,1.61,0,0,0,0,1.86,2,2,0,0,0,2.12.36,5.94,5.94,0,0,0,1.92-1.34,1.77,1.77,0,0,0,.42-.49.53.53,0,0,0,0-.58" transform="translate(-41.97 -30.48)" fill="#755246"/>
          <path id="Trazado_181053" data-name="Trazado 181053" d="M209.21,124.52c-.12.43-1.71.38-3.54.77s-3.28,1-3.56.67c-.13-.17.09-.59.65-1a6.08,6.08,0,0,1,2.58-1.17,6.3,6.3,0,0,1,2.84.06C208.88,124,209.26,124.31,209.21,124.52Z" transform="translate(-41.97 -30.48)" fill="#263238"/>
          <path id="Trazado_181054" data-name="Trazado 181054" d="M223.23,125.43c-.31.37-1.62.06-3.19.11s-2.86.37-3.19,0c-.14-.18.05-.54.61-.9a5.635,5.635,0,0,1,5.12-.05C223.17,124.89,223.37,125.25,223.23,125.43Z" transform="translate(-41.97 -30.48)" fill="#263238"/>
          <path id="Trazado_181055" data-name="Trazado 181055" d="M208.52,107.06a5.39,5.39,0,0,0-4.38-1.7c-7.1,0-14.24,5.27-17.28,11.69s-2,15.17,1.81,21.17l2.67.08c5.38-1.12,12.3-17.56,18.69-27C210.83,110.1,209.41,108.16,208.52,107.06Z" transform="translate(-41.97 -30.48)" fill="#263238"/>
          <path id="Trazado_181056" data-name="Trazado 181056" d="M222.48,109.68c-3.39-2.89-8.7-6.23-14.39-3.05-.64,1.82,1.47,3.75,3.15,4.81,2.46,1.56,4.55,2.54,6.18,3.68,3.3,2.29,7.55,6.25,8.56,11.19.07.31.14,10.05.44,9.95s1.21-12,1.3-14.79C227.9,115.56,225.87,112.56,222.48,109.68Z" transform="translate(-41.97 -30.48)" fill="#263238"/>
          <path id="Trazado_181057" data-name="Trazado 181057" d="M192.61,134.88c-.18-.06-7-1.67-6.39,5.14s7.3,4.83,7.29,4.63S192.61,134.88,192.61,134.88Z" transform="translate(-41.97 -30.48)" fill="#a57e6d"/>
          <path id="Trazado_181058" data-name="Trazado 181058" d="M191.21,142.25a2.48,2.48,0,0,1-.3.2,1.15,1.15,0,0,1-.89.09,2.94,2.94,0,0,1-1.58-2.51,3.92,3.92,0,0,1,.19-1.73,1.39,1.39,0,0,1,.82-1,.6.6,0,0,1,.72.27c.11.18.08.32.12.33s.13-.13.05-.4a.75.75,0,0,0-.3-.41.88.88,0,0,0-.67-.11,1.68,1.68,0,0,0-1.15,1.16,4.05,4.05,0,0,0-.25,1.93,3.08,3.08,0,0,0,2,2.79,1.25,1.25,0,0,0,1.07-.27C191.21,142.41,191.24,142.26,191.21,142.25Z" transform="translate(-41.97 -30.48)" fill="#755246"/>
          <path id="Trazado_181059" data-name="Trazado 181059" d="M224,110.86a7.48,7.48,0,0,1-1.94.51,28.26,28.26,0,0,1-9.65,0,6.791,6.791,0,0,1-1.94-.49,13.519,13.519,0,0,1,2,.2,43.218,43.218,0,0,0,4.78.26,41.4,41.4,0,0,0,4.78-.32A11.429,11.429,0,0,1,224,110.86Z" transform="translate(-41.97 -30.48)" fill="#455a64"/>
          <path id="Trazado_181060" data-name="Trazado 181060" d="M226.94,115.42a3.79,3.79,0,0,1-1.43.54,11.38,11.38,0,0,1-7.25-.65,3.83,3.83,0,0,1-1.31-.78,20.94,20.94,0,0,0,4.92,1.27A20.7,20.7,0,0,0,226.94,115.42Z" transform="translate(-41.97 -30.48)" fill="#455a64"/>
          <path id="Trazado_181061" data-name="Trazado 181061" d="M186.29,119.47c0-.09,1.49,0,3.85-.38a29.191,29.191,0,0,0,4.07-.94,38.5,38.5,0,0,0,4.75-1.9,42.318,42.318,0,0,0,4.44-2.55,37.892,37.892,0,0,0,3.34-2.53c1.81-1.54,2.8-2.66,2.85-2.6a5.081,5.081,0,0,1-.65.81,12,12,0,0,1-.83.9c-.34.34-.72.73-1.18,1.12a32.471,32.471,0,0,1-3.31,2.62,37.918,37.918,0,0,1-4.47,2.61,35,35,0,0,1-4.83,1.89,26.579,26.579,0,0,1-4.14.87,14.8,14.8,0,0,1-1.62.14,8.69,8.69,0,0,1-1.23,0A4.57,4.57,0,0,1,186.29,119.47Z" transform="translate(-41.97 -30.48)" fill="#455a64"/>
          <path id="Trazado_181062" data-name="Trazado 181062" d="M209.45,111a5.659,5.659,0,0,1-.43,1,10.342,10.342,0,0,1-.58,1.15c-.25.43-.5.95-.86,1.47a27.85,27.85,0,0,1-2.64,3.56,30.17,30.17,0,0,1-3.94,3.73,29.54,29.54,0,0,1-4.6,2.9,27.631,27.631,0,0,1-4.12,1.64c-.59.2-1.16.31-1.64.44a12.605,12.605,0,0,1-1.26.25,6.549,6.549,0,0,1-1.09.13c0-.09,1.53-.32,3.9-1.11a29.829,29.829,0,0,0,4-1.7,29.12,29.12,0,0,0,8.42-6.54,30.622,30.622,0,0,0,2.68-3.46C208.72,112.37,209.37,111,209.45,111Z" transform="translate(-41.97 -30.48)" fill="#455a64"/>
          <path id="Trazado_181063" data-name="Trazado 181063" d="M204.14,105.36a2.62,2.62,0,0,1,1.37-.08,5.93,5.93,0,0,1,3,1.4,4.921,4.921,0,0,1,.66.71,3.9,3.9,0,0,1,.44.78,9.531,9.531,0,0,1,.56,1.38,2,2,0,0,1,.07,1.37c-.07,0-.05-.52-.35-1.27a13.569,13.569,0,0,0-.63-1.3,3.8,3.8,0,0,0-.42-.71,5.221,5.221,0,0,0-.61-.64,6.45,6.45,0,0,0-2.78-1.42C204.66,105.4,204.15,105.43,204.14,105.36Z" transform="translate(-41.97 -30.48)" fill="#455a64"/>
          <path id="Trazado_181064" data-name="Trazado 181064" d="M187.12,135.65a1.21,1.21,0,0,0-.1-.35c-.07-.23-.19-.55-.32-1a30.758,30.758,0,0,1-1-3.65,26.07,26.07,0,0,1-.51-5.56,21.93,21.93,0,0,1,1.14-6.71,17.3,17.3,0,0,1,1.5-3.19,18.59,18.59,0,0,1,2-2.63,22.621,22.621,0,0,1,4.23-3.63,32.439,32.439,0,0,1,3.25-1.92l.92-.47a1.34,1.34,0,0,0,.31-.18l-.33.12c-.22.1-.55.22-.95.42a26.841,26.841,0,0,0-3.32,1.84,22.43,22.43,0,0,0-4.33,3.62,18.452,18.452,0,0,0-2,2.67,16.77,16.77,0,0,0-1.54,3.25,21.67,21.67,0,0,0-1.13,6.81,25.3,25.3,0,0,0,.58,5.6,25.639,25.639,0,0,0,1.06,3.65c.15.43.3.74.38,1a2.287,2.287,0,0,0,.16.31Z" transform="translate(-41.97 -30.48)" fill="#455a64"/>
          <path id="Trazado_181065" data-name="Trazado 181065" d="M215.34,146.52c0-.21-1.55-.43-3.34-1.23s-3.06-2-3.16-1.81a6.08,6.08,0,0,0,3,2.46C213.69,146.78,215.33,146.69,215.34,146.52Z" transform="translate(-41.97 -30.48)" fill="#263238"/>
          <path id="Trazado_181066" data-name="Trazado 181066" d="M184.1,134l-9.78-1.16-23.13,2.99-11.81,6.58,20.53,8.65L174.83,148Z" fill="#a57e6d"/>
          <path id="Trazado_181067" data-name="Trazado 181067" d="M187.38,169,171,175.68l3.67,31.45s6.09-2.18,9.36,13.71,3.32,26.06,3.32,26.06l59.58-2.12s-2.17-38.09-3.26-46.58l-4-32.43L224.3,163.2S209.49,188.22,187.38,169Z" transform="translate(-41.97 -30.48)" fill="#8372bc"/>
          <path id="Trazado_181068" data-name="Trazado 181068" d="M239.68,165.77s7.26-.52,13,9.52c4.36,7.64,5.9,10.59,5.9,10.59l-16.88,9.86-6.75-18.43Z" transform="translate(-41.97 -30.48)" fill="#8372bc"/>
          <path id="Trazado_181069" data-name="Trazado 181069" d="M171.2,175.57s-6.53,3.7-10,8.49-7.62,13.58-7.62,13.58l20,11.12,3-5.71Z" transform="translate(-41.97 -30.48)" fill="#8372bc"/>
          <path id="Trazado_181070" data-name="Trazado 181070" d="M176.79,202.49c-.09,0,.43-1.37.89-3.62a26.909,26.909,0,0,0,.53-4,30.56,30.56,0,0,0-.12-4.92,32.292,32.292,0,0,0-1-4.82,28.258,28.258,0,0,0-1.41-3.77c-1-2.08-1.76-3.27-1.68-3.32a3.611,3.611,0,0,1,.62.79,18.7,18.7,0,0,1,1.39,2.37,25,25,0,0,1,1.54,3.79,28.521,28.521,0,0,1,1,4.91,27.3,27.3,0,0,1,.09,5,23.887,23.887,0,0,1-.65,4,18.57,18.57,0,0,1-.82,2.62,3.29,3.29,0,0,1-.38.97Z" transform="translate(-41.97 -30.48)" fill="#263238"/>
          <path id="Trazado_181071" data-name="Trazado 181071" d="M240.82,181a67.533,67.533,0,0,0-2.28-6.67,70.316,70.316,0,0,0-3.41-6.18,6.919,6.919,0,0,1,1.38,1.58,24.48,24.48,0,0,1,4.07,9.19A6.32,6.32,0,0,1,240.82,181Z" transform="translate(-41.97 -30.48)" fill="#263238"/>
          <path id="Trazado_181072" data-name="Trazado 181072" d="M229,163.25a1.93,1.93,0,0,1-.16.51c-.14.32-.3.81-.6,1.4a23.91,23.91,0,0,1-3,4.74,26.43,26.43,0,0,1-6.13,5.61,25.9,25.9,0,0,1-27.32.65,24.08,24.08,0,0,1-4.49-3.35c-.49-.44-.82-.84-1.06-1.09s-.35-.4-.33-.41.54.49,1.53,1.35a26.431,26.431,0,0,0,4.53,3.18,26.89,26.89,0,0,0,7.66,2.86,25.11,25.11,0,0,0,19.21-3.59,27,27,0,0,0,6.11-5.44,26.568,26.568,0,0,0,3.08-4.6C228.66,163.91,229,163.24,229,163.25Z" transform="translate(-41.97 -30.48)" fill="#263238"/>
          <path id="Trazado_181073" data-name="Trazado 181073" d="M201,199.79A158.388,158.388,0,0,1,194.36,167c-.67-7.85-2.72-14.18-3-21.91L186.89,153A216.107,216.107,0,0,0,182,183.22c-.29,3.19-.4,6.75,1.68,9.19,1.67,2,4.55,2.91,5.47,5.31,1,2.6-.46,6.44,2,7.74a3.26,3.26,0,0,0,3.73-.93,9.62,9.62,0,0,0,1.8-3.67c.23,2,2.57,4.12,4.09,2.77C201.73,202.72,201.41,201.09,201,199.79Z" transform="translate(-41.97 -30.48)" fill="#263238"/>
          <path id="Trazado_181074" data-name="Trazado 181074" d="M81.27,291.09h0a16.17,16.17,0,0,0,22.42,8.19L326.54,183.06,355,141.82l-48.93,7.47L88.34,270.83a16.16,16.16,0,0,0-7.07,20.26Z" transform="translate(-41.97 -30.48)" fill="#ff9b6a"/>
          <path id="Trazado_181075" data-name="Trazado 181075" d="M88.34,270.83a16.16,16.16,0,0,0-7.07,20.26h0a16.17,16.17,0,0,0,22.42,8.19Z" transform="translate(-41.97 -30.48)" fill="#263238"/>
          <g id="Grupo_129448" data-name="Grupo 129448" opacity="0.4">
            <path id="Trazado_181076" data-name="Trazado 181076" d="M264.09,118.81,46.37,240.35l2.62,4.86L267.57,125.3Z"/>
          </g>
          <g id="Grupo_129449" data-name="Grupo 129449" opacity="0.4">
            <path id="Trazado_181077" data-name="Trazado 181077" d="M280.74,146.01,59.21,264.13l2.52,4.67L284.57,152.58Z"/>
          </g>
          <g id="Grupo_129450" data-name="Grupo 129450" opacity="0.4">
            <path id="Trazado_181078" data-name="Trazado 181078" d="M271.94,131.89,52.69,252.05l3.49,6.48L275.67,138.58Z"/>
          </g>
          <g id="Grupo_129451" data-name="Grupo 129451" opacity="0.4">
            <path id="Trazado_181079" data-name="Trazado 181079" d="M284.57,152.58l-20.48-33.77,29.95-4.57,9.21,11.26Z" fill="#fff"/>
          </g>
          <path id="Trazado_181080" data-name="Trazado 181080" d="M287.17,204l4-4.22s-.47-9.61,1.17-12l.85-1.42s-.85-4.67,1.66-5.75c.71-1.77,1.63-2.49,2.88-1.5,0,0-.7-3.52,2.58-4s4.22,14.42,4.22,14.42,1.64,6.68-2.11,6.68c0,0-2.11,2.34-4.46,2.58,0,0-.7,4-4,3.75Z" transform="translate(-41.97 -30.48)" fill="#a57e6d"/>
          <path id="Trazado_181081" data-name="Trazado 181081" d="M297.46,197.07a1.23,1.23,0,0,1,.37.48,2.65,2.65,0,0,1,.19,1.65,3.69,3.69,0,0,1-1.23,2.13,7.45,7.45,0,0,1-2.62,1.43,18.481,18.481,0,0,1-5.22,1,6.32,6.32,0,0,1-2.2-.12,33.109,33.109,0,0,0,7.25-1.41,7.51,7.51,0,0,0,2.47-1.3,3.45,3.45,0,0,0,1.19-1.85,3.34,3.34,0,0,0-.2-2.01Z" transform="translate(-41.97 -30.48)" fill="#755246"/>
          <path id="Trazado_181082" data-name="Trazado 181082" d="M300.37,191.78c-.16,0-.17-3-.88-6.58s-1.83-6.36-1.68-6.42a6.179,6.179,0,0,1,.87,1.76A26.776,26.776,0,0,1,300,185.1a28.479,28.479,0,0,1,.51,4.72,6.07,6.07,0,0,1-.14,1.96Z" transform="translate(-41.97 -30.48)" fill="#755246"/>
          <path id="Trazado_181083" data-name="Trazado 181083" d="M297.54,193.42c-.15,0-.43-2.91-1.18-6.43s-1.66-6.32-1.52-6.37a22.481,22.481,0,0,1,2,6.26A22.809,22.809,0,0,1,297.54,193.42Z" transform="translate(-41.97 -30.48)" fill="#755246"/>
          <path id="Trazado_181084" data-name="Trazado 181084" d="M302.78,193.31c.12-.08.61.84.29,2s-1.2,1.72-1.26,1.59a17.115,17.115,0,0,0,.76-1.72C302.82,194.2,302.64,193.36,302.78,193.31Z" transform="translate(-41.97 -30.48)" fill="#755246"/>
          <path id="Trazado_181085" data-name="Trazado 181085" d="M293.62,194a19.64,19.64,0,0,1-.31-3.65,20.921,20.921,0,0,1-.15-3.66,9.7,9.7,0,0,1,.67,3.63,10.08,10.08,0,0,1-.21,3.68Z" transform="translate(-41.97 -30.48)" fill="#755246"/>
          <path id="Trazado_181086" data-name="Trazado 181086" d="M154.56,197.64s-13.23,27.89-15.23,32.05-5.23,11.85,0,16.16S181,250.43,181,250.43l1.81-14.69-24-5.81,14.1-21.17Z" transform="translate(-41.97 -30.48)" fill="#a57e6d"/>
          <path id="Trazado_181087" data-name="Trazado 181087" d="M186,236a12,12,0,0,1,3.16-4.16c2.29-2,7.33-3.54,8-5.45s2.56-.42,2.11,1.95c-.28,1.52-3.4,5.49-3.4,5.49s3.66.91,6.1-.49,11-3.93,11.88-2.73-1.21,1.79-2.16,2.34c-.73.41-6.4,3.22-6.4,3.22s11.28-.38,12.7.16,0,1.94-.75,2c-.44,0-2.38,1.75-3.75,3a5.1,5.1,0,0,1-3.42,1.38h-2.62l8,.84s1.37,1.26-.54,1.92c-.86.29-25,3.77-26.88,3.88-3.24.19-8.36,1-8.36,1l1.3-15Z" transform="translate(-41.97 -30.48)" fill="#a57e6d"/>
          <path id="Trazado_181088" data-name="Trazado 181088" d="M217.4,238.39A17.16,17.16,0,0,1,212,240a17.56,17.56,0,0,1-5.6.33c0-.15,2.49-.3,5.51-.84S217.35,238.25,217.4,238.39Z" transform="translate(-41.97 -30.48)" fill="#755246"/>
        </g>
        <g id="Capa_7" data-name="Capa 7">
          <path id="Trazado_181089" data-name="Trazado 181089" d="M243.07,135.86l6.28-11.08a29.7,29.7,0,1,1,7.11,7.91h0Z" transform="translate(-41.97 -30.48)" fill="#fff"/>
          <path id="Trazado_181090" data-name="Trazado 181090" d="M243.07,135.86l13.43-3h.18l-.11-.15h0l-.17.16a29.66,29.66,0,0,0,14.24,6,26.87,26.87,0,0,0,4.7.24c.81,0,1.63-.06,2.47-.13l2.5-.38A29.76,29.76,0,0,0,303.55,102a29.15,29.15,0,0,0-6.37-12.22,29.84,29.84,0,0,0-11.44-8.17,30.37,30.37,0,0,0-13.32-2.05,29.24,29.24,0,0,0-12.22,3.62,30.15,30.15,0,0,0-14.09,17.35,32,32,0,0,0-1.29,9.66,29.54,29.54,0,0,0,4.45,14.72v-.12l-6.18,11.14,6.38-11v-.12a29.51,29.51,0,0,1-4.31-14.61,31.87,31.87,0,0,1,1.32-9.54A29.78,29.78,0,0,1,260.4,83.49a28.88,28.88,0,0,1,12-3.53,29.84,29.84,0,0,1,13.11,2,29.4,29.4,0,0,1,11.26,8,28.74,28.74,0,0,1,6.27,12,30,30,0,0,1,.36,13,29.626,29.626,0,0,1-23.21,23.11l-2.47.38c-.82.07-1.64.09-2.44.14a25.291,25.291,0,0,1-4.64-.22,29.46,29.46,0,0,1-14.14-5.86l-.74-.57.57.73h0l.07-.19Z" transform="translate(-41.97 -30.48)" fill="#263238"/>
          <path id="Trazado_181091" data-name="Trazado 181091" d="M217.79,80.53l4.15-4.15,8,7.11,15.7-15.11,3.86,4.14L229.34,91.49Z" fill="#ff5151"/>
        </g>
      </g>
      <path id="Trazado_182571" data-name="Trazado 182571" d="M7.438,12.656H3.328L2.547,15H.055L4.289,3.625H6.461L10.719,15H8.227Zm-3.477-1.9H6.8L5.375,6.5Zm12.648,3.383A2.831,2.831,0,0,1,14.3,15.156a2.67,2.67,0,0,1-2.074-.781,3.335,3.335,0,0,1-.73-2.289V6.547H13.75v5.467q0,1.322,1.2,1.322a1.63,1.63,0,0,0,1.578-.8V6.547H18.8V15H16.672ZM23.2,4.469V6.547h1.445V8.2H23.2v4.219a1.007,1.007,0,0,0,.18.672.9.9,0,0,0,.688.2,3.6,3.6,0,0,0,.664-.055v1.711a4.648,4.648,0,0,1-1.367.2,2.156,2.156,0,0,1-2.422-2.4V8.2H19.711V6.547h1.234V4.469ZM29.8,15.156a4.15,4.15,0,0,1-3.027-1.141A4.054,4.054,0,0,1,25.6,10.977v-.219a5.106,5.106,0,0,1,.492-2.277,3.612,3.612,0,0,1,1.395-1.547,3.914,3.914,0,0,1,2.059-.543,3.508,3.508,0,0,1,2.73,1.094,4.444,4.444,0,0,1,1,3.1v.922H27.891a2.1,2.1,0,0,0,.66,1.328,2,2,0,0,0,1.395.5,2.437,2.437,0,0,0,2.039-.945l1.109,1.242a3.389,3.389,0,0,1-1.375,1.121A4.511,4.511,0,0,1,29.8,15.156Zm-.258-6.945a1.411,1.411,0,0,0-1.09.455,2.357,2.357,0,0,0-.535,1.3h3.141V9.788a1.681,1.681,0,0,0-.406-1.165A1.456,1.456,0,0,0,29.539,8.211Zm7.094-1.664.07.977a2.951,2.951,0,0,1,2.43-1.133,2.453,2.453,0,0,1,2,.789A3.682,3.682,0,0,1,41.8,9.539V15H39.547V9.581a1.47,1.47,0,0,0-.312-1.045A1.4,1.4,0,0,0,38.2,8.211a1.553,1.553,0,0,0-1.43.814V15H34.508V6.547Zm9.586-2.078V6.547h1.445V8.2H46.219v4.219a1.007,1.007,0,0,0,.18.672.9.9,0,0,0,.688.2,3.6,3.6,0,0,0,.664-.055v1.711a4.648,4.648,0,0,1-1.367.2,2.156,2.156,0,0,1-2.422-2.4V8.2H42.727V6.547h1.234V4.469ZM51.3,15H49.039V6.547H51.3Zm-2.4-10.641a1.112,1.112,0,0,1,.34-.836,1.465,1.465,0,0,1,1.848,0,1.105,1.105,0,0,1,.344.836,1.108,1.108,0,0,1-.348.844,1.448,1.448,0,0,1-1.836,0A1.108,1.108,0,0,1,48.906,4.359Zm7.773,8.977a1.481,1.481,0,0,0,1.016-.344,1.2,1.2,0,0,0,.406-.914h2.117a2.9,2.9,0,0,1-.469,1.574,3.093,3.093,0,0,1-1.262,1.109,3.949,3.949,0,0,1-1.77.395A3.67,3.67,0,0,1,53.859,14a4.56,4.56,0,0,1-1.047-3.184v-.148a4.508,4.508,0,0,1,1.039-3.117A3.627,3.627,0,0,1,56.7,6.391a3.555,3.555,0,0,1,2.543.9,3.2,3.2,0,0,1,.973,2.4H58.1A1.551,1.551,0,0,0,57.7,8.623a1.51,1.51,0,0,0-2.223.163,3.333,3.333,0,0,0-.4,1.866v.235a3.375,3.375,0,0,0,.4,1.878A1.377,1.377,0,0,0,56.68,13.336ZM63.891,15H61.625V6.547h2.266Zm-2.4-10.641a1.112,1.112,0,0,1,.34-.836,1.465,1.465,0,0,1,1.848,0,1.105,1.105,0,0,1,.344.836,1.108,1.108,0,0,1-.348.844,1.448,1.448,0,0,1-1.836,0A1.108,1.108,0,0,1,61.492,4.359ZM65.4,10.711a5.094,5.094,0,0,1,.887-3.148,2.877,2.877,0,0,1,2.426-1.172,2.589,2.589,0,0,1,2.039.922V3h2.266V15H70.977l-.109-.9A2.657,2.657,0,0,1,68.7,15.156,2.869,2.869,0,0,1,66.3,13.98,5.258,5.258,0,0,1,65.4,10.711Zm2.258.161A3.355,3.355,0,0,0,68.07,12.7a1.348,1.348,0,0,0,1.2.636,1.51,1.51,0,0,0,1.477-.887V9.1a1.489,1.489,0,0,0-1.461-.887Q67.656,8.211,67.656,10.872ZM79.664,15a2.507,2.507,0,0,1-.227-.758,2.732,2.732,0,0,1-2.133.914,3,3,0,0,1-2.059-.719,2.312,2.312,0,0,1-.816-1.812,2.389,2.389,0,0,1,1-2.062A4.915,4.915,0,0,1,78.3,9.836h1.039V9.352a1.393,1.393,0,0,0-.3-.937,1.183,1.183,0,0,0-.949-.352,1.345,1.345,0,0,0-.895.273.929.929,0,0,0-.324.75H74.617a2.268,2.268,0,0,1,.453-1.359,3,3,0,0,1,1.281-.98,4.669,4.669,0,0,1,1.859-.355,3.689,3.689,0,0,1,2.48.785,2.747,2.747,0,0,1,.918,2.207v3.664a4.041,4.041,0,0,0,.336,1.82V15ZM77.8,13.43a1.945,1.945,0,0,0,.922-.223,1.462,1.462,0,0,0,.625-.6V11.156H78.5q-1.7,0-1.8,1.172l-.008.133a.9.9,0,0,0,.3.7A1.153,1.153,0,0,0,77.8,13.43Zm5.2-2.719a5.094,5.094,0,0,1,.887-3.148A2.877,2.877,0,0,1,86.3,6.391a2.589,2.589,0,0,1,2.039.922V3h2.266V15H88.57l-.109-.9a2.657,2.657,0,0,1-2.172,1.055,2.869,2.869,0,0,1-2.395-1.176A5.258,5.258,0,0,1,82.992,10.711Zm2.258.161a3.355,3.355,0,0,0,.414,1.829,1.348,1.348,0,0,0,1.2.636,1.51,1.51,0,0,0,1.477-.887V9.1a1.489,1.489,0,0,0-1.461-.887Q85.25,8.211,85.25,10.872Z" transform="translate(800 1069)" fill="#592fe6"/>
      <path id="Trazado_182572" data-name="Trazado 182572" d="M3.508,15H1.164V3.625H3.508Zm4.1-8.453.07.977a2.951,2.951,0,0,1,2.43-1.133,2.453,2.453,0,0,1,2,.789,3.682,3.682,0,0,1,.672,2.359V15H10.523V9.581a1.47,1.47,0,0,0-.312-1.045,1.4,1.4,0,0,0-1.039-.325,1.553,1.553,0,0,0-1.43.814V15H5.484V6.547ZM17.2,4.469V6.547h1.445V8.2H17.2v4.219a1.007,1.007,0,0,0,.18.672.9.9,0,0,0,.688.2,3.6,3.6,0,0,0,.664-.055v1.711a4.648,4.648,0,0,1-1.367.2,2.156,2.156,0,0,1-2.422-2.4V8.2H13.7V6.547h1.234V4.469Zm6.594,10.688a4.15,4.15,0,0,1-3.027-1.141,4.054,4.054,0,0,1-1.168-3.039v-.219a5.106,5.106,0,0,1,.492-2.277A3.612,3.612,0,0,1,21.48,6.934a3.914,3.914,0,0,1,2.059-.543,3.508,3.508,0,0,1,2.73,1.094,4.444,4.444,0,0,1,1,3.1v.922H21.883a2.1,2.1,0,0,0,.66,1.328,2,2,0,0,0,1.395.5,2.437,2.437,0,0,0,2.039-.945l1.109,1.242a3.389,3.389,0,0,1-1.375,1.121A4.511,4.511,0,0,1,23.789,15.156Zm-.258-6.945a1.411,1.411,0,0,0-1.09.455,2.357,2.357,0,0,0-.535,1.3h3.141V9.788a1.681,1.681,0,0,0-.406-1.165A1.456,1.456,0,0,0,23.531,8.211Zm4.688,2.5a4.954,4.954,0,0,1,.926-3.133,3,3,0,0,1,2.5-1.187,2.631,2.631,0,0,1,2.164.953l.094-.8h2.047v8.172a3.613,3.613,0,0,1-.5,1.93,3.236,3.236,0,0,1-1.418,1.25,4.985,4.985,0,0,1-2.141.43,4.635,4.635,0,0,1-1.812-.371A3.217,3.217,0,0,1,28.734,17l1-1.375a2.645,2.645,0,0,0,2.047.945,1.936,1.936,0,0,0,1.4-.48,1.8,1.8,0,0,0,.5-1.363v-.453a2.612,2.612,0,0,1-2.055.883,2.992,2.992,0,0,1-2.465-1.191,4.953,4.953,0,0,1-.941-3.16Zm2.258.161a3.1,3.1,0,0,0,.461,1.809,1.465,1.465,0,0,0,1.266.655,1.567,1.567,0,0,0,1.477-.777V8.988a1.563,1.563,0,0,0-1.461-.777,1.474,1.474,0,0,0-1.277.667A3.5,3.5,0,0,0,30.477,10.872ZM42.43,8.664a6.134,6.134,0,0,0-.812-.062,1.654,1.654,0,0,0-1.68.867V15H37.68V6.547h2.133l.063,1.008a2.092,2.092,0,0,1,1.883-1.164,2.366,2.366,0,0,1,.7.1ZM45.9,15H43.633V6.547H45.9ZM43.5,4.359a1.112,1.112,0,0,1,.34-.836,1.465,1.465,0,0,1,1.848,0,1.105,1.105,0,0,1,.344.836,1.108,1.108,0,0,1-.348.844,1.448,1.448,0,0,1-1.836,0A1.108,1.108,0,0,1,43.5,4.359Zm3.906,6.352a5.094,5.094,0,0,1,.887-3.148,2.877,2.877,0,0,1,2.426-1.172,2.589,2.589,0,0,1,2.039.922V3h2.266V15H52.984l-.109-.9A2.657,2.657,0,0,1,50.7,15.156a2.869,2.869,0,0,1-2.395-1.176A5.258,5.258,0,0,1,47.406,10.711Zm2.258.161a3.355,3.355,0,0,0,.414,1.829,1.348,1.348,0,0,0,1.2.636,1.51,1.51,0,0,0,1.477-.887V9.1A1.489,1.489,0,0,0,51.3,8.211Q49.664,8.211,49.664,10.872ZM61.672,15a2.507,2.507,0,0,1-.227-.758,2.732,2.732,0,0,1-2.133.914,3,3,0,0,1-2.059-.719,2.312,2.312,0,0,1-.816-1.812,2.389,2.389,0,0,1,1-2.062,4.915,4.915,0,0,1,2.879-.727h1.039V9.352a1.393,1.393,0,0,0-.3-.937,1.183,1.183,0,0,0-.949-.352,1.345,1.345,0,0,0-.895.273.929.929,0,0,0-.324.75H56.625a2.268,2.268,0,0,1,.453-1.359,3,3,0,0,1,1.281-.98,4.669,4.669,0,0,1,1.859-.355,3.689,3.689,0,0,1,2.48.785,2.747,2.747,0,0,1,.918,2.207v3.664a4.041,4.041,0,0,0,.336,1.82V15ZM59.8,13.43a1.945,1.945,0,0,0,.922-.223,1.462,1.462,0,0,0,.625-.6V11.156h-.844q-1.7,0-1.8,1.172l-.008.133a.9.9,0,0,0,.3.7A1.153,1.153,0,0,0,59.8,13.43ZM65,10.711a5.094,5.094,0,0,1,.887-3.148,2.877,2.877,0,0,1,2.426-1.172,2.589,2.589,0,0,1,2.039.922V3h2.266V15H70.578l-.109-.9A2.657,2.657,0,0,1,68.3,15.156,2.869,2.869,0,0,1,65.9,13.98,5.258,5.258,0,0,1,65,10.711Zm2.258.161a3.355,3.355,0,0,0,.414,1.829,1.348,1.348,0,0,0,1.2.636,1.51,1.51,0,0,0,1.477-.887V9.1a1.489,1.489,0,0,0-1.461-.887Q67.258,8.211,67.258,10.872Z" transform="translate(800 1118)" fill="#592fe6"/>
      <path id="Trazado_182569" data-name="Trazado 182569" d="M9.945,11.211A4.025,4.025,0,0,1,8.59,14.1a4.76,4.76,0,0,1-3.223,1.055,4.28,4.28,0,0,1-3.441-1.473A6.038,6.038,0,0,1,.672,9.641v-.7A6.819,6.819,0,0,1,1.25,6.055,4.332,4.332,0,0,1,2.9,4.137a4.629,4.629,0,0,1,2.5-.668A4.637,4.637,0,0,1,8.57,4.523,4.326,4.326,0,0,1,9.961,7.484H7.617A2.376,2.376,0,0,0,7,5.887a2.271,2.271,0,0,0-1.605-.5,1.991,1.991,0,0,0-1.754.84,4.707,4.707,0,0,0-.6,2.605V9.7a5.038,5.038,0,0,0,.559,2.7,1.954,1.954,0,0,0,1.762.852,2.314,2.314,0,0,0,1.621-.5A2.241,2.241,0,0,0,7.6,11.211Zm1.039-.516a5.013,5.013,0,0,1,.484-2.242A3.546,3.546,0,0,1,12.863,6.93a4.069,4.069,0,0,1,2.113-.539A3.849,3.849,0,0,1,17.77,7.438a4.2,4.2,0,0,1,1.207,2.844l.016.578a4.418,4.418,0,0,1-1.086,3.121,3.775,3.775,0,0,1-2.914,1.176,3.793,3.793,0,0,1-2.918-1.172,4.5,4.5,0,0,1-1.09-3.187Zm2.258.16A3.16,3.16,0,0,0,13.7,12.7a1.628,1.628,0,0,0,2.578.008,3.457,3.457,0,0,0,.461-2.015,3.128,3.128,0,0,0-.461-1.831,1.5,1.5,0,0,0-1.3-.649,1.474,1.474,0,0,0-1.281.646A3.516,3.516,0,0,0,13.242,10.856Zm9.219-4.309.07.977a2.951,2.951,0,0,1,2.43-1.133,2.453,2.453,0,0,1,2,.789,3.682,3.682,0,0,1,.672,2.359V15H25.375V9.581a1.47,1.47,0,0,0-.312-1.045,1.4,1.4,0,0,0-1.039-.325,1.553,1.553,0,0,0-1.43.814V15H20.336V6.547Zm11.461,6.117a.727.727,0,0,0-.41-.652,4.659,4.659,0,0,0-1.316-.426q-3.016-.633-3.016-2.562a2.323,2.323,0,0,1,.934-1.879,3.766,3.766,0,0,1,2.441-.754,4.053,4.053,0,0,1,2.574.758,2.388,2.388,0,0,1,.965,1.969H33.836a1.092,1.092,0,0,0-.312-.8A1.322,1.322,0,0,0,32.547,8a1.351,1.351,0,0,0-.883.258.814.814,0,0,0-.312.656.7.7,0,0,0,.355.605,3.657,3.657,0,0,0,1.2.4,9.8,9.8,0,0,1,1.422.379,2.336,2.336,0,0,1,1.789,2.273,2.2,2.2,0,0,1-.992,1.871,4.28,4.28,0,0,1-2.562.715,4.47,4.47,0,0,1-1.887-.379,3.166,3.166,0,0,1-1.293-1.039,2.414,2.414,0,0,1-.469-1.426h2.141a1.179,1.179,0,0,0,.445.922,1.766,1.766,0,0,0,1.109.32,1.635,1.635,0,0,0,.98-.246A.766.766,0,0,0,33.922,12.664Zm7.539,2.492a4.15,4.15,0,0,1-3.027-1.141,4.054,4.054,0,0,1-1.168-3.039v-.219a5.106,5.106,0,0,1,.492-2.277,3.612,3.612,0,0,1,1.395-1.547,3.914,3.914,0,0,1,2.059-.543,3.508,3.508,0,0,1,2.73,1.094,4.444,4.444,0,0,1,1,3.1v.922H39.555a2.1,2.1,0,0,0,.66,1.328,2,2,0,0,0,1.395.5,2.437,2.437,0,0,0,2.039-.945l1.109,1.242a3.389,3.389,0,0,1-1.375,1.121A4.511,4.511,0,0,1,41.461,15.156ZM41.2,8.211a1.411,1.411,0,0,0-1.09.455,2.357,2.357,0,0,0-.535,1.3h3.141V9.788a1.681,1.681,0,0,0-.406-1.165A1.456,1.456,0,0,0,41.2,8.211Zm9.766.453a6.134,6.134,0,0,0-.812-.062,1.654,1.654,0,0,0-1.68.867V15H46.219V6.547h2.133l.063,1.008A2.092,2.092,0,0,1,50.3,6.391a2.366,2.366,0,0,1,.7.1Zm4.391,3.578,1.57-5.7h2.359L56.438,15H54.281L51.43,6.547h2.359ZM65.063,15a2.507,2.507,0,0,1-.227-.758,2.732,2.732,0,0,1-2.133.914,3,3,0,0,1-2.059-.719,2.312,2.312,0,0,1-.816-1.812,2.389,2.389,0,0,1,1-2.062A4.915,4.915,0,0,1,63.7,9.836h1.039V9.352a1.393,1.393,0,0,0-.3-.937,1.183,1.183,0,0,0-.949-.352,1.345,1.345,0,0,0-.895.273.929.929,0,0,0-.324.75H60.016a2.268,2.268,0,0,1,.453-1.359,3,3,0,0,1,1.281-.98,4.669,4.669,0,0,1,1.859-.355,3.689,3.689,0,0,1,2.48.785,2.747,2.747,0,0,1,.918,2.207v3.664a4.041,4.041,0,0,0,.336,1.82V15ZM63.2,13.43a1.945,1.945,0,0,0,.922-.223,1.462,1.462,0,0,0,.625-.6V11.156H63.9q-1.7,0-1.8,1.172l-.008.133a.9.9,0,0,0,.3.7A1.153,1.153,0,0,0,63.2,13.43Zm9.063-.094a1.481,1.481,0,0,0,1.016-.344,1.2,1.2,0,0,0,.406-.914H75.8a2.9,2.9,0,0,1-.469,1.574,3.093,3.093,0,0,1-1.262,1.109,3.949,3.949,0,0,1-1.77.395A3.67,3.67,0,0,1,69.438,14a4.56,4.56,0,0,1-1.047-3.184v-.148A4.508,4.508,0,0,1,69.43,7.555a3.627,3.627,0,0,1,2.852-1.164,3.555,3.555,0,0,1,2.543.9A3.2,3.2,0,0,1,75.8,9.7H73.68a1.551,1.551,0,0,0-.406-1.072,1.51,1.51,0,0,0-2.223.163,3.333,3.333,0,0,0-.4,1.866v.235a3.375,3.375,0,0,0,.4,1.878A1.377,1.377,0,0,0,72.258,13.336ZM79.469,15H77.2V6.547h2.266ZM77.07,4.359a1.112,1.112,0,0,1,.34-.836,1.465,1.465,0,0,1,1.848,0,1.105,1.105,0,0,1,.344.836,1.108,1.108,0,0,1-.348.844,1.448,1.448,0,0,1-1.836,0A1.108,1.108,0,0,1,77.07,4.359ZM80.977,10.7a5.013,5.013,0,0,1,.484-2.242A3.546,3.546,0,0,1,82.855,6.93a4.069,4.069,0,0,1,2.113-.539,3.849,3.849,0,0,1,2.793,1.047,4.2,4.2,0,0,1,1.207,2.844l.016.578A4.418,4.418,0,0,1,87.9,13.98a4.209,4.209,0,0,1-5.832,0,4.5,4.5,0,0,1-1.09-3.187Zm2.258.16a3.16,3.16,0,0,0,.453,1.843,1.628,1.628,0,0,0,2.578.008,3.457,3.457,0,0,0,.461-2.015,3.128,3.128,0,0,0-.461-1.831,1.5,1.5,0,0,0-1.3-.649,1.474,1.474,0,0,0-1.281.646A3.516,3.516,0,0,0,83.234,10.856ZM85.414,3h2.461L85.711,5.422H83.875Zm7.039,3.547.07.977a2.951,2.951,0,0,1,2.43-1.133,2.453,2.453,0,0,1,2,.789,3.682,3.682,0,0,1,.672,2.359V15H95.367V9.581a1.47,1.47,0,0,0-.312-1.045,1.4,1.4,0,0,0-1.039-.325,1.553,1.553,0,0,0-1.43.814V15H90.328V6.547Z" transform="translate(796 1167)" fill="#592fe6"/>
      <path id="Trazado_182570" data-name="Trazado 182570" d="M1.016,15V3.625h3.5A5.315,5.315,0,0,1,7.2,4.3,4.712,4.712,0,0,1,9.047,6.223a5.928,5.928,0,0,1,.664,2.832v.523a5.945,5.945,0,0,1-.652,2.82,4.672,4.672,0,0,1-1.84,1.914A5.355,5.355,0,0,1,4.539,15ZM3.359,5.523v7.594H4.492a2.545,2.545,0,0,0,2.1-.9,4.06,4.06,0,0,0,.742-2.57v-.6a4.124,4.124,0,0,0-.719-2.629,2.537,2.537,0,0,0-2.1-.895ZM13.648,15H11.383V6.547h2.266ZM11.25,4.359a1.112,1.112,0,0,1,.34-.836,1.277,1.277,0,0,1,.926-.328,1.28,1.28,0,0,1,.922.328,1.105,1.105,0,0,1,.344.836,1.108,1.108,0,0,1-.348.844,1.448,1.448,0,0,1-1.836,0A1.108,1.108,0,0,1,11.25,4.359Zm8.836,8.3a.727.727,0,0,0-.41-.652,4.659,4.659,0,0,0-1.316-.426q-3.016-.633-3.016-2.562a2.323,2.323,0,0,1,.934-1.879,3.766,3.766,0,0,1,2.441-.754,4.053,4.053,0,0,1,2.574.758,2.388,2.388,0,0,1,.965,1.969H20a1.092,1.092,0,0,0-.312-.8A1.322,1.322,0,0,0,18.711,8a1.351,1.351,0,0,0-.883.258.814.814,0,0,0-.312.656.7.7,0,0,0,.355.605,3.657,3.657,0,0,0,1.2.4,9.8,9.8,0,0,1,1.422.379,2.336,2.336,0,0,1,1.789,2.273,2.2,2.2,0,0,1-.992,1.871,4.28,4.28,0,0,1-2.562.715,4.47,4.47,0,0,1-1.887-.379,3.166,3.166,0,0,1-1.293-1.039,2.414,2.414,0,0,1-.469-1.426h2.141a1.179,1.179,0,0,0,.445.922,1.766,1.766,0,0,0,1.109.32,1.635,1.635,0,0,0,.98-.246A.766.766,0,0,0,20.086,12.664Zm11.258-1.812a5.07,5.07,0,0,1-.887,3.129,2.843,2.843,0,0,1-2.395,1.176,2.633,2.633,0,0,1-2.07-.891V18.25H23.734V6.547h2.094l.078.828a2.654,2.654,0,0,1,2.141-.984,2.862,2.862,0,0,1,2.43,1.156,5.207,5.207,0,0,1,.867,3.188Zm-2.258-.172a3.345,3.345,0,0,0-.418-1.826,1.36,1.36,0,0,0-1.215-.643,1.478,1.478,0,0,0-1.461.815V12.5a1.5,1.5,0,0,0,1.477.839Q29.086,13.336,29.086,10.679Zm3.3.016a5.013,5.013,0,0,1,.484-2.242A3.546,3.546,0,0,1,34.27,6.93a4.069,4.069,0,0,1,2.113-.539,3.849,3.849,0,0,1,2.793,1.047,4.2,4.2,0,0,1,1.207,2.844l.016.578a4.418,4.418,0,0,1-1.086,3.121,4.209,4.209,0,0,1-5.832,0,4.5,4.5,0,0,1-1.09-3.187Zm2.258.16A3.16,3.16,0,0,0,35.1,12.7a1.628,1.628,0,0,0,2.578.008,3.457,3.457,0,0,0,.461-2.015A3.128,3.128,0,0,0,37.68,8.86a1.5,1.5,0,0,0-1.3-.649,1.474,1.474,0,0,0-1.281.646A3.516,3.516,0,0,0,34.648,10.856Zm9.219-4.309.07.977a2.951,2.951,0,0,1,2.43-1.133,2.453,2.453,0,0,1,2,.789,3.682,3.682,0,0,1,.672,2.359V15H46.781V9.581a1.47,1.47,0,0,0-.312-1.045,1.4,1.4,0,0,0-1.039-.325A1.553,1.553,0,0,0,44,9.025V15H41.742V6.547ZM53.133,15H50.867V6.547h2.266Zm-2.4-10.641a1.112,1.112,0,0,1,.34-.836,1.465,1.465,0,0,1,1.848,0,1.105,1.105,0,0,1,.344.836,1.108,1.108,0,0,1-.348.844,1.448,1.448,0,0,1-1.836,0A1.108,1.108,0,0,1,50.734,4.359Zm11.875,6.492a5.119,5.119,0,0,1-.867,3.168,2.872,2.872,0,0,1-2.422,1.137,2.639,2.639,0,0,1-2.2-1.055l-.1.9H54.992V3H57.25V7.3A2.571,2.571,0,0,1,59.3,6.391,2.9,2.9,0,0,1,61.73,7.527a5.126,5.126,0,0,1,.879,3.2Zm-2.258-.172A3.381,3.381,0,0,0,59.945,8.8a1.372,1.372,0,0,0-1.211-.592A1.489,1.489,0,0,0,57.25,9.1v3.346a1.509,1.509,0,0,0,1.5.893,1.4,1.4,0,0,0,1.438-1.081A5.6,5.6,0,0,0,60.352,10.679ZM66.383,15H64.117V6.547h2.266Zm-2.4-10.641a1.112,1.112,0,0,1,.34-.836,1.465,1.465,0,0,1,1.848,0,1.105,1.105,0,0,1,.344.836,1.108,1.108,0,0,1-.348.844,1.448,1.448,0,0,1-1.836,0A1.108,1.108,0,0,1,63.984,4.359ZM70.625,15H68.359V3h2.266Zm4.242,0H72.6V6.547h2.266Zm-2.4-10.641a1.112,1.112,0,0,1,.34-.836,1.465,1.465,0,0,1,1.848,0A1.105,1.105,0,0,1,75,4.359a1.108,1.108,0,0,1-.348.844,1.448,1.448,0,0,1-1.836,0A1.108,1.108,0,0,1,72.469,4.359Zm3.906,6.352a5.094,5.094,0,0,1,.887-3.148,2.877,2.877,0,0,1,2.426-1.172,2.589,2.589,0,0,1,2.039.922V3h2.266V15H81.953l-.109-.9a2.657,2.657,0,0,1-2.172,1.055,2.869,2.869,0,0,1-2.395-1.176A5.258,5.258,0,0,1,76.375,10.711Zm2.258.161a3.355,3.355,0,0,0,.414,1.829,1.348,1.348,0,0,0,1.2.636,1.51,1.51,0,0,0,1.477-.887V9.1a1.489,1.489,0,0,0-1.461-.887Q78.633,8.211,78.633,10.872ZM90.641,15a2.507,2.507,0,0,1-.227-.758,2.732,2.732,0,0,1-2.133.914,3,3,0,0,1-2.059-.719,2.312,2.312,0,0,1-.816-1.812,2.389,2.389,0,0,1,1-2.062,4.915,4.915,0,0,1,2.879-.727H90.32V9.352a1.393,1.393,0,0,0-.3-.937,1.183,1.183,0,0,0-.949-.352,1.345,1.345,0,0,0-.895.273.929.929,0,0,0-.324.75H85.594a2.268,2.268,0,0,1,.453-1.359,3,3,0,0,1,1.281-.98,4.669,4.669,0,0,1,1.859-.355,3.689,3.689,0,0,1,2.48.785,2.747,2.747,0,0,1,.918,2.207v3.664a4.041,4.041,0,0,0,.336,1.82V15Zm-1.867-1.57a1.945,1.945,0,0,0,.922-.223,1.462,1.462,0,0,0,.625-.6V11.156h-.844q-1.7,0-1.8,1.172l-.008.133a.9.9,0,0,0,.3.7A1.153,1.153,0,0,0,88.773,13.43Zm5.2-2.719a5.094,5.094,0,0,1,.887-3.148,2.877,2.877,0,0,1,2.426-1.172,2.589,2.589,0,0,1,2.039.922V3h2.266V15H99.547l-.109-.9a2.657,2.657,0,0,1-2.172,1.055,2.869,2.869,0,0,1-2.395-1.176A5.258,5.258,0,0,1,93.969,10.711Zm2.258.161a3.355,3.355,0,0,0,.414,1.829,1.348,1.348,0,0,0,1.2.636,1.51,1.51,0,0,0,1.477-.887V9.1a1.489,1.489,0,0,0-1.461-.887Q96.227,8.211,96.227,10.872Z" transform="translate(794 1216)" fill="#592fe6"/>
      <path id="Trazado_182573" data-name="Trazado 182573" d="M9.945,11.211A4.025,4.025,0,0,1,8.59,14.1a4.76,4.76,0,0,1-3.223,1.055,4.28,4.28,0,0,1-3.441-1.473A6.038,6.038,0,0,1,.672,9.641v-.7A6.819,6.819,0,0,1,1.25,6.055,4.332,4.332,0,0,1,2.9,4.137a4.629,4.629,0,0,1,2.5-.668A4.637,4.637,0,0,1,8.57,4.523,4.326,4.326,0,0,1,9.961,7.484H7.617A2.376,2.376,0,0,0,7,5.887a2.271,2.271,0,0,0-1.605-.5,1.991,1.991,0,0,0-1.754.84,4.707,4.707,0,0,0-.6,2.605V9.7a5.038,5.038,0,0,0,.559,2.7,1.954,1.954,0,0,0,1.762.852,2.314,2.314,0,0,0,1.621-.5A2.241,2.241,0,0,0,7.6,11.211Zm1.039-.516a5.013,5.013,0,0,1,.484-2.242A3.546,3.546,0,0,1,12.863,6.93a4.069,4.069,0,0,1,2.113-.539A3.849,3.849,0,0,1,17.77,7.438a4.2,4.2,0,0,1,1.207,2.844l.016.578a4.418,4.418,0,0,1-1.086,3.121,3.775,3.775,0,0,1-2.914,1.176,3.793,3.793,0,0,1-2.918-1.172,4.5,4.5,0,0,1-1.09-3.187Zm2.258.16A3.16,3.16,0,0,0,13.7,12.7a1.628,1.628,0,0,0,2.578.008,3.457,3.457,0,0,0,.461-2.015,3.128,3.128,0,0,0-.461-1.831,1.5,1.5,0,0,0-1.3-.649,1.474,1.474,0,0,0-1.281.646A3.516,3.516,0,0,0,13.242,10.856Zm9.219-4.309.07.977a2.951,2.951,0,0,1,2.43-1.133,2.453,2.453,0,0,1,2,.789,3.682,3.682,0,0,1,.672,2.359V15H25.375V9.581a1.47,1.47,0,0,0-.312-1.045,1.4,1.4,0,0,0-1.039-.325,1.553,1.553,0,0,0-1.43.814V15H20.336V6.547ZM29.891,15V8.2H28.633V6.547h1.258V6.156a3.17,3.17,0,0,1,.98-2.457,3.945,3.945,0,0,1,2.723-.863,9.031,9.031,0,0,1,2.563.461l-.328,1.867a10,10,0,0,0-1.187-.293,5.835,5.835,0,0,0-.906-.066q-1.578,0-1.578,1.4v.344H33.82V8.2H32.156V15Zm7.32,0H34.945V6.547h2.266Zm1.516-4.289a5.094,5.094,0,0,1,.887-3.148,2.877,2.877,0,0,1,2.426-1.172,2.589,2.589,0,0,1,2.039.922V3h2.266V15H44.3l-.109-.9a2.657,2.657,0,0,1-2.172,1.055,2.869,2.869,0,0,1-2.395-1.176A5.258,5.258,0,0,1,38.727,10.711Zm2.258.161A3.355,3.355,0,0,0,41.4,12.7a1.348,1.348,0,0,0,1.2.636,1.51,1.51,0,0,0,1.477-.887V9.1a1.489,1.489,0,0,0-1.461-.887Q40.984,8.211,40.984,10.872Zm11,4.285a4.15,4.15,0,0,1-3.027-1.141,4.054,4.054,0,0,1-1.168-3.039v-.219a5.106,5.106,0,0,1,.492-2.277,3.612,3.612,0,0,1,1.395-1.547,3.914,3.914,0,0,1,2.059-.543,3.508,3.508,0,0,1,2.73,1.094,4.444,4.444,0,0,1,1,3.1v.922H50.078a2.1,2.1,0,0,0,.66,1.328,2,2,0,0,0,1.395.5,2.437,2.437,0,0,0,2.039-.945l1.109,1.242a3.389,3.389,0,0,1-1.375,1.121A4.511,4.511,0,0,1,51.984,15.156Zm-.258-6.945a1.411,1.411,0,0,0-1.09.455,2.357,2.357,0,0,0-.535,1.3h3.141V9.788a1.681,1.681,0,0,0-.406-1.165A1.456,1.456,0,0,0,51.727,8.211ZM58.82,6.547l.07.977a2.951,2.951,0,0,1,2.43-1.133,2.453,2.453,0,0,1,2,.789,3.682,3.682,0,0,1,.672,2.359V15H61.734V9.581a1.47,1.47,0,0,0-.312-1.045,1.4,1.4,0,0,0-1.039-.325,1.553,1.553,0,0,0-1.43.814V15H56.7V6.547Zm10.4,6.789a1.481,1.481,0,0,0,1.016-.344,1.2,1.2,0,0,0,.406-.914h2.117a2.9,2.9,0,0,1-.469,1.574,3.093,3.093,0,0,1-1.262,1.109,3.949,3.949,0,0,1-1.77.395A3.67,3.67,0,0,1,66.4,14a4.56,4.56,0,0,1-1.047-3.184v-.148a4.508,4.508,0,0,1,1.039-3.117,3.627,3.627,0,0,1,2.852-1.164,3.555,3.555,0,0,1,2.543.9,3.2,3.2,0,0,1,.973,2.4H70.641a1.551,1.551,0,0,0-.406-1.072,1.51,1.51,0,0,0-2.223.163,3.333,3.333,0,0,0-.4,1.866v.235a3.375,3.375,0,0,0,.4,1.878A1.377,1.377,0,0,0,69.219,13.336ZM76.43,15H74.164V6.547H76.43Zm-2.4-10.641a1.112,1.112,0,0,1,.34-.836,1.465,1.465,0,0,1,1.848,0,1.105,1.105,0,0,1,.344.836,1.108,1.108,0,0,1-.348.844,1.448,1.448,0,0,1-1.836,0A1.108,1.108,0,0,1,74.031,4.359ZM83.188,15a2.507,2.507,0,0,1-.227-.758,2.732,2.732,0,0,1-2.133.914,3,3,0,0,1-2.059-.719,2.312,2.312,0,0,1-.816-1.812,2.389,2.389,0,0,1,1-2.062,4.915,4.915,0,0,1,2.879-.727h1.039V9.352a1.393,1.393,0,0,0-.3-.937,1.183,1.183,0,0,0-.949-.352,1.345,1.345,0,0,0-.895.273.929.929,0,0,0-.324.75H78.141a2.268,2.268,0,0,1,.453-1.359,3,3,0,0,1,1.281-.98,4.669,4.669,0,0,1,1.859-.355,3.689,3.689,0,0,1,2.48.785,2.747,2.747,0,0,1,.918,2.207v3.664a4.041,4.041,0,0,0,.336,1.82V15ZM81.32,13.43a1.945,1.945,0,0,0,.922-.223,1.462,1.462,0,0,0,.625-.6V11.156h-.844q-1.7,0-1.8,1.172l-.008.133a.9.9,0,0,0,.3.7A1.153,1.153,0,0,0,81.32,13.43ZM89.25,15H86.984V3H89.25Zm4.242,0H91.227V6.547h2.266Zm-2.4-10.641a1.112,1.112,0,0,1,.34-.836,1.465,1.465,0,0,1,1.848,0,1.105,1.105,0,0,1,.344.836,1.108,1.108,0,0,1-.348.844,1.448,1.448,0,0,1-1.836,0A1.108,1.108,0,0,1,91.094,4.359ZM95,10.711a5.094,5.094,0,0,1,.887-3.148,2.877,2.877,0,0,1,2.426-1.172,2.589,2.589,0,0,1,2.039.922V3h2.266V15h-2.039l-.109-.9A2.657,2.657,0,0,1,98.3,15.156,2.869,2.869,0,0,1,95.9,13.98,5.258,5.258,0,0,1,95,10.711Zm2.258.161a3.355,3.355,0,0,0,.414,1.829,1.348,1.348,0,0,0,1.2.636,1.51,1.51,0,0,0,1.477-.887V9.1a1.489,1.489,0,0,0-1.461-.887Q97.258,8.211,97.258,10.872ZM109.266,15a2.507,2.507,0,0,1-.227-.758,2.732,2.732,0,0,1-2.133.914,3,3,0,0,1-2.059-.719,2.312,2.312,0,0,1-.816-1.812,2.389,2.389,0,0,1,1-2.062,4.915,4.915,0,0,1,2.879-.727h1.039V9.352a1.393,1.393,0,0,0-.3-.937,1.183,1.183,0,0,0-.949-.352,1.345,1.345,0,0,0-.895.273.929.929,0,0,0-.324.75h-2.258a2.268,2.268,0,0,1,.453-1.359,3,3,0,0,1,1.281-.98,4.669,4.669,0,0,1,1.859-.355,3.689,3.689,0,0,1,2.48.785,2.747,2.747,0,0,1,.918,2.207v3.664a4.041,4.041,0,0,0,.336,1.82V15ZM107.4,13.43a1.945,1.945,0,0,0,.922-.223,1.462,1.462,0,0,0,.625-.6V11.156H108.1q-1.7,0-1.8,1.172l-.008.133a.9.9,0,0,0,.3.7A1.153,1.153,0,0,0,107.4,13.43Zm5.2-2.719a5.094,5.094,0,0,1,.887-3.148,2.877,2.877,0,0,1,2.426-1.172,2.589,2.589,0,0,1,2.039.922V3h2.266V15h-2.039l-.109-.9a2.657,2.657,0,0,1-2.172,1.055A2.869,2.869,0,0,1,113.5,13.98,5.258,5.258,0,0,1,112.594,10.711Zm2.258.161a3.355,3.355,0,0,0,.414,1.829,1.348,1.348,0,0,0,1.2.636,1.51,1.51,0,0,0,1.477-.887V9.1a1.489,1.489,0,0,0-1.461-.887Q114.852,8.211,114.852,10.872Z" transform="translate(789 1258)" fill="#592fe6"/>
    </g>
  </g>
</svg>
