<svg xmlns="http://www.w3.org/2000/svg" width="344.33" height="334.92" viewBox="0 0 344.33 334.92">
  <g id="Documents-pana" transform="translate(-64.67 -113.65)">
    <g id="freepik--Floor--inject-12">
      <path id="Trazado_181136" data-name="Trazado 181136" d="M409,448.31c0,.15-77.09.26-172.16.26s-172.17-.11-172.17-.26,77.07-.26,172.17-.26S409,448.17,409,448.31Z" fill="#263238"/>
    </g>
    <g id="freepik--filing-cabinet--inject-12">
      <path id="Trazado_181143" data-name="Trazado 181143" d="M240.63,207.78l-2.14,240.53h95.28V211.06Z" fill="#455a64"/>
      <path id="Trazado_181144" data-name="Trazado 181144" d="M243.62,247.75v33.72h45.13V249.35Z" fill="#263238"/>
      <path id="Trazado_181145" data-name="Trazado 181145" d="M291.96,209.59l-.85,238.72h42.66V211.06Z" fill="#263238"/>
      <path id="Trazado_181146" data-name="Trazado 181146" d="M243.62,210.75v33.72h45.13V212.34Z" fill="#263238"/>
      <path id="Trazado_181147" data-name="Trazado 181147" d="M259.18,220.02V225h13.81v-5.43Z" fill="#263238"/>
      <rect id="Rectángulo_39557" data-name="Rectángulo 39557" width="14.26" height="2.04" transform="translate(259.18 229.19)" fill="#263238"/>
      <g id="Grupo_129452" data-name="Grupo 129452" opacity="0.4">
        <path id="Trazado_181148" data-name="Trazado 181148" d="M259.18,220.02V225h13.81v-5.43Z"/>
        <rect id="Rectángulo_39558" data-name="Rectángulo 39558" width="14.26" height="2.04" transform="translate(259.18 229.19)"/>
      </g>
      <path id="Trazado_181149" data-name="Trazado 181149" d="M243.62,328.9v33.71h45.13V330.49Z" fill="#263238"/>
      <path id="Trazado_181150" data-name="Trazado 181150" d="M259.18,338.17v4.98h13.81v-5.43Z" fill="#263238"/>
      <rect id="Rectángulo_39559" data-name="Rectángulo 39559" width="14.26" height="2.04" transform="translate(259.18 347.34)" fill="#263238"/>
      <g id="Grupo_129453" data-name="Grupo 129453" opacity="0.4">
        <path id="Trazado_181151" data-name="Trazado 181151" d="M259.18,338.17v4.98h13.81v-5.43Z"/>
        <rect id="Rectángulo_39560" data-name="Rectángulo 39560" width="14.26" height="2.04" transform="translate(259.18 347.34)"/>
      </g>
      <path id="Trazado_181152" data-name="Trazado 181152" d="M243.62,366.9v33.71h45.13V368.49Z" fill="#263238"/>
      <path id="Trazado_181153" data-name="Trazado 181153" d="M259.18,376.17v4.98h13.81v-5.43Z" fill="#263238"/>
      <rect id="Rectángulo_39561" data-name="Rectángulo 39561" width="14.26" height="2.04" transform="translate(259.18 385.34)" fill="#263238"/>
      <g id="Grupo_129454" data-name="Grupo 129454" opacity="0.4">
        <path id="Trazado_181154" data-name="Trazado 181154" d="M259.18,376.17v4.98h13.81v-5.43Z"/>
        <rect id="Rectángulo_39562" data-name="Rectángulo 39562" width="14.26" height="2.04" transform="translate(259.18 385.34)"/>
      </g>
      <path id="Trazado_181155" data-name="Trazado 181155" d="M243.14,404.9v33.71h45.13V406.49Z" fill="#263238"/>
      <path id="Trazado_181156" data-name="Trazado 181156" d="M258.69,414.17v4.98H272.5v-5.43Z" fill="#263238"/>
      <rect id="Rectángulo_39563" data-name="Rectángulo 39563" width="14.26" height="2.04" transform="translate(258.69 423.34)" fill="#263238"/>
      <g id="Grupo_129455" data-name="Grupo 129455" opacity="0.4">
        <path id="Trazado_181157" data-name="Trazado 181157" d="M258.69,414.17v4.98H272.5v-5.43Z"/>
        <rect id="Rectángulo_39564" data-name="Rectángulo 39564" width="14.26" height="2.04" transform="translate(258.69 423.34)"/>
      </g>
      <rect id="Rectángulo_39565" data-name="Rectángulo 39565" width="45.13" height="33.72" transform="translate(197.63 287.5)" fill="#455a64"/>
      <path id="Trazado_181158" data-name="Trazado 181158" d="M213.49,302.69v4.68h12.98v-5.1Z" fill="#263238"/>
      <rect id="Rectángulo_39566" data-name="Rectángulo 39566" width="13.4" height="1.91" transform="translate(213.49 311.31)" fill="#263238"/>
      <g id="Grupo_129456" data-name="Grupo 129456" opacity="0.4">
        <path id="Trazado_181159" data-name="Trazado 181159" d="M213.49,302.69v4.68h12.98v-5.1Z"/>
        <rect id="Rectángulo_39567" data-name="Rectángulo 39567" width="13.4" height="1.91" transform="translate(213.49 311.31)"/>
      </g>
      <path id="Trazado_181160" data-name="Trazado 181160" d="M242.76,287.5l44.49-.33-.81,34.04H242.76Z" fill="#263238"/>
      <path id="Trazado_181161" data-name="Trazado 181161" d="M242.76,287.5l44.49-.33-.81,34.04H242.76Z" opacity="0.4"/>
      <rect id="Rectángulo_39568" data-name="Rectángulo 39568" width="44.48" height="30.28" transform="translate(241.19 256.88)" fill="#fafafa"/>
      <path id="Trazado_181162" data-name="Trazado 181162" d="M230.4,261.71l2.24,25.73,53-.27L282.5,262a3,3,0,0,0-3.36-2.56l-21.39,1.86-3.64-2.7a1.75,1.75,0,0,0-1.14-.31l-21.12,1.86a1.53,1.53,0,0,0-1.45,1.56Z" fill="#263238"/>
      <path id="Trazado_181163" data-name="Trazado 181163" d="M230.4,261.71l2.24,25.73,53-.27L282.5,262a3,3,0,0,0-3.36-2.56l-21.39,1.86-3.64-2.7a1.75,1.75,0,0,0-1.14-.31l-21.12,1.86a1.53,1.53,0,0,0-1.45,1.56Z" fill="#ff9b6a"/>
      <path id="Trazado_181164" data-name="Trazado 181164" d="M215.19,280.74l-1.12-6.7,49.03-3.24,4.31,16.63-51.25-.26Z" fill="#fafafa"/>
      <path id="Trazado_181165" data-name="Trazado 181165" d="M208.93,277.48l.87,10h52.44L261,277.75a3,3,0,0,0-3.35-2.56l-21.39,1.86-3.65-2.7a1.7,1.7,0,0,0-1.13-.31l-21.12,1.87a1.51,1.51,0,0,0-1.43,1.57Z" fill="#ff9b6a"/>
      <path id="Trazado_181166" data-name="Trazado 181166" d="M208.93,277.48l.87,10h52.44L261,277.75a3,3,0,0,0-3.35-2.56l-21.39,1.86-3.65-2.7a1.7,1.7,0,0,0-1.13-.31l-21.12,1.87a1.51,1.51,0,0,0-1.43,1.57Z" fill="#fafafa" opacity="0.7"/>
      <path id="Trazado_181167" data-name="Trazado 181167" d="M264.27,275.29h7a1.76,1.76,0,0,1,1.71,2.16l-2.26,9.71h-3.27Z" fill="#263238"/>
    </g>
    <g id="freepik--Documents--inject-12">
      <path id="Trazado_181168" data-name="Trazado 181168" d="M356,141.33,324.89,148a2,2,0,0,1-2.38-1.62l-4.2-21a2.07,2.07,0,0,1,1.56-2.46l31.1-6.69a2,2,0,0,1,2.38,1.62l4.21,21A2.1,2.1,0,0,1,356,141.33Z" fill="#ff5151"/>
      <path id="Trazado_181169" data-name="Trazado 181169" d="M338.79,129.7l4.76,1.65-3.76,3.45-3.76,3.45-1-5.1-1-5.1Z" fill="#fafafa"/>
      <path id="Trazado_181179" data-name="Trazado 181179" d="M232.22,215.89l-34.17,13.42a160.189,160.189,0,0,0-15.7-47.6l21-9a15.27,15.27,0,0,1,20.4,8.9,167,167,0,0,1,8.47,34.28Z" fill="#fafafa"/>
      <path id="Trazado_181180" data-name="Trazado 181180" d="M232.22,215.89a1.758,1.758,0,0,0-.08-.43c-.08-.28-.12-.71-.2-1.23-.18-1.08-.44-2.69-.82-4.75A175.1,175.1,0,0,0,227,192.21c-.54-1.8-1.11-3.69-1.76-5.63s-1.3-4-2.16-6a15,15,0,0,0-4-5.35,15.63,15.63,0,0,0-6.36-3.17,15,15,0,0,0-7.44.21c-.63.16-1.22.43-1.83.64l-1.82.79-3.71,1.59-15.45,6.65.13-.35c.27.54.56,1.13.86,1.72a167.382,167.382,0,0,1,9.67,24,154.421,154.421,0,0,1,5.15,22l-.28-.16,24.82-9.63,6.94-2.67,1.84-.69c.41-.16.64-.23.64-.23s-.19.1-.59.26l-1.78.73L223,219.64l-24.85,9.87-.24.1v-.27a157.92,157.92,0,0,0-5.2-21.92A168.9,168.9,0,0,0,183,183.54l-.85-1.72-.13-.25.26-.1,15.45-6.64,3.71-1.6,1.82-.78c.64-.22,1.25-.49,1.89-.66a15.56,15.56,0,0,1,7.69-.19,16,16,0,0,1,6.54,3.28,15.28,15.28,0,0,1,4.12,5.53c.88,2.06,1.49,4.1,2.15,6.05s1.2,3.84,1.73,5.64a163.823,163.823,0,0,1,4,17.34c.34,2.08.58,3.68.72,4.79.06.53.11.94.15,1.25a2.16,2.16,0,0,1-.03.41Z" fill="#263238"/>
      <path id="Trazado_181181" data-name="Trazado 181181" d="M204.49,172.24s5.1,10.46,4.65,10.83,12.66-4.89,12.82-5C222,178.1,215.18,169,204.49,172.24Z" fill="#263238"/>
      <path id="Trazado_181182" data-name="Trazado 181182" d="M202.58,186.34a25,25,0,0,1-4.63,2.24,26.319,26.319,0,0,1-4.82,1.76,24.312,24.312,0,0,1,4.62-2.24,26,26,0,0,1,4.83-1.76Z" fill="#263238"/>
      <path id="Trazado_181183" data-name="Trazado 181183" d="M219.54,184.84c.06.13-5.48,2.82-12.37,6s-12.53,5.65-12.59,5.52,5.48-2.81,12.37-6S219.48,184.71,219.54,184.84Z" fill="#263238"/>
      <path id="Trazado_181184" data-name="Trazado 181184" d="M221.84,191c.06.13-5.48,2.81-12.37,6s-12.53,5.66-12.59,5.53,5.48-2.81,12.37-6S221.78,190.86,221.84,191Z" fill="#263238"/>
      <path id="Trazado_181185" data-name="Trazado 181185" d="M224.19,197.11c.06.13-5.48,2.81-12.37,6s-12.53,5.65-12.59,5.52,5.48-2.81,12.37-6S224.13,197,224.19,197.11Z" fill="#263238"/>
      <path id="Trazado_181186" data-name="Trazado 181186" d="M217.58,208.46a13.668,13.668,0,0,1-2.32,1.22c-1.46.69-3.49,1.62-5.75,2.61-3.54,1.56-6.58,2.83-7.73,3.22l-.16.06v-.15c.08-.37.14-.54.17-.54a2.717,2.717,0,0,1,0,.57l-.12-.1c1.06-.58,4-2,7.59-3.53,2.26-1,4.32-1.87,5.82-2.48a12.359,12.359,0,0,1,2.5-.88Z" fill="#263238"/>
      <path id="Trazado_181187" data-name="Trazado 181187" d="M375.86,215l-37.93-16.4h0a31.721,31.721,0,0,0,9.1-12.29l11.07-26.58a15.9,15.9,0,0,1,11.9-9.35h0l35.18,15.24h0a20.56,20.56,0,0,0-8.55,9.62L384,204.37A27.84,27.84,0,0,1,375.86,215Z" fill="#ff9b6a"/>
      <path id="Trazado_181188" data-name="Trazado 181188" d="M375.86,215l-37.93-16.4h0a31.721,31.721,0,0,0,9.1-12.29l11.07-26.58a15.9,15.9,0,0,1,11.9-9.35h0l35.18,15.24h0a20.56,20.56,0,0,0-8.55,9.62L384,204.37A27.84,27.84,0,0,1,375.86,215Z" fill="#fafafa" opacity="0.7"/>
      <path id="Trazado_181189" data-name="Trazado 181189" d="M389.53,176.63c-.06.13-6.27-2.46-13.88-5.8s-13.73-6.14-13.67-6.27,6.27,2.46,13.88,5.8S389.59,176.5,389.53,176.63Z" fill="#263238"/>
      <path id="Trazado_181190" data-name="Trazado 181190" d="M388,181.86c-.06.13-6.48-2.56-14.35-6s-14.19-6.35-14.13-6.48,6.48,2.55,14.34,6S388,181.73,388,181.86Z" fill="#263238"/>
      <path id="Trazado_181191" data-name="Trazado 181191" d="M386,186.48c-.05.13-6.48-2.56-14.34-6s-14.19-6.34-14.14-6.47,6.48,2.55,14.35,6S386,186.34,386,186.48Z" fill="#263238"/>
      <path id="Trazado_181192" data-name="Trazado 181192" d="M383.93,191.1c-.06.13-6.48-2.56-14.35-6s-14.19-6.34-14.13-6.48,6.48,2.56,14.34,6S384,191,383.93,191.1Z" fill="#263238"/>
      <path id="Trazado_181193" data-name="Trazado 181193" d="M381.9,195.71c0,.14-6.48-2.55-14.34-6s-14.19-6.34-14.13-6.48,6.47,2.56,14.34,6S382,195.58,381.9,195.71Z" fill="#263238"/>
      <path id="Trazado_181194" data-name="Trazado 181194" d="M366.19,194.33a10,10,0,0,1-2.24-.78c-1.36-.54-3.22-1.32-5.26-2.22s-3.88-1.73-5.2-2.36a10.3,10.3,0,0,1-2.09-1.12,11.48,11.48,0,0,1,2.24.78c1.36.55,3.22,1.33,5.26,2.22s3.88,1.74,5.2,2.37a11,11,0,0,1,2.09,1.11Z" fill="#263238"/>
      <path id="Trazado_181195" data-name="Trazado 181195" d="M375.74,205c-.05,0,.11-.36.2-1a4.32,4.32,0,0,0-.54-2.66,4,4,0,1,0-2.6,5.93,4.24,4.24,0,0,0,2.32-1.41c.42-.51.58-.86.62-.84a2.16,2.16,0,0,1-.46,1,4.17,4.17,0,0,1-2.39,1.64,4.42,4.42,0,0,1-4.14-1.05,4.48,4.48,0,0,1,3.39-7.73,4.41,4.41,0,0,1,3.58,2.33,4.23,4.23,0,0,1,.41,2.87,2.21,2.21,0,0,1-.39.92Z" fill="#263238"/>
      <rect id="Rectángulo_39569" data-name="Rectángulo 39569" width="12" height="1.73" transform="translate(364.267 159.363) rotate(23.66)" fill="#263238"/>
      <path id="Trazado_181196" data-name="Trazado 181196" d="M353.91,262.05l-40.95-.96,15.24-20.4h39.95Z" fill="#f3efff"/>
      <path id="Trazado_181197" data-name="Trazado 181197" d="M319.04,258.03l32.39.99-4.5-6.62-6.37,2.73-5.04-8.71Z" fill="#ff9b6a"/>
      <path id="Trazado_181198" data-name="Trazado 181198" d="M346.07,246.36a2.1,2.1,0,1,1-2.1-2.1,2.1,2.1,0,0,1,2.1,2.1Z" fill="#ff9b6a"/>
      <g id="Grupo_129457" data-name="Grupo 129457" opacity="0.7">
        <path id="Trazado_181199" data-name="Trazado 181199" d="M319.04,258.03l32.39.99-4.5-6.62-6.37,2.73-5.04-8.71Z" fill="#f3efff"/>
        <path id="Trazado_181200" data-name="Trazado 181200" d="M346.07,246.36a2.1,2.1,0,1,1-2.1-2.1,2.1,2.1,0,0,1,2.1,2.1Z" fill="#f3efff"/>
      </g>
      <path id="Trazado_181201" data-name="Trazado 181201" d="M242.85,142.14l-36.07,16.02-.86-27.48,36.03-17.03Z" fill="#ff9b6a"/>
      <path id="Trazado_181202" data-name="Trazado 181202" d="M242.85,142.14l-36.07,16.02-.86-27.48,36.03-17.03Z" fill="#d7cbff" opacity="0.7"/>
      <path id="Trazado_181203" data-name="Trazado 181203" d="M208.38,153.33l32.73-15.26-10.64-6.18-4.09,7.2-12.01-5.77Z" fill="#f3efff"/>
      <path id="Trazado_181204" data-name="Trazado 181204" d="M226.92,131.89a1.76,1.76,0,1,1-.512-1.251,1.77,1.77,0,0,1,.512,1.251Z" fill="#f3efff"/>
      <path id="Trazado_181205" data-name="Trazado 181205" d="M219.79,130.07a24.712,24.712,0,0,0-.49-3,12.5,12.5,0,0,0-4.56-6.77,12.32,12.32,0,0,0-11.63-1.72,11.52,11.52,0,0,0-3.1,1.67,11.67,11.67,0,0,0-2.59,2.61,12.23,12.23,0,0,0,0,14.47,11.67,11.67,0,0,0,2.59,2.61,11.52,11.52,0,0,0,3.1,1.67,12.39,12.39,0,0,0,6.44.55,12.25,12.25,0,0,0,5.19-2.28,12.48,12.48,0,0,0,4.56-6.76,24.345,24.345,0,0,0,.49-3,6.149,6.149,0,0,1,0,.8,6,6,0,0,1-.07,1,8.361,8.361,0,0,1-.24,1.31A12.333,12.333,0,0,1,203,142a12.721,12.721,0,0,1-5.94-19.51,12.169,12.169,0,0,1,2.71-2.7,12,12,0,0,1,3.23-1.72A12.59,12.59,0,0,1,215,120a12.41,12.41,0,0,1,4.53,7,8.159,8.159,0,0,1,.24,1.31,10.338,10.338,0,0,1,.06,1.76Z" fill="#263238"/>
      <path id="Trazado_181206" data-name="Trazado 181206" d="M199,139.31c.1.11-3.6,3.54-8.25,7.66s-8.51,7.38-8.6,7.28,3.6-3.54,8.25-7.67S198.92,139.2,199,139.31Z" fill="#263238"/>
    </g>
    <g id="freepik--Character--inject-12">
      <path id="Trazado_181207" data-name="Trazado 181207" d="M120.94,187.44c-3.44-1.86-8.59-.72-10.69,2.58a12.23,12.23,0,0,0-1.33,7.75c.27,2.66.94,5.27,1,7.94a10.2,10.2,0,0,1-.57,4.25,5.37,5.37,0,0,1-2.86,3.07c-2.05.82-4.61,0-6.44,1.27a3.85,3.85,0,0,0-.58,5.46,4.77,4.77,0,0,0,5.67,1c-1.93,1.79-1.57,5.24.38,7a7.24,7.24,0,0,0,7.42,1,14,14,0,0,0,5.92-5.05,31.54,31.54,0,0,0,5.6-18.49,42.26,42.26,0,0,0-3.94-17.85" fill="#263238"/>
      <path id="Trazado_181208" data-name="Trazado 181208" d="M233.25,245.8c-1.15-1.86-9.13,2.59-9.84,2.91s-1.19-.68-.54-.94c.93-.37,10.66-4.55,9.54-6.38-.62-1-2.35.26-2.35.26s-8.81,4.58-9.31,3.69,4.58-3.76,6.36-4.6,2.08-2,1.06-2.48c-.69-.33-6.21,2.13-7.95,3s-6.48,3.37-5.14.24,1.19-6,.6-6.79a1.06,1.06,0,0,0-1.83.84,12.461,12.461,0,0,1-.73,3.35,8,8,0,0,1-1.27,2.43c-.66.86-1.25,1.55-1.77,2.13-5.08,1.78-19.59,6.28-33.15,5-.49-.05-1.2-1-2-2.51l-18.39,5.92c.69,1.42,1.44,3,2.25,4.57,10.26,20.5,57.82-.77,57.82-.77v-.05A100.409,100.409,0,0,0,227.17,253c4.76-1.71,4.61-2.14,4.32-2.66-.79-1.4-8.49,2.7-7.35.86S234.14,247.23,233.25,245.8Z" fill="#eb996e"/>
      <path id="Trazado_181209" data-name="Trazado 181209" d="M168.55,254.73l33.3-12.98,20.55,12.12-36.41,13Z" fill="#263238"/>
      <path id="Trazado_181210" data-name="Trazado 181210" d="M202.79,242.31l3.17-.85a80.37,80.37,0,0,1,16.44,12.41l-.93-.55Z" fill="#fafafa"/>
      <path id="Trazado_181211" data-name="Trazado 181211" d="M222.4,253.87A19.83,19.83,0,0,1,220,252c-1.47-1.19-3.52-2.81-5.83-4.53s-4.45-3.22-6-4.27a22.55,22.55,0,0,1-2.52-1.76,13.8,13.8,0,0,1,2.71,1.45,73.359,73.359,0,0,1,6.13,4.16c2.32,1.73,4.34,3.41,5.76,4.67a15.36,15.36,0,0,1,2.15,2.15Z" fill="#263238"/>
      <path id="Trazado_181212" data-name="Trazado 181212" d="M162.67,283.22l-1.45-30-.11-1.26L177,244.61l-5.06-12.39c-5.58-20.91-25.5-21.22-25.5-21.22l-15.19-1.49L124.4,211s-12.69,2.19-13.17,20.28a70.76,70.76,0,0,0,6.86,31.9l4.65-2.43a14.75,14.75,0,0,1-2.57,8.25,26.75,26.75,0,0,0-4.09,9.39Z" fill="#63bfce"/>
      <path id="Trazado_181213" data-name="Trazado 181213" d="M128.06,227.42c.08,0,.2,1.48.55,3.86a59.59,59.59,0,0,0,5.59,17.83c1.07,2.15,1.82,3.44,1.75,3.48a3.9,3.9,0,0,1-.62-.85c-.38-.56-.88-1.4-1.46-2.46a49.59,49.59,0,0,1-5.62-17.95c-.14-1.2-.21-2.18-.22-2.86a3.619,3.619,0,0,1,.03-1.05Z" fill="#263238"/>
      <path id="Trazado_181214" data-name="Trazado 181214" d="M159.11,245.88a8.08,8.08,0,0,0,2.79-2,5.21,5.21,0,0,0,1.22-3.38,4.48,4.48,0,0,0-2-3.78,4.23,4.23,0,0,0-3.23-.63l-.25.06-.05-.25c-.49-2.41-.89-4.49-1.16-6a15.211,15.211,0,0,1-.34-2.37,13.4,13.4,0,0,1,.65,2.3c.35,1.46.81,3.53,1.34,5.93l-.31-.19a4.67,4.67,0,0,1,3.63.67,4.93,4.93,0,0,1,2.16,4.22,5.46,5.46,0,0,1-1.42,3.63,6.11,6.11,0,0,1-2.15,1.51A2.17,2.17,0,0,1,159.11,245.88Z" fill="#263238"/>
      <path id="Trazado_181215" data-name="Trazado 181215" d="M161.66,258.3a33.5,33.5,0,0,1-.81-6.34c-.27-3.51-.71-6.32-.57-6.35a23.7,23.7,0,0,1,1.09,6.3A49.137,49.137,0,0,1,161.66,258.3Z" fill="#263238"/>
      <path id="Trazado_181216" data-name="Trazado 181216" d="M177.05,244.73a11.751,11.751,0,0,1-2.21,1.3c-1.4.73-3.36,1.7-5.57,2.69s-4.22,1.82-5.7,2.38a11.34,11.34,0,0,1-2.43.8,12.672,12.672,0,0,1,2.29-1.14l5.63-2.52,5.62-2.54A14,14,0,0,1,177.05,244.73Z" fill="#263238"/>
      <path id="Trazado_181217" data-name="Trazado 181217" d="M117.83,230.48a7.49,7.49,0,0,1,0-2.79,7.72,7.72,0,0,1,.48-2.76,7.54,7.54,0,0,1,0,2.8,7.69,7.69,0,0,1-.48,2.75Z" fill="#fafafa"/>
      <path id="Trazado_181218" data-name="Trazado 181218" d="M119.32,236.68a5.25,5.25,0,0,1-2.22-.62,5.42,5.42,0,0,1-2-1.09,5.17,5.17,0,0,1,2.23.61C118.47,236.05,119.38,236.54,119.32,236.68Z" fill="#fafafa"/>
      <path id="Trazado_181219" data-name="Trazado 181219" d="M124.88,233.72a3.2,3.2,0,0,1-.21-2.06,3.553,3.553,0,0,1,.64-2,6.2,6.2,0,0,1-.12,2,6.81,6.81,0,0,1-.31,2.06Z" fill="#fafafa"/>
      <path id="Trazado_181220" data-name="Trazado 181220" d="M124,244.05a3.33,3.33,0,0,1,.4-2.34c.55-1.22,1.42-1.92,1.51-1.82s-.53.91-1,2A13.965,13.965,0,0,1,124,244.05Z" fill="#fafafa"/>
      <path id="Trazado_181221" data-name="Trazado 181221" d="M122,249.74a11.08,11.08,0,0,1-2.21-1.25c-1.2-.72-2.22-1.22-2.16-1.36a4.81,4.81,0,0,1,2.42.91C121.31,248.77,122.12,249.64,122,249.74Z" fill="#fafafa"/>
      <path id="Trazado_181222" data-name="Trazado 181222" d="M130.43,248.57a11.88,11.88,0,0,1-.83,2.53,11.55,11.55,0,0,1-.93,2.49,5,5,0,0,1,.44-2.66,5.14,5.14,0,0,1,1.32-2.36Z" fill="#fafafa"/>
      <path id="Trazado_181223" data-name="Trazado 181223" d="M122,256.09a4.35,4.35,0,0,1-2.07-.33c-1.11-.32-2-.69-1.93-.83a4.35,4.35,0,0,1,2.07.33A4.738,4.738,0,0,1,122,256.09Z" fill="#fafafa"/>
      <path id="Trazado_181224" data-name="Trazado 181224" d="M129.28,220.18a6.56,6.56,0,0,1-2.23,1.31,6.68,6.68,0,0,1-2.44.84A12.76,12.76,0,0,1,129.28,220.18Z" fill="#fafafa"/>
      <path id="Trazado_181225" data-name="Trazado 181225" d="M123.08,213.2c.11.11-.71,1-1.61,2.2a12.491,12.491,0,0,1-1.68,2.14,5.22,5.22,0,0,1,1.27-2.46C122,213.85,123,213.09,123.08,213.2Z" fill="#fafafa"/>
      <path id="Trazado_181226" data-name="Trazado 181226" d="M139.09,229.06a5.86,5.86,0,0,1-2.42-1.56,5.69,5.69,0,0,1-1.77-2.27,14.439,14.439,0,0,1,2.12,1.88C138.16,228.16,139.17,228.93,139.09,229.06Z" fill="#fafafa"/>
      <path id="Trazado_181227" data-name="Trazado 181227" d="M148.64,219.51A12.37,12.37,0,0,1,147,222a11.779,11.779,0,0,1-1.76,2.33,6.57,6.57,0,0,1,1.34-2.63C147.55,220.31,148.54,219.41,148.64,219.51Z" fill="#fafafa"/>
      <path id="Trazado_181228" data-name="Trazado 181228" d="M142.57,237.46a11.72,11.72,0,0,1-4.91,0,11.72,11.72,0,0,1,4.91,0Z" fill="#fafafa"/>
      <path id="Trazado_181229" data-name="Trazado 181229" d="M151.6,234a5.08,5.08,0,0,1-.72-2.68,5,5,0,0,1,.32-2.75,14.06,14.06,0,0,1,.2,2.71,13.56,13.56,0,0,1,.2,2.72Z" fill="#fafafa"/>
      <path id="Trazado_181230" data-name="Trazado 181230" d="M153.94,245.72a7.85,7.85,0,0,1-2.57-1.08,7.71,7.71,0,0,1-2.32-1.53,7.6,7.6,0,0,1,2.57,1.07,7.42,7.42,0,0,1,2.32,1.54Z" fill="#fafafa"/>
      <path id="Trazado_181231" data-name="Trazado 181231" d="M160.38,239.77c.07.13-.51.57-1.29,1s-1.48.67-1.55.54.51-.57,1.3-1S160.32,239.64,160.38,239.77Z" fill="#fafafa"/>
      <path id="Trazado_181232" data-name="Trazado 181232" d="M140.1,250.76a6.18,6.18,0,0,1,.68-3,5.89,5.89,0,0,1,1.67-2.56,19.189,19.189,0,0,1-1.19,2.76A17.55,17.55,0,0,1,140.1,250.76Z" fill="#fafafa"/>
      <path id="Trazado_181233" data-name="Trazado 181233" d="M150.7,255.8a7.41,7.41,0,0,1-1.64-3.1,7.33,7.33,0,0,1-.53-3.47,31.58,31.58,0,0,1,1,3.31A32.182,32.182,0,0,1,150.7,255.8Z" fill="#fafafa"/>
      <path id="Trazado_181234" data-name="Trazado 181234" d="M158.08,252.2c.12.09-.26.72-.56,1.54s-.43,1.54-.58,1.54-.25-.8.09-1.72S158,252.1,158.08,252.2Z" fill="#fafafa"/>
      <path id="Trazado_181235" data-name="Trazado 181235" d="M169.06,243.43a11.87,11.87,0,0,1-4.66,1.67,6.15,6.15,0,0,1,2.24-1.08,6.26,6.26,0,0,1,2.42-.59Z" fill="#fafafa"/>
      <path id="Trazado_181236" data-name="Trazado 181236" d="M168.55,237a4.67,4.67,0,0,1,.24-2.62A4.62,4.62,0,0,1,170,232a13.291,13.291,0,0,1-.74,2.47A12.661,12.661,0,0,1,168.55,237Z" fill="#fafafa"/>
      <path id="Trazado_181237" data-name="Trazado 181237" d="M165.44,231.52a6.88,6.88,0,0,1-5.3-.67,16.149,16.149,0,0,1,2.65.35,15.177,15.177,0,0,1,2.65.32Z" fill="#fafafa"/>
      <path id="Trazado_181238" data-name="Trazado 181238" d="M161.82,225.07a4.19,4.19,0,0,1,1.31-2.1c.94-1,1.94-1.55,2-1.43a12.025,12.025,0,0,1-1.63,1.79C162.6,224.3,162,225.15,161.82,225.07Z" fill="#fafafa"/>
      <path id="Trazado_181239" data-name="Trazado 181239" d="M155.06,220.29a11,11,0,0,1-1.07-4.64A11,11,0,0,1,155.06,220.29Z" fill="#fafafa"/>
      <path id="Trazado_181240" data-name="Trazado 181240" d="M122,270.52c.08.11-.28.55-.81,1s-1,.68-1.13.57.27-.55.8-1S121.94,270.41,122,270.52Z" fill="#fafafa"/>
      <path id="Trazado_181241" data-name="Trazado 181241" d="M160.39,276.5a8.9,8.9,0,0,1-3,.13,9,9,0,0,1-3-.4,18.2,18.2,0,0,1,6.07.27Z" fill="#fafafa"/>
      <path id="Trazado_181242" data-name="Trazado 181242" d="M136.21,252.3a103.975,103.975,0,0,1-9.16,5.68c-5.16,3.01-9.35,5.34-9.42,5.22s4-2.66,9.16-5.67S136.13,252.18,136.21,252.3Z" fill="#263238"/>
      <path id="Trazado_181243" data-name="Trazado 181243" d="M116.67,276.28c-.48,0-5.78,15.64-.71,26,.51,1,2.28,3.38,4.49,6.77,10.5,16.11,37.12,52.19,37.92,57.74,1,6.72,18.15,77,18.15,77h14L178.75,363.6l-17.54-76.07Z" fill="#ffbe9d"/>
      <path id="Trazado_181244" data-name="Trazado 181244" d="M161.78,382.41a9.09,9.09,0,0,0,2.93-7.2c-.12-4.82-2.94-16.32-2.94-16.32l-4.51,2.76s3.55,9.44,3.72,12.4c.2,3.31-.42,4.39-.42,4.39Z" fill="#eb996e"/>
      <path id="Trazado_181245" data-name="Trazado 181245" d="M125.25,315.33l14.81,55L93.79,418.44,103.52,430s56.84-46.6,57.87-53.3c1.18-7.65-12.68-62-12.68-62Z" fill="#ffbe9d"/>
      <path id="Trazado_181246" data-name="Trazado 181246" d="M106.25,428.58h0L95.86,416.29l-2.74,2.59,3.51,4.77c2.42,3.18,10.75,13.73,13.1,15.24C112.35,440.57,106.25,428.58,106.25,428.58Z" fill="#ff9b6a"/>
      <path id="Trazado_181247" data-name="Trazado 181247" d="M110.49,438.69c.1-.09-3.67-4.63-8.42-10.15s-8.7-9.91-8.8-9.82,3.67,4.63,8.42,10.15S110.39,438.78,110.49,438.69Z" fill="#263238"/>
      <path id="Trazado_181248" data-name="Trazado 181248" d="M95.89,421.92c.06,0,.19-.25.34-.7a5.29,5.29,0,0,0,.23-1.88,2.91,2.91,0,0,0-.75-1.78c-.36-.36-.68-.44-.7-.39s.19.25.43.61a3.54,3.54,0,0,1,.53,1.6,9.47,9.47,0,0,1-.09,1.77C95.83,421.61,95.82,421.91,95.89,421.92Z" fill="#263238"/>
      <path id="Trazado_181249" data-name="Trazado 181249" d="M106.7,429.54c0,.15-.53.16-1.13.15s-1.09-.05-1.11-.19.47-.35,1.12-.34S106.73,429.4,106.7,429.54Z" fill="#263238"/>
      <path id="Trazado_181250" data-name="Trazado 181250" d="M107.29,430.69c0,.15-.5.25-1.08.24s-1-.15-1.06-.3.47-.25,1.08-.23S107.3,430.55,107.29,430.69Z" fill="#263238"/>
      <path id="Trazado_181251" data-name="Trazado 181251" d="M107.75,431.71c0,.15-.37.27-.82.34s-.84.06-.88-.08.31-.36.8-.43S107.75,431.57,107.75,431.71Z" fill="#263238"/>
      <path id="Trazado_181252" data-name="Trazado 181252" d="M106.59,429.64a3.56,3.56,0,0,1,.73-1.5,5,5,0,0,1,1.3-1.32,3.9,3.9,0,0,1,1-.5,2.359,2.359,0,0,1,.63-.11.883.883,0,0,1,.47,1.66,5.728,5.728,0,0,1-.93.59,10.057,10.057,0,0,1-1.68.71,3.921,3.921,0,0,1-1.63.32,7.88,7.88,0,0,1,1.5-.67,14.2,14.2,0,0,0,1.57-.78,8,8,0,0,0,.83-.56c.24-.19.31-.5.19-.63a.814.814,0,0,0-.8,0,3.8,3.8,0,0,0-.89.41,5.681,5.681,0,0,0-1.26,1.15C107,429.14,106.66,429.68,106.59,429.64Z" fill="#263238"/>
      <path id="Trazado_181253" data-name="Trazado 181253" d="M106.7,429.35a3.78,3.78,0,0,1,1.64-.39,7,7,0,0,1,1.86.06,4.658,4.658,0,0,1,1.08.31,1.87,1.87,0,0,1,.55.3.74.74,0,0,1,.26.31.55.55,0,0,1,0,.5,1.54,1.54,0,0,1-1.17.68,3.15,3.15,0,0,1-1.15,0,7.2,7.2,0,0,1-1.76-.61c-1-.46-1.36-1.05-1.3-1.09a13.271,13.271,0,0,0,1.45.75,10.131,10.131,0,0,0,1.69.48,3.57,3.57,0,0,0,1,0,1.23,1.23,0,0,0,.78-.39c.1,0-.22-.32-.54-.43a5.2,5.2,0,0,0-1-.31,8.12,8.12,0,0,0-1.75-.16,9.4,9.4,0,0,1-1.64-.01Z" fill="#263238"/>
      <path id="Trazado_181254" data-name="Trazado 181254" d="M106.05,428.33c-.14.11-2.68-2.4-5.47-5.74s-4.85-6.2-4.71-6.3,2.43,2.59,5.22,5.92S106.19,428.22,106.05,428.33Z" fill="#263238"/>
      <path id="Trazado_181255" data-name="Trazado 181255" d="M191.06,443.8h0l-14.74-.16.17,4.63h1c4.28.07,21.76.06,24.58-.85C205.18,446.42,191.06,443.8,191.06,443.8Z" fill="#ff9b6a"/>
      <path id="Trazado_181256" data-name="Trazado 181256" d="M202.37,446.72c0-.14-5.8,0-12.94.29s-12.91.66-12.91.79,5.8,0,12.94-.29S202.37,446.85,202.37,446.72Z" fill="#263238"/>
      <path id="Trazado_181257" data-name="Trazado 181257" d="M181.18,447.56c.06-.05-.08-.31-.37-.71a5.15,5.15,0,0,0-1.42-1.34,3.3,3.3,0,0,0-2-.51c-.54.05-.82.26-.79.31a3.555,3.555,0,0,0,.8,0,3.869,3.869,0,0,1,1.7.57,8.771,8.771,0,0,1,1.42,1.16C180.88,447.41,181.12,447.6,181.18,447.56Z" fill="#263238"/>
      <path id="Trazado_181258" data-name="Trazado 181258" d="M192.16,444c.1.12-.22.51-.62,1s-.76.83-.9.76,0-.59.47-1.1S192.07,443.93,192.16,444Z" fill="#263238"/>
      <path id="Trazado_181259" data-name="Trazado 181259" d="M193.52,444.29c.11.1-.12.54-.51,1s-.82.73-.95.65.1-.52.52-1S193.41,444.19,193.52,444.29Z" fill="#263238"/>
      <path id="Trazado_181260" data-name="Trazado 181260" d="M194.68,444.56c.13.08,0,.45-.25.85s-.51.7-.65.64-.1-.47.16-.9S194.56,444.47,194.68,444.56Z" fill="#263238"/>
      <path id="Trazado_181261" data-name="Trazado 181261" d="M192.17,444.19a3.74,3.74,0,0,1-.77-1.5,5.08,5.08,0,0,1-.26-1.84,3.79,3.79,0,0,1,.25-1.1,2.162,2.162,0,0,1,.32-.56.957.957,0,0,1,1.72.62,6,6,0,0,1-.12,1.1,10.1,10.1,0,0,1-.51,1.76,3.92,3.92,0,0,1-.81,1.48,6.44,6.44,0,0,1,.43-1.6,13.42,13.42,0,0,0,.38-1.71,6.85,6.85,0,0,0,.08-1c0-.3-.22-.55-.41-.53s-.42.27-.55.6a3.34,3.34,0,0,0-.25.95,5.09,5.09,0,0,0,.13,1.7,7.66,7.66,0,0,1,.37,1.63Z" fill="#263238"/>
      <path id="Trazado_181262" data-name="Trazado 181262" d="M192,443.93a3.71,3.71,0,0,1,.76-1.54A7.341,7.341,0,0,1,194,441a5.849,5.849,0,0,1,1-.65,2.591,2.591,0,0,1,.63-.25.87.87,0,0,1,.43,0,.62.62,0,0,1,.43.3,1.49,1.49,0,0,1-.2,1.35,3.731,3.731,0,0,1-.79.88,8.589,8.589,0,0,1-1.68,1,2.63,2.63,0,0,1-1.78.35,11.728,11.728,0,0,0,1.6-.68,9.23,9.23,0,0,0,1.51-1,3.2,3.2,0,0,0,.65-.77,1.12,1.12,0,0,0,.19-.85c0-.1-.42,0-.72.16a5.1,5.1,0,0,0-.9.57,8.758,8.758,0,0,0-1.3,1.27,9.921,9.921,0,0,1-1.07,1.25Z" fill="#263238"/>
      <path id="Trazado_181263" data-name="Trazado 181263" d="M190.71,443.8a37.117,37.117,0,0,1-7.08.37,40.75,40.75,0,0,1-7.08-.4,56.532,56.532,0,0,1,7.08-.12,68.364,68.364,0,0,1,7.08.15Z" fill="#263238"/>
      <path id="Trazado_181264" data-name="Trazado 181264" d="M147,210.48c-.07-3.15-.11-6-.11-6s6.17-.65,6.54-6.76,0-20.22,0-20.22l-11.23-5.49-12.35,9.36.72,29.45a8.22,8.22,0,0,0,8.21,8h0a8.22,8.22,0,0,0,8.22-8.34Z" fill="#ffbe9d"/>
      <path id="Trazado_181265" data-name="Trazado 181265" d="M130.67,186.12s10.09-1,11.87-10.1l11,10.1a11.8,11.8,0,0,0-2.74-13.07c-6.07-6.3-10.23-5-12.61-5-2.21,0-13.42,2.38-16.76,15.13-.24.93-.44,3.22-.59,4.26Z" fill="#263238"/>
      <path id="Trazado_181266" data-name="Trazado 181266" d="M152.09,187.82a.78.78,0,1,1-.78-.78A.78.78,0,0,1,152.09,187.82Z" fill="#263238"/>
      <path id="Trazado_181267" data-name="Trazado 181267" d="M152.85,187c-.1.1-.68-.39-1.52-.44s-1.48.36-1.56.25.06-.24.33-.43a2.089,2.089,0,0,1,2.47.15C152.82,186.72,152.9,186.92,152.85,187Z" fill="#263238"/>
      <path id="Trazado_181268" data-name="Trazado 181268" d="M143,187.82a.78.78,0,1,1-.78-.78A.78.78,0,0,1,143,187.82Z" fill="#263238"/>
      <path id="Trazado_181269" data-name="Trazado 181269" d="M143.51,187c-.1.1-.68-.39-1.52-.44s-1.48.36-1.57.25.07-.24.34-.43a2.09,2.09,0,0,1,2.47.15C143.48,186.72,143.56,186.92,143.51,187Z" fill="#263238"/>
      <path id="Trazado_181270" data-name="Trazado 181270" d="M146.55,194.08a6,6,0,0,1,1.38-.17c.21,0,.42,0,.47-.2a1.23,1.23,0,0,0-.12-.68l-.58-1.75c-.4-1.24-.74-2.37-1-3.19a6.189,6.189,0,0,1-.31-1.36A5.48,5.48,0,0,1,147,188c.29.81.67,1.93,1.07,3.17.2.61.38,1.2.56,1.75a1.37,1.37,0,0,1,.08.88.5.5,0,0,1-.36.31,1.629,1.629,0,0,1-.36,0A5.48,5.48,0,0,1,146.55,194.08Z" fill="#263238"/>
      <path id="Trazado_181271" data-name="Trazado 181271" d="M143.77,194.88a33.311,33.311,0,0,0,4.07,1.4,2.33,2.33,0,0,1-2.79.8C143.25,196.32,143.77,194.88,143.77,194.88Z" fill="#fafafa"/>
      <path id="Trazado_181272" data-name="Trazado 181272" d="M146.88,204.52a15.24,15.24,0,0,1-8.1-2.73s2,4.5,8.1,4.25Z" fill="#eb996e"/>
      <path id="Trazado_181273" data-name="Trazado 181273" d="M142.24,175.29s2.24,4.33,1.28,7.59l9.81,2.53S155.56,173,142.24,175.29Z" fill="#263238"/>
      <path id="Trazado_181274" data-name="Trazado 181274" d="M120.79,187.44s-1.73,13.13,10.17,15.67l-.29-17Z" fill="#263238"/>
      <path id="Trazado_181275" data-name="Trazado 181275" d="M143.11,171.29a7,7,0,0,1,3,.36A13.54,13.54,0,0,1,155.75,182a7,7,0,0,1,.14,3c-.12,0-.13-1.16-.61-2.93a14.32,14.32,0,0,0-9.3-10C144.25,171.5,143.1,171.4,143.11,171.29Z" fill="#263238"/>
      <path id="Trazado_181276" data-name="Trazado 181276" d="M146,187.44a4.478,4.478,0,0,0-.22-1.16,4.78,4.78,0,0,0-1.75-2.56,4.63,4.63,0,1,0,0,7.43,4.78,4.78,0,0,0,1.75-2.56c.2-.73.18-1.16.22-1.15a1.36,1.36,0,0,1,0,.3,3.65,3.65,0,0,1-.1.88,4.83,4.83,0,0,1-3.8,3.66,4.934,4.934,0,1,1,0-9.69,4.88,4.88,0,0,1,2.07.94,4.78,4.78,0,0,1,1.73,2.72,3.7,3.7,0,0,1,.1.88,1.5,1.5,0,0,1,0,.31Z" fill="#263238"/>
      <path id="Trazado_181277" data-name="Trazado 181277" d="M157.07,187.44a4.672,4.672,0,0,0-.21-1.16,4.78,4.78,0,0,0-1.75-2.56,4.627,4.627,0,1,0,.03,7.45,4.78,4.78,0,0,0,1.75-2.56c.19-.73.17-1.16.21-1.15a1,1,0,0,1,0,.3,3.65,3.65,0,0,1-.1.88,4.91,4.91,0,1,1-8.7-4.12,4.77,4.77,0,0,1,2.31-1.71,4.83,4.83,0,0,1,2.59-.2,4.89,4.89,0,0,1,2.06.94,4.8,4.8,0,0,1,1.74,2.72,3.7,3.7,0,0,1,.1.88,1.09,1.09,0,0,1-.03.29Z" fill="#263238"/>
      <path id="Trazado_181278" data-name="Trazado 181278" d="M147.49,187.59c0,.09-.4.17-.88.17s-.88-.08-.88-.17.4-.17.88-.17S147.49,187.49,147.49,187.59Z" fill="#263238"/>
      <path id="Trazado_181279" data-name="Trazado 181279" d="M136.61,188.44a27.923,27.923,0,0,1-4.22,1,26.911,26.911,0,0,1-4.27.67,27.587,27.587,0,0,1,4.21-1,28.2,28.2,0,0,1,4.28-.67Z" fill="#263238"/>
      <path id="Trazado_181280" data-name="Trazado 181280" d="M130,195.64a2.55,2.55,0,0,1-3.19-.43,3.75,3.75,0,0,1-.82-3.29,2.81,2.81,0,0,1,1-1.8,2.9,2.9,0,0,1,2.74.17Z" fill="#ffbe9d"/>
      <path id="Trazado_181281" data-name="Trazado 181281" d="M128.63,194.65c0-.08-.31-.13-.67-.39a1.62,1.62,0,0,1-.67-1.45,1.57,1.57,0,0,1,.93-1.3c.4-.2.72-.19.72-.27s-.31-.22-.85-.08a1.85,1.85,0,0,0-.32,3.42C128.28,194.81,128.63,194.72,128.63,194.65Z" fill="#eb996e"/>
      <path id="Trazado_181282" data-name="Trazado 181282" d="M117.82,273.19s-10.73,11.14-8.52,35S114.41,364,114.41,364s13.8-12.45,20.81-7.13,14,9.67,23.15,3.9c12.48-7.9,26.16-2.68,26.16-2.68l-22-78.89Z" fill="#263238"/>
      <path id="Trazado_181283" data-name="Trazado 181283" d="M131.76,276a5.37,5.37,0,0,1-.45,2.36,10.05,10.05,0,0,1-3.47,4.63,9.94,9.94,0,0,1-5.46,1.88,5.26,5.26,0,0,1-2.38-.3c0-.09.91.08,2.35-.06a10.33,10.33,0,0,0,8.62-6.29C131.54,276.92,131.67,276,131.76,276Z" fill="#455a64"/>
      <path id="Trazado_181284" data-name="Trazado 181284" d="M122.18,276.33c-.14-.05-.07-.61.16-1.27s.51-1.14.65-1.1.06.62-.16,1.27S122.31,276.37,122.18,276.33Z" fill="#455a64"/>
      <path id="Trazado_181285" data-name="Trazado 181285" d="M119.81,285.74a5.8,5.8,0,0,1,.26-2.43,5.86,5.86,0,0,1,.77-2.31,5.94,5.94,0,0,1-.26,2.42,5.84,5.84,0,0,1-.77,2.32Z" fill="#455a64"/>
      <path id="Trazado_181286" data-name="Trazado 181286" d="M118.58,295.37a11.41,11.41,0,0,1,.48-4.83,6,6,0,0,1,0,2.44,5.75,5.75,0,0,1-.48,2.39Z" fill="#455a64"/>
      <path id="Trazado_181287" data-name="Trazado 181287" d="M118.34,305.08a5.85,5.85,0,0,1-.25-2.43,5.75,5.75,0,0,1,.26-2.43,6,6,0,0,1,.26,2.43A5.69,5.69,0,0,1,118.34,305.08Z" fill="#455a64"/>
      <path id="Trazado_181288" data-name="Trazado 181288" d="M118.94,314.78a6,6,0,0,1-.45-2.4,5.72,5.72,0,0,1,.06-2.44,5.82,5.82,0,0,1,.45,2.39A6,6,0,0,1,118.94,314.78Z" fill="#455a64"/>
      <path id="Trazado_181289" data-name="Trazado 181289" d="M120.17,324.42a5.79,5.79,0,0,1-.6-2.38,5.86,5.86,0,0,1-.08-2.44,6,6,0,0,1,.6,2.37A6.13,6.13,0,0,1,120.17,324.42Z" fill="#455a64"/>
      <path id="Trazado_181290" data-name="Trazado 181290" d="M121.94,334a5.73,5.73,0,0,1-.74-2.33,6,6,0,0,1-.22-2.43,11.69,11.69,0,0,1,1,4.76Z" fill="#455a64"/>
      <path id="Trazado_181291" data-name="Trazado 181291" d="M124.14,343.42a5.89,5.89,0,0,1-.82-2.3,5.82,5.82,0,0,1-.32-2.42,5.89,5.89,0,0,1,.82,2.3,5.8,5.8,0,0,1,.32,2.42Z" fill="#455a64"/>
      <path id="Trazado_181292" data-name="Trazado 181292" d="M125.94,350.55c-.14,0-.39-.48-.56-1.15s-.2-1.24-.06-1.27.39.48.56,1.15S126.08,350.52,125.94,350.55Z" fill="#455a64"/>
      <path id="Trazado_181293" data-name="Trazado 181293" d="M150.81,298a18.722,18.722,0,0,1-.4-3c-.19-1.86-.44-4.42-.64-7.26s-.3-5.41-.3-7.28a16.382,16.382,0,0,1,.14-3,18.2,18.2,0,0,1,.23,3c.09,1.86.24,4.42.45,7.26s.39,5.4.48,7.26a16.489,16.489,0,0,1,.04,3.02Z" fill="#455a64"/>
      <path id="Trazado_181294" data-name="Trazado 181294" d="M152.47,277.93a18.84,18.84,0,0,1,.35,3.1c.16,1.91.33,4.55.49,7.48.07,1.45.14,2.84.2,4.12a8,8,0,0,1-.37,3.41,3.38,3.38,0,0,1-1.51,1.77c-.5.25-.82.24-.82.21s.29-.1.72-.38a3.51,3.51,0,0,0,1.27-1.73,8.34,8.34,0,0,0,.23-3.25c-.07-1.29-.16-2.67-.24-4.12-.16-2.93-.28-5.58-.33-7.49A18.851,18.851,0,0,1,152.47,277.93Z" fill="#455a64"/>
      <path id="Trazado_181295" data-name="Trazado 181295" d="M164.88,287.6a3.55,3.55,0,0,1-1.72-.42,8.89,8.89,0,0,1-3.4-2.59,9,9,0,0,1-1.81-3.88,3.8,3.8,0,0,1,0-1.77,14.471,14.471,0,0,1,.41,1.69,10,10,0,0,0,5,6.22q.778.337,1.52.75Z" fill="#455a64"/>
      <path id="Trazado_181296" data-name="Trazado 181296" d="M184.17,352.79a4.657,4.657,0,0,1-.75-.09l-2.15-.33a65.318,65.318,0,0,0-8-.69,38.27,38.27,0,0,0-11.66,1.48c-2.13.61-4.23,1.63-6.51,2.53a17.678,17.678,0,0,1-3.61,1,9.159,9.159,0,0,1-3.89-.2c-2.57-.71-4.64-2.27-6.74-3.43a21.62,21.62,0,0,0-6.49-2.31,24,24,0,0,0-6.26-.32,26.582,26.582,0,0,0-5.36,1.09,23.43,23.43,0,0,0-7,3.69,16.744,16.744,0,0,0-1.65,1.4,5,5,0,0,1-.58.5,3.6,3.6,0,0,1,.51-.57,13.712,13.712,0,0,1,1.59-1.49,22.591,22.591,0,0,1,7-3.88,26.351,26.351,0,0,1,5.43-1.17,24.79,24.79,0,0,1,6.38.27,21.87,21.87,0,0,1,6.66,2.35c2.14,1.17,4.19,2.7,6.63,3.37a11.521,11.521,0,0,0,7.18-.81c2.18-.86,4.38-1.9,6.56-2.51a37.721,37.721,0,0,1,11.8-1.39,57.922,57.922,0,0,1,8,.86c.93.17,1.65.31,2.14.43A3.14,3.14,0,0,1,184.17,352.79Z" fill="#455a64"/>
      <path id="Trazado_181297" data-name="Trazado 181297" d="M189.67,263.19c2.39-.52,6.94-2.39,7-3,.19-1.14-4,.2-5.17.43s-7.41-.9-7.41-.9h0c-1.53-.85-3-1.74-4.22-2.46a4.06,4.06,0,0,1-1-4.22c.6-1.77.64-3.25.33-3.81a1.07,1.07,0,0,0-1.94.54,12.379,12.379,0,0,1-1.25,3.2,8.46,8.46,0,0,1-1.69,2.25c-.76.71-1.44,1.29-2,1.77-5.3.95-20.34,3.1-33.54-.27a10.4,10.4,0,0,1-4.15-3.34l-14.85,8.94c6.89,21.86,57,7.74,57,7.74l13.73-4.65s7.64-1.87,7.64-2.52C198.19,261.86,192.54,263.15,189.67,263.19Z" fill="#ffbe9d"/>
      <path id="Trazado_181298" data-name="Trazado 181298" d="M146.9,210.93a3,3,0,0,1,0,1,9.21,9.21,0,0,1-.84,2.75,8.8,8.8,0,0,1-2.7,3.29,7.56,7.56,0,0,1-5,1.46,7.71,7.71,0,0,1-4.79-2,9.06,9.06,0,0,1-2.35-3.56,9.36,9.36,0,0,1-.57-2.81,3.2,3.2,0,0,1,.07-1,15,15,0,0,0,.85,3.72,9.09,9.09,0,0,0,2.32,3.34A7.4,7.4,0,0,0,138.4,219a7.31,7.31,0,0,0,4.69-1.32,8.93,8.93,0,0,0,2.65-3.08,13.82,13.82,0,0,0,1.16-3.67Z" fill="#263238"/>
    </g>
  </g>
</svg>
