<svg xmlns="http://www.w3.org/2000/svg" width="417.37" height="411.563" viewBox="0 0 417.37 411.563">
  <g id="Cloud_hosting-amico" data-name="Cloud hosting-amico" transform="translate(-31.43 -41.392)">
    <g id="freepik--Floor--inject-4" transform="translate(29 -21.235)">
      <ellipse id="freepik--floor--inject-4-2" data-name="freepik--floor--inject-4" cx="200" cy="124.27" rx="200" ry="124.27" transform="translate(19.8 225.65)" fill="#ff5151" opacity="0.1"/>
    </g>
    <g id="freepik--Shadows--inject-4">
      <path id="Trazado_181299" data-name="Trazado 181299" d="M340.16,376.61a9.88,9.88,0,0,1-4.94-1.25l-70.34-40.61a6.34,6.34,0,0,1,0-11.31l96.25-55.56a10.29,10.29,0,0,1,9.87,0l70.34,40.61a6.33,6.33,0,0,1,0,11.3L345.1,375.36A9.88,9.88,0,0,1,340.16,376.61Z" fill="#e6e6e6"/>
    </g>
    <g id="freepik--Lines--inject-4">
      <path id="Trazado_181305" data-name="Trazado 181305" d="M263,377.48a4.89,4.89,0,0,1-2.41-.59l-32.23-18.65a4.3,4.3,0,0,0-3.83,0l-30.33,17.5a.5.5,0,1,1-.5-.86L224,357.37a5.28,5.28,0,0,1,4.83,0L261.09,376a4.3,4.3,0,0,0,3.83,0l42.51-24.54a.5.5,0,1,1,.5.86l-42.51,24.55a5,5,0,0,1-2.42.61Z" fill="#5b9bce"/>
      <path id="Trazado_181306" data-name="Trazado 181306" d="M185.84,371.16a.51.51,0,0,1-.44-.25.5.5,0,0,1,.19-.68L224,348a5.22,5.22,0,0,1,4.83,0l32.23,18.6a4.3,4.3,0,0,0,3.83,0l34.39-19.85a.5.5,0,1,1,.5.86l-34.39,19.86a5.28,5.28,0,0,1-4.83,0l-32.2-18.57a4.3,4.3,0,0,0-3.83,0l-38.44,22.2a.571.571,0,0,1-.25.06Z" fill="#5b9bce"/>
      <path id="Trazado_181307" data-name="Trazado 181307" d="M177.7,366.48a.52.52,0,0,1-.44-.25.51.51,0,0,1,.19-.68L224,338.66a5.22,5.22,0,0,1,4.83,0l32.23,18.6a4.3,4.3,0,0,0,3.83,0l26.6-15.36a.51.51,0,0,1,.68.19.49.49,0,0,1-.18.68l-26.6,15.36a5.28,5.28,0,0,1-4.83,0l-32.23-18.61a4.3,4.3,0,0,0-3.83,0L178,366.41a.47.47,0,0,1-.3.07Z" fill="#5b9bce"/>
      <path id="Trazado_181308" data-name="Trazado 181308" d="M169.6,361.78a.5.5,0,0,1-.25-.93L224,329.27a5.28,5.28,0,0,1,4.83,0l32.22,18.61a4.32,4.32,0,0,0,3.84,0l18.14-10.47a.5.5,0,0,1,.5.86l-18.14,10.48a5.3,5.3,0,0,1-4.84,0l-32.22-18.61a4.3,4.3,0,0,0-3.83,0l-54.68,31.58a.54.54,0,0,1-.22.06Z" fill="#5b9bce"/>
    </g>
    <g id="freepik--Device--inject-4">
      <g id="freepik--Laptop--inject-4">
        <g id="freepik--laptop--inject-4-2" data-name="freepik--laptop--inject-4">
          <path id="Trazado_181309" data-name="Trazado 181309" d="M262.17,325a5.51,5.51,0,0,0,2.58,4.29l72.44,41.83a5.74,5.74,0,0,0,5.17,0l99.11-57.23a4.85,4.85,0,0,0,0-8.58L369,263.5a5.7,5.7,0,0,0-5.18,0l-99.11,57.22a5.53,5.53,0,0,0-2.54,4.28Z" fill="#37474f"/>
          <path id="Trazado_181310" data-name="Trazado 181310" d="M339.77,366.15v5.59a5.29,5.29,0,0,1-2.58-.61l-72.44-41.82a4.85,4.85,0,0,1-.26-8.42c-1.16.83-1.07,2,.26,2.81l72.44,41.83a5.29,5.29,0,0,0,2.58.62Z" fill="#263238"/>
          <path id="Trazado_181311" data-name="Trazado 181311" d="M259.74,320.81a5.54,5.54,0,0,1-2.42-4.38V230a5.7,5.7,0,0,1,2.58-4.47L359,168.28a4.86,4.86,0,0,1,7.44,4.3V259a5.72,5.72,0,0,1-2.59,4.48L264.74,320.7A5.57,5.57,0,0,1,259.74,320.81Z" fill="#455a64"/>
          <path id="Trazado_181312" data-name="Trazado 181312" d="M264.45,320.87a4.83,4.83,0,0,1-7.13-4.44V230a5.11,5.11,0,0,1,.76-2.54l4.84,2.79h0a5.34,5.34,0,0,0-.75,2.54v86.45C262.17,320.76,263.16,321.44,264.45,320.87Z" fill="#263238"/>
          <path id="Trazado_181313" data-name="Trazado 181313" d="M262.17,232.78v86.45c0,1.65,1.15,2.31,2.58,1.49l99.11-57.22a5.72,5.72,0,0,0,2.59-4.48V172.58c0-1.65-1.16-2.32-2.59-1.5l-99.11,57.23a5.7,5.7,0,0,0-2.58,4.47Z" fill="#37474f"/>
          <path id="Trazado_181314" data-name="Trazado 181314" d="M264.75,323.7l72.44,41.82a5.68,5.68,0,0,0,5.17,0l99.11-57.22c1.43-.82,1.43-2.16,0-3L369,263.5a5.7,5.7,0,0,0-5.18,0l-99.11,57.22C263.32,321.54,263.32,322.88,264.75,323.7Z" fill="#455a64"/>
          <path id="Trazado_181315" data-name="Trazado 181315" d="M266.14,233.1,361.7,178c.86-.5,1.55-.1,1.55.89v74.83a3.43,3.43,0,0,1-1.55,2.69l-95.56,55.15c-.85.5-1.55.1-1.55-.89V235.79a3.46,3.46,0,0,1,1.55-2.69Z" fill="#fafafa"/>
          <path id="Trazado_181316" data-name="Trazado 181316" d="M273.16,321.47l92-53.12a2.86,2.86,0,0,1,2.58,0l4.71,2.72a.79.79,0,0,1,0,1.49l-92,53.11a2.88,2.88,0,0,1-2.59,0l-4.7-2.67a.79.79,0,0,1,0-1.53Z" fill="#5b9bce"/>
          <path id="Trazado_181317" data-name="Trazado 181317" d="M273.16,321.47l92-53.12a2.86,2.86,0,0,1,2.58,0l4.71,2.72a.79.79,0,0,1,0,1.49l-92,53.11a2.88,2.88,0,0,1-2.59,0l-4.7-2.67a.79.79,0,0,1,0-1.53Z" fill="#263238"/>
          <path id="Trazado_181318" data-name="Trazado 181318" d="M285.29,328.47l92-53.12a2.88,2.88,0,0,1,2.59,0l28.94,16.71a.78.78,0,0,1,0,1.49l-91.9,53.05a2.88,2.88,0,0,1-2.59,0l-29-16.64a.78.78,0,0,1-.04-1.49Z" fill="#263238"/>
          <path id="Trazado_181319" data-name="Trazado 181319" d="M367.75,299.25l2.88-1.66c.13-.08.12-.19,0-.27l-3.33-1.92a.5.5,0,0,0-.46,0L364,297.05c-.13.07-.12.19,0,.27l3.33,1.92A.53.53,0,0,0,367.75,299.25Zm-5.68-6.61-2.88,1.66c-.12.07-.12.19,0,.27l3.33,1.92a.5.5,0,0,0,.46,0l2.88-1.66c.12-.07.11-.19,0-.27l-3.33-1.92A.5.5,0,0,0,362.07,292.64ZM352.76,298l-4.87,2.82a.139.139,0,0,0,0,.26l3.33,1.93a.53.53,0,0,0,.46,0l4.87-2.82a.139.139,0,0,0,0-.26L353.22,298a.53.53,0,0,0-.46,0Zm5.1-2.94L355,296.73c-.12.07-.12.19,0,.27l3.33,1.92a.5.5,0,0,0,.46,0l2.88-1.66c.12-.07.11-.19,0-.27l-3.33-1.92a.5.5,0,0,0-.48,0Zm-11.3,6.53-2.88,1.66a.139.139,0,0,0,0,.26l3.33,1.93a.53.53,0,0,0,.46,0l2.88-1.67a.141.141,0,0,0,0-.26L347,301.6a.5.5,0,0,0-.44,0ZM342.35,304l-2.88,1.66a.139.139,0,0,0,0,.26l3.33,1.93a.53.53,0,0,0,.46,0l2.88-1.67a.141.141,0,0,0,0-.26L342.81,304A.5.5,0,0,0,342.35,304Zm13.1,7.82,2.88-1.67a.139.139,0,0,0,0-.26L355,308a.48.48,0,0,0-.45,0l-2.89,1.66a.141.141,0,0,0,0,.26l3.33,1.93a.53.53,0,0,0,.46,0Zm-4.21,2.43,2.88-1.67a.139.139,0,0,0,0-.26l-3.34-1.92a.45.45,0,0,0-.45,0l-2.89,1.66a.141.141,0,0,0,0,.26l3.33,1.93a.53.53,0,0,0,.47.03ZM347,316.71l2.88-1.67a.139.139,0,0,0,0-.26l-3.34-1.92a.48.48,0,0,0-.45,0l-2.89,1.66a.141.141,0,0,0,0,.26l3.33,1.93a.53.53,0,0,0,.47,0Zm-4.21,2.43,2.88-1.67a.139.139,0,0,0,0-.26l-3.34-1.92a.48.48,0,0,0-.45,0L339,316.94c-.12.07-.11.19,0,.27l3.33,1.92a.53.53,0,0,0,.49.01Zm20.72-17.46,2.88-1.66c.13-.07.12-.19,0-.27l-3.33-1.92a.5.5,0,0,0-.46,0l-2.88,1.66c-.12.07-.12.19,0,.27l3.33,1.92a.5.5,0,0,0,.49,0Zm-3.88,7.74,6.43-3.71a.149.149,0,0,0,0-.27L358,300.77a.5.5,0,0,0-.46,0l-3.32,1.92a.139.139,0,0,0,0,.26l4.29,2.48c.13.07.14.19,0,.26l-2.66,1.54a.141.141,0,0,0,0,.26l3.33,1.93a.53.53,0,0,0,.48,0Zm-21.52-3-2.88,1.66a.139.139,0,0,0,0,.26l3.33,1.93a.53.53,0,0,0,.46,0l2.88-1.67a.141.141,0,0,0,0-.26l-3.33-1.92a.5.5,0,0,0-.43.04Zm-4.21,2.43-2.88,1.66c-.12.07-.12.19,0,.27l3.33,1.92a.53.53,0,0,0,.46,0l2.88-1.67c.12-.07.11-.18,0-.26l-3.33-1.92a.5.5,0,0,0-.43.04Zm-21,27.25a.5.5,0,0,0,.46,0l2.88-1.66c.12-.07.12-.19,0-.27l-3.33-1.92a.5.5,0,0,0-.46,0l-2.9,1.75c-.13.07-.12.19,0,.27Zm-12.64-7.81L297.37,330a.149.149,0,0,0,0,.27l3.33,1.92a.5.5,0,0,0,.46,0l2.88-1.66c.12-.07.11-.19,0-.27l-3.33-1.92a.53.53,0,0,0-.46-.01ZM307,334a.5.5,0,0,0,.46,0l2.88-1.66a.141.141,0,0,0,0-.26L307,330.19a.53.53,0,0,0-.46,0l-2.88,1.67a.139.139,0,0,0,0,.26Zm13.3,3.59,2.88-1.66c.12-.07.11-.19,0-.27l-3.33-1.92a.5.5,0,0,0-.46,0l-2.88,1.66c-.12.07-.12.19,0,.27l3.33,1.92a.5.5,0,0,0,.49.03ZM315.66,340a.5.5,0,0,0,.46,0l2.88-1.66c.12-.07.11-.19,0-.27l-3.33-1.92a.5.5,0,0,0-.46,0l-2.88,1.66c-.12.07-.12.19,0,.27Zm-11.2-14.14-2.88,1.66c-.12.07-.11.19,0,.27l3.33,1.92a.5.5,0,0,0,.46,0l2.88-1.66c.12-.07.11-.19,0-.27l-3.33-1.92a.5.5,0,0,0-.46.04Zm21.05-12.15-2.88,1.66c-.12.07-.12.19,0,.27L326,317.6a.5.5,0,0,0,.46,0l2.88-1.66c.12-.07.11-.19,0-.27L326,313.76a.5.5,0,0,0-.49-.01Zm-16.84,9.72-2.88,1.66c-.12.07-.11.19,0,.27l3.33,1.92a.5.5,0,0,0,.46,0l2.88-1.66c.12-.07.11-.19,0-.27l-3.33-1.92a.5.5,0,0,0-.46.04Zm21.05-12.15L326.84,313c-.12.07-.12.19,0,.27l3.33,1.92a.53.53,0,0,0,.46,0l2.88-1.66a.149.149,0,0,0,0-.27l-3.33-1.92a.5.5,0,0,0-.46-.02Zm-8.42,4.86-2.88,1.66c-.12.07-.12.19,0,.27l3.33,1.92a.5.5,0,0,0,.46,0l2.88-1.66c.12-.07.11-.19,0-.27l-3.33-1.92a.5.5,0,0,0-.46.04Zm-4.21,2.43-2.88,1.66c-.12.07-.12.19,0,.27l3.33,1.92a.5.5,0,0,0,.46,0l2.88-1.66c.12-.07.11-.19,0-.27l-3.33-1.92a.5.5,0,0,0-.46.04ZM312.88,321,310,322.7c-.12.07-.11.19,0,.27l3.33,1.92a.5.5,0,0,0,.46,0l2.88-1.66c.12-.07.11-.19,0-.27l-3.33-1.92A.5.5,0,0,0,312.88,321Zm21.52,3,2.88-1.66c.12-.07.12-.19,0-.27l-3.33-1.92a.5.5,0,0,0-.46,0l-2.88,1.66c-.13.07-.12.19,0,.27l3.33,1.92A.5.5,0,0,0,334.4,324Zm37-36.73-2.88,1.66c-.13.07-.12.19,0,.27l3.33,1.92a.53.53,0,0,0,.46,0l2.88-1.66a.146.146,0,0,0,0-.27l-3.33-1.92a.5.5,0,0,0-.48,0Zm-5.1,2.94-2.88,1.66c-.12.07-.12.19,0,.27l3.33,1.92a.5.5,0,0,0,.46,0l2.88-1.66c.12-.07.11-.19,0-.27l-3.33-1.92a.5.5,0,0,0-.48,0Zm9.31-5.37-2.88,1.66c-.13.07-.12.19,0,.27l3.33,1.92a.53.53,0,0,0,.46,0l2.88-1.67c.12-.07.12-.18,0-.26l-3.33-1.92a.5.5,0,0,0-.48,0ZM353.8,307.31l2.88-1.67c.12-.07.11-.18,0-.26l-3.33-1.92a.5.5,0,0,0-.46,0L350,305.11c-.12.07-.12.19,0,.27l3.34,1.92A.53.53,0,0,0,353.8,307.31Zm26.46-24.89a.5.5,0,0,0-.46,0l-2.88,1.66c-.13.07-.12.19,0,.26l3.33,1.93a.53.53,0,0,0,.46,0l2.88-1.67a.139.139,0,0,0,0-.26Zm-41.65,39.15,2.88-1.66a.146.146,0,0,0,0-.27l-3.33-1.92a.5.5,0,0,0-.46,0l-2.88,1.66c-.13.07-.12.19,0,.27l3.33,1.92a.53.53,0,0,0,.46,0Zm51.63-29.81,2.88-1.66c.12-.07.11-.19,0-.27l-3.33-1.92a.5.5,0,0,0-.46,0l-2.88,1.66c-.12.07-.11.19,0,.27l3.33,1.92a.5.5,0,0,0,.46,0Zm-9-.31,2.88-1.67a.139.139,0,0,0,0-.26l-3.33-1.93a.53.53,0,0,0-.46,0l-2.88,1.67a.141.141,0,0,0,0,.26l3.33,1.93a.53.53,0,0,0,.49,0Zm3.74-6.29a.53.53,0,0,0-.46,0l-2.88,1.67a.141.141,0,0,0,0,.26L385,289a.5.5,0,0,0,.46,0l2.88-1.66a.139.139,0,0,0,0-.26Zm.89-.51,8.09,4.67a.5.5,0,0,0,.46,0l2.88-1.66c.12-.07.11-.19,0-.27l-8.09-4.67a.53.53,0,0,0-.46,0l-2.88,1.67c-.11.07-.1.19.03.26ZM376.13,290l-2.88,1.66a.141.141,0,0,0,0,.26l3.33,1.93a.53.53,0,0,0,.46,0l2.88-1.67a.139.139,0,0,0,0-.26L376.59,290A.5.5,0,0,0,376.13,290Zm-31.68,18.29L341.57,310c-.12.07-.12.19,0,.27l3.33,1.92a.5.5,0,0,0,.46,0l2.88-1.66c.12-.07.11-.19,0-.27l-3.33-1.92a.5.5,0,0,0-.46-.03Zm41.12-14.13a.5.5,0,0,0,.46,0l2.88-1.66c.12-.07.11-.19,0-.27l-3.33-1.92a.5.5,0,0,0-.46,0l-2.9,1.69c-.12.07-.11.19,0,.27Zm-36.91,11.7-2.88,1.66c-.12.07-.12.19,0,.27l3.33,1.92a.53.53,0,0,0,.46,0l2.88-1.66a.149.149,0,0,0,0-.27l-3.33-1.92a.5.5,0,0,0-.46.02ZM317.1,333.71a.5.5,0,0,0,.46,0l2.88-1.66c.12-.07.12-.19,0-.27l-3.33-1.92a.5.5,0,0,0-.46,0l-2.88,1.66c-.13.07-.12.19,0,.27Zm-6.33-6-2.88,1.67a.139.139,0,0,0,0,.26l3.33,1.92a.5.5,0,0,0,.46,0l2.88-1.66a.141.141,0,0,0,0-.26l-3.33-1.93a.53.53,0,0,0-.46.04Zm11,3.54,2.88-1.66c.12-.07.12-.19,0-.27l-3.33-1.92a.5.5,0,0,0-.46,0L318,329.09c-.13.07-.12.19,0,.27l3.33,1.92a.5.5,0,0,0,.44.01Zm4.21-2.43,2.88-1.66c.12-.07.12-.19,0-.27L325.52,325a.5.5,0,0,0-.46,0l-2.88,1.66c-.13.07-.12.19,0,.27l3.33,1.92a.5.5,0,0,0,.49.01Zm4.21-2.43,2.88-1.66c.12-.07.12-.19,0-.27l-3.33-1.92a.5.5,0,0,0-.46,0l-2.88,1.66c-.13.07-.12.19,0,.27l3.33,1.92a.5.5,0,0,0,.46.04ZM315,325.32,312.1,327c-.12.07-.12.18,0,.26l3.33,1.92a.5.5,0,0,0,.46,0l2.88-1.66c.12-.07.11-.19,0-.27l-3.33-1.92a.53.53,0,0,0-.44-.01Zm4.21-2.43-2.88,1.66a.146.146,0,0,0,0,.27l3.33,1.92a.5.5,0,0,0,.46,0l2.88-1.66c.12-.07.11-.19,0-.27l-3.33-1.92a.53.53,0,0,0-.48,0ZM336,313.17l-2.88,1.66c-.12.07-.12.19,0,.27l3.38,1.9a.5.5,0,0,0,.46,0l2.88-1.66c.12-.07.11-.19,0-.27l-3.33-1.92A.5.5,0,0,0,336,313.17Zm-4.21,2.43-2.88,1.66c-.12.07-.12.19,0,.27l3.33,1.92a.5.5,0,0,0,.46,0l2.88-1.66c.12-.07.11-.19,0-.27l-3.33-1.92a.5.5,0,0,0-.43,0Zm8.42-4.86-2.88,1.66c-.12.07-.12.19,0,.27l3.33,1.92a.5.5,0,0,0,.46,0l2.88-1.66c.12-.07.11-.19,0-.27l-3.33-1.92a.5.5,0,0,0-.43,0Zm-16.84,9.72-2.88,1.66c-.12.07-.12.19,0,.27l3.33,1.92a.5.5,0,0,0,.46,0l2.88-1.66c.12-.07.11-.19,0-.27l-3.33-1.92a.5.5,0,0,0-.43,0Zm4.21-2.43-2.88,1.66c-.12.07-.12.19,0,.27l3.33,1.92a.5.5,0,0,0,.46,0l2.88-1.66c.12-.07.11-.19,0-.27l-3.3-1.95a.5.5,0,0,0-.46,0Zm-3.07,17.16,2.88-1.66c.12-.07.11-.19,0-.27l-3.33-1.92a.5.5,0,0,0-.46,0L320.73,333c-.12.07-.12.19,0,.27l3.33,1.92a.5.5,0,0,0,.48,0Zm-24.71-2.5-3.33-1.92a.53.53,0,0,0-.46,0l-2.88,1.67c-.12.07-.11.18,0,.26l3.33,1.92a.5.5,0,0,0,.46,0l2.88-1.66c.2-.07.2-.19.03-.27Zm6.31,1.86-3.33-1.93a.53.53,0,0,0-.46,0l-4.43,2.56c-.12.07-.12.19,0,.27l3.33,1.92a.5.5,0,0,0,.46,0l4.43-2.56c.17-.07.16-.19.03-.26ZM294.72,329l-3.33-1.93a.53.53,0,0,0-.46,0l-3.54,2c-.13.07-.12.19,0,.27l3.33,1.92a.5.5,0,0,0,.46,0l3.55-2.05C294.86,329.17,294.85,329.05,294.72,329Zm2.72-1.57a.53.53,0,0,0,.46,0l2.88-1.67a.141.141,0,0,0,0-.26l-3.33-1.92a.5.5,0,0,0-.46,0l-2.88,1.66a.141.141,0,0,0,0,.26ZM312,336.65l-3.33-1.92a.5.5,0,0,0-.46,0l-5.54,3.2c-.13.07-.12.19,0,.26l3.33,1.93a.53.53,0,0,0,.46,0l5.54-3.2C312.15,336.85,312.14,336.73,312,336.65Zm2.76,3.9-3.33-1.92a.5.5,0,0,0-.46,0l-3.54,2.05c-.13.07-.12.19,0,.26l3.33,1.92a.5.5,0,0,0,.46,0l3.55-2c.14-.11.13-.23,0-.31Zm14-31.21a.53.53,0,0,0,.46,0l2.88-1.67a.139.139,0,0,0,0-.26l-3.33-1.93a.53.53,0,0,0-.46,0l-2.88,1.67a.141.141,0,0,0,0,.26Zm-8.42,4.86a.53.53,0,0,0,.46,0l2.88-1.67a.139.139,0,0,0,0-.26l-3.33-1.92a.5.5,0,0,0-.46,0L317,312a.141.141,0,0,0,0,.26ZM301.65,325a.53.53,0,0,0,.46,0l2.88-1.67a.141.141,0,0,0,0-.26l-3.33-1.92a.5.5,0,0,0-.46,0l-2.88,1.66a.141.141,0,0,0,0,.26Zm22.88-13.21a.53.53,0,0,0,.46,0l2.88-1.67a.139.139,0,0,0,0-.26l-3.33-1.93a.5.5,0,0,0-.46,0l-2.88,1.66a.141.141,0,0,0,0,.26Zm-8.42,4.86a.53.53,0,0,0,.46,0l2.88-1.67a.139.139,0,0,0,0-.26l-3.33-1.92a.5.5,0,0,0-.46,0l-2.88,1.66a.141.141,0,0,0,0,.26Zm1,24.23a.5.5,0,0,0-.46,0l-4.43,2.55c-.12.07-.11.19,0,.27l3.33,1.92a.5.5,0,0,0,.46,0l4.43-2.56a.139.139,0,0,0,0-.26Zm-7-20.74a.53.53,0,0,0,.46,0l2.88-1.67a.141.141,0,0,0,0-.26l-3.33-1.93a.53.53,0,0,0-.46,0l-2.88,1.67a.141.141,0,0,0,0,.26Zm-4.21,2.43a.53.53,0,0,0,.46,0l2.88-1.67a.141.141,0,0,0,0-.26l-3.33-1.93a.5.5,0,0,0-.46,0l-2.88,1.66a.141.141,0,0,0,0,.26Zm89.22-26.71a.47.47,0,0,0-.46,0l-7.09,4.09a.139.139,0,0,0,0,.26l3.34,1.93a.51.51,0,0,0,.45,0l7.09-4.1c.13-.07.12-.19,0-.26Zm-9.31,5.37a.5.5,0,0,0-.46,0l-2.88,1.66c-.12.07-.11.19,0,.27l3.33,1.92a.5.5,0,0,0,.46,0l2.88-1.66c.12-.07.11-.19,0-.27Zm-57,31.55,2.88-1.66a.149.149,0,0,0,0-.27l-3.33-1.92a.5.5,0,0,0-.46,0l-2.88,1.66c-.12.07-.12.19,0,.27l3.33,1.92a.53.53,0,0,0,.4-.02Zm48.6-26.69a.5.5,0,0,0-.46,0L374,307.72c-.12.07-.11.19,0,.27l3.33,1.92a.5.5,0,0,0,.46,0l2.88-1.66c.12-.07.11-.19,0-.27Zm21.94-12.67a.53.53,0,0,0-.46,0L396,295.06a.139.139,0,0,0,0,.26l3.33,1.93a.53.53,0,0,0,.46,0l2.88-1.67c.13-.07.12-.19,0-.26Zm7.54-.5-8.09-4.67a.5.5,0,0,0-.46,0l-2.88,1.66c-.12.07-.12.19,0,.27l8.08,4.67a.53.53,0,0,0,.46,0l2.88-1.67c.12-.09.12-.18-.05-.28Zm-45.21,22.25a.53.53,0,0,0-.46,0l-3.54,2.05c-.13.07-.12.19,0,.26l3.33,1.93a.53.53,0,0,0,.46,0l3.55-2.05c.12-.07.11-.19,0-.27ZM372.26,309a.53.53,0,0,0-.46,0l-4.44,2.56c-.12.07-.11.19,0,.27l3.33,1.92a.53.53,0,0,0,.46,0l4.43-2.56c.13-.07.12-.19,0-.27Zm-20.39,11.77a.5.5,0,0,0-.46,0L327.7,334.46a.141.141,0,0,0,0,.26l3.33,1.93a.53.53,0,0,0,.46,0L355.22,323c.12-.07.11-.19,0-.27Zm-25,14.46a.5.5,0,0,0-.46,0l-3.54,2c-.12.07-.12.19,0,.27l3.33,1.92a.5.5,0,0,0,.46,0l3.54-2.05a.139.139,0,0,0,0-.26ZM356.75,318a.5.5,0,0,0-.46,0l-3.55,2c-.12.07-.11.19,0,.27l3.33,1.92a.5.5,0,0,0,.46,0l3.54-2.05c.13-.07.12-.18,0-.26ZM322,338.05a.5.5,0,0,0-.46,0l-3.55,2a.141.141,0,0,0,0,.26l3.33,1.93a.53.53,0,0,0,.46,0l3.55-2.05c.12-.07.11-.19,0-.27Zm44.54-25.71a.5.5,0,0,0-.46,0l-3.55,2a.149.149,0,0,0,0,.27l3.33,1.92a.5.5,0,0,0,.46,0l3.54-2a.146.146,0,0,0,0-.27Zm15.06-8.7a.5.5,0,0,0-.46,0l-2.88,1.66c-.12.07-.11.19,0,.27l3.33,1.92a.5.5,0,0,0,.46,0l2.88-1.66c.12-.07.11-.19,0-.27Zm9.23-6.7,2.88-1.66c.12-.07.11-.19,0-.27l-3.33-1.92a.5.5,0,0,0-.46,0L387,294.74c-.12.07-.12.19,0,.27l3.33,1.92a.5.5,0,0,0,.46.01ZM372,296.82l2.88-1.67c.13-.07.12-.18,0-.26L371.5,293a.5.5,0,0,0-.46,0l-2.88,1.66c-.13.07-.12.19,0,.27l3.33,1.92a.53.53,0,0,0,.51-.03Zm-9.54,16.49,8.42-4.86c.13-.07.12-.19,0-.26l-3.33-1.93a.53.53,0,0,0-.46,0l-8.42,4.87a.139.139,0,0,0,0,.26L362,313.3a.48.48,0,0,0,.42.01Zm23.7-13.95a.5.5,0,0,0,.46,0l2.88-1.66c.12-.07.11-.19,0-.27l-3.33-1.92a.5.5,0,0,0-.46,0l-2.88,1.66c-.12.07-.12.19,0,.27Zm-4.3-2.74L384.7,295c.12-.07.11-.19,0-.27l-3.33-1.92a.53.53,0,0,0-.46,0L378,294.42a.149.149,0,0,0,0,.27l3.33,1.92a.5.5,0,0,0,.49.01Zm-23.6,19.12,2.88-1.66a.141.141,0,0,0,0-.26l-3.33-1.93a.53.53,0,0,0-.46,0l-2.88,1.67a.139.139,0,0,0,0,.26l3.34,1.92a.5.5,0,0,0,.41,0Zm18.59-11a.5.5,0,0,0,.46,0l2.88-1.66c.12-.07.12-.19,0-.27l-3.33-1.92a.53.53,0,0,0-.46,0l-2.88,1.66a.149.149,0,0,0,0,.27ZM337.17,327.9l2.88-1.67a.141.141,0,0,0,0-.26l-3.33-1.92a.5.5,0,0,0-.46,0l-2.88,1.66a.139.139,0,0,0,0,.26l3.33,1.93a.53.53,0,0,0,.46,0Zm4.21-2.43,2.88-1.67a.141.141,0,0,0,0-.26l-3.33-1.93a.5.5,0,0,0-.46,0l-2.88,1.66a.139.139,0,0,0,0,.26l3.33,1.93A.53.53,0,0,0,341.38,325.47ZM333,330.33l2.88-1.67c.12-.07.11-.18,0-.26l-3.33-1.92a.5.5,0,0,0-.46,0l-2.88,1.66c-.12.07-.12.19,0,.27l3.33,1.92a.53.53,0,0,0,.46,0Zm16.84-9.72,2.88-1.67a.141.141,0,0,0,0-.26l-3.33-1.93a.53.53,0,0,0-.46,0L346,318.41a.139.139,0,0,0,0,.26l3.33,1.93a.53.53,0,0,0,.47.01ZM345.59,323l2.88-1.67a.141.141,0,0,0,0-.26l-3.33-1.93a.5.5,0,0,0-.46,0l-2.88,1.66a.139.139,0,0,0,0,.26l3.33,1.93A.53.53,0,0,0,345.59,323Zm8.42-4.87,2.88-1.66a.141.141,0,0,0,0-.26l-3.33-1.93a.53.53,0,0,0-.46,0L350.2,316a.139.139,0,0,0,0,.26l3.33,1.93a.5.5,0,0,0,.47-.02Zm19.26-35.95a.51.51,0,0,0,.45,0l2.89-1.67c.12-.07.11-.18,0-.26l-.89-.51a.5.5,0,0,0-.46,0l-2.88,1.66c-.12.07-.11.19,0,.27Zm-20.72,13.37a.53.53,0,0,0,.46,0l2.88-1.67c.12-.07.12-.18,0-.26l-3.34-1.92a.48.48,0,0,0-.45,0l-2.89,1.66c-.12.07-.11.19,0,.27Zm8.42-4.86a.53.53,0,0,0,.46,0l2.88-1.67a.139.139,0,0,0,0-.26L361,286.89a.5.5,0,0,0-.46,0l-2.88,1.66a.141.141,0,0,0,0,.26Zm-13.56,7.83a.53.53,0,0,0,.46,0l2.88-1.67a.139.139,0,0,0,0-.26l-3.33-1.93a.53.53,0,0,0-.46,0l-2.88,1.67a.141.141,0,0,0,0,.26Zm9.35-5.4a.53.53,0,0,0,.46,0l2.88-1.67a.139.139,0,0,0,0-.26l-3.34-1.92a.48.48,0,0,0-.45,0l-2.9,1.73a.141.141,0,0,0,0,.26ZM339,303.42a.53.53,0,0,0,.46,0l2.88-1.67a.139.139,0,0,0,0-.26L339,299.58a.5.5,0,0,0-.46,0l-2.88,1.66a.141.141,0,0,0,0,.26Zm4.2-2.42a.53.53,0,0,0,.46,0l2.88-1.67a.139.139,0,0,0,0-.26l-3.33-1.93a.5.5,0,0,0-.46,0l-2.88,1.66a.141.141,0,0,0,0,.26Zm21.65-13.91a.5.5,0,0,0,.46,0l2.88-1.66c.12-.07.11-.19,0-.27l-.89-.51a.5.5,0,0,0-.46,0l-2.88,1.66c-.12.07-.11.19,0,.27Zm12.63-7.29a.51.51,0,0,0,.45,0l2.89-1.67a.141.141,0,0,0,0-.26l-.89-.51a.5.5,0,0,0-.46,0l-2.9,1.64c-.12.07-.11.19,0,.27Zm7,4a.53.53,0,0,0,.46,0l2.88-1.67a.139.139,0,0,0,0-.26L384.46,280a.48.48,0,0,0-.45,0l-2.88,1.66c-.13.07-.12.19,0,.26ZM395,294.51l2.88-1.66a.149.149,0,0,0,0-.27l-3.33-1.92a.5.5,0,0,0-.46,0l-2.88,1.66c-.12.07-.12.19,0,.27l3.33,1.92A.5.5,0,0,0,395,294.51Zm-25.94-9.86a.51.51,0,0,0,.45,0L372.4,283a.149.149,0,0,0,0-.27l-.89-.51a.5.5,0,0,0-.46,0l-2.88,1.66c-.12.07-.11.19,0,.27Zm-34.28,21.2a.53.53,0,0,0,.46,0l2.88-1.67a.139.139,0,0,0,0-.26L334.77,302a.5.5,0,0,0-.46,0l-2.88,1.66a.141.141,0,0,0,0,.26Z" fill="#5b9bce"/>
          <path id="Trazado_181320" data-name="Trazado 181320" d="M367.75,299.25l2.88-1.66c.13-.08.12-.19,0-.27l-3.33-1.92a.5.5,0,0,0-.46,0L364,297.05c-.13.07-.12.19,0,.27l3.33,1.92A.53.53,0,0,0,367.75,299.25Zm-5.68-6.61-2.88,1.66c-.12.07-.12.19,0,.27l3.33,1.92a.5.5,0,0,0,.46,0l2.88-1.66c.12-.07.11-.19,0-.27l-3.33-1.92A.5.5,0,0,0,362.07,292.64ZM352.76,298l-4.87,2.82a.139.139,0,0,0,0,.26l3.33,1.93a.53.53,0,0,0,.46,0l4.87-2.82a.139.139,0,0,0,0-.26L353.22,298a.53.53,0,0,0-.46,0Zm5.1-2.94L355,296.73c-.12.07-.12.19,0,.27l3.33,1.92a.5.5,0,0,0,.46,0l2.88-1.66c.12-.07.11-.19,0-.27l-3.33-1.92a.5.5,0,0,0-.48,0Zm-11.3,6.53-2.88,1.66a.139.139,0,0,0,0,.26l3.33,1.93a.53.53,0,0,0,.46,0l2.88-1.67a.141.141,0,0,0,0-.26L347,301.6a.5.5,0,0,0-.44,0ZM342.35,304l-2.88,1.66a.139.139,0,0,0,0,.26l3.33,1.93a.53.53,0,0,0,.46,0l2.88-1.67a.141.141,0,0,0,0-.26L342.81,304A.5.5,0,0,0,342.35,304Zm13.1,7.82,2.88-1.67a.139.139,0,0,0,0-.26L355,308a.48.48,0,0,0-.45,0l-2.89,1.66a.141.141,0,0,0,0,.26l3.33,1.93a.53.53,0,0,0,.46,0Zm-4.21,2.43,2.88-1.67a.139.139,0,0,0,0-.26l-3.34-1.92a.45.45,0,0,0-.45,0l-2.89,1.66a.141.141,0,0,0,0,.26l3.33,1.93a.53.53,0,0,0,.47.03ZM347,316.71l2.88-1.67a.139.139,0,0,0,0-.26l-3.34-1.92a.48.48,0,0,0-.45,0l-2.89,1.66a.141.141,0,0,0,0,.26l3.33,1.93a.53.53,0,0,0,.47,0Zm-4.21,2.43,2.88-1.67a.139.139,0,0,0,0-.26l-3.34-1.92a.48.48,0,0,0-.45,0L339,316.94c-.12.07-.11.19,0,.27l3.33,1.92a.53.53,0,0,0,.49.01Zm20.72-17.46,2.88-1.66c.13-.07.12-.19,0-.27l-3.33-1.92a.5.5,0,0,0-.46,0l-2.88,1.66c-.12.07-.12.19,0,.27l3.33,1.92a.5.5,0,0,0,.49,0Zm-3.88,7.74,6.43-3.71a.149.149,0,0,0,0-.27L358,300.77a.5.5,0,0,0-.46,0l-3.32,1.92a.139.139,0,0,0,0,.26l4.29,2.48c.13.07.14.19,0,.26l-2.66,1.54a.141.141,0,0,0,0,.26l3.33,1.93a.53.53,0,0,0,.48,0Zm-21.52-3-2.88,1.66a.139.139,0,0,0,0,.26l3.33,1.93a.53.53,0,0,0,.46,0l2.88-1.67a.141.141,0,0,0,0-.26l-3.33-1.92a.5.5,0,0,0-.43.04Zm-4.21,2.43-2.88,1.66c-.12.07-.12.19,0,.27l3.33,1.92a.53.53,0,0,0,.46,0l2.88-1.67c.12-.07.11-.18,0-.26l-3.33-1.92a.5.5,0,0,0-.43.04Zm-21,27.25a.5.5,0,0,0,.46,0l2.88-1.66c.12-.07.12-.19,0-.27l-3.33-1.92a.5.5,0,0,0-.46,0l-2.9,1.75c-.13.07-.12.19,0,.27Zm-12.64-7.81L297.37,330a.149.149,0,0,0,0,.27l3.33,1.92a.5.5,0,0,0,.46,0l2.88-1.66c.12-.07.11-.19,0-.27l-3.33-1.92a.53.53,0,0,0-.46-.01ZM307,334a.5.5,0,0,0,.46,0l2.88-1.66a.141.141,0,0,0,0-.26L307,330.19a.53.53,0,0,0-.46,0l-2.88,1.67a.139.139,0,0,0,0,.26Zm13.3,3.59,2.88-1.66c.12-.07.11-.19,0-.27l-3.33-1.92a.5.5,0,0,0-.46,0l-2.88,1.66c-.12.07-.12.19,0,.27l3.33,1.92a.5.5,0,0,0,.49.03ZM315.66,340a.5.5,0,0,0,.46,0l2.88-1.66c.12-.07.11-.19,0-.27l-3.33-1.92a.5.5,0,0,0-.46,0l-2.88,1.66c-.12.07-.12.19,0,.27Zm-11.2-14.14-2.88,1.66c-.12.07-.11.19,0,.27l3.33,1.92a.5.5,0,0,0,.46,0l2.88-1.66c.12-.07.11-.19,0-.27l-3.33-1.92a.5.5,0,0,0-.46.04Zm21.05-12.15-2.88,1.66c-.12.07-.12.19,0,.27L326,317.6a.5.5,0,0,0,.46,0l2.88-1.66c.12-.07.11-.19,0-.27L326,313.76a.5.5,0,0,0-.49-.01Zm-16.84,9.72-2.88,1.66c-.12.07-.11.19,0,.27l3.33,1.92a.5.5,0,0,0,.46,0l2.88-1.66c.12-.07.11-.19,0-.27l-3.33-1.92a.5.5,0,0,0-.46.04Zm21.05-12.15L326.84,313c-.12.07-.12.19,0,.27l3.33,1.92a.53.53,0,0,0,.46,0l2.88-1.66a.149.149,0,0,0,0-.27l-3.33-1.92a.5.5,0,0,0-.46-.02Zm-8.42,4.86-2.88,1.66c-.12.07-.12.19,0,.27l3.33,1.92a.5.5,0,0,0,.46,0l2.88-1.66c.12-.07.11-.19,0-.27l-3.33-1.92a.5.5,0,0,0-.46.04Zm-4.21,2.43-2.88,1.66c-.12.07-.12.19,0,.27l3.33,1.92a.5.5,0,0,0,.46,0l2.88-1.66c.12-.07.11-.19,0-.27l-3.33-1.92a.5.5,0,0,0-.46.04ZM312.88,321,310,322.7c-.12.07-.11.19,0,.27l3.33,1.92a.5.5,0,0,0,.46,0l2.88-1.66c.12-.07.11-.19,0-.27l-3.33-1.92A.5.5,0,0,0,312.88,321Zm21.52,3,2.88-1.66c.12-.07.12-.19,0-.27l-3.33-1.92a.5.5,0,0,0-.46,0l-2.88,1.66c-.13.07-.12.19,0,.27l3.33,1.92A.5.5,0,0,0,334.4,324Zm37-36.73-2.88,1.66c-.13.07-.12.19,0,.27l3.33,1.92a.53.53,0,0,0,.46,0l2.88-1.66a.146.146,0,0,0,0-.27l-3.33-1.92a.5.5,0,0,0-.48,0Zm-5.1,2.94-2.88,1.66c-.12.07-.12.19,0,.27l3.33,1.92a.5.5,0,0,0,.46,0l2.88-1.66c.12-.07.11-.19,0-.27l-3.33-1.92a.5.5,0,0,0-.48,0Zm9.31-5.37-2.88,1.66c-.13.07-.12.19,0,.27l3.33,1.92a.53.53,0,0,0,.46,0l2.88-1.67c.12-.07.12-.18,0-.26l-3.33-1.92a.5.5,0,0,0-.48,0ZM353.8,307.31l2.88-1.67c.12-.07.11-.18,0-.26l-3.33-1.92a.5.5,0,0,0-.46,0L350,305.11c-.12.07-.12.19,0,.27l3.34,1.92A.53.53,0,0,0,353.8,307.31Zm26.46-24.89a.5.5,0,0,0-.46,0l-2.88,1.66c-.13.07-.12.19,0,.26l3.33,1.93a.53.53,0,0,0,.46,0l2.88-1.67a.139.139,0,0,0,0-.26Zm-41.65,39.15,2.88-1.66a.146.146,0,0,0,0-.27l-3.33-1.92a.5.5,0,0,0-.46,0l-2.88,1.66c-.13.07-.12.19,0,.27l3.33,1.92a.53.53,0,0,0,.46,0Zm51.63-29.81,2.88-1.66c.12-.07.11-.19,0-.27l-3.33-1.92a.5.5,0,0,0-.46,0l-2.88,1.66c-.12.07-.11.19,0,.27l3.33,1.92a.5.5,0,0,0,.46,0Zm-9-.31,2.88-1.67a.139.139,0,0,0,0-.26l-3.33-1.93a.53.53,0,0,0-.46,0l-2.88,1.67a.141.141,0,0,0,0,.26l3.33,1.93a.53.53,0,0,0,.49,0Zm3.74-6.29a.53.53,0,0,0-.46,0l-2.88,1.67a.141.141,0,0,0,0,.26L385,289a.5.5,0,0,0,.46,0l2.88-1.66a.139.139,0,0,0,0-.26Zm.89-.51,8.09,4.67a.5.5,0,0,0,.46,0l2.88-1.66c.12-.07.11-.19,0-.27l-8.09-4.67a.53.53,0,0,0-.46,0l-2.88,1.67c-.11.07-.1.19.03.26ZM376.13,290l-2.88,1.66a.141.141,0,0,0,0,.26l3.33,1.93a.53.53,0,0,0,.46,0l2.88-1.67a.139.139,0,0,0,0-.26L376.59,290A.5.5,0,0,0,376.13,290Zm-31.68,18.29L341.57,310c-.12.07-.12.19,0,.27l3.33,1.92a.5.5,0,0,0,.46,0l2.88-1.66c.12-.07.11-.19,0-.27l-3.33-1.92a.5.5,0,0,0-.46-.03Zm41.12-14.13a.5.5,0,0,0,.46,0l2.88-1.66c.12-.07.11-.19,0-.27l-3.33-1.92a.5.5,0,0,0-.46,0l-2.9,1.69c-.12.07-.11.19,0,.27Zm-36.91,11.7-2.88,1.66c-.12.07-.12.19,0,.27l3.33,1.92a.53.53,0,0,0,.46,0l2.88-1.66a.149.149,0,0,0,0-.27l-3.33-1.92a.5.5,0,0,0-.46.02ZM317.1,333.71a.5.5,0,0,0,.46,0l2.88-1.66c.12-.07.12-.19,0-.27l-3.33-1.92a.5.5,0,0,0-.46,0l-2.88,1.66c-.13.07-.12.19,0,.27Zm-6.33-6-2.88,1.67a.139.139,0,0,0,0,.26l3.33,1.92a.5.5,0,0,0,.46,0l2.88-1.66a.141.141,0,0,0,0-.26l-3.33-1.93a.53.53,0,0,0-.46.04Zm11,3.54,2.88-1.66c.12-.07.12-.19,0-.27l-3.33-1.92a.5.5,0,0,0-.46,0L318,329.09c-.13.07-.12.19,0,.27l3.33,1.92a.5.5,0,0,0,.44.01Zm4.21-2.43,2.88-1.66c.12-.07.12-.19,0-.27L325.52,325a.5.5,0,0,0-.46,0l-2.88,1.66c-.13.07-.12.19,0,.27l3.33,1.92a.5.5,0,0,0,.49.01Zm4.21-2.43,2.88-1.66c.12-.07.12-.19,0-.27l-3.33-1.92a.5.5,0,0,0-.46,0l-2.88,1.66c-.13.07-.12.19,0,.27l3.33,1.92a.5.5,0,0,0,.46.04ZM315,325.32,312.1,327c-.12.07-.12.18,0,.26l3.33,1.92a.5.5,0,0,0,.46,0l2.88-1.66c.12-.07.11-.19,0-.27l-3.33-1.92a.53.53,0,0,0-.44-.01Zm4.21-2.43-2.88,1.66a.146.146,0,0,0,0,.27l3.33,1.92a.5.5,0,0,0,.46,0l2.88-1.66c.12-.07.11-.19,0-.27l-3.33-1.92a.53.53,0,0,0-.48,0ZM336,313.17l-2.88,1.66c-.12.07-.12.19,0,.27l3.38,1.9a.5.5,0,0,0,.46,0l2.88-1.66c.12-.07.11-.19,0-.27l-3.33-1.92A.5.5,0,0,0,336,313.17Zm-4.21,2.43-2.88,1.66c-.12.07-.12.19,0,.27l3.33,1.92a.5.5,0,0,0,.46,0l2.88-1.66c.12-.07.11-.19,0-.27l-3.33-1.92a.5.5,0,0,0-.43,0Zm8.42-4.86-2.88,1.66c-.12.07-.12.19,0,.27l3.33,1.92a.5.5,0,0,0,.46,0l2.88-1.66c.12-.07.11-.19,0-.27l-3.33-1.92a.5.5,0,0,0-.43,0Zm-16.84,9.72-2.88,1.66c-.12.07-.12.19,0,.27l3.33,1.92a.5.5,0,0,0,.46,0l2.88-1.66c.12-.07.11-.19,0-.27l-3.33-1.92a.5.5,0,0,0-.43,0Zm4.21-2.43-2.88,1.66c-.12.07-.12.19,0,.27l3.33,1.92a.5.5,0,0,0,.46,0l2.88-1.66c.12-.07.11-.19,0-.27l-3.3-1.95a.5.5,0,0,0-.46,0Zm-3.07,17.16,2.88-1.66c.12-.07.11-.19,0-.27l-3.33-1.92a.5.5,0,0,0-.46,0L320.73,333c-.12.07-.12.19,0,.27l3.33,1.92a.5.5,0,0,0,.48,0Zm-24.71-2.5-3.33-1.92a.53.53,0,0,0-.46,0l-2.88,1.67c-.12.07-.11.18,0,.26l3.33,1.92a.5.5,0,0,0,.46,0l2.88-1.66c.2-.07.2-.19.03-.27Zm6.31,1.86-3.33-1.93a.53.53,0,0,0-.46,0l-4.43,2.56c-.12.07-.12.19,0,.27l3.33,1.92a.5.5,0,0,0,.46,0l4.43-2.56c.17-.07.16-.19.03-.26ZM294.72,329l-3.33-1.93a.53.53,0,0,0-.46,0l-3.54,2c-.13.07-.12.19,0,.27l3.33,1.92a.5.5,0,0,0,.46,0l3.55-2.05C294.86,329.17,294.85,329.05,294.72,329Zm2.72-1.57a.53.53,0,0,0,.46,0l2.88-1.67a.141.141,0,0,0,0-.26l-3.33-1.92a.5.5,0,0,0-.46,0l-2.88,1.66a.141.141,0,0,0,0,.26ZM312,336.65l-3.33-1.92a.5.5,0,0,0-.46,0l-5.54,3.2c-.13.07-.12.19,0,.26l3.33,1.93a.53.53,0,0,0,.46,0l5.54-3.2C312.15,336.85,312.14,336.73,312,336.65Zm2.76,3.9-3.33-1.92a.5.5,0,0,0-.46,0l-3.54,2.05c-.13.07-.12.19,0,.26l3.33,1.92a.5.5,0,0,0,.46,0l3.55-2c.14-.11.13-.23,0-.31Zm14-31.21a.53.53,0,0,0,.46,0l2.88-1.67a.139.139,0,0,0,0-.26l-3.33-1.93a.53.53,0,0,0-.46,0l-2.88,1.67a.141.141,0,0,0,0,.26Zm-8.42,4.86a.53.53,0,0,0,.46,0l2.88-1.67a.139.139,0,0,0,0-.26l-3.33-1.92a.5.5,0,0,0-.46,0L317,312a.141.141,0,0,0,0,.26ZM301.65,325a.53.53,0,0,0,.46,0l2.88-1.67a.141.141,0,0,0,0-.26l-3.33-1.92a.5.5,0,0,0-.46,0l-2.88,1.66a.141.141,0,0,0,0,.26Zm22.88-13.21a.53.53,0,0,0,.46,0l2.88-1.67a.139.139,0,0,0,0-.26l-3.33-1.93a.5.5,0,0,0-.46,0l-2.88,1.66a.141.141,0,0,0,0,.26Zm-8.42,4.86a.53.53,0,0,0,.46,0l2.88-1.67a.139.139,0,0,0,0-.26l-3.33-1.92a.5.5,0,0,0-.46,0l-2.88,1.66a.141.141,0,0,0,0,.26Zm1,24.23a.5.5,0,0,0-.46,0l-4.43,2.55c-.12.07-.11.19,0,.27l3.33,1.92a.5.5,0,0,0,.46,0l4.43-2.56a.139.139,0,0,0,0-.26Zm-7-20.74a.53.53,0,0,0,.46,0l2.88-1.67a.141.141,0,0,0,0-.26l-3.33-1.93a.53.53,0,0,0-.46,0l-2.88,1.67a.141.141,0,0,0,0,.26Zm-4.21,2.43a.53.53,0,0,0,.46,0l2.88-1.67a.141.141,0,0,0,0-.26l-3.33-1.93a.5.5,0,0,0-.46,0l-2.88,1.66a.141.141,0,0,0,0,.26Zm89.22-26.71a.47.47,0,0,0-.46,0l-7.09,4.09a.139.139,0,0,0,0,.26l3.34,1.93a.51.51,0,0,0,.45,0l7.09-4.1c.13-.07.12-.19,0-.26Zm-9.31,5.37a.5.5,0,0,0-.46,0l-2.88,1.66c-.12.07-.11.19,0,.27l3.33,1.92a.5.5,0,0,0,.46,0l2.88-1.66c.12-.07.11-.19,0-.27Zm-57,31.55,2.88-1.66a.149.149,0,0,0,0-.27l-3.33-1.92a.5.5,0,0,0-.46,0l-2.88,1.66c-.12.07-.12.19,0,.27l3.33,1.92a.53.53,0,0,0,.4-.02Zm48.6-26.69a.5.5,0,0,0-.46,0L374,307.72c-.12.07-.11.19,0,.27l3.33,1.92a.5.5,0,0,0,.46,0l2.88-1.66c.12-.07.11-.19,0-.27Zm21.94-12.67a.53.53,0,0,0-.46,0L396,295.06a.139.139,0,0,0,0,.26l3.33,1.93a.53.53,0,0,0,.46,0l2.88-1.67c.13-.07.12-.19,0-.26Zm7.54-.5-8.09-4.67a.5.5,0,0,0-.46,0l-2.88,1.66c-.12.07-.12.19,0,.27l8.08,4.67a.53.53,0,0,0,.46,0l2.88-1.67c.12-.09.12-.18-.05-.28Zm-45.21,22.25a.53.53,0,0,0-.46,0l-3.54,2.05c-.13.07-.12.19,0,.26l3.33,1.93a.53.53,0,0,0,.46,0l3.55-2.05c.12-.07.11-.19,0-.27ZM372.26,309a.53.53,0,0,0-.46,0l-4.44,2.56c-.12.07-.11.19,0,.27l3.33,1.92a.53.53,0,0,0,.46,0l4.43-2.56c.13-.07.12-.19,0-.27Zm-20.39,11.77a.5.5,0,0,0-.46,0L327.7,334.46a.141.141,0,0,0,0,.26l3.33,1.93a.53.53,0,0,0,.46,0L355.22,323c.12-.07.11-.19,0-.27Zm-25,14.46a.5.5,0,0,0-.46,0l-3.54,2c-.12.07-.12.19,0,.27l3.33,1.92a.5.5,0,0,0,.46,0l3.54-2.05a.139.139,0,0,0,0-.26ZM356.75,318a.5.5,0,0,0-.46,0l-3.55,2c-.12.07-.11.19,0,.27l3.33,1.92a.5.5,0,0,0,.46,0l3.54-2.05c.13-.07.12-.18,0-.26ZM322,338.05a.5.5,0,0,0-.46,0l-3.55,2a.141.141,0,0,0,0,.26l3.33,1.93a.53.53,0,0,0,.46,0l3.55-2.05c.12-.07.11-.19,0-.27Zm44.54-25.71a.5.5,0,0,0-.46,0l-3.55,2a.149.149,0,0,0,0,.27l3.33,1.92a.5.5,0,0,0,.46,0l3.54-2a.146.146,0,0,0,0-.27Zm15.06-8.7a.5.5,0,0,0-.46,0l-2.88,1.66c-.12.07-.11.19,0,.27l3.33,1.92a.5.5,0,0,0,.46,0l2.88-1.66c.12-.07.11-.19,0-.27Zm9.23-6.7,2.88-1.66c.12-.07.11-.19,0-.27l-3.33-1.92a.5.5,0,0,0-.46,0L387,294.74c-.12.07-.12.19,0,.27l3.33,1.92a.5.5,0,0,0,.46.01ZM372,296.82l2.88-1.67c.13-.07.12-.18,0-.26L371.5,293a.5.5,0,0,0-.46,0l-2.88,1.66c-.13.07-.12.19,0,.27l3.33,1.92a.53.53,0,0,0,.51-.03Zm-9.54,16.49,8.42-4.86c.13-.07.12-.19,0-.26l-3.33-1.93a.53.53,0,0,0-.46,0l-8.42,4.87a.139.139,0,0,0,0,.26L362,313.3a.48.48,0,0,0,.42.01Zm23.7-13.95a.5.5,0,0,0,.46,0l2.88-1.66c.12-.07.11-.19,0-.27l-3.33-1.92a.5.5,0,0,0-.46,0l-2.88,1.66c-.12.07-.12.19,0,.27Zm-4.3-2.74L384.7,295c.12-.07.11-.19,0-.27l-3.33-1.92a.53.53,0,0,0-.46,0L378,294.42a.149.149,0,0,0,0,.27l3.33,1.92a.5.5,0,0,0,.49.01Zm-23.6,19.12,2.88-1.66a.141.141,0,0,0,0-.26l-3.33-1.93a.53.53,0,0,0-.46,0l-2.88,1.67a.139.139,0,0,0,0,.26l3.34,1.92a.5.5,0,0,0,.41,0Zm18.59-11a.5.5,0,0,0,.46,0l2.88-1.66c.12-.07.12-.19,0-.27l-3.33-1.92a.53.53,0,0,0-.46,0l-2.88,1.66a.149.149,0,0,0,0,.27ZM337.17,327.9l2.88-1.67a.141.141,0,0,0,0-.26l-3.33-1.92a.5.5,0,0,0-.46,0l-2.88,1.66a.139.139,0,0,0,0,.26l3.33,1.93a.53.53,0,0,0,.46,0Zm4.21-2.43,2.88-1.67a.141.141,0,0,0,0-.26l-3.33-1.93a.5.5,0,0,0-.46,0l-2.88,1.66a.139.139,0,0,0,0,.26l3.33,1.93A.53.53,0,0,0,341.38,325.47ZM333,330.33l2.88-1.67c.12-.07.11-.18,0-.26l-3.33-1.92a.5.5,0,0,0-.46,0l-2.88,1.66c-.12.07-.12.19,0,.27l3.33,1.92a.53.53,0,0,0,.46,0Zm16.84-9.72,2.88-1.67a.141.141,0,0,0,0-.26l-3.33-1.93a.53.53,0,0,0-.46,0L346,318.41a.139.139,0,0,0,0,.26l3.33,1.93a.53.53,0,0,0,.47.01ZM345.59,323l2.88-1.67a.141.141,0,0,0,0-.26l-3.33-1.93a.5.5,0,0,0-.46,0l-2.88,1.66a.139.139,0,0,0,0,.26l3.33,1.93A.53.53,0,0,0,345.59,323Zm8.42-4.87,2.88-1.66a.141.141,0,0,0,0-.26l-3.33-1.93a.53.53,0,0,0-.46,0L350.2,316a.139.139,0,0,0,0,.26l3.33,1.93a.5.5,0,0,0,.47-.02Zm19.26-35.95a.51.51,0,0,0,.45,0l2.89-1.67c.12-.07.11-.18,0-.26l-.89-.51a.5.5,0,0,0-.46,0l-2.88,1.66c-.12.07-.11.19,0,.27Zm-20.72,13.37a.53.53,0,0,0,.46,0l2.88-1.67c.12-.07.12-.18,0-.26l-3.34-1.92a.48.48,0,0,0-.45,0l-2.89,1.66c-.12.07-.11.19,0,.27Zm8.42-4.86a.53.53,0,0,0,.46,0l2.88-1.67a.139.139,0,0,0,0-.26L361,286.89a.5.5,0,0,0-.46,0l-2.88,1.66a.141.141,0,0,0,0,.26Zm-13.56,7.83a.53.53,0,0,0,.46,0l2.88-1.67a.139.139,0,0,0,0-.26l-3.33-1.93a.53.53,0,0,0-.46,0l-2.88,1.67a.141.141,0,0,0,0,.26Zm9.35-5.4a.53.53,0,0,0,.46,0l2.88-1.67a.139.139,0,0,0,0-.26l-3.34-1.92a.48.48,0,0,0-.45,0l-2.9,1.73a.141.141,0,0,0,0,.26ZM339,303.42a.53.53,0,0,0,.46,0l2.88-1.67a.139.139,0,0,0,0-.26L339,299.58a.5.5,0,0,0-.46,0l-2.88,1.66a.141.141,0,0,0,0,.26Zm4.2-2.42a.53.53,0,0,0,.46,0l2.88-1.67a.139.139,0,0,0,0-.26l-3.33-1.93a.5.5,0,0,0-.46,0l-2.88,1.66a.141.141,0,0,0,0,.26Zm21.65-13.91a.5.5,0,0,0,.46,0l2.88-1.66c.12-.07.11-.19,0-.27l-.89-.51a.5.5,0,0,0-.46,0l-2.88,1.66c-.12.07-.11.19,0,.27Zm12.63-7.29a.51.51,0,0,0,.45,0l2.89-1.67a.141.141,0,0,0,0-.26l-.89-.51a.5.5,0,0,0-.46,0l-2.9,1.64c-.12.07-.11.19,0,.27Zm7,4a.53.53,0,0,0,.46,0l2.88-1.67a.139.139,0,0,0,0-.26L384.46,280a.48.48,0,0,0-.45,0l-2.88,1.66c-.13.07-.12.19,0,.26ZM395,294.51l2.88-1.66a.149.149,0,0,0,0-.27l-3.33-1.92a.5.5,0,0,0-.46,0l-2.88,1.66c-.12.07-.12.19,0,.27l3.33,1.92A.5.5,0,0,0,395,294.51Zm-25.94-9.86a.51.51,0,0,0,.45,0L372.4,283a.149.149,0,0,0,0-.27l-.89-.51a.5.5,0,0,0-.46,0l-2.88,1.66c-.12.07-.11.19,0,.27Zm-34.28,21.2a.53.53,0,0,0,.46,0l2.88-1.67a.139.139,0,0,0,0-.26L334.77,302a.5.5,0,0,0-.46,0l-2.88,1.66a.141.141,0,0,0,0,.26Z" fill="#455a64"/>
          <path id="Trazado_181321" data-name="Trazado 181321" d="M353.45,331.12l28.43-16.41a3.39,3.39,0,0,1,3.1,0l16.3,9.41a1,1,0,0,1,0,1.79l-28.43,16.41a3.45,3.45,0,0,1-3.1,0l-16.3-9.41C352.59,332.41,352.59,331.61,353.45,331.12Z" fill="#5b9bce"/>
          <path id="Trazado_181322" data-name="Trazado 181322" d="M353.45,331.12l28.43-16.41a3.39,3.39,0,0,1,3.1,0l16.3,9.41a1,1,0,0,1,0,1.79l-28.43,16.41a3.45,3.45,0,0,1-3.1,0l-16.3-9.41C352.59,332.41,352.59,331.61,353.45,331.12Z" fill="#263238"/>
          <path id="Trazado_181323" data-name="Trazado 181323" d="M259.74,320.81a4.479,4.479,0,0,0,.8.34,3.852,3.852,0,0,1-.8-.34,1.25,1.25,0,0,1-.24-.16A2,2,0,0,0,259.74,320.81Z" fill="#5b9bce"/>
          <path id="Trazado_181324" data-name="Trazado 181324" d="M264.27,321.05Z" fill="#5b9bce"/>
        </g>
        <g id="freepik--Window--inject-4">
          <path id="Trazado_181325" data-name="Trazado 181325" d="M268.38,301.86c0,1.21.86,1.71,1.91,1.1L358,252.34a4.21,4.21,0,0,0,1.91-3.31V190l-91.5,52.82Z" fill="#5b9bce"/>
          <g id="Grupo_129459" data-name="Grupo 129459" opacity="0.75">
            <path id="Trazado_181326" data-name="Trazado 181326" d="M268.38,301.86c0,1.21.86,1.71,1.91,1.1L358,252.34a4.21,4.21,0,0,0,1.91-3.31V190l-91.5,52.82Z" fill="#fff"/>
          </g>
          <path id="Trazado_181327" data-name="Trazado 181327" d="M268.38,238.83a4.25,4.25,0,0,1,1.91-3.32L358,184.89c1.06-.61,1.91-.11,1.91,1.11v4l-91.5,52.82Z" fill="#5b9bce"/>
          <path id="Trazado_181328" data-name="Trazado 181328" d="M349.12,192.07a2,2,0,0,0-.9,1.56c0,.57.4.8.9.51a2,2,0,0,0,.89-1.55C350,192,349.61,191.79,349.12,192.07Z" fill="#37474f"/>
          <path id="Trazado_181329" data-name="Trazado 181329" d="M352.26,190.26a2,2,0,0,0-.9,1.56c0,.57.4.8.9.52a2,2,0,0,0,.89-1.56C353.15,190.21,352.75,190,352.26,190.26Z" fill="#37474f"/>
          <path id="Trazado_181330" data-name="Trazado 181330" d="M355.4,188.46a2,2,0,0,0-.9,1.55c0,.57.4.8.9.52a2,2,0,0,0,.89-1.56C356.29,188.4,355.89,188.17,355.4,188.46Z" fill="#37474f"/>
        </g>
      </g>
    </g>
    <g id="freepik--Server--inject-4">
      <g id="freepik--server--inject-4-2" data-name="freepik--server--inject-4">
        <path id="Trazado_181334" data-name="Trazado 181334" d="M202.08,365.97l-65,37.53L72.09,365.97l64.99-37.52Z" fill="#5b9bce"/>
        <path id="Trazado_181335" data-name="Trazado 181335" d="M202.08,365.97l-65,37.53L72.09,365.97l64.99-37.52Z" opacity="0.1"/>
        <path id="Trazado_181336" data-name="Trazado 181336" d="M137.09,403.49l-.01-4.68L76.15,363.63l-4.06,2.34Z" opacity="0.1"/>
        <path id="Trazado_181337" data-name="Trazado 181337" d="M137.09,403.49v17.3a8.88,8.88,0,0,0,4.33-1h0l28.16-16.26,29.9-17.27a5.73,5.73,0,0,0,2.6-4.5V366Z" fill="#5b9bce"/>
        <path id="Trazado_181338" data-name="Trazado 181338" d="M137.09,403.49v17.3a8.88,8.88,0,0,0,4.33-1h0l28.16-16.26,29.9-17.27a5.73,5.73,0,0,0,2.6-4.5V366Z" fill="#fff" opacity="0.65"/>
        <path id="Trazado_181339" data-name="Trazado 181339" d="M195.85,374.27l-32.23,18.6a4.78,4.78,0,0,0-2.17,3.75V401c0,1.39,1,1.94,2.17,1.25l32.23-18.6A4.8,4.8,0,0,0,198,379.9v-4.38C198,374.14,197,373.58,195.85,374.27Z" fill="#5b9bce"/>
        <path id="Trazado_181340" data-name="Trazado 181340" d="M195.73,378v2.12a1,1,0,0,1-.43.75l-.49.28a.266.266,0,0,1-.43-.25v-2.12a1,1,0,0,1,.43-.75l.49-.28C195.53,377.59,195.73,377.7,195.73,378Z" fill="#fafafa"/>
        <path id="Trazado_181341" data-name="Trazado 181341" d="M193.54,379.24v2.12a.93.93,0,0,1-.43.75l-.49.28a.266.266,0,0,1-.43-.25V380a1,1,0,0,1,.43-.75l.49-.28A.28.28,0,0,1,193.54,379.24Z" fill="#fafafa"/>
        <path id="Trazado_181342" data-name="Trazado 181342" d="M191.35,380.5v2.12a.93.93,0,0,1-.43.75l-.49.29a.268.268,0,0,1-.43-.25v-2.13a1,1,0,0,1,.43-.75l.49-.28C191.16,380.11,191.35,380.22,191.35,380.5Z" fill="#fafafa"/>
        <path id="Trazado_181343" data-name="Trazado 181343" d="M189.16,381.76v2.13a1,1,0,0,1-.43.75l-.49.28a.266.266,0,0,1-.43-.25v-2.13a1,1,0,0,1,.43-.75l.49-.28C189,381.37,189.16,381.48,189.16,381.76Z" fill="#455a64"/>
        <path id="Trazado_181344" data-name="Trazado 181344" d="M187,383v2.13a1,1,0,0,1-.44.75l-.48.28a.272.272,0,0,1-.44-.25V383.8a1,1,0,0,1,.44-.75l.48-.28a.27.27,0,0,1,.44.23Z" fill="#455a64"/>
        <path id="Trazado_181345" data-name="Trazado 181345" d="M184.79,384.28v2.13a1,1,0,0,1-.44.75l-.48.28a.272.272,0,0,1-.44-.25v-2.12a.94.94,0,0,1,.44-.75l.48-.29C184.59,383.9,184.79,384,184.79,384.28Z" fill="#fafafa"/>
        <path id="Trazado_181346" data-name="Trazado 181346" d="M182.6,385.55v2.12a1,1,0,0,1-.43.75l-.49.28a.266.266,0,0,1-.43-.25v-2.12a1,1,0,0,1,.43-.75l.49-.28C182.4,385.16,182.6,385.27,182.6,385.55Z" fill="#fafafa"/>
        <path id="Trazado_181347" data-name="Trazado 181347" d="M180.41,386.81v2.12a1,1,0,0,1-.43.75l-.49.28a.266.266,0,0,1-.43-.25v-2.12a1,1,0,0,1,.43-.75l.49-.28C180.22,386.42,180.41,386.53,180.41,386.81Z" fill="#fafafa"/>
        <path id="Trazado_181348" data-name="Trazado 181348" d="M178.22,388.07v2.12a.93.93,0,0,1-.43.75l-.49.29a.268.268,0,0,1-.43-.25v-2.13a1,1,0,0,1,.43-.75l.49-.28C178,387.68,178.22,387.79,178.22,388.07Z" fill="#fafafa"/>
        <path id="Trazado_181349" data-name="Trazado 181349" d="M176,389.33v2.13a1,1,0,0,1-.43.75l-.49.28a.268.268,0,0,1-.43-.25v-2.13a1,1,0,0,1,.43-.75l.49-.28C175.84,388.94,176,389.05,176,389.33Z" fill="#fafafa"/>
        <path id="Trazado_181350" data-name="Trazado 181350" d="M173.85,390.59v2.13a1,1,0,0,1-.44.75l-.49.28a.267.267,0,0,1-.43-.25v-2.13a1,1,0,0,1,.43-.75l.49-.28a.27.27,0,0,1,.44.25Z" fill="#fafafa"/>
        <path id="Trazado_181351" data-name="Trazado 181351" d="M171.66,391.85V394a1,1,0,0,1-.44.75l-.48.28a.272.272,0,0,1-.44-.25v-2.13a1,1,0,0,1,.44-.75l.48-.28C171.46,391.47,171.66,391.58,171.66,391.85Z" fill="#fafafa"/>
        <path id="Trazado_181352" data-name="Trazado 181352" d="M169.47,393.11v2.13a1,1,0,0,1-.43.75l-.49.28a.266.266,0,0,1-.43-.25V393.9a.93.93,0,0,1,.43-.75l.49-.29a.27.27,0,0,1,.43.25Z" fill="#455a64"/>
        <path id="Trazado_181353" data-name="Trazado 181353" d="M167.28,394.38v2.12a1,1,0,0,1-.43.75l-.49.28a.266.266,0,0,1-.43-.25v-2.12a1,1,0,0,1,.43-.75l.49-.28C167.09,394,167.28,394.1,167.28,394.38Z" fill="#fafafa"/>
        <path id="Trazado_181354" data-name="Trazado 181354" d="M165.09,395.64v2.12a.93.93,0,0,1-.43.75l-.49.28a.266.266,0,0,1-.43-.25v-2.12a1,1,0,0,1,.43-.75l.49-.28C164.9,395.25,165.09,395.36,165.09,395.64Z" fill="#fafafa"/>
        <path id="Trazado_181355" data-name="Trazado 181355" d="M72.09,366v15.76a5.76,5.76,0,0,0,2.6,4.5l25.84,14.92,32.23,18.61a8.86,8.86,0,0,0,4.33,1v-17.3Z" fill="#5b9bce"/>
        <path id="Trazado_181356" data-name="Trazado 181356" d="M72.09,366v15.76a5.76,5.76,0,0,0,2.6,4.5l25.84,14.92,32.23,18.61a8.86,8.86,0,0,0,4.33,1v-17.3Z" fill="#fff" opacity="0.5"/>
        <g id="Grupo_129460" data-name="Grupo 129460" opacity="0.75">
          <path id="Trazado_181357" data-name="Trazado 181357" d="M82.37,376.63l16,9.23a4.78,4.78,0,0,1,2.17,3.75V394c0,1.38-1,1.94-2.17,1.25l-16-9.23a4.8,4.8,0,0,1-2.16-3.75v-4.38C80.21,376.5,81.18,375.94,82.37,376.63Z" fill="#fff"/>
        </g>
        <path id="Trazado_181358" data-name="Trazado 181358" d="M84.43,381.57l1-.57h0a1.34,1.34,0,0,1,1.33.14,4.18,4.18,0,0,1,1.88,3.26,1.3,1.3,0,0,1-.55,1.21h0l-.93.52-.16-.27a1.821,1.821,0,0,1-.54-.21,4.17,4.17,0,0,1-1.89-3.26,2.25,2.25,0,0,1,.06-.48Z" fill="#5b9bce"/>
        <path id="Trazado_181359" data-name="Trazado 181359" d="M84.43,381.57l1-.57h0a1.34,1.34,0,0,1,1.33.14,4.18,4.18,0,0,1,1.88,3.26,1.3,1.3,0,0,1-.55,1.21h0l-.93.52-.16-.27a1.821,1.821,0,0,1-.54-.21,4.17,4.17,0,0,1-1.89-3.26,2.25,2.25,0,0,1,.06-.48Z" opacity="0.2"/>
        <path id="Trazado_181360" data-name="Trazado 181360" d="M85.8,381.68a4.16,4.16,0,0,1,1.88,3.26c0,1.2-.84,1.68-1.88,1.08a4.16,4.16,0,0,1-1.88-3.26C83.92,381.56,84.76,381.08,85.8,381.68Z" fill="#5b9bce"/>
        <path id="Trazado_181361" data-name="Trazado 181361" d="M92.6,386.28l1-.57h0a1.32,1.32,0,0,1,1.32.13,4.17,4.17,0,0,1,1.89,3.26,1.33,1.33,0,0,1-.55,1.22h0l-.93.53-.17-.28a1.771,1.771,0,0,1-.53-.21,4.17,4.17,0,0,1-1.89-3.26,2.33,2.33,0,0,1,.06-.48Z" fill="#5b9bce"/>
        <path id="Trazado_181362" data-name="Trazado 181362" d="M92.6,386.28l1-.57h0a1.32,1.32,0,0,1,1.32.13,4.17,4.17,0,0,1,1.89,3.26,1.33,1.33,0,0,1-.55,1.22h0l-.93.53-.17-.28a1.771,1.771,0,0,1-.53-.21,4.17,4.17,0,0,1-1.89-3.26,2.33,2.33,0,0,1,.06-.48Z" opacity="0.2"/>
        <path id="Trazado_181363" data-name="Trazado 181363" d="M94,386.39a4.16,4.16,0,0,1,1.88,3.26c0,1.2-.84,1.69-1.88,1.09a4.16,4.16,0,0,1-1.88-3.26C92.09,386.28,92.93,385.79,94,386.39Z" fill="#5b9bce"/>
        <g id="Grupo_129461" data-name="Grupo 129461" opacity="0.75">
          <path id="Trazado_181364" data-name="Trazado 181364" d="M82.37,376.63l16,9.23a4.78,4.78,0,0,1,2.17,3.75V394c0,1.38-1,1.94-2.17,1.25l-16-9.23a4.8,4.8,0,0,1-2.16-3.75v-4.38C80.21,376.5,81.18,375.94,82.37,376.63Z" fill="#fff"/>
        </g>
        <path id="Trazado_181365" data-name="Trazado 181365" d="M84.43,381.57l1-.57h0a1.34,1.34,0,0,1,1.33.14,4.18,4.18,0,0,1,1.88,3.26,1.3,1.3,0,0,1-.55,1.21h0l-.93.52-.16-.27a1.821,1.821,0,0,1-.54-.21,4.17,4.17,0,0,1-1.89-3.26,2.25,2.25,0,0,1,.06-.48Z" fill="#5b9bce"/>
        <path id="Trazado_181366" data-name="Trazado 181366" d="M84.43,381.57l1-.57h0a1.34,1.34,0,0,1,1.33.14,4.18,4.18,0,0,1,1.88,3.26,1.3,1.3,0,0,1-.55,1.21h0l-.93.52-.16-.27a1.821,1.821,0,0,1-.54-.21,4.17,4.17,0,0,1-1.89-3.26,2.25,2.25,0,0,1,.06-.48Z" opacity="0.2"/>
        <path id="Trazado_181367" data-name="Trazado 181367" d="M85.8,381.68a4.16,4.16,0,0,1,1.88,3.26c0,1.2-.84,1.68-1.88,1.08a4.16,4.16,0,0,1-1.88-3.26C83.92,381.56,84.76,381.08,85.8,381.68Z" fill="#5b9bce"/>
        <path id="Trazado_181368" data-name="Trazado 181368" d="M92.6,386.28l1-.57h0a1.32,1.32,0,0,1,1.32.13,4.17,4.17,0,0,1,1.89,3.26,1.33,1.33,0,0,1-.55,1.22h0l-.93.53-.17-.28a1.771,1.771,0,0,1-.53-.21,4.17,4.17,0,0,1-1.89-3.26,2.33,2.33,0,0,1,.06-.48Z" fill="#5b9bce"/>
        <path id="Trazado_181369" data-name="Trazado 181369" d="M92.6,386.28l1-.57h0a1.32,1.32,0,0,1,1.32.13,4.17,4.17,0,0,1,1.89,3.26,1.33,1.33,0,0,1-.55,1.22h0l-.93.53-.17-.28a1.771,1.771,0,0,1-.53-.21,4.17,4.17,0,0,1-1.89-3.26,2.33,2.33,0,0,1,.06-.48Z" opacity="0.2"/>
        <path id="Trazado_181370" data-name="Trazado 181370" d="M94,386.39a4.16,4.16,0,0,1,1.88,3.26c0,1.2-.84,1.69-1.88,1.09a4.16,4.16,0,0,1-1.88-3.26C92.09,386.28,92.93,385.79,94,386.39Z" fill="#5b9bce"/>
        <path id="Trazado_181371" data-name="Trazado 181371" d="M155.69,400.89l-1-.57h0a1.32,1.32,0,0,0-1.32.14,4.16,4.16,0,0,0-1.88,3.26,1.35,1.35,0,0,0,.54,1.22h0l.92.53.17-.28a1.932,1.932,0,0,0,.54-.21,4.16,4.16,0,0,0,1.88-3.26,2.25,2.25,0,0,0-.06-.48Z" fill="#5b9bce"/>
        <path id="Trazado_181372" data-name="Trazado 181372" d="M155.69,400.89l-1-.57h0a1.32,1.32,0,0,0-1.32.14,4.16,4.16,0,0,0-1.88,3.26,1.35,1.35,0,0,0,.54,1.22h0l.92.53.17-.28a1.932,1.932,0,0,0,.54-.21,4.16,4.16,0,0,0,1.88-3.26,2.25,2.25,0,0,0-.06-.48Z" opacity="0.4"/>
        <path id="Trazado_181373" data-name="Trazado 181373" d="M154.32,401a4.16,4.16,0,0,0-1.88,3.26c0,1.2.84,1.68,1.88,1.08a4.16,4.16,0,0,0,1.88-3.26C156.2,400.88,155.36,400.4,154.32,401Z" fill="#5b9bce"/>
        <path id="Trazado_181374" data-name="Trazado 181374" d="M154.32,401a4.16,4.16,0,0,0-1.88,3.26c0,1.2.84,1.68,1.88,1.08a4.16,4.16,0,0,0,1.88-3.26C156.2,400.88,155.36,400.4,154.32,401Z" opacity="0.2"/>
        <path id="Trazado_181375" data-name="Trazado 181375" d="M147.52,405.6l-1-.57h0a1.34,1.34,0,0,0-1.32.13,4.16,4.16,0,0,0-1.88,3.26,1.33,1.33,0,0,0,.55,1.22h0l.92.53.17-.28a1.929,1.929,0,0,0,.54-.21,4.16,4.16,0,0,0,1.88-3.26,1.8,1.8,0,0,0-.06-.48Z" fill="#5b9bce"/>
        <path id="Trazado_181376" data-name="Trazado 181376" d="M147.52,405.6l-1-.57h0a1.34,1.34,0,0,0-1.32.13,4.16,4.16,0,0,0-1.88,3.26,1.33,1.33,0,0,0,.55,1.22h0l.92.53.17-.28a1.929,1.929,0,0,0,.54-.21,4.16,4.16,0,0,0,1.88-3.26,1.8,1.8,0,0,0-.06-.48Z" opacity="0.4"/>
        <path id="Trazado_181377" data-name="Trazado 181377" d="M146.15,405.71a4.16,4.16,0,0,0-1.88,3.26c0,1.2.84,1.69,1.88,1.09A4.16,4.16,0,0,0,148,406.8C148,405.6,147.19,405.11,146.15,405.71Z" fill="#5b9bce"/>
        <path id="Trazado_181378" data-name="Trazado 181378" d="M146.15,405.71a4.16,4.16,0,0,0-1.88,3.26c0,1.2.84,1.69,1.88,1.09A4.16,4.16,0,0,0,148,406.8C148,405.6,147.19,405.11,146.15,405.71Z" opacity="0.2"/>
        <path id="Trazado_181379" data-name="Trazado 181379" d="M202.08,337.83l-65,37.52L72.09,337.83l64.99-37.52Z" fill="#5b9bce"/>
        <path id="Trazado_181380" data-name="Trazado 181380" d="M202.08,337.83l-65,37.52L72.09,337.83l64.99-37.52Z" opacity="0.1"/>
        <path id="Trazado_181381" data-name="Trazado 181381" d="M137.08,375.35v-4.69L76.15,335.49l-4.06,2.34Z" opacity="0.1"/>
        <path id="Trazado_181382" data-name="Trazado 181382" d="M202.07,356.59l-64.99,37.53V375.35l65-37.52Z" fill="#5b9bce"/>
        <path id="Trazado_181383" data-name="Trazado 181383" d="M202.07,356.59l-64.99,37.53V375.35l65-37.52Z" fill="#fff" opacity="0.65"/>
        <path id="Trazado_181384" data-name="Trazado 181384" d="M195.85,346.13l-32.23,18.61a4.78,4.78,0,0,0-2.17,3.75v4.38c0,1.38,1,1.94,2.17,1.25l32.23-18.61a4.8,4.8,0,0,0,2.16-3.75v-4.38C198,346,197,345.44,195.85,346.13Z" fill="#5b9bce"/>
        <path id="Trazado_181385" data-name="Trazado 181385" d="M195.73,349.84V352a1,1,0,0,1-.43.75l-.49.29a.268.268,0,0,1-.43-.25v-2.13a1,1,0,0,1,.43-.75l.49-.28C195.53,349.45,195.73,349.56,195.73,349.84Z" fill="#fafafa"/>
        <path id="Trazado_181386" data-name="Trazado 181386" d="M193.54,351.1v2.13a1,1,0,0,1-.43.75l-.49.28a.266.266,0,0,1-.43-.25v-2.13a1,1,0,0,1,.43-.75l.49-.28C193.35,350.71,193.54,350.82,193.54,351.1Z" fill="#455a64"/>
        <path id="Trazado_181387" data-name="Trazado 181387" d="M191.35,352.36v2.13a1,1,0,0,1-.43.75l-.49.28a.266.266,0,0,1-.43-.25v-2.13a1,1,0,0,1,.43-.75l.49-.28C191.16,352,191.35,352.09,191.35,352.36Z" fill="#fafafa"/>
        <path id="Trazado_181388" data-name="Trazado 181388" d="M189.16,353.62v2.13a1,1,0,0,1-.43.75l-.49.28a.266.266,0,0,1-.43-.25v-2.12a.93.93,0,0,1,.43-.75l.49-.29C189,353.24,189.16,353.35,189.16,353.62Z" fill="#455a64"/>
        <path id="Trazado_181389" data-name="Trazado 181389" d="M187,354.89V357a1,1,0,0,1-.44.75l-.48.28a.272.272,0,0,1-.44-.25v-2.12a1,1,0,0,1,.44-.75l.48-.28A.274.274,0,0,1,187,354.89Z" fill="#455a64"/>
        <path id="Trazado_181390" data-name="Trazado 181390" d="M184.79,356.15v2.12a1,1,0,0,1-.44.75l-.48.28a.272.272,0,0,1-.44-.25v-2.12a1,1,0,0,1,.44-.75l.48-.28C184.59,355.76,184.79,355.87,184.79,356.15Z" fill="#fafafa"/>
        <path id="Trazado_181391" data-name="Trazado 181391" d="M182.6,357.41v2.12a1,1,0,0,1-.43.75l-.49.29a.268.268,0,0,1-.43-.25v-2.13a1,1,0,0,1,.43-.75l.49-.28C182.4,357,182.6,357.13,182.6,357.41Z" fill="#fafafa"/>
        <path id="Trazado_181392" data-name="Trazado 181392" d="M180.41,358.67v2.13a1,1,0,0,1-.43.75l-.49.28a.268.268,0,0,1-.43-.25v-2.13a1,1,0,0,1,.43-.75l.49-.28C180.22,358.28,180.41,358.39,180.41,358.67Z" fill="#fafafa"/>
        <path id="Trazado_181393" data-name="Trazado 181393" d="M178.22,359.93v2.13a1,1,0,0,1-.43.75l-.49.28a.266.266,0,0,1-.43-.25v-2.13a1,1,0,0,1,.43-.75l.49-.28C178,359.54,178.22,359.66,178.22,359.93Z" fill="#455a64"/>
        <path id="Trazado_181394" data-name="Trazado 181394" d="M176,361.19v2.13a1,1,0,0,1-.43.75l-.49.28a.266.266,0,0,1-.43-.25V362a1,1,0,0,1,.43-.75l.49-.28C175.84,360.81,176,360.92,176,361.19Z" fill="#fafafa"/>
        <path id="Trazado_181395" data-name="Trazado 181395" d="M173.85,362.45v2.13a1,1,0,0,1-.44.75l-.49.28a.267.267,0,0,1-.43-.25v-2.12a1,1,0,0,1,.43-.75l.49-.29C173.65,362.07,173.85,362.18,173.85,362.45Z" fill="#455a64"/>
        <path id="Trazado_181396" data-name="Trazado 181396" d="M171.66,363.72v2.12a1,1,0,0,1-.44.75l-.48.28a.272.272,0,0,1-.44-.25V364.5a1,1,0,0,1,.44-.75l.48-.28C171.46,363.33,171.66,363.44,171.66,363.72Z" fill="#fafafa"/>
        <path id="Trazado_181397" data-name="Trazado 181397" d="M169.47,365v2.12a1,1,0,0,1-.43.75l-.49.28a.266.266,0,0,1-.43-.25v-2.12a1,1,0,0,1,.43-.75l.49-.28C169.27,364.59,169.47,364.7,169.47,365Z" fill="#455a64"/>
        <path id="Trazado_181398" data-name="Trazado 181398" d="M167.28,366.24v2.12a.93.93,0,0,1-.43.75l-.49.29a.268.268,0,0,1-.43-.25V367a1,1,0,0,1,.43-.75l.49-.28A.28.28,0,0,1,167.28,366.24Z" fill="#fafafa"/>
        <path id="Trazado_181399" data-name="Trazado 181399" d="M165.09,367.5v2.13a1,1,0,0,1-.43.75l-.49.28a.266.266,0,0,1-.43-.25v-2.13a1,1,0,0,1,.43-.75l.49-.28C164.9,367.11,165.09,367.22,165.09,367.5Z" fill="#fafafa"/>
        <path id="Trazado_181400" data-name="Trazado 181400" d="M137.08,394.12,72.09,356.59V337.83l64.99,37.52Z" fill="#5b9bce"/>
        <path id="Trazado_181401" data-name="Trazado 181401" d="M137.08,394.12,72.09,356.59V337.83l64.99,37.52Z" fill="#fff" opacity="0.5"/>
        <g id="Grupo_129462" data-name="Grupo 129462" opacity="0.75">
          <path id="Trazado_181402" data-name="Trazado 181402" d="M82.37,348.47l16,9.22a4.78,4.78,0,0,1,2.17,3.75v4.38c0,1.38-1,1.94-2.17,1.25l-16-9.22a4.8,4.8,0,0,1-2.16-3.75v-4.38C80.21,348.33,81.18,347.78,82.37,348.47Z" fill="#fff"/>
        </g>
        <path id="Trazado_181403" data-name="Trazado 181403" d="M84.43,353.41l1-.58h0a1.36,1.36,0,0,1,1.33.13,4.18,4.18,0,0,1,1.88,3.26,1.33,1.33,0,0,1-.55,1.22h0l-.93.53-.16-.28a1.821,1.821,0,0,1-.54-.21,4.17,4.17,0,0,1-1.89-3.26,2.42,2.42,0,0,1,.06-.48Z" fill="#5b9bce"/>
        <path id="Trazado_181404" data-name="Trazado 181404" d="M84.43,353.41l1-.58h0a1.36,1.36,0,0,1,1.33.13,4.18,4.18,0,0,1,1.88,3.26,1.33,1.33,0,0,1-.55,1.22h0l-.93.53-.16-.28a1.821,1.821,0,0,1-.54-.21,4.17,4.17,0,0,1-1.89-3.26,2.42,2.42,0,0,1,.06-.48Z" opacity="0.2"/>
        <path id="Trazado_181405" data-name="Trazado 181405" d="M85.8,353.51a4.16,4.16,0,0,1,1.88,3.26c0,1.2-.84,1.69-1.88,1.09a4.16,4.16,0,0,1-1.88-3.26C83.92,353.4,84.76,352.91,85.8,353.51Z" fill="#5b9bce"/>
        <path id="Trazado_181406" data-name="Trazado 181406" d="M92.6,358.12l1-.57h0a1.32,1.32,0,0,1,1.32.14,4.17,4.17,0,0,1,1.89,3.26,1.33,1.33,0,0,1-.55,1.22h0l-.93.53-.17-.28a1.77,1.77,0,0,1-.53-.21,4.17,4.17,0,0,1-1.89-3.26,2.251,2.251,0,0,1,.06-.48Z" fill="#5b9bce"/>
        <path id="Trazado_181407" data-name="Trazado 181407" d="M92.6,358.12l1-.57h0a1.32,1.32,0,0,1,1.32.14,4.17,4.17,0,0,1,1.89,3.26,1.33,1.33,0,0,1-.55,1.22h0l-.93.53-.17-.28a1.77,1.77,0,0,1-.53-.21,4.17,4.17,0,0,1-1.89-3.26,2.251,2.251,0,0,1,.06-.48Z" opacity="0.2"/>
        <path id="Trazado_181408" data-name="Trazado 181408" d="M94,358.23a4.16,4.16,0,0,1,1.88,3.26c0,1.2-.84,1.68-1.88,1.08a4.16,4.16,0,0,1-1.88-3.26C92.09,358.11,92.93,357.63,94,358.23Z" fill="#5b9bce"/>
        <path id="Trazado_181409" data-name="Trazado 181409" d="M193.95,365.97v-4.69l-56.87,32.84v4.69Z" fill="#455a64"/>
        <path id="Trazado_181410" data-name="Trazado 181410" d="M76.15,358.94v4.69l60.93,35.18v-4.69Z" fill="#5b9bce"/>
        <path id="Trazado_181411" data-name="Trazado 181411" d="M76.15,358.94v4.69l60.93,35.18v-4.69Z" fill="#37474f"/>
        <path id="Trazado_181412" data-name="Trazado 181412" d="M155.69,372.75l-1-.57h0a1.32,1.32,0,0,0-1.32.14,4.16,4.16,0,0,0-1.88,3.26,1.32,1.32,0,0,0,.54,1.21h0l.92.53.17-.27a2.3,2.3,0,0,0,.54-.21,4.16,4.16,0,0,0,1.88-3.26,2.251,2.251,0,0,0-.06-.48Z" fill="#5b9bce"/>
        <path id="Trazado_181413" data-name="Trazado 181413" d="M155.69,372.75l-1-.57h0a1.32,1.32,0,0,0-1.32.14,4.16,4.16,0,0,0-1.88,3.26,1.32,1.32,0,0,0,.54,1.21h0l.92.53.17-.27a2.3,2.3,0,0,0,.54-.21,4.16,4.16,0,0,0,1.88-3.26,2.251,2.251,0,0,0-.06-.48Z" opacity="0.4"/>
        <path id="Trazado_181414" data-name="Trazado 181414" d="M154.32,372.86a4.14,4.14,0,0,0-1.88,3.25c0,1.21.84,1.69,1.88,1.09a4.16,4.16,0,0,0,1.88-3.26C156.2,372.74,155.36,372.26,154.32,372.86Z" fill="#5b9bce"/>
        <path id="Trazado_181415" data-name="Trazado 181415" d="M154.32,372.86a4.14,4.14,0,0,0-1.88,3.25c0,1.21.84,1.69,1.88,1.09a4.16,4.16,0,0,0,1.88-3.26C156.2,372.74,155.36,372.26,154.32,372.86Z" opacity="0.2"/>
        <path id="Trazado_181416" data-name="Trazado 181416" d="M147.52,377.46l-1-.57h0a1.29,1.29,0,0,0-1.32.13,4.16,4.16,0,0,0-1.88,3.26,1.33,1.33,0,0,0,.55,1.22h0l.92.53.17-.28a1.929,1.929,0,0,0,.54-.21,4.16,4.16,0,0,0,1.88-3.26,1.8,1.8,0,0,0-.06-.48Z" fill="#5b9bce"/>
        <path id="Trazado_181417" data-name="Trazado 181417" d="M147.52,377.46l-1-.57h0a1.29,1.29,0,0,0-1.32.13,4.16,4.16,0,0,0-1.88,3.26,1.33,1.33,0,0,0,.55,1.22h0l.92.53.17-.28a1.929,1.929,0,0,0,.54-.21,4.16,4.16,0,0,0,1.88-3.26,1.8,1.8,0,0,0-.06-.48Z" opacity="0.4"/>
        <path id="Trazado_181418" data-name="Trazado 181418" d="M146.15,377.57a4.16,4.16,0,0,0-1.88,3.26c0,1.2.84,1.69,1.88,1.09a4.16,4.16,0,0,0,1.88-3.26C148,377.46,147.19,377,146.15,377.57Z" fill="#5b9bce"/>
        <path id="Trazado_181419" data-name="Trazado 181419" d="M146.15,377.57a4.16,4.16,0,0,0-1.88,3.26c0,1.2.84,1.69,1.88,1.09a4.16,4.16,0,0,0,1.88-3.26C148,377.46,147.19,377,146.15,377.57Z" opacity="0.2"/>
        <path id="Trazado_181420" data-name="Trazado 181420" d="M202.08,309.69l-65,37.52L72.09,309.69l64.99-37.53Z" fill="#5b9bce"/>
        <path id="Trazado_181421" data-name="Trazado 181421" d="M202.08,309.69l-65,37.52L72.09,309.69l64.99-37.53Z" opacity="0.1"/>
        <path id="Trazado_181422" data-name="Trazado 181422" d="M137.08,347.21v-4.69L76.15,307.34l-4.06,2.35Z" opacity="0.1"/>
        <path id="Trazado_181423" data-name="Trazado 181423" d="M202.07,328.45l-64.99,37.52V347.21l65-37.52Z" fill="#5b9bce"/>
        <path id="Trazado_181424" data-name="Trazado 181424" d="M202.07,328.45l-64.99,37.52V347.21l65-37.52Z" fill="#fff" opacity="0.65"/>
        <path id="Trazado_181425" data-name="Trazado 181425" d="M195.85,318l-32.23,18.61a4.78,4.78,0,0,0-2.17,3.75v4.38c0,1.38,1,1.94,2.17,1.25l32.23-18.61a4.8,4.8,0,0,0,2.16-3.75v-4.38C198,317.83,197,317.27,195.85,318Z" fill="#5b9bce"/>
        <path id="Trazado_181426" data-name="Trazado 181426" d="M195.73,321.67v2.13a1,1,0,0,1-.43.75l-.49.28a.268.268,0,0,1-.43-.25v-2.13a1,1,0,0,1,.43-.75l.49-.28C195.53,321.28,195.73,321.39,195.73,321.67Z" fill="#fafafa"/>
        <path id="Trazado_181427" data-name="Trazado 181427" d="M193.54,322.93v2.13a1,1,0,0,1-.43.75l-.49.28a.266.266,0,0,1-.43-.25v-2.13a1,1,0,0,1,.43-.75l.49-.28C193.35,322.54,193.54,322.66,193.54,322.93Z" fill="#fafafa"/>
        <path id="Trazado_181428" data-name="Trazado 181428" d="M191.35,324.19v2.13a1,1,0,0,1-.43.75l-.49.28a.266.266,0,0,1-.43-.25V325a1,1,0,0,1,.43-.75l.49-.28C191.16,323.81,191.35,323.92,191.35,324.19Z" fill="#fafafa"/>
        <path id="Trazado_181429" data-name="Trazado 181429" d="M189.16,325.45v2.13a1,1,0,0,1-.43.75l-.49.28a.266.266,0,0,1-.43-.25v-2.12a.93.93,0,0,1,.43-.75l.49-.29C189,325.07,189.16,325.18,189.16,325.45Z" fill="#fafafa"/>
        <path id="Trazado_181430" data-name="Trazado 181430" d="M187,326.72v2.12a1,1,0,0,1-.44.75l-.48.28a.272.272,0,0,1-.44-.25V327.5a1,1,0,0,1,.44-.75l.48-.28A.269.269,0,0,1,187,326.72Z" fill="#455a64"/>
        <path id="Trazado_181431" data-name="Trazado 181431" d="M184.79,328v2.12a.94.94,0,0,1-.44.75l-.48.28a.272.272,0,0,1-.44-.25v-2.12a1,1,0,0,1,.44-.75l.48-.28C184.59,327.59,184.79,327.7,184.79,328Z" fill="#455a64"/>
        <path id="Trazado_181432" data-name="Trazado 181432" d="M182.6,329.24v2.12a1,1,0,0,1-.43.75l-.49.29a.268.268,0,0,1-.43-.25V330a1,1,0,0,1,.43-.75l.49-.28A.281.281,0,0,1,182.6,329.24Z" fill="#fafafa"/>
        <path id="Trazado_181433" data-name="Trazado 181433" d="M180.41,330.5v2.13a1,1,0,0,1-.43.75l-.49.28a.266.266,0,0,1-.43-.25v-2.13a1,1,0,0,1,.43-.75l.49-.28C180.22,330.11,180.41,330.22,180.41,330.5Z" fill="#fafafa"/>
        <path id="Trazado_181434" data-name="Trazado 181434" d="M178.22,331.76v2.13a1,1,0,0,1-.43.75l-.49.28a.266.266,0,0,1-.43-.25v-2.13a1,1,0,0,1,.43-.75l.49-.28C178,331.37,178.22,331.49,178.22,331.76Z" fill="#fafafa"/>
        <path id="Trazado_181435" data-name="Trazado 181435" d="M176,333v2.13a1,1,0,0,1-.43.75l-.49.28a.266.266,0,0,1-.43-.25v-2.12a.93.93,0,0,1,.43-.75l.49-.29C175.84,332.64,176,332.75,176,333Z" fill="#455a64"/>
        <path id="Trazado_181436" data-name="Trazado 181436" d="M173.85,334.29v2.12a1,1,0,0,1-.44.75l-.49.28a.267.267,0,0,1-.43-.25v-2.12a1,1,0,0,1,.43-.75l.49-.28C173.65,333.9,173.85,334,173.85,334.29Z" fill="#fafafa"/>
        <path id="Trazado_181437" data-name="Trazado 181437" d="M171.66,335.55v2.12a1,1,0,0,1-.44.75l-.48.28a.272.272,0,0,1-.44-.25v-2.12a1,1,0,0,1,.44-.75l.48-.28C171.46,335.16,171.66,335.27,171.66,335.55Z" fill="#fafafa"/>
        <path id="Trazado_181438" data-name="Trazado 181438" d="M169.47,336.81v2.12a1,1,0,0,1-.43.75l-.49.29a.268.268,0,0,1-.43-.25v-2.13a1,1,0,0,1,.43-.75l.49-.28C169.27,336.42,169.47,336.53,169.47,336.81Z" fill="#455a64"/>
        <path id="Trazado_181439" data-name="Trazado 181439" d="M167.28,338.07v2.13a1,1,0,0,1-.43.75l-.49.28a.268.268,0,0,1-.43-.25v-2.13a1,1,0,0,1,.43-.75l.49-.28C167.09,337.68,167.28,337.79,167.28,338.07Z" fill="#fafafa"/>
        <path id="Trazado_181440" data-name="Trazado 181440" d="M165.09,339.33v2.13a1,1,0,0,1-.43.75l-.49.28a.266.266,0,0,1-.43-.25v-2.13a1,1,0,0,1,.43-.75l.49-.28C164.9,338.94,165.09,339.06,165.09,339.33Z" fill="#455a64"/>
        <path id="Trazado_181441" data-name="Trazado 181441" d="M137.08,365.97,72.09,328.45V309.69l64.99,37.52Z" fill="#5b9bce"/>
        <path id="Trazado_181442" data-name="Trazado 181442" d="M137.08,365.97,72.09,328.45V309.69l64.99,37.52Z" fill="#fff" opacity="0.5"/>
        <g id="Grupo_129463" data-name="Grupo 129463" opacity="0.75">
          <path id="Trazado_181443" data-name="Trazado 181443" d="M82.37,320.32l16,9.23a4.76,4.76,0,0,1,2.17,3.75v4.38c0,1.38-1,1.94-2.17,1.25l-16-9.23a4.8,4.8,0,0,1-2.16-3.7v-4.38C80.21,320.19,81.18,319.63,82.37,320.32Z" fill="#fff"/>
        </g>
        <path id="Trazado_181444" data-name="Trazado 181444" d="M84.43,325.26l1-.57h0a1.34,1.34,0,0,1,1.33.14,4.18,4.18,0,0,1,1.88,3.26,1.3,1.3,0,0,1-.55,1.21h0l-.93.52-.16-.27a1.821,1.821,0,0,1-.54-.21,4.17,4.17,0,0,1-1.89-3.26,2.249,2.249,0,0,1,.06-.48Z" fill="#5b9bce"/>
        <path id="Trazado_181445" data-name="Trazado 181445" d="M84.43,325.26l1-.57h0a1.34,1.34,0,0,1,1.33.14,4.18,4.18,0,0,1,1.88,3.26,1.3,1.3,0,0,1-.55,1.21h0l-.93.52-.16-.27a1.821,1.821,0,0,1-.54-.21,4.17,4.17,0,0,1-1.89-3.26,2.249,2.249,0,0,1,.06-.48Z" opacity="0.2"/>
        <path id="Trazado_181446" data-name="Trazado 181446" d="M85.8,325.37a4.16,4.16,0,0,1,1.88,3.26c0,1.2-.84,1.68-1.88,1.08a4.16,4.16,0,0,1-1.88-3.26C83.92,325.25,84.76,324.77,85.8,325.37Z" fill="#5b9bce"/>
        <path id="Trazado_181447" data-name="Trazado 181447" d="M92.6,330l1-.57h0a1.32,1.32,0,0,1,1.32.13,4.17,4.17,0,0,1,1.89,3.26,1.33,1.33,0,0,1-.55,1.22h0l-.93.53-.17-.28a1.771,1.771,0,0,1-.53-.21,4.17,4.17,0,0,1-1.89-3.26,2.331,2.331,0,0,1,.06-.48Z" fill="#5b9bce"/>
        <path id="Trazado_181448" data-name="Trazado 181448" d="M92.6,330l1-.57h0a1.32,1.32,0,0,1,1.32.13,4.17,4.17,0,0,1,1.89,3.26,1.33,1.33,0,0,1-.55,1.22h0l-.93.53-.17-.28a1.771,1.771,0,0,1-.53-.21,4.17,4.17,0,0,1-1.89-3.26,2.331,2.331,0,0,1,.06-.48Z" opacity="0.2"/>
        <path id="Trazado_181449" data-name="Trazado 181449" d="M94,330.08a4.16,4.16,0,0,1,1.88,3.26c0,1.2-.84,1.69-1.88,1.09a4.16,4.16,0,0,1-1.88-3.26C92.09,330,92.93,329.48,94,330.08Z" fill="#5b9bce"/>
        <path id="Trazado_181450" data-name="Trazado 181450" d="M193.95,337.83v-4.69l-56.87,32.83v4.69Z" fill="#455a64"/>
        <path id="Trazado_181451" data-name="Trazado 181451" d="M76.15,330.79v4.7l60.93,35.17v-4.69Z" fill="#37474f"/>
        <path id="Trazado_181452" data-name="Trazado 181452" d="M155.69,344.61l-1-.58h0a1.34,1.34,0,0,0-1.32.13,4.16,4.16,0,0,0-1.88,3.26,1.35,1.35,0,0,0,.54,1.22h0l.92.53.17-.28a1.932,1.932,0,0,0,.54-.21,4.16,4.16,0,0,0,1.88-3.26,2.331,2.331,0,0,0-.06-.48Z" fill="#5b9bce"/>
        <path id="Trazado_181453" data-name="Trazado 181453" d="M155.69,344.61l-1-.58h0a1.34,1.34,0,0,0-1.32.13,4.16,4.16,0,0,0-1.88,3.26,1.35,1.35,0,0,0,.54,1.22h0l.92.53.17-.28a1.932,1.932,0,0,0,.54-.21,4.16,4.16,0,0,0,1.88-3.26,2.331,2.331,0,0,0-.06-.48Z" opacity="0.4"/>
        <path id="Trazado_181454" data-name="Trazado 181454" d="M154.32,344.71a4.16,4.16,0,0,0-1.88,3.26c0,1.2.84,1.69,1.88,1.09a4.16,4.16,0,0,0,1.88-3.26C156.2,344.6,155.36,344.11,154.32,344.71Z" fill="#5b9bce"/>
        <path id="Trazado_181455" data-name="Trazado 181455" d="M154.32,344.71a4.16,4.16,0,0,0-1.88,3.26c0,1.2.84,1.69,1.88,1.09a4.16,4.16,0,0,0,1.88-3.26C156.2,344.6,155.36,344.11,154.32,344.71Z" opacity="0.2"/>
        <path id="Trazado_181456" data-name="Trazado 181456" d="M147.52,349.32l-1-.57h0a1.32,1.32,0,0,0-1.32.14,4.16,4.16,0,0,0-1.88,3.26,1.33,1.33,0,0,0,.55,1.22h0l.92.53.17-.28a1.93,1.93,0,0,0,.54-.21,4.16,4.16,0,0,0,1.88-3.26,1.749,1.749,0,0,0-.06-.48Z" fill="#5b9bce"/>
        <path id="Trazado_181457" data-name="Trazado 181457" d="M147.52,349.32l-1-.57h0a1.32,1.32,0,0,0-1.32.14,4.16,4.16,0,0,0-1.88,3.26,1.33,1.33,0,0,0,.55,1.22h0l.92.53.17-.28a1.93,1.93,0,0,0,.54-.21,4.16,4.16,0,0,0,1.88-3.26,1.749,1.749,0,0,0-.06-.48Z" opacity="0.4"/>
        <path id="Trazado_181458" data-name="Trazado 181458" d="M146.15,349.43a4.16,4.16,0,0,0-1.88,3.26c0,1.2.84,1.68,1.88,1.08a4.16,4.16,0,0,0,1.88-3.26C148,349.31,147.19,348.83,146.15,349.43Z" fill="#5b9bce"/>
        <path id="Trazado_181459" data-name="Trazado 181459" d="M146.15,349.43a4.16,4.16,0,0,0-1.88,3.26c0,1.2.84,1.68,1.88,1.08a4.16,4.16,0,0,0,1.88-3.26C148,349.31,147.19,348.83,146.15,349.43Z" opacity="0.2"/>
        <path id="Trazado_181460" data-name="Trazado 181460" d="M202.08,281.55l-65,37.52L72.09,281.55l64.99-37.53Z" fill="#5b9bce"/>
        <path id="Trazado_181461" data-name="Trazado 181461" d="M202.08,281.55l-65,37.52L72.09,281.55l64.99-37.53Z" fill="#fff" opacity="0.15"/>
        <path id="Trazado_181462" data-name="Trazado 181462" d="M202.08,281.55l-65,37.52L72.09,281.55l64.99-37.53Z" opacity="0.1"/>
        <path id="Trazado_181463" data-name="Trazado 181463" d="M137.08,314.39v4.68L72.09,281.55l4.06-2.34Z" opacity="0.1"/>
        <path id="Trazado_181464" data-name="Trazado 181464" d="M202.07,300.31l-64.99,37.52V319.07l65-37.52Z" fill="#5b9bce"/>
        <path id="Trazado_181465" data-name="Trazado 181465" d="M202.07,300.31l-64.99,37.52V319.07l65-37.52Z" fill="#fff" opacity="0.65"/>
        <path id="Trazado_181466" data-name="Trazado 181466" d="M195.85,289.84l-32.23,18.61a4.78,4.78,0,0,0-2.17,3.75v4.38c0,1.38,1,1.94,2.17,1.25l32.23-18.61a4.8,4.8,0,0,0,2.16-3.75v-4.38C198,289.71,197,289.15,195.85,289.84Z" fill="#5b9bce"/>
        <path id="Trazado_181467" data-name="Trazado 181467" d="M195.73,293.55v2.12a1,1,0,0,1-.43.75l-.49.29a.268.268,0,0,1-.43-.25v-2.13a1,1,0,0,1,.43-.75l.49-.28C195.53,293.16,195.73,293.27,195.73,293.55Z" fill="#fafafa"/>
        <path id="Trazado_181468" data-name="Trazado 181468" d="M193.54,294.81v2.13a1,1,0,0,1-.43.75l-.49.28a.266.266,0,0,1-.43-.25v-2.13a1,1,0,0,1,.43-.75l.49-.28C193.35,294.42,193.54,294.53,193.54,294.81Z" fill="#455a64"/>
        <path id="Trazado_181469" data-name="Trazado 181469" d="M191.35,296.07v2.13a1,1,0,0,1-.43.75l-.49.28a.266.266,0,0,1-.43-.25v-2.13a1,1,0,0,1,.43-.75l.49-.28C191.16,295.68,191.35,295.8,191.35,296.07Z" fill="#fafafa"/>
        <path id="Trazado_181470" data-name="Trazado 181470" d="M189.16,297.33v2.13a1,1,0,0,1-.43.75l-.49.28a.266.266,0,0,1-.43-.25v-2.12a.93.93,0,0,1,.43-.75l.49-.29C189,297,189.16,297.06,189.16,297.33Z" fill="#fafafa"/>
        <path id="Trazado_181471" data-name="Trazado 181471" d="M187,298.6v2.12a1,1,0,0,1-.44.75l-.48.28a.272.272,0,0,1-.44-.25v-2.12a.94.94,0,0,1,.44-.75l.48-.28A.269.269,0,0,1,187,298.6Z" fill="#fafafa"/>
        <path id="Trazado_181472" data-name="Trazado 181472" d="M184.79,299.86V302a1,1,0,0,1-.44.75l-.48.28a.272.272,0,0,1-.44-.25v-2.12a1,1,0,0,1,.44-.75l.48-.28C184.59,299.47,184.79,299.58,184.79,299.86Z" fill="#455a64"/>
        <path id="Trazado_181473" data-name="Trazado 181473" d="M182.6,301.12v2.12a1,1,0,0,1-.43.75l-.49.28a.266.266,0,0,1-.43-.25V301.9a1,1,0,0,1,.43-.75l.49-.28C182.4,300.73,182.6,300.84,182.6,301.12Z" fill="#455a64"/>
        <path id="Trazado_181474" data-name="Trazado 181474" d="M180.41,302.38v2.13a1,1,0,0,1-.43.75l-.49.28a.268.268,0,0,1-.43-.25v-2.13a1,1,0,0,1,.43-.75l.49-.28C180.22,302,180.41,302.1,180.41,302.38Z" fill="#fafafa"/>
        <path id="Trazado_181475" data-name="Trazado 181475" d="M178.22,303.64v2.13a1,1,0,0,1-.43.75l-.49.28a.266.266,0,0,1-.43-.25v-2.13a1,1,0,0,1,.43-.75l.49-.28C178,303.25,178.22,303.37,178.22,303.64Z" fill="#455a64"/>
        <path id="Trazado_181476" data-name="Trazado 181476" d="M176,304.9V307a1,1,0,0,1-.43.75l-.49.28a.266.266,0,0,1-.43-.25v-2.13a1,1,0,0,1,.43-.75l.49-.28C175.84,304.52,176,304.63,176,304.9Z" fill="#fafafa"/>
        <path id="Trazado_181477" data-name="Trazado 181477" d="M173.85,306.16v2.13a1,1,0,0,1-.44.75l-.49.28a.267.267,0,0,1-.43-.25V307a1,1,0,0,1,.43-.75l.49-.29C173.65,305.78,173.85,305.89,173.85,306.16Z" fill="#fafafa"/>
        <path id="Trazado_181478" data-name="Trazado 181478" d="M171.66,307.43v2.12a1,1,0,0,1-.44.75l-.48.28a.272.272,0,0,1-.44-.25v-2.12a1,1,0,0,1,.44-.75l.48-.28C171.46,307,171.66,307.15,171.66,307.43Z" fill="#fafafa"/>
        <path id="Trazado_181479" data-name="Trazado 181479" d="M169.47,308.69v2.12a1,1,0,0,1-.43.75l-.49.28a.266.266,0,0,1-.43-.25v-2.12a1,1,0,0,1,.43-.75l.49-.28C169.27,308.3,169.47,308.41,169.47,308.69Z" fill="#455a64"/>
        <path id="Trazado_181480" data-name="Trazado 181480" d="M167.28,310v2.12a.93.93,0,0,1-.43.75l-.49.29a.268.268,0,0,1-.43-.25v-2.13a1,1,0,0,1,.43-.75l.49-.28C167.09,309.56,167.28,309.67,167.28,310Z" fill="#fafafa"/>
        <path id="Trazado_181481" data-name="Trazado 181481" d="M165.09,311.21v2.13a1,1,0,0,1-.43.75l-.49.28a.266.266,0,0,1-.43-.25V312a1,1,0,0,1,.43-.75l.49-.28C164.9,310.82,165.09,310.93,165.09,311.21Z" fill="#fafafa"/>
        <path id="Trazado_181482" data-name="Trazado 181482" d="M137.08,337.83,72.09,300.31V281.55l64.99,37.52Z" fill="#5b9bce"/>
        <path id="Trazado_181483" data-name="Trazado 181483" d="M137.08,337.83,72.09,300.31V281.55l64.99,37.52Z" fill="#fff" opacity="0.5"/>
        <g id="Grupo_129464" data-name="Grupo 129464" opacity="0.75">
          <path id="Trazado_181484" data-name="Trazado 181484" d="M82.37,292.21l16,9.22a4.78,4.78,0,0,1,2.17,3.75v4.39c0,1.38-1,1.94-2.17,1.25l-16-9.23a4.8,4.8,0,0,1-2.16-3.75v-4.38C80.21,292.08,81.18,291.52,82.37,292.21Z" fill="#fff"/>
        </g>
        <path id="Trazado_181485" data-name="Trazado 181485" d="M84.43,297.15l1-.57h0a1.34,1.34,0,0,1,1.33.14A4.18,4.18,0,0,1,88.64,300a1.3,1.3,0,0,1-.55,1.21h0l-.93.53-.16-.27a2.15,2.15,0,0,1-.54-.21A4.17,4.17,0,0,1,84.57,298a2.43,2.43,0,0,1,.06-.49Z" fill="#5b9bce"/>
        <path id="Trazado_181486" data-name="Trazado 181486" d="M84.43,297.15l1-.57h0a1.34,1.34,0,0,1,1.33.14A4.18,4.18,0,0,1,88.64,300a1.3,1.3,0,0,1-.55,1.21h0l-.93.53-.16-.27a2.15,2.15,0,0,1-.54-.21A4.17,4.17,0,0,1,84.57,298a2.43,2.43,0,0,1,.06-.49Z" opacity="0.2"/>
        <path id="Trazado_181487" data-name="Trazado 181487" d="M85.8,297.26a4.14,4.14,0,0,1,1.88,3.25c0,1.2-.84,1.69-1.88,1.09a4.16,4.16,0,0,1-1.88-3.26C83.92,297.14,84.76,296.66,85.8,297.26Z" fill="#5b9bce"/>
        <path id="Trazado_181488" data-name="Trazado 181488" d="M92.6,301.86l1-.57h0a1.29,1.29,0,0,1,1.32.13,4.17,4.17,0,0,1,1.89,3.26,1.33,1.33,0,0,1-.55,1.22h0l-.93.53-.17-.28a1.771,1.771,0,0,1-.53-.21,4.17,4.17,0,0,1-1.89-3.26,2.25,2.25,0,0,1,.06-.48Z" fill="#5b9bce"/>
        <path id="Trazado_181489" data-name="Trazado 181489" d="M92.6,301.86l1-.57h0a1.29,1.29,0,0,1,1.32.13,4.17,4.17,0,0,1,1.89,3.26,1.33,1.33,0,0,1-.55,1.22h0l-.93.53-.17-.28a1.771,1.771,0,0,1-.53-.21,4.17,4.17,0,0,1-1.89-3.26,2.25,2.25,0,0,1,.06-.48Z" opacity="0.2"/>
        <path id="Trazado_181490" data-name="Trazado 181490" d="M94,302a4.16,4.16,0,0,1,1.88,3.26c0,1.2-.84,1.69-1.88,1.09a4.16,4.16,0,0,1-1.88-3.26C92.09,301.86,92.93,301.37,94,302Z" fill="#5b9bce"/>
        <path id="Trazado_181491" data-name="Trazado 181491" d="M193.95,309.69V305l-56.87,32.83v4.69Z" fill="#455a64"/>
        <path id="Trazado_181492" data-name="Trazado 181492" d="M76.15,302.65v4.69l60.93,35.18v-4.69Z" fill="#37474f"/>
        <path id="Trazado_181493" data-name="Trazado 181493" d="M155.69,316.46l-1-.57h0a1.29,1.29,0,0,0-1.32.13,4.16,4.16,0,0,0-1.88,3.26,1.35,1.35,0,0,0,.54,1.22h0l.92.53.17-.28a1.932,1.932,0,0,0,.54-.21,4.16,4.16,0,0,0,1.88-3.26,2.331,2.331,0,0,0-.06-.48Z" fill="#5b9bce"/>
        <path id="Trazado_181494" data-name="Trazado 181494" d="M155.69,316.46l-1-.57h0a1.29,1.29,0,0,0-1.32.13,4.16,4.16,0,0,0-1.88,3.26,1.35,1.35,0,0,0,.54,1.22h0l.92.53.17-.28a1.932,1.932,0,0,0,.54-.21,4.16,4.16,0,0,0,1.88-3.26,2.331,2.331,0,0,0-.06-.48Z" opacity="0.4"/>
        <path id="Trazado_181495" data-name="Trazado 181495" d="M154.32,316.57a4.16,4.16,0,0,0-1.88,3.26c0,1.2.84,1.69,1.88,1.09a4.16,4.16,0,0,0,1.88-3.26C156.2,316.46,155.36,316,154.32,316.57Z" fill="#5b9bce"/>
        <path id="Trazado_181496" data-name="Trazado 181496" d="M154.32,316.57a4.16,4.16,0,0,0-1.88,3.26c0,1.2.84,1.69,1.88,1.09a4.16,4.16,0,0,0,1.88-3.26C156.2,316.46,155.36,316,154.32,316.57Z" opacity="0.2"/>
        <path id="Trazado_181497" data-name="Trazado 181497" d="M147.52,321.18l-1-.58h0a1.32,1.32,0,0,0-1.32.14,4.16,4.16,0,0,0-1.88,3.26,1.31,1.31,0,0,0,.55,1.21h0l.92.53.17-.28a1.931,1.931,0,0,0,.54-.21,4.14,4.14,0,0,0,1.88-3.26,1.86,1.86,0,0,0-.06-.48Z" fill="#5b9bce"/>
        <path id="Trazado_181498" data-name="Trazado 181498" d="M147.52,321.18l-1-.58h0a1.32,1.32,0,0,0-1.32.14,4.16,4.16,0,0,0-1.88,3.26,1.31,1.31,0,0,0,.55,1.21h0l.92.53.17-.28a1.931,1.931,0,0,0,.54-.21,4.14,4.14,0,0,0,1.88-3.26,1.86,1.86,0,0,0-.06-.48Z" opacity="0.4"/>
        <path id="Trazado_181499" data-name="Trazado 181499" d="M146.15,321.28a4.16,4.16,0,0,0-1.88,3.26c0,1.2.84,1.69,1.88,1.09a4.16,4.16,0,0,0,1.88-3.26C148,321.17,147.19,320.68,146.15,321.28Z" fill="#5b9bce"/>
        <path id="Trazado_181500" data-name="Trazado 181500" d="M146.15,321.28a4.16,4.16,0,0,0-1.88,3.26c0,1.2.84,1.69,1.88,1.09a4.16,4.16,0,0,0,1.88-3.26C148,321.17,147.19,320.68,146.15,321.28Z" opacity="0.2"/>
        <path id="Trazado_181501" data-name="Trazado 181501" d="M74.69,251.91l59.83-34.52a5.74,5.74,0,0,1,5.2,0l59.76,34.52a5.76,5.76,0,0,1,2.6,4.5v15.76L137,309.7h0L72.09,272.17V256.41a5.77,5.77,0,0,1,2.6-4.5Z" fill="#5b9bce"/>
        <path id="Trazado_181502" data-name="Trazado 181502" d="M74.69,251.91l59.83-34.52a5.74,5.74,0,0,1,5.2,0l59.76,34.52a5.76,5.76,0,0,1,2.6,4.5v15.76L137,309.7h0L72.09,272.17V256.41a5.77,5.77,0,0,1,2.6-4.5Z" fill="#fff" opacity="0.5"/>
        <g id="Grupo_129465" data-name="Grupo 129465" opacity="0.75">
          <path id="Trazado_181503" data-name="Trazado 181503" d="M82.37,264l16,9.23a4.78,4.78,0,0,1,2.17,3.75v4.38c0,1.38-1,1.94-2.17,1.25l-16-9.23a4.8,4.8,0,0,1-2.16-3.75v-4.38C80.21,263.91,81.18,263.35,82.37,264Z" fill="#fff"/>
        </g>
        <path id="Trazado_181504" data-name="Trazado 181504" d="M84.43,269l1-.57h0a1.34,1.34,0,0,1,1.33.14,4.18,4.18,0,0,1,1.88,3.26,1.33,1.33,0,0,1-.55,1.22h0l-.93.53L87,273.3a1.821,1.821,0,0,1-.54-.21,4.17,4.17,0,0,1-1.89-3.26,2.25,2.25,0,0,1,.06-.48Z" fill="#5b9bce"/>
        <path id="Trazado_181505" data-name="Trazado 181505" d="M84.43,269l1-.57h0a1.34,1.34,0,0,1,1.33.14,4.18,4.18,0,0,1,1.88,3.26,1.33,1.33,0,0,1-.55,1.22h0l-.93.53L87,273.3a1.821,1.821,0,0,1-.54-.21,4.17,4.17,0,0,1-1.89-3.26,2.25,2.25,0,0,1,.06-.48Z" opacity="0.2"/>
        <path id="Trazado_181506" data-name="Trazado 181506" d="M85.8,269.09a4.16,4.16,0,0,1,1.88,3.26c0,1.2-.84,1.68-1.88,1.08a4.16,4.16,0,0,1-1.88-3.26C83.92,269,84.76,268.49,85.8,269.09Z" fill="#5b9bce"/>
        <path id="Trazado_181507" data-name="Trazado 181507" d="M92.6,273.7l1-.58h0a1.34,1.34,0,0,1,1.32.13,4.17,4.17,0,0,1,1.89,3.26,1.33,1.33,0,0,1-.55,1.22h0l-.93.53-.17-.28a1.771,1.771,0,0,1-.53-.21,4.17,4.17,0,0,1-1.89-3.26,2.421,2.421,0,0,1,.06-.48Z" fill="#5b9bce"/>
        <path id="Trazado_181508" data-name="Trazado 181508" d="M92.6,273.7l1-.58h0a1.34,1.34,0,0,1,1.32.13,4.17,4.17,0,0,1,1.89,3.26,1.33,1.33,0,0,1-.55,1.22h0l-.93.53-.17-.28a1.771,1.771,0,0,1-.53-.21,4.17,4.17,0,0,1-1.89-3.26,2.421,2.421,0,0,1,.06-.48Z" opacity="0.2"/>
        <path id="Trazado_181509" data-name="Trazado 181509" d="M94,273.8a4.16,4.16,0,0,1,1.88,3.26c0,1.2-.84,1.69-1.88,1.09a4.16,4.16,0,0,1-1.88-3.26C92.09,273.69,92.93,273.2,94,273.8Z" fill="#5b9bce"/>
        <path id="Trazado_181510" data-name="Trazado 181510" d="M137.05,290.05v19.64l65-37.52V256.41a5.81,5.81,0,0,0-2.13-4.17c.95.83.79,1.94-.47,2.67l-59.83,34.52A5.31,5.31,0,0,1,137.05,290.05Z" fill="#5b9bce"/>
        <path id="Trazado_181511" data-name="Trazado 181511" d="M137.05,290.05v19.64l65-37.52V256.41a5.81,5.81,0,0,0-2.13-4.17c.95.83.79,1.94-.47,2.67l-59.83,34.52A5.31,5.31,0,0,1,137.05,290.05Z" fill="#fff" opacity="0.65"/>
        <path id="Trazado_181512" data-name="Trazado 181512" d="M195.85,261.69,163.62,280.3a4.78,4.78,0,0,0-2.17,3.75v4.38c0,1.38,1,1.94,2.17,1.25l32.23-18.6a4.8,4.8,0,0,0,2.16-3.75v-4.39C198,261.56,197,261,195.85,261.69Z" fill="#5b9bce"/>
        <path id="Trazado_181513" data-name="Trazado 181513" d="M195.73,265.4v2.13a1,1,0,0,1-.43.75l-.49.28a.266.266,0,0,1-.43-.25v-2.12a.93.93,0,0,1,.43-.75l.49-.29a.27.27,0,0,1,.43.25Z" fill="#455a64"/>
        <path id="Trazado_181514" data-name="Trazado 181514" d="M193.54,266.67v2.12a1,1,0,0,1-.43.75l-.49.28a.266.266,0,0,1-.43-.25v-2.12a1,1,0,0,1,.43-.75l.49-.28C193.35,266.28,193.54,266.39,193.54,266.67Z" fill="#fafafa"/>
        <path id="Trazado_181515" data-name="Trazado 181515" d="M191.35,267.93v2.12a1,1,0,0,1-.43.75l-.49.28a.266.266,0,0,1-.43-.25v-2.12a1,1,0,0,1,.43-.75l.49-.28C191.16,267.54,191.35,267.65,191.35,267.93Z" fill="#455a64"/>
        <path id="Trazado_181516" data-name="Trazado 181516" d="M189.16,269.19v2.12a.93.93,0,0,1-.43.75l-.49.29a.268.268,0,0,1-.43-.25V270a1,1,0,0,1,.43-.75l.49-.28C189,268.8,189.16,268.91,189.16,269.19Z" fill="#455a64"/>
        <path id="Trazado_181517" data-name="Trazado 181517" d="M187,270.45v2.13a1,1,0,0,1-.44.75l-.48.28a.27.27,0,0,1-.44-.25v-2.13a1,1,0,0,1,.44-.75l.48-.28A.269.269,0,0,1,187,270.45Z" fill="#455a64"/>
        <path id="Trazado_181518" data-name="Trazado 181518" d="M184.79,271.71v2.13a1,1,0,0,1-.44.75l-.48.28a.27.27,0,0,1-.44-.25v-2.13a1,1,0,0,1,.44-.75l.48-.28a.27.27,0,0,1,.44.25Z" fill="#fafafa"/>
        <path id="Trazado_181519" data-name="Trazado 181519" d="M182.6,273v2.13a1,1,0,0,1-.43.75l-.49.28a.266.266,0,0,1-.43-.25v-2.12a.93.93,0,0,1,.43-.75l.49-.29a.27.27,0,0,1,.43.25Z" fill="#fafafa"/>
        <path id="Trazado_181520" data-name="Trazado 181520" d="M180.41,274.24v2.12a1,1,0,0,1-.43.75l-.49.28a.266.266,0,0,1-.43-.25V275a.93.93,0,0,1,.43-.75L180,274C180.22,273.85,180.41,274,180.41,274.24Z" fill="#455a64"/>
        <path id="Trazado_181521" data-name="Trazado 181521" d="M178.22,275.5v2.12a1,1,0,0,1-.43.75l-.49.28a.266.266,0,0,1-.43-.25v-2.12a1,1,0,0,1,.43-.75l.49-.28C178,275.11,178.22,275.22,178.22,275.5Z" fill="#fafafa"/>
        <path id="Trazado_181522" data-name="Trazado 181522" d="M176,276.76v2.12a.93.93,0,0,1-.43.75l-.49.28a.266.266,0,0,1-.43-.25v-2.12a1,1,0,0,1,.43-.75l.49-.28C175.84,276.37,176,276.48,176,276.76Z" fill="#455a64"/>
        <path id="Trazado_181523" data-name="Trazado 181523" d="M173.85,278v2.13a1,1,0,0,1-.44.75l-.49.28a.27.27,0,0,1-.43-.25V278.8a1,1,0,0,1,.43-.75l.49-.28C173.65,277.63,173.85,277.74,173.85,278Z" fill="#455a64"/>
        <path id="Trazado_181524" data-name="Trazado 181524" d="M171.66,279.28v2.13a1,1,0,0,1-.44.75l-.48.28a.27.27,0,0,1-.44-.25v-2.13a1,1,0,0,1,.44-.75l.48-.28a.27.27,0,0,1,.44.25Z" fill="#455a64"/>
        <path id="Trazado_181525" data-name="Trazado 181525" d="M169.47,280.54v2.13a1,1,0,0,1-.43.75l-.49.28a.266.266,0,0,1-.43-.25v-2.13a1,1,0,0,1,.43-.75l.49-.28C169.27,280.15,169.47,280.27,169.47,280.54Z" fill="#fafafa"/>
        <path id="Trazado_181526" data-name="Trazado 181526" d="M167.28,281.8v2.13a1,1,0,0,1-.43.75l-.49.28a.266.266,0,0,1-.43-.25v-2.12a.93.93,0,0,1,.43-.75l.49-.29C167.09,281.42,167.28,281.53,167.28,281.8Z" fill="#455a64"/>
        <path id="Trazado_181527" data-name="Trazado 181527" d="M165.09,283.07v2.12a1,1,0,0,1-.43.75l-.49.28a.266.266,0,0,1-.43-.25v-2.12a1,1,0,0,1,.43-.75l.49-.28C164.9,282.68,165.09,282.79,165.09,283.07Z" fill="#455a64"/>
        <path id="Trazado_181528" data-name="Trazado 181528" d="M199.48,254.91l-59.84,34.52a5.72,5.72,0,0,1-5.19,0L74.69,254.91c-1.44-.83-1.44-2.17,0-3l59.83-34.52a5.74,5.74,0,0,1,5.2,0l59.76,34.52C200.91,252.74,200.91,254.08,199.48,254.91Z" fill="#5b9bce"/>
        <path id="Trazado_181529" data-name="Trazado 181529" d="M199.48,254.91l-59.84,34.52a5.72,5.72,0,0,1-5.19,0L74.69,254.91c-1.44-.83-1.44-2.17,0-3l59.83-34.52a5.74,5.74,0,0,1,5.2,0l59.76,34.52C200.91,252.74,200.91,254.08,199.48,254.91Z" fill="#fff" opacity="0.85"/>
        <path id="Trazado_181530" data-name="Trazado 181530" d="M193.95,281.55v-4.69L137.08,309.7v4.69Z" fill="#455a64"/>
        <path id="Trazado_181531" data-name="Trazado 181531" d="M76.15,274.52v4.69l60.93,35.18V309.7Z" fill="#37474f"/>
        <path id="Trazado_181532" data-name="Trazado 181532" d="M155.69,288.33l-1-.57h0a1.32,1.32,0,0,0-1.32.14,4.16,4.16,0,0,0-1.88,3.26,1.32,1.32,0,0,0,.54,1.21h0l.92.53.17-.27a2.3,2.3,0,0,0,.54-.21,4.16,4.16,0,0,0,1.88-3.26,2.25,2.25,0,0,0-.06-.48Z" fill="#5b9bce"/>
        <path id="Trazado_181533" data-name="Trazado 181533" d="M155.69,288.33l-1-.57h0a1.32,1.32,0,0,0-1.32.14,4.16,4.16,0,0,0-1.88,3.26,1.32,1.32,0,0,0,.54,1.21h0l.92.53.17-.27a2.3,2.3,0,0,0,.54-.21,4.16,4.16,0,0,0,1.88-3.26,2.25,2.25,0,0,0-.06-.48Z" opacity="0.4"/>
        <path id="Trazado_181534" data-name="Trazado 181534" d="M154.32,288.44a4.14,4.14,0,0,0-1.88,3.25c0,1.21.84,1.69,1.88,1.09a4.16,4.16,0,0,0,1.88-3.26C156.2,288.32,155.36,287.84,154.32,288.44Z" fill="#5b9bce"/>
        <path id="Trazado_181535" data-name="Trazado 181535" d="M154.32,288.44a4.14,4.14,0,0,0-1.88,3.25c0,1.21.84,1.69,1.88,1.09a4.16,4.16,0,0,0,1.88-3.26C156.2,288.32,155.36,287.84,154.32,288.44Z" opacity="0.2"/>
        <path id="Trazado_181536" data-name="Trazado 181536" d="M147.52,293l-1-.57h0a1.29,1.29,0,0,0-1.32.13,4.16,4.16,0,0,0-1.88,3.26,1.33,1.33,0,0,0,.55,1.22h0l.92.53.17-.28a1.93,1.93,0,0,0,.54-.21,4.16,4.16,0,0,0,1.88-3.26,1.8,1.8,0,0,0-.06-.48Z" fill="#5b9bce"/>
        <path id="Trazado_181537" data-name="Trazado 181537" d="M147.52,293l-1-.57h0a1.29,1.29,0,0,0-1.32.13,4.16,4.16,0,0,0-1.88,3.26,1.33,1.33,0,0,0,.55,1.22h0l.92.53.17-.28a1.93,1.93,0,0,0,.54-.21,4.16,4.16,0,0,0,1.88-3.26,1.8,1.8,0,0,0-.06-.48Z" opacity="0.4"/>
        <path id="Trazado_181538" data-name="Trazado 181538" d="M146.15,293.15a4.16,4.16,0,0,0-1.88,3.26c0,1.2.84,1.69,1.88,1.09a4.16,4.16,0,0,0,1.88-3.26C148,293,147.19,292.55,146.15,293.15Z" fill="#5b9bce"/>
        <path id="Trazado_181539" data-name="Trazado 181539" d="M146.15,293.15a4.16,4.16,0,0,0-1.88,3.26c0,1.2.84,1.69,1.88,1.09a4.16,4.16,0,0,0,1.88-3.26C148,293,147.19,292.55,146.15,293.15Z" opacity="0.2"/>
      </g>
    </g>
    <g id="freepik--speech-bubble--inject-4">
      <path id="Trazado_181540" data-name="Trazado 181540" d="M312,163.78l-4.64-8.72,3.73-10.78v-6.59l-11.42,6.59v6.6l4.91,8.5a.66.66,0,0,0,.34.3h0Z" fill="#5b9bce"/>
      <path id="Trazado_181541" data-name="Trazado 181541" d="M312,163.78l-4.64-8.72,3.73-10.78v-6.59l-11.42,6.59v6.6l4.91,8.5a.66.66,0,0,0,.34.3h0Z" opacity="0.2"/>
      <path id="Trazado_181542" data-name="Trazado 181542" d="M339.27,85.27a7.57,7.57,0,0,0-3.42-5.93l-2.79-1.61a7.58,7.58,0,0,0-6.85,0l-42.76,24.73a7.57,7.57,0,0,0-3.42,5.93v47.05a7.58,7.58,0,0,0,3.42,5.93l2.79,1.61a7.58,7.58,0,0,0,6.85,0L306.84,155l4.9,8.49a.74.74,0,0,0,1.33-.13l5.18-14.95,17.6-10.19a7.58,7.58,0,0,0,3.42-5.93Z" fill="#5b9bce"/>
      <path id="Trazado_181543" data-name="Trazado 181543" d="M280,155.44a7.58,7.58,0,0,0,3.42,5.93l2.79,1.61a7.68,7.68,0,0,0,6.27.27c-1.62.61-2.84-.3-2.84-2.25V114a7,7,0,0,1,1-3.37L281,105a7,7,0,0,0-1,3.37Z" opacity="0.2"/>
      <path id="Trazado_181544" data-name="Trazado 181544" d="M339.16,84.3c-.4-1.46-1.73-1.92-3.31-1L293.09,108a6.75,6.75,0,0,0-2.41,2.55L281,105a6.93,6.93,0,0,1,2.42-2.55L326.2,77.73a7.67,7.67,0,0,1,6.86,0l2.79,1.62a7.53,7.53,0,0,1,3.31,4.95Z" fill="#fff" opacity="0.5"/>
      <path id="Trazado_181545" data-name="Trazado 181545" d="M329.51,116.58l-14.99-12.99-15,30.3,7.76-4.48v15.84l14.47-8.36V121.06Z" fill="#fff"/>
    </g>
    <g id="freepik--Cloud--inject-4">
      <path id="Trazado_181546" data-name="Trazado 181546" d="M137.64,184.61a.27.27,0,0,0-.16-.23.91.91,0,0,0-.79,0,.29.29,0,0,0-.17.23h0v6.71h0a.27.27,0,0,0,.17.23.85.85,0,0,0,.79,0,.26.26,0,0,0,.16-.23h0Z" fill="#5b9bce"/>
      <path id="Trazado_181547" data-name="Trazado 181547" d="M137.64,193.43a.26.26,0,0,0-.16-.23.85.85,0,0,0-.79,0,.27.27,0,0,0-.17.23h0v3.19h0a.29.29,0,0,0,.17.23.85.85,0,0,0,.79,0,.27.27,0,0,0,.16-.23h0Z" fill="#5b9bce"/>
      <path id="Trazado_181548" data-name="Trazado 181548" d="M137.64,198.72a.29.29,0,0,0-.16-.23.91.91,0,0,0-.79,0,.3.3,0,0,0-.17.23h0v3.2h0a.3.3,0,0,0,.17.23.91.91,0,0,0,.79,0,.29.29,0,0,0,.16-.23h0Z" fill="#5b9bce"/>
      <path id="Trazado_181549" data-name="Trazado 181549" d="M137.64,204a.29.29,0,0,0-.16-.23.91.91,0,0,0-.79,0,.3.3,0,0,0-.17.23h0v3.2h0a.27.27,0,0,0,.17.22.85.85,0,0,0,.79,0,.26.26,0,0,0,.16-.22h0Z" fill="#5b9bce"/>
      <path id="Trazado_181550" data-name="Trazado 181550" d="M137.64,209.32a.27.27,0,0,0-.16-.23.85.85,0,0,0-.79,0,.29.29,0,0,0-.17.23h0v3.19h0a.27.27,0,0,0,.17.23.85.85,0,0,0,.79,0,.26.26,0,0,0,.16-.23h0Z" fill="#5b9bce"/>
      <path id="Trazado_181551" data-name="Trazado 181551" d="M137.64,214.62a.26.26,0,0,0-.16-.23.85.85,0,0,0-.79,0,.27.27,0,0,0-.17.23h0v3.19h0a.29.29,0,0,0,.17.23.91.91,0,0,0,.79,0,.27.27,0,0,0,.16-.23h0Z" fill="#5b9bce"/>
      <path id="Trazado_181552" data-name="Trazado 181552" d="M137.64,219.91a.29.29,0,0,0-.16-.23.91.91,0,0,0-.79,0,.3.3,0,0,0-.17.23h0v3.2h0a.3.3,0,0,0,.17.23.91.91,0,0,0,.79,0,.29.29,0,0,0,.16-.23h0Z" fill="#5b9bce"/>
      <path id="Trazado_181553" data-name="Trazado 181553" d="M137.64,225.21a.29.29,0,0,0-.16-.23.91.91,0,0,0-.79,0,.3.3,0,0,0-.17.23h0v3.19h0a.27.27,0,0,0,.17.23.85.85,0,0,0,.79,0,.26.26,0,0,0,.16-.23h0Z" fill="#5b9bce"/>
      <path id="Trazado_181554" data-name="Trazado 181554" d="M137.64,230.51a.27.27,0,0,0-.16-.23.85.85,0,0,0-.79,0,.29.29,0,0,0-.17.23h0v3.19h0a.27.27,0,0,0,.17.23.85.85,0,0,0,.79,0,.26.26,0,0,0,.16-.23h0Z" fill="#5b9bce"/>
      <path id="Trazado_181555" data-name="Trazado 181555" d="M137.64,235.81a.26.26,0,0,0-.16-.23.85.85,0,0,0-.79,0,.27.27,0,0,0-.17.23h0V239h0a.29.29,0,0,0,.17.23.91.91,0,0,0,.79,0,.27.27,0,0,0,.16-.23h0Z" fill="#5b9bce"/>
      <path id="Trazado_181556" data-name="Trazado 181556" d="M137.64,241.1a.29.29,0,0,0-.16-.23.91.91,0,0,0-.79,0,.3.3,0,0,0-.17.23h0v3.2h0a.3.3,0,0,0,.17.23.91.91,0,0,0,.79,0,.29.29,0,0,0,.16-.23h0Z" fill="#5b9bce"/>
      <path id="Trazado_181557" data-name="Trazado 181557" d="M137.64,246.4a.27.27,0,0,0-.16-.23.91.91,0,0,0-.79,0,.29.29,0,0,0-.17.23h0v3.19h0a.27.27,0,0,0,.17.23.85.85,0,0,0,.79,0,.26.26,0,0,0,.16-.23h0Z" fill="#5b9bce"/>
      <path id="Trazado_181558" data-name="Trazado 181558" d="M137.64,251.7a.27.27,0,0,0-.16-.23.85.85,0,0,0-.79,0,.29.29,0,0,0-.17.23h0v3.19h0a.27.27,0,0,0,.17.23.85.85,0,0,0,.79,0,.26.26,0,0,0,.16-.23h0Z" fill="#5b9bce"/>
      <path id="Trazado_181559" data-name="Trazado 181559" d="M140.65,177.41A1.77,1.77,0,0,0,139.6,176a5.53,5.53,0,0,0-5,0,1.76,1.76,0,0,0-1,1.45h0v9.38h0a1.76,1.76,0,0,0,1,1.46,5.59,5.59,0,0,0,5,0,1.77,1.77,0,0,0,1.05-1.46h0v-9.38Z" fill="#455a64"/>
      <path id="Trazado_181560" data-name="Trazado 181560" d="M142.83,168a2.83,2.83,0,0,0-1.69-2.34,8.94,8.94,0,0,0-8.12,0,2.84,2.84,0,0,0-1.68,2.34h0v9.22h0a2.77,2.77,0,0,0,1.66,2.51,9,9,0,0,0,8.12,0,2.74,2.74,0,0,0,1.66-2.51h0V168Z" fill="#37474f"/>
      <path id="Trazado_181561" data-name="Trazado 181561" d="M158,172.8a.3.3,0,0,0-.17-.23.91.91,0,0,0-.79,0,.29.29,0,0,0-.16.23h0v6.71h0a.26.26,0,0,0,.16.23.85.85,0,0,0,.79,0,.27.27,0,0,0,.17-.23h0Z" fill="#5b9bce"/>
      <path id="Trazado_181562" data-name="Trazado 181562" d="M158,181.62a.27.27,0,0,0-.17-.23.85.85,0,0,0-.79,0,.26.26,0,0,0-.16.23h0v3.19h0a.26.26,0,0,0,.16.23.85.85,0,0,0,.79,0,.27.27,0,0,0,.17-.23h0Z" fill="#5b9bce"/>
      <path id="Trazado_181563" data-name="Trazado 181563" d="M158,186.92a.27.27,0,0,0-.17-.23.85.85,0,0,0-.79,0,.26.26,0,0,0-.16.23h0v3.19h0a.27.27,0,0,0,.16.23.91.91,0,0,0,.79,0,.29.29,0,0,0,.17-.23h0Z" fill="#5b9bce"/>
      <path id="Trazado_181564" data-name="Trazado 181564" d="M158,192.21a.3.3,0,0,0-.17-.23.91.91,0,0,0-.79,0,.29.29,0,0,0-.16.23h0v3.2h0a.29.29,0,0,0,.16.23.91.91,0,0,0,.79,0,.3.3,0,0,0,.17-.23h0Z" fill="#5b9bce"/>
      <path id="Trazado_181565" data-name="Trazado 181565" d="M158,197.51a.29.29,0,0,0-.17-.23.91.91,0,0,0-.79,0,.27.27,0,0,0-.16.23h0v3.19h0a.26.26,0,0,0,.16.23.85.85,0,0,0,.79,0,.27.27,0,0,0,.17-.23h0Z" fill="#5b9bce"/>
      <path id="Trazado_181566" data-name="Trazado 181566" d="M158,202.81a.27.27,0,0,0-.17-.23.85.85,0,0,0-.79,0,.26.26,0,0,0-.16.23h0V206h0a.27.27,0,0,0,.16.23.85.85,0,0,0,.79,0A.29.29,0,0,0,158,206h0Z" fill="#5b9bce"/>
      <path id="Trazado_181567" data-name="Trazado 181567" d="M158,208.1a.27.27,0,0,0-.17-.22.85.85,0,0,0-.79,0,.26.26,0,0,0-.16.22h0v3.2h0a.27.27,0,0,0,.16.23.91.91,0,0,0,.79,0,.29.29,0,0,0,.17-.23h0Z" fill="#5b9bce"/>
      <path id="Trazado_181568" data-name="Trazado 181568" d="M158,213.4a.3.3,0,0,0-.17-.23.91.91,0,0,0-.79,0,.29.29,0,0,0-.16.23h0v3.2h0a.29.29,0,0,0,.16.23.91.91,0,0,0,.79,0,.3.3,0,0,0,.17-.23h0Z" fill="#5b9bce"/>
      <path id="Trazado_181569" data-name="Trazado 181569" d="M158,218.7a.29.29,0,0,0-.17-.23.91.91,0,0,0-.79,0,.27.27,0,0,0-.16.23h0v3.19h0a.26.26,0,0,0,.16.23.85.85,0,0,0,.79,0,.27.27,0,0,0,.17-.23h0Z" fill="#5b9bce"/>
      <path id="Trazado_181570" data-name="Trazado 181570" d="M158,224a.27.27,0,0,0-.17-.23.85.85,0,0,0-.79,0,.26.26,0,0,0-.16.23h0v3.19h0a.27.27,0,0,0,.16.23.85.85,0,0,0,.79,0,.29.29,0,0,0,.17-.23h0Z" fill="#5b9bce"/>
      <path id="Trazado_181571" data-name="Trazado 181571" d="M158,229.29a.27.27,0,0,0-.17-.22.85.85,0,0,0-.79,0,.26.26,0,0,0-.16.22h0v3.2h0a.29.29,0,0,0,.16.23.91.91,0,0,0,.79,0,.3.3,0,0,0,.17-.23h0Z" fill="#5b9bce"/>
      <path id="Trazado_181572" data-name="Trazado 181572" d="M158,234.59a.3.3,0,0,0-.17-.23.91.91,0,0,0-.79,0,.29.29,0,0,0-.16.23h0v3.2h0a.29.29,0,0,0,.16.23.91.91,0,0,0,.79,0,.3.3,0,0,0,.17-.23h0Z" fill="#5b9bce"/>
      <path id="Trazado_181573" data-name="Trazado 181573" d="M158,239.89a.29.29,0,0,0-.17-.23.85.85,0,0,0-.79,0,.27.27,0,0,0-.16.23h0v3.19h0a.26.26,0,0,0,.16.23.85.85,0,0,0,.79,0,.27.27,0,0,0,.17-.23h0Z" fill="#5b9bce"/>
      <path id="Trazado_181574" data-name="Trazado 181574" d="M161,165.6a1.78,1.78,0,0,0-1-1.45,5.59,5.59,0,0,0-5,0,1.77,1.77,0,0,0-1.05,1.45h0V175h0a1.77,1.77,0,0,0,1.05,1.45,5.59,5.59,0,0,0,5,0,1.78,1.78,0,0,0,1-1.45h0Z" fill="#455a64"/>
      <path id="Trazado_181575" data-name="Trazado 181575" d="M163.13,156.22a2.86,2.86,0,0,0-1.68-2.34,9,9,0,0,0-8.13,0,2.86,2.86,0,0,0-1.68,2.34h0v9.22h0a2.73,2.73,0,0,0,1.65,2.51,9,9,0,0,0,8.13,0,2.73,2.73,0,0,0,1.65-2.51h0v-9.22Z" fill="#37474f"/>
      <path id="Trazado_181576" data-name="Trazado 181576" d="M117.33,196.16a.27.27,0,0,0-.17-.23.85.85,0,0,0-.79,0,.26.26,0,0,0-.16.23h0v6.71h0a.29.29,0,0,0,.16.23.91.91,0,0,0,.79,0,.3.3,0,0,0,.17-.23h0Z" fill="#5b9bce"/>
      <path id="Trazado_181577" data-name="Trazado 181577" d="M116.21,208.16h0a.26.26,0,0,0,.16.23.85.85,0,0,0,.79,0,.27.27,0,0,0,.17-.23h0V205h0a.29.29,0,0,0-.17-.23.91.91,0,0,0-.79,0,.27.27,0,0,0-.16.23h0" fill="#5b9bce"/>
      <path id="Trazado_181578" data-name="Trazado 181578" d="M117.33,210.27a.29.29,0,0,0-.17-.23.85.85,0,0,0-.79,0,.27.27,0,0,0-.16.23h0v3.19h0a.26.26,0,0,0,.16.23.85.85,0,0,0,.79,0,.27.27,0,0,0,.17-.23h0Z" fill="#5b9bce"/>
      <path id="Trazado_181579" data-name="Trazado 181579" d="M117.33,215.57h0a.27.27,0,0,0-.17-.23.85.85,0,0,0-.79,0,.26.26,0,0,0-.16.23h0v3.19h0a.27.27,0,0,0,.16.23.91.91,0,0,0,.79,0,.29.29,0,0,0,.17-.23h0" fill="#5b9bce"/>
      <path id="Trazado_181580" data-name="Trazado 181580" d="M117.33,220.86a.3.3,0,0,0-.17-.23.91.91,0,0,0-.79,0,.29.29,0,0,0-.16.23h0v3.2h0a.29.29,0,0,0,.16.23.91.91,0,0,0,.79,0,.3.3,0,0,0,.17-.23h0Z" fill="#5b9bce"/>
      <path id="Trazado_181581" data-name="Trazado 181581" d="M117.33,226.16h0a.29.29,0,0,0-.17-.23.91.91,0,0,0-.79,0,.27.27,0,0,0-.16.23h0v3.19h0a.26.26,0,0,0,.16.23.85.85,0,0,0,.79,0,.27.27,0,0,0,.17-.23h0" fill="#5b9bce"/>
      <path id="Trazado_181582" data-name="Trazado 181582" d="M117.33,231.46a.29.29,0,0,0-.17-.23.85.85,0,0,0-.79,0,.27.27,0,0,0-.16.23h0v3.19h0a.27.27,0,0,0,.16.23.85.85,0,0,0,.79,0,.29.29,0,0,0,.17-.23h0Z" fill="#5b9bce"/>
      <path id="Trazado_181583" data-name="Trazado 181583" d="M117.33,236.76h0a.27.27,0,0,0-.17-.23.85.85,0,0,0-.79,0,.26.26,0,0,0-.16.23h0V240h0a.27.27,0,0,0,.16.23.91.91,0,0,0,.79,0,.29.29,0,0,0,.17-.23h0" fill="#5b9bce"/>
      <path id="Trazado_181584" data-name="Trazado 181584" d="M117.33,242.05a.3.3,0,0,0-.17-.23.91.91,0,0,0-.79,0,.29.29,0,0,0-.16.23h0v3.2h0a.29.29,0,0,0,.16.23.91.91,0,0,0,.79,0,.3.3,0,0,0,.17-.23h0Z" fill="#5b9bce"/>
      <path id="Trazado_181585" data-name="Trazado 181585" d="M117.33,247.35h0a.29.29,0,0,0-.17-.23.91.91,0,0,0-.79,0,.27.27,0,0,0-.16.23h0v3.19h0a.26.26,0,0,0,.16.23.85.85,0,0,0,.79,0,.27.27,0,0,0,.17-.23h0" fill="#5b9bce"/>
      <path id="Trazado_181586" data-name="Trazado 181586" d="M117.33,252.65a.27.27,0,0,0-.17-.23.85.85,0,0,0-.79,0,.26.26,0,0,0-.16.23h0v3.19h0a.27.27,0,0,0,.16.23.85.85,0,0,0,.79,0,.29.29,0,0,0,.17-.23h0v-3.19Z" fill="#5b9bce"/>
      <path id="Trazado_181587" data-name="Trazado 181587" d="M117.33,258h0a.27.27,0,0,0-.17-.23.85.85,0,0,0-.79,0,.26.26,0,0,0-.16.23h0v3.19h0a.27.27,0,0,0,.16.23.91.91,0,0,0,.79,0,.29.29,0,0,0,.17-.23h0" fill="#5b9bce"/>
      <path id="Trazado_181588" data-name="Trazado 181588" d="M117.33,263.24a.3.3,0,0,0-.17-.23.91.91,0,0,0-.79,0,.29.29,0,0,0-.16.23h0v3.2h0a.29.29,0,0,0,.16.23.91.91,0,0,0,.79,0,.3.3,0,0,0,.17-.23h0Z" fill="#5b9bce"/>
      <path id="Trazado_181589" data-name="Trazado 181589" d="M120.33,189a1.78,1.78,0,0,0-1-1.46,5.59,5.59,0,0,0-5,0,1.77,1.77,0,0,0-1,1.46h0v9.38h0a1.76,1.76,0,0,0,1,1.45,5.53,5.53,0,0,0,5,0,1.76,1.76,0,0,0,1-1.45h0Z" fill="#455a64"/>
      <path id="Trazado_181590" data-name="Trazado 181590" d="M122.51,179.58a2.86,2.86,0,0,0-1.68-2.35,9,9,0,0,0-8.13,0,2.86,2.86,0,0,0-1.68,2.35h0v9.22h0a2.73,2.73,0,0,0,1.65,2.5,9,9,0,0,0,8.13,0,2.73,2.73,0,0,0,1.65-2.5h0v-9.22Z" fill="#37474f"/>
      <g id="freepik--cloud--inject-4-2" data-name="freepik--cloud--inject-4">
        <path id="Trazado_181591" data-name="Trazado 181591" d="M215.38,92.3h0l-.46-.26-.28-.16L204.59,86v-.7c0-12.37-4.16-21-10.72-24.67h0L174.54,49.48h0c-5.32-3.06-12.26-2.78-19.85,1.6a45.51,45.51,0,0,0-9.57,7.6,19.94,19.94,0,0,0-4.19-3.32h0l-18.7-10.75h0c-6.85-4.54-16-4.45-26.1,1.38C75,58.24,57.77,91.06,57.77,119.31a59.7,59.7,0,0,0,.71,9.35l-2.64,1.53C42.36,138,31.43,158.85,31.43,176.82h0c0,9.92,3.34,17,8.59,20h0L59.6,208.17h0c4.25,2.43,9.75,2.24,15.77-1.23l35.49-20.49,94.55-54.59c8.09-4.67,14.65-17.2,14.65-28h0C220.06,98.23,218.25,94.21,215.38,92.3Z" fill="#5b9bce" opacity="0.8"/>
        <path id="Trazado_181592" data-name="Trazado 181592" d="M215.38,92.3h0l-.46-.26-.28-.16L204.59,86v-.7c0-12.37-4.16-21-10.72-24.67h0L174.54,49.48h0c-5.32-3.06-12.26-2.78-19.85,1.6a45.51,45.51,0,0,0-9.57,7.6,19.94,19.94,0,0,0-4.19-3.32h0l-18.7-10.75h0c-6.85-4.54-16-4.45-26.1,1.38C75,58.24,57.77,91.06,57.77,119.31a59.7,59.7,0,0,0,.71,9.35l-2.64,1.53C42.36,138,31.43,158.85,31.43,176.82h0c0,9.92,3.34,17,8.59,20h0L59.6,208.17h0c4.25,2.43,9.75,2.24,15.77-1.23l35.49-20.49,94.55-54.59c8.09-4.67,14.65-17.2,14.65-28h0C220.06,98.23,218.25,94.21,215.38,92.3Z" fill="#fff" opacity="0.2"/>
        <path id="Trazado_181593" data-name="Trazado 181593" d="M193.9,60.66h0c-5.29-2.95-12.16-2.61-19.65,1.72a46.111,46.111,0,0,0-10,8.07L146.44,60.14l-1.74-1,.43-.44a45.78,45.78,0,0,1,9.57-7.59c7.59-4.38,14.53-4.66,19.85-1.6h0Z" fill="#fff" opacity="0.35"/>
        <path id="Trazado_181594" data-name="Trazado 181594" d="M145.13,58.69c.46.46.89.94,1.31,1.45l-1.74-1Z" fill="#fff" opacity="0.8"/>
        <path id="Trazado_181595" data-name="Trazado 181595" d="M140.47,55.1h0c-6.68-3.72-15.34-3.29-24.8,2.17s-18.4,15.34-25.13,27L71,73c6.73-11.68,15.51-21.47,25.12-27,10.09-5.82,19.26-5.91,26.11-1.37h0Z" fill="#fff" opacity="0.35"/>
        <path id="Trazado_181596" data-name="Trazado 181596" d="M78,139.94l-2.65,1.52c-9.13,5.27-17.1,16.57-21.27,28.9L34.56,159.08c3.33-9.83,9.07-19,15.89-25l8-5.44Z" fill="#fff" opacity="0.35"/>
        <path id="Trazado_181597" data-name="Trazado 181597" d="M205.41,92.81l-1.4.81a61.465,61.465,0,0,0,.59-8.28c0-22.36-13.6-32.64-30.37-23-7.77,4.49-14.87,12.49-20.24,22-.76-26.92-17.62-39.06-38.32-27.1-21.19,12.23-38.37,45-38.37,73.29a59.729,59.729,0,0,0,.71,9.36l-2.64,1.52C61.89,149.25,51,170.12,51,188.1h0c0,18,10.93,26.62,24.41,18.84l35.49-20.49h0l94.55-54.59c8.09-4.67,14.65-17.2,14.65-28h0C220.06,93.1,213.5,88.14,205.41,92.81Z" fill="#5b9bce"/>
        <path id="Trazado_181598" data-name="Trazado 181598" d="M205.41,92.81l-1.4.81a61.465,61.465,0,0,0,.59-8.28c0-22.36-13.6-32.64-30.37-23-7.77,4.49-14.87,12.49-20.24,22-.76-26.92-17.62-39.06-38.32-27.1-21.19,12.23-38.37,45-38.37,73.29a59.729,59.729,0,0,0,.71,9.36l-2.64,1.52C61.89,149.25,51,170.12,51,188.1h0c0,18,10.93,26.62,24.41,18.84l35.49-20.49h0l94.55-54.59c8.09-4.67,14.65-17.2,14.65-28h0C220.06,93.1,213.5,88.14,205.41,92.81Z" fill="#fff" opacity="0.7"/>
        <path id="Trazado_181599" data-name="Trazado 181599" d="M65.86,204.81c-6,0-9.9-6.56-9.9-16.71,0-16.08,10-35.45,21.91-42.31l2.64-1.52A5,5,0,0,0,83,139.16h0a54.82,54.82,0,0,1-.65-8.58c0-26.61,16.09-57.55,35.86-69,4.52-2.61,8.81-3.94,12.73-3.94,10.7,0,17.64,10.29,18.1,26.85h0a5,5,0,0,0,9.35,2.32h0c5.15-9.11,11.68-16.26,18.39-20.14a19.48,19.48,0,0,1,9.56-3c8.08,0,13.31,8.48,13.31,21.6a56,56,0,0,1-.54,7.6h0a5,5,0,0,0,7.45,5l1.4-.81a7,7,0,0,1,3.32-1.09c2.64,0,3.83,3.93,3.83,7.83,0,9-5.57,19.85-12.15,23.65l-130,75.08a14.31,14.31,0,0,1-7,2.2Z" fill="#fff" opacity="0.7"/>
      </g>
    </g>
  </g>
</svg>
