<svg xmlns="http://www.w3.org/2000/svg" width="28" height="28.872" viewBox="0 0 28 28.872">
  <g id="Grupo_129468" data-name="Grupo 129468" transform="translate(-199.881 -10019.8)">
    <g id="Rectángulo_35071" data-name="Rectángulo 35071" transform="translate(201.619 10025.705)" fill="none" stroke="#592fe6" stroke-width="3">
      <rect width="22.966" height="22.966" rx="10" stroke="none"/>
      <rect x="1.5" y="1.5" width="19.966" height="19.966" rx="8.5" fill="none"/>
    </g>
    <path id="Trazado_118785" data-name="Trazado 118785" d="M714.27-517.171l0,.721a3.416,3.416,0,0,1-.582,1.489Q706.317-503.474,698.929-492a2.947,2.947,0,0,1-4.725.372q-3.612-4.148-7.162-8.35a2.962,2.962,0,0,1,1.191-4.78,3.01,3.01,0,0,1,3.4.976c1.455,1.681,2.9,3.374,4.342,5.062.074.087.15.172.238.274.837-1.008,1.664-2,2.49-3q6.121-7.383,12.239-14.768a5.568,5.568,0,0,1,1.6-1.531,1.647,1.647,0,0,1,.885-.233A.887.887,0,0,1,714.27-517.171Z" transform="translate(-486.393 10537.773)" fill="#ff5151"/>
  </g>
</svg>
