<svg xmlns="http://www.w3.org/2000/svg" xmlns:xlink="http://www.w3.org/1999/xlink" width="664" height="412.426" viewBox="0 0 664 412.426">
  <defs>
    <clipPath id="clip-path">
      <path id="Trazado_180198" data-name="Trazado 180198" d="M0,385.942H664V31H0Z" transform="translate(0 -31)" fill="#ff9b6a"/>
    </clipPath>
  </defs>
  <g id="Grupo_129542" data-name="Grupo 129542" transform="translate(-136 -2762.257)">
    <g id="Enmascarar_grupo_55" data-name="Enmascarar grupo 55" transform="translate(136 2762.257)" opacity="0.05" clip-path="url(#clip-path)">
      <path id="Trazado_180197" data-name="Trazado 180197" d="M1288.3,1731.676c130.433-107.2,274.279-168.811,419.8-94.72,288.655,146.971,288.336,114.508,288.336,114.508l-14.57-888.011h-957.12l14.57,951.8S1139.751,1853.765,1288.3,1731.676Z" transform="translate(-1119.256 -1467.591)" fill="#ff9b6a"/>
    </g>
    <g id="book-01" transform="translate(157.29 2679.394)">
      <g id="Background_Complete" data-name="Background Complete" transform="translate(38.854 418.356)">
        <path id="Trazado_180124" data-name="Trazado 180124" d="M39.01,398.53l314.871,76.933,264.853-76.616Z" transform="translate(-39.01 -398.53)" fill="#e0e0e0"/>
      </g>
      <g id="Floor" transform="translate(22.71 418.099)">
        <path id="Trazado_180125" data-name="Trazado 180125" d="M632.71,398.527c0,.139-136.563.258-304.983.258s-305.017-.119-305.017-.258,136.494-.258,305.017-.258S632.71,398.389,632.71,398.527Z" transform="translate(-22.71 -398.27)" fill="#263238"/>
      </g>
      <g id="Book" transform="translate(130.335 115.606)">
        <path id="Trazado_180127" data-name="Trazado 180127" d="M584.645,140.055V418.293a14.529,14.529,0,0,1-15.47,14.509L360.69,422.482l1.892-282.873,204.871-15.5a15.985,15.985,0,0,1,17.193,15.945Z" transform="translate(-133.585 -93.14)" fill="#ff725e"/>
        <path id="Trazado_180128" data-name="Trazado 180128" d="M570.131,433.322h-.99L360.17,422.972V422.5l1.911-283.348L567.408,123.61a16.49,16.49,0,0,1,17.728,16.44V418.288a15.024,15.024,0,0,1-15,15.034ZM361.16,422l207.98,10.3A14.044,14.044,0,0,0,584.1,418.288V140.05a15.5,15.5,0,0,0-16.668-15.46L363.012,140.07Z" transform="translate(-133.58 -93.135)" fill="#263238"/>
        <path id="Trazado_180129" data-name="Trazado 180129" d="M562.255,123.29l19.2,6.764v291.42l-20.748-.03Z" transform="translate(-135.509 -93.133)" fill="#e0e0e0"/>
        <path id="Trazado_180130" data-name="Trazado 180130" d="M361.729,138.969s74.229-28.642,198.413-16.837l-1.5,299.64L359.58,417.454Z" transform="translate(-133.575 -93.094)" fill="#fff"/>
        <path id="Trazado_180131" data-name="Trazado 180131" d="M361.727,138.967v5.219c0,3.427-.049,8.517-.089,15.123-.089,13.232-.218,32.574-.376,57.086-.357,48.984-.852,118.6-1.446,201.048l-.228-.228L558.654,421.5l-.267.258c0-3.546,0-7.378.059-11.211.555-108.3,1.07-208.357,1.486-288.429l.188.208a613.5,613.5,0,0,0-82.657-2.337,513.084,513.084,0,0,0-62.83,6.259,373.577,373.577,0,0,0-39.388,8.547l-5.873,1.7-4.229,1.317-3.417,1.169.842-.337,2.555-.891,4.219-1.377,5.873-1.743a368.041,368.041,0,0,1,39.378-8.705,509.053,509.053,0,0,1,62.86-6.368,613.283,613.283,0,0,1,82.707,2.407h.188v.188c-.386,80.072-.872,180.131-1.387,288.429,0,3.843,0,7.666-.059,11.211v.257h-.258L359.578,417.72h-.238v-.228c.654-82.588,1.258-152.2,1.644-201.216.218-24.492.4-43.824.505-57.046.069-6.6.119-11.667.149-15.093,0-1.7,0-2.971.05-3.872S361.727,138.967,361.727,138.967Z" transform="translate(-133.572 -93.093)" fill="#263238"/>
        <path id="Trazado_180132" data-name="Trazado 180132" d="M390.86,173.308a6.211,6.211,0,0,0,2.09-.178,5.071,5.071,0,0,0-2.09.178Z" transform="translate(-133.876 -93.612)" fill="#e0e0e0"/>
        <path id="Trazado_180133" data-name="Trazado 180133" d="M392.99,173.13l.01-.01-.03.01Z" transform="translate(-133.896 -93.612)" fill="#e0e0e0"/>
        <path id="Trazado_180134" data-name="Trazado 180134" d="M545.994,157.429l-.654-.089A4.952,4.952,0,0,0,545.994,157.429Z" transform="translate(-135.361 -93.46)" fill="#e0e0e0"/>
        <path id="Trazado_180135" data-name="Trazado 180135" d="M430.041,166.712l.059-.406c1.832-.238.594.376,2.268.069.594-.634,2.813-.3,3.367-.664,0,0,.812,0,.782.139.218-.337.842-.178,1.357-.317.178-.109-.149-.079-.3-.149l1.188-.238c.475,0,.614.218.109.307,1.575-.079,6.121-.525,10.706-.8l10.894-.693c-.446-.208-1.486,0-1.9-.347.881-.238,1.327,0,1.7-.218.376.515,1.981,0,2.684.535l.238-.317.456.168c3.962-.5.891-.238,4.387-.257,1.981-.1,2.971-.535,4.1-.406-.158,0-.614-.178-.089-.267.089.267,1.387-.228,1.654,0,.515-.05,2.179-.05,1.6-.406.287.168,1.773.238.891.4a6.676,6.676,0,0,0,1.347,0l-.644-.109c1.694-.05,2.615.238,3.714-.089l-.624-.149a3.754,3.754,0,0,1,2.258.317l-.99.109a27.641,27.641,0,0,0,4.09-.218h-.5a64.181,64.181,0,0,1,6.438-.366c1.386,0,2.763-.1,3.9-.168a18.241,18.241,0,0,0,2.446-.188l-.743-.317,1.426-.158c-.168,0-.723.872-.862.772,3.031.059,18.817.911,21.551,1.565,1.109.277.158.465.139.505,1.377,0,.624-.228,1.783-.079.307.079-.089.208-.277.228.515,0,.99.168.99,0-.624-.168-.317-.485-.565-.733l1.5.188-.089.208a4.764,4.764,0,0,1,2.367-.228c2.466.426,5.16.7,7.646,1.08-.059.129-.594.139-1.129.139a5.159,5.159,0,0,1,1.139.218c-.565-.307,1.07,0,.614-.168,1.892-.287,4.169.594,5.833.485.188-.465,4.784-7.646,4.952-8.21a9.243,9.243,0,0,1,1.159.257,3.823,3.823,0,0,0-1.644-.386l-.139.287c-1.248-.079-.258-.218-1.456-.386,0-.267,1.08-.139,2.06,0-.872-.168-1.713-.485-2.11-.277-.8-.228.139-.287-.832-.545a8.913,8.913,0,0,1-2.466-.218h0c-1.931-.565-3.06-.119-4.833-.594l.208-.059c-.624-.228-1.9-.2-3.031-.505.317.089.584.307-.119.248-1.3-.327-2.218-.287-3.159-.614l-.99.119c-1.149-.178-3.159-.347-5.6-.584s-5.289-.525-8.161-.673-5.734-.4-8.181-.5L499,152.817h.188c-1.773-.079-4.011-.168-6.5-.2s-5.19-.129-7.923-.119l-7.923.089c-2.506.069-4.793.208-6.626.327a29.592,29.592,0,0,0-3.882-.158c.664.089.436.267-.069.267-3.6.139-.238.178-3.872.456l-23.918,1.595c-1.981.535-4.457.624-6.378,1.08l.188-.109c-.515.1-1.644.248-3.09.416l-2.347.277-2.595.357c-3.506.5-7.071.99-8.26,1.258h.327c-2.06.594-1.842.158-3.516.337.287.357-1.476.9-2.149,1.05v-.089c-.99.258-3.308.99-4.952,1.416v-.228a43.644,43.644,0,0,1-5.061,1.208,57.162,57.162,0,0,0-9.032,1.842l-2.149-.139-.277.129a17.164,17.164,0,0,0-.148,4.12c.218,2.1.99,4.269,3.169,4.585v.218l.782-.208c.99-.119,1.347-.465,1.337-.238l-1.307.277c.99-.158.327.109,0,.307a8.384,8.384,0,0,1,1.119-.139c.168-.129-.158-.059-.317-.069a6.132,6.132,0,0,1,1.8-.6c.99-.208.149.327,1.288.089,2.971-.654,6-1.109,8.983-1.654l9.032-1.6c.158.059,0,.089-.178.158,1.832-.406,3.466-.713,5.13-1.05a1.6,1.6,0,0,1,.792.208A90.432,90.432,0,0,1,430.041,166.712Z" transform="translate(-133.858 -93.414)" fill="#e0e0e0"/>
        <path id="Trazado_180136" data-name="Trazado 180136" d="M370.57,138.248c.693,21.343,1.089,98.791,1.089,98.791l11.092-16.421,11.34,13.865-2.11-107.773-16.371,4.675a6.933,6.933,0,0,0-5.041,6.863Z" transform="translate(-133.68 -93.166)" fill="#dee4f0"/>
        <path id="Trazado_180137" data-name="Trazado 180137" d="M392.19,126.68s3.14-.267,3.763,1.753l.614,2.03-4.378.99Z" transform="translate(-133.888 -93.165)" fill="#ff725e"/>
        <g id="Grupo_129344" data-name="Grupo 129344" transform="translate(258.302 33.503)" opacity="0.3">
          <path id="Trazado_180138" data-name="Trazado 180138" d="M392.19,126.68s3.14-.267,3.763,1.753l.614,2.03-4.378.99Z" transform="translate(-392.19 -126.668)"/>
        </g>
        <path id="Trazado_180139" data-name="Trazado 180139" d="M566.86,421.5V378.167c.079-26.74.386-63.781.822-104.644s.733-77.874.99-104.673c.089-13.38.149-24.215.2-31.692,0-3.734,0-6.645.059-8.626v40.318c-.079,26.74-.386,63.8-.822,104.673s-.733,77.854-.99,104.654c-.089,13.38-.149,24.215-.2,31.692,0,3.744,0,6.645-.059,8.626v3Z" transform="translate(-135.568 -93.154)" fill="#263238"/>
        <path id="Trazado_180140" data-name="Trazado 180140" d="M572.329,230.11,596.94,258.6l-24.72,52.144Z" transform="translate(-135.62 -94.16)" fill="#dee4f0"/>
        <path id="Trazado_180141" data-name="Trazado 180141" d="M572.659,316.309l18.084-.079,8.953,10.855-8.953,11.6H572.56Z" transform="translate(-135.623 -94.989)" fill="#b0c0d2"/>
        <path id="Trazado_180142" data-name="Trazado 180142" d="M572.369,421.513c-.139,0,0-65.87.218-147.111s.584-147.121.733-147.121,0,65.86-.218,147.121S572.508,421.513,572.369,421.513Z" transform="translate(-135.621 -93.171)" fill="#263238"/>
        <path id="Trazado_180143" data-name="Trazado 180143" d="M131.38,132.4V420.415c0,5.219,4.724,9.359,10.34,9.082l216.765-7.022c5.2-.267,1.892-9.775,1.892-14.608L302.1,139.968c0-4.833-4.08-8.824-9.28-9.082l-151.1-7.576C136.094,123,131.38,127.182,131.38,132.4Z" transform="translate(-131.38 -93.133)" fill="#ff725e"/>
        <g id="Grupo_129345" data-name="Grupo 129345" transform="translate(0 30.161)" opacity="0.2">
          <path id="Trazado_180144" data-name="Trazado 180144" d="M131.38,132.4V420.415c0,5.219,4.724,9.359,10.34,9.082l216.765-7.022c5.2-.267,1.892-9.775,1.892-14.608L302.1,139.968c0-4.833-4.08-8.824-9.28-9.082l-151.1-7.576C136.094,123,131.38,127.182,131.38,132.4Z" transform="translate(-131.38 -123.294)"/>
        </g>
        <path id="Trazado_180145" data-name="Trazado 180145" d="M164.06,123.09l2.417,302.423,192.352-7.388L360.69,139.6Z" transform="translate(-131.694 -93.131)" fill="#ebebeb"/>
        <path id="Trazado_180146" data-name="Trazado 180146" d="M245.859,112.877l-1.089-11.142,7.675-6.695,8.21,6.725,1.08,11.112Z" transform="translate(-132.471 -92.861)" fill="#ff725e"/>
        <path id="Trazado_180147" data-name="Trazado 180147" d="M181.9,116.1s116.35-21.541,178.655,23.482L358.7,418.107l-176.8,4.348Z" transform="translate(-131.866 -93.014)" fill="#fff"/>
        <path id="Trazado_180148" data-name="Trazado 180148" d="M182.2,116c0,2.209.1,127.125.248,306.355l-.248-.248,166.582-4.09L359,417.769l-.258.248c.723-105.387,1.387-202.177,1.911-278.515l.089.168c-2.971-1.981-5.744-3.962-8.765-5.645l-2.218-1.288c-.733-.436-1.466-.862-2.228-1.228l-4.516-2.278a147.971,147.971,0,0,0-18.193-7.25c-6.031-2.04-12.053-3.526-17.9-4.9-2.971-.594-5.833-1.218-8.705-1.733l-4.269-.713c-1.406-.248-2.813-.465-4.209-.644a301.241,301.241,0,0,0-31.346-2.743c-9.686-.347-18.57-.267-26.562,0-15.985.565-28.4,1.882-36.812,2.971-4.209.525-7.408.99-9.567,1.327l-3.258.515s1.1-.228,3.248-.574,5.358-.842,9.557-1.387c8.408-1.089,20.8-2.436,36.822-3.04,7.992-.287,16.886-.386,26.582,0a298.319,298.319,0,0,1,31.375,2.694c1.406.178,2.813.4,4.219.644l4.288.713c2.862.505,5.764,1.119,8.715,1.723,5.853,1.367,11.885,2.842,17.926,4.883a148.732,148.732,0,0,1,18.253,7.111l4.526,2.288c.772.366,1.515.792,2.248,1.228l2.228,1.3c3.031,1.644,5.843,3.714,8.795,5.655l.079.049v.109c-.5,76.339-1.119,173.129-1.8,278.525v.248h-.248l-10.211.248-166.592,4.08H182V422.3C182.1,243.125,182.2,118.2,182.2,116Z" transform="translate(-131.867 -93.013)" fill="#263238"/>
        <path id="Trazado_180149" data-name="Trazado 180149" d="M204.97,157.82l.01-.01h-.02Z" transform="translate(-132.088 -93.465)" fill="#e0e0e0"/>
        <path id="Trazado_180150" data-name="Trazado 180150" d="M344.544,162.838l-.565-.2A4.259,4.259,0,0,0,344.544,162.838Z" transform="translate(-133.425 -93.511)" fill="#e0e0e0"/>
        <path id="Trazado_180151" data-name="Trazado 180151" d="M238.937,155.609l.1-.4c1.674,0,.5.446,2.04.337.594-.565,2.555,0,3.09-.257,0,.05.743.059.693.238.238-.307.782-.079,1.258-.158.168-.079-.129-.1-.257-.188l1.1-.079c.426.109.525.287.059.307l3.833.208c1.733.1,3.8.149,5.873.337l9.9.713c-.376-.267-1.337-.2-1.664-.594.822-.129,1.188.178,1.565,0,.258.565,1.763.3,2.327.891l.258-.277.386.218c3.585,0,.832-.129,3.961.327,1.822.178,2.733-.139,3.734.149-.158,0-.535-.258,0-.277,0,.277,1.278,0,1.476.257.465,0,1.981.248,1.505-.178.228.2,1.545.475.733.515a5.327,5.327,0,0,0,1.208.168l-.564-.188c1.525.188,2.308.594,3.347.426l-.535-.238c.911.129,1.674.218,1.981.634h-.99a23.52,23.52,0,0,0,3.694.357l-.446-.089a55.285,55.285,0,0,1,5.833.555c1.248.149,2.486.3,3.516.4a17.675,17.675,0,0,0,2.228.168l-.614-.426,1.307.05c-.149,0-.8.753-.9.644l3.783.8,2.813.594,3.05.753,5.784,1.486c1.674.505,2.971.911,3.575,1.139.941.436.049.475,0,.515,1.218.257.594-.129,1.6.188.267.139-.119.2-.287.188.456.1.842.317.911.2-.525-.258-.188-.525-.357-.812l1.3.416-.119.2a4.031,4.031,0,0,1,2.159.149c2.129.8,4.486,1.505,6.626,2.268-.069.119-.555,0-.99,0a4.238,4.238,0,0,1,.99.4c-.446-.4.99.158.584-.069,1.763,0,3.605,1.268,5.12,1.426.258-.426,5.942-6.665,6.14-7.19a6.735,6.735,0,0,1,.99.436,3.209,3.209,0,0,0-1.406-.644l-.188.257c-1.1-.3-.188-.267-1.228-.634,0-.257.99,0,1.862.337-.753-.307-1.446-.753-1.852-.614-.673-.366.188-.257-.634-.673a7.684,7.684,0,0,1-2.189-.624h0c-1.634-.872-2.743-.624-4.249-1.377h.2c-.515-.317-1.674-.5-2.634-.99.267.139.466.4-.158.228-1.109-.535-1.981-.654-2.733-1.119h-.891c-.99-.376-2.793-.852-4.952-1.466s-4.685-1.357-7.25-1.981-5.12-1.268-7.309-1.733l-5.051-1.06h.168l-2.674-.555L297.32,150c-2.238-.4-4.685-.891-7.151-1.258l-7.22-.99c-2.278-.287-4.368-.446-6.041-.584a23.77,23.77,0,0,0-3.5-.683c.584.168.357.317-.109.248-3.278-.327-.238.149-3.565-.05-.99,0-2.595-.158-4.556-.337s-4.269-.277-6.546-.456l-3.377-.258-3.09-.149c-1.921-.1-3.476-.2-4.328-.267-1.832.277-4.12.069-5.942.3l.178-.089c-.475,0-1.525.05-2.852.05h-2.169l-2.4.059c-3.239.089-6.537.119-7.646.3h.307c-1.981.357-1.694-.05-3.239-.059.228.386-1.426.733-2.06.812V146.5c-.99.139-3.1.614-4.665.862v-.218a38.1,38.1,0,0,1-4.714.654,46.418,46.418,0,0,0-8.389.9l-1.981-.357-.267.1a17.828,17.828,0,0,0-.406,4.07c0,2.109.614,4.338,2.575,4.883v.228l.723-.139c.891,0,1.258-.317,1.228-.089l-1.2.139c.891-.059.287.139,0,.307a7.477,7.477,0,0,1,.99,0c.158-.109-.139-.069-.277-.1a5.388,5.388,0,0,1,1.674-.416c.9-.109.109.347,1.159.218,2.763-.337,5.507-.465,8.24-.693s5.487-.366,8.29-.594c.139.079,0,.089-.178.139,1.684-.2,3.189-.327,4.724-.465a1.426,1.426,0,0,1,.693.3A78.54,78.54,0,0,1,238.937,155.609Z" transform="translate(-132.055 -93.344)" fill="#e0e0e0"/>
        <path id="Trazado_180152" data-name="Trazado 180152" d="M139.55,132.1l24.274-9.012,2.417,302.423-26.691-6Z" transform="translate(-131.459 -93.131)" fill="#e0e0e0"/>
        <path id="Trazado_180153" data-name="Trazado 180153" d="M205.22,186.81Z" transform="translate(-132.09 -93.744)" fill="#e0e0e0"/>
        <path id="Trazado_180154" data-name="Trazado 180154" d="M262.4,183.85h-.248A.993.993,0,0,0,262.4,183.85Z" transform="translate(-132.638 -93.715)" fill="#e0e0e0"/>
        <path id="Trazado_180155" data-name="Trazado 180155" d="M219.525,186.523l.05-.188c.693,0,.188.228.832.208.258-.267,1.06.079,1.288-.059,0,0,.307,0,.277.129.109-.149.327,0,.525,0s0-.05-.1-.1h.446c.178,0,.218.139,0,.149,1.179.109,6.834.5,8.111.475-.158-.119-.555-.059-.7-.248.347-.089.5.059.654-.05.109.277.733.1.99.386l.109-.149.158.1a4.773,4.773,0,0,1,1.654,0,11.1,11.1,0,0,1,1.545-.089c-.069,0-.228-.109,0-.139,0,.139.525-.069.614.069.188,0,.812,0,.614-.158.1.1.654.158.317.218a1.794,1.794,0,0,0,.505,0l-.238-.069c.634,0,.99.158,1.4,0l-.238-.079c.386,0,.7,0,.842.188h-.4a7.716,7.716,0,0,0,1.535,0h-.188c.683-.149,4.17-.149,4.793-.347l-.277-.158.535-.089c-.059,0-.277.446-.327.4,1.139,0,7.022.178,8.062.317.426.1.069.228.069.248.515,0,.228-.139.664-.109.109,0,0,.109-.1.129h.386c-.238-.059-.129-.228-.228-.347h.555v.109c.129,0,.337-.287.881-.208.931.089,1.981.089,2.872.158,0,.069-.208.1-.406.129a1.526,1.526,0,0,1,.426.05c-.218-.129.4-.059.218-.119.7-.238,1.575.05,2.189-.109.059-.238,1.476-4.09,1.486-4.377a3.605,3.605,0,0,1,.426.05.99.99,0,0,0-.6-.079v.149c-.456,0-.109-.1-.545-.1,0-.129.386-.139.743-.139-.317,0-.634-.129-.773,0-.3-.069,0-.149-.317-.218a2.5,2.5,0,0,1-.9,0h0c-.713-.158-1.109.149-1.773,0h.079c-.238-.089-.693,0-1.119-.1.119,0,.218.119,0,.129a6.912,6.912,0,0,1-1.169-.149l-.347.109c-1.684-.1-8.359-.208-10.052-.257h.059c-2.585,0-7.923-.287-10.557-.228a7.5,7.5,0,0,0-1.416-.188c.238.059.158.139,0,.129-1.317-.069-.089.079-1.426.069-1.535.05-7.378-.327-8.725-.485a18.968,18.968,0,0,1-2.367.05h.079c-.772,0-5.1-.317-6-.287h.119c-.782.079-.664-.109-1.278-.2.079.2-.594.287-.852.287h0c-.386,0-1.258.158-1.892.158v-.109a13.491,13.491,0,0,1-1.9,0,18.065,18.065,0,0,0-3.427-.386l-.743-.347h-.109s-1.367,3.724.129,4.585v.109h.307c.357.069.535,0,.505.059h-.5c.357,0,.1.089,0,.149a2.427,2.427,0,0,1,.416.069c.079,0,0,0-.1-.069a1.872,1.872,0,0,1,.713-.059c.366,0,0,.178.446.208,2.3.178,4.526.406,6.844.475.059.05,0,.05-.079.069H215.8a.575.575,0,0,1,.267.178C215.89,186.355,219.465,186.5,219.525,186.523Z" transform="translate(-132.084 -93.685)" fill="#e0e0e0"/>
        <path id="Trazado_180156" data-name="Trazado 180156" d="M204.17,255.07a1.664,1.664,0,0,0,.763.178A1.525,1.525,0,0,0,204.17,255.07Z" transform="translate(-132.08 -94.4)" fill="#e3e3e3"/>
        <path id="Trazado_180157" data-name="Trazado 180157" d="M205,255.26Z" transform="translate(-132.088 -94.402)" fill="#e3e3e3"/>
        <path id="Trazado_180158" data-name="Trazado 180158" d="M262.13,252.3Z" transform="translate(-132.638 -94.374)" fill="#e3e3e3"/>
        <path id="Trazado_180159" data-name="Trazado 180159" d="M39.695,78.1V75.419c1.848,0,.528,3.22,2.218,2.952.713-3.623,2.825.94,3.432-.939,0,0,.818,0,.739,1.879.29-2.013.871,0,1.4-.805s-.132,0-.264-1.208h1.215c.449.805.554,2.013,0,2.147,3.142,1.476,18.192,6.71,21.6,6.442-.423-1.745-1.479-.939-1.848-3.355.9-1.208,1.294.671,1.716-.671.317,3.757,1.954,1.342,2.64,5.1l.264-2.013.422,1.476a2.879,2.879,0,0,1,4.409,0,7.143,7.143,0,0,1,4.119-1.343c-.158,0-.607-1.342,0-1.744,0,1.744,1.4-1.073,1.637.8s2.191,0,1.637-2.013c.264,1.208,1.743,2.013.871,2.952a1,1,0,0,0,1.32,0l-.634-.8c1.69,0,2.64,2.147,3.723,0L89.7,83.2c1,0,1.848,0,2.218,2.55h-1.03a4.45,4.45,0,0,0,4.092-.671h-.5c1.8-2.013,11.089-2.013,12.753-4.831l-.739-2.013,1.426-1.208c-.158,0-.713,5.905-.845,5.234,3.01,0,18.72,2.55,21.492,4.428,1.109,1.208.158,2.953.158,3.355,1.373,0,.607-1.879,1.769-1.476.317,0,0,1.476-.264,1.61.5,0,.977.671,1.03,0-.634-.939-.343-3.22-.607-4.7h1.505v1.476c.317,0,.871-3.758,2.324-2.684,2.482,1.208,5.281,1.208,7.683,2.147,0,.805-.581,1.208-1.109,1.61.385-.082.77.191,1.135.805-.581-1.745,1.056-.805.607-1.61,1.848-3.221,4.172,0,5.809-1.476.185-3.22,3.934-55.425,3.96-59.316a2.028,2.028,0,0,1,1.162.671c-.51-1.216-1.08-1.636-1.637-1.208v2.147c-1.215,0-.264-1.342-1.452-1.476,0-1.745,1.03-1.879,1.98-1.745-.845,0-1.69-1.879-2.06,0-.792-.94,0-2.147-.845-3.087-.784,1.036-1.6,1.264-2.4.671h0c-1.9-2.147-2.957,1.879-4.7,0h.185c-.607-1.074-1.848,0-2.957-1.342.317,0,.581,1.744,0,1.744-1.267-1.342-2.165,0-3.116-1.879l-.9,1.342c-4.515-1.208-22.311-2.684-26.826-3.489h.185c-6.891,0-21.123-3.892-28.173-3.221a7.57,7.57,0,0,0-3.749-2.55c.634.939.4,2.013,0,1.879-3.485-1.074-.238,1.073-3.776.939C69.4,16.507,53.82,11.407,50.2,9.126c-1.954,2.013-4.383,0-6.284.8H44.1c-2.033,0-13.6-4.295-15.842-3.892h.317c-2.086,1.073-1.8-1.611-3.406-2.818.185,2.818-1.611,4.026-2.3,4.026h0c-1.03,0-3.38,2.013-5.069,2.013V7.783a6.067,6.067,0,0,1-5.07,0C9.776,5.425,6.782,4.347,3.786,4.563L1.832,0H1.515s-3.644,50.459.37,62.269v1.476h.792c.977.939,1.426-.671,1.347.805H2.7c.977.671.291,1.342,0,2.147a1.947,1.947,0,0,1,1.135.939c.185,0,0-.671-.29-.939.615-.954,1.263-1.228,1.9-.806,1,0,0,2.416,1.215,2.819,6.1,2.415,12.04,5.5,18.245,6.441,0,.671,0,.671-.211.8h5.281a5.928,5.928,0,0,1,.713,2.282C29.872,75.285,39.536,77.835,39.695,78.1Z" transform="matrix(0.995, -0.105, 0.105, 0.995, 58.005, 173.995)" fill="#d7cbff"/>
        <path id="Trazado_180201" data-name="Trazado 180201" d="M41.479,80.075V77.323c1.931,0,.552,3.3,2.318,3.027.745-3.715,2.952.963,3.587-.963,0,0,.855,0,.773,1.926.3-2.064.911,0,1.462-.826s-.138,0-.276-1.238h1.269c.469.826.579,2.064,0,2.2,3.283,1.514,19.01,6.88,22.569,6.6-.442-1.789-1.545-.963-1.931-3.44.938-1.238,1.352.688,1.793-.688.331,3.852,2.042,1.376,2.759,5.228l.276-2.064.441,1.513a3.045,3.045,0,0,1,4.608,0,7.562,7.562,0,0,1,4.3-1.377c-.166,0-.635-1.376,0-1.789,0,1.789,1.462-1.1,1.711.825s2.29,0,1.711-2.064c.276,1.238,1.821,2.064.911,3.027a1.062,1.062,0,0,0,1.38,0L90.48,86.4c1.766,0,2.759,2.2,3.89,0l-.635-1.1c1.048,0,1.931,0,2.318,2.614H94.977a4.723,4.723,0,0,0,4.276-.688H98.73c1.876-2.064,11.588-2.064,13.326-4.953l-.773-2.064,1.49-1.238c-.166,0-.745,6.054-.883,5.366,3.145,0,19.562,2.614,22.459,4.54,1.159,1.238.166,3.027.166,3.44,1.435,0,.635-1.927,1.849-1.514.331,0,0,1.514-.276,1.651.524,0,1.021.688,1.076,0-.662-.963-.359-3.3-.635-4.815H138.1v1.513c.331,0,.91-3.853,2.428-2.752,2.594,1.238,5.518,1.238,8.029,2.2,0,.826-.607,1.238-1.159,1.651.4-.084.8.2,1.186.826-.607-1.789,1.1-.826.635-1.651,1.931-3.3,4.359,0,6.07-1.513.193-3.3,4.111-56.824,4.139-60.813a2.129,2.129,0,0,1,1.214.688c-.533-1.246-1.128-1.677-1.711-1.238v2.2c-1.269,0-.276-1.376-1.517-1.514,0-1.789,1.076-1.926,2.069-1.789-.883,0-1.766-1.926-2.152,0-.828-.963,0-2.2-.883-3.165-.819,1.062-1.673,1.3-2.511.688h0c-1.986-2.2-3.09,1.926-4.911,0h.193c-.635-1.1-1.931,0-3.09-1.376.331,0,.607,1.788,0,1.788-1.324-1.376-2.262,0-3.256-1.926l-.938,1.376c-4.718-1.238-23.314-2.752-28.032-3.577h.193c-7.2,0-22.072-3.99-29.439-3.3a7.921,7.921,0,0,0-3.918-2.614c.662.963.414,2.064,0,1.926-3.642-1.1-.248,1.1-3.945.963-4.277.688-20.555-4.54-24.335-6.879-2.042,2.064-4.58,0-6.567.825h.193c-2.125,0-14.209-4.4-16.554-3.99h.331C27.684,7.292,27.987,4.54,26.3,3.3,26.5,6.191,24.621,7.43,23.9,7.43h0c-1.076,0-3.532,2.064-5.3,2.064V7.98a6.45,6.45,0,0,1-5.3,0c-3.093-2.418-6.222-3.523-9.353-3.3L1.914,0H1.583s-3.808,51.733.386,63.84v1.514H2.8c1.021.963,1.49-.688,1.407.826H2.825c1.021.687.3,1.376,0,2.2a2.027,2.027,0,0,1,1.186.963c.193,0,0-.688-.3-.963.643-.978,1.32-1.259,1.987-.826,1.049,0,0,2.477,1.269,2.89,6.373,2.476,12.581,5.641,19.065,6.6,0,.688,0,.688-.221.825h5.518a6,6,0,0,1,.745,2.339C31.215,77.185,41.314,79.8,41.479,80.075Z" transform="matrix(0.995, -0.105, 0.105, 0.995, 243.759, 174.718)" fill="#88e0ef"/>
        <path id="Trazado_180160" data-name="Trazado 180160" d="M348.4,201.427c0,.139-31.882.258-71.209.258s-71.209-.119-71.209-.258,31.882-.257,71.209-.257S348.4,201.289,348.4,201.427Z" transform="translate(-132.097 -93.882)" fill="#263238"/>
        <path id="Trazado_180161" data-name="Trazado 180161" d="M347.891,209.477c0,.139-31.845.258-71.069.258s-71.1-.119-71.1-.258,31.811-.257,71.1-.257S347.891,209.329,347.891,209.477Z" transform="translate(-132.095 -93.96)" fill="#263238"/>
        <path id="Trazado_180162" data-name="Trazado 180162" d="M347.891,228.647c0,.149-31.845.258-71.069.258s-71.1-.109-71.1-.258,31.811-.257,71.1-.257S347.891,228.509,347.891,228.647Z" transform="translate(-132.095 -94.144)" fill="#263238"/>
        <path id="Trazado_180163" data-name="Trazado 180163" d="M348.391,219.8c0,.139-32.066.257-71.584.257s-71.617-.119-71.617-.257,32.066-.258,71.617-.258S348.391,219.649,348.391,219.8Z" transform="translate(-132.09 -94.059)" fill="#263238"/>
        <path id="Trazado_180164" data-name="Trazado 180164" d="M214.926,274.493a3.793,3.793,0,1,1-3.793-3.793A3.793,3.793,0,0,1,214.926,274.493Z" transform="translate(-144.112 -80.866)" fill="#ff725e"/>
        <path id="Trazado_180168" data-name="Trazado 180168" d="M214.926,319.113a3.793,3.793,0,1,1-3.793-3.793A3.793,3.793,0,0,1,214.926,319.113Z" transform="translate(56.849 -125.486)" fill="#ff725e"/>
        <path id="Trazado_180180" data-name="Trazado 180180" d="M306.409,169.747c0,.139-18.926.258-42.27.258s-42.27-.119-42.27-.258,18.926-.257,42.27-.257S306.409,169.609,306.409,169.747Z" transform="translate(-132.25 -93.577)" fill="#263238"/>
        <path id="Trazado_180181" data-name="Trazado 180181" d="M146.367,413.609c-.139,0-.258-63.384-.258-141.625s.119-141.625.258-141.625.257,63.384.257,141.625S146.516,413.609,146.367,413.609Z" transform="translate(-131.522 -93.201)" fill="#263238"/>
        <path id="Trazado_180182" data-name="Trazado 180182" d="M152.822,173.96,131.38,222.241l21.442,33.772Z" transform="translate(-131.38 -93.62)" fill="#f5f5f5"/>
        <path id="Trazado_180183" data-name="Trazado 180183" d="M153,412.067c-.149,0-.257-60.463-.257-135.019S152.879,142,153,142s.257,60.413.257,135.039S153.166,412.067,153,412.067Z" transform="translate(-131.585 -93.313)" fill="#263238"/>
        <path id="Trazado_180184" data-name="Trazado 180184" d="M159.467,422.61c-.139,0-.257-63.85-.257-142.615s.119-142.615.257-142.615.258,63.83.258,142.615S159.616,422.61,159.467,422.61Z" transform="translate(-131.648 -93.268)" fill="#263238"/>
        <path id="Trazado_180185" data-name="Trazado 180185" d="M245.859,110.677,244.77,99.535l7.675-6.695,8.21,6.715,1.08,11.122Z" transform="translate(-132.471 -92.84)" fill="#b0c0d2"/>
        <path id="Trazado_180186" data-name="Trazado 180186" d="M545.02,175.175a4.229,4.229,0,1,1-4.368.515l-7.4.862a4.239,4.239,0,1,1-4.358.515l-7.408.872a4.229,4.229,0,1,1-4.358.505l-7.408.872a4.239,4.239,0,1,1-4.358.515l-7.408.872a4.229,4.229,0,1,1-4.358.505l-3.14.376,6.774,57.69,58.72-6.933-6.774-57.69Z" transform="translate(-134.834 -93.627)" fill="#ebebeb"/>
        <path id="Trazado_180187" data-name="Trazado 180187" d="M551.027,194.5a4.256,4.256,0,0,1-.594.079l-1.694.129-6.22.406c-5.259.357-12.509.891-20.511,1.644s-15.232,1.565-20.461,2.2l-6.2.743-1.684.188a2.258,2.258,0,0,1-.594,0,2.637,2.637,0,0,1,.584-.129l1.674-.287c1.456-.238,3.565-.545,6.17-.911,5.219-.723,12.449-1.594,20.461-2.347s15.272-1.228,20.541-1.486c2.625-.129,4.764-.218,6.229-.258h1.7a2.316,2.316,0,0,1,.594.03Z" transform="translate(-134.859 -93.817)" fill="#e0e0e0"/>
        <path id="Trazado_180188" data-name="Trazado 180188" d="M552.217,207.92a2.11,2.11,0,0,1-.584.079l-1.693.129-6.229.416c-5.249.357-12.509.891-20.511,1.634s-15.232,1.575-20.461,2.2l-6.19.753-1.684.188a2.247,2.247,0,0,1-.594,0,2.973,2.973,0,0,1,.574-.139l1.674-.277c1.456-.238,3.565-.555,6.18-.911,5.219-.723,12.449-1.6,20.461-2.357s15.272-1.218,20.531-1.486c2.634-.129,4.764-.208,6.239-.248h1.694a3.843,3.843,0,0,1,.594.02Z" transform="translate(-134.87 -93.947)" fill="#e0e0e0"/>
        <path id="Trazado_180189" data-name="Trazado 180189" d="M553.727,222.06a2.249,2.249,0,0,1-.594.079l-1.694.129-6.22.416c-5.259.347-12.508.891-20.511,1.634s-15.232,1.575-20.461,2.2l-6.19.753-1.694.188a4.4,4.4,0,0,1-.594,0,2.258,2.258,0,0,1,.584-.139l1.674-.277c1.456-.238,3.565-.555,6.17-.911,5.219-.723,12.449-1.6,20.461-2.357s15.272-1.228,20.541-1.486c2.634-.129,4.764-.208,6.229-.248h1.7A2.131,2.131,0,0,1,553.727,222.06Z" transform="translate(-134.885 -94.083)" fill="#e0e0e0"/>
        <path id="Trazado_180190" data-name="Trazado 180190" d="M510.048,237.949c-.139,0-2.139-12.667-4.477-28.325s-4.11-28.384-3.961-28.4,2.149,12.657,4.486,28.325S510.2,237.929,510.048,237.949Z" transform="translate(-134.941 -93.69)" fill="#e0e0e0"/>
        <path id="Trazado_180191" data-name="Trazado 180191" d="M521.538,236.736c-.149,0-1.911-12.5-3.962-27.958S514,180.76,514.14,180.74s1.911,12.5,3.961,27.968S521.677,236.716,521.538,236.736Z" transform="translate(-135.061 -93.685)" fill="#e0e0e0"/>
        <path id="Trazado_180192" data-name="Trazado 180192" d="M532,233.267a1.882,1.882,0,0,1-.079-.545c0-.416-.089-.99-.139-1.575-.109-1.446-.267-3.407-.456-5.794-.376-4.892-.99-11.637-1.832-19.075s-1.812-14.153-2.545-19c-.357-2.377-.654-4.318-.872-5.744-.089-.634-.168-1.149-.228-1.565a1.811,1.811,0,0,1,0-.555,3.453,3.453,0,0,1,.139.535q.129.6.327,1.545c.267,1.347.624,3.3,1.04,5.724.822,4.833,1.832,11.548,2.694,19s1.4,14.2,1.684,19.1c.149,2.456.248,4.437.287,5.814v1.575A2.373,2.373,0,0,1,532,233.267Z" transform="translate(-135.174 -93.673)" fill="#e0e0e0"/>
        <path id="Trazado_180193" data-name="Trazado 180193" d="M544.021,232.236c-.139,0-1.614-12.291-3.3-27.483s-2.971-27.533-2.783-27.543,1.624,12.291,3.3,27.483S544.159,232.216,544.021,232.236Z" transform="translate(-135.29 -93.651)" fill="#e0e0e0"/>
        <path id="Trazado_180194" data-name="Trazado 180194" d="M543.369,201.67c0,.139-9.23.99-20.63,1.8S502.07,204.9,502.06,204.75s9.23-.941,20.64-1.793S543.359,201.521,543.369,201.67Z" transform="translate(-134.945 -93.886)" fill="#263238"/>
        <path id="Trazado_180195" data-name="Trazado 180195" d="M543.412,213.42c0,.149-8.7,1.129-19.451,2.2s-19.491,1.832-19.5,1.684,8.686-1.119,19.451-2.2S543.4,213.281,543.412,213.42Z" transform="translate(-134.968 -94)" fill="#263238"/>
        <path id="Trazado_180196" data-name="Trazado 180196" d="M533.828,224.42a10.753,10.753,0,0,1-2.525.683,52.184,52.184,0,0,1-6.259.9,54.129,54.129,0,0,1-6.319.178,11.1,11.1,0,0,1-2.6-.248,14.773,14.773,0,0,1,2.615-.119c1.6,0,3.823-.119,6.269-.327s4.645-.505,6.229-.743A16.717,16.717,0,0,1,533.828,224.42Z" transform="translate(-135.08 -94.106)" fill="#263238"/>
        <text id="Decreto_103_de_2015" data-name="Decreto 103 de 2015" transform="translate(277.995 189.834)" fill="#12263f" font-size="20" font-family="Roboto-Black, Roboto" font-weight="800"><tspan x="0" y="19">Decreto 103 </tspan><tspan x="0" y="46">de 2015</tspan></text>
        <text id="Decreto_1080_de_2015" data-name="Decreto 1080 de 2015" transform="translate(77.035 189.834)" fill="#12263f" font-size="20" font-family="Roboto-Black, Roboto" font-weight="800"><tspan x="0" y="19">Decreto 1080 </tspan><tspan x="0" y="46">de 2015</tspan></text>
      </g>
    </g>
  </g>
</svg>
