<svg xmlns="http://www.w3.org/2000/svg" xmlns:xlink="http://www.w3.org/1999/xlink" width="1328" height="608.56" viewBox="0 0 1328 608.56">
  <defs>
    <clipPath id="clip-path">
      <path id="Trazado_180432" data-name="Trazado 180432" d="M0,385.942H1328V31H0Z" transform="translate(0 -31)" fill="#ff5151"/>
    </clipPath>
  </defs>
  <g id="Grupo_129542" data-name="Grupo 129542" transform="translate(-136 -3296.939)">
    <g id="Enmascarar_grupo_57" data-name="Enmascarar grupo 57" transform="translate(136 3296.939)" opacity="0.1" clip-path="url(#clip-path)">
      <path id="Trazado_180431" data-name="Trazado 180431" d="M1551.855,1731.676c260.867-107.2,548.558-168.811,839.59-94.72,577.311,146.971,576.673,114.508,576.673,114.508l-29.14-888.011H1024.737l29.14,951.8S1254.765,1853.765,1551.855,1731.676Z" transform="translate(-1213.775 -1467.591)" fill="#ff5151"/>
    </g>
    <g id="Checklist-pana" transform="translate(427.598 3291.745)">
      <g id="freepik--background-complete--inject-12" transform="translate(31.836 43.53)" opacity="0.34">
        <path id="Trazado_180433" data-name="Trazado 180433" d="M35.34,423.9v39.325h9.071a54.539,54.539,0,0,1,0-12.455c.862-4.622,10.716-16.56,10.419-26.807Z" transform="translate(-29.167 102.912)" fill="#d2e1f1"/>
        <path id="Trazado_180434" data-name="Trazado 180434" d="M81.66,423.9v39.325h9.071a54.538,54.538,0,0,1,0-12.455c.862-4.622,10.716-16.56,10.419-26.807Z" transform="translate(-2.916 102.912)" fill="#d2e1f1"/>
        <path id="Trazado_180435" data-name="Trazado 180435" d="M134.064,423.9v39.325h-9.087a55.526,55.526,0,0,0,0-12.456c-.877-4.622-10.716-16.56-10.434-26.807Z" transform="translate(15.715 102.912)" fill="#d2e1f1"/>
        <path id="Trazado_180436" data-name="Trazado 180436" d="M174.132,423.9v39.325h-9.071a55.527,55.527,0,0,0,0-12.456c-.862-4.622-10.716-16.56-10.419-26.807Z" transform="translate(38.441 102.912)" fill="#d2e1f1"/>
        <rect id="Rectángulo_38188" data-name="Rectángulo 38188" width="217.336" height="195.167" transform="translate(0 332.899)" fill="#dee4f0"/>
        <path id="Trazado_180437" data-name="Trazado 180437" d="M132.75,300.13,134.364,495.3H191.3V300.13Z" transform="translate(26.037 32.769)" fill="#d2e1f1"/>
        <rect id="Rectángulo_38189" data-name="Rectángulo 38189" width="139.532" height="49.665" transform="translate(9.776 347.266)" fill="#f3f9ff"/>
        <rect id="Rectángulo_38190" data-name="Rectángulo 38190" width="139.532" height="49.665" transform="translate(9.776 406.817)" fill="#f3f9ff"/>
        <rect id="Rectángulo_38191" data-name="Rectángulo 38191" width="139.532" height="49.665" transform="translate(9.776 466.384)" fill="#f3f9ff"/>
        <path id="Trazado_180439" data-name="Trazado 180439" d="M75.93,266.9l-5.86,48.866h69.594l5.625-48.866Z" transform="translate(-9.485 13.937)" fill="#fff"/>
        <path id="Trazado_180441" data-name="Trazado 180441" d="M120.795,279.69l15.934,32.024-19.568-.219,3.635-31.8" transform="translate(17.202 21.185)" fill="#ebebeb"/>
        <path id="Trazado_180442" data-name="Trazado 180442" d="M89.125,328.642a5.108,5.108,0,1,1-5.108-5.092,5.107,5.107,0,0,1,5.108,5.092Z" transform="translate(-4.475 46.042)" fill="#e0e0e0"/>
        <path id="Trazado_180443" data-name="Trazado 180443" d="M89.125,367.048a5.092,5.092,0,1,1-1.491-3.616,5.108,5.108,0,0,1,1.491,3.616Z" transform="translate(-4.475 67.798)" fill="#e0e0e0"/>
        <path id="Trazado_180444" data-name="Trazado 180444" d="M89.125,405.438a5.108,5.108,0,1,1-5.108-5.108,5.108,5.108,0,0,1,5.108,5.108Z" transform="translate(-4.475 89.555)" fill="#e0e0e0"/>
        <path id="Trazado_180445" data-name="Trazado 180445" d="M171.133,98.061,47.91,96.87l3.431,160.589,123.223.454Z" transform="translate(-22.043 -13.301)" fill="#b0c0d2"/>
        <path id="Trazado_180446" data-name="Trazado 180446" d="M160.509,103.209,52.64,100.42l3.118,145.643L163.6,247.394Z" transform="translate(-19.363 -11.289)" fill="#fafafa"/>
        <path id="Trazado_180447" data-name="Trazado 180447" d="M135.634,116.521,64.05,115.33l2.193,101.806,71.505-1.535Z" transform="translate(-12.896 -2.839)" fill="#d2e1f1"/>
        <path id="Trazado_180448" data-name="Trazado 180448" d="M66.243,217.136,136.636,163.3,64.05,115.33Z" transform="translate(-12.896 -2.839)" fill="#f5f5f5"/>
        <path id="Trazado_180449" data-name="Trazado 180449" d="M504.12,44.58,396,43.53l3.024,140.9,108.088.392Z" transform="translate(175.227 -43.53)" fill="#dee4f0"/>
        <path id="Trazado_180450" data-name="Trazado 180450" d="M494.78,49.11l-94.63-2.46,2.742,127.766,94.6,1.159Z" transform="translate(177.579 -41.762)" fill="#fafafa"/>
        <path id="Trazado_180451" data-name="Trazado 180451" d="M472.949,60.78,410.17,59.73l1.911,89.3,62.732-1.332Z" transform="translate(183.258 -34.349)" fill="#d2e1f1"/>
        <path id="Trazado_180452" data-name="Trazado 180452" d="M412.081,149.033l61.76-47.221L410.17,59.73Z" transform="translate(183.258 -34.349)" fill="#f5f5f5"/>
        <path id="Trazado_180453" data-name="Trazado 180453" d="M387.713,382.3c-.454,1.379,15.667,62.669,15.667,62.669l11.061-2.3L399.229,382.3Z" transform="translate(152.383 79.045)" fill="#d2e1f1"/>
        <path id="Trazado_180454" data-name="Trazado 180454" d="M450.422,376.71,428.3,448.137h12.91l21.2-66.351Z" transform="translate(175.39 75.877)" fill="#dee4f0"/>
        <path id="Trazado_180455" data-name="Trazado 180455" d="M464.53,369.65l-25.35,82.488h12.91l24.425-77.412Z" transform="translate(181.556 71.876)" fill="#d2e1f1"/>
        <path id="Trazado_180456" data-name="Trazado 180456" d="M392.71,419.07l12.91,44.7h64.972l11.985-44.7Z" transform="translate(155.22 99.884)" fill="#d2e1f1"/>
        <path id="Trazado_180457" data-name="Trazado 180457" d="M425.8,452.427a4.067,4.067,0,0,1-.141-.47l-.345-1.363c-.3-1.253-.705-3.024-1.238-5.28l-4.465-19.521-14.586-65.1.392.329H394.04l.392-.5c5.781,25.616,10.967,48.568,14.68,65.144,1.817,8.257,3.29,14.915,4.324,19.584.47,2.272.862,4.042,1.128,5.311.11.58.2,1.034.266,1.379a1.565,1.565,0,0,1,0,.486,4.05,4.05,0,0,1-.141-.47c-.094-.345-.2-.8-.345-1.363-.313-1.253-.736-3.024-1.285-5.28-1.081-4.7-2.632-11.3-4.559-19.521-3.807-16.576-9.056-39.5-14.915-65.1l-.125-.486h12.22l.078.313c5.625,25.616,10.685,48.568,14.336,65.144,1.77,8.257,3.212,14.915,4.215,19.584.47,2.272.83,4.042,1.1,5.311l.266,1.379A1.569,1.569,0,0,1,425.8,452.427Z" transform="translate(155.645 66.526)" fill="#e0e0e0"/>
      </g>
      <g id="freepik--Checklist--inject-12" transform="translate(198.426 51.818)">
        <rect id="Rectángulo_38192" data-name="Rectángulo 38192" width="379.946" height="520.622" transform="translate(0 41.315)" fill="#455a64"/>
        <path id="Trazado_180459" data-name="Trazado 180459" d="M491.2,557.243H157.93V88.62H491.2V557.243Z" transform="translate(-126.282 -26.264)" fill="#e0e0e0"/>
        <path id="Trazado_180460" data-name="Trazado 180460" d="M486.761,550.786H156.48V84.67H486.761V550.786Z" transform="translate(-127.104 -28.503)" fill="#ebebeb"/>
        <path id="Trazado_180461" data-name="Trazado 180461" d="M453.5,514.091l-38.04,30.974H152.55V85.42H485.823V487.88Z" transform="translate(-129.331 -28.078)" fill="#fafafa"/>
        <path id="Trazado_180462" data-name="Trazado 180462" d="M453.649,514.2s.674-.58,2.037-1.692l6.095-4.982,24.112-19.631v.094c0-66.116-.125-213.074-.235-402.46l.36.376H152.744l.407-.407c0,172.81,0,332.224-.094,459.645l-.313-.329L415.656,545h-.094l28.577-23.172,7.16-5.781c1.567-1.285,2.4-1.911,2.4-1.911l-2.35,1.958-7.16,5.938L415.7,545.312h0l-263.006.219h-.329V545.2c0-127.422,0-286.836-.078-459.645V85.15H486.347v.36c-.11,189.448-.2,336.344-.235,402.46h0l-24.206,19.537-6.126,5.123Z" transform="translate(-129.479 -28.231)" fill="#263238"/>
        <path id="Trazado_180463" data-name="Trazado 180463" d="M238.575,64.92h91.1a22.169,22.169,0,0,1,22.169,22.169v24.582H215.45V88.029A23.125,23.125,0,0,1,238.575,64.92Z" transform="translate(-93.684 -39.696)" fill="#88e0ef"/>
        <path id="Trazado_180464" data-name="Trazado 180464" d="M238.582,74.044,233.6,48.82h78.54l-4.371,25.224Z" transform="translate(-83.398 -48.82)" fill="#88e0ef"/>
        <path id="Trazado_180465" data-name="Trazado 180465" d="M230.936,188.311H174.8V132.16h56.136Zm-54.569-1.567h53V133.727h-53Z" transform="translate(-116.722 -1.589)" fill="#88e0ef"/>
        <path id="Trazado_180470" data-name="Trazado 180470" d="M230.936,243.541H174.8V187.39h56.136Zm-54.569-1.567h53V188.957h-53Z" transform="translate(-116.722 29.711)" fill="#88e0ef"/>
        <path id="Trazado_180471" data-name="Trazado 180471" d="M181.92,215.339l7.458-8.006,12.424,9.933,28.436-27.606,6.815,8.037-35.8,35.314Z" transform="translate(-112.687 30.997)" fill="#ff5151"/>
        <path id="Trazado_180476" data-name="Trazado 180476" d="M230.936,296.991H174.8V240.84h56.136Zm-54.569-1.567h53V242.407h-53Z" transform="translate(-116.722 60.002)" fill="#88e0ef"/>
        <path id="Trazado_180477" data-name="Trazado 180477" d="M181.92,268.789l7.458-8.006,12.424,9.933,28.436-27.606,6.815,8.037-35.8,35.314Z" transform="translate(-112.687 61.289)" fill="#ff9b6a"/>
        <path id="Trazado_180482" data-name="Trazado 180482" d="M230.936,348.6H174.8V292.45h56.136Zm-54.569-1.567h53V294.017h-53Z" transform="translate(-116.722 89.251)" fill="#88e0ef"/>
        <path id="Trazado_180483" data-name="Trazado 180483" d="M181.92,320.4l7.458-8.006,12.424,9.933,28.436-27.606,6.815,8.022-35.8,35.314Z" transform="translate(-112.687 90.537)" fill="#ff5151"/>
        <path id="Trazado_180488" data-name="Trazado 180488" d="M340.246,330.23,303.71,405.9H329.8Z" transform="translate(-43.665 110.662)" fill="#e0e0e0"/>
        <path id="Trazado_180489" data-name="Trazado 180489" d="M320.36,406.173,330.81,330.5l59.911,18.487Z" transform="translate(-34.229 110.815)" fill="#fafafa"/>
        <path id="Trazado_180490" data-name="Trazado 180490" d="M320.36,406.377l20.148-16.592,49.963-40.907.141.689-23.14-7.113-36.708-11.39.486-.313c-3.133,21.934-5.813,40.813-7.708,54.193-1.9,13.019-2.867,19.741-3.133,21.433a3.3,3.3,0,0,1,0-.345l.141-1.034c.125-.987.3-2.366.533-4.121.486-3.682,1.175-8.962,2.052-15.667,1.817-13.49,4.355-32.463,7.317-54.632v-.439l.423.125,36.8,11.343,23.125,7.144.721.219-.58.47c-20.226,16.31-37.915,30.567-50.574,40.735l-14.774,11.86-3.948,3.133-1,.8Z" transform="translate(-34.229 110.611)" fill="#263238"/>
        <g id="Grupo_129360" data-name="Grupo 129360" transform="translate(218.981)" opacity="0.3">
          <path id="Trazado_180491" data-name="Trazado 180491" d="M281.824,48.82,277.5,74.044h5.39l4.371-25.224h-6.878" transform="translate(-277.5 -48.82)"/>
        </g>
        <path id="Trazado_180559" data-name="Trazado 180559" d="M184.22,169.449l7.458-8.006,12.424,9.933,28.436-27.606,6.815,8.037-35.8,35.314Z" transform="translate(-114.986 -6.854)" fill="#ff9b6a"/>
        <path id="Trazado_182553" data-name="Trazado 182553" d="M12.578,14.186a5.193,5.193,0,0,1-.8,2.622A4.833,4.833,0,0,1,9.722,18.57,7,7,0,0,1,6.7,19.2a5.584,5.584,0,0,1-4.414-1.826A7.54,7.54,0,0,1,.674,12.213v-.7A8.607,8.607,0,0,1,1.4,7.853,5.513,5.513,0,0,1,3.5,5.431,5.844,5.844,0,0,1,6.66,4.576a6.129,6.129,0,0,1,4.16,1.362,5.383,5.383,0,0,1,1.787,3.755H9.189a2.547,2.547,0,0,0-.654-1.865A2.691,2.691,0,0,0,6.66,7.262a2.048,2.048,0,0,0-1.875.957,6.151,6.151,0,0,0-.625,3.057v1.006a6.806,6.806,0,0,0,.571,3.252A2.091,2.091,0,0,0,6.7,16.51a2.632,2.632,0,0,0,1.807-.557,2.363,2.363,0,0,0,.664-1.768ZM17.52,19h-3.3V8.434h3.3Zm-3.5-13.3a1.482,1.482,0,0,1,.508-1.159,1.909,1.909,0,0,1,1.318-.452,1.909,1.909,0,0,1,1.318.452A1.482,1.482,0,0,1,17.676,5.7a1.482,1.482,0,0,1-.508,1.159,1.909,1.909,0,0,1-1.318.452,1.909,1.909,0,0,1-1.318-.452A1.482,1.482,0,0,1,14.023,5.7Zm11.914,5.713-1.084-.078a1.947,1.947,0,0,0-1.992.977V19H19.57V8.434h3.086l.107,1.357a2.548,2.548,0,0,1,2.314-1.553A3.209,3.209,0,0,1,26,8.355Zm5.469,5.244a1.464,1.464,0,0,0,1.074-.376,1.379,1.379,0,0,0,.371-1.05h3.086a3.653,3.653,0,0,1-1.245,2.852A4.631,4.631,0,0,1,31.484,19.2a4.689,4.689,0,0,1-3.633-1.445,5.7,5.7,0,0,1-1.328-4v-.137a6.436,6.436,0,0,1,.591-2.827,4.3,4.3,0,0,1,1.7-1.885,5.081,5.081,0,0,1,2.637-.659,4.573,4.573,0,0,1,3.271,1.143,4.053,4.053,0,0,1,1.211,3.1H32.852a1.807,1.807,0,0,0-.4-1.26,1.382,1.382,0,0,0-1.074-.439q-1.279,0-1.494,1.631a11.508,11.508,0,0,0-.068,1.426,4.52,4.52,0,0,0,.381,2.207A1.319,1.319,0,0,0,31.406,16.656Zm12.217,1.2A3.393,3.393,0,0,1,40.8,19.2a3.328,3.328,0,0,1-2.632-1.011,4.251,4.251,0,0,1-.894-2.905V8.434h3.291V15.3a1.183,1.183,0,0,0,1.318,1.357,1.72,1.72,0,0,0,1.611-.811V8.434h3.311V19H43.721ZM52.08,19h-3.3V4h3.3Zm7.979,0a3.716,3.716,0,0,1-.312-.947A3.06,3.06,0,0,1,57.207,19.2a3.749,3.749,0,0,1-2.539-.9,2.875,2.875,0,0,1-1.045-2.271,2.955,2.955,0,0,1,1.27-2.6,6.468,6.468,0,0,1,3.691-.879H59.6v-.559q0-1.462-1.26-1.462a1.03,1.03,0,0,0-1.172,1.158H53.877a2.95,2.95,0,0,1,1.3-2.487,5.479,5.479,0,0,1,3.325-.956,4.8,4.8,0,0,1,3.193.986,3.429,3.429,0,0,1,1.2,2.705v4.678a4.79,4.79,0,0,0,.449,2.227V19ZM58,16.852a1.836,1.836,0,0,0,1.021-.264,1.653,1.653,0,0,0,.581-.6V14.3h-.957q-1.719,0-1.719,1.543a.942.942,0,0,0,.3.728A1.1,1.1,0,0,0,58,16.852Zm13.115-5.439-1.084-.078a1.947,1.947,0,0,0-1.992.977V19H64.746V8.434h3.086l.107,1.357a2.548,2.548,0,0,1,2.314-1.553,3.209,3.209,0,0,1,.918.117ZM82.393,19.2a5.432,5.432,0,0,1-3.936-1.45,5.008,5.008,0,0,1-1.5-3.774V13.7a6.489,6.489,0,0,1,.6-2.861,4.395,4.395,0,0,1,1.753-1.919,5.292,5.292,0,0,1,2.734-.679A4.574,4.574,0,0,1,85.557,9.62a5.43,5.43,0,0,1,1.289,3.853v1.279H80.3a2.372,2.372,0,0,0,.771,1.4,2.3,2.3,0,0,0,1.543.508,2.958,2.958,0,0,0,2.441-1.094l1.5,1.777a4.2,4.2,0,0,1-1.743,1.353A5.891,5.891,0,0,1,82.393,19.2Zm-.371-8.418q-1.445,0-1.719,1.914h3.32v-.254a1.63,1.63,0,0,0-.4-1.226A1.593,1.593,0,0,0,82.021,10.777Zm10.43.566,1.533-2.91H97.4L94.619,13.58,97.539,19H94.1l-1.66-3.125L90.811,19H87.354l2.93-5.42L87.51,8.434h3.457Zm9.844-5.537V8.434h1.738v2.285h-1.738v4.834a1.234,1.234,0,0,0,.215.83,1.152,1.152,0,0,0,.85.234,4.828,4.828,0,0,0,.82-.059v2.354a6.074,6.074,0,0,1-1.855.283,3.448,3.448,0,0,1-2.51-.8A3.282,3.282,0,0,1,99,15.963V10.719H97.656V8.434H99V5.807ZM110.439,19.2a5.432,5.432,0,0,1-3.936-1.45,5.008,5.008,0,0,1-1.5-3.774V13.7a6.489,6.489,0,0,1,.6-2.861,4.395,4.395,0,0,1,1.753-1.919,5.292,5.292,0,0,1,2.734-.679A4.574,4.574,0,0,1,113.6,9.62a5.43,5.43,0,0,1,1.289,3.853v1.279H108.35a2.372,2.372,0,0,0,.771,1.4,2.3,2.3,0,0,0,1.543.508,2.958,2.958,0,0,0,2.441-1.094l1.5,1.777a4.2,4.2,0,0,1-1.743,1.353A5.891,5.891,0,0,1,110.439,19.2Zm-.371-8.418q-1.445,0-1.719,1.914h3.32v-.254a1.63,1.63,0,0,0-.4-1.226A1.593,1.593,0,0,0,110.068,10.777Zm12.539.635-1.084-.078a1.947,1.947,0,0,0-1.992.977V19H116.24V8.434h3.086l.107,1.357a2.548,2.548,0,0,1,2.314-1.553,3.209,3.209,0,0,1,.918.117Zm4.209-2.979.107,1.24a3.583,3.583,0,0,1,3.018-1.436,3.015,3.015,0,0,1,2.466.986,4.7,4.7,0,0,1,.845,2.969V19h-3.3V12.33a1.783,1.783,0,0,0-.322-1.177,1.491,1.491,0,0,0-1.172-.376,1.569,1.569,0,0,0-1.436.762V19H123.73V8.434ZM141.025,19a3.716,3.716,0,0,1-.312-.947,3.06,3.06,0,0,1-2.539,1.143,3.749,3.749,0,0,1-2.539-.9,2.875,2.875,0,0,1-1.045-2.271,2.955,2.955,0,0,1,1.27-2.6,6.468,6.468,0,0,1,3.691-.879h1.016v-.559q0-1.462-1.26-1.462a1.03,1.03,0,0,0-1.172,1.158h-3.291a2.95,2.95,0,0,1,1.3-2.487,5.479,5.479,0,0,1,3.325-.956,4.8,4.8,0,0,1,3.193.986,3.429,3.429,0,0,1,1.2,2.705v4.678a4.79,4.79,0,0,0,.449,2.227V19Zm-2.061-2.148a1.836,1.836,0,0,0,1.021-.264,1.653,1.653,0,0,0,.581-.6V14.3h-.957q-1.719,0-1.719,1.543a.942.942,0,0,0,.3.728A1.1,1.1,0,0,0,138.965,16.852Zm21.523-3.662a6.789,6.789,0,0,1-1.294,4.443,5.056,5.056,0,0,1-7.319-.01,6.779,6.779,0,0,1-1.3-4.434v-2.6a6.789,6.789,0,0,1,1.294-4.443,5.056,5.056,0,0,1,7.319.01,6.8,6.8,0,0,1,1.3,4.443ZM157.2,10.172a5.071,5.071,0,0,0-.4-2.29,1.338,1.338,0,0,0-1.27-.757,1.307,1.307,0,0,0-1.235.7,4.777,4.777,0,0,0-.415,2.129V13.59a5.11,5.11,0,0,0,.4,2.329,1.343,1.343,0,0,0,1.27.737,1.325,1.325,0,0,0,1.24-.718,4.878,4.878,0,0,0,.41-2.251ZM172.119,19H162.2V16.852l4.57-4.8q1.689-1.924,1.689-3.057a2.126,2.126,0,0,0-.4-1.4,1.43,1.43,0,0,0-1.162-.479,1.447,1.447,0,0,0-1.221.64,2.629,2.629,0,0,0-.469,1.6h-3.3a4.669,4.669,0,0,1,.654-2.417A4.588,4.588,0,0,1,164.375,5.2a5.4,5.4,0,0,1,2.6-.625,5.308,5.308,0,0,1,3.55,1.064A3.8,3.8,0,0,1,171.768,8.7a4.439,4.439,0,0,1-.312,1.636,7.173,7.173,0,0,1-.972,1.67,24.476,24.476,0,0,1-2.124,2.339l-1.836,2.119h5.6ZM.508,40.639a6.455,6.455,0,0,1,1.084-3.955,3.568,3.568,0,0,1,3.027-1.445A3.035,3.035,0,0,1,7,36.352V31h3.3V46H7.344l-.166-1.133A3.116,3.116,0,0,1,4.6,46.2,3.562,3.562,0,0,1,1.611,44.75,6.659,6.659,0,0,1,.508,40.639Zm3.291.205q0,2.813,1.641,2.813A1.62,1.62,0,0,0,7,42.738V38.715a1.576,1.576,0,0,0-1.543-.937q-1.523,0-1.65,2.461ZM17.285,46.2a5.432,5.432,0,0,1-3.936-1.45,5.008,5.008,0,0,1-1.5-3.774V40.7a6.489,6.489,0,0,1,.6-2.861A4.395,4.395,0,0,1,14.2,35.917a5.292,5.292,0,0,1,2.734-.679,4.574,4.574,0,0,1,3.516,1.382,5.43,5.43,0,0,1,1.289,3.853v1.279H15.2a2.372,2.372,0,0,0,.771,1.4,2.3,2.3,0,0,0,1.543.508,2.958,2.958,0,0,0,2.441-1.094l1.5,1.777a4.2,4.2,0,0,1-1.743,1.353A5.891,5.891,0,0,1,17.285,46.2Zm-.371-8.418q-1.445,0-1.719,1.914h3.32v-.254a1.63,1.63,0,0,0-.4-1.226A1.593,1.593,0,0,0,16.914,37.777ZM35.283,46h-3.3V35.492l-3.242.947v-2.5l6.24-2.158h.3Zm10.771-5.5a3.476,3.476,0,0,1-2.383.957,3.847,3.847,0,0,1-3.066-1.309,5.156,5.156,0,0,1-1.133-3.5,5.247,5.247,0,0,1,.635-2.539A4.763,4.763,0,0,1,41.89,32.26a4.859,4.859,0,0,1,2.534-.684,4.717,4.717,0,0,1,2.544.708,4.767,4.767,0,0,1,1.772,2,6.877,6.877,0,0,1,.654,2.983v1.26a8.548,8.548,0,0,1-.923,4.082,6.371,6.371,0,0,1-2.632,2.656,8.224,8.224,0,0,1-3.984.928H41.65V43.559l.625-.01Q45.674,43.383,46.055,40.5Zm-1.494-1.416a1.6,1.6,0,0,0,1.543-.928V36.791a3.555,3.555,0,0,0-.459-2.021,1.44,1.44,0,0,0-1.24-.654,1.361,1.361,0,0,0-1.162.742,3.3,3.3,0,0,0-.469,1.8,2.956,2.956,0,0,0,.479,1.772A1.531,1.531,0,0,0,44.561,39.086ZM57.637,40.5a3.476,3.476,0,0,1-2.383.957,3.847,3.847,0,0,1-3.066-1.309,5.156,5.156,0,0,1-1.133-3.5,5.247,5.247,0,0,1,.635-2.539,4.763,4.763,0,0,1,1.782-1.855,4.859,4.859,0,0,1,2.534-.684,4.717,4.717,0,0,1,2.544.708,4.767,4.767,0,0,1,1.772,2,6.877,6.877,0,0,1,.654,2.983v1.26a8.548,8.548,0,0,1-.923,4.082,6.371,6.371,0,0,1-2.632,2.656,8.224,8.224,0,0,1-3.984.928h-.205V43.559l.625-.01Q57.256,43.383,57.637,40.5Zm-1.494-1.416a1.6,1.6,0,0,0,1.543-.928V36.791a3.555,3.555,0,0,0-.459-2.021,1.44,1.44,0,0,0-1.24-.654,1.361,1.361,0,0,0-1.162.742,3.3,3.3,0,0,0-.469,1.8,2.956,2.956,0,0,0,.479,1.772A1.531,1.531,0,0,0,56.143,39.086Zm16.475-5.547L67.3,46H63.828L69.15,34.32H62.373V31.781H72.617Z" transform="translate(138.06 130.571)" fill="#12263f"/>
        <path id="Trazado_182555" data-name="Trazado 182555" d="M12.578,14.186a5.193,5.193,0,0,1-.8,2.622A4.833,4.833,0,0,1,9.722,18.57,7,7,0,0,1,6.7,19.2a5.584,5.584,0,0,1-4.414-1.826A7.54,7.54,0,0,1,.674,12.213v-.7A8.607,8.607,0,0,1,1.4,7.853,5.513,5.513,0,0,1,3.5,5.431,5.844,5.844,0,0,1,6.66,4.576a6.129,6.129,0,0,1,4.16,1.362,5.383,5.383,0,0,1,1.787,3.755H9.189a2.547,2.547,0,0,0-.654-1.865A2.691,2.691,0,0,0,6.66,7.262a2.048,2.048,0,0,0-1.875.957,6.151,6.151,0,0,0-.625,3.057v1.006a6.806,6.806,0,0,0,.571,3.252A2.091,2.091,0,0,0,6.7,16.51a2.632,2.632,0,0,0,1.807-.557,2.363,2.363,0,0,0,.664-1.768ZM17.52,19h-3.3V8.434h3.3Zm-3.5-13.3a1.482,1.482,0,0,1,.508-1.159,1.909,1.909,0,0,1,1.318-.452,1.909,1.909,0,0,1,1.318.452A1.482,1.482,0,0,1,17.676,5.7a1.482,1.482,0,0,1-.508,1.159,1.909,1.909,0,0,1-1.318.452,1.909,1.909,0,0,1-1.318-.452A1.482,1.482,0,0,1,14.023,5.7Zm11.914,5.713-1.084-.078a1.947,1.947,0,0,0-1.992.977V19H19.57V8.434h3.086l.107,1.357a2.548,2.548,0,0,1,2.314-1.553A3.209,3.209,0,0,1,26,8.355Zm5.469,5.244a1.464,1.464,0,0,0,1.074-.376,1.379,1.379,0,0,0,.371-1.05h3.086a3.653,3.653,0,0,1-1.245,2.852A4.631,4.631,0,0,1,31.484,19.2a4.689,4.689,0,0,1-3.633-1.445,5.7,5.7,0,0,1-1.328-4v-.137a6.436,6.436,0,0,1,.591-2.827,4.3,4.3,0,0,1,1.7-1.885,5.081,5.081,0,0,1,2.637-.659,4.573,4.573,0,0,1,3.271,1.143,4.053,4.053,0,0,1,1.211,3.1H32.852a1.807,1.807,0,0,0-.4-1.26,1.382,1.382,0,0,0-1.074-.439q-1.279,0-1.494,1.631a11.508,11.508,0,0,0-.068,1.426,4.52,4.52,0,0,0,.381,2.207A1.319,1.319,0,0,0,31.406,16.656Zm12.217,1.2A3.393,3.393,0,0,1,40.8,19.2a3.328,3.328,0,0,1-2.632-1.011,4.251,4.251,0,0,1-.894-2.905V8.434h3.291V15.3a1.183,1.183,0,0,0,1.318,1.357,1.72,1.72,0,0,0,1.611-.811V8.434h3.311V19H43.721ZM52.08,19h-3.3V4h3.3Zm7.979,0a3.716,3.716,0,0,1-.312-.947A3.06,3.06,0,0,1,57.207,19.2a3.749,3.749,0,0,1-2.539-.9,2.875,2.875,0,0,1-1.045-2.271,2.955,2.955,0,0,1,1.27-2.6,6.468,6.468,0,0,1,3.691-.879H59.6v-.559q0-1.462-1.26-1.462a1.03,1.03,0,0,0-1.172,1.158H53.877a2.95,2.95,0,0,1,1.3-2.487,5.479,5.479,0,0,1,3.325-.956,4.8,4.8,0,0,1,3.193.986,3.429,3.429,0,0,1,1.2,2.705v4.678a4.79,4.79,0,0,0,.449,2.227V19ZM58,16.852a1.836,1.836,0,0,0,1.021-.264,1.653,1.653,0,0,0,.581-.6V14.3h-.957q-1.719,0-1.719,1.543a.942.942,0,0,0,.3.728A1.1,1.1,0,0,0,58,16.852Zm13.115-5.439-1.084-.078a1.947,1.947,0,0,0-1.992.977V19H64.746V8.434h3.086l.107,1.357a2.548,2.548,0,0,1,2.314-1.553,3.209,3.209,0,0,1,.918.117ZM82.393,19.2a5.432,5.432,0,0,1-3.936-1.45,5.008,5.008,0,0,1-1.5-3.774V13.7a6.489,6.489,0,0,1,.6-2.861,4.395,4.395,0,0,1,1.753-1.919,5.292,5.292,0,0,1,2.734-.679A4.574,4.574,0,0,1,85.557,9.62a5.43,5.43,0,0,1,1.289,3.853v1.279H80.3a2.372,2.372,0,0,0,.771,1.4,2.3,2.3,0,0,0,1.543.508,2.958,2.958,0,0,0,2.441-1.094l1.5,1.777a4.2,4.2,0,0,1-1.743,1.353A5.891,5.891,0,0,1,82.393,19.2Zm-.371-8.418q-1.445,0-1.719,1.914h3.32v-.254a1.63,1.63,0,0,0-.4-1.226A1.593,1.593,0,0,0,82.021,10.777Zm10.43.566,1.533-2.91H97.4L94.619,13.58,97.539,19H94.1l-1.66-3.125L90.811,19H87.354l2.93-5.42L87.51,8.434h3.457Zm9.844-5.537V8.434h1.738v2.285h-1.738v4.834a1.234,1.234,0,0,0,.215.83,1.152,1.152,0,0,0,.85.234,4.828,4.828,0,0,0,.82-.059v2.354a6.074,6.074,0,0,1-1.855.283,3.448,3.448,0,0,1-2.51-.8A3.282,3.282,0,0,1,99,15.963V10.719H97.656V8.434H99V5.807ZM110.439,19.2a5.432,5.432,0,0,1-3.936-1.45,5.008,5.008,0,0,1-1.5-3.774V13.7a6.489,6.489,0,0,1,.6-2.861,4.395,4.395,0,0,1,1.753-1.919,5.292,5.292,0,0,1,2.734-.679A4.574,4.574,0,0,1,113.6,9.62a5.43,5.43,0,0,1,1.289,3.853v1.279H108.35a2.372,2.372,0,0,0,.771,1.4,2.3,2.3,0,0,0,1.543.508,2.958,2.958,0,0,0,2.441-1.094l1.5,1.777a4.2,4.2,0,0,1-1.743,1.353A5.891,5.891,0,0,1,110.439,19.2Zm-.371-8.418q-1.445,0-1.719,1.914h3.32v-.254a1.63,1.63,0,0,0-.4-1.226A1.593,1.593,0,0,0,110.068,10.777Zm12.539.635-1.084-.078a1.947,1.947,0,0,0-1.992.977V19H116.24V8.434h3.086l.107,1.357a2.548,2.548,0,0,1,2.314-1.553,3.209,3.209,0,0,1,.918.117Zm4.209-2.979.107,1.24a3.583,3.583,0,0,1,3.018-1.436,3.015,3.015,0,0,1,2.466.986,4.7,4.7,0,0,1,.845,2.969V19h-3.3V12.33a1.783,1.783,0,0,0-.322-1.177,1.491,1.491,0,0,0-1.172-.376,1.569,1.569,0,0,0-1.436.762V19H123.73V8.434ZM141.025,19a3.716,3.716,0,0,1-.312-.947,3.06,3.06,0,0,1-2.539,1.143,3.749,3.749,0,0,1-2.539-.9,2.875,2.875,0,0,1-1.045-2.271,2.955,2.955,0,0,1,1.27-2.6,6.468,6.468,0,0,1,3.691-.879h1.016v-.559q0-1.462-1.26-1.462a1.03,1.03,0,0,0-1.172,1.158h-3.291a2.95,2.95,0,0,1,1.3-2.487,5.479,5.479,0,0,1,3.325-.956,4.8,4.8,0,0,1,3.193.986,3.429,3.429,0,0,1,1.2,2.705v4.678a4.79,4.79,0,0,0,.449,2.227V19Zm-2.061-2.148a1.836,1.836,0,0,0,1.021-.264,1.653,1.653,0,0,0,.581-.6V14.3h-.957q-1.719,0-1.719,1.543a.942.942,0,0,0,.3.728A1.1,1.1,0,0,0,138.965,16.852Zm21.523-3.662a6.789,6.789,0,0,1-1.294,4.443,5.056,5.056,0,0,1-7.319-.01,6.779,6.779,0,0,1-1.3-4.434v-2.6a6.789,6.789,0,0,1,1.294-4.443,5.056,5.056,0,0,1,7.319.01,6.8,6.8,0,0,1,1.3,4.443ZM157.2,10.172a5.071,5.071,0,0,0-.4-2.29,1.338,1.338,0,0,0-1.27-.757,1.307,1.307,0,0,0-1.235.7,4.777,4.777,0,0,0-.415,2.129V13.59a5.11,5.11,0,0,0,.4,2.329,1.343,1.343,0,0,0,1.27.737,1.325,1.325,0,0,0,1.24-.718,4.878,4.878,0,0,0,.41-2.251ZM172.119,19H162.2V16.852l4.57-4.8q1.689-1.924,1.689-3.057a2.126,2.126,0,0,0-.4-1.4,1.43,1.43,0,0,0-1.162-.479,1.447,1.447,0,0,0-1.221.64,2.629,2.629,0,0,0-.469,1.6h-3.3a4.669,4.669,0,0,1,.654-2.417A4.588,4.588,0,0,1,164.375,5.2a5.4,5.4,0,0,1,2.6-.625,5.308,5.308,0,0,1,3.55,1.064A3.8,3.8,0,0,1,171.768,8.7a4.439,4.439,0,0,1-.312,1.636,7.173,7.173,0,0,1-.972,1.67,24.476,24.476,0,0,1-2.124,2.339l-1.836,2.119h5.6ZM.508,40.639a6.455,6.455,0,0,1,1.084-3.955,3.568,3.568,0,0,1,3.027-1.445A3.035,3.035,0,0,1,7,36.352V31h3.3V46H7.344l-.166-1.133A3.116,3.116,0,0,1,4.6,46.2,3.562,3.562,0,0,1,1.611,44.75,6.659,6.659,0,0,1,.508,40.639Zm3.291.205q0,2.813,1.641,2.813A1.62,1.62,0,0,0,7,42.738V38.715a1.576,1.576,0,0,0-1.543-.937q-1.523,0-1.65,2.461ZM17.285,46.2a5.432,5.432,0,0,1-3.936-1.45,5.008,5.008,0,0,1-1.5-3.774V40.7a6.489,6.489,0,0,1,.6-2.861A4.395,4.395,0,0,1,14.2,35.917a5.292,5.292,0,0,1,2.734-.679,4.574,4.574,0,0,1,3.516,1.382,5.43,5.43,0,0,1,1.289,3.853v1.279H15.2a2.372,2.372,0,0,0,.771,1.4,2.3,2.3,0,0,0,1.543.508,2.958,2.958,0,0,0,2.441-1.094l1.5,1.777a4.2,4.2,0,0,1-1.743,1.353A5.891,5.891,0,0,1,17.285,46.2Zm-.371-8.418q-1.445,0-1.719,1.914h3.32v-.254a1.63,1.63,0,0,0-.4-1.226A1.593,1.593,0,0,0,16.914,37.777ZM37.91,46H27.988V43.852l4.57-4.8q1.689-1.924,1.689-3.057a2.126,2.126,0,0,0-.4-1.4,1.43,1.43,0,0,0-1.162-.479,1.447,1.447,0,0,0-1.221.64,2.629,2.629,0,0,0-.469,1.6H27.7a4.67,4.67,0,0,1,.654-2.417A4.588,4.588,0,0,1,30.166,32.2a5.4,5.4,0,0,1,2.6-.625,5.308,5.308,0,0,1,3.55,1.064A3.8,3.8,0,0,1,37.559,35.7a4.439,4.439,0,0,1-.312,1.636A7.173,7.173,0,0,1,36.274,39a24.476,24.476,0,0,1-2.124,2.339l-1.836,2.119h5.6Zm11.533-5.811a6.789,6.789,0,0,1-1.294,4.443A4.471,4.471,0,0,1,44.5,46.2a4.5,4.5,0,0,1-3.672-1.572,6.779,6.779,0,0,1-1.3-4.434v-2.6a6.789,6.789,0,0,1,1.294-4.443,4.483,4.483,0,0,1,3.657-1.562,4.484,4.484,0,0,1,3.662,1.572,6.8,6.8,0,0,1,1.3,4.443Zm-3.291-3.018a5.071,5.071,0,0,0-.4-2.29,1.338,1.338,0,0,0-1.27-.757,1.307,1.307,0,0,0-1.235.7,4.777,4.777,0,0,0-.415,2.129V40.59a5.109,5.109,0,0,0,.4,2.329,1.343,1.343,0,0,0,1.27.737,1.325,1.325,0,0,0,1.24-.718,4.878,4.878,0,0,0,.41-2.251ZM58.447,46h-3.3V35.492l-3.242.947v-2.5l6.24-2.158h.3Zm4.482-6.945.869-7.273h8.311V34.32H66.475l-.322,2.844a3.882,3.882,0,0,1,.923-.363,4.643,4.643,0,0,1,4.375,1.1,5.718,5.718,0,0,1,.527,6,4.2,4.2,0,0,1-1.714,1.7,5.411,5.411,0,0,1-2.607.6,5.822,5.822,0,0,1-2.51-.551,4.5,4.5,0,0,1-1.836-1.512,3.675,3.675,0,0,1-.654-2.171h3.3a1.867,1.867,0,0,0,.5,1.238,1.581,1.581,0,0,0,1.182.458q1.66,0,1.66-2.456,0-2.271-2.031-2.271a2.027,2.027,0,0,0-1.719.741Z" transform="translate(138.06 301.096)" fill="#12263f"/>
        <path id="Trazado_182554" data-name="Trazado 182554" d="M12.578,14.186a5.193,5.193,0,0,1-.8,2.622A4.833,4.833,0,0,1,9.722,18.57,7,7,0,0,1,6.7,19.2a5.584,5.584,0,0,1-4.414-1.826A7.54,7.54,0,0,1,.674,12.213v-.7A8.607,8.607,0,0,1,1.4,7.853,5.513,5.513,0,0,1,3.5,5.431,5.844,5.844,0,0,1,6.66,4.576a6.129,6.129,0,0,1,4.16,1.362,5.383,5.383,0,0,1,1.787,3.755H9.189a2.547,2.547,0,0,0-.654-1.865A2.691,2.691,0,0,0,6.66,7.262a2.048,2.048,0,0,0-1.875.957,6.151,6.151,0,0,0-.625,3.057v1.006a6.806,6.806,0,0,0,.571,3.252A2.091,2.091,0,0,0,6.7,16.51a2.632,2.632,0,0,0,1.807-.557,2.363,2.363,0,0,0,.664-1.768ZM17.52,19h-3.3V8.434h3.3Zm-3.5-13.3a1.482,1.482,0,0,1,.508-1.159,1.909,1.909,0,0,1,1.318-.452,1.909,1.909,0,0,1,1.318.452A1.482,1.482,0,0,1,17.676,5.7a1.482,1.482,0,0,1-.508,1.159,1.909,1.909,0,0,1-1.318.452,1.909,1.909,0,0,1-1.318-.452A1.482,1.482,0,0,1,14.023,5.7Zm11.914,5.713-1.084-.078a1.947,1.947,0,0,0-1.992.977V19H19.57V8.434h3.086l.107,1.357a2.548,2.548,0,0,1,2.314-1.553A3.209,3.209,0,0,1,26,8.355Zm5.469,5.244a1.464,1.464,0,0,0,1.074-.376,1.379,1.379,0,0,0,.371-1.05h3.086a3.653,3.653,0,0,1-1.245,2.852A4.631,4.631,0,0,1,31.484,19.2a4.689,4.689,0,0,1-3.633-1.445,5.7,5.7,0,0,1-1.328-4v-.137a6.436,6.436,0,0,1,.591-2.827,4.3,4.3,0,0,1,1.7-1.885,5.081,5.081,0,0,1,2.637-.659,4.573,4.573,0,0,1,3.271,1.143,4.053,4.053,0,0,1,1.211,3.1H32.852a1.807,1.807,0,0,0-.4-1.26,1.382,1.382,0,0,0-1.074-.439q-1.279,0-1.494,1.631a11.508,11.508,0,0,0-.068,1.426,4.52,4.52,0,0,0,.381,2.207A1.319,1.319,0,0,0,31.406,16.656Zm12.217,1.2A3.393,3.393,0,0,1,40.8,19.2a3.328,3.328,0,0,1-2.632-1.011,4.251,4.251,0,0,1-.894-2.905V8.434h3.291V15.3a1.183,1.183,0,0,0,1.318,1.357,1.72,1.72,0,0,0,1.611-.811V8.434h3.311V19H43.721ZM52.08,19h-3.3V4h3.3Zm7.979,0a3.716,3.716,0,0,1-.312-.947A3.06,3.06,0,0,1,57.207,19.2a3.749,3.749,0,0,1-2.539-.9,2.875,2.875,0,0,1-1.045-2.271,2.955,2.955,0,0,1,1.27-2.6,6.468,6.468,0,0,1,3.691-.879H59.6v-.559q0-1.462-1.26-1.462a1.03,1.03,0,0,0-1.172,1.158H53.877a2.95,2.95,0,0,1,1.3-2.487,5.479,5.479,0,0,1,3.325-.956,4.8,4.8,0,0,1,3.193.986,3.429,3.429,0,0,1,1.2,2.705v4.678a4.79,4.79,0,0,0,.449,2.227V19ZM58,16.852a1.836,1.836,0,0,0,1.021-.264,1.653,1.653,0,0,0,.581-.6V14.3h-.957q-1.719,0-1.719,1.543a.942.942,0,0,0,.3.728A1.1,1.1,0,0,0,58,16.852Zm13.115-5.439-1.084-.078a1.947,1.947,0,0,0-1.992.977V19H64.746V8.434h3.086l.107,1.357a2.548,2.548,0,0,1,2.314-1.553,3.209,3.209,0,0,1,.918.117ZM82.393,19.2a5.432,5.432,0,0,1-3.936-1.45,5.008,5.008,0,0,1-1.5-3.774V13.7a6.489,6.489,0,0,1,.6-2.861,4.395,4.395,0,0,1,1.753-1.919,5.292,5.292,0,0,1,2.734-.679A4.574,4.574,0,0,1,85.557,9.62a5.43,5.43,0,0,1,1.289,3.853v1.279H80.3a2.372,2.372,0,0,0,.771,1.4,2.3,2.3,0,0,0,1.543.508,2.958,2.958,0,0,0,2.441-1.094l1.5,1.777a4.2,4.2,0,0,1-1.743,1.353A5.891,5.891,0,0,1,82.393,19.2Zm-.371-8.418q-1.445,0-1.719,1.914h3.32v-.254a1.63,1.63,0,0,0-.4-1.226A1.593,1.593,0,0,0,82.021,10.777Zm10.43.566,1.533-2.91H97.4L94.619,13.58,97.539,19H94.1l-1.66-3.125L90.811,19H87.354l2.93-5.42L87.51,8.434h3.457Zm9.844-5.537V8.434h1.738v2.285h-1.738v4.834a1.234,1.234,0,0,0,.215.83,1.152,1.152,0,0,0,.85.234,4.828,4.828,0,0,0,.82-.059v2.354a6.074,6.074,0,0,1-1.855.283,3.448,3.448,0,0,1-2.51-.8A3.282,3.282,0,0,1,99,15.963V10.719H97.656V8.434H99V5.807ZM110.439,19.2a5.432,5.432,0,0,1-3.936-1.45,5.008,5.008,0,0,1-1.5-3.774V13.7a6.489,6.489,0,0,1,.6-2.861,4.395,4.395,0,0,1,1.753-1.919,5.292,5.292,0,0,1,2.734-.679A4.574,4.574,0,0,1,113.6,9.62a5.43,5.43,0,0,1,1.289,3.853v1.279H108.35a2.372,2.372,0,0,0,.771,1.4,2.3,2.3,0,0,0,1.543.508,2.958,2.958,0,0,0,2.441-1.094l1.5,1.777a4.2,4.2,0,0,1-1.743,1.353A5.891,5.891,0,0,1,110.439,19.2Zm-.371-8.418q-1.445,0-1.719,1.914h3.32v-.254a1.63,1.63,0,0,0-.4-1.226A1.593,1.593,0,0,0,110.068,10.777Zm12.539.635-1.084-.078a1.947,1.947,0,0,0-1.992.977V19H116.24V8.434h3.086l.107,1.357a2.548,2.548,0,0,1,2.314-1.553,3.209,3.209,0,0,1,.918.117Zm4.209-2.979.107,1.24a3.583,3.583,0,0,1,3.018-1.436,3.015,3.015,0,0,1,2.466.986,4.7,4.7,0,0,1,.845,2.969V19h-3.3V12.33a1.783,1.783,0,0,0-.322-1.177,1.491,1.491,0,0,0-1.172-.376,1.569,1.569,0,0,0-1.436.762V19H123.73V8.434ZM141.025,19a3.716,3.716,0,0,1-.312-.947,3.06,3.06,0,0,1-2.539,1.143,3.749,3.749,0,0,1-2.539-.9,2.875,2.875,0,0,1-1.045-2.271,2.955,2.955,0,0,1,1.27-2.6,6.468,6.468,0,0,1,3.691-.879h1.016v-.559q0-1.462-1.26-1.462a1.03,1.03,0,0,0-1.172,1.158h-3.291a2.95,2.95,0,0,1,1.3-2.487,5.479,5.479,0,0,1,3.325-.956,4.8,4.8,0,0,1,3.193.986,3.429,3.429,0,0,1,1.2,2.705v4.678a4.79,4.79,0,0,0,.449,2.227V19Zm-2.061-2.148a1.836,1.836,0,0,0,1.021-.264,1.653,1.653,0,0,0,.581-.6V14.3h-.957q-1.719,0-1.719,1.543a.942.942,0,0,0,.3.728A1.1,1.1,0,0,0,138.965,16.852Zm21.523-3.662a6.789,6.789,0,0,1-1.294,4.443,5.056,5.056,0,0,1-7.319-.01,6.779,6.779,0,0,1-1.3-4.434v-2.6a6.789,6.789,0,0,1,1.294-4.443,5.056,5.056,0,0,1,7.319.01,6.8,6.8,0,0,1,1.3,4.443ZM157.2,10.172a5.071,5.071,0,0,0-.4-2.29,1.338,1.338,0,0,0-1.27-.757,1.307,1.307,0,0,0-1.235.7,4.777,4.777,0,0,0-.415,2.129V13.59a5.11,5.11,0,0,0,.4,2.329,1.343,1.343,0,0,0,1.27.737,1.325,1.325,0,0,0,1.24-.718,4.878,4.878,0,0,0,.41-2.251ZM169.492,19h-3.3V8.492l-3.242.947v-2.5l6.24-2.158h.3ZM.508,40.639a6.455,6.455,0,0,1,1.084-3.955,3.568,3.568,0,0,1,3.027-1.445A3.035,3.035,0,0,1,7,36.352V31h3.3V46H7.344l-.166-1.133A3.116,3.116,0,0,1,4.6,46.2,3.562,3.562,0,0,1,1.611,44.75,6.659,6.659,0,0,1,.508,40.639Zm3.291.205q0,2.813,1.641,2.813A1.62,1.62,0,0,0,7,42.738V38.715a1.576,1.576,0,0,0-1.543-.937q-1.523,0-1.65,2.461ZM17.285,46.2a5.432,5.432,0,0,1-3.936-1.45,5.008,5.008,0,0,1-1.5-3.774V40.7a6.489,6.489,0,0,1,.6-2.861A4.395,4.395,0,0,1,14.2,35.917a5.292,5.292,0,0,1,2.734-.679,4.574,4.574,0,0,1,3.516,1.382,5.43,5.43,0,0,1,1.289,3.853v1.279H15.2a2.372,2.372,0,0,0,.771,1.4,2.3,2.3,0,0,0,1.543.508,2.958,2.958,0,0,0,2.441-1.094l1.5,1.777a4.2,4.2,0,0,1-1.743,1.353A5.891,5.891,0,0,1,17.285,46.2Zm-.371-8.418q-1.445,0-1.719,1.914h3.32v-.254a1.63,1.63,0,0,0-.4-1.226A1.593,1.593,0,0,0,16.914,37.777ZM37.91,46H27.988V43.852l4.57-4.8q1.689-1.924,1.689-3.057a2.126,2.126,0,0,0-.4-1.4,1.43,1.43,0,0,0-1.162-.479,1.447,1.447,0,0,0-1.221.64,2.629,2.629,0,0,0-.469,1.6H27.7a4.67,4.67,0,0,1,.654-2.417A4.588,4.588,0,0,1,30.166,32.2a5.4,5.4,0,0,1,2.6-.625,5.308,5.308,0,0,1,3.55,1.064A3.8,3.8,0,0,1,37.559,35.7a4.439,4.439,0,0,1-.312,1.636A7.173,7.173,0,0,1,36.274,39a24.476,24.476,0,0,1-2.124,2.339l-1.836,2.119h5.6Zm11.533-5.811a6.789,6.789,0,0,1-1.294,4.443A4.471,4.471,0,0,1,44.5,46.2a4.5,4.5,0,0,1-3.672-1.572,6.779,6.779,0,0,1-1.3-4.434v-2.6a6.789,6.789,0,0,1,1.294-4.443,4.483,4.483,0,0,1,3.657-1.562,4.484,4.484,0,0,1,3.662,1.572,6.8,6.8,0,0,1,1.3,4.443Zm-3.291-3.018a5.071,5.071,0,0,0-.4-2.29,1.338,1.338,0,0,0-1.27-.757,1.307,1.307,0,0,0-1.235.7,4.777,4.777,0,0,0-.415,2.129V40.59a5.109,5.109,0,0,0,.4,2.329,1.343,1.343,0,0,0,1.27.737,1.325,1.325,0,0,0,1.24-.718,4.878,4.878,0,0,0,.41-2.251ZM58.447,46h-3.3V35.492l-3.242.947v-2.5l6.24-2.158h.3Zm4.482-6.945.869-7.273h8.311V34.32H66.475l-.322,2.844a3.882,3.882,0,0,1,.923-.363,4.643,4.643,0,0,1,4.375,1.1,5.718,5.718,0,0,1,.527,6,4.2,4.2,0,0,1-1.714,1.7,5.411,5.411,0,0,1-2.607.6,5.822,5.822,0,0,1-2.51-.551,4.5,4.5,0,0,1-1.836-1.512,3.675,3.675,0,0,1-.654-2.171h3.3a1.867,1.867,0,0,0,.5,1.238,1.581,1.581,0,0,0,1.182.458q1.66,0,1.66-2.456,0-2.271-2.031-2.271a2.027,2.027,0,0,0-1.719.741Z" transform="translate(138.06 215.833)" fill="#12263f"/>
        <path id="Trazado_182556" data-name="Trazado 182556" d="M12.578,14.186a5.193,5.193,0,0,1-.8,2.622A4.833,4.833,0,0,1,9.722,18.57,7,7,0,0,1,6.7,19.2a5.584,5.584,0,0,1-4.414-1.826A7.54,7.54,0,0,1,.674,12.213v-.7A8.607,8.607,0,0,1,1.4,7.853,5.513,5.513,0,0,1,3.5,5.431,5.844,5.844,0,0,1,6.66,4.576a6.129,6.129,0,0,1,4.16,1.362,5.383,5.383,0,0,1,1.787,3.755H9.189a2.547,2.547,0,0,0-.654-1.865A2.691,2.691,0,0,0,6.66,7.262a2.048,2.048,0,0,0-1.875.957,6.151,6.151,0,0,0-.625,3.057v1.006a6.806,6.806,0,0,0,.571,3.252A2.091,2.091,0,0,0,6.7,16.51a2.632,2.632,0,0,0,1.807-.557,2.363,2.363,0,0,0,.664-1.768ZM17.52,19h-3.3V8.434h3.3Zm-3.5-13.3a1.482,1.482,0,0,1,.508-1.159,1.909,1.909,0,0,1,1.318-.452,1.909,1.909,0,0,1,1.318.452A1.482,1.482,0,0,1,17.676,5.7a1.482,1.482,0,0,1-.508,1.159,1.909,1.909,0,0,1-1.318.452,1.909,1.909,0,0,1-1.318-.452A1.482,1.482,0,0,1,14.023,5.7Zm11.914,5.713-1.084-.078a1.947,1.947,0,0,0-1.992.977V19H19.57V8.434h3.086l.107,1.357a2.548,2.548,0,0,1,2.314-1.553A3.209,3.209,0,0,1,26,8.355Zm5.469,5.244a1.464,1.464,0,0,0,1.074-.376,1.379,1.379,0,0,0,.371-1.05h3.086a3.653,3.653,0,0,1-1.245,2.852A4.631,4.631,0,0,1,31.484,19.2a4.689,4.689,0,0,1-3.633-1.445,5.7,5.7,0,0,1-1.328-4v-.137a6.436,6.436,0,0,1,.591-2.827,4.3,4.3,0,0,1,1.7-1.885,5.081,5.081,0,0,1,2.637-.659,4.573,4.573,0,0,1,3.271,1.143,4.053,4.053,0,0,1,1.211,3.1H32.852a1.807,1.807,0,0,0-.4-1.26,1.382,1.382,0,0,0-1.074-.439q-1.279,0-1.494,1.631a11.508,11.508,0,0,0-.068,1.426,4.52,4.52,0,0,0,.381,2.207A1.319,1.319,0,0,0,31.406,16.656Zm12.217,1.2A3.393,3.393,0,0,1,40.8,19.2a3.328,3.328,0,0,1-2.632-1.011,4.251,4.251,0,0,1-.894-2.905V8.434h3.291V15.3a1.183,1.183,0,0,0,1.318,1.357,1.72,1.72,0,0,0,1.611-.811V8.434h3.311V19H43.721ZM52.08,19h-3.3V4h3.3Zm7.979,0a3.716,3.716,0,0,1-.312-.947A3.06,3.06,0,0,1,57.207,19.2a3.749,3.749,0,0,1-2.539-.9,2.875,2.875,0,0,1-1.045-2.271,2.955,2.955,0,0,1,1.27-2.6,6.468,6.468,0,0,1,3.691-.879H59.6v-.559q0-1.462-1.26-1.462a1.03,1.03,0,0,0-1.172,1.158H53.877a2.95,2.95,0,0,1,1.3-2.487,5.479,5.479,0,0,1,3.325-.956,4.8,4.8,0,0,1,3.193.986,3.429,3.429,0,0,1,1.2,2.705v4.678a4.79,4.79,0,0,0,.449,2.227V19ZM58,16.852a1.836,1.836,0,0,0,1.021-.264,1.653,1.653,0,0,0,.581-.6V14.3h-.957q-1.719,0-1.719,1.543a.942.942,0,0,0,.3.728A1.1,1.1,0,0,0,58,16.852Zm13.115-5.439-1.084-.078a1.947,1.947,0,0,0-1.992.977V19H64.746V8.434h3.086l.107,1.357a2.548,2.548,0,0,1,2.314-1.553,3.209,3.209,0,0,1,.918.117ZM82.393,19.2a5.432,5.432,0,0,1-3.936-1.45,5.008,5.008,0,0,1-1.5-3.774V13.7a6.489,6.489,0,0,1,.6-2.861,4.395,4.395,0,0,1,1.753-1.919,5.292,5.292,0,0,1,2.734-.679A4.574,4.574,0,0,1,85.557,9.62a5.43,5.43,0,0,1,1.289,3.853v1.279H80.3a2.372,2.372,0,0,0,.771,1.4,2.3,2.3,0,0,0,1.543.508,2.958,2.958,0,0,0,2.441-1.094l1.5,1.777a4.2,4.2,0,0,1-1.743,1.353A5.891,5.891,0,0,1,82.393,19.2Zm-.371-8.418q-1.445,0-1.719,1.914h3.32v-.254a1.63,1.63,0,0,0-.4-1.226A1.593,1.593,0,0,0,82.021,10.777Zm10.43.566,1.533-2.91H97.4L94.619,13.58,97.539,19H94.1l-1.66-3.125L90.811,19H87.354l2.93-5.42L87.51,8.434h3.457Zm9.844-5.537V8.434h1.738v2.285h-1.738v4.834a1.234,1.234,0,0,0,.215.83,1.152,1.152,0,0,0,.85.234,4.828,4.828,0,0,0,.82-.059v2.354a6.074,6.074,0,0,1-1.855.283,3.448,3.448,0,0,1-2.51-.8A3.282,3.282,0,0,1,99,15.963V10.719H97.656V8.434H99V5.807ZM110.439,19.2a5.432,5.432,0,0,1-3.936-1.45,5.008,5.008,0,0,1-1.5-3.774V13.7a6.489,6.489,0,0,1,.6-2.861,4.395,4.395,0,0,1,1.753-1.919,5.292,5.292,0,0,1,2.734-.679A4.574,4.574,0,0,1,113.6,9.62a5.43,5.43,0,0,1,1.289,3.853v1.279H108.35a2.372,2.372,0,0,0,.771,1.4,2.3,2.3,0,0,0,1.543.508,2.958,2.958,0,0,0,2.441-1.094l1.5,1.777a4.2,4.2,0,0,1-1.743,1.353A5.891,5.891,0,0,1,110.439,19.2Zm-.371-8.418q-1.445,0-1.719,1.914h3.32v-.254a1.63,1.63,0,0,0-.4-1.226A1.593,1.593,0,0,0,110.068,10.777Zm12.539.635-1.084-.078a1.947,1.947,0,0,0-1.992.977V19H116.24V8.434h3.086l.107,1.357a2.548,2.548,0,0,1,2.314-1.553,3.209,3.209,0,0,1,.918.117Zm4.209-2.979.107,1.24a3.583,3.583,0,0,1,3.018-1.436,3.015,3.015,0,0,1,2.466.986,4.7,4.7,0,0,1,.845,2.969V19h-3.3V12.33a1.783,1.783,0,0,0-.322-1.177,1.491,1.491,0,0,0-1.172-.376,1.569,1.569,0,0,0-1.436.762V19H123.73V8.434ZM141.025,19a3.716,3.716,0,0,1-.312-.947,3.06,3.06,0,0,1-2.539,1.143,3.749,3.749,0,0,1-2.539-.9,2.875,2.875,0,0,1-1.045-2.271,2.955,2.955,0,0,1,1.27-2.6,6.468,6.468,0,0,1,3.691-.879h1.016v-.559q0-1.462-1.26-1.462a1.03,1.03,0,0,0-1.172,1.158h-3.291a2.95,2.95,0,0,1,1.3-2.487,5.479,5.479,0,0,1,3.325-.956,4.8,4.8,0,0,1,3.193.986,3.429,3.429,0,0,1,1.2,2.705v4.678a4.79,4.79,0,0,0,.449,2.227V19Zm-2.061-2.148a1.836,1.836,0,0,0,1.021-.264,1.653,1.653,0,0,0,.581-.6V14.3h-.957q-1.719,0-1.719,1.543a.942.942,0,0,0,.3.728A1.1,1.1,0,0,0,138.965,16.852Zm21.523-3.662a6.789,6.789,0,0,1-1.294,4.443,5.056,5.056,0,0,1-7.319-.01,6.779,6.779,0,0,1-1.3-4.434v-2.6a6.789,6.789,0,0,1,1.294-4.443,5.056,5.056,0,0,1,7.319.01,6.8,6.8,0,0,1,1.3,4.443ZM157.2,10.172a5.071,5.071,0,0,0-.4-2.29,1.338,1.338,0,0,0-1.27-.757,1.307,1.307,0,0,0-1.235.7,4.777,4.777,0,0,0-.415,2.129V13.59a5.11,5.11,0,0,0,.4,2.329,1.343,1.343,0,0,0,1.27.737,1.325,1.325,0,0,0,1.24-.718,4.878,4.878,0,0,0,.41-2.251Zm8.008.342h1.553A1.614,1.614,0,0,0,168.6,8.707a1.562,1.562,0,0,0-.439-1.147,1.666,1.666,0,0,0-1.24-.444,1.784,1.784,0,0,0-1.138.381,1.162,1.162,0,0,0-.483.947h-3.291a3.369,3.369,0,0,1,.625-2,4.127,4.127,0,0,1,1.733-1.372,5.926,5.926,0,0,1,2.437-.493,5.823,5.823,0,0,1,3.73,1.084,3.6,3.6,0,0,1,1.357,2.979,3,3,0,0,1-.562,1.733A4,4,0,0,1,169.7,11.7a3.823,3.823,0,0,1,1.777,1.245,3.279,3.279,0,0,1,.645,2.065,3.669,3.669,0,0,1-1.465,3.047,6.08,6.08,0,0,1-3.848,1.143,6.306,6.306,0,0,1-2.593-.532,4.062,4.062,0,0,1-1.812-1.475,3.834,3.834,0,0,1-.615-2.144H165.1a1.482,1.482,0,0,0,.527,1.133,1.862,1.862,0,0,0,1.3.479,1.95,1.95,0,0,0,1.387-.483,1.616,1.616,0,0,0,.518-1.235,1.889,1.889,0,0,0-.537-1.523,2.245,2.245,0,0,0-1.484-.449h-1.6ZM.508,40.639a6.455,6.455,0,0,1,1.084-3.955,3.568,3.568,0,0,1,3.027-1.445A3.035,3.035,0,0,1,7,36.352V31h3.3V46H7.344l-.166-1.133A3.116,3.116,0,0,1,4.6,46.2,3.562,3.562,0,0,1,1.611,44.75,6.659,6.659,0,0,1,.508,40.639Zm3.291.205q0,2.813,1.641,2.813A1.62,1.62,0,0,0,7,42.738V38.715a1.576,1.576,0,0,0-1.543-.937q-1.523,0-1.65,2.461ZM17.285,46.2a5.432,5.432,0,0,1-3.936-1.45,5.008,5.008,0,0,1-1.5-3.774V40.7a6.489,6.489,0,0,1,.6-2.861A4.395,4.395,0,0,1,14.2,35.917a5.292,5.292,0,0,1,2.734-.679,4.574,4.574,0,0,1,3.516,1.382,5.43,5.43,0,0,1,1.289,3.853v1.279H15.2a2.372,2.372,0,0,0,.771,1.4,2.3,2.3,0,0,0,1.543.508,2.958,2.958,0,0,0,2.441-1.094l1.5,1.777a4.2,4.2,0,0,1-1.743,1.353A5.891,5.891,0,0,1,17.285,46.2Zm-.371-8.418q-1.445,0-1.719,1.914h3.32v-.254a1.63,1.63,0,0,0-.4-1.226A1.593,1.593,0,0,0,16.914,37.777ZM37.91,46H27.988V43.852l4.57-4.8q1.689-1.924,1.689-3.057a2.126,2.126,0,0,0-.4-1.4,1.43,1.43,0,0,0-1.162-.479,1.447,1.447,0,0,0-1.221.64,2.629,2.629,0,0,0-.469,1.6H27.7a4.67,4.67,0,0,1,.654-2.417A4.588,4.588,0,0,1,30.166,32.2a5.4,5.4,0,0,1,2.6-.625,5.308,5.308,0,0,1,3.55,1.064A3.8,3.8,0,0,1,37.559,35.7a4.439,4.439,0,0,1-.312,1.636A7.173,7.173,0,0,1,36.274,39a24.476,24.476,0,0,1-2.124,2.339l-1.836,2.119h5.6Zm11.533-5.811a6.789,6.789,0,0,1-1.294,4.443A4.471,4.471,0,0,1,44.5,46.2a4.5,4.5,0,0,1-3.672-1.572,6.779,6.779,0,0,1-1.3-4.434v-2.6a6.789,6.789,0,0,1,1.294-4.443,4.483,4.483,0,0,1,3.657-1.562,4.484,4.484,0,0,1,3.662,1.572,6.8,6.8,0,0,1,1.3,4.443Zm-3.291-3.018a5.071,5.071,0,0,0-.4-2.29,1.338,1.338,0,0,0-1.27-.757,1.307,1.307,0,0,0-1.235.7,4.777,4.777,0,0,0-.415,2.129V40.59a5.109,5.109,0,0,0,.4,2.329,1.343,1.343,0,0,0,1.27.737,1.325,1.325,0,0,0,1.24-.718,4.878,4.878,0,0,0,.41-2.251ZM58.447,46h-3.3V35.492l-3.242.947v-2.5l6.24-2.158h.3Zm4.482-6.945.869-7.273h8.311V34.32H66.475l-.322,2.844a3.882,3.882,0,0,1,.923-.363,4.643,4.643,0,0,1,4.375,1.1,5.718,5.718,0,0,1,.527,6,4.2,4.2,0,0,1-1.714,1.7,5.411,5.411,0,0,1-2.607.6,5.822,5.822,0,0,1-2.51-.551,4.5,4.5,0,0,1-1.836-1.512,3.675,3.675,0,0,1-.654-2.171h3.3a1.867,1.867,0,0,0,.5,1.238,1.581,1.581,0,0,0,1.182.458q1.66,0,1.66-2.456,0-2.271-2.031-2.271a2.027,2.027,0,0,0-1.719.741Zm13.477,3.752a1.874,1.874,0,0,1,1.3.464,1.619,1.619,0,0,1,0,2.373,2.049,2.049,0,0,1-2.6,0,1.618,1.618,0,0,1,0-2.363A1.858,1.858,0,0,1,76.406,42.807Z" transform="translate(138.06 386.359)" fill="#12263f"/>
      </g>
      <g id="freepik--Character--inject-12" transform="translate(-77.27 128.036)">
        <path id="Trazado_180492" data-name="Trazado 180492" d="M137.7,248.94h0a14.1,14.1,0,0,0,15.15-13.505c.3-7.677.564-15.432.564-15.432s11.625-1.081,12.534-12.534.454-38.056.454-38.056h0a40.061,40.061,0,0,0-40.515,2.6l.7,40.484v21.793C126.611,241.53,130.418,248.392,137.7,248.94Z" transform="translate(-63.222 -131.671)" fill="#ffbe9d"/>
        <path id="Trazado_180493" data-name="Trazado 180493" d="M156.609,196.923a5.907,5.907,0,0,0-7.834-1.723,6.69,6.69,0,0,0-2.225,8.366,8.774,8.774,0,0,0,5.64,4.261,4.418,4.418,0,0,1,3.462,4.7,14.727,14.727,0,0,1-4.042,8.006,21.214,21.214,0,0,1-13.317,6.267c-4.9.58-10.513-.439-13.364-4.465-2.084-2.93-2.225-6.768-2.3-10.356l-.533-25.444a37.1,37.1,0,0,1,.58-9.134,12.283,12.283,0,0,1,4.826-7.552c2.8-1.849,6.345-2.005,9.526-3.024,4-1.3,7.379-3.932,11.108-5.844s8.288-3.055,12.032-1.175c2.695,1.347,4.5,4.026,7.1,5.515,3.729,2.115,8.789,1.567,10.591,7.113a9.212,9.212,0,0,1,0,5.844c-2.522,7.442-11.735,10.45-18.378,7.238-.125,1.253,1.112,4.058-.219,8.037-.423,1.285-.564,3.212-2.554,3.259" transform="translate(-65.411 -135.225)" fill="#263238"/>
        <path id="Trazado_180494" data-name="Trazado 180494" d="M130.879,177.195a39.168,39.168,0,0,0,3.7-11.562,13.254,13.254,0,0,0-3.619-11.171,10.967,10.967,0,0,0-7.583-2.679,12.816,12.816,0,0,0-11.562,9.165,13.787,13.787,0,0,0,4.7,14.1,14.994,14.994,0,0,0,14.915,1.943" transform="translate(-71.438 -139.233)" fill="#263238"/>
        <path id="Trazado_180495" data-name="Trazado 180495" d="M127.242,165.351a5.672,5.672,0,0,1-5.452,5.327c0-.235,1.692-.689,3.133-2.193S127.023,165.288,127.242,165.351Z" transform="translate(-65.545 -131.541)" fill="#88e0ef"/>
        <path id="Trazado_180496" data-name="Trazado 180496" d="M127.605,170.936a10.716,10.716,0,0,1-3.133,2.272,9.008,9.008,0,0,1-4.1,1.175,5.75,5.75,0,0,1-4.81-2.162,6.345,6.345,0,0,1-.846-5.2,10.09,10.09,0,0,1,1.927-3.807,11.687,11.687,0,0,1,2.726-2.742,37.182,37.182,0,0,1-2.256,3.133,10.262,10.262,0,0,0-1.661,3.635,5.734,5.734,0,0,0,.768,4.559,5.139,5.139,0,0,0,4.152,1.88,8.962,8.962,0,0,0,3.854-.94A33.63,33.63,0,0,1,127.605,170.936Z" transform="translate(-69.684 -134.306)" fill="#263238"/>
        <path id="Trazado_180497" data-name="Trazado 180497" d="M110.381,179.662a5.421,5.421,0,0,1,.548,1.269,12.769,12.769,0,0,0,1.708,3.29,4.7,4.7,0,0,0,4.5,2.068,6.267,6.267,0,0,0,4.34-4.371,43.967,43.967,0,0,0,1.175-6.674,10.356,10.356,0,0,1,2.193-5.28,5.828,5.828,0,0,1,3.353-1.911,2.193,2.193,0,0,1,1.41.125,6.763,6.763,0,0,0-1.347.188,5.75,5.75,0,0,0-2.977,1.974,10.2,10.2,0,0,0-1.9,5.013,39.558,39.558,0,0,1-1.144,6.831,6.862,6.862,0,0,1-4.967,4.841,4.7,4.7,0,0,1-3.133-.6,6.47,6.47,0,0,1-1.974-1.864,11.42,11.42,0,0,1-1.567-3.525,3.666,3.666,0,0,1-.219-1.379Z" transform="translate(-72.012 -130.044)" fill="#263238"/>
        <path id="Trazado_180498" data-name="Trazado 180498" d="M107.715,237.153s-5.875,42.96,0,48.412,11.5,3.635,11.5,3.635l11.171-9.4,2.193-42.709Z" transform="translate(-75.002 -90.883)" fill="#ffbe9d"/>
        <path id="Trazado_180500" data-name="Trazado 180500" d="M229.578,161.55l-10.81,6.941c-.486-4.277-3.744-8.507-3.588-6.361s0,13.286,0,13.286l-19.255,40.562C193.308,222.4,188,226.444,184.033,227.4L166,232.758l7.035,23.8,25.068-8.3a21.574,21.574,0,0,0,13.709-13.74L229.045,182a81.61,81.61,0,0,0,2.757-10.34C232.554,167.253,229.578,161.55,229.578,161.55Z" transform="translate(-40.49 -133.694)" fill="#ffbe9d"/>
        <path id="Trazado_180501" data-name="Trazado 180501" d="M158.3,449.067l-.282-12.017-22.529.36.2,17.594,1.41.078c6.267.235,31.663.8,35.8-.517C177.51,453.078,158.3,449.067,158.3,449.067Z" transform="translate(-57.781 22.439)" fill="#8177a2"/>
        <g id="Grupo_129361" data-name="Grupo 129361" transform="translate(77.834 470.851)" opacity="0.5">
          <path id="Trazado_180502" data-name="Trazado 180502" d="M143.827,450.6a7.834,7.834,0,0,0-2.961-4.7,7.567,7.567,0,0,0-5.3-1.567l.094,6.267Z" transform="translate(-135.57 -444.302)" fill="#fff"/>
        </g>
        <g id="Grupo_129362" data-name="Grupo 129362" transform="translate(77.85 473.808)" opacity="0.4">
          <path id="Trazado_180503" data-name="Trazado 180503" d="M167.573,446.19s6.737,1.817,5.922,2.945-26.54,1.567-37.915.689v-.5l30.018-.2S166.335,446.268,167.573,446.19Z" transform="translate(-135.58 -446.19)" fill="#fff"/>
        </g>
        <path id="Trazado_180504" data-name="Trazado 180504" d="M135.427,448.407h1.5l4.1.11c3.462.078,8.241.11,13.521,0s10.074-.251,13.521-.423l4.1-.235,1.112-.078h-1.128l-4.089.157c-3.462.11-8.241.266-13.521.345s-10.058,0-13.521,0H135.38Z" transform="translate(-57.843 28.52)" fill="#263238"/>
        <path id="Trazado_180505" data-name="Trazado 180505" d="M154.8,449.555a8.416,8.416,0,0,1,.736-1.958,9.31,9.31,0,0,1,1.363-1.567,3.666,3.666,0,0,0-2.1,3.556Z" transform="translate(-46.84 27.528)" fill="#263238"/>
        <path id="Trazado_180506" data-name="Trazado 180506" d="M150.524,446.871a4.743,4.743,0,0,0,.705-.862c.329-.517.517-.987.454-1.018s-.376.345-.689.862S150.461,446.839,150.524,446.871Z" transform="translate(-49.267 26.938)" fill="#263238"/>
        <path id="Trazado_180507" data-name="Trazado 180507" d="M149.353,446.067a3.6,3.6,0,0,0,.783-.548c.392-.36.642-.689.6-.736s-.407.188-.783.533S149.291,446,149.353,446.067Z" transform="translate(-49.929 26.817)" fill="#263238"/>
        <path id="Trazado_180508" data-name="Trazado 180508" d="M148.59,444.307a2.459,2.459,0,0,0,1.175.125,2.538,2.538,0,0,0,1.175-.141,2.961,2.961,0,0,0-1.175-.125,2.584,2.584,0,0,0-1.175.141Z" transform="translate(-50.357 26.462)" fill="#263238"/>
        <path id="Trazado_180509" data-name="Trazado 180509" d="M148.32,443.3a2.444,2.444,0,0,0,1.316.36,2.4,2.4,0,0,0,1.363-.2,7,7,0,0,0-1.347,0A7.3,7.3,0,0,0,148.32,443.3Z" transform="translate(-50.51 25.981)" fill="#263238"/>
        <path id="Trazado_180510" data-name="Trazado 180510" d="M151,445.66a4,4,0,0,0,1.441,0,8.541,8.541,0,0,0,1.567-.36,4.7,4.7,0,0,0,.877-.376.721.721,0,0,0,.36-.454.6.6,0,0,0-.235-.58,2.679,2.679,0,0,0-3.274.83,2.885,2.885,0,0,0-.454.971.941.941,0,0,0,0,.392,4.59,4.59,0,0,1,.642-1.238,2.726,2.726,0,0,1,1.222-.83,2.3,2.3,0,0,1,1.739.094c.219.172.141.439-.11.6a4.7,4.7,0,0,1-.815.36,10.3,10.3,0,0,1-1.567.407C151.533,445.613,151,445.613,151,445.66Z" transform="translate(-48.991 26.174)" fill="#263238"/>
        <path id="Trazado_180511" data-name="Trazado 180511" d="M151.926,446a1.394,1.394,0,0,0,.157-1,2.507,2.507,0,0,0-.423-1.05,1.457,1.457,0,0,0-1.206-.721.564.564,0,0,0-.439.674,1.566,1.566,0,0,0,.251.642,3.715,3.715,0,0,0,.705.862,2.037,2.037,0,0,0,.83.58,9.648,9.648,0,0,1-.689-.705,5.859,5.859,0,0,1-.627-.862c-.2-.3-.345-.846,0-.924s.736.313.956.6a2.522,2.522,0,0,1,.439.94,5.722,5.722,0,0,1,.047.971Z" transform="translate(-49.557 25.941)" fill="#263238"/>
        <path id="Trazado_180512" data-name="Trazado 180512" d="M135.65,444.32h1.661a7.066,7.066,0,0,1,5.969,4.606c.36.956.407,1.567.454,1.567a1.129,1.129,0,0,0,0-.454,6.644,6.644,0,0,0-.266-1.206,6.878,6.878,0,0,0-6.142-4.7,5.591,5.591,0,0,0-1.238,0A1.207,1.207,0,0,0,135.65,444.32Z" transform="translate(-57.69 26.433)" fill="#263238"/>
        <path id="Trazado_180513" data-name="Trazado 180513" d="M137.1,438.24a36.231,36.231,0,0,0-.125,4.622,38.023,38.023,0,0,0,.141,4.7,36.579,36.579,0,0,0,.125-4.7A42.075,42.075,0,0,0,137.1,438.24Z" transform="translate(-56.951 23.113)" fill="#263238"/>
        <path id="Trazado_180514" data-name="Trazado 180514" d="M142.62,446.92a13.567,13.567,0,0,0,3.306.266,12.061,12.061,0,0,0,3.29-.313c0-.078-1.567,0-3.29,0A30.205,30.205,0,0,0,142.62,446.92Z" transform="translate(-53.74 27.986)" fill="#263238"/>
        <path id="Trazado_180515" data-name="Trazado 180515" d="M139.81,446.923s.125.313.266.658.251.627.329.627.11-.36-.078-.752S139.857,446.876,139.81,446.923Z" transform="translate(-55.333 28.03)" fill="#263238"/>
        <path id="Trazado_180516" data-name="Trazado 180516" d="M138.72,445.625a1.4,1.4,0,0,0,.345.517c.251.235.47.376.517.329s-.094-.3-.329-.517S138.783,445.562,138.72,445.625Z" transform="translate(-55.95 27.291)" fill="#263238"/>
        <path id="Trazado_180517" data-name="Trazado 180517" d="M137.19,445.043a1.577,1.577,0,0,1,.658.172c.329.172.564.282.627.235s-.125-.36-.548-.486A.918.918,0,0,0,137.19,445.043Z" transform="translate(-56.818 26.901)" fill="#263238"/>
        <path id="Trazado_180518" data-name="Trazado 180518" d="M136.11,444.789a.547.547,0,0,0,.282.251c.188.063.36.078.392,0s-.11-.188-.3-.251S136.126,444.711,136.11,444.789Z" transform="translate(-57.43 26.795)" fill="#263238"/>
        <path id="Trazado_180519" data-name="Trazado 180519" d="M106.884,450.85l7.646-9.291L97.2,427.13,85.89,440.6l1,.971c4.559,4.246,23.5,21.26,27.48,22.953C118.838,466.423,106.884,450.85,106.884,450.85Z" transform="translate(-85.89 16.817)" fill="#8177a2"/>
        <g id="Grupo_129363" data-name="Grupo 129363" transform="translate(0.172 452.391)" opacity="0.5">
          <path id="Trazado_180520" data-name="Trazado 180520" d="M92.267,442.672a7.834,7.834,0,0,0,.862-5.531,7.551,7.551,0,0,0-3.008-4.622L86,437.33Z" transform="translate(-86 -432.52)" fill="#fff"/>
        </g>
        <g id="Grupo_129364" data-name="Grupo 129364" transform="translate(0 457.06)" opacity="0.4">
          <path id="Trazado_180521" data-name="Trazado 180521" d="M112.509,453.972s3.917,5.781,2.569,6.095S93.9,443.9,85.89,435.86l.345-.36,22.89,19.427S111.459,453.173,112.509,453.972Z" transform="translate(-85.89 -435.5)" fill="#fff"/>
        </g>
        <path id="Trazado_180522" data-name="Trazado 180522" d="M85.94,435.35l.266.282.815.768,3.039,2.757c2.569,2.3,6.173,5.452,10.231,8.836s7.834,6.377,10.528,8.507l3.259,2.491.893.658.329.219-.3-.266-.862-.705-3.133-2.554c-2.71-2.162-6.424-5.17-10.481-8.554s-7.677-6.5-10.278-8.774l-3.133-2.695-.846-.736Z" transform="translate(-85.862 21.475)" fill="#263238"/>
        <path id="Trazado_180523" data-name="Trazado 180523" d="M100.57,448.621a8.4,8.4,0,0,1,1.849-1.018,10.677,10.677,0,0,1,2.068-.313,3.422,3.422,0,0,0-3.917,1.332Z" transform="translate(-77.571 28.133)" fill="#263238"/>
        <path id="Trazado_180524" data-name="Trazado 180524" d="M98.69,443.945c0,.078.517,0,1.1-.2s1.05-.392,1.018-.47-.517,0-1.1.2a2.632,2.632,0,0,0-1.018.47Z" transform="translate(-78.636 25.947)" fill="#263238"/>
        <path id="Trazado_180525" data-name="Trazado 180525" d="M98.19,442.533a3.381,3.381,0,0,0,.956.11c.533-.016.94-.094.94-.172s-.439-.125-.956-.11A2.1,2.1,0,0,0,98.19,442.533Z" transform="translate(-78.92 25.447)" fill="#263238"/>
        <path id="Trazado_180526" data-name="Trazado 180526" d="M98.49,441.009a5.3,5.3,0,0,0,.815.862,3.133,3.133,0,0,0,.987.674,5.028,5.028,0,0,0-.815-.877C98.976,441.244,98.553,440.884,98.49,441.009Z" transform="translate(-78.75 24.668)" fill="#263238"/>
        <path id="Trazado_180527" data-name="Trazado 180527" d="M98.91,440.064a3.259,3.259,0,0,0,1.927,1.864,10.365,10.365,0,0,0-.971-.924C99.349,440.5,99.051,439.97,98.91,440.064Z" transform="translate(-78.512 24.14)" fill="#263238"/>
        <path id="Trazado_180528" data-name="Trazado 180528" d="M99.9,443.141a3.947,3.947,0,0,0,1.112.924,7.833,7.833,0,0,0,1.41.721,4.422,4.422,0,0,0,.909.3.768.768,0,0,0,.564-.125.564.564,0,0,0,.2-.58,2.663,2.663,0,0,0-3.024-1.567,2.428,2.428,0,0,0-.987.439,1.051,1.051,0,0,0-.282.266,4.181,4.181,0,0,1,1.3-.517,2.617,2.617,0,0,1,1.473.172,2.272,2.272,0,0,1,1.253,1.191.365.365,0,0,1-.47.392,5.29,5.29,0,0,1-.846-.266,9.012,9.012,0,0,1-1.394-.658A5.294,5.294,0,0,1,99.9,443.141Z" transform="translate(-78.002 25.669)" fill="#263238"/>
        <path id="Trazado_180529" data-name="Trazado 180529" d="M100.12,444.366a1.7,1.7,0,0,0,.783-.658,2.6,2.6,0,0,0,.376-1.065,1.567,1.567,0,0,0-.454-1.347.58.58,0,0,0-.783.235,1.566,1.566,0,0,0-.219.642,4.528,4.528,0,0,0,0,1.112,2.068,2.068,0,0,0,.251.987s0-.392,0-.987a5.357,5.357,0,0,1,.094-1.065c0-.36.282-.862.611-.689s.345.721.345,1.081a2.444,2.444,0,0,1-.3.987,4.7,4.7,0,0,1-.7.768Z" transform="translate(-78.014 24.805)" fill="#263238"/>
        <path id="Trazado_180530" data-name="Trazado 180530" d="M88.69,432.52a8.616,8.616,0,0,1,1.238,1.1,7.3,7.3,0,0,1,1.833,3.478,7.223,7.223,0,0,1-.313,3.917c-.36.971-.752,1.488-.705,1.567a1.472,1.472,0,0,0,.3-.36,5.42,5.42,0,0,0,.58-1.081,6.847,6.847,0,0,0,.407-4.042,6.924,6.924,0,0,0-1.958-3.556,5.922,5.922,0,0,0-.971-.768A1.253,1.253,0,0,0,88.69,432.52Z" transform="translate(-84.304 19.871)" fill="#263238"/>
        <path id="Trazado_180531" data-name="Trazado 180531" d="M95.858,428.87a38.314,38.314,0,0,0-3.133,3.431,43.873,43.873,0,0,0-2.914,3.6,34.462,34.462,0,0,0,3.133-3.416,45.43,45.43,0,0,0,2.914-3.619Z" transform="translate(-83.669 17.803)" fill="#263238"/>
        <path id="Trazado_180532" data-name="Trazado 180532" d="M92.25,439.073a12.956,12.956,0,0,0,2.319,2.35,12.348,12.348,0,0,0,2.71,1.911s-1.144-.94-2.522-2.115A25.034,25.034,0,0,0,92.25,439.073Z" transform="translate(-82.286 23.581)" fill="#263238"/>
        <path id="Trazado_180533" data-name="Trazado 180533" d="M90.232,437.26s-.11.313-.2.674-.235.627-.172.674.313-.188.439-.611S90.31,437.245,90.232,437.26Z" transform="translate(-83.652 22.557)" fill="#263238"/>
        <path id="Trazado_180534" data-name="Trazado 180534" d="M90.153,435.56c-.078,0-.11.282-.078.611s.11.6.188.6.11-.282,0-.611S90.231,435.56,90.153,435.56Z" transform="translate(-83.526 21.594)" fill="#263238"/>
        <path id="Trazado_180535" data-name="Trazado 180535" d="M89.34,434.126c0,.078.2.266.376.564s.251.6.329.6.125-.36-.094-.736S89.371,434.063,89.34,434.126Z" transform="translate(-83.935 20.772)" fill="#263238"/>
        <path id="Trazado_180536" data-name="Trazado 180536" d="M88.69,433.212v.392a.289.289,0,0,0,.3.251c.063-.031,0-.219,0-.392A.289.289,0,0,0,88.69,433.212Z" transform="translate(-84.304 20.26)" fill="#263238"/>
        <path id="Trazado_180537" data-name="Trazado 180537" d="M153.09,282.117s-7.5,31.742-5.374,38.024,15.871,9.9,15.871,9.9l-.47,86.937-76.017,94,28.044,22.937s82.316-94.144,89.57-111.237-4.7-142.023-4.7-142.023Z" transform="translate(-85.205 -66.191)" fill="#263238"/>
        <path id="Trazado_180538" data-name="Trazado 180538" d="M176.974,273.33l3.713,264.024-38.651.235-19.412-215.08h0c-4.1-3.917-9.886-10.622-9.087-25.585l.94-17.375Z" transform="translate(-70.265 -70.345)" fill="#263238"/>
        <path id="Trazado_180539" data-name="Trazado 180539" d="M128,416.505a1.8,1.8,0,0,1,.219-.392c.2-.282.439-.642.736-1.081l2.867-4.058,10.5-14.539v.2c-.846-9.165-1.864-20.273-2.961-32.259-1.41-15.667-2.538-29.924-3.212-40.249-.345-5.155-.564-9.322-.689-12.2,0-1.379-.094-2.491-.11-3.337a4.7,4.7,0,0,1,0-1.159,7.833,7.833,0,0,1,.141,1.159c0,.83.157,1.943.266,3.321.235,2.961.548,7.1.956,12.189.815,10.293,2.037,24.5,3.447,40.2,1.05,12.032,2.115,23.125,2.82,32.337v.2l-10.732,14.351-3.024,3.964-.815,1.018C128.078,416.427,128,416.521,128,416.505Z" transform="translate(-62.026 -51.02)" fill="#455a64"/>
        <path id="Trazado_180540" data-name="Trazado 180540" d="M142.882,308.983a52.641,52.641,0,0,1-10.246-1.567,52.563,52.563,0,0,1-10-2.726,86.529,86.529,0,0,1,10.168,1.927A90.6,90.6,0,0,1,142.882,308.983Z" transform="translate(-65.063 -52.573)" fill="#455a64"/>
        <path id="Trazado_180541" data-name="Trazado 180541" d="M160.122,366.308a39.276,39.276,0,0,0-10.434-2.726,39.388,39.388,0,0,0-10.748,1.05,8.524,8.524,0,0,1,3.008-1.175,23.669,23.669,0,0,1,15.417,1.206,9.009,9.009,0,0,1,2.757,1.645Z" transform="translate(-55.826 -19.702)" fill="#455a64"/>
        <path id="Trazado_180542" data-name="Trazado 180542" d="M178.983,372.78c.172.141-10.7,14.743-24.3,32.6s-24.77,32.259-24.942,32.134,10.7-14.743,24.3-32.619S178.811,372.639,178.983,372.78Z" transform="translate(-61.04 -13.985)" fill="#455a64"/>
        <path id="Trazado_180543" data-name="Trazado 180543" d="M164.886,286.582a6.643,6.643,0,0,1-2.178,2.883,10.795,10.795,0,0,1-15.761-1.661,6.361,6.361,0,0,1-1.567-3.275,31.122,31.122,0,0,0,1.974,2.9A10.732,10.732,0,0,0,162.316,289,33.68,33.68,0,0,0,164.886,286.582Z" transform="translate(-52.176 -63.998)" fill="#455a64"/>
        <path id="Trazado_180544" data-name="Trazado 180544" d="M127.9,216.132a33.716,33.716,0,0,1-1.833-47" transform="translate(-68.031 -129.398)" fill="#263238"/>
        <path id="Trazado_180545" data-name="Trazado 180545" d="M113.9,214.85s-8.4,9.494-10.137,45.8c0,0,23.924,4.543,24.363,3.243S113.9,214.85,113.9,214.85Z" transform="translate(-75.763 -103.487)" fill="#88e0ef"/>
        <g id="Grupo_129365" data-name="Grupo 129365" transform="translate(27.997 111.363)" opacity="0.3">
          <path id="Trazado_180546" data-name="Trazado 180546" d="M113.9,214.85s-8.4,9.494-10.137,45.8c0,0,23.924,4.543,24.363,3.243S113.9,214.85,113.9,214.85Z" transform="translate(-103.76 -214.85)"/>
        </g>
        <path id="Trazado_180547" data-name="Trazado 180547" d="M115.042,327.037h73.464l-1.191-11.484s-8.4-43.649-8.335-44.229l1.316-2.773a27.684,27.684,0,0,0,.329-23.109h0l36.035-12.3-8.8-29.674c-16.325,2.742-41,5.828-41,5.828l-3.666.3s-25.475,1.332-26.023,1.394c-10.654,1.3-23.047,2.115-27.574,13.521-2.428,6.095-.125,15.244,3.838,24.676l9.4,28.984c3.76,15.934-2.24,15.166-5.546,31.209C116.75,311.793,114.995,324.813,115.042,327.037Z" transform="translate(-73.023 -109.937)" fill="#88e0ef"/>
        <g id="Grupo_129366" data-name="Grupo 129366" transform="translate(35.572 93.533)" opacity="0.3">
          <path id="Trazado_180548" data-name="Trazado 180548" d="M115.042,327.037h73.464l-1.191-11.484s-8.4-43.649-8.335-44.229l1.316-2.773a27.684,27.684,0,0,0,.329-23.109h0l36.035-12.3-8.8-29.674c-16.325,2.742-41,5.828-41,5.828l-3.666.3s-25.475,1.332-26.023,1.394c-10.654,1.3-23.047,2.115-27.574,13.521-2.428,6.095-.125,15.244,3.838,24.676l9.4,28.984c3.76,15.934-2.24,15.166-5.546,31.209C116.75,311.793,114.995,324.813,115.042,327.037Z" transform="translate(-108.595 -203.47)"/>
        </g>
        <path id="Trazado_180549" data-name="Trazado 180549" d="M192.221,222.72a8.021,8.021,0,0,1-1.567.674c-1.034.376-2.554.893-4.434,1.567-3.76,1.269-8.993,2.945-14.759,4.794s-10.967,3.682-14.571,5.186c-1.849.752-3.306,1.41-4.324,1.849a6.752,6.752,0,0,1-1.567.627,7.835,7.835,0,0,1,1.473-.924c.987-.517,2.413-1.269,4.23-2.084a142.686,142.686,0,0,1,14.555-5.421c5.781-1.849,10.967-3.447,14.837-4.575,1.9-.564,3.447-1,4.512-1.3A6.675,6.675,0,0,1,192.221,222.72Z" transform="translate(-48.991 -99.027)" fill="#263238"/>
        <path id="Trazado_180550" data-name="Trazado 180550" d="M209.727,212.777c0,.219-21.73.407-48.568.407s-48.568-.188-48.568-.407,21.715-.407,48.568-.407S209.727,212.558,209.727,212.777Z" transform="translate(-70.759 -104.893)" fill="#fafafa"/>
        <path id="Trazado_180551" data-name="Trazado 180551" d="M215.053,221.987c0,.219-24.175.407-53.989.407s-53.974-.188-53.974-.407,24.159-.407,53.974-.407S215.053,221.768,215.053,221.987Z" transform="translate(-73.876 -99.673)" fill="#fafafa"/>
        <path id="Trazado_180552" data-name="Trazado 180552" d="M114.259,232.484a13.019,13.019,0,0,1-4.512.407,12.957,12.957,0,0,1-4.5-.407,12.957,12.957,0,0,1,4.5-.407A13.02,13.02,0,0,1,114.259,232.484Z" transform="translate(-74.919 -93.751)" fill="#fafafa"/>
        <path id="Trazado_180553" data-name="Trazado 180553" d="M181.537,232.787c0,.219-15.808.407-35.3.407s-35.3-.188-35.3-.407,15.793-.407,35.3-.407S181.537,232.552,181.537,232.787Z" transform="translate(-71.694 -93.553)" fill="#fafafa"/>
        <path id="Trazado_180554" data-name="Trazado 180554" d="M177.924,243.577c0,.235-14.195.407-31.679.407s-31.695-.172-31.695-.407,14.179-.407,31.695-.407S177.924,243.358,177.924,243.577Z" transform="translate(-69.648 -87.438)" fill="#fafafa"/>
        <path id="Trazado_180555" data-name="Trazado 180555" d="M175.5,253.587c0,.219-12.847.407-28.7.407s-28.734-.188-28.734-.407,12.863-.407,28.734-.407S175.5,253.352,175.5,253.587Z" transform="translate(-67.659 -81.765)" fill="#fafafa"/>
        <path id="Trazado_180556" data-name="Trazado 180556" d="M178.557,261.677c0,.235-13.756.407-30.723.407s-30.723-.172-30.723-.407,13.756-.407,30.723-.407S178.557,261.458,178.557,261.677Z" transform="translate(-68.197 -77.18)" fill="#fafafa"/>
        <path id="Trazado_180557" data-name="Trazado 180557" d="M184.157,272c0,.235-15.667.407-34.954.407s-34.954-.172-34.954-.407,15.667-.407,34.954-.407S184.157,271.778,184.157,272Z" transform="translate(-69.818 -71.331)" fill="#fafafa"/>
        <path id="Trazado_180558" data-name="Trazado 180558" d="M122.079,264a4.919,4.919,0,0,1-.658-1.441l-1.567-4.011c-1.3-3.384-3.133-8.053-5.014-13.27s-3.462-9.98-4.45-13.474c-.486-1.755-.862-3.133-1.065-4.167a6.691,6.691,0,0,1-.266-1.567,55.2,55.2,0,0,1,1.88,5.562c1.128,3.447,2.773,8.178,4.7,13.38s3.619,9.9,4.7,13.348c.58,1.723,1.018,3.133,1.3,4.1a6.267,6.267,0,0,1,.439,1.535Z" transform="translate(-72.76 -97.129)" fill="#263238"/>
      </g>
    </g>
  </g>
</svg>
