<svg xmlns="http://www.w3.org/2000/svg" width="400" height="392" viewBox="0 0 400 392">
  <g id="Grupo_129543" data-name="Grupo 129543" transform="translate(10735.051 9531.802)">
    <path id="Trazado_180099" data-name="Trazado 180099" d="M149.92,586.782V265.41c.55-15.328,10.864-27.213,23.071-26.582h21.927c8.737.2,16.832-5.742,20.973-15.406l4.7-11.814c4.135-9.682,12.227-15.656,20.974-15.486H346.244c7.944-.111,15.4,4.811,19.829,13.091l5.148,9.978c4.428,8.327,11.921,13.258,19.893,13.091H524.582c12.2-.676,22.521,11.185,23.071,26.5v328Z" transform="translate(-10883.971 -9726.584)" fill="#88e0ef"/>
    <path id="Trazado_180100" data-name="Trazado 180100" d="M149.92,586h29.426l81.8-.476,286.573-.952-1.525,1.9V268.062a111.189,111.189,0,0,0,0-11.429c-1.058-7.3-4.735-13.585-9.979-17.064a20.044,20.044,0,0,0-7.69-3.254,49.891,49.891,0,0,0-8.516,0H391.941a20.837,20.837,0,0,1-8.643-1.667c-5.623-2.2-10.412-6.886-13.474-13.175l-4.385-8.572a25.113,25.113,0,0,0-5.084-6.9,19.874,19.874,0,0,0-14.046-5.635H238.962a20.632,20.632,0,0,0-12.266,6.984c-6.737,7.223-7.436,21.826-16.207,29.048a22.391,22.391,0,0,1-13.728,5.953H182.969a90.577,90.577,0,0,0-13.22,0,20.172,20.172,0,0,0-11.25,6.27,25.589,25.589,0,0,0-6.356,12.619,102.686,102.686,0,0,0-.572,15.477v60.16c0,76.747-.445,138.891-.636,182.067v.953c0-43.255-.381-105.557-.636-182.543V276.792a102.4,102.4,0,0,1,.572-16.35,30.326,30.326,0,0,1,5.911-14.6,23.365,23.365,0,0,1,12.711-7.064,99.359,99.359,0,0,1,13.664-.476h13.664a19.832,19.832,0,0,0,12.2-5.318c7.754-6.111,8.072-19.683,15.889-28.889a23.539,23.539,0,0,1,13.855-7.937c5.212-.556,9.915,0,14.936,0H346.5a22.191,22.191,0,0,1,15.952,6.349,27.6,27.6,0,0,1,5.847,7.937l4.449,8.572A22.784,22.784,0,0,0,384.5,230.521a17.851,17.851,0,0,0,7.627,1.429h128a43.92,43.92,0,0,1,9.025.4,22.7,22.7,0,0,1,8.834,3.73c6.087,4.129,10.343,11.487,11.567,20a111.705,111.705,0,0,1,.318,12.064V587.909h-1.525l-287.527-.952-81.479-.476H152.335Z" transform="translate(-10884.971 -9727.711)" fill="#0075b9"/>
    <path id="Trazado_180101" data-name="Trazado 180101" d="M249.769,201.338A274.6,274.6,0,0,1,207.5,202.99a275.328,275.328,0,0,1-42.265-1.653,265.969,265.969,0,0,1,42.265-1.653,265.347,265.347,0,0,1,42.265,1.653Z" transform="translate(-10802.923 -9708.664)" fill="#fff"/>
  </g>
</svg>
