<svg id="ISO" xmlns="http://www.w3.org/2000/svg" width="231" height="230.998" viewBox="0 0 231 230.998">
  <path id="Trazado_180561" data-name="Trazado 180561" d="M197.692,197.682l-17.269-.77-3.063,17.017-16.664-4.6-6.794,15.9-15.215-8.213L128.519,231l-13.011-11.385L102.5,231,92.329,217.015l-15.214,8.213-6.794-15.9-16.664,4.6L50.6,196.912l-17.271.77.77-17.269-17.015-3.061,4.6-16.666-15.9-6.794,8.211-15.214L.01,128.511,11.394,115.5.01,102.488,13.992,92.321,5.78,77.106l15.9-6.793-4.6-16.666,17.015-3.061-.77-17.269,17.271.77,3.062-17.017,16.666,4.6,6.793-15.9,15.215,8.213L102.5,0l13.011,11.385L128.521,0l10.167,13.983L153.9,5.772l6.794,15.9,16.666-4.6,3.061,17.017,17.269-.77-.77,17.269,17.015,3.061-4.6,16.666,15.9,6.794-8.211,15.214,13.983,10.169L219.623,115.5l11.385,13.013-13.983,10.165,8.211,15.214-15.9,6.794,4.6,16.666-17.015,3.061Z" transform="translate(-0.008)" fill="#00c28b"/>
  <path id="Trazado_180562" data-name="Trazado 180562" d="M177.378,17.239,53.606,213.681l-3.017-16.769-17.274.772.772-17.274-17.014-3.06,4.6-16.661-15.9-6.8,8.208-15.21L0,128.508,11.384,115.5,0,102.485,13.983,92.321,5.775,77.1l15.9-6.793-4.6-16.661,17.014-3.06-.772-17.274,17.274.772,3.06-17.014,16.669,4.6,6.793-15.9,15.209,8.216L102.491,0,115.5,11.384,128.514,0l10.164,13.983L153.9,5.767l6.791,15.9,16.661-4.6Z" fill="#00c78e"/>
  <circle id="Elipse_5517" data-name="Elipse 5517" cx="90.137" cy="90.137" r="90.137" transform="translate(25.364 25.362)" fill="#00ba8b"/>
  <path id="Trazado_180563" data-name="Trazado 180563" d="M491.053,940.53H362.55a.81.81,0,0,1-.81-.81h0a.809.809,0,0,1,.81-.81H491.058a.81.81,0,0,1,.81.81h0a.811.811,0,0,1-.815.81Z" transform="translate(-311.258 -797.542)" fill="#fff"/>
  <path id="Trazado_180564" data-name="Trazado 180564" d="M491.053,594.04H362.55a.809.809,0,0,1-.81-.81h0a.81.81,0,0,1,.81-.81H491.058a.812.812,0,0,1,.81.81h0a.81.81,0,0,1-.815.81Z" transform="translate(-311.258 -504.411)" fill="#fff"/>
  <path id="Trazado_180565" data-name="Trazado 180565" d="M703.75,415.067l-2.336-6.137-2.335,6.137-6.559.325,5.114,4.118-1.717,6.339,5.5-3.591,5.5,3.591-1.717-6.339,5.114-4.118Z" transform="translate(-585.873 -345.955)" fill="#fff"/>
  <path id="Trazado_180566" data-name="Trazado 180566" d="M703.75,987.347l-2.336-6.137-2.335,6.137-6.559.325,5.114,4.12-1.717,6.337,5.5-3.591,5.5,3.591-1.717-6.337,5.114-4.12Z" transform="translate(-585.873 -830.105)" fill="#fff"/>
  <path id="Trazado_180567" data-name="Trazado 180567" d="M773.358,134.67a1.608,1.608,0,1,0,1.608,1.608A1.608,1.608,0,0,0,773.358,134.67Z" transform="translate(-658.127 -117.154)" fill="#fff"/>
  <path id="Trazado_180568" data-name="Trazado 180568" d="M707.793,138.291a1.606,1.606,0,1,0,1.766,1.431A1.606,1.606,0,0,0,707.793,138.291Z" transform="translate(-602.803 -120.21)" fill="#fff"/>
  <path id="Trazado_180569" data-name="Trazado 180569" d="M643.014,148.746a1.606,1.606,0,1,0,1.905,1.232,1.606,1.606,0,0,0-1.905-1.232Z" transform="translate(-548.14 -129.032)" fill="#fff"/>
  <path id="Trazado_180570" data-name="Trazado 180570" d="M579.568,165.924a1.6,1.6,0,1,0,1.226.1A1.606,1.606,0,0,0,579.568,165.924Z" transform="translate(-494.602 -143.527)" fill="#fff"/>
  <path id="Trazado_180571" data-name="Trazado 180571" d="M518.309,189.628a1.608,1.608,0,1,0,2.121.815A1.608,1.608,0,0,0,518.309,189.628Z" transform="translate(-442.906 -163.532)" fill="#fff"/>
  <path id="Trazado_180572" data-name="Trazado 180572" d="M459.887,219.606a1.606,1.606,0,1,0,2.194.588A1.606,1.606,0,0,0,459.887,219.606Z" transform="translate(-393.611 -188.828)" fill="#fff"/>
  <path id="Trazado_180573" data-name="Trazado 180573" d="M404.912,255.532a1.6,1.6,0,1,0,1.2-.288A1.606,1.606,0,0,0,404.912,255.532Z" transform="translate(-347.221 -219.143)" fill="#fff"/>
  <path id="Trazado_180574" data-name="Trazado 180574" d="M353.991,297.006a1.606,1.606,0,1,0,2.268.119A1.606,1.606,0,0,0,353.991,297.006Z" transform="translate(-304.253 -254.142)" fill="#fff"/>
  <path id="Trazado_180575" data-name="Trazado 180575" d="M307.669,343.571a1.608,1.608,0,1,0,2.27-.119A1.608,1.608,0,0,0,307.669,343.571Z" transform="translate(-265.163 -293.435)" fill="#fff"/>
  <path id="Trazado_180576" data-name="Trazado 180576" d="M266.489,394.729a1.606,1.606,0,1,0,2.245-.356A1.606,1.606,0,0,0,266.489,394.729Z" transform="translate(-230.416 -336.604)" fill="#fff"/>
  <path id="Trazado_180577" data-name="Trazado 180577" d="M230.878,449.9a1.606,1.606,0,1,0,2.195-.588,1.606,1.606,0,0,0-2.195.588Z" transform="translate(-200.366 -383.163)" fill="#fff"/>
  <path id="Trazado_180578" data-name="Trazado 180578" d="M201.233,508.5a1.608,1.608,0,1,0,2.122-.815A1.608,1.608,0,0,0,201.233,508.5Z" transform="translate(-175.351 -432.608)" fill="#fff"/>
  <path id="Trazado_180579" data-name="Trazado 180579" d="M177.857,569.9a1.606,1.606,0,1,0,2.025-1.032A1.606,1.606,0,0,0,177.857,569.9Z" transform="translate(-155.626 -484.418)" fill="#fff"/>
  <path id="Trazado_180580" data-name="Trazado 180580" d="M161.029,633.4a1.606,1.606,0,1,0,1.9-1.232A1.606,1.606,0,0,0,161.029,633.4Z" transform="translate(-141.425 -538.005)" fill="#fff"/>
  <path id="Trazado_180581" data-name="Trazado 180581" d="M150.951,698.26a1.606,1.606,0,1,0,1.766-1.429A1.606,1.606,0,0,0,150.951,698.26Z" transform="translate(-132.922 -592.735)" fill="#fff"/>
  <path id="Trazado_180582" data-name="Trazado 180582" d="M147.69,763.856a1.608,1.608,0,1,0,1.606-1.606A1.608,1.608,0,0,0,147.69,763.856Z" transform="translate(-130.171 -648.088)" fill="#fff"/>
  <path id="Trazado_180583" data-name="Trazado 180583" d="M151.31,829.427a1.606,1.606,0,1,0,1.429-1.766A1.606,1.606,0,0,0,151.31,829.427Z" transform="translate(-133.226 -703.418)" fill="#fff"/>
  <path id="Trazado_180584" data-name="Trazado 180584" d="M161.8,894.256a1.606,1.606,0,1,0,1.232-1.906A1.606,1.606,0,0,0,161.8,894.256Z" transform="translate(-142.08 -758.121)" fill="#fff"/>
  <path id="Trazado_180585" data-name="Trazado 180585" d="M178.937,957.649a1.606,1.606,0,1,0,.1-1.226A1.608,1.608,0,0,0,178.937,957.649Z" transform="translate(-156.539 -811.615)" fill="#fff"/>
  <path id="Trazado_180586" data-name="Trazado 180586" d="M202.642,1018.9a1.6,1.6,0,1,0-.033-1.23A1.606,1.606,0,0,0,202.642,1018.9Z" transform="translate(-176.542 -863.3)" fill="#fff"/>
  <path id="Trazado_180587" data-name="Trazado 180587" d="M232.626,1077.332a1.606,1.606,0,1,0,.588-2.194A1.606,1.606,0,0,0,232.626,1077.332Z" transform="translate(-201.845 -912.609)" fill="#fff"/>
  <path id="Trazado_180588" data-name="Trazado 180588" d="M268.544,1132.314a1.606,1.606,0,1,0,.356-2.245,1.606,1.606,0,0,0-.356,2.245Z" transform="translate(-232.154 -959.004)" fill="#fff"/>
  <path id="Trazado_180589" data-name="Trazado 180589" d="M310.019,1183.266a1.606,1.606,0,1,0-.411-1.16A1.606,1.606,0,0,0,310.019,1183.266Z" transform="translate(-267.151 -1001.999)" fill="#fff"/>
  <path id="Trazado_180590" data-name="Trazado 180590" d="M356.591,1229.55a1.606,1.606,0,1,0-.119-2.268A1.606,1.606,0,0,0,356.591,1229.55Z" transform="translate(-306.452 -1041.055)" fill="#fff"/>
  <path id="Trazado_180591" data-name="Trazado 180591" d="M407.743,1270.736a1.606,1.606,0,1,0-.356-2.244A1.606,1.606,0,0,0,407.743,1270.736Z" transform="translate(-349.617 -1075.808)" fill="#fff"/>
  <path id="Trazado_180592" data-name="Trazado 180592" d="M462.912,1306.349a1.606,1.606,0,1,0-.75-.976A1.606,1.606,0,0,0,462.912,1306.349Z" transform="translate(-396.169 -1105.86)" fill="#fff"/>
  <path id="Trazado_180593" data-name="Trazado 180593" d="M521.52,1336a1.606,1.606,0,1,0-.815-2.122A1.606,1.606,0,0,0,521.52,1336Z" transform="translate(-445.625 -1130.88)" fill="#fff"/>
  <path id="Trazado_180594" data-name="Trazado 180594" d="M582.9,1359.361a1.606,1.606,0,1,0-1.032-2.024A1.606,1.606,0,0,0,582.9,1359.361Z" transform="translate(-497.418 -1150.593)" fill="#fff"/>
  <path id="Trazado_180595" data-name="Trazado 180595" d="M646.408,1376.189a1.606,1.606,0,1,0-1.232-1.905A1.606,1.606,0,0,0,646.408,1376.189Z" transform="translate(-551.015 -1164.793)" fill="#fff"/>
  <path id="Trazado_180596" data-name="Trazado 180596" d="M711.272,1386.279a1.606,1.606,0,1,0-1.082-.587A1.606,1.606,0,0,0,711.272,1386.279Z" transform="translate(-605.744 -1173.307)" fill="#fff"/>
  <path id="Trazado_180597" data-name="Trazado 180597" d="M776.868,1389.533a1.606,1.606,0,1,0-1.608-1.606A1.606,1.606,0,0,0,776.868,1389.533Z" transform="translate(-661.096 -1176.052)" fill="#fff"/>
  <path id="Trazado_180598" data-name="Trazado 180598" d="M842.446,1385.91a1.606,1.606,0,1,0-1.765-1.429A1.606,1.606,0,0,0,842.446,1385.91Z" transform="translate(-716.434 -1172.994)" fill="#fff"/>
  <path id="Trazado_180599" data-name="Trazado 180599" d="M907.274,1375.455a1.606,1.606,0,1,0-1.9-1.232A1.606,1.606,0,0,0,907.274,1375.455Z" transform="translate(-771.138 -1164.171)" fill="#fff"/>
  <path id="Trazado_180600" data-name="Trazado 180600" d="M970.67,1358.281a1.606,1.606,0,1,0-2.024-1.032A1.606,1.606,0,0,0,970.67,1358.281Z" transform="translate(-824.634 -1149.679)" fill="#fff"/>
  <path id="Trazado_180601" data-name="Trazado 180601" d="M1031.913,1334.574a1.606,1.606,0,1,0-2.12-.813A1.606,1.606,0,0,0,1031.913,1334.574Z" transform="translate(-876.313 -1129.674)" fill="#fff"/>
  <path id="Trazado_180602" data-name="Trazado 180602" d="M1090.349,1304.6a1.606,1.606,0,1,0-2.194-.587A1.606,1.606,0,0,0,1090.349,1304.6Z" transform="translate(-925.622 -1104.377)" fill="#fff"/>
  <path id="Trazado_180603" data-name="Trazado 180603" d="M1145.329,1268.677a1.606,1.606,0,1,0-2.244-.356A1.606,1.606,0,0,0,1145.329,1268.677Z" transform="translate(-972.017 -1074.067)" fill="#fff"/>
  <path id="Trazado_180604" data-name="Trazado 180604" d="M1196.271,1227.2a1.606,1.606,0,1,0-2.268-.119A1.606,1.606,0,0,0,1196.271,1227.2Z" transform="translate(-1015.004 -1039.067)" fill="#fff"/>
  <path id="Trazado_180605" data-name="Trazado 180605" d="M1242.555,1180.636a1.606,1.606,0,1,0-2.268.12A1.606,1.606,0,0,0,1242.555,1180.636Z" transform="translate(-1054.059 -999.775)" fill="#fff"/>
  <path id="Trazado_180606" data-name="Trazado 180606" d="M1283.746,1129.481a1.6,1.6,0,1,0-1.048.643A1.606,1.606,0,0,0,1283.746,1129.481Z" transform="translate(-1088.817 -956.608)" fill="#fff"/>
  <path id="Trazado_180607" data-name="Trazado 180607" d="M1319.362,1074.305a1.606,1.606,0,1,0-2.194.588A1.606,1.606,0,0,0,1319.362,1074.305Z" transform="translate(-1118.87 -910.048)" fill="#fff"/>
  <path id="Trazado_180608" data-name="Trazado 180608" d="M1349.015,1015.7a1.606,1.606,0,1,0-2.121.813A1.606,1.606,0,0,0,1349.015,1015.7Z" transform="translate(-1143.893 -860.594)" fill="#fff"/>
  <path id="Trazado_180609" data-name="Trazado 180609" d="M1372.369,954.3a1.608,1.608,0,1,0-2.025,1.03A1.608,1.608,0,0,0,1372.369,954.3Z" transform="translate(-1163.597 -808.784)" fill="#fff"/>
  <path id="Trazado_180610" data-name="Trazado 180610" d="M1389.209,890.814a1.606,1.606,0,1,0-1.906,1.232A1.606,1.606,0,0,0,1389.209,890.814Z" transform="translate(-1177.81 -755.207)" fill="#fff"/>
  <path id="Trazado_180611" data-name="Trazado 180611" d="M1399.289,825.949a1.6,1.6,0,1,0-.586,1.081A1.606,1.606,0,0,0,1399.289,825.949Z" transform="translate(-1186.315 -700.477)" fill="#fff"/>
  <path id="Trazado_180612" data-name="Trazado 180612" d="M1402.536,760.339a1.608,1.608,0,1,0-1.608,1.606A1.608,1.608,0,0,0,1402.536,760.339Z" transform="translate(-1189.051 -645.11)" fill="#fff"/>
  <path id="Trazado_180613" data-name="Trazado 180613" d="M1398.931,694.783a1.607,1.607,0,1,0-.349,1.18,1.606,1.606,0,0,0,.349-1.18Z" transform="translate(-1186.012 -589.794)" fill="#fff"/>
  <path id="Trazado_180614" data-name="Trazado 180614" d="M1388.475,629.944a1.606,1.606,0,1,0-1.232,1.905A1.606,1.606,0,0,0,1388.475,629.944Z" transform="translate(-1177.188 -535.081)" fill="#fff"/>
  <path id="Trazado_180615" data-name="Trazado 180615" d="M1371.285,566.542a1.608,1.608,0,1,0-1.032,2.025A1.608,1.608,0,0,0,1371.285,566.542Z" transform="translate(-1162.679 -481.577)" fill="#fff"/>
  <path id="Trazado_180616" data-name="Trazado 180616" d="M1347.6,505.308a1.606,1.606,0,1,0-.815,2.122A1.606,1.606,0,0,0,1347.6,505.308Z" transform="translate(-1142.692 -429.909)" fill="#fff"/>
  <path id="Trazado_180617" data-name="Trazado 180617" d="M1317.617,446.874a1.606,1.606,0,1,0,.161,1.22A1.606,1.606,0,0,0,1317.617,446.874Z" transform="translate(-1117.395 -380.6)" fill="#fff"/>
  <path id="Trazado_180618" data-name="Trazado 180618" d="M1281.69,391.9a1.606,1.606,0,1,0-.354,2.244A1.606,1.606,0,0,0,1281.69,391.9Z" transform="translate(-1087.078 -334.208)" fill="#fff"/>
  <path id="Trazado_180619" data-name="Trazado 180619" d="M1240.22,340.971a1.606,1.606,0,1,0-.119,2.268,1.606,1.606,0,0,0,.119-2.268Z" transform="translate(-1052.084 -291.236)" fill="#fff"/>
  <path id="Trazado_180620" data-name="Trazado 180620" d="M1193.651,294.663a1.606,1.606,0,1,0,.119,2.268A1.606,1.606,0,0,0,1193.651,294.663Z" transform="translate(-1012.787 -252.159)" fill="#fff"/>
  <path id="Trazado_180621" data-name="Trazado 180621" d="M1142.5,253.476a1.606,1.606,0,1,0,.356,2.244A1.606,1.606,0,0,0,1142.5,253.476Z" transform="translate(-969.625 -217.404)" fill="#fff"/>
  <path id="Trazado_180622" data-name="Trazado 180622" d="M1087.315,217.818a1.606,1.606,0,1,0,.588,2.195A1.606,1.606,0,0,0,1087.315,217.818Z" transform="translate(-923.057 -187.315)" fill="#fff"/>
  <path id="Trazado_180623" data-name="Trazado 180623" d="M1028.718,188.236a1.606,1.606,0,1,0,.815,2.121,1.606,1.606,0,0,0-.815-2.121Z" transform="translate(-873.61 -162.354)" fill="#fff"/>
  <path id="Trazado_180624" data-name="Trazado 180624" d="M967.323,164.834a1.606,1.606,0,1,0,.936.8A1.608,1.608,0,0,0,967.323,164.834Z" transform="translate(-821.8 -142.606)" fill="#fff"/>
  <path id="Trazado_180625" data-name="Trazado 180625" d="M903.824,148.01a1.606,1.606,0,1,0,1.232,1.907A1.606,1.606,0,0,0,903.824,148.01Z" transform="translate(-768.216 -128.409)" fill="#fff"/>
  <path id="Trazado_180626" data-name="Trazado 180626" d="M838.967,137.951a1.606,1.606,0,1,0,1.431,1.762A1.606,1.606,0,0,0,838.967,137.951Z" transform="translate(-713.492 -119.923)" fill="#fff"/>
  <path id="Trazado_180627" data-name="Trazado 180627" d="M383.48,404.941a5.728,5.728,0,0,0,1.178-1.936,7.708,7.708,0,0,0,.351-2.3l2.19-.228a7.813,7.813,0,0,1-2.017,5.861,8.159,8.159,0,0,1-5.162,2.912,6.6,6.6,0,0,1-7.42-6.58,8.348,8.348,0,0,1,2.284-5.613,7.88,7.88,0,0,1,5.544-2.82l.126,2.235a7.051,7.051,0,0,0-2.293.662,6.235,6.235,0,0,0-1.74,1.429,5.621,5.621,0,0,0-1.515,3.711,4.212,4.212,0,0,0,1.506,3.362,4.4,4.4,0,0,0,3.565,1.107A5.218,5.218,0,0,0,383.48,404.941Z" transform="translate(-320.445 -336.751)" fill="#fff"/>
  <path id="Trazado_180628" data-name="Trazado 180628" d="M464.31,312.49l1.2,1.751-6.543,4.488,2,2.926,5.875-4.035,1.138,1.657-5.875,4.035,2.027,2.951,6.751-4.635,1.2,1.752-8.823,6.057L455.7,318.4Z" transform="translate(-390.748 -267.59)" fill="#fff"/>
  <path id="Trazado_180629" data-name="Trazado 180629" d="M576.093,270.322a3.94,3.94,0,0,1-1.571,5.031l5.336,3.214-3,1.1-4.889-2.988-3.094,1.14,1.555,4.223-2.355.867L563.45,270.35l5.191-1.914q3.192-1.178,4.928-.715A3.772,3.772,0,0,1,576.093,270.322Zm-2.479,2.934a2.263,2.263,0,0,0,.062-2.051,1.943,1.943,0,0,0-1.361-1.417,5.708,5.708,0,0,0-2.806.513l-2.994,1.1,1.657,4.491,2.926-1.078A5,5,0,0,0,573.614,273.256Z" transform="translate(-481.905 -229.605)" fill="#fff"/>
  <path id="Trazado_180630" data-name="Trazado 180630" d="M690.209,242.016l1.292,11.242-2.495.291-1.294-11.242-4.481.514L683,240.767l11.456-1.317.236,2.054Z" transform="translate(-583.044 -205.798)" fill="#fff"/>
  <path id="Trazado_180631" data-name="Trazado 180631" d="M801.667,240.72l2.507.154-.828,13.358-2.506-.154Z" transform="translate(-682.737 -206.873)" fill="#fff"/>
  <path id="Trazado_180632" data-name="Trazado 180632" d="M864.374,251.293l-.875,3.571,6.4,1.569-.5,2.027-6.4-1.569-1.312,5.356-2.439-.6,3.186-13,9.628,2.364-.522,2.04Z" transform="translate(-732.152 -213.581)" fill="#fff"/>
  <path id="Trazado_180633" data-name="Trazado 180633" d="M959.378,282.7l2.293,1.023-5.459,12.221-2.292-1.024Z" transform="translate(-812.242 -242.388)" fill="#fff"/>
  <path id="Trazado_180634" data-name="Trazado 180634" d="M1022.95,322.092l-1.212,1.746-6.52-4.521-2.017,2.911,5.852,4.062-1.146,1.651-5.852-4.059-2.041,2.943,6.731,4.666-1.21,1.746-8.795-6.1,7.624-11Z" transform="translate(-856.928 -270.678)" fill="#fff"/>
  <path id="Trazado_180635" data-name="Trazado 180635" d="M1106.481,403.579a5.939,5.939,0,0,1-2.3,4.8,6.225,6.225,0,0,1-5.105,1.639q-2.739-.394-5.544-3.656l-3.216-3.744,10.15-8.723,3.333,3.865A9.543,9.543,0,0,1,1106.481,403.579Zm-3.989,2.926q3.483-2.994-.329-7.432l-1.634-1.9-6.956,5.978,1.816,2.113a6.434,6.434,0,0,0,3.576,2.385,4.12,4.12,0,0,0,3.528-1.144Z" transform="translate(-927.637 -336.463)" fill="#fff"/>
  <path id="Trazado_180636" data-name="Trazado 180636" d="M381.325,1069.194a5.786,5.786,0,0,0,1.811,1.368,7.747,7.747,0,0,0,2.25.579l.009,2.2a7.822,7.822,0,0,1-5.63-2.592,8.156,8.156,0,0,1-2.382-5.427,6.289,6.289,0,0,1,2.1-4.994,6.356,6.356,0,0,1,5.188-1.733,8.354,8.354,0,0,1,5.358,2.834,7.875,7.875,0,0,1,2.253,5.793l-2.236-.1a7.08,7.08,0,0,0-.43-2.345,6.212,6.212,0,0,0-1.249-1.876,5.635,5.635,0,0,0-3.542-1.879,4.217,4.217,0,0,0-3.5,1.161,4.4,4.4,0,0,0-1.458,3.437A5.219,5.219,0,0,0,381.325,1069.194Z" transform="translate(-324.489 -898.763)" fill="#fff"/>
  <path id="Trazado_180637" data-name="Trazado 180637" d="M475.716,1130.063l-1.172,1.773-6.622-4.374-1.953,2.96,5.949,3.93-1.109,1.676-5.947-3.927-1.973,2.988,6.834,4.515-1.172,1.772-8.932-5.9L467,1124.31Z" transform="translate(-394.064 -954.391)" fill="#fff"/>
  <path id="Trazado_180638" data-name="Trazado 180638" d="M579.226,1185.1a3.936,3.936,0,0,1-4.435,2.84l2.016,5.9-3-1.078-1.82-5.444-3.1-1.115-1.525,4.234-2.358-.847L569.528,1177l5.207,1.874a8.752,8.752,0,0,1,4.233,2.618A3.75,3.75,0,0,1,579.226,1185.1Zm-3.784.653a2.248,2.248,0,0,0,1.366-1.532,1.955,1.955,0,0,0-.131-1.96,5.719,5.719,0,0,0-2.478-1.411l-3-1.078-1.622,4.5,2.943,1.058A5.017,5.017,0,0,0,575.443,1185.758Z" transform="translate(-483.216 -998.966)" fill="#fff"/>
  <path id="Trazado_180639" data-name="Trazado 180639" d="M696.573,1211.289l-1.314,11.242-2.495-.291L694.08,1211l-4.48-.524.239-2.054,11.454,1.34-.236,2.054Z" transform="translate(-588.627 -1025.548)" fill="#fff"/>
  <path id="Trazado_180640" data-name="Trazado 180640" d="M796.83,1214.931l2.507-.131.695,13.365-2.505.131Z" transform="translate(-679.344 -1030.945)" fill="#fff"/>
  <path id="Trazado_180641" data-name="Trazado 180641" d="M856.152,1200.47l.813,3.585,6.433-1.457.462,2.036-6.431,1.457,1.218,5.379-2.449.553-2.958-13.053,9.665-2.19.445,2.059Z" transform="translate(-727.067 -1015.7)" fill="#fff"/>
  <path id="Trazado_180642" data-name="Trazado 180642" d="M946.25,1179.307l2.31-.967,5.15,12.352-2.31.969Z" transform="translate(-805.754 -1000.1)" fill="#fff"/>
  <path id="Trazado_180643" data-name="Trazado 180643" d="M1006.543,1124.71l1.153,1.785-6.665,4.312,1.922,2.975,5.986-3.868,1.092,1.694-5.986,3.867,1.943,3.008,6.879-4.444,1.153,1.785-8.987,5.809-7.264-11.242Z" transform="translate(-849.34 -954.729)" fill="#fff"/>
  <path id="Trazado_180644" data-name="Trazado 180644" d="M1090.112,1057.5a5.934,5.934,0,0,1,5.025,1.763,6.23,6.23,0,0,1,2.181,4.9q-.1,2.772-3.037,5.9l-3.374,3.6-9.767-9.151,3.49-3.725A9.5,9.5,0,0,1,1090.112,1057.5Zm3.337,3.65q-3.354-3.142-7.355,1.129l-1.716,1.833,6.693,6.271,1.905-2.034a6.459,6.459,0,0,0,1.985-3.811A4.136,4.136,0,0,0,1093.449,1061.148Z" transform="translate(-919.871 -897.821)" fill="#fff"/>
  <path id="Trazado_180645" data-name="Trazado 180645" d="M279.723,715.077H274.55V690.22h5.173Z" transform="translate(-237.495 -587.15)" fill="#fff"/>
  <path id="Trazado_180646" data-name="Trazado 180646" d="M344.688,693.5a1.965,1.965,0,0,1-.488.574,1.078,1.078,0,0,1-.642.18,1.606,1.606,0,0,1-.815-.265c-.291-.177-.63-.37-1.018-.574a9.894,9.894,0,0,0-1.337-.574,5.313,5.313,0,0,0-1.766-.265,3.9,3.9,0,0,0-2.672.8,2.661,2.661,0,0,0-.892,2.082,1.956,1.956,0,0,0,.488,1.361,4.234,4.234,0,0,0,1.286.933,11.927,11.927,0,0,0,1.806.7q1.012.308,2.073.676a18.327,18.327,0,0,1,2.068.864,7.3,7.3,0,0,1,1.808,1.252,5.721,5.721,0,0,1,1.284,1.848,6.45,6.45,0,0,1,.488,2.647,8.5,8.5,0,0,1-.591,3.179,7.513,7.513,0,0,1-1.7,2.578,7.887,7.887,0,0,1-2.75,1.739,10.184,10.184,0,0,1-3.708.634,11.721,11.721,0,0,1-2.356-.24,13.521,13.521,0,0,1-2.261-.668,12.542,12.542,0,0,1-2.048-1.027,9,9,0,0,1-1.679-1.337l1.508-2.432a1.521,1.521,0,0,1,.5-.462,1.268,1.268,0,0,1,.651-.18,1.782,1.782,0,0,1,.976.342q.513.345,1.181.755a9.507,9.507,0,0,0,1.551.753,5.826,5.826,0,0,0,2.116.343,4.226,4.226,0,0,0,2.783-.822,3.009,3.009,0,0,0,.986-2.45,2.3,2.3,0,0,0-.488-1.525,3.934,3.934,0,0,0-1.277-.976,10.112,10.112,0,0,0-1.8-.676q-1.01-.285-2.073-.625a16.871,16.871,0,0,1-2.073-.822,6.389,6.389,0,0,1-1.8-1.257,5.966,5.966,0,0,1-1.275-1.953,7.468,7.468,0,0,1-.488-2.894,6.868,6.868,0,0,1,2.156-5,8.048,8.048,0,0,1,2.618-1.626,9.54,9.54,0,0,1,3.556-.616,12.091,12.091,0,0,1,4.158.693,9.328,9.328,0,0,1,3.234,1.928Z" transform="translate(-283.788 -585.669)" fill="#fff"/>
  <path id="Trazado_180647" data-name="Trazado 180647" d="M480.521,701.132a13.684,13.684,0,0,1-.924,5.054,11.684,11.684,0,0,1-6.605,6.69,14.5,14.5,0,0,1-10.415,0,12.066,12.066,0,0,1-4.026-2.664,11.774,11.774,0,0,1-2.593-4.026,14.35,14.35,0,0,1,0-10.1,11.783,11.783,0,0,1,2.6-4.021,12.063,12.063,0,0,1,4.021-2.66,14.476,14.476,0,0,1,10.415,0,11.725,11.725,0,0,1,6.605,6.7A13.561,13.561,0,0,1,480.521,701.132Zm-5.259,0a11.078,11.078,0,0,0-.516-3.5,7.418,7.418,0,0,0-1.48-2.636,6.383,6.383,0,0,0-2.347-1.662,8.819,8.819,0,0,0-6.262,0,6.347,6.347,0,0,0-2.355,1.662,7.422,7.422,0,0,0-1.483,2.638,12.281,12.281,0,0,0,0,7.024,7.345,7.345,0,0,0,1.483,2.63,6.378,6.378,0,0,0,2.355,1.652,8.819,8.819,0,0,0,6.262,0,6.414,6.414,0,0,0,2.347-1.652,7.342,7.342,0,0,0,1.48-2.632,11.141,11.141,0,0,0,.516-3.521Z" transform="translate(-390.19 -585.642)" fill="#fff"/>
  <path id="Trazado_180648" data-name="Trazado 180648" d="M714.594,711.515v3.477H700.645v-3.477h4.928v-13.6c0-.3,0-.6.017-.907s.029-.616.052-.942l-3.255,2.706a1.709,1.709,0,0,1-.664.326,1.539,1.539,0,0,1-.616.009,1.485,1.485,0,0,1-.514-.206,1.371,1.371,0,0,1-.342-.308l-1.491-2,7.64-6.468h3.888v21.4Z" transform="translate(-596.377 -587.065)" fill="#fff"/>
  <path id="Trazado_180649" data-name="Trazado 180649" d="M814.812,705.493v2.673a.879.879,0,0,1-.941.907h-1.937v5.911h-4.112v-5.911H797.561a1.328,1.328,0,0,1-.813-.274,1.129,1.129,0,0,1-.462-.719l-.5-2.364,11.648-15.606h4.488v15.383Zm-6.99,0V698.1c0-.388.015-.8.043-1.243s.071-.9.129-1.386L800.8,705.493Z" transform="translate(-678.464 -587.057)" fill="#fff"/>
  <path id="Trazado_180650" data-name="Trazado 180650" d="M962.325,701.134a20.224,20.224,0,0,1-.7,5.653,11.633,11.633,0,0,1-1.936,3.965,7.764,7.764,0,0,1-2.926,2.33,9.052,9.052,0,0,1-7.272,0,7.646,7.646,0,0,1-2.894-2.33,11.745,11.745,0,0,1-1.911-3.965,23.5,23.5,0,0,1,.008-11.3,11.678,11.678,0,0,1,1.911-3.956,7.632,7.632,0,0,1,2.894-2.33,9.051,9.051,0,0,1,7.272,0,7.749,7.749,0,0,1,2.926,2.33,11.682,11.682,0,0,1,1.936,3.956A19.891,19.891,0,0,1,962.325,701.134Zm-4.882,0a21.264,21.264,0,0,0-.368-4.35,9.051,9.051,0,0,0-.967-2.713,3.359,3.359,0,0,0-2.988-1.78,3.4,3.4,0,0,0-1.575.394,3.444,3.444,0,0,0-1.354,1.386,9.344,9.344,0,0,0-.956,2.713,21.686,21.686,0,0,0-.36,4.35,21.949,21.949,0,0,0,.36,4.367,8.943,8.943,0,0,0,.95,2.707,3.51,3.51,0,0,0,1.354,1.386,3.4,3.4,0,0,0,1.585.394,3.506,3.506,0,0,0,1.6-.394,3.6,3.6,0,0,0,1.386-1.386,8.585,8.585,0,0,0,.967-2.707A21.53,21.53,0,0,0,957.443,701.134Z" transform="translate(-803.85 -585.644)" fill="#fff"/>
  <path id="Trazado_180651" data-name="Trazado 180651" d="M1094.1,701.134a20.228,20.228,0,0,1-.7,5.653,11.639,11.639,0,0,1-1.936,3.965,7.766,7.766,0,0,1-2.926,2.33,9.052,9.052,0,0,1-7.272,0,7.65,7.65,0,0,1-2.9-2.33,11.766,11.766,0,0,1-1.91-3.965,23.374,23.374,0,0,1,0-11.3,11.693,11.693,0,0,1,1.91-3.956,7.636,7.636,0,0,1,2.9-2.33,9.052,9.052,0,0,1,7.272,0,7.749,7.749,0,0,1,2.926,2.33,11.679,11.679,0,0,1,1.936,3.956A20.063,20.063,0,0,1,1094.1,701.134Zm-4.882,0a21.273,21.273,0,0,0-.368-4.35,9.022,9.022,0,0,0-.969-2.713,3.359,3.359,0,0,0-2.988-1.78,3.389,3.389,0,0,0-1.577.394,3.51,3.51,0,0,0-1.354,1.386,9,9,0,0,0-.952,2.707,21.725,21.725,0,0,0-.359,4.35,21.965,21.965,0,0,0,.359,4.367,9.022,9.022,0,0,0,.952,2.707,3.51,3.51,0,0,0,1.354,1.386,3.388,3.388,0,0,0,1.585.394,3.509,3.509,0,0,0,1.6-.394,3.606,3.606,0,0,0,1.386-1.386,8.606,8.606,0,0,0,.969-2.707A21.854,21.854,0,0,0,1089.222,701.134Z" transform="translate(-915.328 -585.644)" fill="#fff"/>
  <path id="Trazado_180652" data-name="Trazado 180652" d="M1216.433,711.515v3.477h-13.945v-3.477h4.928v-13.6c0-.3,0-.6.017-.907s.029-.616.052-.942l-3.256,2.706a1.713,1.713,0,0,1-.667.326,1.549,1.549,0,0,1-.616.009,1.474,1.474,0,0,1-.514-.206,1.4,1.4,0,0,1-.342-.308l-1.491-2,7.64-6.468h3.888v21.4Z" transform="translate(-1020.934 -587.065)" fill="#fff"/>
</svg>
