<svg id="Universal_declaration_of_human_rights-amico" data-name="Universal declaration of human rights-amico" xmlns="http://www.w3.org/2000/svg" width="400" height="245.887" viewBox="0 0 400 245.887">
  <g id="freepik--Parchment--inject-25" transform="translate(144.46 1.263)">
    <g id="freepik--Document--inject-25">
      <path id="Trazado_180703" data-name="Trazado 180703" d="M45.3,162.721c-.31,2.888.545,5,2.039,5.857a3.718,3.718,0,0,0,3.415,0c4.214-1.828,8.007-8.057,8.459-13.969.347-4.543-.973-7.846-3.272-9.172a5.656,5.656,0,0,0-5.249,0c-3.291,1.432-6.594,4.636-9.073,8.608l5.925,3.415S45.73,158.724,45.3,162.721Z" transform="translate(91.269 -81.138)" fill="#e0e0e0"/>
      <path id="Trazado_180704" data-name="Trazado 180704" d="M45.3,162.721c-.31,2.888.545,5,2.039,5.857a3.718,3.718,0,0,0,3.415,0c4.214-1.828,8.007-8.057,8.459-13.969.347-4.543-.973-7.846-3.272-9.172a5.656,5.656,0,0,0-5.249,0c-3.291,1.432-6.594,4.636-9.073,8.608l5.925,3.415S45.73,158.724,45.3,162.721Z" transform="translate(91.269 -81.138)" opacity="0.1"/>
      <path id="Trazado_180705" data-name="Trazado 180705" d="M60.6,67.772c.428-4,2.243-5.262,2.243-5.262l110.4,63.666s-1.816,1.239-2.243,5.255c-.3,2.888.552,5,2.039,5.857L62.647,73.6C61.141,72.73,60.3,70.635,60.6,67.772Z" transform="translate(-34.43 -49.849)" fill="#e0e0e0"/>
      <path id="Trazado_180706" data-name="Trazado 180706" d="M60.6,67.772c.428-4,2.243-5.262,2.243-5.262l110.4,63.666s-1.816,1.239-2.243,5.255c-.3,2.888.552,5,2.039,5.857L62.647,73.6C61.141,72.73,60.3,70.635,60.6,67.772Z" transform="translate(-34.43 -49.849)" opacity="0.3"/>
      <path id="Trazado_180707" data-name="Trazado 180707" d="M59.959,291.754V167.285h0c0-8.992,6.631-18.97,13.219-21.833,5.274-2.287,9.085,1.822,8.521,9.185-.452,5.881-4.239,12.141-8.459,13.969-3.378,1.463-5.956-1.178-5.454-5.875.428-4,2.243-5.255,2.243-5.255l1.091,1.58.062-.043c-.05.037-1.178.992-1.487,3.923-.229,2.188.347,3.452.967,3.911a1.76,1.76,0,0,0,1.81,0c3.57-1.549,6.916-7.208,7.313-12.358.26-3.4-.514-6.092-2.076-7.208a3.691,3.691,0,0,0-3.768-.062C68.251,149.7,61.9,158.795,61.9,167.285V291.754A38.746,38.746,0,0,1,42.588,325.22l-.967.552V323.54a36.7,36.7,0,0,0,18.338-31.786Z" transform="translate(68.785 -81.148)" fill="#455a64"/>
      <path id="Trazado_180708" data-name="Trazado 180708" d="M216.786,396.343,106.38,332.671V330.44l110.406,63.672Z" transform="translate(-106.38 -151.732)" fill="#263238"/>
      <path id="Trazado_180709" data-name="Trazado 180709" d="M65.344,189.014V64.545c0-8.992,6.625-18.97,13.219-21.833a5.743,5.743,0,0,1,5.255,0L194.206,106.4a5.656,5.656,0,0,0-5.249,0c-6.588,2.863-13.213,12.841-13.213,21.833h0V252.686a36.7,36.7,0,0,1-18.339,31.774L47,220.788a36.7,36.7,0,0,0,18.344-31.774Z" transform="translate(-47 -42.08)" fill="#f5f5f5"/>
      <path id="Trazado_180710" data-name="Trazado 180710" d="M54.462,42.712a5.743,5.743,0,0,1,5.255,0L170.1,106.4a5.656,5.656,0,0,0-5.249,0,19.9,19.9,0,0,0-7.437,6.284L47,49A20.107,20.107,0,0,1,54.462,42.712Z" transform="translate(-22.898 -42.08)" fill="#fafafa"/>
      <path id="Trazado_180711" data-name="Trazado 180711" d="M81.358,42.707a6.458,6.458,0,0,0-2.547.583c-6.067,2.628-12.847,12.283-12.847,21.263V189.021a37.408,37.408,0,0,1-17.743,31.762l109.185,62.953a36.174,36.174,0,0,0,17.718-31.055V128.063h0c.074-8.757,6.4-19.113,13.585-22.23a8.162,8.162,0,0,1,2.175-.62L83.509,43.277a4.245,4.245,0,0,0-2.15-.558m0-.62a4.859,4.859,0,0,1,2.479.62L194.206,106.4a4.815,4.815,0,0,0-2.479-.62,7.077,7.077,0,0,0-2.8.62c-6.588,2.863-13.213,12.841-13.213,21.833h0V252.693a36.7,36.7,0,0,1-18.339,31.774L47,220.795a36.7,36.7,0,0,0,18.344-31.774V64.552c0-8.992,6.625-18.97,13.219-21.833a7.053,7.053,0,0,1,2.8-.62Z" transform="translate(-47 -42.087)" fill="#e0e0e0"/>
      <path id="Trazado_180736" data-name="Trazado 180736" d="M91.752,213.6l91.721,52.889a.93.93,0,0,1-.465,1.735.88.88,0,0,1-.459-.124L90.828,215.206a.923.923,0,0,1-.341-1.239.936.936,0,0,1,1.264-.372Zm0,6.266,91.721,52.889a.93.93,0,0,1-.465,1.735.88.88,0,0,1-.459-.124L90.828,221.472a.93.93,0,1,1,.93-1.611Zm0-12.531,91.721,52.889a.93.93,0,0,1-.465,1.735.88.88,0,0,1-.459-.124L90.828,208.941a.923.923,0,0,1-.341-1.239.936.936,0,0,1,1.264-.372Zm91.232-8.422a.88.88,0,0,1-.459-.124L90.8,145.895a.93.93,0,1,1,.93-1.611l91.721,52.889a.93.93,0,0,1-.465,1.735ZM91.752,226.133l91.721,52.882a.93.93,0,0,1-.465,1.735.88.88,0,0,1-.459-.124L90.828,227.744a.93.93,0,1,1,.93-1.611Zm0-31.074,91.721,52.889a.93.93,0,0,1-.465,1.735.942.942,0,0,1-.459-.124L90.828,196.67a.93.93,0,1,1,.93-1.611Zm0,37.339,91.721,52.882a.93.93,0,0,1-.465,1.735.88.88,0,0,1-.459-.124L90.828,234.009a.93.93,0,1,1,.93-1.611Zm0-75.608,91.721,52.889a.93.93,0,0,1-.465,1.735.88.88,0,0,1-.459-.124L90.828,158.4a.93.93,0,1,1,.93-1.611Zm0,13.182,91.721,52.882a.93.93,0,0,1,.341,1.27.911.911,0,0,1-.806.465.88.88,0,0,1-.459-.124L90.828,171.583a.93.93,0,1,1,.93-1.611Zm0,18.8,91.721,52.889a.93.93,0,0,1-.465,1.735.886.886,0,0,1-.459-.13L90.828,190.38a.93.93,0,0,1,.93-1.611Zm0-38.244,91.721,52.889a.93.93,0,0,1-.465,1.735.88.88,0,0,1-.459-.124L90.828,152.136a.93.93,0,1,1,.93-1.611Zm0,25.713,91.721,52.882a.93.93,0,0,1,.341,1.24.911.911,0,0,1-.806.465.88.88,0,0,1-.459-.124L90.828,177.818a.93.93,0,0,1,.93-1.611Zm0,6.266,91.721,52.882a.93.93,0,0,1,.341,1.27.911.911,0,0,1-.806.465.88.88,0,0,1-.459-.124L90.828,184.114a.93.93,0,1,1,.93-1.611Z" transform="translate(-63.591 -80.896)" fill="#e0e0e0"/>
      <path id="Trazado_180737" data-name="Trazado 180737" d="M243.882,311.11a3.768,3.768,0,0,1,.923,2.367c.037.676-.087,1.351-.056,2.027a19.407,19.407,0,0,0,.459,2.479,7.09,7.09,0,0,1-1.556,5.968,21.582,21.582,0,0,1-2.014,1.741,16.724,16.724,0,0,1-2.814,2.361,6.2,6.2,0,0,1-3.44.694c-1.921-.174-3.638-1.239-5.447-1.915a19.829,19.829,0,0,1-2.336-.911,5.894,5.894,0,0,1-2.95-3.508c-.291-1.239.149-2.479.211-3.718.05-.892.155-1.791.273-2.677.235-1.772.62-3.855,2.144-4.958.558-.409,1.239-.62,1.822-1,1.382-.843,2.281-2.361,3.718-3.068a5.386,5.386,0,0,1,4.152,0c1.419.521,2.479,1.649,3.8,2.231a8.608,8.608,0,0,1,3.111,1.884Z" transform="translate(-208.173 -142.658)" fill="#ff5151"/>
      <path id="Trazado_180738" data-name="Trazado 180738" d="M244.345,317.594a8.583,8.583,0,0,1-3.285,8.354c-3.718,2.776-9.519,1.9-11.676-2.386-1.7-3.384-.31-7.945,2.3-10.5,2.027-1.983,6.526-2.429,8.9-.812A8.776,8.776,0,0,1,244.345,317.594Z" transform="translate(-209.838 -144.438)" fill="#ff5151"/>
      <path id="Trazado_180739" data-name="Trazado 180739" d="M244.573,319.919a8.583,8.583,0,0,1-5.262,7.276c-4.307,1.76-9.686-.533-10.709-5.218-.812-3.718,1.673-7.772,4.84-9.6,2.479-1.413,6.929-.725,8.819,1.425A8.769,8.769,0,0,1,244.573,319.919Z" transform="translate(-209.818 -144.582)" fill="#fff" opacity="0.1"/>
      <path id="Trazado_180740" data-name="Trazado 180740" d="M228.052,331.53c.781.3,1.624.409,2.423.676a11.082,11.082,0,0,1,2.144,1.047,7.154,7.154,0,0,0,1.679.651,5.3,5.3,0,0,0,3.9-.446c1.636-.886,2.7-2.386,4.14-3.52,1.909-1.494,3.223-3.594,2.708-6.2.062.254.118.508.161.762a7.09,7.09,0,0,1-1.556,5.968,21.581,21.581,0,0,1-2.014,1.742,16.722,16.722,0,0,1-2.814,2.361,6.2,6.2,0,0,1-3.44.694c-1.921-.174-3.638-1.239-5.447-1.915a20.962,20.962,0,0,1-2.336-.911,5.894,5.894,0,0,1-2.95-3.508,4.151,4.151,0,0,1-.087-1.171A4.91,4.91,0,0,0,228.052,331.53Z" transform="translate(-208.171 -149.184)" opacity="0.25"/>
      <path id="Trazado_180741" data-name="Trazado 180741" d="M231.716,320.487a7.288,7.288,0,0,0,.62,2.126,4.543,4.543,0,0,0,2.268,2.138,7.1,7.1,0,0,1-1.859-3.458c-.806-3.718,1.68-7.765,4.846-9.594,2.479-1.413,6.929-.725,8.819,1.432.1.118.2.236.3.366a4.915,4.915,0,0,0-1.165-1.655,5.58,5.58,0,0,0-1.041-.676,11.241,11.241,0,0,0-2.665-1.147,6.545,6.545,0,0,0-3.83.328,9.915,9.915,0,0,0-3.285,2.144,9.451,9.451,0,0,0-3.012,7.995Z" transform="translate(-213.948 -143.911)" opacity="0.1"/>
      <path id="Trazado_180742" data-name="Trazado 180742" d="M229.9,319.957c.62-.341,1.283-.719,1.921-1.085a1.723,1.723,0,0,0,.167-.13,3.715,3.715,0,0,0-.62.173,2.256,2.256,0,0,1-1.072.143,2.7,2.7,0,0,1-.421-.124v-.068a8.36,8.36,0,0,0,2.343-.725.366.366,0,0,0-.155-.031h-.843a1.729,1.729,0,0,1-1.407-.62.731.731,0,0,1-.186-.471,4.028,4.028,0,0,0,2.4.18c-.335-.105-.62-.174-.93-.291a1.475,1.475,0,0,1-.762-.514,9.3,9.3,0,0,0,2.014.3,2,2,0,0,0-.341-.143,2.479,2.479,0,0,1-1.035-.508,1.271,1.271,0,0,1-.384-1,4.178,4.178,0,0,0,1.9.731c-.285-.266-.545-.5-.793-.75a1.289,1.289,0,0,1-.415-.93,3.228,3.228,0,0,0,1.239,1.1,3.391,3.391,0,0,0-.254-.335,2.051,2.051,0,0,1-.527-1.388v-.254l.081-.124a.861.861,0,0,1,.161.18,2.677,2.677,0,0,0,1.109,1.072c.446.291.88.589,1.314.892a.514.514,0,0,1,.229.539.421.421,0,0,1-.446.353.328.328,0,0,0-.291.18,1.116,1.116,0,0,0,.291,1.413.527.527,0,0,0,.663.068,2.677,2.677,0,0,0,.973-1.32.324.324,0,0,0-.068-.161c-.18-.155-.366-.291-.545-.44a1.4,1.4,0,0,1-.143-.18c.328.043.545.353.93.335a.848.848,0,0,0-.143-.167c-.254-.155-.521-.3-.775-.465a1.481,1.481,0,0,1-.3-.322.357.357,0,0,1,.031-.149.882.882,0,0,1,.13.074,3.345,3.345,0,0,0,.322.279c.155.105.328.18.5.273a1.1,1.1,0,0,1,.105.074l.1.074v-.037c-.223-.2-.452-.4-.694-.62a.285.285,0,0,1,.428-.211c.1.037.18.112.279.155s.217.136.322.124a.649.649,0,0,1,.527.291l.576.62.093.112a.892.892,0,0,0-.583,1.078c-.223-.043-.266,0-.248.217s0,.279-.18.31c-.062,0-.118.112-.136.186s-.074.335-.105.508a.143.143,0,0,0,.037.112c.465-.18.62-.4.62-.707.434-.174.434-.174.31-.421a.917.917,0,0,0,.768-.911l.954.4a.967.967,0,0,1,.31.2c.186.2.341.421.508.62a.428.428,0,0,1,0,.552c-.254-.155-.452-.421-.812-.446a6.355,6.355,0,0,1,.62.558c.167.192.2.211.359.2,0,0,.093.05.093.068s0,.112-.056.118a.347.347,0,0,1-.211,0,.96.96,0,0,1-.229-.161l-.762-.657c0-.031-.093,0-.143-.031s0,.112.043.143c.149.155.3.3.459.446a1.333,1.333,0,0,1,.112.149h-.2c-.2-.112-.4-.242-.62-.372a.192.192,0,0,0-.273,0,2.826,2.826,0,0,0-.75,1.357.62.62,0,0,0,.118.434.93.93,0,0,0,1.376.155c.161-.143.328-.279.174-.564a.341.341,0,0,1,.1-.452.5.5,0,0,1,.62-.043,9.308,9.308,0,0,1,.8.62,4.989,4.989,0,0,0,1.618,1.041c.149.05.3.081.5.124a1.01,1.01,0,0,1-.923.39c-.421-.068-.83-.18-1.239-.273.223.161.44.341.676.483s.483.236.725.353c-.707.161-1.239-.279-1.822-.62a3.718,3.718,0,0,0,1.308,1.574,1.078,1.078,0,0,1-1.078,0,3.217,3.217,0,0,1-.88-.88c-.062-.093-.13-.18-.192-.266a7.27,7.27,0,0,0,1,1.859l-.068.056a6.355,6.355,0,0,1-.682-.62,7.028,7.028,0,0,1-.545-.787,4.159,4.159,0,0,0,.985,2.287,1.283,1.283,0,0,1-1.1-.428,3.049,3.049,0,0,1-.62-1.2c-.05-.167-.105-.335-.155-.508h-.05a11.341,11.341,0,0,0,.217,2.56c-.074-.056-.143-.081-.167-.13a1.859,1.859,0,0,1-.3-.564c-.081-.415-.105-.837-.155-1.239v-.254a1.127,1.127,0,0,0-.1.353c-.087.545-.2,1.085-.242,1.636a6.94,6.94,0,0,0,.074,1.184,1.82,1.82,0,0,0,.149.4,1.363,1.363,0,0,1-1.016-1.153,4.641,4.641,0,0,1,0-1.779l.2-1.239a.866.866,0,0,1,.037-.118h-.1a4.01,4.01,0,0,0-.713,2.479.861.861,0,0,1-.26-.706c.068-.465.149-.93.223-1.432a1.611,1.611,0,0,0-.62.93,1.946,1.946,0,0,0,.161,1.165h-.043l-.328-.316c0,.26.037.471.056.682a.186.186,0,0,0,.155.192,2.076,2.076,0,0,1,.508.26.378.378,0,0,1,0,.62c-.31-.322-.31-.322-.409-.316.143.322.254.62-.056.9a.384.384,0,0,1-.5,0,3.773,3.773,0,0,0,.211-.335v-.186a.44.44,0,0,0-.161.037c-.112.062-.2.149-.322.2a.434.434,0,0,1-.62-.4h.006a.539.539,0,0,0,.651-.415.143.143,0,0,0,0-.087.583.583,0,0,0-.8-.167.96.96,0,0,1,0-.248.452.452,0,0,1,.62-.273l.248.081c-.043-.273-.074-.514-.118-.787l-.452.248c-.062-.384.2-.719.1-1.109a6.7,6.7,0,0,0-1.035,3.911,1.705,1.705,0,0,1-.322-.3,2.33,2.33,0,0,1-.118-2.082,1.3,1.3,0,0,0-.533,1.239l-.812.043-.279-.843c.539-.081.787-.452.985-.948l-.112.068a2.727,2.727,0,0,1-1.487.62,1.054,1.054,0,0,1-.719-.273,6.1,6.1,0,0,0,3.179-2.355c-.421.05-.62.434-.992.49a2.431,2.431,0,0,1,.068-.446l-.756.062a1.86,1.86,0,0,1,.248.384.706.706,0,0,1,0,.409c-.043.105-.18.161-.279.248-.037-.056-.05-.068-.05-.081a.173.173,0,0,1,0-.056.4.4,0,0,0-.174-.459c-.316-.26-.316-.26-.514.087a.384.384,0,0,0,0,.514.18.18,0,0,1,.031.1.174.174,0,0,1-.105.043.527.527,0,0,1-.471-.539,3.1,3.1,0,0,1,.118-.409c0-.043.037-.124,0-.136a.186.186,0,0,0-.149-.037.732.732,0,0,0-.192.149c-.05.056-.081.124-.13.192a.514.514,0,0,1-.161-.514c.155-.347.483-.291.843-.3a1.164,1.164,0,0,0-.229-.217.85.85,0,0,0-.26-.037c.1-.3.3-.4.552-.248a3.1,3.1,0,0,1,.4.359c.043.043.081.112.124.118a1.376,1.376,0,0,0,.719-.143c-.136-.087-.242-.155-.341-.229v-.043a2,2,0,0,0,1.078-.236,2.07,2.07,0,0,0,.576-.948,1.858,1.858,0,0,0-.459.273,2.442,2.442,0,0,1-.992.508.378.378,0,0,1-.446-.118A3.718,3.718,0,0,0,233,319.244a1.619,1.619,0,0,0-.347.161c-.545.322-1.078.682-1.655.961a2.25,2.25,0,0,1-1.7.124.62.62,0,0,1-.446-.533,1.4,1.4,0,0,0,1.047,0Z" transform="translate(-208.175 -145.134)" fill="#ff5151" opacity="0.4"/>
      <path id="Trazado_180743" data-name="Trazado 180743" d="M229.9,319.957c.62-.341,1.283-.719,1.921-1.085a1.723,1.723,0,0,0,.167-.13,3.715,3.715,0,0,0-.62.173,2.256,2.256,0,0,1-1.072.143,2.7,2.7,0,0,1-.421-.124v-.068a8.36,8.36,0,0,0,2.343-.725.366.366,0,0,0-.155-.031h-.843a1.729,1.729,0,0,1-1.407-.62.731.731,0,0,1-.186-.471,4.028,4.028,0,0,0,2.4.18c-.335-.105-.62-.174-.93-.291a1.475,1.475,0,0,1-.762-.514,9.3,9.3,0,0,0,2.014.3,2,2,0,0,0-.341-.143,2.479,2.479,0,0,1-1.035-.508,1.271,1.271,0,0,1-.384-1,4.178,4.178,0,0,0,1.9.731c-.285-.266-.545-.5-.793-.75a1.289,1.289,0,0,1-.415-.93,3.228,3.228,0,0,0,1.239,1.1,3.391,3.391,0,0,0-.254-.335,2.051,2.051,0,0,1-.527-1.388v-.254l.081-.124a.861.861,0,0,1,.161.18,2.677,2.677,0,0,0,1.109,1.072c.446.291.88.589,1.314.892a.514.514,0,0,1,.229.539.421.421,0,0,1-.446.353.328.328,0,0,0-.291.18,1.116,1.116,0,0,0,.291,1.413.527.527,0,0,0,.663.068,2.677,2.677,0,0,0,.973-1.32.324.324,0,0,0-.068-.161c-.18-.155-.366-.291-.545-.44a1.4,1.4,0,0,1-.143-.18c.328.043.545.353.93.335a.848.848,0,0,0-.143-.167c-.254-.155-.521-.3-.775-.465a1.481,1.481,0,0,1-.3-.322.357.357,0,0,1,.031-.149.882.882,0,0,1,.13.074,3.345,3.345,0,0,0,.322.279c.155.105.328.18.5.273a1.1,1.1,0,0,1,.105.074l.1.074v-.037c-.223-.2-.452-.4-.694-.62a.285.285,0,0,1,.428-.211c.1.037.18.112.279.155s.217.136.322.124a.649.649,0,0,1,.527.291l.576.62.093.112a.892.892,0,0,0-.583,1.078c-.223-.043-.266,0-.248.217s0,.279-.18.31c-.062,0-.118.112-.136.186s-.074.335-.105.508a.143.143,0,0,0,.037.112c.465-.18.62-.4.62-.707.434-.174.434-.174.31-.421a.917.917,0,0,0,.768-.911l.954.4a.967.967,0,0,1,.31.2c.186.2.341.421.508.62a.428.428,0,0,1,0,.552c-.254-.155-.452-.421-.812-.446a6.355,6.355,0,0,1,.62.558c.167.192.2.211.359.2,0,0,.093.05.093.068s0,.112-.056.118a.347.347,0,0,1-.211,0,.96.96,0,0,1-.229-.161l-.762-.657c0-.031-.093,0-.143-.031s0,.112.043.143c.149.155.3.3.459.446a1.333,1.333,0,0,1,.112.149h-.2c-.2-.112-.4-.242-.62-.372a.192.192,0,0,0-.273,0,2.826,2.826,0,0,0-.75,1.357.62.62,0,0,0,.118.434.93.93,0,0,0,1.376.155c.161-.143.328-.279.174-.564a.341.341,0,0,1,.1-.452.5.5,0,0,1,.62-.043,9.308,9.308,0,0,1,.8.62,4.989,4.989,0,0,0,1.618,1.041c.149.05.3.081.5.124a1.01,1.01,0,0,1-.923.39c-.421-.068-.83-.18-1.239-.273.223.161.44.341.676.483s.483.236.725.353c-.707.161-1.239-.279-1.822-.62a3.718,3.718,0,0,0,1.308,1.574,1.078,1.078,0,0,1-1.078,0,3.217,3.217,0,0,1-.88-.88c-.062-.093-.13-.18-.192-.266a7.27,7.27,0,0,0,1,1.859l-.068.056a6.355,6.355,0,0,1-.682-.62,7.028,7.028,0,0,1-.545-.787,4.159,4.159,0,0,0,.985,2.287,1.283,1.283,0,0,1-1.1-.428,3.049,3.049,0,0,1-.62-1.2c-.05-.167-.105-.335-.155-.508h-.05a11.341,11.341,0,0,0,.217,2.56c-.074-.056-.143-.081-.167-.13a1.859,1.859,0,0,1-.3-.564c-.081-.415-.105-.837-.155-1.239v-.254a1.127,1.127,0,0,0-.1.353c-.087.545-.2,1.085-.242,1.636a6.94,6.94,0,0,0,.074,1.184,1.82,1.82,0,0,0,.149.4,1.363,1.363,0,0,1-1.016-1.153,4.641,4.641,0,0,1,0-1.779l.2-1.239a.866.866,0,0,1,.037-.118h-.1a4.01,4.01,0,0,0-.713,2.479.861.861,0,0,1-.26-.706c.068-.465.149-.93.223-1.432a1.611,1.611,0,0,0-.62.93,1.946,1.946,0,0,0,.161,1.165h-.043l-.328-.316c0,.26.037.471.056.682a.186.186,0,0,0,.155.192,2.076,2.076,0,0,1,.508.26.378.378,0,0,1,0,.62c-.31-.322-.31-.322-.409-.316.143.322.254.62-.056.9a.384.384,0,0,1-.5,0,3.773,3.773,0,0,0,.211-.335v-.186a.44.44,0,0,0-.161.037c-.112.062-.2.149-.322.2a.434.434,0,0,1-.62-.4h.006a.539.539,0,0,0,.651-.415.143.143,0,0,0,0-.087.583.583,0,0,0-.8-.167.96.96,0,0,1,0-.248.452.452,0,0,1,.62-.273l.248.081c-.043-.273-.074-.514-.118-.787l-.452.248c-.062-.384.2-.719.1-1.109a6.7,6.7,0,0,0-1.035,3.911,1.705,1.705,0,0,1-.322-.3,2.33,2.33,0,0,1-.118-2.082,1.3,1.3,0,0,0-.533,1.239l-.812.043-.279-.843c.539-.081.787-.452.985-.948l-.112.068a2.727,2.727,0,0,1-1.487.62,1.054,1.054,0,0,1-.719-.273,6.1,6.1,0,0,0,3.179-2.355c-.421.05-.62.434-.992.49a2.431,2.431,0,0,1,.068-.446l-.756.062a1.86,1.86,0,0,1,.248.384.706.706,0,0,1,0,.409c-.043.105-.18.161-.279.248-.037-.056-.05-.068-.05-.081a.173.173,0,0,1,0-.056.4.4,0,0,0-.174-.459c-.316-.26-.316-.26-.514.087a.384.384,0,0,0,0,.514.18.18,0,0,1,.031.1.174.174,0,0,1-.105.043.527.527,0,0,1-.471-.539,3.1,3.1,0,0,1,.118-.409c0-.043.037-.124,0-.136a.186.186,0,0,0-.149-.037.732.732,0,0,0-.192.149c-.05.056-.081.124-.13.192a.514.514,0,0,1-.161-.514c.155-.347.483-.291.843-.3a1.164,1.164,0,0,0-.229-.217.85.85,0,0,0-.26-.037c.1-.3.3-.4.552-.248a3.1,3.1,0,0,1,.4.359c.043.043.081.112.124.118a1.376,1.376,0,0,0,.719-.143c-.136-.087-.242-.155-.341-.229v-.043a2,2,0,0,0,1.078-.236,2.07,2.07,0,0,0,.576-.948,1.858,1.858,0,0,0-.459.273,2.442,2.442,0,0,1-.992.508.378.378,0,0,1-.446-.118A3.718,3.718,0,0,0,233,319.244a1.619,1.619,0,0,0-.347.161c-.545.322-1.078.682-1.655.961a2.25,2.25,0,0,1-1.7.124.62.62,0,0,1-.446-.533,1.4,1.4,0,0,0,1.047,0Z" transform="translate(-208.175 -145.134)" opacity="0.2"/>
      <path id="Trazado_180744" data-name="Trazado 180744" d="M229.922,319.287c.651-.341,1.283-.719,1.921-1.085a1.806,1.806,0,0,0,.174-.13,3.644,3.644,0,0,0-.657.174,2.256,2.256,0,0,1-1.072.143,2.707,2.707,0,0,1-.421-.124V318.2a8.385,8.385,0,0,0,2.336-.725.366.366,0,0,0-.155-.031h-.837a1.741,1.741,0,0,1-1.413-.62.731.731,0,0,1-.186-.471,4.028,4.028,0,0,0,2.4.18c-.328-.105-.62-.174-.923-.291a1.494,1.494,0,0,1-.768-.514,9.709,9.709,0,0,0,2.014.3,1.8,1.8,0,0,0-.341-.143,2.4,2.4,0,0,1-1.029-.508,1.277,1.277,0,0,1-.39-1,4.208,4.208,0,0,0,1.9.731c-.285-.266-.545-.5-.793-.75a1.314,1.314,0,0,1-.415-.93,3.229,3.229,0,0,0,1.239,1.1c-.074-.124-.167-.223-.248-.335a2.02,2.02,0,0,1-.527-1.388c0-.087,0-.167,0-.254l.081-.124a.862.862,0,0,1,.161.18,2.659,2.659,0,0,0,1.116,1.072c.44.291.88.589,1.314.892a.52.52,0,0,1,.223.539.421.421,0,0,1-.44.353.322.322,0,0,0-.291.18,1.109,1.109,0,0,0,.285,1.413.527.527,0,0,0,.663.068,2.727,2.727,0,0,0,.979-1.32.34.34,0,0,0-.074-.161c-.18-.155-.366-.291-.545-.44a.978.978,0,0,1-.136-.18c.322.043.539.353.923.335a.849.849,0,0,0-.143-.167c-.254-.161-.521-.3-.768-.465a1.505,1.505,0,0,1-.3-.322.306.306,0,0,1,.037-.149l.13.074a2.679,2.679,0,0,0,.316.279c.161.105.328.18.5.273a1.09,1.09,0,0,1,.105.074l.1.074v-.037l-.694-.62a.279.279,0,0,1,.421-.211c.1.037.186.112.279.155s.223.136.322.124a.649.649,0,0,1,.527.291c.143.167.39.409.583.62a.876.876,0,0,1,.087.112.88.88,0,0,0-.576,1.078c-.229-.043-.273,0-.254.217s0,.273-.18.31c-.056,0-.112.112-.136.186s-.074.335-.105.508a.472.472,0,0,0,.037.112c.465-.18.62-.4.62-.707.434-.174.434-.174.31-.421a.911.911,0,0,0,.768-.911l.954.4a1.066,1.066,0,0,1,.316.2c.18.2.335.421.508.62a.44.44,0,0,1,0,.552c-.254-.155-.452-.428-.812-.446.242.2.452.366.651.558.105.105.192.211.353.2.031,0,.093.05.093.068s0,.112-.056.118a.31.31,0,0,1-.211,0,.879.879,0,0,1-.229-.155c-.254-.217-.5-.44-.762-.657-.031-.031-.093,0-.143-.031s0,.112.043.143c.149.155.31.3.459.446a1.33,1.33,0,0,1,.112.149h-.2c-.2-.112-.4-.242-.589-.372a.192.192,0,0,0-.273,0,2.77,2.77,0,0,0-.744,1.357.62.62,0,0,0,.118.434.923.923,0,0,0,1.425.174c.161-.143.328-.279.18-.564a.335.335,0,0,1,.1-.452.483.483,0,0,1,.62-.043,9.3,9.3,0,0,1,.8.62A4.989,4.989,0,0,0,242.3,320.2c.149.05.3.081.5.124a1.01,1.01,0,0,1-.923.39c-.415-.068-.83-.18-1.239-.273.229.161.446.341.682.483a7.826,7.826,0,0,0,.725.353c-.713.161-1.239-.279-1.828-.62a3.719,3.719,0,0,0,1.308,1.574,1.066,1.066,0,0,1-1.072,0,3.154,3.154,0,0,1-.886-.88c-.062-.093-.124-.18-.192-.266a7.436,7.436,0,0,0,1,1.89l-.068.056a6.358,6.358,0,0,1-.682-.62,7.652,7.652,0,0,1-.545-.787,3.989,3.989,0,0,0,.985,2.287,1.289,1.289,0,0,1-1.1-.428,3.037,3.037,0,0,1-.62-1.2c-.056-.167-.105-.335-.161-.508h-.05a11.342,11.342,0,0,0,.217,2.56c-.074-.056-.136-.081-.167-.13a2.143,2.143,0,0,1-.3-.564c-.081-.415-.105-.837-.149-1.24l-.037-.254a1.239,1.239,0,0,0-.1.353c-.081.545-.2,1.085-.242,1.636a6.371,6.371,0,0,0,.081,1.184,1.766,1.766,0,0,0,.143.4,1.739,1.739,0,0,1-.242-.087,1.5,1.5,0,0,1-.83-1.078,4.524,4.524,0,0,1,0-1.779c.068-.415.13-.83.2-1.239l.037-.118h-.1a4.01,4.01,0,0,0-.713,2.479.861.861,0,0,1-.26-.707c.068-.465.149-.93.229-1.432a1.624,1.624,0,0,0-.632.936,2,2,0,0,0,.161,1.165h-.043l-.328-.316c0,.26.037.471.056.682a.186.186,0,0,0,.155.192,1.971,1.971,0,0,1,.508.26.378.378,0,0,1,0,.62c-.316-.322-.316-.322-.415-.316.143.322.254.62-.056.9a.384.384,0,0,1-.5,0,2.741,2.741,0,0,0,.211-.335v-.186a.471.471,0,0,0-.161.037c-.105.062-.2.143-.316.2a.428.428,0,0,1-.62-.4h.05a.539.539,0,0,0,.62-.415.143.143,0,0,0,0-.087.583.583,0,0,0-.8-.167,1.345,1.345,0,0,1,0-.248.459.459,0,0,1,.62-.273l.242.081c-.043-.273-.074-.514-.112-.787l-.452.248c-.068-.384.2-.719.093-1.109a6.656,6.656,0,0,0-1.029,3.911,1.585,1.585,0,0,1-.328-.3,2.33,2.33,0,0,1-.118-2.082,1.283,1.283,0,0,0-.527,1.239l-.818.043c-.1-.3-.186-.564-.273-.843.533-.081.781-.452.979-.954l-.112.074a2.727,2.727,0,0,1-1.487.62,1.054,1.054,0,0,1-.719-.273,6.1,6.1,0,0,0,3.179-2.355c-.421.05-.62.434-.992.49a2.43,2.43,0,0,1,.068-.446l-.75.062a2.089,2.089,0,0,1,.242.384.663.663,0,0,1,0,.409c-.043.105-.18.161-.279.248-.037-.062-.05-.068-.05-.081a.087.087,0,0,1,0-.056.4.4,0,0,0-.174-.459c-.322-.26-.316-.26-.521.087a.39.39,0,0,0,0,.514s.043.087.031.1a.161.161,0,0,1-.105.043.527.527,0,0,1-.471-.539,3.1,3.1,0,0,1,.118-.409c0-.043.037-.124,0-.136s-.112-.056-.149-.037a.62.62,0,0,0-.192.149,1.048,1.048,0,0,0-.13.192.521.521,0,0,1-.167-.514c.155-.347.49-.291.843-.3-.1-.1-.149-.18-.223-.217a.923.923,0,0,0-.266-.037c.105-.3.3-.4.552-.248a3.1,3.1,0,0,1,.4.359c.043.043.081.112.124.118a1.363,1.363,0,0,0,.719-.143l-.341-.229v.006a1.989,1.989,0,0,0,1.078-.236,2.07,2.07,0,0,0,.576-.948,1.859,1.859,0,0,0-.459.273,2.4,2.4,0,0,1-.992.508.372.372,0,0,1-.44-.118A3.718,3.718,0,0,0,233,318.673a1.443,1.443,0,0,0-.341.161c-.552.322-1.085.682-1.655.961a2.262,2.262,0,0,1-1.71.124.62.62,0,0,1-.446-.533A1.4,1.4,0,0,0,229.922,319.287Z" transform="translate(-208.287 -144.879)" fill="#ff5151"/>
      <path id="Trazado_180745" data-name="Trazado 180745" d="M229.922,319.287c.651-.341,1.283-.719,1.921-1.085a1.806,1.806,0,0,0,.174-.13,3.644,3.644,0,0,0-.657.174,2.256,2.256,0,0,1-1.072.143,2.707,2.707,0,0,1-.421-.124V318.2a8.385,8.385,0,0,0,2.336-.725.366.366,0,0,0-.155-.031h-.837a1.741,1.741,0,0,1-1.413-.62.731.731,0,0,1-.186-.471,4.028,4.028,0,0,0,2.4.18c-.328-.105-.62-.174-.923-.291a1.494,1.494,0,0,1-.768-.514,9.709,9.709,0,0,0,2.014.3,1.8,1.8,0,0,0-.341-.143,2.4,2.4,0,0,1-1.029-.508,1.277,1.277,0,0,1-.39-1,4.208,4.208,0,0,0,1.9.731c-.285-.266-.545-.5-.793-.75a1.314,1.314,0,0,1-.415-.93,3.229,3.229,0,0,0,1.239,1.1c-.074-.124-.167-.223-.248-.335a2.02,2.02,0,0,1-.527-1.388c0-.087,0-.167,0-.254l.081-.124a.862.862,0,0,1,.161.18,2.659,2.659,0,0,0,1.116,1.072c.44.291.88.589,1.314.892a.52.52,0,0,1,.223.539.421.421,0,0,1-.44.353.322.322,0,0,0-.291.18,1.109,1.109,0,0,0,.285,1.413.527.527,0,0,0,.663.068,2.727,2.727,0,0,0,.979-1.32.34.34,0,0,0-.074-.161c-.18-.155-.366-.291-.545-.44a.978.978,0,0,1-.136-.18c.322.043.539.353.923.335a.849.849,0,0,0-.143-.167c-.254-.161-.521-.3-.768-.465a1.505,1.505,0,0,1-.3-.322.306.306,0,0,1,.037-.149l.13.074a2.679,2.679,0,0,0,.316.279c.161.105.328.18.5.273a1.09,1.09,0,0,1,.105.074l.1.074v-.037l-.694-.62a.279.279,0,0,1,.421-.211c.1.037.186.112.279.155s.223.136.322.124a.649.649,0,0,1,.527.291c.143.167.39.409.583.62a.876.876,0,0,1,.087.112.88.88,0,0,0-.576,1.078c-.229-.043-.273,0-.254.217s0,.273-.18.31c-.056,0-.112.112-.136.186s-.074.335-.105.508a.472.472,0,0,0,.037.112c.465-.18.62-.4.62-.707.434-.174.434-.174.31-.421a.911.911,0,0,0,.768-.911l.954.4a1.066,1.066,0,0,1,.316.2c.18.2.335.421.508.62a.44.44,0,0,1,0,.552c-.254-.155-.452-.428-.812-.446.242.2.452.366.651.558.105.105.192.211.353.2.031,0,.093.05.093.068s0,.112-.056.118a.31.31,0,0,1-.211,0,.879.879,0,0,1-.229-.155c-.254-.217-.5-.44-.762-.657-.031-.031-.093,0-.143-.031s0,.112.043.143c.149.155.31.3.459.446a1.33,1.33,0,0,1,.112.149h-.2c-.2-.112-.4-.242-.589-.372a.192.192,0,0,0-.273,0,2.77,2.77,0,0,0-.744,1.357.62.62,0,0,0,.118.434.923.923,0,0,0,1.425.174c.161-.143.328-.279.18-.564a.335.335,0,0,1,.1-.452.483.483,0,0,1,.62-.043,9.3,9.3,0,0,1,.8.62A4.989,4.989,0,0,0,242.3,320.2c.149.05.3.081.5.124a1.01,1.01,0,0,1-.923.39c-.415-.068-.83-.18-1.239-.273.229.161.446.341.682.483a7.826,7.826,0,0,0,.725.353c-.713.161-1.239-.279-1.828-.62a3.719,3.719,0,0,0,1.308,1.574,1.066,1.066,0,0,1-1.072,0,3.154,3.154,0,0,1-.886-.88c-.062-.093-.124-.18-.192-.266a7.436,7.436,0,0,0,1,1.89l-.068.056a6.358,6.358,0,0,1-.682-.62,7.652,7.652,0,0,1-.545-.787,3.989,3.989,0,0,0,.985,2.287,1.289,1.289,0,0,1-1.1-.428,3.037,3.037,0,0,1-.62-1.2c-.056-.167-.105-.335-.161-.508h-.05a11.342,11.342,0,0,0,.217,2.56c-.074-.056-.136-.081-.167-.13a2.143,2.143,0,0,1-.3-.564c-.081-.415-.105-.837-.149-1.24l-.037-.254a1.239,1.239,0,0,0-.1.353c-.081.545-.2,1.085-.242,1.636a6.371,6.371,0,0,0,.081,1.184,1.766,1.766,0,0,0,.143.4,1.739,1.739,0,0,1-.242-.087,1.5,1.5,0,0,1-.83-1.078,4.524,4.524,0,0,1,0-1.779c.068-.415.13-.83.2-1.239l.037-.118h-.1a4.01,4.01,0,0,0-.713,2.479.861.861,0,0,1-.26-.707c.068-.465.149-.93.229-1.432a1.624,1.624,0,0,0-.632.936,2,2,0,0,0,.161,1.165h-.043l-.328-.316c0,.26.037.471.056.682a.186.186,0,0,0,.155.192,1.971,1.971,0,0,1,.508.26.378.378,0,0,1,0,.62c-.316-.322-.316-.322-.415-.316.143.322.254.62-.056.9a.384.384,0,0,1-.5,0,2.741,2.741,0,0,0,.211-.335v-.186a.471.471,0,0,0-.161.037c-.105.062-.2.143-.316.2a.428.428,0,0,1-.62-.4h.05a.539.539,0,0,0,.62-.415.143.143,0,0,0,0-.087.583.583,0,0,0-.8-.167,1.345,1.345,0,0,1,0-.248.459.459,0,0,1,.62-.273l.242.081c-.043-.273-.074-.514-.112-.787l-.452.248c-.068-.384.2-.719.093-1.109a6.656,6.656,0,0,0-1.029,3.911,1.585,1.585,0,0,1-.328-.3,2.33,2.33,0,0,1-.118-2.082,1.283,1.283,0,0,0-.527,1.239l-.818.043c-.1-.3-.186-.564-.273-.843.533-.081.781-.452.979-.954l-.112.074a2.727,2.727,0,0,1-1.487.62,1.054,1.054,0,0,1-.719-.273,6.1,6.1,0,0,0,3.179-2.355c-.421.05-.62.434-.992.49a2.43,2.43,0,0,1,.068-.446l-.75.062a2.089,2.089,0,0,1,.242.384.663.663,0,0,1,0,.409c-.043.105-.18.161-.279.248-.037-.062-.05-.068-.05-.081a.087.087,0,0,1,0-.056.4.4,0,0,0-.174-.459c-.322-.26-.316-.26-.521.087a.39.39,0,0,0,0,.514s.043.087.031.1a.161.161,0,0,1-.105.043.527.527,0,0,1-.471-.539,3.1,3.1,0,0,1,.118-.409c0-.043.037-.124,0-.136s-.112-.056-.149-.037a.62.62,0,0,0-.192.149,1.048,1.048,0,0,0-.13.192.521.521,0,0,1-.167-.514c.155-.347.49-.291.843-.3-.1-.1-.149-.18-.223-.217a.923.923,0,0,0-.266-.037c.105-.3.3-.4.552-.248a3.1,3.1,0,0,1,.4.359c.043.043.081.112.124.118a1.363,1.363,0,0,0,.719-.143l-.341-.229v.006a1.989,1.989,0,0,0,1.078-.236,2.07,2.07,0,0,0,.576-.948,1.859,1.859,0,0,0-.459.273,2.4,2.4,0,0,1-.992.508.372.372,0,0,1-.44-.118A3.718,3.718,0,0,0,233,318.673a1.443,1.443,0,0,0-.341.161c-.552.322-1.085.682-1.655.961a2.262,2.262,0,0,1-1.71.124.62.62,0,0,1-.446-.533A1.4,1.4,0,0,0,229.922,319.287Z" transform="translate(-208.287 -144.879)" fill="#fff" opacity="0.4"/>
      <path id="Trazado_180746" data-name="Trazado 180746" d="M174.025,338.886a10.58,10.58,0,0,1,3.1,2.064.415.415,0,0,0,.1-.328c0-.347.62-.452.62-.087a5.728,5.728,0,0,0,.62,1.958,4.171,4.171,0,0,0,1.277,1.543,1.178,1.178,0,0,0,.824.242.44.44,0,0,0,.273-.26c-1.109-1.332-2.287-3-2.132-4.784.062-.62.378-1.859,1.239-1.729.372.062.539.39.682.7a10.326,10.326,0,0,1,.576,1.587,10.9,10.9,0,0,1,.39,3.13,4.227,4.227,0,0,1-.105.961,4.8,4.8,0,0,0,.787.762,1.084,1.084,0,0,0,1.016.242.694.694,0,0,0,.428-.5,2.821,2.821,0,0,0-.062-.378c0-.3.5-.44.62-.167a.874.874,0,0,1,.081.459,3.1,3.1,0,0,0,.174.576,4.487,4.487,0,0,0,.273-1.791c0-.341.62-.452.62-.081a12.079,12.079,0,0,0,1.549,4.636,2.634,2.634,0,0,0,.266.415c.161.18.242.143.341-.05a2.479,2.479,0,0,0,.167-1.06,11.109,11.109,0,0,0-.031-1.506c-.068-.409-.13-.824-.167-1.239h0v-.081c-.031-.316.62-.44.676-.105s.13.849.174,1.289a18.246,18.246,0,0,0,1.989,5.745,2.863,2.863,0,0,0,.347-1.24,10.925,10.925,0,0,1-.62-3.1h0a.383.383,0,0,1,0-.081c0-.353.583-.4.688-.093a9.005,9.005,0,0,1,.62,3.1,10.567,10.567,0,0,0,4.084,5.193,5.4,5.4,0,0,0,2.541,1.023,1.909,1.909,0,0,0,1.989-1.134,4.047,4.047,0,0,0,.118-1.419c0-.545-.043-1.091-.093-1.63v-.2a19.466,19.466,0,0,1-7.022-4.958c-1.27-1.413-2.758-3.223-2.857-5.206a2.822,2.822,0,0,1,3.1-3.1,5.646,5.646,0,0,1,2.578,1.456,10.722,10.722,0,0,1,1.785,2.1,20.255,20.255,0,0,1,2.479,5.813,23.755,23.755,0,0,1,.62,3.216l.037.31a21.112,21.112,0,0,0,2.095.756c.279.087,0,.483-.2.428a17.117,17.117,0,0,1-1.822-.552,13.388,13.388,0,0,1,.068,2.386,2.367,2.367,0,0,1-1.45,2.07,3.582,3.582,0,0,1-2.659,0,10.164,10.164,0,0,1-4.7-3.83,11.71,11.71,0,0,1-.868-1.506,2.919,2.919,0,0,1-.57.886.393.393,0,0,1-.62,0,18.848,18.848,0,0,1-1.717-3.923c-.186.558-.651,1.122-1.289.8a2.379,2.379,0,0,1-.787-1.047,11.9,11.9,0,0,1-.663-1.425,10.76,10.76,0,0,1-.415-1.289,5.3,5.3,0,0,1-.359.793c-.087.155-.434.279-.552.081a5.428,5.428,0,0,1-.328-.694,1.6,1.6,0,0,1-.7.353,2.227,2.227,0,0,1-2.008-.973,1.029,1.029,0,0,1-.663.359,2.575,2.575,0,0,1-2.225-1.308,6.2,6.2,0,0,1-.992-2.089,1.327,1.327,0,0,1-.248.124.341.341,0,0,1-.366-.074,10.9,10.9,0,0,0-3.1-2.144C173.312,339.184,173.746,338.762,174.025,338.886Zm25.639,9.866a21.691,21.691,0,0,0-1.958-5.46,9.915,9.915,0,0,0-3.359-3.9,2.183,2.183,0,0,0-2.516-.26,2.56,2.56,0,0,0-.917,2.058,5.336,5.336,0,0,0,.992,2.69,17.872,17.872,0,0,0,1.543,2.064,19.4,19.4,0,0,0,6.569,4.884C199.924,350.128,199.818,349.434,199.664,348.752Zm-18.79-7.573a10.183,10.183,0,0,0-.62-2.225c-.074-.2-.248-.843-.477-.837s-.4.737-.428.967a5.774,5.774,0,0,0,1.5,3.929l.1.124A10.888,10.888,0,0,0,180.873,341.179Z" transform="translate(-134.194 -154.414)" fill="#455a64"/>
      <path id="Trazado_180747" data-name="Trazado 180747" d="M104.914,364.3c1.2,1.785,3.229,2.727,5.076,3.687l3.39,1.748.9.465c.236.124.415.174.521.421.229.5.434,1.01.651,1.525a5.869,5.869,0,0,0,1.345-1.394c.112-.161.49-.174.5.068.043.589.539,4.815,1.679,4.1a2.269,2.269,0,0,0,.62-.874,7.505,7.505,0,0,0,.49-1.146,7.027,7.027,0,0,0,.328-1.785v-.682c0-.229.558-.446.57-.112s0,.514,0,.775a36.112,36.112,0,0,0,.341,5.664c.149,1.041.347,2.082.583,3.1a17.074,17.074,0,0,0,.849,2.931c.149.335.378.737.775.812s.83-.366,1.054-.706a13.174,13.174,0,0,0,1.159-2.51,25.5,25.5,0,0,0,1.06-3.514,2.64,2.64,0,0,1-2.77-.1,4.505,4.505,0,0,1-1.45-2.256,18.428,18.428,0,0,1-.731-3.266,22.342,22.342,0,0,1,.118-7.1,4.958,4.958,0,0,1,1.1-2.634,2.429,2.429,0,0,1,2.268-.713c1,.248,1.239,1.289,1.543,2.157a25.8,25.8,0,0,1,.762,3.142A26.445,26.445,0,0,1,128,372.67a27.081,27.081,0,0,1-.477,3.526,2.832,2.832,0,0,0,.074,1.072.979.979,0,0,0,1.239.713,1.425,1.425,0,0,0,.9-.818,16.169,16.169,0,0,1,0-2.684c0-.254.533-.459.62-.143a5.163,5.163,0,0,1,.068,2.727.377.377,0,0,0,0,.074,15.573,15.573,0,0,0,1.19,4.679,3.545,3.545,0,0,0,.868,1.351c.4.359.973.589,1.239-.05a6.817,6.817,0,0,0,.31-1.859c.031-.316.043-.62.056-.954s0-.787,0-1.177.62-.421.62-.062v1.178a16.894,16.894,0,0,0,3.5,9.755,28.025,28.025,0,0,0,1.239-5.082,18.667,18.667,0,0,1-2.894-8.676,16.684,16.684,0,0,1,.372-4.927.341.341,0,0,1,.3-.223c1.122-.068,1.754.954,2.07,1.9a21.889,21.889,0,0,1,.849,4.127,28.47,28.47,0,0,1-.056,7.648,17.483,17.483,0,0,0,5.689,5.46c.217.136-.081.471-.279.366a16.176,16.176,0,0,1-5.578-4.958l-.037.217a27.887,27.887,0,0,1-1.308,4.784.347.347,0,0,1-.57.118,17.316,17.316,0,0,1-3.706-7.778,1.271,1.271,0,0,1-1.723.992,3.58,3.58,0,0,1-1.723-2.175,15.657,15.657,0,0,1-.942-3.3c-.031-.186-.056-.366-.081-.552a2.163,2.163,0,0,1-.992.558,1.469,1.469,0,0,1-1.686-.707h0c-.118.428-.235.861-.372,1.289a27.318,27.318,0,0,1-1.178,3.012c-.359.768-.812,1.754-1.717,1.989s-1.5-.514-1.772-1.283a26.737,26.737,0,0,1-.9-3.353,35.76,35.76,0,0,1-.768-5.962c-.285.737-.731,1.711-1.5,1.965s-1.351-.545-1.587-1.24a12.394,12.394,0,0,1-.589-2.64,5.931,5.931,0,0,1-1.332,1.153c-.124.081-.359.124-.434-.056l-.378-.9a4.34,4.34,0,0,0-.384-.9,2.293,2.293,0,0,0-.8-.471l-.824-.428-3.446-1.785a12.012,12.012,0,0,1-4.791-3.626C104.244,364.316,104.746,364.056,104.914,364.3ZM139,374.486a8.979,8.979,0,0,0-.564-1.859,1.7,1.7,0,0,0-1-1.01,17.539,17.539,0,0,0,2.1,12.289,28.148,28.148,0,0,0-.545-9.42Zm-12.605-11.223c-.248-.793-.477-1.921-1.481-2.008a2,2,0,0,0-1.9,1.351,9.538,9.538,0,0,0-.62,2.783,21.971,21.971,0,0,0-.143,3.192,22.231,22.231,0,0,0,.372,3.508,11.732,11.732,0,0,0,.886,3.049,2.522,2.522,0,0,0,1.971,1.605,1.394,1.394,0,0,0,1.58-1.128.217.217,0,0,1,.062-.124c.043-.223.087-.446.118-.669a26.234,26.234,0,0,0-.855-11.558Z" transform="translate(-34.196 -163.26)" fill="#455a64"/>
    </g>
  </g>
  <g id="freepik--Pen--inject-25" transform="translate(63.446 179.022)">
    <g id="freepik--pen--inject-25-2" data-name="freepik--pen--inject-25">
      <path id="Trazado_180766" data-name="Trazado 180766" d="M291.278,371.763c-4.853-2.479-6.873-3.551-8.057-4.71a6.429,6.429,0,0,0-4.14-2.175c-2.355-.465-6.706-1.078-7.164-1.432.074-.254-.384-.359-.669.093s0,.8.279.62c0,0,.508,0,1.977,2.318a17.645,17.645,0,0,1,2.039,4.3c.576,1.37,1.19,1.5,2.646,2.076a32.414,32.414,0,0,1,5.392,2.789c2.652,1.574,3.892,2.367,3.892,2.367Z" transform="translate(-271.13 -363.227)" fill="#e0e0e0"/>
      <path id="Trazado_180767" data-name="Trazado 180767" d="M290.907,364.958l-.973-.434c-.7-.31-1.394-.62-2.064-.992a.57.57,0,0,1,.44-.273,1.3,1.3,0,0,0,.2.161.174.174,0,0,1,0,.056,1.58,1.58,0,0,0,.465.18l.2.074c2.095.8,4.2,1.6,6.2,2.572a2.716,2.716,0,0,0,.719.267c.266.05.545,0,.812.056a.663.663,0,0,1,.576.5c.118.973-1.593.056-1.859-.056-1.072-.465-2.12-.979-3.192-1.456A13.837,13.837,0,0,0,290.907,364.958Z" transform="translate(-287.721 -363.24)" opacity="0.15"/>
      <path id="Trazado_180768" data-name="Trazado 180768" d="M299.39,364.34Z" transform="translate(-296.756 -363.651)" fill="#fafafa"/>
      <path id="Trazado_180769" data-name="Trazado 180769" d="M276.255,365.311a6.473,6.473,0,0,1,4.14,2.175c1.19,1.153,3.2,2.256,8.057,4.71l-.254.409s-4.958-2.615-5.627-2.987a10.587,10.587,0,0,1-2.969-2.157,4.958,4.958,0,0,0-2.4-1.7c-1.016-.4-5.138-1.184-6.067-1.357C272.71,364.7,274.842,365.026,276.255,365.311Z" transform="translate(-268.304 -363.673)" fill="#ebebeb"/>
      <path id="Trazado_180770" data-name="Trazado 180770" d="M283.316,376.375l-6.606-3.805,4.208,3.3Z" transform="translate(-266.626 -366.78)" opacity="0.15"/>
      <path id="Trazado_180771" data-name="Trazado 180771" d="M280.77,366.1a33.881,33.881,0,0,0,2.764,2.857,5.581,5.581,0,0,0,3.718,1.116c1.208.037,3.2,1.6,6.321,3.291l-.483,4.078-1.239-.744a32.408,32.408,0,0,0-5.392-2.789c-1.456-.576-2.07-.707-2.646-2.076a17.432,17.432,0,0,0-2.039-4.3,15.946,15.946,0,0,0-1-1.432Z" transform="translate(-279.4 -364.32)" opacity="0.15"/>
      <path id="Trazado_180772" data-name="Trazado 180772" d="M281.57,375c.031.074.062.149.093.236a3.718,3.718,0,0,0,.483.855,35.535,35.535,0,0,0,3.514,1.035,56.148,56.148,0,0,1,5.082,2.776l.186-1.71c-2.659-1.37-4.338-2.584-5.664-2.82-.5-.081-1.1-.149-1.71-.273.874.39,1.952.5,2.591,1.2a4.52,4.52,0,0,0-1.023-.328,12.6,12.6,0,0,1-3.1-.713,2.685,2.685,0,0,1-.452-.254Z" transform="translate(-277.25 -367.704)" fill="#e0e0e0" opacity="0.3"/>
      <path id="Trazado_180773" data-name="Trazado 180773" d="M288.181,363.634a.78.78,0,0,1,.124-.124c.992.415,5.925,2.479,8.255,3.675a1.4,1.4,0,0,0,.2-.081.848.848,0,0,1,.39-.062.619.619,0,0,1,.149.043,1.089,1.089,0,0,1,.236.13.328.328,0,0,1,.112.328.459.459,0,0,1-.136.2,1.859,1.859,0,0,1-.676.409,1.675,1.675,0,0,1-.353.112.8.8,0,0,1-.409-.1c-.124-.056-.285-.174-.285-.316a.446.446,0,0,1,.223-.341c.043-.031.2-.2.266-.173-2.219-1.128-6.86-3.1-8.125-3.626C288.169,363.69,288.162,363.665,288.181,363.634Z" transform="translate(-288.063 -363.335)" fill="#455a64"/>
      <path id="Trazado_180774" data-name="Trazado 180774" d="M280.323,372.762l-.421.744a3.44,3.44,0,0,1,.136,1,7.028,7.028,0,0,1-3.173,5.5,3.568,3.568,0,0,1-.936.378l-.428.737-1.159-1.1h0a2.479,2.479,0,0,1-.657-1.859,7.022,7.022,0,0,1,3.179-5.5,2.423,2.423,0,0,1,1.927-.353h0Z" transform="translate(-261.755 -366.656)" fill="#ff5151"/>
      <path id="Trazado_180775" data-name="Trazado 180775" d="M280.323,372.762l-.421.744a3.44,3.44,0,0,1,.136,1,7.028,7.028,0,0,1-3.173,5.5,3.568,3.568,0,0,1-.936.378l-.428.737-1.159-1.1h0a2.479,2.479,0,0,1-.657-1.859,7.022,7.022,0,0,1,3.179-5.5,2.423,2.423,0,0,1,1.927-.353h0Z" transform="translate(-261.755 -366.656)" opacity="0.15"/>
      <path id="Trazado_180776" data-name="Trazado 180776" d="M259.563,393.075a7.629,7.629,0,0,1-3.452,5.974,2.429,2.429,0,0,1-2.442.242l-30.528-17.613a2.436,2.436,0,0,1-1.01-2.237,7.642,7.642,0,0,1,3.446-5.974,2.442,2.442,0,0,1,2.442-.242l30.534,17.632A2.429,2.429,0,0,1,259.563,393.075Z" transform="translate(-209.06 -366.945)" fill="#592fe6"/>
      <path id="Trazado_180777" data-name="Trazado 180777" d="M259.563,393.075a7.629,7.629,0,0,1-3.452,5.974,2.429,2.429,0,0,1-2.442.242l-30.528-17.613a2.436,2.436,0,0,1-1.01-2.237,7.642,7.642,0,0,1,3.446-5.974,2.442,2.442,0,0,1,2.442-.242l30.534,17.632A2.429,2.429,0,0,1,259.563,393.075Z" transform="translate(-209.06 -366.945)" fill="#1a065e" opacity="0.5"/>
      <path id="Trazado_180778" data-name="Trazado 180778" d="M222.124,407.83a7.629,7.629,0,0,1,3.452-5.974,2.1,2.1,0,0,1,3.452,1.989,7.629,7.629,0,0,1-3.452,5.974,2.1,2.1,0,0,1-3.452-1.989Z" transform="translate(-178.525 -377.716)" fill="#ff5151"/>
      <path id="Trazado_180779" data-name="Trazado 180779" d="M228.7,404.058a8.8,8.8,0,0,1-3.985,6.9,2.833,2.833,0,0,1-2.814.279l-2.6-1.5a2.814,2.814,0,0,1-1.165-2.578,8.794,8.794,0,0,1,3.979-6.9,2.834,2.834,0,0,1,2.814-.279l2.6,1.5A2.79,2.79,0,0,1,228.7,404.058Z" transform="translate(-175.702 -377.104)" fill="#88e0ef"/>
      <path id="Trazado_180781" data-name="Trazado 180781" d="M218.13,409.573a8.794,8.794,0,0,1,3.991-6.9,2.834,2.834,0,0,1,2.814-.279,2.8,2.8,0,0,1,1.171,2.578,8.8,8.8,0,0,1-3.985,6.9,2.833,2.833,0,0,1-2.814.279A2.794,2.794,0,0,1,218.13,409.573Z" transform="translate(-173.112 -378.021)" fill="#00d0f3"/>
      <path id="Trazado_180782" data-name="Trazado 180782" d="M204.6,425.085a8.546,8.546,0,0,1-3.873,6.706,2.722,2.722,0,0,1-2.739.273l-33.85-19.547A2.7,2.7,0,0,1,163,410.038a8.571,8.571,0,0,1,3.873-6.712,2.7,2.7,0,0,1,2.739-.266l33.85,19.54A2.661,2.661,0,0,1,204.6,425.085Z" transform="translate(-117.436 -378.274)" fill="#592fe6"/>
      <path id="Trazado_180783" data-name="Trazado 180783" d="M204.6,425.085a8.546,8.546,0,0,1-3.873,6.706,2.722,2.722,0,0,1-2.739.273l-33.85-19.547A2.7,2.7,0,0,1,163,410.038a8.571,8.571,0,0,1,3.873-6.712,2.7,2.7,0,0,1,2.739-.266l33.85,19.54A2.661,2.661,0,0,1,204.6,425.085Z" transform="translate(-117.436 -378.274)" fill="#1a065e" opacity="0.35"/>
      <path id="Trazado_180784" data-name="Trazado 180784" d="M166.673,434.56a5.478,5.478,0,1,1-5.478,9.476h0a2.664,2.664,0,0,1-1.134-2.479,8.565,8.565,0,0,1,3.873-6.712,2.723,2.723,0,0,1,2.739-.273Z" transform="translate(-80.647 -390.259)" fill="#592fe6"/>
      <path id="Trazado_180785" data-name="Trazado 180785" d="M197.966,418.126v1.2l-3.371,1.946-22.1-12.754a1.289,1.289,0,0,1-.775-1.072v-1.19a1.147,1.147,0,0,1,.669-.948,3.836,3.836,0,0,1,3.483.068Z" transform="translate(-116.21 -379.081)" fill="#263238"/>
      <path id="Trazado_180786" data-name="Trazado 180786" d="M172.5,407.318c-1-.57-1.047-1.475-.112-2.014a3.836,3.836,0,0,1,3.483.068l22.1,12.754-3.378,1.946Z" transform="translate(-116.217 -379.081)" fill="#37474f"/>
      <path id="Trazado_180787" data-name="Trazado 180787" d="M171.72,432.074v-3.892l3.378-1.952v3.9Z" transform="translate(-93.341 -387.185)" fill="#455a64"/>
      <path id="Trazado_180788" data-name="Trazado 180788" d="M178.013,432.972l-.843-.483v-3.9l.843.49Z" transform="translate(-99.634 -388.082)" fill="#263238"/>
      <path id="Trazado_180789" data-name="Trazado 180789" d="M161.388,444.323a1.763,1.763,0,0,1-1.76,3.055h0l-1.543-.892a.88.88,0,0,1-.366-.806,2.783,2.783,0,0,1,1.239-2.163.874.874,0,0,1,.88-.087l1.537.892Z" transform="translate(-71.836 -393.695)" fill="#455a64"/>
      <path id="Trazado_180790" data-name="Trazado 180790" d="M158.936,443.517a.874.874,0,0,1,.88-.087l1.537.892h0a1.748,1.748,0,0,1,.88,1.469h0c-.087-.49-.818-.911-1.673-1.4s-1.6-.545-2.38.682c-.57.9-.2,1.339.043,1.512l-.174-.1a.88.88,0,0,1-.366-.806A2.783,2.783,0,0,1,158.936,443.517Z" transform="translate(-71.776 -393.695)" fill="#37474f"/>
    </g>
  </g>
  <g id="freepik--Mullet--inject-25" transform="translate(295 109.433)">
    <g id="freepik--mullet--inject-25-2" data-name="freepik--mullet--inject-25" transform="translate(0)">
      <g id="freepik--base--inject-25" transform="translate(21.297 28.984)">
        <path id="Trazado_180791" data-name="Trazado 180791" d="M330.7,362.818c15.9-9.184,41.682-9.184,57.563,0,7.948,4.585,11.9,10.6,11.883,16.616v6.224c0,6.012-3.935,12.01-11.883,16.616-15.9,9.184-41.682,9.184-57.563,0-7.955-4.592-11.9-10.6-11.883-16.616v-6.224C318.778,373.415,322.748,367.4,330.7,362.818Z" transform="translate(-318.778 -353.761)" fill="#37474f"/>
        <ellipse id="Elipse_5529" data-name="Elipse 5529" cx="40.707" cy="23.504" rx="40.707" ry="23.504" transform="translate(0 2.169)" fill="#455a64"/>
        <path id="Trazado_180792" data-name="Trazado 180792" d="M341.577,358.111c12.116-6.994,31.756-6.994,43.865,0,6.061,3.5,9.071,8.082,9.057,12.66V374.9c0,4.585-3,9.184-9.057,12.667-12.109,6.994-31.749,6.994-43.865,0-6.054-3.532-9.064-8.082-9.057-12.667v-4.126C332.513,366.193,335.522,361.608,341.577,358.111Z" transform="translate(-322.806 -352.862)" fill="#37474f"/>
        <ellipse id="Elipse_5530" data-name="Elipse 5530" cx="31.021" cy="17.909" rx="31.021" ry="17.909" transform="translate(9.686)" fill="#455a64"/>
      </g>
      <g id="freepik--mullet--inject-25-3" data-name="freepik--mullet--inject-25">
        <g id="freepik--Mallet--inject-25" transform="translate(27.013)">
          <path id="Trazado_180793" data-name="Trazado 180793" d="M393.2,314.028c6.853-3.956,12.716-2.381,15.005,3.257.445,1.081,2.119,5.193,2.55,6.2a12.816,12.816,0,0,1,.834,4.8c0,8.245-5.793,18.269-12.928,22.388a12.843,12.843,0,0,1-4.585,1.681l-6.6.883c-6.054.841-10.357-3.44-10.357-11.367C377.117,331.619,384.316,319.157,393.2,314.028Z" transform="translate(-377.117 -311.834)" fill="#37474f"/>
          <path id="Trazado_180794" data-name="Trazado 180794" d="M390.048,323.817c7.135-4.119,12.928-.777,12.928,7.467s-5.793,18.269-12.928,22.388-12.928.777-12.928-7.46S382.906,327.943,390.048,323.817Z" transform="translate(-368.508 -314.833)" fill="#263238"/>
          <path id="Trazado_180795" data-name="Trazado 180795" d="M356.147,325.714c-2.515-1.413-5.97-1.229-9.8.975-7.679,4.437-13.939,15.21-13.939,24.091,0,4.437,1.561,7.538,4.076,8.986l24.182,14.087c2.515,1.462,5.984,1.258,9.827-.961,7.679-4.43,13.9-15.217,13.9-24.091,0-4.43-1.561-7.538-4.076-8.986C379.461,339.335,357,326.2,356.147,325.714Z" transform="translate(-318.344 -315.643)" fill="#ff5151"/>
          <path id="Trazado_180796" data-name="Trazado 180796" d="M356.147,325.714c-2.515-1.413-5.97-1.229-9.8.975-7.679,4.437-13.939,15.21-13.939,24.091,0,4.437,1.561,7.538,4.076,8.986l24.182,14.087c2.515,1.462,5.984,1.258,9.827-.961,7.679-4.43,13.9-15.217,13.9-24.091,0-4.43-1.561-7.538-4.076-8.986C379.461,339.335,357,326.2,356.147,325.714Z" transform="translate(-318.344 -315.643)" fill="#fff" opacity="0.3"/>
          <path id="Trazado_180797" data-name="Trazado 180797" d="M387.34,373.916,344.246,348.9a25.392,25.392,0,0,0-1.816,8.951c0,4.437,1.561,7.538,4.076,8.986l24.182,14.087c2.515,1.462,5.984,1.258,9.827-.961A25.3,25.3,0,0,0,387.34,373.916Z" transform="translate(-328.364 -322.714)" fill="#ff5151" opacity="0.45"/>
          <path id="Trazado_180798" data-name="Trazado 180798" d="M346.35,346.61c7.679-4.437,13.9-.841,13.9,8.025s-6.224,19.661-13.9,24.091-13.91.841-13.91-8.025S338.664,351.04,346.35,346.61Z" transform="translate(-294.22 -321.484)" fill="#263238"/>
          <path id="Trazado_180799" data-name="Trazado 180799" d="M315.523,374.246c0-8.237,5.786-18.262,12.928-22.388a12.491,12.491,0,0,1,4.889-1.717c.057,0,5.5-.622,6.669-.763,5.956-.706,10.173,3.532,10.173,11.4,0,10.251-7.2,22.713-16.079,27.842-6.761,3.907-12.547,2.416-14.921-3.045-.48-1.109-2.282-5.27-2.72-6.266A12.525,12.525,0,0,1,315.523,374.246Z" transform="translate(-272.196 -322.832)" fill="#37474f"/>
          <path id="Trazado_180800" data-name="Trazado 180800" d="M331.571,351.487c8.88-5.129,16.079-.968,16.079,9.283s-7.2,22.713-16.079,27.842-16.051.968-16.051-9.283S322.7,356.609,331.571,351.487Z" transform="translate(-269.663 -322.828)" fill="#455a64"/>
          <path id="Trazado_180801" data-name="Trazado 180801" d="M347.693,365.54a31.219,31.219,0,0,1-3.377,13.854,36.5,36.5,0,0,1-8.654,11.445,23.511,23.511,0,0,1-6.1,3.864,11.252,11.252,0,0,1-1.717.607l-.883.24c-.3.064-.6.1-.9.148a9.743,9.743,0,0,1-3.645-.113,8.541,8.541,0,0,1-3.278-1.618c-.226-.2-.438-.424-.657-.636l-.325-.325-.268-.367-.544-.706-.424-.8a14.589,14.589,0,0,1-1.371-7.008l.127,1.787.283,1.759c.17.572.3,1.152.495,1.71l.339.819a4.08,4.08,0,0,0,.177.4l.219.382.431.77.544.706.268.346.318.3c.212.2.417.41.636.593a8.159,8.159,0,0,0,3.137,1.413,11.692,11.692,0,0,0,6.824-.933,23.115,23.115,0,0,0,5.92-3.815,37.088,37.088,0,0,0,8.626-11.183,36.031,36.031,0,0,0,2.628-6.613,28.213,28.213,0,0,0,1.18-7.036Z" transform="translate(-269.706 -327.598)" fill="#37474f"/>
        </g>
        <path id="Trazado_180802" data-name="Trazado 180802" d="M402.6,374.818a6.973,6.973,0,0,0-4.345-4.578,2.233,2.233,0,0,0-2.211.3h0l-12.681,12.01h0a2.211,2.211,0,0,0-.417,2.19,6.966,6.966,0,0,0,4.345,4.585,2.211,2.211,0,0,0,2.218-.311h0L402.186,377h0A2.2,2.2,0,0,0,402.6,374.818Z" transform="translate(-345.275 -328.928)" fill="#37474f"/>
        <path id="Trazado_180803" data-name="Trazado 180803" d="M399.828,378.1a2.2,2.2,0,0,0,.431-2.211,6.068,6.068,0,0,0-1.081-2.169l-16.341,15.5a5.977,5.977,0,0,0,2.119,1.187,2.211,2.211,0,0,0,2.218-.311l12.674-12.01Z" transform="translate(-342.946 -329.999)" fill="#263238"/>
        <path id="Trazado_180804" data-name="Trazado 180804" d="M403.628,417.71h0l33.359-29.41h.035a2.9,2.9,0,0,1,2.826-.367,9.085,9.085,0,0,1,5.652,5.963,2.883,2.883,0,0,1-.558,2.868L414.013,428.83h0a7.6,7.6,0,1,1-10.406-11.077Z" transform="translate(-401.073 -334.109)" fill="#ff5151"/>
        <path id="Trazado_180805" data-name="Trazado 180805" d="M403.421,418.762a3.695,3.695,0,0,0,3.617,6.061,3.758,3.758,0,0,0,1.554-.805h0l34.511-33.1a8.562,8.562,0,0,1,2.353,3.886,2.883,2.883,0,0,1-.558,2.868l-30.929,32.067h0a7.612,7.612,0,1,1-10.562-10.964Z" transform="translate(-400.994 -335.048)" opacity="0.2"/>
      </g>
    </g>
  </g>
  <g id="freepik--Scales--inject-25" transform="translate(0 0)">
    <g id="freepik--scales--inject-25-2" data-name="freepik--scales--inject-25" transform="translate(0 0)">
      <path id="Trazado_180658" data-name="Trazado 180658" d="M280.933,254.3c.18,12.667-10.61,19.348-23.693,19.348s-23.674-6.681-23.674-19.348Z" transform="translate(-138.401 -121.516)" fill="#e16b31"/>
      <path id="Trazado_180659" data-name="Trazado 180659" d="M274.015,255.58c9.253-5.342,9.253-14.006,0-19.348s-24.25-5.342-33.5,0-9.253,14.006,0,19.348S264.762,260.922,274.015,255.58Z" transform="translate(-138.424 -113.121)" fill="#ff9b6a"/>
      <path id="Trazado_180660" data-name="Trazado 180660" d="M274.015,255.58c9.253-5.342,9.253-14.006,0-19.348s-24.25-5.342-33.5,0-9.253,14.006,0,19.348S264.762,260.922,274.015,255.58Z" transform="translate(-138.424 -113.167)" fill="#fff" opacity="0.4"/>
      <path id="Trazado_180661" data-name="Trazado 180661" d="M276.728,262.092c-8.9,4.487-22.2,4.487-31.1,0-3.161-3.718-2.07-8.36,3.3-11.459,6.761-3.9,17.731-3.9,24.492,0C278.8,253.732,279.889,258.361,276.728,262.092Z" transform="translate(-142.34 -119.008)" fill="#ff9b6a" opacity="0.5"/>
      <path id="Trazado_180662" data-name="Trazado 180662" d="M267.8,235.008h.037a.409.409,0,0,0,.372-.446L262.1,168.1a.421.421,0,0,0-.446-.372.409.409,0,0,0-.372.446l6.111,66.461a.409.409,0,0,0,.409.372Z" transform="translate(-142.849 -88.596)" fill="#37474f"/>
      <path id="Trazado_180663" data-name="Trazado 180663" d="M271.549,218.238a.4.4,0,0,0,.372-.242l22.875-49.684a.41.41,0,1,0-.744-.347l-22.875,49.691a.409.409,0,0,0,.2.545.416.416,0,0,0,.174.037Z" transform="translate(-175.584 -88.596)" fill="#37474f"/>
      <path id="Trazado_180664" data-name="Trazado 180664" d="M261.233,212.12a.428.428,0,0,0,.149-.031.409.409,0,0,0,.242-.533L244.89,167.988a.409.409,0,0,0-.533-.236.415.415,0,0,0-.235.533l16.733,43.568A.415.415,0,0,0,261.233,212.12Z" transform="translate(-125.642 -88.594)" fill="#37474f"/>
      <path id="Trazado_180665" data-name="Trazado 180665" d="M434.472,165.48c.18,12.667-10.61,19.348-23.693,19.348s-23.693-6.681-23.693-19.348Z" transform="translate(-387.082 -87.741)" fill="#e16b31"/>
      <path id="Trazado_180666" data-name="Trazado 180666" d="M427.541,166.76c9.253-5.342,9.253-14.006,0-19.348s-24.257-5.342-33.509,0-9.253,14.006,0,19.348S418.289,172.1,427.541,166.76Z" transform="translate(-387.093 -79.347)" fill="#ff9b6a"/>
      <path id="Trazado_180667" data-name="Trazado 180667" d="M427.541,166.76c9.253-5.342,9.253-14.006,0-19.348s-24.257-5.342-33.509,0-9.253,14.006,0,19.348S418.289,172.1,427.541,166.76Z" transform="translate(-387.093 -79.392)" fill="#fff" opacity="0.4"/>
      <path id="Trazado_180668" data-name="Trazado 180668" d="M430.248,173.272c-8.9,4.487-22.2,4.487-31.1,0-3.161-3.718-2.07-8.36,3.3-11.459,6.761-3.9,17.731-3.9,24.492,0C432.318,164.912,433.409,169.541,430.248,173.272Z" transform="translate(-391.002 -85.233)" fill="#ff9b6a" opacity="0.5"/>
      <path id="Trazado_180669" data-name="Trazado 180669" d="M421.319,146.188h.037a.409.409,0,0,0,.372-.446l-6.111-66.461a.415.415,0,0,0-.446-.372.409.409,0,0,0-.372.446l6.111,66.461a.4.4,0,0,0,.409.372Z" transform="translate(-391.511 -54.821)" fill="#37474f"/>
      <path id="Trazado_180670" data-name="Trazado 180670" d="M425.092,129.438a.415.415,0,0,0,.378-.242l22.875-49.685a.415.415,0,0,0-.75-.347L424.72,128.855a.415.415,0,0,0,.2.545A.44.44,0,0,0,425.092,129.438Z" transform="translate(-424.275 -54.841)" fill="#37474f"/>
      <path id="Trazado_180671" data-name="Trazado 180671" d="M414.772,123.319a.428.428,0,0,0,.149,0,.415.415,0,0,0,.235-.533L398.423,79.218a.412.412,0,0,0-.768.3l16.733,43.568A.409.409,0,0,0,414.772,123.319Z" transform="translate(-374.323 -54.839)" fill="#37474f"/>
      <path id="Trazado_180672" data-name="Trazado 180672" d="M421.159,68.71a6.92,6.92,0,0,0,2.814,5.348,1.326,1.326,0,0,0,1.283.167,2.161,2.161,0,0,0,.706-1.9,7.35,7.35,0,0,0-1.1-3.619h1.859a8.676,8.676,0,0,1,.861,3.619,3.658,3.658,0,0,1-1.531,3.328,2.479,2.479,0,0,1-1.239.328,3.4,3.4,0,0,1-1.7-.5,8.505,8.505,0,0,1-3.638-6.774Z" transform="translate(-400.27 -50.943)" fill="#455a64"/>
      <g id="freepik--Base--inject-25-2" data-name="freepik--Base--inject-25" transform="translate(47.698 130.208)">
        <path id="Trazado_180673" data-name="Trazado 180673" d="M319.417,259.964c8.943-5.162,23.445-5.162,32.381,0,4.475,2.584,6.693,5.968,6.687,9.352v3.5c0,3.384-2.212,6.768-6.687,9.346-8.943,5.162-23.438,5.162-32.381,0-4.475-2.578-6.693-5.962-6.687-9.346v-3.5C312.724,265.951,314.936,262.549,319.417,259.964Z" transform="translate(-312.71 -252.406)" fill="#263238"/>
        <path id="Trazado_180674" data-name="Trazado 180674" d="M351.786,259.961c8.943,5.169,8.943,13.535,0,18.7s-23.438,5.162-32.381,0-8.943-13.529,0-18.7S342.812,254.793,351.786,259.961Z" transform="translate(-312.698 -252.403)" fill="#455a64"/>
        <path id="Trazado_180675" data-name="Trazado 180675" d="M324.658,253.368c7.393-4.264,19.379-4.264,26.766,0,3.718,2.138,5.534,4.958,5.528,7.728v5.15c0,2.8-1.828,5.578-5.528,7.728-7.387,4.27-19.373,4.27-26.766,0-3.718-2.132-5.534-4.927-5.528-7.728V261.1C319.124,258.3,320.964,255.506,324.658,253.368Z" transform="translate(-315.143 -250.154)" fill="#37474f"/>
        <path id="Trazado_180676" data-name="Trazado 180676" d="M351.414,253.358c7.393,4.27,7.393,11.155,0,15.456s-19.373,4.27-26.766,0-7.393-11.155,0-15.456S344.008,249.088,351.414,253.358Z" transform="translate(-315.133 -250.144)" fill="#455a64"/>
      </g>
      <path id="Trazado_180677" data-name="Trazado 180677" d="M265.28,157h1.661a3.676,3.676,0,0,0-.037.539,6.95,6.95,0,0,0,2.82,5.46,1.357,1.357,0,0,0,1.289.167,2.177,2.177,0,0,0,.7-1.9,6.539,6.539,0,0,0-.44-2.256h1.748a8.131,8.131,0,0,1,.341,2.256,3.662,3.662,0,0,1-1.525,3.328,2.479,2.479,0,0,1-1.24.328,3.4,3.4,0,0,1-1.7-.5,8.526,8.526,0,0,1-3.638-6.885A5.079,5.079,0,0,1,265.28,157Z" transform="translate(-150.469 -84.516)" fill="#455a64"/>
      <path id="Trazado_180678" data-name="Trazado 180678" d="M325.43,257.082c0-2.219,1.469-4.437,4.394-6.129,5.863-3.384,15.363-3.384,21.226,0,2.931,1.692,4.394,3.911,4.394,6.129v1.772c0,2.219-1.463,4.437-4.394,6.129-5.863,3.384-15.363,3.384-21.226,0-2.925-1.692-4.394-3.911-4.394-6.129Z" transform="translate(-269.841 -119.278)" fill="#37474f"/>
      <path id="Trazado_180679" data-name="Trazado 180679" d="M329.824,232.288c1.029-.62,2.615-3.247,3.34-6.755,1.686-8.156,1.667-21.245.3-26.2h13.956c-1.376,4.958-1.394,18.047.291,26.2.725,3.508,2.312,6.1,3.34,6.755h0c2.931,1.692,4.394,3.911,4.394,6.129s-1.463,4.437-4.394,6.129c-5.863,3.384-15.363,3.384-21.226,0-2.925-1.692-4.394-3.911-4.394-6.129S326.9,233.98,329.824,232.288Z" transform="translate(-269.841 -100.613)" fill="#455a64"/>
      <g id="Grupo_129416" data-name="Grupo 129416" transform="translate(71.349 101.68)" opacity="0.15">
        <path id="Trazado_180680" data-name="Trazado 180680" d="M332.426,204.11c0,3.173.18,25.93,2.231,28.818s4.382,3.1,5.949,5.578-.9,5.925-4.629,7.053a4.573,4.573,0,0,0,1.147-2.38s-2.479,2.913-8.007,2.38c4.884-.83,6.817-4.524,5.782-6.328-1.1-1.9-2.888-2.522-3.9-5.869-.781-2.584-.768-28.843-.768-28.843a13.361,13.361,0,0,0,2.194-.409Z" transform="translate(-329.117 -204.11)" fill="#fff"/>
      </g>
      <g id="Grupo_129417" data-name="Grupo 129417" transform="translate(57.251 101.506)" opacity="0.15">
        <path id="Trazado_180681" data-name="Trazado 180681" d="M361.9,204.357c-.18,5.41-.3,26.971-1.859,29.568-1.24,2.027-2,3.179-2.25,5.435s1.766,4.2,3.26,4.7a7.437,7.437,0,0,1-3.718-1.382s1.239,2.541,6.154,3.718c-3.309.217-8.59-.719-11.527-4.413-2.479-3.13.105-4.611,2.2-5.826a8.166,8.166,0,0,0,4.2-5.169c2.212-6.278,1.239-27.157,1.239-27.157a13.828,13.828,0,0,0,2.3.527Z" transform="translate(-350.94 -203.83)"/>
      </g>
      <g id="Grupo_129418" data-name="Grupo 129418" transform="translate(63.602 98.717)" opacity="0.25">
        <path id="Trazado_180682" data-name="Trazado 180682" d="M339,202.348a21.273,21.273,0,0,0-.62-3.018h13.975a19.677,19.677,0,0,0-.62,3.018A14.706,14.706,0,0,1,339,202.348Z" transform="translate(-338.38 -199.33)"/>
      </g>
      <path id="Trazado_180683" data-name="Trazado 180683" d="M350.519,196.727c1.859-1.06,2.752-2.448,2.752-3.836s-.917-2.776-2.752-3.836a14.678,14.678,0,0,0-13.287,0c-1.859,1.06-2.752,2.448-2.752,3.836s.917,2.776,2.752,3.836A14.678,14.678,0,0,0,350.519,196.727Z" transform="translate(-273.276 -96.101)" fill="#37474f"/>
      <g id="Grupo_129419" data-name="Grupo 129419" transform="translate(61.836 91.383)" opacity="0.25">
        <path id="Trazado_180684" data-name="Trazado 180684" d="M335.51,190.944a6.259,6.259,0,0,1,2.12-1.859,14.678,14.678,0,0,1,13.287,0,6.29,6.29,0,0,1,2.113,1.859,4.775,4.775,0,0,1-2.51,2.962,13.8,13.8,0,0,1-12.5,0A4.815,4.815,0,0,1,335.51,190.944Z" transform="translate(-335.51 -187.495)"/>
      </g>
      <path id="Trazado_180685" data-name="Trazado 180685" d="M350.471,190.475c1.729-.992,2.591-2.3,2.591-3.607s-.861-2.615-2.591-3.607a13.8,13.8,0,0,0-12.5,0c-1.723.992-2.59,2.3-2.59,3.607s.868,2.615,2.59,3.607A13.953,13.953,0,0,0,350.471,190.475Z" transform="translate(-273.625 -93.934)" fill="#37474f"/>
      <g id="Grupo_129420" data-name="Grupo 129420" transform="translate(62.381 87.856)" opacity="0.25">
        <path id="Trazado_180686" data-name="Trazado 180686" d="M336.39,185.025a5.987,5.987,0,0,1,1.965-1.723,13.8,13.8,0,0,1,12.5,0,5.925,5.925,0,0,1,1.965,1.723,4.5,4.5,0,0,1-2.355,2.8,13,13,0,0,1-11.713,0,4.493,4.493,0,0,1-2.361-2.8Z" transform="translate(-336.39 -181.805)"/>
      </g>
      <path id="Trazado_180687" data-name="Trazado 180687" d="M350.422,184.236c1.617-.936,2.423-2.157,2.423-3.384s-.806-2.448-2.423-3.378a13,13,0,0,0-11.713,0c-1.618.93-2.429,2.157-2.429,3.378s.812,2.448,2.429,3.384A12.957,12.957,0,0,0,350.422,184.236Z" transform="translate(-273.967 -91.772)" fill="#37474f"/>
      <g id="Grupo_129421" data-name="Grupo 129421" transform="translate(62.982 84.308)" opacity="0.25">
        <path id="Trazado_180688" data-name="Trazado 180688" d="M337.36,178.974a5.578,5.578,0,0,1,1.76-1.5,13,13,0,0,1,11.713,0,5.62,5.62,0,0,1,1.754,1.5,4.338,4.338,0,0,1-2.15,2.417,12.078,12.078,0,0,1-10.926,0A4.338,4.338,0,0,1,337.36,178.974Z" transform="translate(-337.36 -176.08)"/>
      </g>
      <g id="Grupo_129422" data-name="Grupo 129422" transform="translate(62.611 88.38)" opacity="0.15">
        <path id="Trazado_180689" data-name="Trazado 180689" d="M355.4,190.422c-1.24-.985-.409-3.285.576-3.954a2.554,2.554,0,0,1,.824-3.818,9.582,9.582,0,0,0,2.591.992c-1.314.843-1.958,2.739-.88,3.973-.985.676-1.828,3.055-.564,4.047-.886.75-1.859,2.845-.378,4.1a9.959,9.959,0,0,1-2.529-1.239C353.585,193.279,354.509,191.171,355.4,190.422Z" transform="translate(-354.28 -182.65)"/>
      </g>
      <g id="Grupo_129423" data-name="Grupo 129423" transform="translate(73.468 88.38)" opacity="0.15">
        <path id="Trazado_180690" data-name="Trazado 180690" d="M340.753,190.422c1.239-.985.409-3.285-.576-3.954a2.555,2.555,0,0,0-.83-3.818,9.426,9.426,0,0,1-2.591.992,2.729,2.729,0,0,1,.88,3.973c.985.676,1.859,3.055.564,4.047.892.75,1.859,2.845.384,4.1a9.816,9.816,0,0,0,2.522-1.24C342.569,193.279,341.64,191.171,340.753,190.422Z" transform="translate(-336.756 -182.65)" fill="#fff"/>
      </g>
      <path id="Trazado_180691" data-name="Trazado 180691" d="M338.478,143.712c.359-.322,1.363-2.77,1.667-6.563,1.023-12.9,1.016-29.493,1.016-42.1h7.48c0,12.6,0,29.128,1.016,42.062.3,3.811,1.314,6.284,1.673,6.606a3.3,3.3,0,0,1,1.3,2.479,3.829,3.829,0,0,1-2.268,3.154,12.04,12.04,0,0,1-10.926,0,3.833,3.833,0,0,1-2.262-3.154A3.322,3.322,0,0,1,338.478,143.712Z" transform="translate(-274.299 -60.959)" fill="#455a64"/>
      <g id="Grupo_129424" data-name="Grupo 129424" transform="translate(64.183 34.091)" opacity="0.15">
        <path id="Trazado_180692" data-name="Trazado 180692" d="M353.721,144.276c1.078-1.741,1.859-2.9,2.212-7.17.31-3.948.05-40.835,0-42.056h.552l.676.211c0,5.937.39,43.314-.5,46.567s-2.913,6.507-.328,8.5a9.452,9.452,0,0,1-2.591-.992C352.271,147.592,352.643,146.017,353.721,144.276Z" transform="translate(-352.772 -95.05)"/>
      </g>
      <g id="Grupo_129425" data-name="Grupo 129425" transform="translate(72.565 34.091)" opacity="0.15">
        <path id="Trazado_180693" data-name="Trazado 180693" d="M342.784,144.276c-1.078-1.741-1.859-2.9-2.212-7.17-.31-3.948-.043-40.835,0-42.056h-.521l-.676.211c0,5.937-.39,43.314.5,46.567s2.913,6.507.322,8.5a9.375,9.375,0,0,0,2.59-.992C344.234,147.592,343.862,146.017,342.784,144.276Z" transform="translate(-339.29 -95.05)" fill="#fff"/>
      </g>
      <g id="Grupo_129426" data-name="Grupo 129426" transform="translate(66.843 34.091)" opacity="0.25">
        <path id="Trazado_180694" data-name="Trazado 180694" d="M351.1,97.12a6.482,6.482,0,0,1-7.505,0V95.05h7.5C351.089,95.769,351.1,96.451,351.1,97.12Z" transform="translate(-343.59 -95.05)"/>
      </g>
      <path id="Trazado_180695" data-name="Trazado 180695" d="M339.1,83.182a6.532,6.532,0,1,0,6.532-6.532,6.532,6.532,0,0,0-6.532,6.532Z" transform="translate(-275.033 -53.962)" fill="#37474f"/>
      <g id="Grupo_129427" data-name="Grupo 129427" transform="translate(64.067 23.754)" opacity="0.15">
        <path id="Trazado_180696" data-name="Trazado 180696" d="M347.157,87.22a4.989,4.989,0,0,0,2.9-3.223,7.319,7.319,0,0,0,.143-3.024,6.821,6.821,0,0,0-.4-1.444,5.666,5.666,0,0,0-.3-.688,1.99,1.99,0,0,0-.285-.471,6.526,6.526,0,1,1-10.1,5.466C339.85,85.906,343.346,88.893,347.157,87.22Z" transform="translate(-339.119 -78.37)"/>
      </g>
      <g id="Grupo_129428" data-name="Grupo 129428" transform="translate(65.201 23.529)" opacity="0.15">
        <path id="Trazado_180697" data-name="Trazado 180697" d="M345.583,83.537c.62,1.748.843-.787,3.762-2.646,2.38-1.512,5.2-1.2,3.669-2.256a4.99,4.99,0,0,0-5.107.155C346.029,79.812,345.105,82.223,345.583,83.537Z" transform="translate(-345.458 -78.007)" fill="#fff"/>
      </g>
      <path id="Trazado_180698" data-name="Trazado 180698" d="M256.322,73.51h0q1.289.7,2.529,1.456c9,5.1,18.635,10.312,21.945,16.113a21.691,21.691,0,0,1,2.578,7.028c2.417,3.1,4.747,6.2,7.046,9.3,1.748,2.374,3.471,4.741,5.249,7.04l.124.093c.118.068.18.124.161.167s0,.124.124.074a2.051,2.051,0,0,0,.669-1.239,6.991,6.991,0,0,0,.236-1.9,5.846,5.846,0,0,0-.3-1.983h0a.242.242,0,0,1,.05-.236.229.229,0,0,1,.322,0,5.54,5.54,0,0,1,1.32,1.934,8.3,8.3,0,0,1,.62,2.324,4.877,4.877,0,0,1-.465,2.832,3.135,3.135,0,0,1-.62.768c1.208,1.475,2.479,2.9,3.762,4.22a28.612,28.612,0,0,0,4.338,3.718c1.525,1.14,2.652,1.289,3.353.75a2.721,2.721,0,0,0,.793-1.593,8.057,8.057,0,0,0,.062-2.516,12.155,12.155,0,0,0-.62-2.628,11.209,11.209,0,0,0-1.177-2.417,6.389,6.389,0,0,0-1.7-1.791,2.937,2.937,0,0,0-.911-.4,1.14,1.14,0,0,0-.688.068,1.06,1.06,0,0,0-.49.558,3.148,3.148,0,0,0-.248,1.122,7.089,7.089,0,0,0,.372,2.621,6.452,6.452,0,0,0,1.283,2.349,2.938,2.938,0,0,0,.948.713.93.93,0,0,0,.843,0l.056-.037a.651.651,0,0,1,.83.155.62.62,0,0,1-.112.9,2.07,2.07,0,0,1-1.023.434,2.572,2.572,0,0,1-1.054-.087,4.369,4.369,0,0,1-1.593-.936,8.131,8.131,0,0,1-1.946-2.807,8.738,8.738,0,0,1-.768-3.347,5.509,5.509,0,0,1,.273-1.859,3.644,3.644,0,0,1,.5-.979,3.055,3.055,0,0,1,.868-.824,3.5,3.5,0,0,1,2.256-.533,5.1,5.1,0,0,1,1.952.62,8.955,8.955,0,0,1,2.7,2.4,14.428,14.428,0,0,1,1.717,2.962,15.1,15.1,0,0,1,1.01,3.26,11.268,11.268,0,0,1,.143,3.582,7.511,7.511,0,0,1-.527,1.934,5.472,5.472,0,0,1-1.308,1.859,5.4,5.4,0,0,1-4.338,1.3,7.189,7.189,0,0,1-1.989-.558,8.051,8.051,0,0,1-.868-.421l-.725-.428a43.152,43.152,0,0,1-9.587-8.528q-1.494-1.7-2.925-3.421a4.766,4.766,0,0,1-1.01-1.041,7.368,7.368,0,0,1-.669-1.035c-3.718-4.567-7.22-9.2-10.932-13.634a108.883,108.883,0,0,0-16.857-16.77,65.2,65.2,0,0,0-5.578-3.811V73.51h0Zm25,21.995a10.9,10.9,0,0,0-2.479-4.822,36.328,36.328,0,0,0-9.755-8.057A108.655,108.655,0,0,1,281.322,95.5Z" transform="translate(-185.264 -52.768)" fill="#455a64"/>
      <path id="Trazado_180699" data-name="Trazado 180699" d="M349.761,42.433a4.958,4.958,0,0,1,1.5-1.7,3.836,3.836,0,0,1,2.479-.682,5.032,5.032,0,0,1,2.095.669,7.784,7.784,0,0,1,1.543,1.153,11.062,11.062,0,0,1,2.057,2.857,10.473,10.473,0,0,1,1.078,3.34,6.489,6.489,0,0,1-.459,3.718,3.031,3.031,0,0,1-1.816,1.63,2.721,2.721,0,0,1-1.314.043,3.65,3.65,0,0,1-1.016-.446,4.3,4.3,0,0,1-1.32-1.339,5.2,5.2,0,0,1-.682-1.593.558.558,0,0,1,.948-.514h0a6.259,6.259,0,0,0,2.07,1.6,1.184,1.184,0,0,0,.409.093.428.428,0,0,0,.2-.043,1.388,1.388,0,0,0,.316-.446,4.22,4.22,0,0,0,.062-2.262,7.747,7.747,0,0,0-.954-2.411,8.057,8.057,0,0,0-1.63-2,2.925,2.925,0,0,0-1.741-.855.57.57,0,0,0-.39.149,1.816,1.816,0,0,0-.446.62,5.119,5.119,0,0,0-.347,2.194,11.323,11.323,0,0,0,1.456,4.958,12.7,12.7,0,0,0,3.328,4,6.879,6.879,0,0,0,1,.62,11.89,11.89,0,0,0,1.239.576,14.917,14.917,0,0,0,2.51.787,16.189,16.189,0,0,0,2.479.316A10.211,10.211,0,0,1,364,56.223a9.475,9.475,0,0,1-.266-2.38,7.753,7.753,0,0,1,.384-2.312,4.264,4.264,0,0,1,.533-1.078,1.512,1.512,0,0,1,1.085-.731.2.2,0,0,1,.192.093.211.211,0,0,1-.05.3l-.056.043a.954.954,0,0,0-.3.682,3.3,3.3,0,0,0,0,.892,6.518,6.518,0,0,0,.446,1.779,7.176,7.176,0,0,0,.812,1.58,6.248,6.248,0,0,0,1.054,1.27,3.83,3.83,0,0,0,1.345.737,2.277,2.277,0,0,1,.217.093c3.049-.4,6.259-1.122,9.625-1.556.167-1.952.806-4.413,2.814-5.609,3.607-2.132,14.694,5.057,24.3,10.616l.18.093v6.947a44.373,44.373,0,0,0-15.029-6.1,40.425,40.425,0,0,0-11.366-.384c-3.892.347-7.908,1.171-12.339,1.3a22.707,22.707,0,0,1-6.811-.793,20.006,20.006,0,0,1-3.247-1.239c-.514-.254-1.023-.533-1.506-.824a11.216,11.216,0,0,1-1.531-1.091,16.734,16.734,0,0,1-4.14-5.578,15,15,0,0,1-1.506-6.761,8.286,8.286,0,0,1,.93-3.78Zm31.489,12.24c3.192-.477,10.393,0,14.458,1.828l.155.043c-1.029-.663-8.057-5.088-12.116-4.586C380.847,52.312,381.25,54.673,381.25,54.673Z" transform="translate(-335.205 -40.042)" fill="#455a64"/>
      <path id="Trazado_180700" data-name="Trazado 180700" d="M344.648,40.877c3.842,2.219,6.96,8.174,6.96,13.318s-3.1,9.3-6.96,7.084-6.978-10-6.978-15.128S340.787,38.652,344.648,40.877Zm0,2.6c-2.783-1.605-5.026.093-5.026,3.8a12.781,12.781,0,0,0,.273,2.535c.322-2.931,2.336-4.14,4.753-2.745s4.4,4.915,4.741,8.205a9.407,9.407,0,0,0,.273-2.194C349.662,49.368,347.412,45.073,344.648,43.474Z" transform="translate(-273.591 -40.042)" fill="#455a64"/>
      <path id="Trazado_180701" data-name="Trazado 180701" d="M347.554,56.57l-2.194,2.157,2.219,4.97,2.188-2.454Z" transform="translate(-276.515 -46.327)" fill="#e16b31"/>
      <path id="Trazado_180702" data-name="Trazado 180702" d="M349.336,61.441l.7,1.456.093-4-.812.849A1.63,1.63,0,0,0,349.336,61.441Z" transform="translate(-279.19 -47.213)" fill="#fff" opacity="0.6"/>
    </g>
  </g>
</svg>
