<svg xmlns="http://www.w3.org/2000/svg" xmlns:xlink="http://www.w3.org/1999/xlink" width="664" height="394.951" viewBox="0 0 664 394.951">
  <defs>
    <clipPath id="clip-path">
      <path id="Trazado_180848" data-name="Trazado 180848" d="M0,238.743H664V31H0Z" transform="translate(0 -31)" fill="#592fe6"/>
    </clipPath>
  </defs>
  <g id="Grupo_129544" data-name="Grupo 129544" transform="translate(-800 -2762.257)">
    <g id="Grupo_129543" data-name="Grupo 129543">
      <g id="Enmascarar_grupo_67" data-name="Enmascarar grupo 67" transform="translate(800 2762.257)" opacity="0.05" clip-path="url(#clip-path)">
        <path id="Trazado_180847" data-name="Trazado 180847" d="M1288.3,1371.612c130.433-62.744,274.279-98.8,419.8-55.438,288.655,86.021,288.336,67.02,288.336,67.02l-14.57-519.742h-957.12l14.57,557.074S1139.751,1443.069,1288.3,1371.612Z" transform="translate(-1119.256 -1217.047)" fill="#592fe6"/>
      </g>
      <g id="Knowledge-pana" transform="translate(995.879 2595.508)">
        <g id="freepik--background-complete--inject-17" transform="translate(176.61 265.693)">
          <path id="Trazado_180202" data-name="Trazado 180202" d="M255.08,456.2l-.4-35.1h19.111l.659,35.1Z" transform="translate(-229.335 -162.602)" fill="#f5f5f5"/>
          <path id="Trazado_180203" data-name="Trazado 180203" d="M272.65,426.9c0,.216-3.978.4-8.885.4s-8.875-.184-8.875-.4,3.978-.389,8.875-.389S272.65,426.694,272.65,426.9Z" transform="translate(-229.318 -162.164)" fill="#e0e0e0"/>
          <path id="Trazado_180204" data-name="Trazado 180204" d="M272.65,431.919c0,.216-3.978.389-8.885.389s-8.875-.173-8.875-.389,3.978-.389,8.875-.389S272.65,431.7,272.65,431.919Z" transform="translate(-229.318 -161.758)" fill="#e0e0e0"/>
          <path id="Trazado_180205" data-name="Trazado 180205" d="M272.65,436.929c0,.216-3.978.389-8.885.389s-8.875-.173-8.875-.389,3.978-.389,8.875-.389S272.65,436.713,272.65,436.929Z" transform="translate(-229.318 -161.352)" fill="#e0e0e0"/>
          <path id="Trazado_180206" data-name="Trazado 180206" d="M272.65,441.939c0,.216-3.978.389-8.885.389s-8.875-.173-8.875-.389,3.978-.389,8.875-.389S272.65,441.723,272.65,441.939Z" transform="translate(-229.318 -160.947)" fill="#e0e0e0"/>
          <path id="Trazado_180207" data-name="Trazado 180207" d="M272.65,446.96c0,.216-3.978.389-8.885.389s-8.875-.173-8.875-.389,3.978-.4,8.875-.4S272.65,446.744,272.65,446.96Z" transform="translate(-229.318 -160.541)" fill="#e0e0e0"/>
          <path id="Trazado_180208" data-name="Trazado 180208" d="M253.75,420.24h211.8c2.616,11.62,2.248,24.419,0,37.941h-210.9v-2.529h12.885a6.086,6.086,0,0,0,6.086-6.086V428.52a6.086,6.086,0,0,0-6.086-6.086H253.75Z" transform="translate(-229.411 -162.672)" fill="#ebebeb"/>
          <path id="Trazado_180209" data-name="Trazado 180209" d="M300.45,438.362h3.535a.79.79,0,0,1,.378.1.713.713,0,0,1,.378.659,1.147,1.147,0,0,1,0,.227c-.076.3-.151.605-.238.908a10.1,10.1,0,0,1-2.216,4,4.183,4.183,0,0,1-2.994,1.557h-.422a3.491,3.491,0,0,1-2.411-1.74,7.945,7.945,0,0,1-1.081-4.259,11.729,11.729,0,0,1,.411-3.027,10.161,10.161,0,0,1,2.108-4.1,4.248,4.248,0,0,1,3.178-1.7,3.006,3.006,0,0,1,1.34.3,4.323,4.323,0,0,1,2.065,2.583.821.821,0,0,1,.086.357.692.692,0,0,1-.108.378.724.724,0,0,1-.659.378.649.649,0,0,1-.238,0,.681.681,0,0,1-.476-.476v-.065a4,4,0,0,0-.422-.832,2.011,2.011,0,0,0-1.7-1.016,1.935,1.935,0,0,0-1.167.432,6.151,6.151,0,0,0-1.924,2.767,10.378,10.378,0,0,0-.843,3.989,7.231,7.231,0,0,0,.605,3.135,2.076,2.076,0,0,0,1.848,1.384,2.519,2.519,0,0,0,1.708-1.027,9.361,9.361,0,0,0,1.816-3.243h-2.54c-.551-.086-.832-.368-.843-.854a.954.954,0,0,1,.076-.249A.8.8,0,0,1,300.45,438.362Z" transform="translate(-226.041 -161.801)" fill="#fafafa"/>
          <path id="Trazado_180210" data-name="Trazado 180210" d="M311.758,431.458a1.67,1.67,0,0,1,.1.259q.227.778,2.5,13.123a.551.551,0,0,1,0,.184.832.832,0,0,1-.1.389.713.713,0,0,1-.638.389H313.5a.681.681,0,0,1-.584-.519l-.843-4.324h-4.324l-2.086,4.324-.076.151a.822.822,0,0,1-.649.367.756.756,0,0,1-.411-.119.746.746,0,0,1-.357-.638.584.584,0,0,1,.054-.227c.13-.3.346-.789.649-1.438q4.551-9.966,5.459-11.772a.821.821,0,0,1,.735-.53A.768.768,0,0,1,311.758,431.458Zm-.94,2.929-2.356,4.951h3.319Z" transform="translate(-225.329 -161.794)" fill="#fafafa"/>
          <path id="Trazado_180211" data-name="Trazado 180211" d="M322.655,445.8h-6.378a.789.789,0,0,1-.411-.119,1.157,1.157,0,0,1-.357-.8h0q0-.389,1.762-13.069a1.183,1.183,0,0,1,0-.281.692.692,0,0,1,.692-.465.778.778,0,0,1,.346.086.7.7,0,0,1,.4.67c-.054.584-.195,1.773-.432,3.589q-1.081,8.367-1.146,8.831h5.4a1.082,1.082,0,0,1,.411.076.713.713,0,0,1,.486.713.669.669,0,0,1,0,.249A.886.886,0,0,1,322.655,445.8Z" transform="translate(-224.411 -161.795)" fill="#fafafa"/>
          <path id="Trazado_180212" data-name="Trazado 180212" d="M330.771,431.459a1.675,1.675,0,0,1,.1.259q.205.778,2.486,13.123a.573.573,0,0,1,0,.184.843.843,0,0,1-.108.389.7.7,0,0,1-.638.389h-.119a.681.681,0,0,1-.584-.519l-.843-4.324h-4.324l-2.1,4.324a.911.911,0,0,1-.065.151.854.854,0,0,1-.659.368.789.789,0,0,1-.411-.119.735.735,0,0,1-.346-.638.563.563,0,0,1,0-.227c.13-.3.346-.789.649-1.438q4.572-9.966,5.459-11.772a.822.822,0,0,1,.735-.53.789.789,0,0,1,.768.378Zm-.951,2.929-2.357,4.951h3.329Z" transform="translate(-223.793 -161.795)" fill="#fafafa"/>
          <path id="Trazado_180213" data-name="Trazado 180213" d="M340.065,438.994c.5,1.384.876,2.443,1.157,3.243.649,1.816.984,2.778.984,2.875a.713.713,0,0,1-.119.389.746.746,0,0,1-.638.346.681.681,0,0,1-.638-.508,3.248,3.248,0,0,0-.119-.324c-.346-.8-.919-2.292-1.708-4.5l-3.61,4.929a.789.789,0,0,1-1.081.3.724.724,0,0,1-.292-.7v-.162a1.837,1.837,0,0,1,.389-.616c1.211-1.567,2.54-3.437,4.01-5.6-.162-.422-.3-.821-.443-1.2-1.362-3.643-2.032-5.524-2.032-5.643a.929.929,0,0,1,.086-.389.681.681,0,0,1,.627-.378.735.735,0,0,1,.7.422l2.162,5.74,4.248-5.794a.832.832,0,0,1,.681-.357.67.67,0,0,1,.357.086.713.713,0,0,1,.367.67,1.176,1.176,0,0,1-.076.357Z" transform="translate(-222.915 -161.796)" fill="#fafafa"/>
          <path id="Trazado_180214" data-name="Trazado 180214" d="M355.04,431.12a.865.865,0,0,1,.357.086.778.778,0,0,1,.411.659q-1.578,12.366-1.73,13.371a8.3,8.3,0,0,1-1.373,3.491,4.961,4.961,0,0,1-4.237,2.075,4.887,4.887,0,0,1-2.043-.541,4.518,4.518,0,0,1-2.248-1.978.713.713,0,0,1-.086-.368.789.789,0,0,1,.1-.378.757.757,0,0,1,.659-.378.735.735,0,0,1,.584.314,4.086,4.086,0,0,0,3.243,1.859,3.242,3.242,0,0,0,2.54-1.286,7.048,7.048,0,0,0,1.405-4.01,3.9,3.9,0,0,1-.94.994,3.848,3.848,0,0,1-2.292.746,2.967,2.967,0,0,1-.432,0,3.448,3.448,0,0,1-2.421-1.74,7.945,7.945,0,0,1-1.081-4.259,18.069,18.069,0,0,1,.108-2.389c.119-1.3.4-3.135.865-5.5a.9.9,0,0,1,.065-.227.692.692,0,0,1,.681-.519.66.66,0,0,1,.367.108.648.648,0,0,1,.378.605,26.145,26.145,0,0,1-.346,2.908,40.648,40.648,0,0,0-.508,4.453,8.918,8.918,0,0,0,.573,3.459c.432,1.081,1.081,1.557,1.892,1.557h.259a3.48,3.48,0,0,0,1.9-1.535,9.286,9.286,0,0,0,1.578-3.513l.973-7.275a.81.81,0,0,1,.1-.324.692.692,0,0,1,.7-.465Z" transform="translate(-222.098 -161.791)" fill="#fafafa"/>
          <path id="Trazado_180215" data-name="Trazado 180215" d="M442.359,458.714c-.216,0-.389-8.723-.389-19.457s.173-19.457.389-19.457.389,8.712.389,19.457S442.575,458.714,442.359,458.714Z" transform="translate(-214.175 -162.707)" fill="#f5f5f5"/>
          <path id="Trazado_180216" data-name="Trazado 180216" d="M282.029,458.714c-.216,0-.389-8.723-.389-19.457s.173-19.457.389-19.457.389,8.712.389,19.457S282.234,458.714,282.029,458.714Z" transform="translate(-227.153 -162.707)" fill="#e0e0e0"/>
          <path id="Trazado_180217" data-name="Trazado 180217" d="M445.8,458.714c-.216,0-.389-8.723-.389-19.457s.173-19.457.389-19.457.389,8.712.389,19.457S446.048,458.714,445.8,458.714Z" transform="translate(-213.896 -162.707)" fill="#f5f5f5"/>
          <path id="Trazado_180218" data-name="Trazado 180218" d="M278.81,458.714c-.216,0-.4-8.723-.4-19.457s.184-19.457.4-19.457.389,8.712.389,19.457S279.048,458.714,278.81,458.714Z" transform="translate(-227.415 -162.707)" fill="#e0e0e0"/>
          <path id="Trazado_180219" data-name="Trazado 180219" d="M396.565,425.715v-.065l22.386,18.063.195.162-.238.065-2.983.778-18.906,4.962h-.065L379.821,442.4l-4.853-2.075-1.276-.551-.324-.151-.108-.054h.108l.335.13,1.3.53,4.875,2.021,17.165,7.178h-.076l18.9-4.983,2.973-.778v.216L396.49,425.769h0" transform="translate(-219.737 -162.234)" fill="#e0e0e0"/>
          <path id="Trazado_180220" data-name="Trazado 180220" d="M413.753,439.76l1.221,1.146,1.632-.357-.713,1.513.843,1.459-1.665-.216-1.113,1.243-.313-1.643-1.535-.67,1.47-.811Z" transform="translate(-216.592 -161.092)" fill="#e0e0e0"/>
          <path id="Trazado_180221" data-name="Trazado 180221" d="M393.832,446.34l.832.7,1.049-.3-.4,1.016.595.9-1.081-.076-.67.854-.27-1.048L392.87,448l.919-.573Z" transform="translate(-218.149 -160.559)" fill="#e0e0e0"/>
          <path id="Trazado_180222" data-name="Trazado 180222" d="M371.82,437.412l1.33.086.822-1.049.335,1.286,1.243.454-1.124.713-.043,1.33-1.027-.843-1.286.368.5-1.243Z" transform="translate(-219.853 -161.36)" fill="#e0e0e0"/>
          <path id="Trazado_180223" data-name="Trazado 180223" d="M422.91,426.053l1.33.076.822-1.049.335,1.3,1.254.454-1.135.713-.043,1.33-1.027-.843-1.276.357.486-1.232Z" transform="translate(-215.717 -162.28)" fill="#e0e0e0"/>
          <path id="Trazado_180224" data-name="Trazado 180224" d="M393.82,425.216l.843.054.53-.67.205.822.8.292-.713.454-.032.854-.659-.54-.811.227.3-.789Z" transform="translate(-218.072 -162.319)" fill="#e0e0e0"/>
          <path id="Trazado_180225" data-name="Trazado 180225" d="M427.064,426.945c0,.086-7.242-.151-16.214-.54s-16.214-.757-16.16-.843,7.242.151,16.214.53S427.064,426.858,427.064,426.945Z" transform="translate(-218.002 -162.242)" fill="#e0e0e0"/>
          <path id="Trazado_180226" data-name="Trazado 180226" d="M448.425,421.269H233.608c-2.81-6.378-3.5-12.442,0-17.879H448.425C451.246,409.9,451.008,415.81,448.425,421.269Z" transform="translate(-231.233 -164.036)" fill="#e0e0e0"/>
          <rect id="Rectángulo_38183" data-name="Rectángulo 38183" width="116.386" height="6.507" transform="translate(46.855 244.467)" fill="#ebebeb"/>
          <path id="Trazado_180227" data-name="Trazado 180227" d="M241.339,421.315a6.291,6.291,0,0,1-1.7-2.162,15.814,15.814,0,0,1-1.135-12.971,6.183,6.183,0,0,1,1.3-2.421,24.323,24.323,0,0,1-.767,2.594,18.019,18.019,0,0,0,1.081,12.507,19.857,19.857,0,0,1,1.221,2.454Z" transform="translate(-230.717 -164.006)" fill="#e0e0e0"/>
          <path id="Trazado_180228" data-name="Trazado 180228" d="M245.636,421.315a6.291,6.291,0,0,1-1.7-2.162,15.814,15.814,0,0,1-1.081-12.971,6.183,6.183,0,0,1,1.3-2.421,24.324,24.324,0,0,1-.767,2.594,18.019,18.019,0,0,0,1.081,12.507A19.852,19.852,0,0,1,245.636,421.315Z" transform="translate(-230.366 -164.006)" fill="#e0e0e0"/>
          <path id="Trazado_180229" data-name="Trazado 180229" d="M424.122,420.941c-.238-.076,1.524-3.8,1.513-8.734s-1.643-8.648-1.405-8.766,2.248,3.621,2.162,8.766S424.262,421.07,424.122,420.941Z" transform="translate(-215.621 -164.032)" fill="#f5f5f5"/>
          <path id="Trazado_180230" data-name="Trazado 180230" d="M420.424,420.872c-.227,0,.67-3.827.649-8.561s-.9-8.5-.67-8.561,1.459,3.708,1.448,8.561S420.608,420.948,420.424,420.872Z" transform="translate(-215.923 -164.007)" fill="#f5f5f5"/>
          <path id="Trazado_180231" data-name="Trazado 180231" d="M269.737,160.263l-1.157,2.573s16.214,1.265,22.073,9.469h0a1.967,1.967,0,0,0,.908,1.6l3.156,2a1.924,1.924,0,0,0,2.162-.13h0a21.619,21.619,0,0,1,15.739,8.81l2.367,2.994,10.323-34.9L291,125.77Z" transform="translate(-111.565 -127.431)" fill="#e0e0e0"/>
          <path id="Trazado_180232" data-name="Trazado 180232" d="M269.522,153.782l-2.162,4.572s17.241-1.081,26.278,13.847l7.794-23.392S272.884,149.707,269.522,153.782Z" transform="translate(-111.664 -125.566)" fill="#ebebeb"/>
          <path id="Trazado_180233" data-name="Trazado 180233" d="M283.821,122.02s22.051-4,25.294,19.154l-15.544,33.218s-6.907-22.127-26.051-18.214Z" transform="translate(-111.651 -127.756)" fill="#f5f5f5"/>
          <path id="Trazado_180234" data-name="Trazado 180234" d="M291.63,172.852s18.117-1.665,23.23,12.625l12.474-31.229-20.7-13.469Z" transform="translate(-109.699 -126.216)" fill="#ebebeb"/>
          <path id="Trazado_180235" data-name="Trazado 180235" d="M307.164,140.048s10.139-8.107,19.6-1.935l5.956,4.162-11.966,31.661s-14.755-9.869-29.132-.659Z" transform="translate(-109.7 -126.62)" fill="#f5f5f5"/>
          <path id="Trazado_180236" data-name="Trazado 180236" d="M291.63,172.938a6.973,6.973,0,0,1,.508-1.34l1.6-3.578,5.4-11.728c2.086-4.529,3.967-8.648,5.4-11.739L306.18,141a6.28,6.28,0,0,1,.67-1.276,7.962,7.962,0,0,1-.454,1.373c-.324.865-.832,2.108-1.47,3.632-1.276,3.048-3.135,7.232-5.253,11.815s-4.1,8.7-5.567,11.663c-.735,1.481-1.34,2.67-1.773,3.491A6.717,6.717,0,0,1,291.63,172.938Z" transform="translate(-109.699 -126.302)" fill="#e0e0e0"/>
          <path id="Trazado_180237" data-name="Trazado 180237" d="M325.56,145.026c-.065.086-.973-.616-2.605-1.416a18.646,18.646,0,0,0-13.836-1.081c-1.74.551-2.746,1.081-2.789,1.016s.205-.205.659-.476a11.651,11.651,0,0,1,1.989-.94,16.9,16.9,0,0,1,7.2-1.005,17.122,17.122,0,0,1,6.972,2.075,11.588,11.588,0,0,1,1.827,1.232C325.431,144.8,325.582,144.994,325.56,145.026Z" transform="translate(-108.51 -126.192)" fill="#e0e0e0"/>
          <path id="Trazado_180238" data-name="Trazado 180238" d="M324.721,148.566c-.065.086-.973-.616-2.616-1.427a18.614,18.614,0,0,0-13.825-1.081c-1.74.551-2.746,1.081-2.8,1.016s.216-.205.659-.476a11.89,11.89,0,0,1,2-.94,17.122,17.122,0,0,1,14.171,1.081,12.386,12.386,0,0,1,1.827,1.232C324.538,148.329,324.743,148.534,324.721,148.566Z" transform="translate(-108.578 -125.906)" fill="#e0e0e0"/>
          <path id="Trazado_180239" data-name="Trazado 180239" d="M323.141,152.076c-.065.086-.973-.616-2.605-1.416a18.646,18.646,0,0,0-13.836-1.081c-1.74.551-2.735,1.081-2.789,1.016s.216-.205.659-.476a12.074,12.074,0,0,1,1.989-.94,16.917,16.917,0,0,1,7.21-1.005,17.122,17.122,0,0,1,6.961,2.075,12.335,12.335,0,0,1,1.838,1.232C322.968,151.849,323.173,152.044,323.141,152.076Z" transform="translate(-108.706 -125.622)" fill="#e0e0e0"/>
          <path id="Trazado_180240" data-name="Trazado 180240" d="M322.161,155.6c-.065.086-.973-.616-2.616-1.427a18.614,18.614,0,0,0-13.825-1.081c-1.74.551-2.746,1.081-2.8,1.016s.216-.205.659-.476a11.89,11.89,0,0,1,2-.94,17.122,17.122,0,0,1,14.171,1.081A12.384,12.384,0,0,1,321.578,155C321.978,155.359,322.183,155.564,322.161,155.6Z" transform="translate(-108.786 -125.337)" fill="#e0e0e0"/>
          <path id="Trazado_180241" data-name="Trazado 180241" d="M321.18,159.3c-.065.086-.973-.616-2.605-1.427a18.787,18.787,0,0,0-13.836-1.081c-1.74.551-2.746,1.081-2.789,1.016s.205-.195.659-.465a11.554,11.554,0,0,1,1.989-.951,17.122,17.122,0,0,1,14.171,1.081,11.514,11.514,0,0,1,1.827,1.243A5.367,5.367,0,0,1,321.18,159.3Z" transform="translate(-108.864 -125.038)" fill="#e0e0e0"/>
          <path id="Trazado_180242" data-name="Trazado 180242" d="M320.365,163.6c-.076.086-1.081-.681-2.854-1.524a21.522,21.522,0,0,0-3.243-1.232,26.518,26.518,0,0,0-4.183-.832,25.746,25.746,0,0,0-4.248-.086,20.4,20.4,0,0,0-3.427.562c-1.924.5-3.016,1.081-3.07,1.027s.238-.216.735-.5a5.753,5.753,0,0,1,.93-.454,8.261,8.261,0,0,1,1.286-.486,17.428,17.428,0,0,1,3.491-.7,22.806,22.806,0,0,1,4.324,0,24.1,24.1,0,0,1,4.324.9,19.522,19.522,0,0,1,3.243,1.384,12.19,12.19,0,0,1,1.178.692,8.024,8.024,0,0,1,.832.605Q320.4,163.556,320.365,163.6Z" transform="translate(-109.075 -124.719)" fill="#e0e0e0"/>
          <path id="Trazado_180243" data-name="Trazado 180243" d="M318.965,166.658c-.065.086-1.081-.692-2.865-1.5A21.013,21.013,0,0,0,312.8,164a24.862,24.862,0,0,0-8.507-.649,21.076,21.076,0,0,0-3.427.649c-1.924.53-3.016,1.157-3.07,1.081s.238-.205.735-.5a6.722,6.722,0,0,1,.93-.465,11.117,11.117,0,0,1,1.286-.5,18.3,18.3,0,0,1,3.491-.778,25.217,25.217,0,0,1,4.378-.108,24.105,24.105,0,0,1,4.324.767,18.439,18.439,0,0,1,3.34,1.3,10.529,10.529,0,0,1,1.189.692,5.513,5.513,0,0,1,.854.595C318.771,166.409,319,166.625,318.965,166.658Z" transform="translate(-109.2 -124.443)" fill="#e0e0e0"/>
          <path id="Trazado_180244" data-name="Trazado 180244" d="M292.563,161.539c-.1,0-.3-1.254-1.081-3.146a16.776,16.776,0,0,0-11.739-9.923c-2-.476-3.3-.465-3.243-.573a2.744,2.744,0,0,1,.908-.086,14.4,14.4,0,0,1,2.465.238,16.117,16.117,0,0,1,7.372,3.5,15.89,15.89,0,0,1,4.67,6.68,12.334,12.334,0,0,1,.649,2.4,2.162,2.162,0,0,1,0,.908Z" transform="translate(-110.924 -125.648)" fill="#e0e0e0"/>
          <path id="Trazado_180245" data-name="Trazado 180245" d="M294.327,157.549c-.108,0-.313-1.265-1.081-3.156a16.776,16.776,0,0,0-11.739-9.923c-2-.465-3.3-.454-3.3-.562a2.81,2.81,0,0,1,.908-.086,13.466,13.466,0,0,1,2.475.238,15.89,15.89,0,0,1,12.042,10.183,13.871,13.871,0,0,1,.649,2.4A2.768,2.768,0,0,1,294.327,157.549Z" transform="translate(-110.785 -125.971)" fill="#e0e0e0"/>
          <path id="Trazado_180246" data-name="Trazado 180246" d="M296.074,153.547c-.1,0-.3-1.254-1.081-3.146a16.722,16.722,0,0,0-11.75-9.923c-2-.476-3.3-.465-3.243-.562s.314-.086.908-.086a12.407,12.407,0,0,1,2.465.238,15.944,15.944,0,0,1,12.053,10.172,13.188,13.188,0,0,1,.638,2.4A2.674,2.674,0,0,1,296.074,153.547Z" transform="translate(-110.641 -126.293)" fill="#e0e0e0"/>
          <path id="Trazado_180247" data-name="Trazado 180247" d="M297.837,149.559c-.108,0-.3-1.265-1.081-3.156a16.8,16.8,0,0,0-11.739-9.912c-2-.476-3.3-.465-3.3-.573a2.811,2.811,0,0,1,.908-.086,14.505,14.505,0,0,1,2.475.238,15.89,15.89,0,0,1,12.053,10.182,13.864,13.864,0,0,1,.649,2.4,2.768,2.768,0,0,1,.032.908Z" transform="translate(-110.501 -126.617)" fill="#e0e0e0"/>
          <path id="Trazado_180248" data-name="Trazado 180248" d="M299.593,145.558c-.108,0-.314-1.254-1.081-3.146a16.722,16.722,0,0,0-11.739-9.923c-2-.465-3.3-.454-3.243-.562a2.162,2.162,0,0,1,.908-.086,12.408,12.408,0,0,1,2.465.238,15.933,15.933,0,0,1,12.053,10.183,12.911,12.911,0,0,1,.638,2.389A2.637,2.637,0,0,1,299.593,145.558Z" transform="translate(-110.355 -126.941)" fill="#e0e0e0"/>
          <path id="Trazado_180249" data-name="Trazado 180249" d="M301.347,141.569c-.108,0-.3-1.254-1.081-3.146a16.776,16.776,0,0,0-11.739-9.923c-2-.476-3.3-.465-3.3-.573a2.81,2.81,0,0,1,.908-.086,14.5,14.5,0,0,1,2.475.238,15.944,15.944,0,0,1,12.042,10.183,14.118,14.118,0,0,1,.649,2.4A2.163,2.163,0,0,1,301.347,141.569Z" transform="translate(-110.217 -127.264)" fill="#e0e0e0"/>
          <path id="Trazado_180276" data-name="Trazado 180276" d="M415.716,261.568a15.317,15.317,0,1,0-25.845.886l-1.967,3.329,11.577,6.767s1.167-1.827,2.162-3.481A15.317,15.317,0,0,0,415.716,261.568Z" transform="translate(-189.256 -129.251)" fill="#ebebeb"/>
          <path id="Trazado_180277" data-name="Trazado 180277" d="M394.928,269.014l.108-.151.335-.443c.292-.389.735-.962,1.319-1.686s1.308-1.6,2.162-2.562a22.917,22.917,0,0,1,3.362-2.973,15.066,15.066,0,0,1,2.248-1.34,2.8,2.8,0,0,1,1.373-.281,1.578,1.578,0,0,1,1.232.778,1.081,1.081,0,0,1-.346,1.416,2.162,2.162,0,0,1-1.535.281,4.183,4.183,0,0,1-2.627-1.805,4.237,4.237,0,0,1-.573-3.243,3.07,3.07,0,0,1,.822-1.567,1.373,1.373,0,0,1,1.74-.216.984.984,0,0,1,.389.854,1.4,1.4,0,0,1-.367.886,2.973,2.973,0,0,1-1.7.757,4.551,4.551,0,0,1-3.61-.908,4,4,0,0,1-1.427-3.4,2.3,2.3,0,0,1,.843-1.654,1.081,1.081,0,0,1,1.7.313,1.578,1.578,0,0,1,.216.908,2.464,2.464,0,0,1-.249.876,4.41,4.41,0,0,1-1.081,1.394,4.562,4.562,0,0,1-3.167,1.081,4.616,4.616,0,0,1-2.951-1.232,2.335,2.335,0,0,1-.822-1.319,1.189,1.189,0,0,1,.681-1.319,1.016,1.016,0,0,1,.757,0,1.557,1.557,0,0,1,.562.5,2.162,2.162,0,0,1,.27,1.384c-.086.908-.227,1.762-.346,2.583-.508,3.243-1.081,5.913-1.438,7.729-.195.908-.357,1.611-.476,2.086l-.13.54-.054.184v-.195a3.372,3.372,0,0,1,.119-.54c.1-.486.249-1.189.432-2.086.368-1.827.886-4.453,1.384-7.74.108-.822.249-1.686.335-2.573a2.162,2.162,0,0,0-.259-1.286.919.919,0,0,0-1.708.649,2.238,2.238,0,0,0,.767,1.232,4.507,4.507,0,0,0,2.854,1.178,4.4,4.4,0,0,0,3.037-1.081,4.323,4.323,0,0,0,1.081-1.33,1.643,1.643,0,0,0,0-1.611.951.951,0,0,0-.638-.476.983.983,0,0,0-.778.216A2.162,2.162,0,0,0,398,253.34a3.772,3.772,0,0,0,1.373,3.243,4.324,4.324,0,0,0,3.448.876,2.746,2.746,0,0,0,1.589-.7,1.2,1.2,0,0,0,.324-.757.767.767,0,0,0-.324-.7,1.081,1.081,0,0,0-.778-.173,1.3,1.3,0,0,0-.724.367,3.1,3.1,0,0,0-.767,1.481,4.075,4.075,0,0,0,.54,3.156,4.032,4.032,0,0,0,2.519,1.74,2.065,2.065,0,0,0,1.416-.249.919.919,0,0,0,.292-1.211,1.427,1.427,0,0,0-1.081-.7,2.616,2.616,0,0,0-1.308.27,13.554,13.554,0,0,0-2.227,1.308,22.78,22.78,0,0,0-3.362,2.94c-.908.951-1.643,1.816-2.227,2.529l-1.34,1.665-.357.432Z" transform="translate(-188.855 -128.2)" fill="#e0e0e0"/>
          <path id="Trazado_180278" data-name="Trazado 180278" d="M397.346,272.088l-9.934-5.837a.865.865,0,0,1-.3-1.189h0a.854.854,0,0,1,1.178-.3l9.934,5.837a.865.865,0,0,1,.313,1.178h0A.876.876,0,0,1,397.346,272.088Z" transform="translate(-189.273 -127.134)" fill="#e0e0e0"/>
          <path id="Trazado_180279" data-name="Trazado 180279" d="M397.061,272.576l-9.934-5.837a.865.865,0,1,0-.876,1.492l1.081.638-.162,3.61a1.081,1.081,0,0,0,.54,1.005l3.556,2.086a1.081,1.081,0,0,0,1.157,0l3.016-1.913.746.432a.865.865,0,1,0,.876-1.492Z" transform="translate(-189.367 -126.974)" fill="#e0e0e0"/>
          <g id="Grupo_129352" data-name="Grupo 129352" transform="translate(200.597 110.892)" opacity="0.2">
            <path id="Trazado_180280" data-name="Trazado 180280" d="M398.773,240.29a11.241,11.241,0,0,1,3.675-.205,7.967,7.967,0,0,1,2.389.605c.53.238.778.454.746.573-.086.281-1.3,0-3.178.151a12.582,12.582,0,0,0-11.209,7.75c-.767,1.719-.973,2.94-1.265,2.919-.119,0-.227-.324-.27-.908a8.215,8.215,0,0,1,.27-2.443,11.739,11.739,0,0,1,1.492-3.362,11.89,11.89,0,0,1,3.167-3.243" transform="translate(-389.654 -240.019)" fill="#fff"/>
          </g>
          <g id="Grupo_129353" data-name="Grupo 129353" transform="translate(218.053 112.525)" opacity="0.2">
            <path id="Trazado_180281" data-name="Trazado 180281" d="M407.1,243.584c-.832-.508-1.438-1.167-1.265-1.665.086-.238.378-.378.789-.389a3.092,3.092,0,0,1,2.5,1.481.821.821,0,0,1,0,.886" transform="translate(-405.803 -241.53)" fill="#fff"/>
          </g>
          <path id="Trazado_180282" data-name="Trazado 180282" d="M391.989,275.2s-.205-.249-.562-.616a6.768,6.768,0,0,0-1.557-1.2,6.636,6.636,0,0,0-1.859-.67c-.5-.1-.811-.119-.811-.141a2.3,2.3,0,0,1,.832,0,5.469,5.469,0,0,1,1.924.638,5.319,5.319,0,0,1,1.567,1.276,2.269,2.269,0,0,1,.465.713Z" transform="translate(-189.256 -126.495)" fill="#ebebeb"/>
          <path id="Trazado_180283" data-name="Trazado 180283" d="M395.321,273.5s-1.838-.973-4.054-2.281-3.989-2.389-3.967-2.432,1.848.973,4.064,2.27S395.353,273.46,395.321,273.5Z" transform="translate(-189.248 -126.798)" fill="#ebebeb"/>
          <path id="Trazado_180284" data-name="Trazado 180284" d="M394.019,274.187a5.936,5.936,0,0,1-1.081-.476c-.627-.313-1.492-.778-2.421-1.308s-1.762-1.027-2.356-1.405a6.089,6.089,0,0,1-.94-.649,7.855,7.855,0,0,1,1.005.53l2.389,1.362c.908.519,1.719.984,2.389,1.351a7.686,7.686,0,0,1,1.016.595Z" transform="translate(-189.254 -126.672)" fill="#ebebeb"/>
        </g>
        <g id="freepik--Icons--inject-17" transform="translate(-149.787 344.885)">
          <path id="Trazado_180340" data-name="Trazado 180340" d="M293,105.765l.1,3.718s19.9-7.815,31.574-1.47h0a2.562,2.562,0,0,0,1.978,1.373l4.886.562a2.562,2.562,0,0,0,2.529-1.427h0s11.8-5.243,23.694,1.405l4.518,2.162-7.815-47.259L298.4,52.69Z" transform="translate(-287.422 -46.278)" fill="#ec7840"/>
          <path id="Trazado_180341" data-name="Trazado 180341" d="M290.18,98.711v6.68s19.792-11.188,39.066,1.319l-4.2-32.18S291.823,91.955,290.18,98.711Z" transform="translate(-287.651 -44.51)" fill="#ebebeb"/>
          <path id="Trazado_180342" data-name="Trazado 180342" d="M287.84,52.565s23.846-17.436,40.946,8.118l.67,48.275s-20.906-22.257-41.3-6.615Z" transform="translate(-287.84 -46.758)" fill="#f5f5f5"/>
          <path id="Trazado_180343" data-name="Trazado 180343" d="M326.389,107.786s20.538-12.388,34.752,1.6l-3.156-44.081L325.74,61.23Z" transform="translate(-284.772 -45.586)" fill="#ebebeb"/>
          <path id="Trazado_180344" data-name="Trazado 180344" d="M325.69,60.707s7.35-15.425,22.105-13.555l9.437,1.513,4.01,44.373S338.11,89.8,326.36,108.971Z" transform="translate(-284.776 -46.739)" fill="#f5f5f5"/>
          <path id="Trazado_180345" data-name="Trazado 180345" d="M326.421,107.9a11.185,11.185,0,0,1-.13-1.892c0-1.33-.076-3.059-.13-5.156-.086-4.454-.195-10.41-.314-17s-.259-12.55-.346-17c-.054-2.086-.1-3.827-.13-5.145a11.617,11.617,0,0,1,0-1.892,10.5,10.5,0,0,1,.216,1.881c.108,1.211.205,2.973.324,5.145.227,4.324.411,10.366.53,17s.151,12.658.13,17.014c0,2.1,0,3.827-.065,5.156A11.578,11.578,0,0,1,326.421,107.9Z" transform="translate(-284.805 -45.701)" fill="#263238"/>
          <path id="Trazado_180346" data-name="Trazado 180346" d="M351.819,55.233c0,.119-1.5-.216-3.9-.249a23.393,23.393,0,0,0-4.2.324,24.408,24.408,0,0,0-9.534,3.762,25.253,25.253,0,0,0-3.3,2.638c-1.73,1.665-2.583,2.919-2.681,2.843a3.771,3.771,0,0,1,.54-.908,8.783,8.783,0,0,1,.746-1.005,14.734,14.734,0,0,1,1.081-1.243,21.916,21.916,0,0,1,3.243-2.789,24.26,24.26,0,0,1,4.713-2.486,25.814,25.814,0,0,1,5.1-1.362,21.62,21.62,0,0,1,4.324-.195,13.4,13.4,0,0,1,1.643.162,7.566,7.566,0,0,1,1.232.216,3.578,3.578,0,0,1,.994.292Z" transform="translate(-284.573 -46.129)" fill="#263238"/>
          <path id="Trazado_180347" data-name="Trazado 180347" d="M352.845,59.9c0,.119-1.492-.216-3.9-.249a23.392,23.392,0,0,0-4.2.324,24.408,24.408,0,0,0-9.534,3.762,23.566,23.566,0,0,0-3.243,2.627c-1.74,1.675-2.594,2.919-2.692,2.854a3.924,3.924,0,0,1,.54-.919,9.857,9.857,0,0,1,.746-.994,13.2,13.2,0,0,1,1.081-1.243,21.93,21.93,0,0,1,3.243-2.8,24.861,24.861,0,0,1,4.659-2.486,24.408,24.408,0,0,1,5.1-1.362,22.593,22.593,0,0,1,4.324-.205,15.943,15.943,0,0,1,1.643.162,8.767,8.767,0,0,1,1.232.227,3.243,3.243,0,0,1,1.005.3Z" transform="translate(-284.486 -45.752)" fill="#263238"/>
          <path id="Trazado_180348" data-name="Trazado 180348" d="M353.005,64.973c0,.119-1.5-.216-3.913-.249a23.468,23.468,0,0,0-4.2.324,26.419,26.419,0,0,0-4.962,1.373,27.023,27.023,0,0,0-4.572,2.389,24.225,24.225,0,0,0-3.243,2.627c-1.74,1.675-2.583,2.929-2.681,2.854a3.481,3.481,0,0,1,.54-.919,8.455,8.455,0,0,1,.746-.994,13.2,13.2,0,0,1,1.081-1.243,21.277,21.277,0,0,1,3.243-2.8,25.545,25.545,0,0,1,4.659-2.486,24.582,24.582,0,0,1,5.1-1.362,21.62,21.62,0,0,1,4.324-.195,13.973,13.973,0,0,1,1.654.151,8.3,8.3,0,0,1,1.222.227,3.492,3.492,0,0,1,1.005.3Z" transform="translate(-284.473 -45.341)" fill="#263238"/>
          <path id="Trazado_180349" data-name="Trazado 180349" d="M322.337,93.365c-.1.076-1.081-1.34-3.081-3.135A21.878,21.878,0,0,0,299.6,85.2c-2.648.605-4.162,1.384-4.2,1.276a3.837,3.837,0,0,1,1.081-.584,18.5,18.5,0,0,1,3.059-1.081,21.024,21.024,0,0,1,20.052,5.124,19.076,19.076,0,0,1,2.162,2.443,4.224,4.224,0,0,1,.584.984Z" transform="translate(-287.228 -43.736)" fill="#263238"/>
          <path id="Trazado_180350" data-name="Trazado 180350" d="M322.117,87.637c-.086.065-1.081-1.351-3.07-3.146a21.965,21.965,0,0,0-19.663-5.026c-2.637.605-4.162,1.384-4.2,1.286a4.324,4.324,0,0,1,1.081-.595,18.678,18.678,0,0,1,3.048-1.1,21.1,21.1,0,0,1,20.052,5.124,18.713,18.713,0,0,1,2.162,2.443A3.752,3.752,0,0,1,322.117,87.637Z" transform="translate(-287.246 -44.202)" fill="#263238"/>
          <path id="Trazado_180351" data-name="Trazado 180351" d="M321.907,81.895c-.1.065-1.081-1.34-3.081-3.146a21.911,21.911,0,0,0-19.652-5.016c-2.638.605-4.162,1.384-4.2,1.276a4,4,0,0,1,1.081-.595,18.5,18.5,0,0,1,3.059-1.081,21.3,21.3,0,0,1,10.7-.065,21.078,21.078,0,0,1,9.307,5.167,17.612,17.612,0,0,1,2.162,2.443,3.631,3.631,0,0,1,.627,1.016Z" transform="translate(-287.263 -44.665)" fill="#263238"/>
          <path id="Trazado_180352" data-name="Trazado 180352" d="M321.687,76.156c-.086.076-1.081-1.34-3.07-3.146a21.911,21.911,0,0,0-19.652-5.016c-2.648.605-4.162,1.384-4.216,1.276a4.323,4.323,0,0,1,1.081-.595,17.846,17.846,0,0,1,3.07-1.081,21.024,21.024,0,0,1,20.052,5.124,17.4,17.4,0,0,1,2.162,2.443,3.817,3.817,0,0,1,.573.994Z" transform="translate(-287.281 -45.13)" fill="#263238"/>
          <path id="Trazado_180353" data-name="Trazado 180353" d="M321.477,70.415c-.086.076-1.081-1.34-3.081-3.135a21.879,21.879,0,0,0-19.652-5.026c-2.638.605-4.162,1.384-4.2,1.276a3.837,3.837,0,0,1,1.081-.584,18.494,18.494,0,0,1,3.059-1.081,21.024,21.024,0,0,1,20.052,5.124,17.512,17.512,0,0,1,2.162,2.443A3.816,3.816,0,0,1,321.477,70.415Z" transform="translate(-287.298 -45.594)" fill="#263238"/>
          <path id="Trazado_180354" data-name="Trazado 180354" d="M321.268,64.7c-.1.065-1.081-1.351-3.081-3.146a21.954,21.954,0,0,0-19.652-5.026c-2.648.605-4.162,1.384-4.216,1.286a4.324,4.324,0,0,1,1.081-.595,19.058,19.058,0,0,1,3.07-1.081,21.1,21.1,0,0,1,20.052,5.124,19.078,19.078,0,0,1,2.162,2.443A4.637,4.637,0,0,1,321.268,64.7Z" transform="translate(-287.315 -46.057)" fill="#263238"/>
          <path id="Trazado_180355" data-name="Trazado 180355" d="M331.513,78.831l-.173,13.544s8.993-7.718,21.2-8.042l-.746-13.89s-13.825-1.016-20.279,8.388" transform="translate(-284.319 -44.843)" fill="#ebebeb"/>
        </g>
        <g id="freepik--Books--inject-17" transform="translate(-161.967 327.213)">
          <path id="Trazado_180362" data-name="Trazado 180362" d="M151.371,454.368l-.721-64h34.828l1.213,64Z" transform="translate(-34.923 -262.848)" fill="#f8f0f0"/>
          <path id="Trazado_180850" data-name="Trazado 180850" d="M151.371,454.368l-.721-64h34.828l1.213,64Z" transform="translate(-34.923 -457.868)" fill="#f8f0f0"/>
          <path id="Trazado_180363" data-name="Trazado 180363" d="M183.275,397.579c0,.394-7.248.689-16.184.689s-16.2-.3-16.2-.689,7.248-.689,16.2-.689S183.275,397.2,183.275,397.579Z" transform="translate(-34.769 -258.677)" fill="#e0e0e0"/>
          <path id="Trazado_180851" data-name="Trazado 180851" d="M183.275,397.579c0,.394-7.248.689-16.184.689s-16.2-.3-16.2-.689,7.248-.689,16.2-.689S183.275,397.2,183.275,397.579Z" transform="translate(-34.769 -453.697)" fill="#e0e0e0"/>
          <path id="Trazado_180364" data-name="Trazado 180364" d="M183.275,403.615c0,.377-7.248.689-16.184.689s-16.2-.312-16.2-.689,7.248-.705,16.2-.705S183.275,403.221,183.275,403.615Z" transform="translate(-34.769 -254.826)" fill="#e0e0e0"/>
          <path id="Trazado_180852" data-name="Trazado 180852" d="M183.275,403.615c0,.377-7.248.689-16.184.689s-16.2-.312-16.2-.689,7.248-.705,16.2-.705S183.275,403.221,183.275,403.615Z" transform="translate(-34.769 -449.846)" fill="#e0e0e0"/>
          <path id="Trazado_180365" data-name="Trazado 180365" d="M183.275,409.629c0,.377-7.248.689-16.184.689s-16.2-.311-16.2-.689,7.248-.689,16.2-.689S183.275,409.252,183.275,409.629Z" transform="translate(-34.769 -250.969)" fill="#e0e0e0"/>
          <path id="Trazado_180854" data-name="Trazado 180854" d="M183.275,409.629c0,.377-7.248.689-16.184.689s-16.2-.311-16.2-.689,7.248-.689,16.2-.689S183.275,409.252,183.275,409.629Z" transform="translate(-34.769 -445.988)" fill="#e0e0e0"/>
          <path id="Trazado_180366" data-name="Trazado 180366" d="M183.275,415.665c0,.377-7.248.689-16.184.689s-16.2-.311-16.2-.689,7.248-.705,16.2-.705S183.275,415.271,183.275,415.665Z" transform="translate(-34.769 -247.117)" fill="#e0e0e0"/>
          <path id="Trazado_180855" data-name="Trazado 180855" d="M183.275,415.665c0,.377-7.248.689-16.184.689s-16.2-.311-16.2-.689,7.248-.705,16.2-.705S183.275,415.271,183.275,415.665Z" transform="translate(-34.769 -442.137)" fill="#e0e0e0"/>
          <path id="Trazado_180367" data-name="Trazado 180367" d="M183.275,421.679c0,.377-7.248.689-16.184.689s-16.2-.312-16.2-.689,7.248-.689,16.2-.689S183.275,421.3,183.275,421.679Z" transform="translate(-34.769 -243.26)" fill="#e0e0e0"/>
          <path id="Trazado_180856" data-name="Trazado 180856" d="M183.275,421.679c0,.377-7.248.689-16.184.689s-16.2-.312-16.2-.689,7.248-.689,16.2-.689S183.275,421.3,183.275,421.679Z" transform="translate(-34.769 -438.279)" fill="#e0e0e0"/>
          <path id="Trazado_180368" data-name="Trazado 180368" d="M148.81,389.08H534.933c4.772,21.185,4.1,44.5,0,69.18H150.45v-4.706h23.5a11.1,11.1,0,0,0,11.085-11.1V404.165a11.085,11.085,0,0,0-11.085-11.085H148.81Z" transform="translate(-36.1 -263.674)" fill="#ff9b6a"/>
          <path id="Trazado_180849" data-name="Trazado 180849" d="M148.81,389.08H534.933c4.772,21.185,4.1,44.5,0,69.18H150.45v-4.706h23.5a11.1,11.1,0,0,0,11.085-11.1V404.165a11.085,11.085,0,0,0-11.085-11.085H148.81Z" transform="translate(-36.1 -458.693)" fill="#ff5151"/>
          <path id="Trazado_180375" data-name="Trazado 180375" d="M376.429,459.757c-.377,0-.689-15.889-.689-35.484s.312-35.484.689-35.484.689,15.872.689,35.484S376.806,459.757,376.429,459.757Z" transform="translate(109.073 -263.859)" fill="#263238"/>
          <path id="Trazado_180866" data-name="Trazado 180866" d="M376.429,459.757c-.377,0-.689-15.889-.689-35.484s.312-35.484.689-35.484.689,15.872.689,35.484S376.806,459.757,376.429,459.757Z" transform="translate(109.073 -458.879)" fill="#263238"/>
          <path id="Trazado_180376" data-name="Trazado 180376" d="M183.729,459.757c-.377,0-.689-15.889-.689-35.484s.312-35.484.689-35.484.689,15.872.689,35.484S184.106,459.757,183.729,459.757Z" transform="translate(-14.202 -263.859)" fill="#263238"/>
          <path id="Trazado_180857" data-name="Trazado 180857" d="M183.729,459.757c-.377,0-.689-15.889-.689-35.484s.312-35.484.689-35.484.689,15.872.689,35.484S184.106,459.757,183.729,459.757Z" transform="translate(-14.202 -458.879)" fill="#263238"/>
          <path id="Trazado_180377" data-name="Trazado 180377" d="M380.559,459.757c-.377,0-.689-15.889-.689-35.484s.312-35.484.689-35.484.689,15.872.689,35.484S380.936,459.757,380.559,459.757Z" transform="translate(111.715 -263.859)" fill="#263238"/>
          <path id="Trazado_180867" data-name="Trazado 180867" d="M380.559,459.757c-.377,0-.689-15.889-.689-35.484s.312-35.484.689-35.484.689,15.872.689,35.484S380.936,459.757,380.559,459.757Z" transform="translate(111.715 -458.879)" fill="#263238"/>
          <path id="Trazado_180378" data-name="Trazado 180378" d="M179.869,459.757c-.377,0-.689-15.889-.689-35.484s.312-35.484.689-35.484.689,15.872.689,35.484S180.246,459.757,179.869,459.757Z" transform="translate(-16.671 -263.859)" fill="#263238"/>
          <path id="Trazado_180858" data-name="Trazado 180858" d="M179.869,459.757c-.377,0-.689-15.889-.689-35.484s.312-35.484.689-35.484.689,15.872.689,35.484S180.246,459.757,179.869,459.757Z" transform="translate(-16.671 -458.879)" fill="#263238"/>
          <path id="Trazado_180379" data-name="Trazado 180379" d="M335.674,395.971v-.131l40.813,32.926.361.3-.443.115-5.427,1.427-34.434,9.051h0c-12.806-5.428-23.612-10-31.155-13.249l-9.166-3.8-2.345-1.017-.59-.262-.2-.1h.213l.607.23,2.361.967,8.887,3.673,31.286,13.118h-.131l34.434-9.1,5.444-1.427-.1.41-40.7-32.991h0v-.082" transform="translate(56.2 -259.349)" fill="#e0e0e0"/>
          <path id="Trazado_180380" data-name="Trazado 180380" d="M342.824,412.8l2.23,2.083,2.984-.64L346.727,417l1.541,2.64-3.033-.377L343.2,421.54l-.574-3-2.788-1.246,2.673-1.459Z" transform="translate(86.107 -248.499)" fill="#e0e0e0"/>
          <path id="Trazado_180381" data-name="Trazado 180381" d="M318.475,420.71l1.508,1.263,1.918-.541-.738,1.836,1.1,1.656-1.984-.131-1.213,1.541-.492-1.9-1.853-.689,1.672-1.066Z" transform="translate(71.317 -243.439)" fill="#e0e0e0"/>
          <path id="Trazado_180382" data-name="Trazado 180382" d="M291.42,410.575l2.41.147,1.509-1.9.607,2.345,2.279.836-2.05,1.3-.1,2.427-1.869-1.541-2.328.656.885-2.246Z" transform="translate(55.132 -251.045)" fill="#e0e0e0"/>
          <path id="Trazado_180383" data-name="Trazado 180383" d="M352.82,396.914l2.427.148,1.492-1.9.607,2.345,2.279.836-2.05,1.312-.082,2.427-1.886-1.558-2.328.672.886-2.263Z" transform="translate(94.411 -259.784)" fill="#e0e0e0"/>
          <path id="Trazado_180384" data-name="Trazado 180384" d="M317.85,395.7l1.558.1.951-1.213.393,1.492,1.443.541-1.312.82-.049,1.558-1.2-.984-1.492.426.574-1.443Z" transform="translate(72.04 -260.155)" fill="#e0e0e0"/>
          <path id="Trazado_180385" data-name="Trazado 180385" d="M377.92,398.266c0,.148-13.2-.3-29.515-.984s-29.515-1.394-29.515-1.541,13.2.279,29.515.984S377.937,398.1,377.92,398.266Z" transform="translate(72.705 -259.431)" fill="#e0e0e0"/>
          <path id="Trazado_180386" data-name="Trazado 180386" d="M150.316,456.546c-.246,0-.426-14.512-.426-32.4s.18-32.385.426-32.385.426,14.5.426,32.385S150.546,456.546,150.316,456.546Z" transform="translate(-35.409 -261.959)" fill="#263238"/>
          <path id="Trazado_180853" data-name="Trazado 180853" d="M150.316,456.546c-.246,0-.426-14.512-.426-32.4s.18-32.385.426-32.385.426,14.5.426,32.385S150.546,456.546,150.316,456.546Z" transform="translate(-35.409 -456.979)" fill="#263238"/>
          <path id="Trazado_180387" data-name="Trazado 180387" d="M161.62,366.148l-.59-52.258h28.449l.967,52.258Z" transform="translate(-28.282 -311.775)" fill="#f8f0f0"/>
          <path id="Trazado_180388" data-name="Trazado 180388" d="M187.662,319.754a96.971,96.971,0,0,1-13.216.459,96.973,96.973,0,0,1-13.216-.459,98.752,98.752,0,0,1,13.216-.443,98.758,98.758,0,0,1,13.216.443Z" transform="translate(-28.154 -308.342)" fill="#e0e0e0"/>
          <path id="Trazado_180389" data-name="Trazado 180389" d="M187.662,324.674a96.986,96.986,0,0,1-13.216.459,96.987,96.987,0,0,1-13.216-.459,98.772,98.772,0,0,1,13.216-.443A98.783,98.783,0,0,1,187.662,324.674Z" transform="translate(-28.154 -305.194)" fill="#e0e0e0"/>
          <path id="Trazado_180390" data-name="Trazado 180390" d="M187.662,329.594a98.752,98.752,0,0,1-13.216.443,98.773,98.773,0,0,1-13.216-.443,98.763,98.763,0,0,1,13.216-.443A98.752,98.752,0,0,1,187.662,329.594Z" transform="translate(-28.154 -302.047)" fill="#e0e0e0"/>
          <path id="Trazado_180391" data-name="Trazado 180391" d="M187.662,334.514a98.762,98.762,0,0,1-13.216.443,98.747,98.747,0,0,1-13.216-.443,98.762,98.762,0,0,1,13.216-.443,98.747,98.747,0,0,1,13.216.443Z" transform="translate(-28.155 -298.899)" fill="#e0e0e0"/>
          <path id="Trazado_180392" data-name="Trazado 180392" d="M187.662,339.434a98.757,98.757,0,0,1-13.216.443,98.777,98.777,0,0,1-13.216-.443,98.746,98.746,0,0,1,13.216-.443A98.758,98.758,0,0,1,187.662,339.434Z" transform="translate(-28.155 -295.752)" fill="#e0e0e0"/>
          <path id="Trazado_180393" data-name="Trazado 180393" d="M159.53,312.84H474.784c3.886,17.3,3.279,36.336,0,56.472H160.875v-3.837h19.1a9.051,9.051,0,0,0,9.068-9.051V325.171a9.051,9.051,0,0,0-9.068-9.068H159.53Z" transform="translate(-29.242 -312.446)" fill="#455a64"/>
          <path id="Trazado_180407" data-name="Trazado 180407" d="M345.323,370.548c-.246,0-.443-12.97-.443-28.974s.2-28.974.443-28.974.443,12.97.443,28.974S345.569,370.548,345.323,370.548Z" transform="translate(89.331 -312.6)" fill="#263238"/>
          <path id="Trazado_180408" data-name="Trazado 180408" d="M187.993,370.548c-.246,0-.443-12.97-.443-28.974s.2-28.974.443-28.974.443,12.97.443,28.974S188.288,370.548,187.993,370.548Z" transform="translate(-11.317 -312.6)" fill="#263238"/>
          <path id="Trazado_180409" data-name="Trazado 180409" d="M348.693,370.548c-.246,0-.443-12.97-.443-28.974s.2-28.974.443-28.974.459,12.97.459,28.974S348.939,370.548,348.693,370.548Z" transform="translate(91.487 -312.6)" fill="#263238"/>
          <path id="Trazado_180410" data-name="Trazado 180410" d="M184.849,370.548c-.246,0-.459-12.97-.459-28.974s.213-28.974.459-28.974.443,12.97.443,28.974S185.1,370.548,184.849,370.548Z" transform="translate(-13.338 -312.6)" fill="#263238"/>
          <path id="Trazado_180411" data-name="Trazado 180411" d="M434.913,350.77V409.8H320.64V350.77Z" transform="translate(73.824 -288.181)" fill="#f8f0f0"/>
          <path id="Trazado_180412" data-name="Trazado 180412" d="M165.267,383.254v1.64a33.844,33.844,0,0,0,34.008,31.614H539.649v-4.263H458.86a29.515,29.515,0,0,1-29.515-29.515h0a29.515,29.515,0,0,1,29.515-29.515h80.789V347l-340.424,1.148a34.041,34.041,0,0,0-33.959,35.107Z" transform="translate(-25.583 -290.593)" fill="#e16b31"/>
          <path id="Trazado_180413" data-name="Trazado 180413" d="M431.273,369.5c0,.328-23.5.607-52.471.607s-52.471-.279-52.471-.607,23.481-.607,52.471-.607S431.273,369.169,431.273,369.5Z" transform="translate(77.464 -276.59)" fill="#e0e0e0"/>
          <path id="Trazado_180414" data-name="Trazado 180414" d="M428.062,377.623c0,.328-22.235.59-49.651.59s-49.651-.262-49.651-.59S350.995,377,378.345,377,428.062,377.279,428.062,377.623Z" transform="translate(79.019 -271.402)" fill="#e0e0e0"/>
          <path id="Trazado_180415" data-name="Trazado 180415" d="M425.163,385.037c0,.328-19.988.607-44.633.607s-44.65-.279-44.65-.607,19.988-.607,44.65-.607S425.163,384.692,425.163,385.037Z" transform="translate(83.574 -266.648)" fill="#e0e0e0"/>
          <path id="Trazado_180416" data-name="Trazado 180416" d="M430.434,362.237c0,.328-22.956.607-51.389.607s-51.405-.279-51.405-.607,22.956-.607,51.405-.607S430.434,361.843,430.434,362.237Z" transform="translate(78.302 -281.234)" fill="#e0e0e0"/>
          <path id="Trazado_180417" data-name="Trazado 180417" d="M425.017,354.917c0,.328-20.48.607-45.748.607s-45.748-.279-45.748-.607,20.48-.607,45.748-.607S425.017,354.572,425.017,354.917Z" transform="translate(82.064 -285.917)" fill="#e0e0e0"/>
          <path id="Trazado_180419" data-name="Trazado 180419" d="M196.745,348.25a75.683,75.683,0,0,0-7.248,8.592,43.7,43.7,0,0,0,.607,50.618,72.889,72.889,0,0,0,7.428,8.412,11.722,11.722,0,0,1-2.443-1.8,39.073,39.073,0,0,1-5.673-6.1,43.059,43.059,0,0,1-.623-51.619,39.91,39.91,0,0,1,5.542-6.231A12.736,12.736,0,0,1,196.745,348.25Z" transform="translate(-15.822 -289.794)" fill="#e0e0e0"/>
          <path id="Trazado_180420" data-name="Trazado 180420" d="M189.718,347.48a75.672,75.672,0,0,0-7.248,8.592,43.7,43.7,0,0,0,.607,50.618,75.01,75.01,0,0,0,7.444,8.428,12.955,12.955,0,0,1-2.46-1.82,39.111,39.111,0,0,1-5.673-6.1,43.092,43.092,0,0,1-.607-51.619,39.14,39.14,0,0,1,5.526-6.231,12.737,12.737,0,0,1,2.41-1.869Z" transform="translate(-20.307 -290.286)" fill="#e0e0e0"/>
          <path id="Trazado_180421" data-name="Trazado 180421" d="M330.738,348.25a76.832,76.832,0,0,0-7.231,8.592,43.731,43.731,0,0,0,.59,50.618,71.887,71.887,0,0,0,7.444,8.412,11.482,11.482,0,0,1-2.46-1.8,40.721,40.721,0,0,1-5.673-6.1,43.092,43.092,0,0,1-.607-51.619,40.835,40.835,0,0,1,5.526-6.231A13.393,13.393,0,0,1,330.738,348.25Z" transform="translate(69.908 -289.794)" fill="#e0e0e0"/>
          <path id="Trazado_180422" data-name="Trazado 180422" d="M323.718,347.48a76.838,76.838,0,0,0-7.231,8.592,43.732,43.732,0,0,0,.59,50.618,75.006,75.006,0,0,0,7.444,8.428,13.253,13.253,0,0,1-2.443-1.82,39.057,39.057,0,0,1-5.69-6.1,43.092,43.092,0,0,1-.607-51.619,39.91,39.91,0,0,1,5.542-6.231A13.112,13.112,0,0,1,323.718,347.48Z" transform="translate(65.417 -290.286)" fill="#e0e0e0"/>
          <path id="Trazado_180425" data-name="Trazado 180425" d="M563.3,470.258H85.364c-6.264-13.888-7.805-27.072,0-38.878H563.3C569.576,445.514,569.035,458.386,563.3,470.258Z" transform="translate(-80.073 -236.613)" fill="#592fe6"/>
          <path id="Trazado_180426" data-name="Trazado 180426" d="M97.709,470.074c-.148.115-1.853-1.492-3.771-4.722a33.713,33.713,0,0,1-2.525-28.1A13.987,13.987,0,0,1,94.266,432c.262.115-.738,2.164-1.64,5.624a38.764,38.764,0,0,0-1.3,13.823A39.191,39.191,0,0,0,95,464.795C96.578,468.074,97.922,469.894,97.709,470.074Z" transform="translate(-74.069 -236.217)" fill="#e0e0e0"/>
          <path id="Trazado_180427" data-name="Trazado 180427" d="M103.993,470.074a14.15,14.15,0,0,1-3.755-4.722,33.565,33.565,0,0,1-2.46-28.1A13.987,13.987,0,0,1,100.566,432c.246.115-.738,2.164-1.64,5.624a38.337,38.337,0,0,0,2.46,27.219C102.878,468.074,104.222,469.894,103.993,470.074Z" transform="translate(-70.022 -236.217)" fill="#e0e0e0"/>
          <path id="Trazado_180428" data-name="Trazado 180428" d="M363.018,469.509c-.508-.18,3.394-8.2,3.394-19s-3.689-18.873-3.165-19.054,4.919,7.887,4.919,19.07S363.28,469.788,363.018,469.509Z" transform="translate(100.905 -236.569)" fill="#e0e0e0"/>
          <path id="Trazado_180429" data-name="Trazado 180429" d="M357.612,469.122c-.508-.1,1.509-8.314,1.459-18.611s-2.017-18.5-1.509-18.611,3.279,8.051,3.279,18.611S357.989,469.27,357.612,469.122Z" transform="translate(97.391 -236.281)" fill="#e0e0e0"/>
          <path id="Trazado_182557" data-name="Trazado 182557" d="M35.661,16.344h-4.7L30.144,19H26.482L31.7,4.781h3.223L40.173,19H36.491ZM31.784,13.7h3.057L33.308,8.766Zm13.74,2.959A1.464,1.464,0,0,0,46.6,16.28a1.379,1.379,0,0,0,.371-1.05h3.086a3.653,3.653,0,0,1-1.245,2.852A4.631,4.631,0,0,1,45.6,19.2,4.689,4.689,0,0,1,41.97,17.75a5.7,5.7,0,0,1-1.328-4v-.137a6.436,6.436,0,0,1,.591-2.827,4.3,4.3,0,0,1,1.7-1.885,5.081,5.081,0,0,1,2.637-.659,4.573,4.573,0,0,1,3.271,1.143,4.053,4.053,0,0,1,1.211,3.1H46.97a1.807,1.807,0,0,0-.4-1.26,1.382,1.382,0,0,0-1.074-.439q-1.279,0-1.494,1.631a11.507,11.507,0,0,0-.068,1.426,4.52,4.52,0,0,0,.381,2.207A1.319,1.319,0,0,0,45.525,16.656Zm12.217,1.2A3.393,3.393,0,0,1,54.919,19.2a3.328,3.328,0,0,1-2.632-1.011,4.251,4.251,0,0,1-.894-2.905V8.434h3.291V15.3A1.183,1.183,0,0,0,56,16.656a1.72,1.72,0,0,0,1.611-.811V8.434h3.311V19H57.839Zm10.1,1.338a5.432,5.432,0,0,1-3.936-1.45,5.008,5.008,0,0,1-1.5-3.774V13.7a6.489,6.489,0,0,1,.6-2.861,4.395,4.395,0,0,1,1.753-1.919,5.292,5.292,0,0,1,2.734-.679A4.574,4.574,0,0,1,71,9.62a5.43,5.43,0,0,1,1.289,3.853v1.279H65.749a2.372,2.372,0,0,0,.771,1.4,2.3,2.3,0,0,0,1.543.508,2.958,2.958,0,0,0,2.441-1.094l1.5,1.777a4.2,4.2,0,0,1-1.743,1.353A5.891,5.891,0,0,1,67.839,19.2Zm-.371-8.418q-1.445,0-1.719,1.914h3.32v-.254a1.63,1.63,0,0,0-.4-1.226A1.593,1.593,0,0,0,67.468,10.777Zm12.539.635-1.084-.078a1.947,1.947,0,0,0-1.992.977V19H73.64V8.434h3.086l.107,1.357a2.548,2.548,0,0,1,2.314-1.553,3.209,3.209,0,0,1,.918.117Zm.586,2.227a6.455,6.455,0,0,1,1.084-3.955A3.568,3.568,0,0,1,84.7,8.238a3.035,3.035,0,0,1,2.383,1.113V4h3.3V19H87.429l-.166-1.133A3.116,3.116,0,0,1,84.685,19.2,3.562,3.562,0,0,1,81.7,17.75,6.659,6.659,0,0,1,80.593,13.639Zm3.291.205q0,2.813,1.641,2.813a1.62,1.62,0,0,0,1.563-.918V11.715a1.576,1.576,0,0,0-1.543-.937q-1.523,0-1.65,2.461Zm7.959-.225a6.236,6.236,0,0,1,.615-2.817,4.4,4.4,0,0,1,1.768-1.9,5.323,5.323,0,0,1,2.705-.664,4.858,4.858,0,0,1,3.74,1.47,5.64,5.64,0,0,1,1.367,4v.117a5.472,5.472,0,0,1-1.372,3.921A4.871,4.871,0,0,1,96.95,19.2a4.927,4.927,0,0,1-3.623-1.353,5.29,5.29,0,0,1-1.475-3.667Zm3.291.205a3.932,3.932,0,0,0,.459,2.148,1.529,1.529,0,0,0,1.357.684q1.758,0,1.8-2.705v-.332q0-2.842-1.816-2.842-1.65,0-1.787,2.451Zm23.154-.635a6.789,6.789,0,0,1-1.294,4.443,5.056,5.056,0,0,1-7.319-.01,6.779,6.779,0,0,1-1.3-4.434v-2.6a6.789,6.789,0,0,1,1.294-4.443,5.056,5.056,0,0,1,7.319.01,6.8,6.8,0,0,1,1.3,4.443ZM115,10.172a5.071,5.071,0,0,0-.4-2.29,1.338,1.338,0,0,0-1.27-.757,1.307,1.307,0,0,0-1.235.7,4.777,4.777,0,0,0-.415,2.129V13.59a5.109,5.109,0,0,0,.4,2.329,1.343,1.343,0,0,0,1.27.737,1.325,1.325,0,0,0,1.24-.718,4.878,4.878,0,0,0,.41-2.251Zm14.873,3.018a6.789,6.789,0,0,1-1.294,4.443,5.056,5.056,0,0,1-7.319-.01,6.779,6.779,0,0,1-1.3-4.434v-2.6a6.789,6.789,0,0,1,1.294-4.443,5.056,5.056,0,0,1,7.319.01,6.8,6.8,0,0,1,1.3,4.443Zm-3.291-3.018a5.071,5.071,0,0,0-.4-2.29,1.338,1.338,0,0,0-1.27-.757,1.307,1.307,0,0,0-1.235.7,4.777,4.777,0,0,0-.415,2.129V13.59a5.109,5.109,0,0,0,.4,2.329,1.343,1.343,0,0,0,1.27.737,1.325,1.325,0,0,0,1.24-.718,4.878,4.878,0,0,0,.41-2.251Zm8.008.342h1.553a1.614,1.614,0,0,0,1.846-1.807,1.562,1.562,0,0,0-.439-1.147,1.666,1.666,0,0,0-1.24-.444,1.784,1.784,0,0,0-1.138.381,1.162,1.162,0,0,0-.483.947h-3.291a3.369,3.369,0,0,1,.625-2,4.127,4.127,0,0,1,1.733-1.372,5.926,5.926,0,0,1,2.437-.493,5.823,5.823,0,0,1,3.73,1.084,3.6,3.6,0,0,1,1.357,2.979,3,3,0,0,1-.562,1.733,4,4,0,0,1-1.636,1.323,3.823,3.823,0,0,1,1.777,1.245,3.279,3.279,0,0,1,.645,2.065,3.669,3.669,0,0,1-1.465,3.047,6.08,6.08,0,0,1-3.848,1.143,6.306,6.306,0,0,1-2.593-.532,4.062,4.062,0,0,1-1.812-1.475,3.834,3.834,0,0,1-.615-2.144h3.311a1.482,1.482,0,0,0,.527,1.133,1.862,1.862,0,0,0,1.3.479,1.95,1.95,0,0,0,1.387-.483,1.616,1.616,0,0,0,.518-1.235,1.889,1.889,0,0,0-.537-1.523,2.245,2.245,0,0,0-1.484-.449h-1.6Zm13.193,3.125a6.455,6.455,0,0,1,1.084-3.955,3.568,3.568,0,0,1,3.027-1.445,3.035,3.035,0,0,1,2.383,1.113V4h3.3V19h-2.959l-.166-1.133a3.116,3.116,0,0,1-2.578,1.328,3.562,3.562,0,0,1-2.988-1.445A6.659,6.659,0,0,1,147.781,13.639Zm3.291.205q0,2.813,1.641,2.813a1.62,1.62,0,0,0,1.563-.918V11.715a1.576,1.576,0,0,0-1.543-.937q-1.523,0-1.65,2.461ZM164.558,19.2a5.432,5.432,0,0,1-3.936-1.45,5.008,5.008,0,0,1-1.5-3.774V13.7a6.489,6.489,0,0,1,.6-2.861,4.395,4.395,0,0,1,1.753-1.919,5.292,5.292,0,0,1,2.734-.679,4.574,4.574,0,0,1,3.516,1.382,5.43,5.43,0,0,1,1.289,3.853v1.279h-6.543a2.372,2.372,0,0,0,.771,1.4,2.3,2.3,0,0,0,1.543.508,2.958,2.958,0,0,0,2.441-1.094l1.5,1.777a4.2,4.2,0,0,1-1.743,1.353A5.891,5.891,0,0,1,164.558,19.2Zm-.371-8.418q-1.445,0-1.719,1.914h3.32v-.254a1.63,1.63,0,0,0-.4-1.226A1.593,1.593,0,0,0,164.187,10.777Zm21,8.223h-9.922V16.852l4.57-4.8q1.689-1.924,1.689-3.057a2.126,2.126,0,0,0-.4-1.4,1.43,1.43,0,0,0-1.162-.479,1.447,1.447,0,0,0-1.221.64,2.629,2.629,0,0,0-.469,1.6h-3.3a4.669,4.669,0,0,1,.654-2.417A4.588,4.588,0,0,1,177.439,5.2a5.4,5.4,0,0,1,2.6-.625,5.308,5.308,0,0,1,3.55,1.064A3.8,3.8,0,0,1,184.831,8.7a4.439,4.439,0,0,1-.312,1.636,7.173,7.173,0,0,1-.972,1.67,24.476,24.476,0,0,1-2.124,2.339l-1.836,2.119h5.6Zm11.533-5.811a6.789,6.789,0,0,1-1.294,4.443,5.056,5.056,0,0,1-7.319-.01,6.779,6.779,0,0,1-1.3-4.434v-2.6A6.789,6.789,0,0,1,188.1,6.148a5.056,5.056,0,0,1,7.319.01,6.8,6.8,0,0,1,1.3,4.443Zm-3.291-3.018a5.071,5.071,0,0,0-.4-2.29,1.338,1.338,0,0,0-1.27-.757,1.307,1.307,0,0,0-1.235.7,4.777,4.777,0,0,0-.415,2.129V13.59a5.11,5.11,0,0,0,.4,2.329,1.343,1.343,0,0,0,1.27.737,1.325,1.325,0,0,0,1.24-.718,4.878,4.878,0,0,0,.41-2.251ZM205.72,19h-3.3V8.492l-3.242.947v-2.5l6.24-2.158h.3Zm4.482-6.945.869-7.273h8.311V7.32h-5.635l-.322,2.844a3.882,3.882,0,0,1,.923-.363,4.643,4.643,0,0,1,4.375,1.1,5.055,5.055,0,0,1,1.138,3.521,5.046,5.046,0,0,1-.61,2.476,4.2,4.2,0,0,1-1.714,1.7,5.411,5.411,0,0,1-2.607.6,5.822,5.822,0,0,1-2.51-.551,4.5,4.5,0,0,1-1.836-1.512,3.675,3.675,0,0,1-.654-2.171h3.3a1.867,1.867,0,0,0,.5,1.238,1.581,1.581,0,0,0,1.182.458q1.66,0,1.66-2.456,0-2.271-2.031-2.271a2.027,2.027,0,0,0-1.719.741Z" transform="translate(112.075 200.913)" fill="#fff"/>
          <path id="Trazado_182556" data-name="Trazado 182556" d="M17.543,16.344h-4.7L12.026,19H8.364L13.579,4.781H16.8L22.055,19H18.374ZM13.667,13.7h3.057L15.19,8.766Zm13.74,2.959a1.464,1.464,0,0,0,1.074-.376,1.379,1.379,0,0,0,.371-1.05h3.086a3.653,3.653,0,0,1-1.245,2.852A4.631,4.631,0,0,1,27.485,19.2a4.689,4.689,0,0,1-3.633-1.445,5.7,5.7,0,0,1-1.328-4v-.137a6.436,6.436,0,0,1,.591-2.827,4.3,4.3,0,0,1,1.7-1.885,5.081,5.081,0,0,1,2.637-.659,4.573,4.573,0,0,1,3.271,1.143,4.053,4.053,0,0,1,1.211,3.1H28.852a1.807,1.807,0,0,0-.4-1.26,1.382,1.382,0,0,0-1.074-.439q-1.279,0-1.494,1.631a11.508,11.508,0,0,0-.068,1.426,4.52,4.52,0,0,0,.381,2.207A1.319,1.319,0,0,0,27.407,16.656Zm12.217,1.2A3.393,3.393,0,0,1,36.8,19.2a3.328,3.328,0,0,1-2.632-1.011,4.251,4.251,0,0,1-.894-2.905V8.434h3.291V15.3a1.183,1.183,0,0,0,1.318,1.357,1.72,1.72,0,0,0,1.611-.811V8.434h3.311V19H39.721Zm10.1,1.338a5.432,5.432,0,0,1-3.936-1.45,5.008,5.008,0,0,1-1.5-3.774V13.7a6.489,6.489,0,0,1,.6-2.861,4.395,4.395,0,0,1,1.753-1.919,5.292,5.292,0,0,1,2.734-.679A4.574,4.574,0,0,1,52.885,9.62a5.43,5.43,0,0,1,1.289,3.853v1.279H47.631a2.372,2.372,0,0,0,.771,1.4,2.3,2.3,0,0,0,1.543.508,2.958,2.958,0,0,0,2.441-1.094l1.5,1.777a4.2,4.2,0,0,1-1.743,1.353A5.891,5.891,0,0,1,49.721,19.2Zm-.371-8.418q-1.445,0-1.719,1.914h3.32v-.254a1.63,1.63,0,0,0-.4-1.226A1.593,1.593,0,0,0,49.35,10.777Zm12.539.635-1.084-.078a1.947,1.947,0,0,0-1.992.977V19H55.522V8.434h3.086l.107,1.357A2.548,2.548,0,0,1,61.03,8.238a3.209,3.209,0,0,1,.918.117Zm.586,2.227a6.455,6.455,0,0,1,1.084-3.955,3.568,3.568,0,0,1,3.027-1.445,3.035,3.035,0,0,1,2.383,1.113V4h3.3V19H69.311l-.166-1.133A3.116,3.116,0,0,1,66.567,19.2a3.562,3.562,0,0,1-2.988-1.445A6.659,6.659,0,0,1,62.475,13.639Zm3.291.205q0,2.813,1.641,2.813a1.62,1.62,0,0,0,1.563-.918V11.715a1.576,1.576,0,0,0-1.543-.937q-1.523,0-1.65,2.461Zm7.959-.225A6.236,6.236,0,0,1,74.34,10.8a4.4,4.4,0,0,1,1.768-1.9,5.323,5.323,0,0,1,2.705-.664,4.858,4.858,0,0,1,3.74,1.47,5.64,5.64,0,0,1,1.367,4v.117a5.472,5.472,0,0,1-1.372,3.921,4.871,4.871,0,0,1-3.716,1.45,4.927,4.927,0,0,1-3.623-1.353,5.29,5.29,0,0,1-1.475-3.667Zm3.291.205a3.932,3.932,0,0,0,.459,2.148,1.529,1.529,0,0,0,1.357.684q1.758,0,1.8-2.705v-.332q0-2.842-1.816-2.842-1.65,0-1.787,2.451Zm23.154-.635a6.789,6.789,0,0,1-1.294,4.443,5.056,5.056,0,0,1-7.319-.01,6.779,6.779,0,0,1-1.3-4.434v-2.6a6.789,6.789,0,0,1,1.294-4.443,5.056,5.056,0,0,1,7.319.01,6.8,6.8,0,0,1,1.3,4.443Zm-3.291-3.018a5.071,5.071,0,0,0-.4-2.29,1.338,1.338,0,0,0-1.27-.757,1.307,1.307,0,0,0-1.235.7,4.777,4.777,0,0,0-.415,2.129V13.59a5.109,5.109,0,0,0,.4,2.329,1.343,1.343,0,0,0,1.27.737,1.325,1.325,0,0,0,1.24-.718,4.878,4.878,0,0,0,.41-2.251Zm14.873,3.018a6.789,6.789,0,0,1-1.294,4.443,5.056,5.056,0,0,1-7.319-.01,6.779,6.779,0,0,1-1.3-4.434v-2.6a6.789,6.789,0,0,1,1.294-4.443,5.056,5.056,0,0,1,7.319.01,6.8,6.8,0,0,1,1.3,4.443Zm-3.291-3.018a5.071,5.071,0,0,0-.4-2.29,1.338,1.338,0,0,0-1.27-.757,1.307,1.307,0,0,0-1.235.7,4.777,4.777,0,0,0-.415,2.129V13.59a5.109,5.109,0,0,0,.4,2.329,1.343,1.343,0,0,0,1.27.737,1.325,1.325,0,0,0,1.24-.718,4.878,4.878,0,0,0,.41-2.251Zm12.949-5.6V7.164h-.146a4.941,4.941,0,0,0-3.032.884,3.732,3.732,0,0,0-1.46,2.456,3.848,3.848,0,0,1,2.813-1.094,3.59,3.59,0,0,1,2.939,1.348,5.436,5.436,0,0,1,1.094,3.535,4.977,4.977,0,0,1-.64,2.49,4.564,4.564,0,0,1-1.787,1.772,5.135,5.135,0,0,1-2.544.64,5.307,5.307,0,0,1-2.705-.688,4.733,4.733,0,0,1-1.855-1.968,6.48,6.48,0,0,1-.684-2.949V12.271a8.208,8.208,0,0,1,.942-3.95,6.832,6.832,0,0,1,2.69-2.749,7.692,7.692,0,0,1,3.877-1Zm-2.969,7.373a1.889,1.889,0,0,0-1.094.3,1.917,1.917,0,0,0-.654.739v.982q0,2.684,1.865,2.684a1.515,1.515,0,0,0,1.255-.671,2.727,2.727,0,0,0,.5-1.682,2.677,2.677,0,0,0-.513-1.7A1.642,1.642,0,0,0,118.442,11.949ZM30.068,40.639a6.455,6.455,0,0,1,1.084-3.955,3.568,3.568,0,0,1,3.027-1.445,3.035,3.035,0,0,1,2.383,1.113V31h3.3V46H36.9l-.166-1.133A3.116,3.116,0,0,1,34.16,46.2a3.562,3.562,0,0,1-2.988-1.445A6.659,6.659,0,0,1,30.068,40.639Zm3.291.205q0,2.813,1.641,2.813a1.62,1.62,0,0,0,1.563-.918V38.715a1.576,1.576,0,0,0-1.543-.937q-1.523,0-1.65,2.461ZM46.845,46.2a5.432,5.432,0,0,1-3.936-1.45,5.008,5.008,0,0,1-1.5-3.774V40.7a6.489,6.489,0,0,1,.6-2.861,4.395,4.395,0,0,1,1.753-1.919,5.292,5.292,0,0,1,2.734-.679,4.574,4.574,0,0,1,3.516,1.382A5.43,5.43,0,0,1,51.3,40.473v1.279H44.755a2.372,2.372,0,0,0,.771,1.4,2.3,2.3,0,0,0,1.543.508,2.958,2.958,0,0,0,2.441-1.094l1.5,1.777a4.2,4.2,0,0,1-1.743,1.353A5.891,5.891,0,0,1,46.845,46.2Zm-.371-8.418q-1.445,0-1.719,1.914h3.32v-.254a1.63,1.63,0,0,0-.4-1.226A1.593,1.593,0,0,0,46.474,37.777ZM67.47,46H57.548V43.852l4.57-4.8q1.689-1.924,1.689-3.057a2.126,2.126,0,0,0-.4-1.4,1.43,1.43,0,0,0-1.162-.479,1.447,1.447,0,0,0-1.221.64,2.629,2.629,0,0,0-.469,1.6h-3.3a4.67,4.67,0,0,1,.654-2.417A4.588,4.588,0,0,1,59.726,32.2a5.4,5.4,0,0,1,2.6-.625,5.308,5.308,0,0,1,3.55,1.064A3.8,3.8,0,0,1,67.119,35.7a4.439,4.439,0,0,1-.312,1.636A7.174,7.174,0,0,1,65.834,39a24.476,24.476,0,0,1-2.124,2.339l-1.836,2.119h5.6ZM79,40.189a6.789,6.789,0,0,1-1.294,4.443,5.056,5.056,0,0,1-7.319-.01,6.779,6.779,0,0,1-1.3-4.434v-2.6a6.789,6.789,0,0,1,1.294-4.443,5.056,5.056,0,0,1,7.319.01A6.8,6.8,0,0,1,79,37.6Zm-3.291-3.018a5.071,5.071,0,0,0-.4-2.29,1.338,1.338,0,0,0-1.27-.757,1.307,1.307,0,0,0-1.235.7,4.777,4.777,0,0,0-.415,2.129V40.59a5.109,5.109,0,0,0,.4,2.329,1.343,1.343,0,0,0,1.27.737,1.325,1.325,0,0,0,1.24-.718,4.878,4.878,0,0,0,.41-2.251ZM88.007,46h-3.3V35.492l-3.242.947v-2.5l6.24-2.158h.3Zm12.979-5.557h1.445v2.539h-1.445V46H97.695V42.982H92.2L92,40.971l5.693-9.16v-.029h3.291Zm-5.85,0h2.559V36.068l-.205.332Z" transform="translate(195.845 132.85)" fill="#fff"/>
          <path id="Trazado_182555" data-name="Trazado 182555" d="M24.679,16.344h-4.7L19.161,19H15.5L20.714,4.781h3.223L29.19,19H25.509ZM20.8,13.7h3.057L22.325,8.766Zm13.74,2.959a1.464,1.464,0,0,0,1.074-.376,1.379,1.379,0,0,0,.371-1.05h3.086a3.653,3.653,0,0,1-1.245,2.852A4.631,4.631,0,0,1,34.62,19.2a4.689,4.689,0,0,1-3.633-1.445,5.7,5.7,0,0,1-1.328-4v-.137a6.436,6.436,0,0,1,.591-2.827,4.3,4.3,0,0,1,1.7-1.885,5.081,5.081,0,0,1,2.637-.659,4.573,4.573,0,0,1,3.271,1.143,4.053,4.053,0,0,1,1.211,3.1H35.987a1.807,1.807,0,0,0-.4-1.26,1.382,1.382,0,0,0-1.074-.439q-1.279,0-1.494,1.631a11.507,11.507,0,0,0-.068,1.426,4.52,4.52,0,0,0,.381,2.207A1.319,1.319,0,0,0,34.542,16.656Zm12.217,1.2A3.393,3.393,0,0,1,43.936,19.2,3.328,3.328,0,0,1,41.3,18.185a4.251,4.251,0,0,1-.894-2.905V8.434H43.7V15.3a1.183,1.183,0,0,0,1.318,1.357,1.72,1.72,0,0,0,1.611-.811V8.434h3.311V19H46.856Zm10.1,1.338a5.432,5.432,0,0,1-3.936-1.45,5.008,5.008,0,0,1-1.5-3.774V13.7a6.489,6.489,0,0,1,.6-2.861A4.395,4.395,0,0,1,53.77,8.917,5.292,5.292,0,0,1,56.5,8.238,4.574,4.574,0,0,1,60.02,9.62a5.43,5.43,0,0,1,1.289,3.853v1.279H54.766a2.372,2.372,0,0,0,.771,1.4,2.3,2.3,0,0,0,1.543.508,2.958,2.958,0,0,0,2.441-1.094l1.5,1.777a4.2,4.2,0,0,1-1.743,1.353A5.891,5.891,0,0,1,56.856,19.2Zm-.371-8.418q-1.445,0-1.719,1.914h3.32v-.254a1.63,1.63,0,0,0-.4-1.226A1.593,1.593,0,0,0,56.485,10.777Zm12.539.635-1.084-.078a1.947,1.947,0,0,0-1.992.977V19H62.657V8.434h3.086l.107,1.357a2.548,2.548,0,0,1,2.314-1.553,3.209,3.209,0,0,1,.918.117Zm.586,2.227a6.455,6.455,0,0,1,1.084-3.955,3.568,3.568,0,0,1,3.027-1.445A3.035,3.035,0,0,1,76.1,9.352V4h3.3V19H76.446l-.166-1.133A3.116,3.116,0,0,1,73.7,19.2a3.562,3.562,0,0,1-2.988-1.445A6.659,6.659,0,0,1,69.61,13.639Zm3.291.205q0,2.813,1.641,2.813a1.62,1.62,0,0,0,1.563-.918V11.715a1.576,1.576,0,0,0-1.543-.937q-1.523,0-1.65,2.461Zm7.959-.225a6.236,6.236,0,0,1,.615-2.817,4.4,4.4,0,0,1,1.768-1.9,5.323,5.323,0,0,1,2.705-.664,4.858,4.858,0,0,1,3.74,1.47,5.64,5.64,0,0,1,1.367,4v.117a5.472,5.472,0,0,1-1.372,3.921,4.871,4.871,0,0,1-3.716,1.45,4.927,4.927,0,0,1-3.623-1.353,5.29,5.29,0,0,1-1.475-3.667Zm3.291.205a3.932,3.932,0,0,0,.459,2.148,1.529,1.529,0,0,0,1.357.684q1.758,0,1.8-2.705v-.332q0-2.842-1.816-2.842-1.65,0-1.787,2.451Zm23.154-.635a6.789,6.789,0,0,1-1.294,4.443,5.056,5.056,0,0,1-7.319-.01,6.779,6.779,0,0,1-1.3-4.434v-2.6a6.789,6.789,0,0,1,1.294-4.443,5.056,5.056,0,0,1,7.319.01,6.8,6.8,0,0,1,1.3,4.443Zm-3.291-3.018a5.071,5.071,0,0,0-.4-2.29,1.338,1.338,0,0,0-1.27-.757,1.307,1.307,0,0,0-1.235.7,4.777,4.777,0,0,0-.415,2.129V13.59a5.109,5.109,0,0,0,.4,2.329,1.343,1.343,0,0,0,1.27.737,1.325,1.325,0,0,0,1.24-.718,4.878,4.878,0,0,0,.41-2.251Zm14.873,3.018a6.789,6.789,0,0,1-1.294,4.443,5.056,5.056,0,0,1-7.319-.01,6.779,6.779,0,0,1-1.3-4.434v-2.6a6.789,6.789,0,0,1,1.294-4.443,5.056,5.056,0,0,1,7.319.01,6.8,6.8,0,0,1,1.3,4.443ZM115.6,10.172a5.071,5.071,0,0,0-.4-2.29,1.338,1.338,0,0,0-1.27-.757,1.307,1.307,0,0,0-1.235.7,4.777,4.777,0,0,0-.415,2.129V13.59a5.109,5.109,0,0,0,.4,2.329,1.343,1.343,0,0,0,1.27.737,1.325,1.325,0,0,0,1.24-.718,4.878,4.878,0,0,0,.41-2.251Zm14.883-3.633L125.167,19H121.69l5.322-11.68h-6.777V4.781h10.244Zm6.318,7.1a6.455,6.455,0,0,1,1.084-3.955,3.568,3.568,0,0,1,3.027-1.445,3.035,3.035,0,0,1,2.383,1.113V4h3.3V19h-2.959l-.166-1.133A3.116,3.116,0,0,1,140.89,19.2,3.562,3.562,0,0,1,137.9,17.75,6.659,6.659,0,0,1,136.8,13.639Zm3.291.205q0,2.813,1.641,2.813a1.62,1.62,0,0,0,1.563-.918V11.715a1.576,1.576,0,0,0-1.543-.937q-1.523,0-1.65,2.461ZM153.575,19.2a5.432,5.432,0,0,1-3.936-1.45,5.008,5.008,0,0,1-1.5-3.774V13.7a6.489,6.489,0,0,1,.6-2.861,4.395,4.395,0,0,1,1.753-1.919,5.292,5.292,0,0,1,2.734-.679,4.574,4.574,0,0,1,3.516,1.382,5.43,5.43,0,0,1,1.289,3.853v1.279h-6.543a2.372,2.372,0,0,0,.771,1.4,2.3,2.3,0,0,0,1.543.508,2.958,2.958,0,0,0,2.441-1.094l1.5,1.777A4.2,4.2,0,0,1,156,18.692,5.891,5.891,0,0,1,153.575,19.2Zm-.371-8.418q-1.445,0-1.719,1.914h3.32v-.254a1.63,1.63,0,0,0-.4-1.226A1.593,1.593,0,0,0,153.2,10.777ZM171.573,19h-3.3V8.492l-3.242.947v-2.5l6.24-2.158h.3Zm10.771-5.5a3.476,3.476,0,0,1-2.383.957A3.847,3.847,0,0,1,176.9,13.15a5.156,5.156,0,0,1-1.133-3.5,5.247,5.247,0,0,1,.635-2.539A4.763,4.763,0,0,1,178.18,5.26a4.859,4.859,0,0,1,2.534-.684,4.717,4.717,0,0,1,2.544.708,4.767,4.767,0,0,1,1.772,2,6.877,6.877,0,0,1,.654,2.983v1.26a8.548,8.548,0,0,1-.923,4.082,6.371,6.371,0,0,1-2.632,2.656,8.224,8.224,0,0,1-3.984.928h-.205V16.559l.625-.01Q181.964,16.383,182.345,13.5Zm-1.494-1.416a1.6,1.6,0,0,0,1.543-.928V9.791a3.555,3.555,0,0,0-.459-2.021,1.44,1.44,0,0,0-1.24-.654,1.361,1.361,0,0,0-1.162.742,3.3,3.3,0,0,0-.469,1.8,2.956,2.956,0,0,0,.479,1.772A1.531,1.531,0,0,0,180.85,12.086ZM193.927,13.5a3.476,3.476,0,0,1-2.383.957,3.847,3.847,0,0,1-3.066-1.309,5.156,5.156,0,0,1-1.133-3.5,5.247,5.247,0,0,1,.635-2.539,4.763,4.763,0,0,1,1.782-1.855,4.859,4.859,0,0,1,2.534-.684,4.717,4.717,0,0,1,2.544.708,4.767,4.767,0,0,1,1.772,2,6.877,6.877,0,0,1,.654,2.983v1.26a8.548,8.548,0,0,1-.923,4.082,6.371,6.371,0,0,1-2.632,2.656,8.224,8.224,0,0,1-3.984.928h-.205V16.559l.625-.01Q193.546,16.383,193.927,13.5Zm-1.494-1.416a1.6,1.6,0,0,0,1.543-.928V9.791a3.555,3.555,0,0,0-.459-2.021,1.44,1.44,0,0,0-1.24-.654,1.361,1.361,0,0,0-1.162.742,3.3,3.3,0,0,0-.469,1.8,2.956,2.956,0,0,0,.479,1.772A1.531,1.531,0,0,0,192.432,12.086Zm15.283,1.357h1.445v2.539h-1.445V19h-3.291V15.982h-5.5l-.2-2.012,5.693-9.16V4.781h3.291Zm-5.85,0h2.559V9.068l-.205.332Z" transform="translate(200.947 -52.481)" fill="#fff"/>
          <path id="Trazado_182553" data-name="Trazado 182553" d="M17.543,16.344h-4.7L12.026,19H8.364L13.579,4.781H16.8L22.055,19H18.374ZM13.667,13.7h3.057L15.19,8.766Zm13.74,2.959a1.464,1.464,0,0,0,1.074-.376,1.379,1.379,0,0,0,.371-1.05h3.086a3.653,3.653,0,0,1-1.245,2.852A4.631,4.631,0,0,1,27.485,19.2a4.689,4.689,0,0,1-3.633-1.445,5.7,5.7,0,0,1-1.328-4v-.137a6.436,6.436,0,0,1,.591-2.827,4.3,4.3,0,0,1,1.7-1.885,5.081,5.081,0,0,1,2.637-.659,4.573,4.573,0,0,1,3.271,1.143,4.053,4.053,0,0,1,1.211,3.1H28.852a1.807,1.807,0,0,0-.4-1.26,1.382,1.382,0,0,0-1.074-.439q-1.279,0-1.494,1.631a11.508,11.508,0,0,0-.068,1.426,4.52,4.52,0,0,0,.381,2.207A1.319,1.319,0,0,0,27.407,16.656Zm12.217,1.2A3.393,3.393,0,0,1,36.8,19.2a3.328,3.328,0,0,1-2.632-1.011,4.251,4.251,0,0,1-.894-2.905V8.434h3.291V15.3a1.183,1.183,0,0,0,1.318,1.357,1.72,1.72,0,0,0,1.611-.811V8.434h3.311V19H39.721Zm10.1,1.338a5.432,5.432,0,0,1-3.936-1.45,5.008,5.008,0,0,1-1.5-3.774V13.7a6.489,6.489,0,0,1,.6-2.861,4.395,4.395,0,0,1,1.753-1.919,5.292,5.292,0,0,1,2.734-.679A4.574,4.574,0,0,1,52.885,9.62a5.43,5.43,0,0,1,1.289,3.853v1.279H47.631a2.372,2.372,0,0,0,.771,1.4,2.3,2.3,0,0,0,1.543.508,2.958,2.958,0,0,0,2.441-1.094l1.5,1.777a4.2,4.2,0,0,1-1.743,1.353A5.891,5.891,0,0,1,49.721,19.2Zm-.371-8.418q-1.445,0-1.719,1.914h3.32v-.254a1.63,1.63,0,0,0-.4-1.226A1.593,1.593,0,0,0,49.35,10.777Zm12.539.635-1.084-.078a1.947,1.947,0,0,0-1.992.977V19H55.522V8.434h3.086l.107,1.357A2.548,2.548,0,0,1,61.03,8.238a3.209,3.209,0,0,1,.918.117Zm.586,2.227a6.455,6.455,0,0,1,1.084-3.955,3.568,3.568,0,0,1,3.027-1.445,3.035,3.035,0,0,1,2.383,1.113V4h3.3V19H69.311l-.166-1.133A3.116,3.116,0,0,1,66.567,19.2a3.562,3.562,0,0,1-2.988-1.445A6.659,6.659,0,0,1,62.475,13.639Zm3.291.205q0,2.813,1.641,2.813a1.62,1.62,0,0,0,1.563-.918V11.715a1.576,1.576,0,0,0-1.543-.937q-1.523,0-1.65,2.461Zm7.959-.225A6.236,6.236,0,0,1,74.34,10.8a4.4,4.4,0,0,1,1.768-1.9,5.323,5.323,0,0,1,2.705-.664,4.858,4.858,0,0,1,3.74,1.47,5.64,5.64,0,0,1,1.367,4v.117a5.472,5.472,0,0,1-1.372,3.921,4.871,4.871,0,0,1-3.716,1.45,4.927,4.927,0,0,1-3.623-1.353,5.29,5.29,0,0,1-1.475-3.667Zm3.291.205a3.932,3.932,0,0,0,.459,2.148,1.529,1.529,0,0,0,1.357.684q1.758,0,1.8-2.705v-.332q0-2.842-1.816-2.842-1.65,0-1.787,2.451Zm23.154-.635a6.789,6.789,0,0,1-1.294,4.443,5.056,5.056,0,0,1-7.319-.01,6.779,6.779,0,0,1-1.3-4.434v-2.6a6.789,6.789,0,0,1,1.294-4.443,5.056,5.056,0,0,1,7.319.01,6.8,6.8,0,0,1,1.3,4.443Zm-3.291-3.018a5.071,5.071,0,0,0-.4-2.29,1.338,1.338,0,0,0-1.27-.757,1.307,1.307,0,0,0-1.235.7,4.777,4.777,0,0,0-.415,2.129V13.59a5.109,5.109,0,0,0,.4,2.329,1.343,1.343,0,0,0,1.27.737,1.325,1.325,0,0,0,1.24-.718,4.878,4.878,0,0,0,.41-2.251Zm14.873,3.018a6.789,6.789,0,0,1-1.294,4.443,5.056,5.056,0,0,1-7.319-.01,6.779,6.779,0,0,1-1.3-4.434v-2.6a6.789,6.789,0,0,1,1.294-4.443,5.056,5.056,0,0,1,7.319.01,6.8,6.8,0,0,1,1.3,4.443Zm-3.291-3.018a5.071,5.071,0,0,0-.4-2.29,1.338,1.338,0,0,0-1.27-.757,1.307,1.307,0,0,0-1.235.7,4.777,4.777,0,0,0-.415,2.129V13.59a5.109,5.109,0,0,0,.4,2.329,1.343,1.343,0,0,0,1.27.737,1.325,1.325,0,0,0,1.24-.718,4.878,4.878,0,0,0,.41-2.251Zm14.59-1.592a3.283,3.283,0,0,1-.513,1.826,3.734,3.734,0,0,1-1.411,1.27,4.109,4.109,0,0,1,1.611,1.362,3.515,3.515,0,0,1,.6,2.046,3.721,3.721,0,0,1-1.313,3.008,5.454,5.454,0,0,1-3.618,1.1,5.554,5.554,0,0,1-3.652-1.108,3.7,3.7,0,0,1-1.338-3A3.56,3.56,0,0,1,114,13.063a3.984,3.984,0,0,1,1.66-1.387,3.755,3.755,0,0,1-1.426-1.27,3.26,3.26,0,0,1-.518-1.826,3.648,3.648,0,0,1,1.26-2.93,5.944,5.944,0,0,1,6.816,0A3.648,3.648,0,0,1,123.051,8.58Zm-3.018,6.24a1.877,1.877,0,0,0-.454-1.353,1.581,1.581,0,0,0-1.2-.474,1.6,1.6,0,0,0-1.2.474,1.865,1.865,0,0,0-.459,1.353,1.881,1.881,0,0,0,.464,1.343,1.592,1.592,0,0,0,1.216.493,1.53,1.53,0,0,0,1.182-.488A1.915,1.915,0,0,0,120.034,14.82Zm-1.66-7.705a1.216,1.216,0,0,0-1.011.435,1.886,1.886,0,0,0-.347,1.206,2,2,0,0,0,.352,1.23,1.213,1.213,0,0,0,1.035.469,1.163,1.163,0,0,0,1.011-.469,2.062,2.062,0,0,0,.337-1.23,1.89,1.89,0,0,0-.347-1.2A1.233,1.233,0,0,0,118.374,7.115ZM30.068,40.639a6.455,6.455,0,0,1,1.084-3.955,3.568,3.568,0,0,1,3.027-1.445,3.035,3.035,0,0,1,2.383,1.113V31h3.3V46H36.9l-.166-1.133A3.116,3.116,0,0,1,34.16,46.2a3.562,3.562,0,0,1-2.988-1.445A6.659,6.659,0,0,1,30.068,40.639Zm3.291.205q0,2.813,1.641,2.813a1.62,1.62,0,0,0,1.563-.918V38.715a1.576,1.576,0,0,0-1.543-.937q-1.523,0-1.65,2.461ZM46.845,46.2a5.432,5.432,0,0,1-3.936-1.45,5.008,5.008,0,0,1-1.5-3.774V40.7a6.489,6.489,0,0,1,.6-2.861,4.395,4.395,0,0,1,1.753-1.919,5.292,5.292,0,0,1,2.734-.679,4.574,4.574,0,0,1,3.516,1.382A5.43,5.43,0,0,1,51.3,40.473v1.279H44.755a2.372,2.372,0,0,0,.771,1.4,2.3,2.3,0,0,0,1.543.508,2.958,2.958,0,0,0,2.441-1.094l1.5,1.777a4.2,4.2,0,0,1-1.743,1.353A5.891,5.891,0,0,1,46.845,46.2Zm-.371-8.418q-1.445,0-1.719,1.914h3.32v-.254a1.63,1.63,0,0,0-.4-1.226A1.593,1.593,0,0,0,46.474,37.777ZM67.47,46H57.548V43.852l4.57-4.8q1.689-1.924,1.689-3.057a2.126,2.126,0,0,0-.4-1.4,1.43,1.43,0,0,0-1.162-.479,1.447,1.447,0,0,0-1.221.64,2.629,2.629,0,0,0-.469,1.6h-3.3a4.67,4.67,0,0,1,.654-2.417A4.588,4.588,0,0,1,59.726,32.2a5.4,5.4,0,0,1,2.6-.625,5.308,5.308,0,0,1,3.55,1.064A3.8,3.8,0,0,1,67.119,35.7a4.439,4.439,0,0,1-.312,1.636A7.174,7.174,0,0,1,65.834,39a24.476,24.476,0,0,1-2.124,2.339l-1.836,2.119h5.6ZM79,40.189a6.789,6.789,0,0,1-1.294,4.443,5.056,5.056,0,0,1-7.319-.01,6.779,6.779,0,0,1-1.3-4.434v-2.6a6.789,6.789,0,0,1,1.294-4.443,5.056,5.056,0,0,1,7.319.01A6.8,6.8,0,0,1,79,37.6Zm-3.291-3.018a5.071,5.071,0,0,0-.4-2.29,1.338,1.338,0,0,0-1.27-.757,1.307,1.307,0,0,0-1.235.7,4.777,4.777,0,0,0-.415,2.129V40.59a5.109,5.109,0,0,0,.4,2.329,1.343,1.343,0,0,0,1.27.737,1.325,1.325,0,0,0,1.24-.718,4.878,4.878,0,0,0,.41-2.251ZM88.007,46h-3.3V35.492l-3.242.947v-2.5l6.24-2.158h.3Zm12.979-5.557h1.445v2.539h-1.445V46H97.695V42.982H92.2L92,40.971l5.693-9.16v-.029h3.291Zm-5.85,0h2.559V36.068l-.205.332Z" transform="translate(195.845 63.489)" fill="#fff"/>
          <path id="Trazado_182554" data-name="Trazado 182554" d="M21.916,16.344h-4.7L16.4,19H12.736L17.951,4.781h3.223L26.427,19H22.746ZM18.039,13.7H21.1L19.562,8.766Zm13.74,2.959a1.464,1.464,0,0,0,1.074-.376,1.379,1.379,0,0,0,.371-1.05H36.31a3.653,3.653,0,0,1-1.245,2.852A4.631,4.631,0,0,1,31.857,19.2a4.689,4.689,0,0,1-3.633-1.445,5.7,5.7,0,0,1-1.328-4v-.137a6.436,6.436,0,0,1,.591-2.827,4.3,4.3,0,0,1,1.7-1.885,5.081,5.081,0,0,1,2.637-.659A4.573,4.573,0,0,1,35.1,9.381a4.053,4.053,0,0,1,1.211,3.1H33.224a1.807,1.807,0,0,0-.4-1.26,1.382,1.382,0,0,0-1.074-.439q-1.279,0-1.494,1.631a11.508,11.508,0,0,0-.068,1.426,4.52,4.52,0,0,0,.381,2.207A1.319,1.319,0,0,0,31.779,16.656ZM44,17.857A3.393,3.393,0,0,1,41.174,19.2a3.328,3.328,0,0,1-2.632-1.011,4.251,4.251,0,0,1-.894-2.905V8.434h3.291V15.3a1.183,1.183,0,0,0,1.318,1.357,1.72,1.72,0,0,0,1.611-.811V8.434h3.311V19H44.094Zm10.1,1.338a5.432,5.432,0,0,1-3.936-1.45,5.008,5.008,0,0,1-1.5-3.774V13.7a6.489,6.489,0,0,1,.6-2.861,4.395,4.395,0,0,1,1.753-1.919,5.292,5.292,0,0,1,2.734-.679A4.574,4.574,0,0,1,57.258,9.62a5.43,5.43,0,0,1,1.289,3.853v1.279H52a2.372,2.372,0,0,0,.771,1.4,2.3,2.3,0,0,0,1.543.508,2.958,2.958,0,0,0,2.441-1.094l1.5,1.777a4.2,4.2,0,0,1-1.743,1.353A5.891,5.891,0,0,1,54.094,19.2Zm-.371-8.418q-1.445,0-1.719,1.914h3.32v-.254a1.63,1.63,0,0,0-.4-1.226A1.593,1.593,0,0,0,53.722,10.777Zm12.539.635-1.084-.078a1.947,1.947,0,0,0-1.992.977V19H59.894V8.434H62.98l.107,1.357A2.548,2.548,0,0,1,65.4,8.238a3.209,3.209,0,0,1,.918.117Zm.586,2.227a6.455,6.455,0,0,1,1.084-3.955,3.568,3.568,0,0,1,3.027-1.445,3.035,3.035,0,0,1,2.383,1.113V4h3.3V19H73.683l-.166-1.133A3.116,3.116,0,0,1,70.939,19.2a3.562,3.562,0,0,1-2.988-1.445A6.659,6.659,0,0,1,66.847,13.639Zm3.291.205q0,2.813,1.641,2.813a1.62,1.62,0,0,0,1.563-.918V11.715a1.576,1.576,0,0,0-1.543-.937q-1.523,0-1.65,2.461Zm7.959-.225a6.236,6.236,0,0,1,.615-2.817A4.4,4.4,0,0,1,80.48,8.9a5.323,5.323,0,0,1,2.705-.664,4.858,4.858,0,0,1,3.74,1.47,5.64,5.64,0,0,1,1.367,4v.117a5.472,5.472,0,0,1-1.372,3.921A4.871,4.871,0,0,1,83.2,19.2a4.927,4.927,0,0,1-3.623-1.353,5.29,5.29,0,0,1-1.475-3.667Zm3.291.205a3.932,3.932,0,0,0,.459,2.148,1.529,1.529,0,0,0,1.357.684q1.758,0,1.8-2.705v-.332q0-2.842-1.816-2.842-1.65,0-1.787,2.451Zm23.154-.635a6.789,6.789,0,0,1-1.294,4.443,5.056,5.056,0,0,1-7.319-.01,6.779,6.779,0,0,1-1.3-4.434v-2.6a6.789,6.789,0,0,1,1.294-4.443,5.056,5.056,0,0,1,7.319.01,6.8,6.8,0,0,1,1.3,4.443Zm-3.291-3.018a5.071,5.071,0,0,0-.4-2.29,1.338,1.338,0,0,0-1.27-.757,1.307,1.307,0,0,0-1.235.7,4.777,4.777,0,0,0-.415,2.129V13.59a5.109,5.109,0,0,0,.4,2.329,1.343,1.343,0,0,0,1.27.737,1.325,1.325,0,0,0,1.24-.718,4.878,4.878,0,0,0,.41-2.251ZM116.174,19h-9.922V16.852l4.57-4.8q1.689-1.924,1.689-3.057a2.126,2.126,0,0,0-.4-1.4,1.43,1.43,0,0,0-1.162-.479,1.447,1.447,0,0,0-1.221.64,2.629,2.629,0,0,0-.469,1.6h-3.3a4.67,4.67,0,0,1,.654-2.417A4.588,4.588,0,0,1,108.429,5.2a5.4,5.4,0,0,1,2.6-.625,5.308,5.308,0,0,1,3.55,1.064A3.8,3.8,0,0,1,115.822,8.7a4.439,4.439,0,0,1-.312,1.636,7.174,7.174,0,0,1-.972,1.67,24.476,24.476,0,0,1-2.124,2.339l-1.836,2.119h5.6ZM127.717,6.539,122.4,19h-3.477L124.25,7.32h-6.777V4.781h10.244Zm6.318,7.1a6.455,6.455,0,0,1,1.084-3.955,3.568,3.568,0,0,1,3.027-1.445,3.035,3.035,0,0,1,2.383,1.113V4h3.3V19h-2.959l-.166-1.133a3.116,3.116,0,0,1-2.578,1.328,3.562,3.562,0,0,1-2.988-1.445A6.659,6.659,0,0,1,134.035,13.639Zm3.291.205q0,2.813,1.641,2.813a1.62,1.62,0,0,0,1.563-.918V11.715a1.576,1.576,0,0,0-1.543-.937q-1.523,0-1.65,2.461ZM150.812,19.2a5.432,5.432,0,0,1-3.936-1.45,5.008,5.008,0,0,1-1.5-3.774V13.7a6.489,6.489,0,0,1,.6-2.861,4.395,4.395,0,0,1,1.753-1.919,5.292,5.292,0,0,1,2.734-.679,4.574,4.574,0,0,1,3.516,1.382,5.43,5.43,0,0,1,1.289,3.853v1.279h-6.543a2.372,2.372,0,0,0,.771,1.4,2.3,2.3,0,0,0,1.543.508,2.958,2.958,0,0,0,2.441-1.094l1.5,1.777a4.2,4.2,0,0,1-1.743,1.353A5.891,5.891,0,0,1,150.812,19.2Zm-.371-8.418q-1.445,0-1.719,1.914h3.32v-.254a1.63,1.63,0,0,0-.4-1.226A1.593,1.593,0,0,0,150.441,10.777Zm21,8.223h-9.922V16.852l4.57-4.8q1.689-1.924,1.689-3.057a2.126,2.126,0,0,0-.4-1.4,1.43,1.43,0,0,0-1.162-.479,1.447,1.447,0,0,0-1.221.64,2.629,2.629,0,0,0-.469,1.6h-3.3a4.669,4.669,0,0,1,.654-2.417A4.588,4.588,0,0,1,163.693,5.2a5.4,5.4,0,0,1,2.6-.625,5.308,5.308,0,0,1,3.55,1.064A3.8,3.8,0,0,1,171.086,8.7a4.439,4.439,0,0,1-.312,1.636A7.173,7.173,0,0,1,169.8,12a24.476,24.476,0,0,1-2.124,2.339l-1.836,2.119h5.6Zm11.533-5.811a6.789,6.789,0,0,1-1.294,4.443,5.056,5.056,0,0,1-7.319-.01,6.779,6.779,0,0,1-1.3-4.434v-2.6a6.789,6.789,0,0,1,1.294-4.443,5.056,5.056,0,0,1,7.319.01,6.8,6.8,0,0,1,1.3,4.443Zm-3.291-3.018a5.071,5.071,0,0,0-.4-2.29,1.338,1.338,0,0,0-1.27-.757,1.307,1.307,0,0,0-1.235.7,4.777,4.777,0,0,0-.415,2.129V13.59a5.11,5.11,0,0,0,.4,2.329,1.343,1.343,0,0,0,1.27.737,1.325,1.325,0,0,0,1.24-.718,4.878,4.878,0,0,0,.41-2.251Zm14.873,3.018a6.789,6.789,0,0,1-1.294,4.443,5.056,5.056,0,0,1-7.319-.01,6.779,6.779,0,0,1-1.3-4.434v-2.6a6.789,6.789,0,0,1,1.294-4.443,5.056,5.056,0,0,1,7.319.01,6.8,6.8,0,0,1,1.3,4.443Zm-3.291-3.018a5.071,5.071,0,0,0-.4-2.29,1.338,1.338,0,0,0-1.27-.757,1.307,1.307,0,0,0-1.235.7,4.777,4.777,0,0,0-.415,2.129V13.59a5.11,5.11,0,0,0,.4,2.329,1.343,1.343,0,0,0,1.27.737,1.325,1.325,0,0,0,1.24-.718,4.878,4.878,0,0,0,.41-2.251Zm12.949-5.6V7.164h-.146a4.941,4.941,0,0,0-3.032.884,3.732,3.732,0,0,0-1.46,2.456,3.848,3.848,0,0,1,2.813-1.094,3.59,3.59,0,0,1,2.939,1.348,5.436,5.436,0,0,1,1.094,3.535,4.977,4.977,0,0,1-.64,2.49,4.564,4.564,0,0,1-1.787,1.772,5.135,5.135,0,0,1-2.544.64,5.307,5.307,0,0,1-2.705-.688,4.733,4.733,0,0,1-1.855-1.968,6.48,6.48,0,0,1-.684-2.949V12.271a8.208,8.208,0,0,1,.942-3.95,6.832,6.832,0,0,1,2.69-2.749,7.692,7.692,0,0,1,3.877-1Zm-2.969,7.373a1.889,1.889,0,0,0-1.094.3,1.917,1.917,0,0,0-.654.739v.982q0,2.684,1.865,2.684a1.515,1.515,0,0,0,1.255-.671,2.727,2.727,0,0,0,.5-1.682,2.677,2.677,0,0,0-.513-1.7A1.642,1.642,0,0,0,201.242,11.949Z" transform="translate(195.845 15.811)" fill="#fff"/>
        </g>
        <g id="freepik--Floor--inject-17" transform="translate(-26.417 560.673)">
          <path id="Trazado_180430" data-name="Trazado 180430" d="M490.036,455.131c0,.151-99.988.281-223.3.281s-223.324-.13-223.324-.281,99.966-.281,223.324-.281S490.036,455.012,490.036,455.131Z" transform="translate(-43.41 -454.85)" fill="#263238"/>
        </g>
      </g>
    </g>
  </g>
</svg>
