<svg xmlns="http://www.w3.org/2000/svg" width="820" height="324" viewBox="0 0 820 324">
  <g id="Grupo_129543" data-name="Grupo 129543" transform="translate(-393 -948)">
    <g id="Rectángulo_39648" data-name="Rectángulo 39648" transform="translate(393 948)" fill="#88e0ef" stroke="#64b5f6" stroke-linecap="round" stroke-width="4" opacity="0.15">
      <path d="M10,0H810a10,10,0,0,1,10,10V324a0,0,0,0,1,0,0H0a0,0,0,0,1,0,0V10A10,10,0,0,1,10,0Z" stroke="none"/>
      <path d="M10,2H810a8,8,0,0,1,8,8V320a2,2,0,0,1-2,2H4a2,2,0,0,1-2-2V10A8,8,0,0,1,10,2Z" fill="none"/>
    </g>
    <g id="AdobeStock_209717427_Convertido_-01" data-name="AdobeStock_209717427 [Convertido]-01" transform="translate(565.232 986.198)">
      <path id="Trazado_182300" data-name="Trazado 182300" d="M212.35,37.47v6.56h6.569V37.47Z" transform="translate(-17.086 -8.919)" fill="#b3353a"/>
      <path id="Trazado_182301" data-name="Trazado 182301" d="M223.186,37.47H219.48v2.566C220.675,39.156,221.917,38.295,223.186,37.47Z" transform="translate(-17.61 -8.919)" fill="#a166ad"/>
      <path id="Trazado_182302" data-name="Trazado 182302" d="M226.021,44.03V37.47h-2.835c-1.269.825-2.511,1.686-3.706,2.566V44.03Z" transform="translate(-17.61 -8.919)" fill="#a166ad"/>
      <path id="Trazado_182303" data-name="Trazado 182303" d="M233.242,41.056V37.47H228.23Q230.787,39.193,233.242,41.056Z" transform="translate(-18.253 -8.919)" fill="#a166ad"/>
      <path id="Trazado_182304" data-name="Trazado 182304" d="M233.118,44.03V41.056c-1.64-1.232-3.308-2.437-5.012-3.586H226.54v6.56Z" transform="translate(-18.129 -8.919)" fill="#a166ad"/>
      <path id="Trazado_182305" data-name="Trazado 182305" d="M233.64,37.47v6.56h6.569V37.47Z" transform="translate(-18.651 -8.919)" fill="#7a5980"/>
      <rect id="Rectángulo_39606" data-name="Rectángulo 39606" width="6.578" height="6.56" transform="translate(313.607 179.49)" fill="#4991c9"/>
      <path id="Trazado_182306" data-name="Trazado 182306" d="M247.83,30.39v6.56h13.147V30.39H247.83Z" transform="translate(-19.694 -8.399)" fill="#6da7d4"/>
      <path id="Trazado_182307" data-name="Trazado 182307" d="M314.618,29.869H294.893V23.3H262.02v6.569h26.3v6.56H321.2v-6.56Z" transform="translate(-20.736 -7.878)" fill="#6da7d4"/>
      <rect id="Rectángulo_39607" data-name="Rectángulo 39607" width="6.578" height="6.56" transform="translate(221.558 28.551)" fill="#6da7d4"/>
      <path id="Trazado_182308" data-name="Trazado 182308" d="M332.459,37.47H325.89v6.56h13.147V37.47Z" transform="translate(-25.43 -8.919)" fill="#6da7d4"/>
      <rect id="Rectángulo_39608" data-name="Rectángulo 39608" width="6.578" height="6.56" transform="translate(313.607 35.111)" fill="#6da7d4"/>
      <rect id="Rectángulo_39609" data-name="Rectángulo 39609" width="6.578" height="6.56" transform="translate(320.186 41.67)" fill="#6da7d4"/>
      <rect id="Rectángulo_39610" data-name="Rectángulo 39610" width="6.578" height="6.56" transform="translate(326.755 48.239)" fill="#6da7d4"/>
      <path id="Trazado_182309" data-name="Trazado 182309" d="M367.939,65.8H361.37V78.929h6.569V65.8Z" transform="translate(-28.037 -11.001)" fill="#6da7d4"/>
      <path id="Trazado_182310" data-name="Trazado 182310" d="M375.038,79.97H368.46V93.089h6.578V79.97Z" transform="translate(-28.558 -12.042)" fill="#6da7d4"/>
      <path id="Trazado_182311" data-name="Trazado 182311" d="M375.56,94.13v13.129h6.578V94.13Z" transform="translate(-29.08 -13.083)" fill="#6da7d4"/>
      <path id="Trazado_182312" data-name="Trazado 182312" d="M375.56,150.28V163.4h6.578V143.72H375.56Z" transform="translate(-29.08 -16.727)" fill="#6da7d4"/>
      <path id="Trazado_182313" data-name="Trazado 182313" d="M368.46,171.529v6.56h6.578V164.96H368.46Z" transform="translate(-28.558 -18.288)" fill="#6da7d4"/>
      <rect id="Rectángulo_39611" data-name="Rectángulo 39611" width="6.578" height="6.56" transform="translate(333.333 159.801)" fill="#6da7d4"/>
      <path id="Trazado_182314" data-name="Trazado 182314" d="M354.27,192.779v6.56h6.578V186.21H354.27Z" transform="translate(-27.515 -19.849)" fill="#6da7d4"/>
      <path id="Trazado_182315" data-name="Trazado 182315" d="M347.18,206.939h6.486l.093-.083V200.37h-6.569Z" transform="translate(-26.994 -20.89)" fill="#6da7d4"/>
      <rect id="Rectángulo_39612" data-name="Rectángulo 39612" width="6.578" height="6.56" transform="translate(307.029 186.049)" fill="#4991c9"/>
      <path id="Trazado_182316" data-name="Trazado 182316" d="M222.368,202.048H215.79v-6.56h-6.569v-6.56h-6.578v-6.56h-6.569V169.24H189.5V156.112h-6.578V142.992h-6.569V103.615h6.569V83.927H189.5v-6.56h6.578V64.238h6.569v-6.56h6.578V51.11h6.569V44.55H202.643v6.56h-6.569v6.569H189.5v6.56h-6.578V77.367h-6.569V97.056H169.77v52.5h6.578v13.129h6.569V175.8H189.5v13.129h6.578v6.56h6.569v6.56h6.578v6.569h19.725v-6.569Z" transform="translate(-10.687 -12.387)" fill="#c10065"/>
      <path id="Trazado_182317" data-name="Trazado 182317" d="M262.341,110.175V83.927h-6.578v-6.56h-6.578V64.238h-6.569v-6.56h-6.578V51.11h-6.569V44.55H216.312v6.56h-6.569v6.569h-6.578v6.56H196.6V77.367h-6.578v6.56h-6.578v19.688H176.87v39.377h6.569v13.119h6.578V169.24H196.6v13.129h6.569v6.56h6.578v6.56h6.569v6.56h13.156v6.569h6.569v-6.569h13.147v-6.56h6.578V175.8h6.578V156.112h6.569V110.175Z" transform="translate(-11.209 -12.387)" fill="#630077"/>
      <path id="Trazado_182318" data-name="Trazado 182318" d="M279.66,116.744V97.056h-6.578V77.395h-6.569V64.238h-6.6v-6.56h-6.578V51.11h-6.569V44.55H233.64v6.56h6.569v6.569h6.578v6.56h6.569V77.395h6.56v6.56h6.578V110.2h6.569v45.946h-6.569v19.688h-6.578v19.688h6.578V182.369h6.569V170.176c.111-.315.222-.621.324-.927h6.254v-13.1h6.578v-39.4Z" transform="translate(-15.38 -12.387)" fill="#6100b0"/>
      <path id="Trazado_182319" data-name="Trazado 182319" d="M253.877,214.02H240.73v6.569h19.726V207.46h-6.578Z" transform="translate(-15.901 -24.358)" fill="#6100b0"/>
      <path id="Trazado_182320" data-name="Trazado 182320" d="M359.6,109.655V96.535h-6.578V76.875h-6.578V63.718h-6.569v-6.56H333.3V50.589H313.576V44.03H287.281V37.47H260.959v6.56H247.83v6.56H254.4v6.569h6.56v6.56h6.578V76.875h6.569V96.563h6.578v19.688h6.578v39.377h-6.578v13.129H274.43c-.1.315-.213.621-.324.927v12.165h-6.569v13.119h-6.578v6.569h13.147v6.56H293.85v-6.56h19.726v-6.569h13.166v-6.56h6.578v-6.56H339.9V175.28h6.569v-6.56h6.578V155.628h6.578V129.343h6.569V109.655Z" transform="translate(-16.423 -11.867)" fill="#1c75bc"/>
      <rect id="Rectángulo_39613" data-name="Rectángulo 39613" width="6.578" height="6.56" transform="translate(297.152 189.671)" fill="#4991c9"/>
      <rect id="Rectángulo_39614" data-name="Rectángulo 39614" width="6.578" height="6.56" transform="translate(303.731 189.671)" fill="#4991c9"/>
      <path id="Trazado_182321" data-name="Trazado 182321" d="M229.848,221.63H226.54v6.56h6.578v-6.56Z" transform="translate(-14.859 -25.4)" fill="#b3353a"/>
      <path id="Trazado_182322" data-name="Trazado 182322" d="M233.64,221.63v6.56h6.569v-6.56Z" transform="translate(-15.38 -25.4)" fill="#a166ad"/>
      <path id="Trazado_182323" data-name="Trazado 182323" d="M240.73,226.78v1.788h4.531C243.76,228,242.231,227.4,240.73,226.78Z" transform="translate(-15.901 -25.778)" fill="#a166ad"/>
      <path id="Trazado_182324" data-name="Trazado 182324" d="M247.668,226.43c-.686.7-1.343,1.418-2.048,2.1h2.048Z" transform="translate(-16.261 -25.752)" fill="#a166ad"/>
      <path id="Trazado_182325" data-name="Trazado 182325" d="M240.73,221.63V226.4c1.5.621,3,1.223,4.531,1.779.7-.686,1.362-1.4,2.048-2.1V221.63Z" transform="translate(-15.901 -25.4)" fill="#a166ad"/>
      <path id="Trazado_182326" data-name="Trazado 182326" d="M251.925,221.63h-4.1v6.56H254.4v-6.56Z" transform="translate(-16.423 -25.4)" fill="#7a5980"/>
      <rect id="Rectángulo_39615" data-name="Rectángulo 39615" width="6.578" height="6.56" transform="translate(237.976 196.23)" fill="#4991c9"/>
      <rect id="Rectángulo_39616" data-name="Rectángulo 39616" width="6.578" height="6.56" transform="translate(244.554 196.23)" fill="#4991c9"/>
      <rect id="Rectángulo_39617" data-name="Rectángulo 39617" width="6.578" height="6.56" transform="translate(251.132 196.23)" fill="#4991c9"/>
      <path id="Trazado_182327" data-name="Trazado 182327" d="M281.746,30.39H262.02v6.56h26.3V30.39Z" transform="translate(-20.736 -8.399)" fill="#1c91bc"/>
      <path id="Trazado_182328" data-name="Trazado 182328" d="M247.83,37.47v6.56h13.147V37.47H247.83Z" transform="translate(-19.694 -8.919)" fill="#1c91bc"/>
      <path id="Trazado_182329" data-name="Trazado 182329" d="M329.852,44.03h-6.569V37.47H290.41v6.56H316.7v6.56H336.43V44.03Z" transform="translate(-22.823 -8.919)" fill="#1c91bc"/>
      <rect id="Rectángulo_39618" data-name="Rectángulo 39618" width="6.578" height="6.56" transform="translate(313.607 41.67)" fill="#1c91bc"/>
      <rect id="Rectángulo_39619" data-name="Rectángulo 39619" width="6.578" height="6.56" transform="translate(320.186 48.239)" fill="#1c91bc"/>
      <path id="Trazado_182330" data-name="Trazado 182330" d="M360.848,65.8H354.27V78.929h6.578V65.8Z" transform="translate(-27.515 -11.001)" fill="#1c91bc"/>
      <path id="Trazado_182331" data-name="Trazado 182331" d="M374.517,106.218V93.089h-6.578V79.97H361.37V99.658h6.569v13.119h6.578v19.688h-6.578v26.248h6.578V139.035H381.1V106.218Z" transform="translate(-28.037 -12.042)" fill="#1c91bc"/>
      <path id="Trazado_182332" data-name="Trazado 182332" d="M361.37,171.529v6.56h6.569V164.96H361.37Z" transform="translate(-28.037 -18.288)" fill="#1c91bc"/>
      <rect id="Rectángulo_39620" data-name="Rectángulo 39620" width="6.578" height="6.56" transform="translate(326.755 159.801)" fill="#1c91bc"/>
      <path id="Trazado_182333" data-name="Trazado 182333" d="M346.658,192.779H340.08v6.56h13.147V186.21h-6.569Z" transform="translate(-26.473 -19.849)" fill="#1c91bc"/>
      <rect id="Rectángulo_39621" data-name="Rectángulo 39621" width="6.578" height="6.56" transform="translate(307.029 179.49)" fill="#1c91bc"/>
      <path id="Trazado_182334" data-name="Trazado 182334" d="M318.79,207.46v6.56h13.147v-6.56H318.79Z" transform="translate(-21.638 -24.358)" fill="#1c91bc"/>
      <path id="Trazado_182335" data-name="Trazado 182335" d="M268.6,214.54H262.02v6.569h13.147V214.54Z" transform="translate(-17.466 -24.879)" fill="#1c91bc"/>
      <path id="Trazado_182336" data-name="Trazado 182336" d="M304.078,214.54H297.5v6.569h19.726V214.54H304.078Z" transform="translate(-20.073 -24.879)" fill="#1c91bc"/>
      <path id="Trazado_182337" data-name="Trazado 182337" d="M282.788,221.63H276.21v6.56h19.726v-6.56H282.788Z" transform="translate(-18.509 -25.4)" fill="#1c91bc"/>
      <rect id="Rectángulo_39622" data-name="Rectángulo 39622" width="6.578" height="6.56" transform="translate(277.427 196.23)" fill="#4991c9"/>
      <rect id="Rectángulo_39623" data-name="Rectángulo 39623" width="6.578" height="6.56" transform="translate(284.005 196.23)" fill="#4991c9"/>
      <path id="Trazado_182338" data-name="Trazado 182338" d="M318.269,221.63H311.7v6.56h6.569Z" transform="translate(-21.117 -25.4)" fill="#4991c9"/>
      <rect id="Rectángulo_39624" data-name="Rectángulo 39624" width="6.578" height="4.873" transform="translate(251.132 202.79)" fill="#4991c9"/>
      <rect id="Rectángulo_39625" data-name="Rectángulo 39625" width="6.578" height="4.873" transform="translate(257.701 202.79)" fill="#4991c9"/>
      <rect id="Rectángulo_39626" data-name="Rectángulo 39626" width="6.578" height="4.873" transform="translate(264.28 202.79)" fill="#4991c9"/>
      <rect id="Rectángulo_39627" data-name="Rectángulo 39627" width="6.578" height="4.873" transform="translate(270.858 202.79)" fill="#4991c9"/>
      <path id="Trazado_182339" data-name="Trazado 182339" d="M200.356,207.577v-6.569h-6.578v-6.56h-6.569v-6.56H180.63V174.759h-6.578V161.64h-6.569V148.511H160.9v-52.5h6.578V76.327h6.569V63.2h6.578v-6.56h6.578V50.069h6.569v-6.56h-6.569V36.95H160.9V30.39H141.179v6.56H121.454v6.56H108.307v6.56H88.581v6.569H82.012V63.2H75.434V76.327H68.856v6.56H62.287V96.015H55.708V115.7H49.13v32.808h6.578V168.2h6.578v13.129h6.569v13.119h6.578v6.56h6.578v6.569h6.569v6.56h13.147v6.56h13.147v6.569H134.6v6.56h32.882v-6.56h19.726V220.7h13.147v-6.56h6.569v-6.56Z" transform="translate(-5.092 -8.399)" fill="#ed1c24"/>
      <rect id="Rectángulo_39628" data-name="Rectángulo 39628" width="6.578" height="6.56" transform="translate(182.107 28.551)" fill="#ed3440"/>
      <path id="Trazado_182340" data-name="Trazado 182340" d="M104.857,49.548h6.578v-6.56h13.147v-6.56h19.726v-6.56h19.726v6.56h26.3v-6.56H170.612V23.3H137.73v6.569H118v6.56H104.857v6.56H91.71v6.56h13.147Z" transform="translate(-8.221 -7.878)" fill="#ed3440"/>
      <rect id="Rectángulo_39629" data-name="Rectángulo 39629" width="6.578" height="6.56" transform="translate(76.92 41.67)" fill="#ed3440"/>
      <rect id="Rectángulo_39630" data-name="Rectángulo 39630" width="6.578" height="6.56" transform="translate(70.342 48.239)" fill="#ed3440"/>
      <path id="Trazado_182341" data-name="Trazado 182341" d="M69.9,78.929h6.578V65.8H69.9v6.56H63.33V85.488H69.9Z" transform="translate(-6.136 -11.001)" fill="#ed3440"/>
      <path id="Trazado_182342" data-name="Trazado 182342" d="M62.808,93.61V87.05H56.23v13.129h6.578Z" transform="translate(-5.614 -12.562)" fill="#ed3440"/>
      <path id="Trazado_182343" data-name="Trazado 182343" d="M48.609,140.6V120.908h6.578V101.22H48.609v13.119H42.04v39.377h6.569V140.6Z" transform="translate(-4.571 -13.604)" fill="#ed3440"/>
      <path id="Trazado_182344" data-name="Trazado 182344" d="M55.708,164.44v-6.56H49.13v19.688h6.578V164.44Z" transform="translate(-5.092 -17.767)" fill="#ed3440"/>
      <path id="Trazado_182345" data-name="Trazado 182345" d="M62.808,179.13H56.23v13.129h6.578V179.13Z" transform="translate(-5.614 -19.329)" fill="#ed3440"/>
      <path id="Trazado_182346" data-name="Trazado 182346" d="M69.9,193.3H63.33v13.119H69.9V193.3Z" transform="translate(-6.136 -20.37)" fill="#ed3440"/>
      <rect id="Rectángulo_39631" data-name="Rectángulo 39631" width="6.578" height="6.56" transform="translate(63.763 186.049)" fill="#ed3440"/>
      <rect id="Rectángulo_39632" data-name="Rectángulo 39632" width="6.578" height="6.56" transform="translate(70.342 192.618)" fill="#ed3440"/>
      <rect id="Rectángulo_39633" data-name="Rectángulo 39633" width="6.578" height="6.56" transform="translate(76.92 199.178)" fill="#ed3440"/>
      <path id="Trazado_182347" data-name="Trazado 182347" d="M218.919,221.63v6.56H212.35v6.56H225.5V221.63Z" transform="translate(-17.086 -22.452)" fill="#ed3440"/>
      <path id="Trazado_182348" data-name="Trazado 182348" d="M98.288,228.71H91.71v6.56h13.147v-6.56Z" transform="translate(-8.221 -22.972)" fill="#ed3440"/>
      <path id="Trazado_182349" data-name="Trazado 182349" d="M112.478,235.79H105.9v6.569h13.147V235.79Z" transform="translate(-9.264 -23.493)" fill="#ed3440"/>
      <path id="Trazado_182350" data-name="Trazado 182350" d="M198.16,235.79v6.569h13.147V235.79H198.16Z" transform="translate(-16.044 -23.493)" fill="#ed3440"/>
      <path id="Trazado_182351" data-name="Trazado 182351" d="M133.247,242.88H120.09v6.56h19.726v-6.56Z" transform="translate(-10.307 -24.014)" fill="#ed3440"/>
      <path id="Trazado_182352" data-name="Trazado 182352" d="M183.439,242.88H176.87v6.56H196.6v-6.56H183.439Z" transform="translate(-14.479 -24.014)" fill="#ed3440"/>
      <path id="Trazado_182353" data-name="Trazado 182353" d="M161.105,249.96H141.38v6.56h32.882v-6.56H161.105Z" transform="translate(-11.871 -24.534)" fill="#ed3440"/>
      <path id="Trazado_182354" data-name="Trazado 182354" d="M154.537,22.919h19.725V18.11H141.38v4.809h13.157Z" transform="translate(-11.871 -7.496)" fill="#f4777c"/>
      <path id="Trazado_182355" data-name="Trazado 182355" d="M133.247,29.869h6.569V23.3H120.09v6.569h13.157Z" transform="translate(-10.307 -7.878)" fill="#f4777c"/>
      <path id="Trazado_182356" data-name="Trazado 182356" d="M183.439,29.869H196.6V23.3H176.87v6.569Z" transform="translate(-14.479 -7.878)" fill="#f4777c"/>
      <path id="Trazado_182357" data-name="Trazado 182357" d="M119.047,36.95V30.39H105.9v6.56h13.147Z" transform="translate(-9.264 -8.399)" fill="#f4777c"/>
      <path id="Trazado_182358" data-name="Trazado 182358" d="M204.729,36.95v6.56h6.578V30.39H198.16v6.56Z" transform="translate(-16.044 -8.399)" fill="#f4777c"/>
      <path id="Trazado_182359" data-name="Trazado 182359" d="M104.857,44.03V37.47H91.71v6.56h13.147Z" transform="translate(-8.221 -8.919)" fill="#f4777c"/>
      <rect id="Rectángulo_39634" data-name="Rectángulo 39634" width="6.578" height="6.56" transform="translate(76.92 35.111)" fill="#f4777c"/>
      <rect id="Rectángulo_39635" data-name="Rectángulo 39635" width="6.578" height="6.56" transform="translate(70.342 41.67)" fill="#f4777c"/>
      <rect id="Rectángulo_39636" data-name="Rectángulo 39636" width="6.578" height="6.56" transform="translate(63.763 48.239)" fill="#f4777c"/>
      <rect id="Rectángulo_39637" data-name="Rectángulo 39637" width="6.578" height="6.56" transform="translate(57.185 54.799)" fill="#f4777c"/>
      <path id="Trazado_182360" data-name="Trazado 182360" d="M62.808,79.449V72.88H56.23V86.009h6.578Z" transform="translate(-5.614 -11.521)" fill="#f4777c"/>
      <path id="Trazado_182361" data-name="Trazado 182361" d="M55.708,93.61V87.05H49.13v13.129h6.578Z" transform="translate(-5.092 -12.562)" fill="#f4777c"/>
      <path id="Trazado_182362" data-name="Trazado 182362" d="M48.609,107.78v-6.56H42.04v13.119h6.569Z" transform="translate(-4.571 -13.604)" fill="#f4777c"/>
      <path id="Trazado_182363" data-name="Trazado 182363" d="M41.723,141.637V115.38h-4v39.377h4V141.637Z" transform="translate(-4.254 -14.644)" fill="#f4777c"/>
      <path id="Trazado_182364" data-name="Trazado 182364" d="M48.609,164.44v-6.56H42.04v19.688h6.569V164.44Z" transform="translate(-4.571 -17.767)" fill="#f4777c"/>
      <path id="Trazado_182365" data-name="Trazado 182365" d="M55.708,179.13H49.13v13.129h6.578V179.13Z" transform="translate(-5.092 -19.329)" fill="#f4777c"/>
      <path id="Trazado_182366" data-name="Trazado 182366" d="M62.808,193.3H56.23v13.119h6.578V193.3Z" transform="translate(-5.614 -20.37)" fill="#f4777c"/>
      <rect id="Rectángulo_39638" data-name="Rectángulo 39638" width="6.578" height="6.56" transform="translate(57.185 186.049)" fill="#f4777c"/>
      <rect id="Rectángulo_39639" data-name="Rectángulo 39639" width="6.578" height="6.56" transform="translate(63.763 192.618)" fill="#f4777c"/>
      <rect id="Rectángulo_39640" data-name="Rectángulo 39640" width="6.578" height="6.56" transform="translate(70.342 199.178)" fill="#f4777c"/>
      <rect id="Rectángulo_39641" data-name="Rectángulo 39641" width="6.578" height="6.56" transform="translate(76.92 205.738)" fill="#f4777c"/>
      <rect id="Rectángulo_39642" data-name="Rectángulo 39642" width="6.578" height="6.56" transform="translate(211.681 202.79)" fill="#f4777c"/>
      <path id="Trazado_182367" data-name="Trazado 182367" d="M98.288,235.79H91.71v6.569h13.147V235.79Z" transform="translate(-8.221 -23.493)" fill="#f4777c"/>
      <path id="Trazado_182368" data-name="Trazado 182368" d="M212.35,235.79v6.569H225.5V235.79H212.35Z" transform="translate(-17.086 -23.493)" fill="#f4777c"/>
      <path id="Trazado_182369" data-name="Trazado 182369" d="M112.478,242.88H105.9v6.56h13.147v-6.56Z" transform="translate(-9.264 -24.014)" fill="#f4777c"/>
      <path id="Trazado_182370" data-name="Trazado 182370" d="M198.16,242.88v6.56h13.147v-6.56H198.16Z" transform="translate(-16.044 -24.014)" fill="#f4777c"/>
      <path id="Trazado_182371" data-name="Trazado 182371" d="M133.247,249.96H120.09v6.56h19.726v-6.56Z" transform="translate(-10.307 -24.534)" fill="#f4777c"/>
      <path id="Trazado_182372" data-name="Trazado 182372" d="M183.439,249.96H176.87v6.56H196.6v-6.56H183.439Z" transform="translate(-14.479 -24.534)" fill="#f4777c"/>
      <path id="Trazado_182373" data-name="Trazado 182373" d="M161.106,257H141.39v5.4h32.484l.389-.046V257Z" transform="translate(-11.872 -25.051)" fill="#f4777c"/>
      <path id="Trazado_182374" data-name="Trazado 182374" d="M147.322,124.085a107.014,107.014,0,0,1,51.025-91.252A123.428,123.428,0,1,0,217.979,224.8a107.127,107.127,0,0,1-70.657-100.719Z" transform="translate(1.656 -13.948)" fill="#ed1c24"/>
      <path id="Trazado_182375" data-name="Trazado 182375" d="M265.183,139.617A125.445,125.445,0,0,0,207.506,34a108.959,108.959,0,0,0,19.971,195.286,125.2,125.2,0,0,0,37.705-89.669Z" transform="translate(-10.761 -16.989)" fill="#630077"/>
    </g>
    <g id="magnifying_glass" data-name="magnifying glass" transform="translate(747.021 986.197)">
      <g id="freepik--magnifying-glass--inject-228" transform="translate(0 0)">
        <rect id="Rectángulo_39645" data-name="Rectángulo 39645" width="31.424" height="53.508" transform="translate(194.907 152.92) rotate(-73.06)" fill="#263238"/>
        <rect id="Rectángulo_39646" data-name="Rectángulo 39646" width="31.424" height="53.508" transform="translate(194.907 152.92) rotate(-73.06)" fill="#fff" opacity="0.1"/>
        <rect id="Rectángulo_39647" data-name="Rectángulo 39647" width="7.172" height="53.508" transform="translate(194.896 152.923) rotate(-73.06)" opacity="0.3"/>
        <path id="Trazado_182383" data-name="Trazado 182383" d="M71.063,383.205A104.983,104.983,0,1,0,202,313.38,104.983,104.983,0,0,0,71.063,383.205ZM260,440.758a92.534,92.534,0,1,1-61.559-115.477A92.534,92.534,0,0,1,260,440.758Z" transform="translate(-66.469 -299.692)" fill="#263238"/>
        <path id="Trazado_182384" data-name="Trazado 182384" d="M71.063,383.205A104.983,104.983,0,1,0,202,313.38,104.983,104.983,0,0,0,71.063,383.205ZM260,440.758a92.534,92.534,0,1,1-61.559-115.477A92.534,92.534,0,0,1,260,440.758Z" transform="translate(-66.469 -299.692)" fill="#fff" opacity="0.1"/>
        <path id="Trazado_182385" data-name="Trazado 182385" d="M72.483,378.533a104.983,104.983,0,1,0,130.935-69.826A104.983,104.983,0,0,0,72.483,378.533Zm188.938,57.553a92.534,92.534,0,1,1-61.559-115.477,92.534,92.534,0,0,1,61.559,115.477Z" transform="translate(-65.114 -304.146)" fill="#263238"/>
        <path id="Trazado_182386" data-name="Trazado 182386" d="M72.483,378.533a104.983,104.983,0,1,0,130.935-69.826A104.983,104.983,0,0,0,72.483,378.533Zm188.938,57.553a92.534,92.534,0,1,1-61.559-115.477,92.534,92.534,0,0,1,61.559,115.477Z" transform="translate(-65.114 -304.146)" fill="#fff" opacity="0.3"/>
        <path id="Trazado_182387" data-name="Trazado 182387" d="M369.945,444.359h0a20.969,20.969,0,0,1-26.168,13.953l-150.79-45.925a6.859,6.859,0,0,1-4.553-8.54l8.247-27.066a6.84,6.84,0,0,1,8.54-4.534l150.712,45.964A20.989,20.989,0,0,1,369.945,444.359Z" transform="translate(49.635 -239.447)" fill="#263238"/>
        <path id="Trazado_182388" data-name="Trazado 182388" d="M369.945,444.359h0a20.969,20.969,0,0,1-26.168,13.953l-150.79-45.925a6.859,6.859,0,0,1-4.553-8.54l8.247-27.066a6.84,6.84,0,0,1,8.54-4.534l150.712,45.964A20.989,20.989,0,0,1,369.945,444.359Z" transform="translate(49.635 -239.447)" fill="#fff" opacity="0.3"/>
        <path id="Trazado_182389" data-name="Trazado 182389" d="M370.7,428.624a18.23,18.23,0,0,1-.762,3.518A20.989,20.989,0,0,1,343.753,446.1L192.982,400.151a6.781,6.781,0,0,1-4.534-8.5l2.071-6.859a6.82,6.82,0,0,0,4.553,8.521l150.771,45.925A20.969,20.969,0,0,0,370.7,428.624Z" transform="translate(49.64 -227.191)" opacity="0.3"/>
        <path id="Trazado_182390" data-name="Trazado 182390" d="M278.157,401.329c4.2,1.27,6.723,5.179,5.648,8.736s-5.374,5.413-9.556,4.123-6.723-5.2-5.648-8.735S273.975,400.039,278.157,401.329Z" transform="translate(126.18 -211.797)" opacity="0.3"/>
        <path id="Trazado_182391" data-name="Trazado 182391" d="M123.88,330.641c9.2,6.273,10.006,21.145,1.8,33.222S103.321,380.611,94.1,374.338s-10.006-21.145-1.778-33.222S114.714,324.368,123.88,330.641Z" transform="translate(-47.233 -281.522)" fill="#fff" opacity="0.4"/>
        <path id="Trazado_182392" data-name="Trazado 182392" d="M116.921,348.532c1.954,1.329,2.111,4.456.371,6.977s-4.69,3.518-6.625,2.208-2.111-4.456-.371-6.977S114.986,347.222,116.921,348.532Z" transform="translate(-25.793 -262.341)" fill="#fff" opacity="0.4"/>
      </g>
    </g>
  </g>
</svg>
