<svg xmlns="http://www.w3.org/2000/svg" xmlns:xlink="http://www.w3.org/1999/xlink" width="505" height="394" viewBox="0 0 505 394">
  <defs>
    <clipPath id="clip-path">
      <path id="Rectángulo_39706" data-name="Rectángulo 39706" d="M0,0H503a0,0,0,0,1,0,0V394a0,0,0,0,1,0,0H164A164,164,0,0,1,0,230V0A0,0,0,0,1,0,0Z" transform="translate(916 2554)" fill="#fff"/>
    </clipPath>
  </defs>
  <g id="Grupo_129546" data-name="Grupo 129546" transform="translate(-915 -2557)">
    <g id="Enmascarar_grupo_70" data-name="Enmascarar grupo 70" transform="translate(1 3)" clip-path="url(#clip-path)">
      <g id="AdobeStock_67493501_Convertido_-01" data-name="AdobeStock_67493501 [Convertido]-01" transform="translate(1022.436 2634.973)">
        <g id="Background" transform="translate(-168.636 -80.973)">
          <path id="Trazado_182393" data-name="Trazado 182393" d="M282.6,0H0V408.014H565.2V0Z" transform="translate(0 0)" fill="#f99926"/>
        </g>
        <g id="Icons" transform="translate(-59.723 8.105)">
          <path id="Trazado_182394" data-name="Trazado 182394" d="M421.7,386.87c-6.9,0-12.5,6.774-12.5,15.13V559.534c0,8.355,5.6,15.13,12.5,15.131H584.758c6.9,0,12.5-6.774,12.5-15.13V428.7L562.7,386.87Z" transform="translate(-409.2 -386.87)" fill="#c7f3ff"/>
          <path id="Trazado_182395" data-name="Trazado 182395" d="M2460.356,424.853l32.451,39.275V428.7L2458.25,386.87Z" transform="translate(-2304.747 -386.87)" fill="#a5e7ff"/>
          <path id="Trazado_182396" data-name="Trazado 182396" d="M612.63,598.02v149.5H770.21V602.255l-3.5-4.235Z" transform="translate(-597.39 -578.875)" fill="#35b7e5"/>
          <path id="Trazado_182397" data-name="Trazado 182397" d="M2472.431,598.02l1.044,18.838,17.211,20.831V602.255l-3.5-4.235Z" transform="translate(-2317.866 -578.875)" fill="#20add3"/>
          <path id="Trazado_182398" data-name="Trazado 182398" d="M2458.25,417.784c0,6.025,4.036,10.91,9.014,10.911h25.544L2458.25,386.87Z" transform="translate(-2304.747 -386.87)" fill="#fff"/>
          <path id="Trazado_182399" data-name="Trazado 182399" d="M654.834,1433.208l-42.2,56.7v14.211h95.11l-41.66-70.9C662.976,1429,657.938,1429,654.834,1433.208Z" transform="translate(-597.39 -1335.466)" fill="#363d6b"/>
          <path id="Trazado_182400" data-name="Trazado 182400" d="M984.858,1610.29l-36.008,57.722h69.922l-.128-.218Z" transform="translate(-908.423 -1499.363)" fill="#262f59"/>
          <path id="Trazado_182401" data-name="Trazado 182401" d="M1261.568,1179.815,1203,1273.7h113.353v-37.471l-43.539-56.41C1269.709,1175.605,1264.672,1175.605,1261.568,1179.815Z" transform="translate(-1143.533 -1105.048)" fill="#363d6b"/>
          <path id="Trazado_182402" data-name="Trazado 182402" d="M1784.908,1179.813l-16.188,25.949,1.075,1.392c2.938,3.989,7.608,4.2,10.731.634l4.72,6.118c3.1,4.21,8.141,4.21,11.246,0l4.21-6.749c3.1,4.2,8.14,4.2,11.243,0l2.372-3.808-18.167-23.537C1793.05,1175.6,1788.012,1175.6,1784.908,1179.813Z" transform="translate(-1666.873 -1105.045)" fill="#c7f3ff"/>
          <path id="Trazado_182403" data-name="Trazado 182403" d="M978.79,1433.2l-15.97,21.453c2.949,3.536,7.369,3.59,10.366.174l4.72,6.118c3.1,4.21,8.142,4.21,11.246,0l4.21-6.75c2.681,3.632,6.8,4.124,9.875,1.479l-13.2-22.474C986.932,1429,981.894,1429,978.79,1433.2Z" transform="translate(-921.346 -1335.463)" fill="#a5e7ff"/>
          <path id="Trazado_182404" data-name="Trazado 182404" d="M1061.961,598h-13.11c-9.538,3.409-16.5,14.064-16.5,26.675,0,15.358,10.327,27.818,23.057,27.818s23.057-12.459,23.057-27.818C1078.463,612.066,1071.5,601.411,1061.961,598Z" transform="translate(-985.667 -578.857)" fill="#4ec6f8"/>
          <ellipse id="Elipse_5536" data-name="Elipse 5536" cx="15.778" cy="19.036" rx="15.778" ry="19.036" transform="translate(53.96 26.784)" fill="#ffa837"/>
          <path id="Trazado_182405" data-name="Trazado 182405" d="M3634.052,386.87c-6.9,0-12.5,6.774-12.5,15.13V559.534c0,8.355,5.6,15.13,12.5,15.131h163.056c6.9,0,12.5-6.774,12.5-15.13V428.7l-34.556-41.827Z" transform="translate(-3380.9 -386.87)" fill="#c7f3ff"/>
          <path id="Trazado_182406" data-name="Trazado 182406" d="M5672.707,424.853l32.451,39.275V428.7L5670.6,386.87Z" transform="translate(-5276.448 -386.87)" fill="#a5e7ff"/>
          <path id="Trazado_182407" data-name="Trazado 182407" d="M3824.981,598.02v149.5h157.58V602.255l-3.5-4.235Z" transform="translate(-3569.09 -578.875)" fill="#35b7e5"/>
          <path id="Trazado_182408" data-name="Trazado 182408" d="M5684.77,598.02l1.045,18.838,17.211,20.831V602.255l-3.5-4.235Z" transform="translate(-5289.555 -578.875)" fill="#20add3"/>
          <path id="Trazado_182409" data-name="Trazado 182409" d="M5670.6,417.784c0,6.026,4.036,10.911,9.015,10.911h25.546L5670.6,386.87Z" transform="translate(-5276.448 -386.87)" fill="#fff"/>
          <path id="Trazado_182410" data-name="Trazado 182410" d="M3977.127,1468.76h-5.433v-6.576h-5.436v-6.576h-5.434v-6.577h-54.338v6.577h-5.433v13.152h-5.435v6.577h-5.433l-43.471-6.577v6.577h-5.434v6.576h-5.433v6.576h-5.436v6.577h-5.432v26.307h157.58v-46.037h-5.434Z" transform="translate(-3569.09 -1352.724)" fill="#363d6b"/>
          <rect id="Rectángulo_39650" data-name="Rectángulo 39650" width="19.099" height="11.957" transform="translate(291.658 114.845)" fill="#c7f3ff"/>
          <rect id="Rectángulo_39651" data-name="Rectángulo 39651" width="5.434" height="6.576" transform="translate(299.36 23.963)" fill="#e9ac4e"/>
          <rect id="Rectángulo_39652" data-name="Rectángulo 39652" width="5.434" height="6.576" transform="translate(299.36 56.846)" fill="#e9ac4e"/>
          <rect id="Rectángulo_39653" data-name="Rectángulo 39653" width="5.434" height="6.576" transform="translate(310.228 23.963)" fill="#e9ac4e"/>
          <rect id="Rectángulo_39654" data-name="Rectángulo 39654" width="5.434" height="6.576" transform="translate(310.228 56.846)" fill="#e9ac4e"/>
          <rect id="Rectángulo_39655" data-name="Rectángulo 39655" width="5.434" height="6.576" transform="translate(288.493 43.693)" fill="#a7b797"/>
          <rect id="Rectángulo_39656" data-name="Rectángulo 39656" width="5.434" height="6.576" transform="translate(288.493 37.117)" fill="#a7b797"/>
          <rect id="Rectángulo_39657" data-name="Rectángulo 39657" width="5.434" height="6.576" transform="translate(321.096 43.693)" fill="#a7b797"/>
          <rect id="Rectángulo_39658" data-name="Rectángulo 39658" width="5.434" height="6.576" transform="translate(321.096 37.117)" fill="#a7b797"/>
          <path id="Trazado_182411" data-name="Trazado 182411" d="M4349.013,651.16h-5.434v6.577H4332.71v26.306h10.869v6.577h5.434v-6.577h10.868V657.737h-10.868Z" transform="translate(-4038.784 -627.197)" fill="#ffa837"/>
          <rect id="Rectángulo_39659" data-name="Rectángulo 39659" width="5.434" height="6.577" transform="translate(353.698 70)" fill="#50b0d7"/>
          <rect id="Rectángulo_39660" data-name="Rectángulo 39660" width="5.434" height="6.577" transform="translate(359.132 70)" fill="#7fb7d4"/>
          <rect id="Rectángulo_39661" data-name="Rectángulo 39661" width="5.434" height="6.577" transform="translate(364.566 70)" fill="#7fb7d4"/>
          <rect id="Rectángulo_39662" data-name="Rectángulo 39662" width="5.434" height="6.577" transform="translate(370 70)" fill="#50b0d7"/>
          <rect id="Rectángulo_39663" data-name="Rectángulo 39663" width="5.434" height="6.576" transform="translate(370 76.576)" fill="#bee9f7"/>
          <rect id="Rectángulo_39664" data-name="Rectángulo 39664" width="5.434" height="6.576" transform="translate(348.264 76.576)" fill="#bee9f7"/>
          <rect id="Rectángulo_39665" data-name="Rectángulo 39665" width="5.434" height="6.576" transform="translate(288.493 102.883)" fill="#bee9f7"/>
          <rect id="Rectángulo_39666" data-name="Rectángulo 39666" width="5.434" height="6.576" transform="translate(304.794 102.883)" fill="#bee9f7"/>
          <rect id="Rectángulo_39667" data-name="Rectángulo 39667" width="5.434" height="6.576" transform="translate(304.794 96.306)" fill="#bee9f7"/>
          <rect id="Rectángulo_39668" data-name="Rectángulo 39668" width="5.434" height="6.576" transform="translate(304.794 102.883)" fill="#bee9f7"/>
          <rect id="Rectángulo_39669" data-name="Rectángulo 39669" width="5.434" height="6.576" transform="translate(342.831 83.152)" fill="#7fb7d4"/>
          <rect id="Rectángulo_39670" data-name="Rectángulo 39670" width="5.434" height="6.576" transform="translate(348.264 83.152)" fill="#bee9f7"/>
          <rect id="Rectángulo_39671" data-name="Rectángulo 39671" width="5.434" height="6.577" transform="translate(342.831 89.73)" fill="#acd6e8"/>
          <rect id="Rectángulo_39672" data-name="Rectángulo 39672" width="5.434" height="6.576" transform="translate(337.396 96.306)" fill="#a3c6da"/>
          <rect id="Rectángulo_39673" data-name="Rectángulo 39673" width="5.434" height="6.576" transform="translate(331.963 102.883)" fill="#6385a9"/>
          <rect id="Rectángulo_39674" data-name="Rectángulo 39674" width="5.434" height="6.577" transform="translate(326.529 116.037)" fill="#365381"/>
          <rect id="Rectángulo_39675" data-name="Rectángulo 39675" width="5.434" height="6.576" transform="translate(386.301 96.306)" fill="#6385a9"/>
          <rect id="Rectángulo_39676" data-name="Rectángulo 39676" width="5.434" height="6.576" transform="translate(391.735 102.883)" fill="#365381"/>
          <rect id="Rectángulo_39677" data-name="Rectángulo 39677" width="5.434" height="6.576" transform="translate(397.168 109.459)" fill="#365381"/>
          <rect id="Rectángulo_39678" data-name="Rectángulo 39678" width="5.434" height="6.577" transform="translate(402.602 116.037)" fill="#366a98"/>
          <rect id="Rectángulo_39679" data-name="Rectángulo 39679" width="5.434" height="6.576" transform="translate(408.036 122.613)" fill="#366a98"/>
          <rect id="Rectángulo_39680" data-name="Rectángulo 39680" width="5.434" height="6.576" transform="translate(370 102.883)" fill="#91afc8"/>
          <rect id="Rectángulo_39681" data-name="Rectángulo 39681" width="5.434" height="6.576" transform="translate(353.698 102.883)" fill="#91afc8"/>
          <rect id="Rectángulo_39682" data-name="Rectángulo 39682" width="5.434" height="6.576" transform="translate(375.433 96.306)" fill="#a3c6da"/>
          <rect id="Rectángulo_39683" data-name="Rectángulo 39683" width="5.434" height="6.576" transform="translate(380.868 96.306)" fill="#a3c6da"/>
          <rect id="Rectángulo_39684" data-name="Rectángulo 39684" width="5.434" height="6.577" transform="translate(380.868 89.73)" fill="#acd6e8"/>
          <rect id="Rectángulo_39685" data-name="Rectángulo 39685" width="5.434" height="6.576" transform="translate(375.433 83.152)" fill="#bee9f7"/>
          <rect id="Rectángulo_39686" data-name="Rectángulo 39686" width="5.434" height="6.576" transform="translate(288.493 96.306)" fill="#50b0d7"/>
          <rect id="Rectángulo_39687" data-name="Rectángulo 39687" width="5.434" height="6.576" transform="translate(283.059 102.883)" fill="#50b0d7"/>
          <rect id="Rectángulo_39688" data-name="Rectángulo 39688" width="5.434" height="6.576" transform="translate(277.625 109.459)" fill="#50b0d7"/>
          <rect id="Rectángulo_39689" data-name="Rectángulo 39689" width="5.434" height="6.576" transform="translate(310.228 102.883)" fill="#50b0d7"/>
          <rect id="Rectángulo_39690" data-name="Rectángulo 39690" width="5.434" height="6.576" transform="translate(315.662 109.459)" fill="#a3c6da"/>
          <rect id="Rectángulo_39691" data-name="Rectángulo 39691" width="5.434" height="6.577" transform="translate(310.228 116.037)" fill="#91afc8"/>
          <path id="Trazado_182412" data-name="Trazado 182412" d="M5018.123,1238.006h-5.433v-6.576h-16.3v13.153h-5.434v6.577h-5.433v6.577h16.3v6.577h10.868v-6.577h5.433v-6.577h5.435v-6.577h-5.435Z" transform="translate(-4642.689 -1154.854)" fill="#c7f3ff"/>
          <path id="Trazado_182413" data-name="Trazado 182413" d="M4276.48,1455.607v-6.577h-10.867v13.153h-5.433v6.576h27.168v-6.576H4276.48Z" transform="translate(-3971.688 -1352.724)" fill="#c7f3ff"/>
          <rect id="Rectángulo_39692" data-name="Rectángulo 39692" width="5.434" height="6.576" transform="translate(283.059 109.459)" fill="#acd6e8"/>
          <rect id="Rectángulo_39693" data-name="Rectángulo 39693" width="5.434" height="6.577" transform="translate(288.493 116.037)" fill="#91afc8"/>
          <rect id="Rectángulo_39694" data-name="Rectángulo 39694" width="5.434" height="6.577" transform="translate(283.059 116.037)" fill="#365381"/>
          <rect id="Rectángulo_39695" data-name="Rectángulo 39695" width="5.434" height="6.577" transform="translate(277.625 116.037)" fill="#6385a9"/>
          <rect id="Rectángulo_39696" data-name="Rectángulo 39696" width="16.301" height="6.576" transform="translate(277.625 122.613)" fill="#365381"/>
          <rect id="Rectángulo_39697" data-name="Rectángulo 39697" width="10.868" height="6.576" transform="translate(293.926 122.613)" fill="#91afc8"/>
          <rect id="Rectángulo_39698" data-name="Rectángulo 39698" width="5.434" height="6.576" transform="translate(304.794 122.613)" fill="#365381"/>
          <path id="Trazado_182414" data-name="Trazado 182414" d="M4214.819,1745.746v6.576h-5.434v6.577h-5.434v6.576h-5.435v6.577h-5.433v6.576h-5.434v6.577h10.867v-6.577h5.435v-6.576h5.434v-6.577h5.434V1758.9h5.434v-6.577h5.434V1739.17h-10.868Z" transform="translate(-3904.591 -1616.557)" fill="#262f59"/>
          <path id="Trazado_182415" data-name="Trazado 182415" d="M4446.821,1541.3h-5.435v-6.577h-5.434v-6.576h-5.435v-6.576h-16.3v6.576h-21.735v-6.576h-16.3v6.576h-5.435V1541.3h-10.866v13.153h-5.434v6.577h-5.435v6.576h-5.434v6.577h-5.434v6.576h-5.436v6.577h119.545v-39.46h-5.434Z" transform="translate(-4038.784 -1418.687)" fill="#363d6b"/>
          <path id="Trazado_182416" data-name="Trazado 182416" d="M3841.281,1818.276h-5.433v6.577h-5.436v6.576h-5.432v19.731h27.168v-6.577h5.433v-6.576h5.434v-6.577h5.435v-6.576h5.434v-6.577h5.434V1811.7h-38.038Z" transform="translate(-3569.09 -1682.511)" fill="#363d6b"/>
          <rect id="Rectángulo_39699" data-name="Rectángulo 39699" width="5.434" height="6.576" transform="translate(255.89 142.343)" fill="#3581af"/>
          <rect id="Rectángulo_39700" data-name="Rectángulo 39700" width="5.434" height="6.576" transform="translate(261.323 135.765)" fill="#3581af"/>
          <rect id="Rectángulo_39701" data-name="Rectángulo 39701" width="5.434" height="6.576" transform="translate(266.758 129.189)" fill="#3581af"/>
          <rect id="Rectángulo_39702" data-name="Rectángulo 39702" width="5.434" height="6.576" transform="translate(272.191 122.613)" fill="#3581af"/>
          <rect id="Rectángulo_39703" data-name="Rectángulo 39703" width="5.434" height="6.576" transform="translate(315.662 109.459)" fill="#6a9ec0"/>
          <rect id="Rectángulo_39704" data-name="Rectángulo 39704" width="5.434" height="6.577" transform="translate(315.662 116.037)" fill="#a3c6da"/>
        </g>
      </g>
    </g>
    <g id="Grupo_129507" data-name="Grupo 129507" transform="translate(-68.445 -511.345)">
      <g id="Elipse_4089" data-name="Elipse 4089" transform="translate(988.445 3382)" fill="none" stroke="#ff5151" stroke-width="5">
        <ellipse cx="38" cy="38.5" rx="38" ry="38.5" stroke="none"/>
        <ellipse cx="38" cy="38.5" rx="35.5" ry="36" fill="none"/>
      </g>
      <g id="Elipse_4090" data-name="Elipse 4090" transform="translate(1004.445 3356)" fill="none" stroke="#ff5151" stroke-width="5">
        <circle cx="11" cy="11" r="11" stroke="none"/>
        <circle cx="11" cy="11" r="8.5" fill="none"/>
      </g>
      <g id="Elipse_4091" data-name="Elipse 4091" transform="translate(1070.445 3422)" fill="#ff5151" stroke="#ff5151" stroke-width="5">
        <ellipse cx="5" cy="5.5" rx="5" ry="5.5" stroke="none"/>
        <ellipse cx="5" cy="5.5" rx="2.5" ry="3" fill="none"/>
      </g>
      <g id="Elipse_4092" data-name="Elipse 4092" transform="translate(983.445 3453)" fill="#ff5151" stroke="#ff5151" stroke-width="5">
        <ellipse cx="2.5" cy="3" rx="2.5" ry="3" stroke="none"/>
        <ellipse cx="2.5" cy="3" ry="0.5" fill="none"/>
      </g>
    </g>
  </g>
</svg>
